
<svg xmlns="http://www.w3.org/2000/svg" version="1.1" xmlns:xlink="http://www.w3.org/1999/xlink" preserveAspectRatio="none" x="0px" y="0px" width="100px" height="100px" viewBox="0 0 100 100">
<defs>
<g id="Layer29_0_FILL">
<path fill="#000000" fill-opacity="0.2" stroke="none" d="
M 8.95 76.4
Q 6.35 76.4 4.65 78.1
L -8.05 90.8 -9.65 89.2
Q -11.3 87.45 -13.95 87.5 -16.5 87.45 -18.15 89.2
L -21.85 92.9
Q -23.05 94.1 -23.45 95.8
L -29.25 119.5
Q -29.25 119.7 -29.3 119.95 -29.45 120.9 -29.3 121.85 -29.2 122.55 -29 123.15 -28.5 124.25 -27.65 125.1
L -25.1 127.65
Q -24.25 128.5 -23.1 129 -22.5 129.25 -21.8 129.35 -20.9 129.45 -19.9 129.35 -19.65 129.3 -19.45 129.3
L 4.25 123.5
Q 5.9 123.05 7.1 121.85
L 10.8 118.15
Q 12.55 116.5 12.5 113.95 12.55 111.3 10.8 109.65
L 8.95 107.8 21.65 95.1
Q 23.35 93.4 23.4 90.85 23.4 88.25 21.65 86.6
L 13.15 78.1
Q 11.5 76.35 8.95 76.4
M 9.65 81.6
L 18.15 90.1
Q 18.4 90.35 18.4 90.85 18.4 91.25 18.1 91.55
L 1.85 107.8 7.25 113.2
Q 7.55 113.5 7.55 113.9 7.55 114.3 7.25 114.6
L 3.55 118.3
Q 3.35 118.5 3.05 118.6
L -20.65 124.4
Q -20.9 124.45 -21.15 124.4 -21.35 124.3 -21.55 124.1
L -24.1 121.55
Q -24.25 121.4 -24.4 121.15 -24.45 120.9 -24.4 120.65
L -18.6 96.95
Q -18.5 96.65 -18.3 96.45
L -14.6 92.75
Q -14.3 92.45 -13.9 92.45 -13.5 92.45 -13.2 92.75
L -8.05 97.9 8.2 81.65
Q 8.5 81.35 8.9 81.35 9.35 81.3 9.65 81.6
M 91.05 76.5
Q 88.5 76.4 86.8 78.15
L 78.3 86.65
Q 76.6 88.3 76.6 90.95 76.6 93.45 78.3 95.15
L 91.05 107.9 89.2 109.75
Q 87.45 111.4 87.45 114 87.45 116.6 89.15 118.2
L 92.9 121.95
Q 94.1 123.15 95.7 123.55
L 119.4 129.35
Q 119.65 129.4 119.9 129.45 120.85 129.5 121.8 129.45 122.5 129.35 123.1 129.1 124.2 128.55 125.05 127.7
L 127.6 125.15
Q 128.45 124.3 128.95 123.2 129.2 122.65 129.3 121.95 129.4 120.95 129.3 120.05 129.25 119.8 129.2 119.55
L 123.4 95.85
Q 123.05 94.2 121.85 93
L 118.1 89.25
Q 116.5 87.55 113.9 87.55 111.3 87.55 109.65 89.3
L 108.05 90.9 95.3 78.15
Q 93.6 76.45 91.05 76.5
M 91.05 81.4
Q 91.45 81.4 91.75 81.7
L 108 97.95 113.15 92.8
Q 113.45 92.5 113.9 92.55 114.3 92.55 114.55 92.8
L 118.3 96.55
Q 118.5 96.75 118.6 97
L 124.35 120.7
Q 124.4 120.95 124.35 121.2 124.25 121.5 124.1 121.65
L 121.55 124.2
Q 121.35 124.4 121.1 124.45 120.85 124.5 120.6 124.45
L 96.95 118.65
Q 96.65 118.6 96.45 118.4
L 92.7 114.65
Q 92.45 114.4 92.45 114 92.4 113.55 92.7 113.25
L 98.1 107.85 81.85 91.6
Q 81.55 91.3 81.55 90.9 81.6 90.45 81.85 90.2
L 90.35 81.7
Q 90.65 81.4 91.05 81.4
M 120 -29.35
Q 119.75 -29.3 119.5 -29.25
L 95.8 -23.45
Q 94.15 -23.1 92.95 -21.9
L 89.2 -18.15
Q 87.5 -16.55 87.5 -13.95 87.5 -11.35 89.25 -9.7
L 90.85 -8.1 78.1 4.65
Q 76.4 6.35 76.45 8.9 76.35 11.45 78.1 13.15
L 86.6 21.65
Q 88.25 23.35 90.9 23.35 93.4 23.35 95.1 21.65
L 107.85 8.9 109.7 10.75
Q 111.35 12.5 113.95 12.5 116.55 12.5 118.15 10.8
L 121.9 7.05
Q 123.1 5.85 123.5 4.25
L 129.3 -19.45
Q 129.35 -19.7 129.4 -19.95 129.45 -20.9 129.4 -21.85 129.3 -22.55 129.05 -23.15 128.5 -24.25 127.65 -25.1
L 125.1 -27.65
Q 124.25 -28.5 123.15 -29 122.6 -29.25 121.9 -29.35 120.9 -29.45 120 -29.35
M 92.75 -13.2
Q 92.45 -13.5 92.5 -13.95 92.5 -14.35 92.75 -14.6
L 96.5 -18.35
Q 96.7 -18.55 96.95 -18.65
L 120.65 -24.4
Q 120.9 -24.45 121.15 -24.4 121.45 -24.3 121.6 -24.15
L 124.15 -21.6
Q 124.35 -21.4 124.4 -21.15 124.45 -20.9 124.4 -20.65
L 118.6 3
Q 118.55 3.3 118.35 3.5
L 114.6 7.25
Q 114.35 7.5 113.95 7.5 113.5 7.55 113.2 7.25
L 107.8 1.85 91.55 18.1
Q 91.25 18.4 90.85 18.4 90.4 18.35 90.15 18.1
L 81.65 9.6
Q 81.35 9.3 81.35 8.9 81.35 8.5 81.65 8.2
L 97.9 -8.05 92.75 -13.2
M 12.45 -13.9
Q 12.5 -16.45 10.75 -18.1
L 7.05 -21.8
Q 5.85 -23 4.15 -23.4
L -19.55 -29.2
Q -19.75 -29.2 -20 -29.25 -20.95 -29.4 -21.9 -29.25 -22.6 -29.15 -23.2 -28.95 -24.3 -28.45 -25.15 -27.6
L -27.7 -25.05
Q -28.55 -24.2 -29.05 -23.05 -29.3 -22.45 -29.4 -21.75 -29.5 -20.85 -29.4 -19.85 -29.35 -19.6 -29.35 -19.4
L -23.55 4.3
Q -23.1 5.95 -21.9 7.15
L -18.2 10.85
Q -16.55 12.6 -14 12.55 -11.35 12.6 -9.7 10.85
L -7.85 9 4.85 21.7
Q 6.55 23.4 9.1 23.45 11.7 23.45 13.35 21.7
L 21.85 13.2
Q 23.6 11.55 23.55 9 23.55 6.4 21.85 4.7
L 9.15 -8 10.75 -9.6
Q 12.5 -11.25 12.45 -13.9
M 3 -18.55
Q 3.3 -18.45 3.5 -18.25
L 7.2 -14.55
Q 7.5 -14.25 7.5 -13.85 7.5 -13.45 7.2 -13.15
L 2.05 -8 18.3 8.25
Q 18.6 8.55 18.6 8.95 18.65 9.4 18.35 9.7
L 9.85 18.2
Q 9.6 18.45 9.1 18.45 8.7 18.45 8.4 18.15
L -7.85 1.9 -13.25 7.3
Q -13.55 7.6 -13.95 7.6 -14.35 7.6 -14.65 7.3
L -18.35 3.6
Q -18.55 3.4 -18.65 3.1
L -24.45 -20.6
Q -24.5 -20.85 -24.45 -21.1 -24.35 -21.3 -24.15 -21.5
L -21.6 -24.05
Q -21.45 -24.2 -21.2 -24.35 -20.95 -24.4 -20.7 -24.35
L 3 -18.55 Z"/>

<path fill="#A91818" stroke="none" d="
M 18.15 90.1
L 9.65 81.6
Q 9.35 81.3 8.9 81.35 8.5 81.35 8.2 81.65
L -8.05 97.9 -13.2 92.75
Q -13.5 92.45 -13.9 92.45 -14.3 92.45 -14.6 92.75
L -18.3 96.45
Q -18.5 96.65 -18.6 96.95
L -24.4 120.65
Q -24.45 120.9 -24.4 121.15 -24.25 121.4 -24.1 121.55
L -21.55 124.1
Q -21.35 124.3 -21.15 124.4 -20.9 124.45 -20.65 124.4
L 3.05 118.6
Q 3.35 118.5 3.55 118.3
L 7.25 114.6
Q 7.55 114.3 7.55 113.9 7.55 113.5 7.25 113.2
L 1.85 107.8 18.1 91.55
Q 18.4 91.25 18.4 90.85 18.4 90.35 18.15 90.1
M 8.95 86.6
L 13.15 90.8 -1 104.95
Q -2.15 106.1 -2.15 107.8 -2.1 109.45 -0.95 110.6
L 2.35 113.9 1.25 115 -20.15 120.2 -15 98.75 -13.9 97.65 -10.85 100.7
Q -9.7 101.85 -8.05 101.9 -6.35 101.9 -5.2 100.75
L 8.95 86.6
M 91.75 81.7
Q 91.45 81.4 91.05 81.4 90.65 81.4 90.35 81.7
L 81.85 90.2
Q 81.6 90.45 81.55 90.9 81.55 91.3 81.85 91.6
L 98.1 107.85 92.7 113.25
Q 92.4 113.55 92.45 114 92.45 114.4 92.7 114.65
L 96.45 118.4
Q 96.65 118.6 96.95 118.65
L 120.6 124.45
Q 120.85 124.5 121.1 124.45 121.35 124.4 121.55 124.2
L 124.1 121.65
Q 124.25 121.5 124.35 121.2 124.4 120.95 124.35 120.7
L 118.6 97
Q 118.5 96.75 118.3 96.55
L 114.55 92.8
Q 114.3 92.55 113.9 92.55 113.45 92.5 113.15 92.8
L 108 97.95 91.75 81.7
M 86.85 90.85
L 91.05 86.65 105.15 100.8
Q 106.35 102 108.05 102 109.7 101.95 110.85 100.8
L 113.9 97.75 114.95 98.8 120.15 120.3 98.7 115.05 97.65 114 100.95 110.7
Q 102.1 109.55 102.15 107.9 102.15 106.2 100.95 105
L 86.85 90.85
M 92.5 -13.95
Q 92.45 -13.5 92.75 -13.2
L 97.9 -8.05 81.65 8.2
Q 81.35 8.5 81.35 8.9 81.35 9.3 81.65 9.6
L 90.15 18.1
Q 90.4 18.35 90.85 18.4 91.25 18.4 91.55 18.1
L 107.8 1.85 113.2 7.25
Q 113.5 7.55 113.95 7.5 114.35 7.5 114.6 7.25
L 118.35 3.5
Q 118.55 3.3 118.6 3
L 124.4 -20.65
Q 124.45 -20.9 124.4 -21.15 124.35 -21.4 124.15 -21.6
L 121.6 -24.15
Q 121.45 -24.3 121.15 -24.4 120.9 -24.45 120.65 -24.4
L 96.95 -18.65
Q 96.7 -18.55 96.5 -18.35
L 92.75 -14.6
Q 92.5 -14.35 92.5 -13.95
M 97.7 -13.95
L 98.75 -15 120.25 -20.2 115 1.25 113.95 2.3 110.65 -1
Q 109.5 -2.15 107.85 -2.2 106.15 -2.2 104.95 -1
L 90.8 13.1 86.6 8.9 100.75 -5.2
Q 101.95 -6.4 101.95 -8.1 101.9 -9.75 100.75 -10.9
L 97.7 -13.95
M 3.5 -18.25
Q 3.3 -18.45 3 -18.55
L -20.7 -24.35
Q -20.95 -24.4 -21.2 -24.35 -21.45 -24.2 -21.6 -24.05
L -24.15 -21.5
Q -24.35 -21.3 -24.45 -21.1 -24.5 -20.85 -24.45 -20.6
L -18.65 3.1
Q -18.55 3.4 -18.35 3.6
L -14.65 7.3
Q -14.35 7.6 -13.95 7.6 -13.55 7.6 -13.25 7.3
L -7.85 1.9 8.4 18.15
Q 8.7 18.45 9.1 18.45 9.6 18.45 9.85 18.2
L 18.35 9.7
Q 18.65 9.4 18.6 8.95 18.6 8.55 18.3 8.25
L 2.05 -8 7.2 -13.15
Q 7.5 -13.45 7.5 -13.85 7.5 -14.25 7.2 -14.55
L 3.5 -18.25
M 1.2 -14.95
L 2.3 -13.85 -0.75 -10.8
Q -1.9 -9.65 -1.95 -8 -1.95 -6.3 -0.8 -5.15
L 13.35 9 9.15 13.2 -5 -0.95
Q -6.15 -2.1 -7.85 -2.1 -9.5 -2.05 -10.65 -0.9
L -13.95 2.4 -15.05 1.3 -20.25 -20.1 1.2 -14.95 Z"/>

<path fill="#E02727" stroke="none" d="
M 13.15 90.8
L 8.95 86.6 -5.2 100.75
Q -6.35 101.9 -8.05 101.9 -9.7 101.85 -10.85 100.7
L -13.9 97.65 -15 98.75 -20.15 120.2 1.25 115 2.35 113.9 -0.95 110.6
Q -2.1 109.45 -2.15 107.8 -2.15 106.1 -1 104.95
L 13.15 90.8
M 91.05 86.65
L 86.85 90.85 100.95 105
Q 102.15 106.2 102.15 107.9 102.1 109.55 100.95 110.7
L 97.65 114 98.7 115.05 120.15 120.3 114.95 98.8 113.9 97.75 110.85 100.8
Q 109.7 101.95 108.05 102 106.35 102 105.15 100.8
L 91.05 86.65
M 98.75 -15
L 97.7 -13.95 100.75 -10.9
Q 101.9 -9.75 101.95 -8.1 101.95 -6.4 100.75 -5.2
L 86.6 8.9 90.8 13.1 104.95 -1
Q 106.15 -2.2 107.85 -2.2 109.5 -2.15 110.65 -1
L 113.95 2.3 115 1.25 120.25 -20.2 98.75 -15
M 2.3 -13.85
L 1.2 -14.95 -20.25 -20.1 -15.05 1.3 -13.95 2.4 -10.65 -0.9
Q -9.5 -2.05 -7.85 -2.1 -6.15 -2.1 -5 -0.95
L 9.15 13.2 13.35 9 -0.8 -5.15
Q -1.95 -6.3 -1.95 -8 -1.9 -9.65 -0.75 -10.8
L 2.3 -13.85 Z"/>
</g>

<g id="Layer28_0_FILL">
<path fill="#000000" fill-opacity="0.2" stroke="none" d="
M 4.05 43.85
Q 4.1 41.45 2.25 39.65 0.45 37.8 -1.95 37.85
L -19.95 37.85 -19.95 35.55
Q -19.9 33.15 -21.75 31.35 -23.55 29.5 -25.95 29.55
L -31.2 29.55
Q -32.9 29.55 -34.35 30.45
L -55.2 43.15
Q -55.4 43.25 -55.6 43.4 -56.35 44 -56.95 44.75 -57.35 45.3 -57.6 45.9 -58.05 47.05 -58.05 48.25
L -58.05 51.85
Q -58.05 53.05 -57.6 54.2 -57.35 54.8 -56.95 55.35 -56.35 56.1 -55.6 56.7 -55.4 56.85 -55.2 57
L -34.35 69.65
Q -32.9 70.5 -31.2 70.5
L -25.95 70.5
Q -23.55 70.55 -21.75 68.75 -19.9 66.9 -19.95 64.5
L -19.95 61.85 -1.95 61.85
Q 0.45 61.9 2.25 60.1 4.1 58.25 4.05 55.85
L 4.05 43.85
M -25.95 34.55
Q -25.55 34.55 -25.25 34.85 -24.95 35.15 -24.95 35.55
L -24.95 42.85 -1.95 42.85
Q -1.55 42.85 -1.25 43.15 -0.95 43.45 -0.95 43.85
L -0.95 55.85
Q -0.95 56.25 -1.25 56.55 -1.55 56.85 -1.95 56.85
L -24.95 56.85 -24.95 64.5
Q -24.95 64.9 -25.25 65.2 -25.55 65.5 -25.95 65.5
L -31.2 65.5
Q -31.5 65.5 -31.75 65.35
L -52.6 52.7
Q -52.8 52.55 -52.95 52.35 -53.05 52.1 -53.05 51.85
L -53.05 48.25
Q -53.05 48 -52.95 47.75 -52.8 47.55 -52.6 47.4
L -31.75 34.7
Q -31.5 34.55 -31.2 34.55
L -25.95 34.55
M 125.9 29.55
Q 123.5 29.5 121.7 31.35 119.85 33.15 119.9 35.55
L 119.9 37.85 101.9 37.85
Q 99.5 37.8 97.7 39.65 95.85 41.45 95.9 43.85
L 95.9 55.85
Q 95.85 58.25 97.7 60.1 99.5 61.9 101.9 61.85
L 119.9 61.85 119.9 64.5
Q 119.85 66.9 121.7 68.75 123.5 70.55 125.9 70.5
L 131.15 70.5
Q 132.85 70.5 134.3 69.65
L 155.15 57
Q 155.35 56.85 155.55 56.7 156.3 56.1 156.9 55.35 157.3 54.8 157.55 54.2 158 53.05 158 51.85
L 158 48.25
Q 158 47.05 157.55 45.9 157.3 45.3 156.9 44.75 156.3 44 155.55 43.4 155.35 43.25 155.15 43.15
L 134.3 30.45
Q 132.85 29.55 131.15 29.55
L 125.9 29.55
M 125.9 34.55
L 131.15 34.55
Q 131.45 34.55 131.7 34.7
L 152.55 47.4
Q 152.75 47.55 152.9 47.75 153 48 153 48.25
L 153 51.85
Q 153 52.1 152.9 52.35 152.75 52.55 152.55 52.7
L 131.7 65.35
Q 131.45 65.5 131.15 65.5
L 125.9 65.5
Q 125.5 65.5 125.2 65.2 124.9 64.9 124.9 64.5
L 124.9 56.85 101.9 56.85
Q 101.5 56.85 101.2 56.55 100.9 56.25 100.9 55.85
L 100.9 43.85
Q 100.9 43.45 101.2 43.15 101.5 42.85 101.9 42.85
L 124.9 42.85 124.9 35.55
Q 124.9 35.15 125.2 34.85 125.5 34.55 125.9 34.55 Z"/>

<path fill="#A91818" stroke="none" d="
M -25.25 34.85
Q -25.55 34.55 -25.95 34.55
L -31.2 34.55
Q -31.5 34.55 -31.75 34.7
L -52.6 47.4
Q -52.8 47.55 -52.95 47.75 -53.05 48 -53.05 48.25
L -53.05 51.85
Q -53.05 52.1 -52.95 52.35 -52.8 52.55 -52.6 52.7
L -31.75 65.35
Q -31.5 65.5 -31.2 65.5
L -25.95 65.5
Q -25.55 65.5 -25.25 65.2 -24.95 64.9 -24.95 64.5
L -24.95 56.85 -1.95 56.85
Q -1.55 56.85 -1.25 56.55 -0.95 56.25 -0.95 55.85
L -0.95 43.85
Q -0.95 43.45 -1.25 43.15 -1.55 42.85 -1.95 42.85
L -24.95 42.85 -24.95 35.55
Q -24.95 35.15 -25.25 34.85
M -28.95 42.85
Q -28.95 44.5 -27.8 45.7 -26.6 46.85 -24.95 46.85
L -4.95 46.85 -4.95 52.85 -24.95 52.85
Q -26.6 52.85 -27.8 54
L -27.8 54.05
Q -28.95 55.2 -28.95 56.85
L -28.95 61.5 -30.45 61.5 -49.3 50.05 -30.45 38.55 -28.95 38.55 -28.95 42.85
M 131.15 34.55
L 125.9 34.55
Q 125.5 34.55 125.2 34.85 124.9 35.15 124.9 35.55
L 124.9 42.85 101.9 42.85
Q 101.5 42.85 101.2 43.15 100.9 43.45 100.9 43.85
L 100.9 55.85
Q 100.9 56.25 101.2 56.55 101.5 56.85 101.9 56.85
L 124.9 56.85 124.9 64.5
Q 124.9 64.9 125.2 65.2 125.5 65.5 125.9 65.5
L 131.15 65.5
Q 131.45 65.5 131.7 65.35
L 152.55 52.7
Q 152.75 52.55 152.9 52.35 153 52.1 153 51.85
L 153 48.25
Q 153 48 152.9 47.75 152.75 47.55 152.55 47.4
L 131.7 34.7
Q 131.45 34.55 131.15 34.55
M 127.75 45.7
Q 128.9 44.5 128.9 42.85
L 128.9 38.55 130.4 38.55 149.25 50.05 130.4 61.5 128.9 61.5 128.9 56.85
Q 128.9 55.2 127.75 54.05
L 127.75 54
Q 126.55 52.85 124.9 52.85
L 104.9 52.85 104.9 46.85 124.9 46.85
Q 126.55 46.85 127.75 45.7 Z"/>

<path fill="#E02727" stroke="none" d="
M -27.8 45.7
Q -28.95 44.5 -28.95 42.85
L -28.95 38.55 -30.45 38.55 -49.3 50.05 -30.45 61.5 -28.95 61.5 -28.95 56.85
Q -28.95 55.2 -27.8 54.05
L -27.8 54
Q -26.6 52.85 -24.95 52.85
L -4.95 52.85 -4.95 46.85 -24.95 46.85
Q -26.6 46.85 -27.8 45.7
M 128.9 42.85
Q 128.9 44.5 127.75 45.7 126.55 46.85 124.9 46.85
L 104.9 46.85 104.9 52.85 124.9 52.85
Q 126.55 52.85 127.75 54
L 127.75 54.05
Q 128.9 55.2 128.9 56.85
L 128.9 61.5 130.4 61.5 149.25 50.05 130.4 38.55 128.9 38.55 128.9 42.85 Z"/>
</g>

<g id="Layer27_0_FILL">
<path fill="#000000" fill-opacity="0.2" stroke="none" d="
M 81.05 51.85
L 81.05 48.25
Q 81.05 47.05 80.6 45.9 80.35 45.3 79.95 44.75 79.35 44 78.6 43.4 78.4 43.25 78.2 43.15
L 57.35 30.45
Q 55.9 29.55 54.2 29.55
L 48.95 29.55
Q 46.55 29.5 44.75 31.35 42.9 33.15 42.95 35.55
L 42.95 37.85 24.95 37.85
Q 22.55 37.8 20.75 39.65 18.9 41.45 18.95 43.85
L 18.95 55.85
Q 18.9 58.25 20.75 60.1 22.55 61.9 24.95 61.85
L 42.95 61.85 42.95 64.5
Q 42.9 66.9 44.75 68.75 46.55 70.55 48.95 70.5
L 54.2 70.5
Q 55.9 70.5 57.35 69.65
L 78.2 57
Q 78.4 56.85 78.6 56.7 79.35 56.1 79.95 55.35 80.35 54.8 80.6 54.2 81.05 53.05 81.05 51.85
M 54.2 34.55
Q 54.5 34.55 54.75 34.7
L 75.6 47.4
Q 75.8 47.55 75.95 47.75 76.05 48 76.05 48.25
L 76.05 51.85
Q 76.05 52.1 75.95 52.35 75.8 52.55 75.6 52.7
L 54.75 65.35
Q 54.5 65.5 54.2 65.5
L 48.95 65.5
Q 48.55 65.5 48.25 65.2 47.95 64.9 47.95 64.5
L 47.95 56.85 24.95 56.85
Q 24.55 56.85 24.25 56.55 23.95 56.25 23.95 55.85
L 23.95 43.85
Q 23.95 43.45 24.25 43.15 24.55 42.85 24.95 42.85
L 47.95 42.85 47.95 35.55
Q 47.95 35.15 48.25 34.85 48.55 34.55 48.95 34.55
L 54.2 34.55 Z"/>

<path fill="#A91818" stroke="none" d="
M 54.75 34.7
Q 54.5 34.55 54.2 34.55
L 48.95 34.55
Q 48.55 34.55 48.25 34.85 47.95 35.15 47.95 35.55
L 47.95 42.85 24.95 42.85
Q 24.55 42.85 24.25 43.15 23.95 43.45 23.95 43.85
L 23.95 55.85
Q 23.95 56.25 24.25 56.55 24.55 56.85 24.95 56.85
L 47.95 56.85 47.95 64.5
Q 47.95 64.9 48.25 65.2 48.55 65.5 48.95 65.5
L 54.2 65.5
Q 54.5 65.5 54.75 65.35
L 75.6 52.7
Q 75.8 52.55 75.95 52.35 76.05 52.1 76.05 51.85
L 76.05 48.25
Q 76.05 48 75.95 47.75 75.8 47.55 75.6 47.4
L 54.75 34.7
M 51.95 42.85
L 51.95 38.55 53.45 38.55 72.3 50.05 53.45 61.5 51.95 61.5 51.95 56.85
Q 51.95 55.2 50.8 54.05
L 50.8 54
Q 49.6 52.85 47.95 52.85
L 27.95 52.85 27.95 46.85 47.95 46.85
Q 49.6 46.85 50.8 45.7 51.95 44.5 51.95 42.85 Z"/>

<path fill="#E02727" stroke="none" d="
M 51.95 38.55
L 51.95 42.85
Q 51.95 44.5 50.8 45.7 49.6 46.85 47.95 46.85
L 27.95 46.85 27.95 52.85 47.95 52.85
Q 49.6 52.85 50.8 54
L 50.8 54.05
Q 51.95 55.2 51.95 56.85
L 51.95 61.5 53.45 61.5 72.3 50.05 53.45 38.55 51.95 38.55 Z"/>
</g>

<g id="Layer26_0_FILL">
<path fill="#000000" fill-opacity="0.2" stroke="none" d="
M 96.3 95.25
Q 98.7 95.3 100.55 93.5 102.35 91.65 102.3 89.25 102.3 88.15 102.3 87 102.3 82.05 101.7 77.35
L 101.75 77.35
Q 98.85 53.05 80.8 35.05 61.8 16.05 35.85 13.85
L 35.85 10.7
Q 35.9 8.3 34.1 6.5 32.25 4.65 29.85 4.7
L 24.6 4.7
Q 22.6 4.7 21.3 5.75
L 21.25 5.75 0.65 18.25 0.7 18.25
Q -1 19.2 -1.55 20.65 -2.3 22 -2.25 23.35
L -2.25 26.95
Q -2.3 28.3 -1.55 29.7 -1 31.1 0.7 32.1
L 0.65 32.1 21.25 44.65 21.3 44.65
Q 22.6 45.65 24.6 45.65
L 29.85 45.65
Q 32.25 45.7 34.1 43.9 35.9 42.05 35.85 39.65
L 35.85 38
Q 51.9 40.05 63.85 52 75.85 64.05 77.9 80.25 77.9 80.3 77.9 80.35 78.3 83.55 78.3 87 78.3 88.15 78.3 89.25 78.25 91.65 80.1 93.5 81.9 95.3 84.3 95.25
L 96.3 95.25
M 82.85 79.7
L 82.85 79.65
Q 80.65 61.75 67.35 48.45 52.15 33.25 30.85 32.55
L 30.85 39.65
Q 30.85 40.05 30.55 40.35 30.25 40.65 29.85 40.65
L 24.6 40.65
Q 24.3 40.65 24.1 40.5
L 3.25 27.8
Q 3 27.65 2.9 27.45 2.75 27.2 2.75 26.95
L 2.75 23.35
Q 2.75 23.1 2.9 22.85 3 22.65 3.25 22.5
L 24.1 9.85
Q 24.3 9.7 24.6 9.7
L 29.85 9.7
Q 30.25 9.7 30.55 10 30.85 10.3 30.85 10.7
L 30.85 18.55
Q 57.95 19.25 77.25 38.55 94.05 55.35 96.75 77.95 97.3 82.35 97.3 87 97.3 88.15 97.3 89.25 97.3 89.65 97 89.95 96.7 90.25 96.3 90.25
L 84.3 90.25
Q 83.9 90.25 83.6 89.95 83.3 89.65 83.3 89.25 83.3 88.15 83.3 87 83.3 83.25 82.85 79.7 Z"/>

<path fill="#A91818" stroke="none" d="
M 82.85 79.65
L 82.85 79.7
Q 83.3 83.25 83.3 87 83.3 88.15 83.3 89.25 83.3 89.65 83.6 89.95 83.9 90.25 84.3 90.25
L 96.3 90.25
Q 96.7 90.25 97 89.95 97.3 89.65 97.3 89.25 97.3 88.15 97.3 87 97.3 82.35 96.75 77.95 94.05 55.35 77.25 38.55 57.95 19.25 30.85 18.55
L 30.85 10.7
Q 30.85 10.3 30.55 10 30.25 9.7 29.85 9.7
L 24.6 9.7
Q 24.3 9.7 24.1 9.85
L 3.25 22.5
Q 3 22.65 2.9 22.85 2.75 23.1 2.75 23.35
L 2.75 26.95
Q 2.75 27.2 2.9 27.45 3 27.65 3.25 27.8
L 24.1 40.5
Q 24.3 40.65 24.6 40.65
L 29.85 40.65
Q 30.25 40.65 30.55 40.35 30.85 40.05 30.85 39.65
L 30.85 32.55
Q 52.15 33.25 67.35 48.45 80.65 61.75 82.85 79.65
M 92.8 78.45
Q 93.25 82.25 93.3 86.25
L 87.3 86.25
Q 87.25 82.7 86.85 79.35 86.85 79.25 86.85 79.2 84.45 59.9 70.2 45.65 53.85 29.3 31 28.55 29.9 28.5 28.95 29.05 27.95 29.6 27.4 30.55
L 27.4 30.5
Q 26.85 31.45 26.85 32.55
L 26.85 36.65 25.45 36.65 6.55 25.15 25.45 13.7 26.85 13.7 26.85 18.55
Q 26.85 20.2 28 21.35 29.1 22.5 30.75 22.55 56.25 23.2 74.45 41.4 90.2 57.2 92.8 78.45 Z"/>

<path fill="#E02727" stroke="none" d="
M 93.3 86.25
Q 93.25 82.25 92.8 78.45 90.2 57.2 74.45 41.4 56.25 23.2 30.75 22.55 29.1 22.5 28 21.35 26.85 20.2 26.85 18.55
L 26.85 13.7 25.45 13.7 6.55 25.15 25.45 36.65 26.85 36.65 26.85 32.55
Q 26.85 31.45 27.4 30.5
L 27.4 30.55
Q 27.95 29.6 28.95 29.05 29.9 28.5 31 28.55 53.85 29.3 70.2 45.65 84.45 59.9 86.85 79.2 86.85 79.25 86.85 79.35 87.25 82.7 87.3 86.25
L 93.3 86.25 Z"/>
</g>

<g id="Layer25_0_FILL">
<path fill="#000000" fill-opacity="0.2" stroke="none" d="
M 105.6 81.9
Q 107.4 83.7 109.8 83.65
L 121.8 83.65
Q 124.2 83.7 126.05 81.9 127.85 80.05 127.8 77.65 127.8 76.55 127.8 75.4 127.8 44.95 106.3 23.45 84.75 1.9 54.3 1.9 23.85 1.9 2.35 23.45 -13.5 39.25 -17.65 59.95
L -21.75 59.95
Q -24.15 59.9 -25.95 61.75 -27.8 63.55 -27.75 65.95
L -27.75 71.2
Q -27.75 72.9 -26.85 74.35
L -14.2 95.2
Q -14.1 95.4 -13.95 95.6 -13.35 96.35 -12.6 96.95 -12.05 97.35 -11.45 97.6 -10.3 98.05 -9.1 98.05
L -5.5 98.05
Q -4.3 98.05 -3.15 97.6 -2.55 97.35 -2 96.95 -1.25 96.35 -0.65 95.6 -0.5 95.4 -0.35 95.2
L 12.35 74.35
Q 13.2 72.9 13.2 71.2
L 13.2 65.95
Q 13.25 63.55 11.45 61.75 9.6 59.9 7.2 59.95
L 7.15 59.95
Q 10.6 49.1 19.3 40.4 33.75 25.9 54.3 25.9 74.85 25.9 89.35 40.4 103.8 54.85 103.8 75.4 103.8 76.55 103.8 77.65 103.75 80.05 105.6 81.9
M 108.8 77.65
Q 108.8 76.55 108.8 75.4 108.8 52.8 92.85 36.85 76.9 20.9 54.3 20.9 31.7 20.9 15.75 36.85 3.65 49 0.75 64.95
L 7.2 64.95
Q 7.6 64.95 7.9 65.25 8.2 65.55 8.2 65.95
L 8.2 71.2
Q 8.2 71.5 8.05 71.75
L -4.65 92.6
Q -4.8 92.8 -5 92.95 -5.25 93.05 -5.5 93.05
L -9.1 93.05
Q -9.35 93.05 -9.6 92.95 -9.8 92.8 -9.95 92.6
L -22.6 71.75
Q -22.75 71.5 -22.75 71.2
L -22.75 65.95
Q -22.75 65.55 -22.45 65.25 -22.15 64.95 -21.75 64.95
L -13.45 64.95
Q -10.4 43.2 5.85 26.95 25.9 6.9 54.3 6.9 82.7 6.9 102.75 26.95 122.8 47 122.8 75.4 122.8 76.55 122.8 77.65 122.8 78.05 122.5 78.35 122.2 78.65 121.8 78.65
L 109.8 78.65
Q 109.4 78.65 109.1 78.35 108.8 78.05 108.8 77.65 Z"/>

<path fill="#A91818" stroke="none" d="
M 108.8 75.4
Q 108.8 76.55 108.8 77.65 108.8 78.05 109.1 78.35 109.4 78.65 109.8 78.65
L 121.8 78.65
Q 122.2 78.65 122.5 78.35 122.8 78.05 122.8 77.65 122.8 76.55 122.8 75.4 122.8 47 102.75 26.95 82.7 6.9 54.3 6.9 25.9 6.9 5.85 26.95 -10.4 43.2 -13.45 64.95
L -21.75 64.95
Q -22.15 64.95 -22.45 65.25 -22.75 65.55 -22.75 65.95
L -22.75 71.2
Q -22.75 71.5 -22.6 71.75
L -9.95 92.6
Q -9.8 92.8 -9.6 92.95 -9.35 93.05 -9.1 93.05
L -5.5 93.05
Q -5.25 93.05 -5 92.95 -4.8 92.8 -4.65 92.6
L 8.05 71.75
Q 8.2 71.5 8.2 71.2
L 8.2 65.95
Q 8.2 65.55 7.9 65.25 7.6 64.95 7.2 64.95
L 0.75 64.95
Q 3.65 49 15.75 36.85 31.7 20.9 54.3 20.9 76.9 20.9 92.85 36.85 108.8 52.8 108.8 75.4
M 118.8 74.65
L 112.8 74.65
Q 112.55 50.9 95.7 34.05 78.55 16.9 54.3 16.9 30.05 16.9 12.95 34.05
L 12.9 34.05
Q -0.1 47.1 -3.15 64.25 -3.4 65.4 -2.9 66.5
L -2.9 66.55
Q -2.45 67.6 -1.45 68.3 -0.45 68.95 0.75 68.95
L 4.2 68.95 4.2 70.45 -7.3 89.3 -18.75 70.45 -18.75 68.95 -13.45 68.95
Q -11.95 68.95 -10.8 67.95 -9.7 66.95 -9.5 65.5 -6.6 45.05 8.7 29.8 27.55 10.9 54.3 10.9 81.05 10.9 99.95 29.8 118.55 48.4 118.8 74.65 Z"/>

<path fill="#E02727" stroke="none" d="
M 112.8 74.65
L 118.8 74.65
Q 118.55 48.4 99.95 29.8 81.05 10.9 54.3 10.9 27.55 10.9 8.7 29.8 -6.6 45.05 -9.5 65.5 -9.7 66.95 -10.8 67.95 -11.95 68.95 -13.45 68.95
L -18.75 68.95 -18.75 70.45 -7.3 89.3 4.2 70.45 4.2 68.95 0.75 68.95
Q -0.45 68.95 -1.45 68.3 -2.45 67.6 -2.9 66.55
L -2.9 66.5
Q -3.4 65.4 -3.15 64.25 -0.1 47.1 12.9 34.05
L 12.95 34.05
Q 30.05 16.9 54.3 16.9 78.55 16.9 95.7 34.05 112.55 50.9 112.8 74.65 Z"/>
</g>

<g id="Layer24_0_FILL">
<path fill="#000000" fill-opacity="0.2" stroke="none" d="
M 102 -1.95
Q 80.45 -23.5 50 -23.5 19.55 -23.5 -1.95 -1.95 -23.5 19.55 -23.5 50 -23.5 80.45 -1.95 102 19.55 123.5 50 123.5 75.65 123.5 94.9 108.3
L 96.75 110.15
Q 98.55 111.95 100.95 111.9 103.35 111.95 105.2 110.15
L 108.9 106.45
Q 109.8 105.5 110.3 104.3 110.4 104 110.5 103.65
L 116.3 79.95
Q 116.3 79.85 116.35 79.75 116.6 78.5 116.35 77.3 116.25 76.85 116.1 76.4 115.65 75.2 114.7 74.3
L 112.15 71.75
Q 110.85 70.45 109.5 70.2
L 109.45 70.15
Q 107.6 69.65 106.05 70.25
L 82.75 75.95
Q 81.2 76.3 80 77.55
L 76.3 81.25
Q 74.45 83.05 74.5 85.45 74.45 87.85 76.3 89.7
L 77.75 91.15
Q 65.6 99.5 50 99.5 29.45 99.5 15 85.05 0.5 70.55 0.5 50 0.5 29.45 15 15 29.45 0.5 50 0.5 70.55 0.5 85.05 15 99.5 29.45 99.5 50 99.5 51.15 99.5 52.25 99.45 54.65 101.3 56.5 103.1 58.3 105.5 58.25
L 117.5 58.25
Q 119.9 58.3 121.75 56.5 123.55 54.65 123.5 52.25 123.5 51.15 123.5 50 123.5 19.55 102 -1.95
M 118.5 50
Q 118.5 51.15 118.5 52.25 118.5 52.65 118.2 52.95 117.9 53.25 117.5 53.25
L 105.5 53.25
Q 105.1 53.25 104.8 52.95 104.5 52.65 104.5 52.25 104.5 51.15 104.5 50 104.5 27.4 88.55 11.45 72.6 -4.5 50 -4.5 27.4 -4.5 11.45 11.45 -4.5 27.4 -4.5 50 -4.5 72.6 11.45 88.55 27.4 104.5 50 104.5 70.3 104.5 85.25 91.6
L 79.8 86.15
Q 79.5 85.85 79.5 85.45 79.5 85.05 79.8 84.75
L 83.5 81.05
Q 83.7 80.85 83.95 80.8
L 107.65 75
Q 107.9 74.9 108.2 75 108.4 75.05 108.6 75.25
L 111.15 77.8
Q 111.35 78 111.45 78.25 111.5 78.5 111.45 78.75
L 105.65 102.45
Q 105.55 102.7 105.35 102.9
L 101.65 106.6
Q 101.35 106.9 100.95 106.9 100.55 106.9 100.25 106.6
L 95.2 101.55
Q 76.15 118.5 50 118.5 21.6 118.5 1.55 98.45 -18.5 78.4 -18.5 50 -18.5 21.6 1.55 1.55 21.6 -18.5 50 -18.5 78.4 -18.5 98.45 1.55 118.5 21.6 118.5 50 Z"/>

<path fill="#A91818" stroke="none" d="
M 118.5 52.25
Q 118.5 51.15 118.5 50 118.5 21.6 98.45 1.55 78.4 -18.5 50 -18.5 21.6 -18.5 1.55 1.55 -18.5 21.6 -18.5 50 -18.5 78.4 1.55 98.45 21.6 118.5 50 118.5 76.15 118.5 95.2 101.55
L 100.25 106.6
Q 100.55 106.9 100.95 106.9 101.35 106.9 101.65 106.6
L 105.35 102.9
Q 105.55 102.7 105.65 102.45
L 111.45 78.75
Q 111.5 78.5 111.45 78.25 111.35 78 111.15 77.8
L 108.6 75.25
Q 108.4 75.05 108.2 75 107.9 74.9 107.65 75
L 83.95 80.8
Q 83.7 80.85 83.5 81.05
L 79.8 84.75
Q 79.5 85.05 79.5 85.45 79.5 85.85 79.8 86.15
L 85.25 91.6
Q 70.3 104.5 50 104.5 27.4 104.5 11.45 88.55 -4.5 72.6 -4.5 50 -4.5 27.4 11.45 11.45 27.4 -4.5 50 -4.5 72.6 -4.5 88.55 11.45 104.5 27.4 104.5 50 104.5 51.15 104.5 52.25 104.5 52.65 104.8 52.95 105.1 53.25 105.5 53.25
L 117.5 53.25
Q 117.9 53.25 118.2 52.95 118.5 52.65 118.5 52.25
M 95.65 4.4
Q 114.25 23 114.5 49.25
L 108.5 49.25
Q 108.25 25.5 91.4 8.65 74.25 -8.5 50 -8.5 25.75 -8.5 8.65 8.65 -8.5 25.75 -8.5 50 -8.5 74.25 8.65 91.4 25.75 108.5 50 108.5 71.8 108.5 87.85 94.65 88.7 93.9 89.05 92.85 89.4 91.75 89.15 90.65 88.85 89.55 88.1 88.8
L 84.75 85.45 85.75 84.5 107.25 79.2 102 100.6 100.95 101.65 98.05 98.75 98.05 98.7
Q 96.9 97.6 95.35 97.55 93.75 97.5 92.55 98.55 74.6 114.5 50 114.5 23.25 114.5 4.4 95.65 -14.5 76.75 -14.5 50 -14.5 23.25 4.4 4.4 23.25 -14.5 50 -14.5 76.75 -14.5 95.65 4.4 Z"/>

<path fill="#E02727" stroke="none" d="
M 114.5 49.25
Q 114.25 23 95.65 4.4 76.75 -14.5 50 -14.5 23.25 -14.5 4.4 4.4 -14.5 23.25 -14.5 50 -14.5 76.75 4.4 95.65 23.25 114.5 50 114.5 74.6 114.5 92.55 98.55 93.75 97.5 95.35 97.55 96.9 97.6 98.05 98.7
L 98.05 98.75 100.95 101.65 102 100.6 107.25 79.2 85.75 84.5 84.75 85.45 88.1 88.8
Q 88.85 89.55 89.15 90.65 89.4 91.75 89.05 92.85 88.7 93.9 87.85 94.65 71.8 108.5 50 108.5 25.75 108.5 8.65 91.4 -8.5 74.25 -8.5 50 -8.5 25.75 8.65 8.65 25.75 -8.5 50 -8.5 74.25 -8.5 91.4 8.65 108.25 25.5 108.5 49.25
L 114.5 49.25 Z"/>
</g>
</defs>

<g transform="matrix( 1, 0, 0, 1, 0,0) ">
<use xlink:href="#Layer29_0_FILL"/>
</g>

<g transform="matrix( 1, 0, 0, 1, 0,0) ">
<use xlink:href="#Layer28_0_FILL"/>
</g>

<g transform="matrix( 1, 0, 0, 1, 0,0) ">
<use xlink:href="#Layer27_0_FILL"/>
</g>

<g transform="matrix( 1, 0, 0, 1, 0,0) ">
<use xlink:href="#Layer26_0_FILL"/>
</g>

<g transform="matrix( 1, 0, 0, 1, 0,0) ">
<use xlink:href="#Layer25_0_FILL"/>
</g>

<g transform="matrix( 1, 0, 0, 1, 0,0) ">
<use xlink:href="#Layer24_0_FILL"/>
</g>
</svg>
