
<svg xmlns="http://www.w3.org/2000/svg" version="1.1" xmlns:xlink="http://www.w3.org/1999/xlink" preserveAspectRatio="none" x="0px" y="0px" width="100px" height="100px" viewBox="0 0 100 100">
<defs>
<linearGradient id="Gradient_1" gradientUnits="userSpaceOnUse" x1="45.400000000000006" y1="48" x2="-0.9000000000000021" y2="48" spreadMethod="pad">
<stop  offset="9.803921568627452%" stop-color="#E02727" stop-opacity="0"/>

<stop  offset="62.35294117647059%" stop-color="#E02727"/>
</linearGradient>

<linearGradient id="Gradient_2" gradientUnits="userSpaceOnUse" x1="45.475" y1="47.9" x2="-4.774999999999999" y2="47.9" spreadMethod="pad">
<stop  offset="0%" stop-color="#A91818" stop-opacity="0"/>

<stop  offset="61.568627450980394%" stop-color="#A91818"/>
</linearGradient>

<linearGradient id="Gradient_3" gradientUnits="userSpaceOnUse" x1="-0.05" y1="-29.2375" x2="-0.05" y2="19.337500000000002" spreadMethod="pad">
<stop  offset="0%" stop-color="#000000" stop-opacity="0.2"/>

<stop  offset="99.2156862745098%" stop-color="#000000" stop-opacity="0"/>
</linearGradient>

<linearGradient id="Gradient_4" gradientUnits="userSpaceOnUse" x1="-0.05" y1="-28.2875" x2="-0.05" y2="15.487500000000002" spreadMethod="pad">
<stop  offset="0%" stop-color="#000000" stop-opacity="0.2"/>

<stop  offset="99.2156862745098%" stop-color="#000000" stop-opacity="0"/>
</linearGradient>

<linearGradient id="Gradient_5" gradientUnits="userSpaceOnUse" x1="-0.05" y1="-27.0375" x2="-0.05" y2="6.9375" spreadMethod="pad">
<stop  offset="0%" stop-color="#000000" stop-opacity="0.2"/>

<stop  offset="99.2156862745098%" stop-color="#000000" stop-opacity="0"/>
</linearGradient>

<linearGradient id="Gradient_6" gradientUnits="userSpaceOnUse" x1="0.1" y1="9.6625" x2="0.1" y2="-7.1625" spreadMethod="pad">
<stop  offset="0%" stop-color="#796C4B" stop-opacity="0"/>

<stop  offset="19.607843137254903%" stop-color="#796C4B"/>
</linearGradient>

<linearGradient id="Gradient_7" gradientUnits="userSpaceOnUse" x1="-0.25" y1="-3.6999999999999993" x2="-0.25" y2="-14.7" spreadMethod="pad">
<stop  offset="0%" stop-color="#F1B776"/>

<stop  offset="100%" stop-color="#876B47"/>
</linearGradient>

<linearGradient id="Gradient_8" gradientUnits="userSpaceOnUse" x1="0.1" y1="28.45" x2="0.1" y2="1.9499999999999993" spreadMethod="pad">
<stop  offset="0%" stop-color="#876B47" stop-opacity="0"/>

<stop  offset="19.607843137254903%" stop-color="#876B47"/>
</linearGradient>

<linearGradient id="Gradient_9" gradientUnits="userSpaceOnUse" x1="-0.05" y1="-27.012500000000003" x2="-0.05" y2="3.8125000000000018" spreadMethod="pad">
<stop  offset="0%" stop-color="#000000" stop-opacity="0.2"/>

<stop  offset="99.2156862745098%" stop-color="#000000" stop-opacity="0"/>
</linearGradient>

<linearGradient id="Gradient_10" gradientUnits="userSpaceOnUse" x1="53.39999999999999" y1="48" x2="99.7" y2="48" spreadMethod="pad">
<stop  offset="9.803921568627452%" stop-color="#E02727" stop-opacity="0"/>

<stop  offset="62.35294117647059%" stop-color="#E02727"/>
</linearGradient>

<linearGradient id="Gradient_11" gradientUnits="userSpaceOnUse" x1="53.325" y1="48.1" x2="103.575" y2="48.1" spreadMethod="pad">
<stop  offset="0%" stop-color="#A91818" stop-opacity="0"/>

<stop  offset="61.568627450980394%" stop-color="#A91818"/>
</linearGradient>

<linearGradient id="Gradient_12" gradientUnits="userSpaceOnUse" x1="53.95" y1="49.1" x2="53.95" y2="2.799999999999997" spreadMethod="pad">
<stop  offset="9.803921568627452%" stop-color="#E02727" stop-opacity="0"/>

<stop  offset="62.35294117647059%" stop-color="#E02727"/>
</linearGradient>

<linearGradient id="Gradient_13" gradientUnits="userSpaceOnUse" x1="54.05" y1="49.175" x2="54.05" y2="-1.0749999999999993" spreadMethod="pad">
<stop  offset="0%" stop-color="#A91818" stop-opacity="0"/>

<stop  offset="61.568627450980394%" stop-color="#A91818"/>
</linearGradient>

<linearGradient id="Gradient_14" gradientUnits="userSpaceOnUse" x1="53.95" y1="-3.700000000000003" x2="53.95" y2="42.6" spreadMethod="pad">
<stop  offset="9.803921568627452%" stop-color="#E02727" stop-opacity="0"/>

<stop  offset="62.35294117647059%" stop-color="#E02727"/>
</linearGradient>

<linearGradient id="Gradient_15" gradientUnits="userSpaceOnUse" x1="53.85" y1="-3.7749999999999986" x2="53.85" y2="46.475" spreadMethod="pad">
<stop  offset="0%" stop-color="#A91818" stop-opacity="0"/>

<stop  offset="61.568627450980394%" stop-color="#A91818"/>
</linearGradient>

<linearGradient id="Gradient_16" gradientUnits="userSpaceOnUse" x1="-7.162500000000001" y1="46.8875" x2="37.5625" y2="34.912499999999994" spreadMethod="pad">
<stop  offset="9.803921568627452%" stop-color="#E02727" stop-opacity="0"/>

<stop  offset="62.35294117647059%" stop-color="#E02727"/>
</linearGradient>

<linearGradient id="Gradient_17" gradientUnits="userSpaceOnUse" x1="-7.212500000000002" y1="47.0625" x2="41.3125" y2="34.037499999999994" spreadMethod="pad">
<stop  offset="0%" stop-color="#A91818" stop-opacity="0"/>

<stop  offset="61.568627450980394%" stop-color="#A91818"/>
</linearGradient>

<linearGradient id="Gradient_18" gradientUnits="userSpaceOnUse" x1="94.3625" y1="18.7875" x2="45.83749999999999" y2="31.8125" spreadMethod="pad">
<stop  offset="0%" stop-color="#A91818" stop-opacity="0"/>

<stop  offset="61.568627450980394%" stop-color="#A91818"/>
</linearGradient>

<linearGradient id="Gradient_19" gradientUnits="userSpaceOnUse" x1="94.3125" y1="18.9625" x2="49.587500000000006" y2="30.9375" spreadMethod="pad">
<stop  offset="9.803921568627452%" stop-color="#E02727" stop-opacity="0"/>

<stop  offset="62.35294117647059%" stop-color="#E02727"/>
</linearGradient>

<linearGradient id="Gradient_20" gradientUnits="userSpaceOnUse" x1="-40.3375" y1="-1.3249999999999997" x2="-34.1625" y2="-2.975" spreadMethod="pad">
<stop  offset="0%" stop-color="#796C4B" stop-opacity="0"/>

<stop  offset="100%" stop-color="#876B47"/>
</linearGradient>

<linearGradient id="Gradient_21" gradientUnits="userSpaceOnUse" x1="-40.3375" y1="-1.3249999999999997" x2="-34.1625" y2="-2.975" spreadMethod="pad">
<stop  offset="0%" stop-color="#876B47" stop-opacity="0"/>

<stop  offset="100%" stop-color="#876B47"/>
</linearGradient>

<linearGradient id="Gradient_22" gradientUnits="userSpaceOnUse" x1="10.499999999999998" y1="-5.7" x2="34.4" y2="-5.7" spreadMethod="pad">
<stop  offset="0%" stop-color="#F1B776"/>

<stop  offset="100%" stop-color="#876B47"/>
</linearGradient>

<linearGradient id="Gradient_23" gradientUnits="userSpaceOnUse" x1="25.2375" y1="-11.6625" x2="40.2625" y2="5.6625" spreadMethod="pad">
<stop  offset="0%" stop-color="#000000" stop-opacity="0"/>

<stop  offset="100%" stop-color="#000000" stop-opacity="0.2"/>
</linearGradient>

<linearGradient id="Gradient_24" gradientUnits="userSpaceOnUse" x1="40.6125" y1="25.8125" x2="-4.112500000000001" y2="37.7875" spreadMethod="pad">
<stop  offset="9.803921568627452%" stop-color="#E02727" stop-opacity="0"/>

<stop  offset="62.35294117647059%" stop-color="#E02727"/>
</linearGradient>

<linearGradient id="Gradient_25" gradientUnits="userSpaceOnUse" x1="40.6625" y1="25.6375" x2="-7.862500000000004" y2="38.6625" spreadMethod="pad">
<stop  offset="0%" stop-color="#A91818" stop-opacity="0"/>

<stop  offset="61.568627450980394%" stop-color="#A91818"/>
</linearGradient>

<linearGradient id="Gradient_26" gradientUnits="userSpaceOnUse" x1="49.3875" y1="23.5375" x2="94.1125" y2="11.5625" spreadMethod="pad">
<stop  offset="9.803921568627452%" stop-color="#E02727" stop-opacity="0"/>

<stop  offset="62.35294117647059%" stop-color="#E02727"/>
</linearGradient>

<linearGradient id="Gradient_27" gradientUnits="userSpaceOnUse" x1="49.33749999999999" y1="23.7125" x2="97.8625" y2="10.6875" spreadMethod="pad">
<stop  offset="0%" stop-color="#A91818" stop-opacity="0"/>

<stop  offset="61.568627450980394%" stop-color="#A91818"/>
</linearGradient>

<linearGradient id="Gradient_28" gradientUnits="userSpaceOnUse" x1="50.65" y1="46.974999999999994" x2="50.65" y2="97.225" spreadMethod="pad">
<stop  offset="0%" stop-color="#A91818" stop-opacity="0"/>

<stop  offset="61.568627450980394%" stop-color="#A91818"/>
</linearGradient>

<linearGradient id="Gradient_29" gradientUnits="userSpaceOnUse" x1="50.75" y1="47.05" x2="50.75" y2="93.35000000000001" spreadMethod="pad">
<stop  offset="9.803921568627452%" stop-color="#E02727" stop-opacity="0"/>

<stop  offset="62.35294117647059%" stop-color="#E02727"/>
</linearGradient>

<linearGradient id="Gradient_30" gradientUnits="userSpaceOnUse" x1="41.075" y1="58.575" x2="8.325" y2="91.325" spreadMethod="pad">
<stop  offset="9.803921568627452%" stop-color="#E02727" stop-opacity="0"/>

<stop  offset="62.35294117647059%" stop-color="#E02727"/>
</linearGradient>

<linearGradient id="Gradient_31" gradientUnits="userSpaceOnUse" x1="41.0625" y1="58.4875" x2="5.537500000000001" y2="94.0125" spreadMethod="pad">
<stop  offset="0%" stop-color="#A91818" stop-opacity="0"/>

<stop  offset="61.568627450980394%" stop-color="#A91818"/>
</linearGradient>

<linearGradient id="Gradient_32" gradientUnits="userSpaceOnUse" x1="53.45" y1="48.35" x2="7.149999999999999" y2="48.35" spreadMethod="pad">
<stop  offset="9.803921568627452%" stop-color="#E02727" stop-opacity="0"/>

<stop  offset="62.35294117647059%" stop-color="#E02727"/>
</linearGradient>

<linearGradient id="Gradient_33" gradientUnits="userSpaceOnUse" x1="53.475" y1="48.3" x2="3.2250000000000014" y2="48.3" spreadMethod="pad">
<stop  offset="0%" stop-color="#A91818" stop-opacity="0"/>

<stop  offset="61.568627450980394%" stop-color="#A91818"/>
</linearGradient>

<linearGradient id="Gradient_34" gradientUnits="userSpaceOnUse" x1="44.275" y1="41.975" x2="11.524999999999999" y2="9.225000000000001" spreadMethod="pad">
<stop  offset="9.803921568627452%" stop-color="#E02727" stop-opacity="0"/>

<stop  offset="62.35294117647059%" stop-color="#E02727"/>
</linearGradient>

<linearGradient id="Gradient_35" gradientUnits="userSpaceOnUse" x1="44.3125" y1="41.912499999999994" x2="8.787500000000001" y2="6.387499999999999" spreadMethod="pad">
<stop  offset="0%" stop-color="#A91818" stop-opacity="0"/>

<stop  offset="61.568627450980394%" stop-color="#A91818"/>
</linearGradient>

<linearGradient id="Gradient_36" gradientUnits="userSpaceOnUse" x1="48.05" y1="52.95" x2="48.05" y2="6.649999999999999" spreadMethod="pad">
<stop  offset="9.803921568627452%" stop-color="#E02727" stop-opacity="0"/>

<stop  offset="62.35294117647059%" stop-color="#E02727"/>
</linearGradient>

<linearGradient id="Gradient_37" gradientUnits="userSpaceOnUse" x1="48.1" y1="52.975" x2="48.1" y2="2.7250000000000014" spreadMethod="pad">
<stop  offset="0%" stop-color="#A91818" stop-opacity="0"/>

<stop  offset="61.568627450980394%" stop-color="#A91818"/>
</linearGradient>

<linearGradient id="Gradient_38" gradientUnits="userSpaceOnUse" x1="58.175" y1="41.725" x2="90.925" y2="8.975000000000001" spreadMethod="pad">
<stop  offset="9.803921568627452%" stop-color="#E02727" stop-opacity="0"/>

<stop  offset="62.35294117647059%" stop-color="#E02727"/>
</linearGradient>

<linearGradient id="Gradient_39" gradientUnits="userSpaceOnUse" x1="58.1875" y1="41.7125" x2="93.7125" y2="6.1875" spreadMethod="pad">
<stop  offset="0%" stop-color="#A91818" stop-opacity="0"/>

<stop  offset="61.568627450980394%" stop-color="#A91818"/>
</linearGradient>

<linearGradient id="Gradient_40" gradientUnits="userSpaceOnUse" x1="45.849999999999994" y1="45.2" x2="92.15" y2="45.2" spreadMethod="pad">
<stop  offset="9.803921568627452%" stop-color="#E02727" stop-opacity="0"/>

<stop  offset="62.35294117647059%" stop-color="#E02727"/>
</linearGradient>

<linearGradient id="Gradient_41" gradientUnits="userSpaceOnUse" x1="45.825" y1="45.2" x2="96.075" y2="45.2" spreadMethod="pad">
<stop  offset="0%" stop-color="#A91818" stop-opacity="0"/>

<stop  offset="61.568627450980394%" stop-color="#A91818"/>
</linearGradient>

<linearGradient id="Gradient_42" gradientUnits="userSpaceOnUse" x1="58.125" y1="56.775000000000006" x2="90.875" y2="89.525" spreadMethod="pad">
<stop  offset="9.803921568627452%" stop-color="#E02727" stop-opacity="0"/>

<stop  offset="62.35294117647059%" stop-color="#E02727"/>
</linearGradient>

<linearGradient id="Gradient_43" gradientUnits="userSpaceOnUse" x1="58.1375" y1="56.787499999999994" x2="93.66250000000001" y2="92.3125" spreadMethod="pad">
<stop  offset="0%" stop-color="#A91818" stop-opacity="0"/>

<stop  offset="61.568627450980394%" stop-color="#A91818"/>
</linearGradient>

<radialGradient id="Gradient_44" gradientUnits="userSpaceOnUse" cx="0" cy="0" r="7.112499999999997" fx="0" fy="0" gradientTransform="matrix( 0, 1.0000000000000004, -4.247803163444641, 0, 62.35,74.55) " spreadMethod="pad">
<stop  offset="31.764705882352942%" stop-color="#E02727"/>

<stop  offset="85.49019607843137%" stop-color="#E02727" stop-opacity="0"/>
</radialGradient>

<g id="Layer46_0_FILL">
<path fill="url(#Gradient_1)" stroke="none" d="
M 17.05 34.6
L 15.5 34.55 -0.9 47.95 15.5 61.35 17.05 61.4 17.05 54.4 45.45 54.4 45.4 41.55 17.1 41.55 17.05 34.6 Z"/>

<path fill="url(#Gradient_2)" stroke="none" d="
M 45.4 41.55
L 45.45 36.8 21.8 36.85 21.75 31.1
Q 21.75 30.7 21.55 30.3 21.15 29.9 20.7 29.95
L 14.95 30
Q 14.7 29.95 14.4 30.05
L -3.75 44.8 -3.85 44.9
Q -5.95 48 -3.9 51
L -3.7 50.95 14.35 65.8
Q 14.6 66.05 15.05 66
L 20.6 66.05
Q 21.05 66.1 21.45 65.7 21.8 65.3 21.8 64.85
L 21.7 59.2 45.35 59.2 45.45 54.4 17.05 54.4 17.05 61.4 15.5 61.35 -0.9 47.95 15.5 34.55 17.05 34.6 17.1 41.55 45.4 41.55 Z"/>
</g>

<g id="Finger_Front_0_Layer1_0_FILL">
<path fill="url(#Gradient_3)" stroke="none" d="
M -16.2 -19.55
Q -16.3 -19.35 -16.35 -19.15 -16.65 -18.6 -16.85 -17.75
L -17.85 -13.8 -19.05 -0.95 -19.1 -0.95 -19.55 10.5 -19.3 24.3 -15.9 24.3 -16.1 10.5 -15.75 -0.95 -15.7 -0.95 -14.55 -13.8 -13.75 -17.65
Q -13.7 -17.95 -13.65 -18.05
L -13.6 -18.15
Q -13.4 -18.85 -13.1 -19.55
L -16.2 -19.55
M 16.3 -19.2
Q 16.2 -19.4 16.15 -19.55
L 13.05 -19.55
Q 13.3 -18.9 13.6 -18.15 13.6 -17.95 13.75 -17.65
L 14.55 -13.8 15.75 -0.95 15.7 -0.95 16.05 10.5 15.85 24.3 19.25 24.3 19.5 10.5 19.55 10.5 19.35 4.4
Q 19.35 4.45 19.4 4.55
L 17.85 -13.8 16.8 -17.75
Q 16.7 -18.15 16.6 -18.5 16.4 -18.95 16.3 -19.2 Z"/>

<path fill="url(#Gradient_4)" stroke="none" d="
M -13.1 -19.55
Q -12.35 -21.25 -11.4 -22.7
L -14.55 -22.7
Q -15.45 -21.25 -16.2 -19.55
L -13.1 -19.55
M 11.3 -22.7
Q 12.2 -21.35 13.05 -19.55
L 16.15 -19.55
Q 15.35 -21.25 14.5 -22.7
L 11.3 -22.7 Z"/>

<path fill="#876B47" stroke="none" d="
M -8.4 -23.9
L -8.4 -23.8
Q -8.3794921875 -23.855859375 -8.35 -23.9 -8.2734375 -24.1626953125 -8.2 -24.4 -8.3333984375 -24.1666015625 -8.4 -23.9
M -8.65 -19.55
L -8.55 -22.85 -10.35 -22.85 -10.35 -22.7 -10.85 -19.55 -8.65 -19.55
M 7.25 -26.1
L 7.15 -26.1
Q 7.3275390625 -25.9046875 7.5 -25.7 8.05 -24.9 8.35 -23.9 8.4 -23.7 8.5 -23.5 8.5 -23.35 8.6 -23.15
L 8.65 -19.55 10.75 -19.55 10.3 -22.7 11.3 -22.7
Q 11.2 -22.85 11.1 -22.95
L 10.95 -23.05
Q 9.2 -24.95 7.25 -26.1 Z"/>

<path fill="url(#Gradient_5)" stroke="none" d="
M -7.45 -26.1
L -11.3 -26.1
Q -13.1 -24.6 -14.55 -22.7
L -11.4 -22.7
Q -9.75 -24.75 -7.45 -26.1
M 11.15 -26.1
L 7.25 -26.1
Q 9.2 -24.95 10.95 -23.05
L 11.1 -22.95
Q 11.2 -22.85 11.3 -22.7
L 14.5 -22.7
Q 13.8 -23.6 13.1 -24.35
L 13.1 -24.4
Q 12.95 -24.45 12.9 -24.55 12.05 -25.4 11.15 -26.1 Z"/>

<path fill="url(#Gradient_6)" stroke="none" d="
M -7.2 -26.1
Q -7.082421875 -26.2298828125 -7 -26.35 -7.22421875 -26.2291015625 -7.45 -26.1
L -7.2 -26.1
M 7.15 -26.1
L 7.25 -26.1
Q 7.1501953125 -26.16640625 7.05 -26.2 7.1005859375 -26.1556640625 7.15 -26.1 Z"/>

<path fill="#FBCF9B" stroke="none" d="
M 3.2 2.6
Q 3.15 0.8 1.9 0.5 1.05 0.3 0.55 -0.25 0.25 -0.25 -0.05 -0.25 -2.9 -0.25 -5.7 -0.95
L -5.75 -0.95
Q -6.95 -1.25 -8.2 -1.65 -8.5 -1.75 -8.7 -1.9 -8.85 -2.05 -8.95 -2.1 -9.55 -2.55 -10 -3.15 -11.25 -4.9 -11.65 -7.55 -11.75 -7.95 -11.75 -8.1
L -11.7 -9.4 -12.25 -3.15 -12.2 -3.15 -12.65 10.5 -12.7 10.5 -12.55 26.75
Q -8.35 29.4 -3.85 30.3 -1.05 30.85 1.7 30.6 2.45 30.45 3.3 30.35 3.5 27.2 3.05 24.3 2.65 22.35 2.1 20.65 1.6 19.45 0.8 19.15 -2.2 18.65 -5.45 18.1 -8.5 17.6 -8.65 16.55
L -8.6 16.55
Q -9.35 15.9 -8.9 14.85 -7.9 14.65 -4.9 15.3 -2.05 15.8 2.15 14.9
L 2.55 14.15 2.55 12.45 1.7 11.65
Q 0.3 11.75 -1.1 11.95 -2.9 12.1 -4.7 11.9 -6.7 11.9 -8.1 10.85
L -8.15 10.5 -8.1 10.5 -8.2 9.9
Q -8.15 9.2 -7.4 8.9 -4.25 9.35 -0.8 8.6 3.2 7.7 3.2 2.6 Z"/>

<path fill="#F1B776" stroke="none" d="
M 9.95 -3.15
L 10 -3.15
Q 9.6 -2.7 9.2 -2.35 8.95 -2.15 8.65 -1.9 8.45 -1.75 8.15 -1.65 6.9 -1.25 5.65 -0.95
L 5.6 -0.95
Q 3.05 -0.35 0.55 -0.25 1.05 0.3 1.9 0.5 3.15 0.8 3.2 2.6 3.2 7.7 -0.8 8.6 -4.25 9.35 -7.4 8.9 -8.15 9.2 -8.2 9.9
L -8.1 10.5 -8.15 10.5 -8.1 10.85
Q -6.7 11.9 -4.7 11.9 -2.9 12.1 -1.1 11.95 0.3 11.75 1.7 11.65
L 2.55 12.45 2.55 14.15 2.15 14.9
Q -2.05 15.8 -4.9 15.3 -7.9 14.65 -8.9 14.85 -9.35 15.9 -8.6 16.55
L -8.65 16.55
Q -8.5 17.6 -5.45 18.1 -2.2 18.65 0.8 19.15 1.6 19.45 2.1 20.65 2.65 22.35 3.05 24.3 3.5 27.2 3.3 30.35 7.45 29.9 11.3 27.5 11.95 27.15 12.55 26.75
L 12.6 10.5 12.65 10.5 12.2 -3.15 12.15 -3.15 11.55 -10.8 11.65 -8.1
Q 11.65 -7.95 11.6 -7.55 11.15 -4.85 9.95 -3.15 Z"/>

<path fill="#FFFFFF" stroke="none" d="
M 0 -3.2
Q 0.85 -3.3 1.75 -3.3 4.3 -3.55 6.9 -4.45 7 -4.7 7.25 -4.75 4.15 -7.75 0.2 -7.65 -2.4 -7.8 -4.5 -6.5 -5.9 -5.85 -7 -4.65
L -6.9 -4.45
Q -5.7 -4.1 -4.45 -3.7 -3.3 -3.45 -1.95 -3.3 -1.65 -3.3 -1.15 -3.2 -0.6 -3.2 0 -3.2
M 0.9 -28.95
L 0.2 -29
Q 0 -29 -0.15 -29
L -1 -28.95
Q -3.6 -28.8 -5.8 -27.4 -6.492578125 -26.93828125 -7 -26.35 -7.082421875 -26.2298828125 -7.2 -26.1 -7.2150390625 -26.05078125 -7.25 -26 -7.8357421875 -25.2970703125 -8.2 -24.4 -8.2734375 -24.1626953125 -8.35 -23.9 -8.3794921875 -23.855859375 -8.4 -23.8 -8.55 -23.5337890625 -8.55 -23.15
L -8.55 -22.85
Q -8.4970703125 -22.959765625 -8.45 -23.1 -7.778125 -24.2853515625 -6.4 -25.25 -3.65 -27.25 0.15 -27.15 3.85 -27.25 6.65 -25.25 7.75 -24.55 8.5 -23.5 8.4 -23.7 8.35 -23.9 8.05 -24.9 7.5 -25.7 7.3275390625 -25.9046875 7.15 -26.1 7.1005859375 -26.1556640625 7.05 -26.2 6.4646484375 -26.8576171875 5.85 -27.4 3.35 -28.75 0.9 -28.95 Z"/>

<path fill="url(#Gradient_7)" stroke="none" d="
M 11.5 -13.8
L 11.45 -13.8 10.75 -19.55 8.65 -19.55 8.85 -8.5
Q 8.35 -6.15 7.25 -4.75 7 -4.7 6.9 -4.45 4.3 -3.55 1.75 -3.3 0.85 -3.3 0 -3.2 -0.6 -3.2 -1.15 -3.2 -1.65 -3.3 -1.95 -3.3 -3.3 -3.45 -4.45 -3.7 -5.7 -4.1 -6.9 -4.45
L -7 -4.65
Q -8.45 -5.9 -8.85 -8.5
L -8.65 -19.55 -10.85 -19.55 -11.6 -13.8 -11.55 -13.8 -11.7 -9.4 -11.75 -8.1
Q -11.75 -7.95 -11.65 -7.55 -11.25 -4.9 -10 -3.15 -9.55 -2.55 -8.95 -2.1 -8.85 -2.05 -8.7 -1.9 -8.5 -1.75 -8.2 -1.65 -6.95 -1.25 -5.75 -0.95
L -5.7 -0.95
Q -2.9 -0.25 -0.05 -0.25 0.25 -0.25 0.55 -0.25 3.05 -0.35 5.6 -0.95
L 5.65 -0.95
Q 6.9 -1.25 8.15 -1.65 8.45 -1.75 8.65 -1.9 8.95 -2.15 9.2 -2.35 9.6 -2.7 10 -3.15
L 9.95 -3.15
Q 11.15 -4.85 11.6 -7.55 11.65 -7.95 11.65 -8.1
L 11.55 -10.8 11.5 -13.8 Z"/>

<path fill="url(#Gradient_8)" stroke="none" d="
M 11.3 -22.7
L 10.3 -22.7 10.75 -19.55 11.45 -13.8 11.5 -13.8 11.55 -10.8 12.15 -3.15 12.2 -3.15 12.65 10.5 12.6 10.5 12.55 26.75
Q 11.95 27.15 11.3 27.5 7.45 29.9 3.3 30.35 2.45 30.45 1.7 30.6 -1.05 30.85 -3.85 30.3 -8.35 29.4 -12.55 26.75
L -12.7 10.5 -12.65 10.5 -12.2 -3.15 -12.25 -3.15 -11.7 -9.4 -11.55 -13.8 -11.6 -13.8 -10.85 -19.55 -10.35 -22.7 -10.35 -22.85 -8.55 -22.85 -8.55 -23.15
Q -8.55 -23.5337890625 -8.4 -23.8
L -8.4 -23.9
Q -8.3333984375 -24.1666015625 -8.2 -24.4 -7.8357421875 -25.2970703125 -7.25 -26 -7.2150390625 -26.05078125 -7.2 -26.1
L -7.45 -26.1
Q -9.75 -24.75 -11.4 -22.7 -12.35 -21.25 -13.1 -19.55 -13.4 -18.85 -13.6 -18.15
L -13.65 -18.05
Q -13.7 -17.95 -13.75 -17.65
L -14.55 -13.8 -15.7 -0.95 -15.75 -0.95 -16.1 10.5 -15.9 24.3 -15.8 28.05
Q -15.85 28.1 -15.8 28.25 -15.9 28.75 -15.55 29.35
L -15.55 29.25
Q -15.4 29.75 -14.85 30.15 -7.55 34.85 -0.15 34.9 1.2 34.85 2.65 34.75
L 2.7 34.75
Q 4.7 34.4 6.55 34 6.5 33.95 6.65 34 10.75 32.6 14.8 30.15 15.2 29.8 15.55 29.35 15.75 28.8 15.85 28.25 15.8 28.1 15.85 28.05
L 15.85 24.3 16.05 10.5 15.7 -0.95 15.75 -0.95 14.55 -13.8 13.75 -17.65
Q 13.6 -17.95 13.6 -18.15 13.3 -18.9 13.05 -19.55 12.2 -21.35 11.3 -22.7 Z"/>

<path fill="#FFFCF4" stroke="none" d="
M 6.65 -25.25
Q 3.85 -27.25 0.15 -27.15 -3.65 -27.25 -6.4 -25.25 -7.778125 -24.2853515625 -8.45 -23.1 -8.4970703125 -22.959765625 -8.55 -22.85
L -8.65 -19.55 -8.85 -8.5
Q -8.45 -5.9 -7 -4.65 -5.9 -5.85 -4.5 -6.5 -2.4 -7.8 0.2 -7.65 4.15 -7.75 7.25 -4.75 8.35 -6.15 8.85 -8.5
L 8.65 -19.55 8.6 -23.15
Q 8.5 -23.35 8.5 -23.5 7.75 -24.55 6.65 -25.25 Z"/>

<path fill="url(#Gradient_9)" stroke="none" d="
M 0.2 -29
L 0.9 -28.95
Q 3.35 -28.75 5.85 -27.4 6.4646484375 -26.8576171875 7.05 -26.2 7.1501953125 -26.16640625 7.25 -26.1
L 11.15 -26.1
Q 9.85 -27.05 8.5 -27.7 7.65 -28.4 6.65 -29.05 6.45 -29.1 6.25 -29.25 3 -30.55 -0.15 -30.5 -3.35 -30.55 -6.35 -29.2 -6.6 -29.1 -6.75 -29.05 -7.6 -28.6 -8.25 -27.95 -9.9 -27.15 -11.3 -26.1
L -7.45 -26.1
Q -7.22421875 -26.2291015625 -7 -26.35 -6.492578125 -26.93828125 -5.8 -27.4 -3.6 -28.8 -1 -28.95
L -0.15 -29
Q 0 -29 0.2 -29 Z"/>
</g>

<g id="Layer45_0_FILL">
<path fill="url(#Gradient_10)" stroke="none" d="
M 99.7 48.05
L 83.3 34.65 81.75 34.6 81.75 41.6 53.35 41.6 53.4 54.45 81.7 54.45 81.75 61.4 83.3 61.45 99.7 48.05 Z"/>

<path fill="url(#Gradient_11)" stroke="none" d="
M 84.45 30.2
Q 84.2 29.95 83.75 30
L 78.2 29.95
Q 77.75 29.9 77.35 30.3 77 30.7 77 31.15
L 77.1 36.8 53.45 36.8 53.35 41.6 81.75 41.6 81.75 34.6 83.3 34.65 99.7 48.05 83.3 61.45 81.75 61.4 81.7 54.45 53.4 54.45 53.35 59.2 77 59.15 77.05 64.9
Q 77.05 65.3 77.25 65.7 77.65 66.1 78.1 66.05
L 83.85 66
Q 84.1 66.05 84.4 65.95
L 102.55 51.2 102.65 51.1
Q 104.75 48 102.7 45
L 102.5 45.05 84.45 30.2 Z"/>
</g>

<g id="Layer44_0_FILL">
<path fill="url(#Gradient_12)" stroke="none" d="
M 67.35 20.75
L 67.4 19.2 54 2.8 40.6 19.2 40.55 20.75 47.55 20.75 47.55 49.15 60.4 49.1 60.4 20.8 67.35 20.75 Z"/>

<path fill="url(#Gradient_13)" stroke="none" d="
M 57.15 -0.05
L 57.05 -0.15
Q 53.95 -2.25 50.95 -0.2
L 51 0 36.15 18.05
Q 35.9 18.3 35.95 18.75
L 35.9 24.3
Q 35.85 24.75 36.25 25.15 36.65 25.5 37.1 25.5
L 42.75 25.4 42.75 49.05 47.55 49.15 47.55 20.75 40.55 20.75 40.6 19.2 54 2.8 67.4 19.2 67.35 20.75 60.4 20.8 60.4 49.1 65.15 49.15 65.1 25.5 70.85 25.45
Q 71.25 25.45 71.65 25.25 72.05 24.85 72 24.4
L 71.95 18.65
Q 72 18.4 71.9 18.1
L 57.15 -0.05 Z"/>
</g>

<g id="Layer43_0_FILL">
<path fill="url(#Gradient_14)" stroke="none" d="
M 60.35 -3.75
L 47.5 -3.7 47.5 24.6 40.55 24.65 40.5 26.2 53.9 42.6 67.3 26.2 67.35 24.65 60.35 24.65 60.35 -3.75 Z"/>

<path fill="url(#Gradient_15)" stroke="none" d="
M 47.5 -3.7
L 42.75 -3.75 42.8 19.9 37.05 19.95
Q 36.65 19.95 36.25 20.15 35.85 20.55 35.9 21
L 35.95 26.75
Q 35.9 27 36 27.3
L 50.75 45.45 50.85 45.55
Q 53.95 47.65 56.95 45.6
L 56.9 45.4 71.75 27.35
Q 72 27.1 71.95 26.65
L 72 21.1
Q 72.05 20.65 71.65 20.25 71.25 19.9 70.8 19.9
L 65.15 20 65.15 -3.65 60.35 -3.75 60.35 24.65 67.35 24.65 67.3 26.2 53.9 42.6 40.5 26.2 40.55 24.65 47.5 24.6 47.5 -3.7 Z"/>
</g>

<g id="Layer42_0_FILL">
<path fill="#A91818" stroke="none" d="
M 24.95 67.8
L 24.95 67.75
Q 21.75 64.5 17.2 64.45 12.7 64.45 9.45 67.65 6.2 70.85 6.15 75.4 6.2 77.35 6.25 79.35 7.45 99.9 22.8 113.6 37 126.25 55.5 126.2
L 55.65 128.45
Q 55.7 129.6 56.4 130.65 57.05 131.7 58.25 132.25 59.35 132.75 60.5 132.6
L 62.1 132.55
Q 63.55 132.35 64.7 131.4
L 80.45 117.1
Q 81.4 116.15 81.8 114.95 82.15 113.55 81.6 112.3 81.1 111 80.05 110.2
L 62.8 97.65
Q 61.45 96.65 59.8 96.7
L 58.25 96.95
Q 56.35 97.1 55.2 98.55 54 99.85 54.1 101.7
L 54.25 104.3
Q 44.8 103.75 37.45 97.2 28.9 89.55 28.25 78.1 28.2 76.75 28.15 75.5 28.25 71 24.95 67.8
M 12.65 70.9
Q 14.5 69 17.15 69 19.95 68.95 21.75 70.85 23.7 72.8 23.6 75.45 23.65 76.9 23.75 78.35 24.5 91.6 34.5 100.5
L 34.6 100.55
Q 44.5 109.4 57.85 108.7 58.2 108.65 58.55 108.65 58.8 108.65 59 108.65
L 58.65 101.4 60.2 101.25 77.4 113.85 61.7 128 60.15 128.15 59.75 121.65
Q 59.6 121.65 59.25 121.6 58.95 121.65 58.6 121.6 39.85 122.75 25.95 110.2 11.8 97.75 10.75 79 10.65 77.25 10.65 75.45 10.7 72.7 12.65 70.9
M 40.3 -0.5
L 39.95 -2.65
Q 39.7 -3.9 38.9 -4.8 38.1 -5.7 36.9 -6.1 35.75 -6.5 34.55 -6.25
L 33 -5.9
Q 31.55 -5.65 30.65 -4.45
L 16.65 11.5
Q 15.7 12.45 15.5 13.8 15.35 15.15 16 16.45 16.65 17.65 17.75 18.3
L 36.35 28.8
Q 37.85 29.6 39.5 29.25
L 41.05 28.95
Q 42.85 28.65 43.8 27.05 44.85 25.55 44.5 23.75
L 44.1 21.2
Q 53.5 20.65 61.55 26.25 71.05 32.9 73.05 44.2 73.25 45.5 73.4 46.75 73.85 51.2 77.45 54
L 77.5 54.1
Q 81 56.95 85.6 56.35 90.05 55.85 92.9 52.35 95.75 48.75 95.2 44.2 94.95 42.35 94.65 40.45 91.1 20.1 74.2 8.25
L 74.25 8.3 74.15 8.25 74.2 8.25
Q 58.7 -2.6 40.3 -0.5
M 34 -1.55
L 35.45 -1.9 36.6 4.65
Q 36.85 4.55 37.1 4.55 37.45 4.5 37.8 4.4 56.25 1.15 71.6 11.95 86.95 22.7 90.3 41.2 90.55 42.95 90.75 44.7 91.05 47.4 89.4 49.5 87.75 51.65 85 51.9 82.4 52.2 80.25 50.55 78.1 48.8 77.9 46.2 77.7 44.8 77.45 43.45 75.15 30.25 64.15 22.6
L 64.1 22.55
Q 53.15 14.9 40.05 17.25 39.7 17.25 39.35 17.35 39.1 17.4 38.8 17.35
L 40.1 24.55 38.6 24.9 20.05 14.4 34 -1.55 Z"/>

<path fill="#E02727" stroke="none" d="
M 17.15 69
Q 14.5 69 12.65 70.9 10.7 72.7 10.65 75.45 10.65 77.25 10.75 79 11.8 97.75 25.95 110.2 39.85 122.75 58.6 121.6 58.95 121.65 59.25 121.6 59.6 121.65 59.75 121.65
L 60.15 128.15 61.7 128 77.4 113.85 60.2 101.25 58.65 101.4 59 108.65
Q 58.8 108.65 58.55 108.65 58.2 108.65 57.85 108.7 44.5 109.4 34.6 100.55
L 34.5 100.5
Q 24.5 91.6 23.75 78.35 23.65 76.9 23.6 75.45 23.7 72.8 21.75 70.85 19.95 68.95 17.15 69
M 35.45 -1.9
L 34 -1.55 20.05 14.4 38.6 24.9 40.1 24.55 38.8 17.35
Q 39.1 17.4 39.35 17.35 39.7 17.25 40.05 17.25 53.15 14.9 64.1 22.55
L 64.15 22.6
Q 75.15 30.25 77.45 43.45 77.7 44.8 77.9 46.2 78.1 48.8 80.25 50.55 82.4 52.2 85 51.9 87.75 51.65 89.4 49.5 91.05 47.4 90.75 44.7 90.55 42.95 90.3 41.2 86.95 22.7 71.6 11.95 56.25 1.15 37.8 4.4 37.45 4.5 37.1 4.55 36.85 4.55 36.6 4.65
L 35.45 -1.9 Z"/>
</g>

<g id="Layer41_0_FILL">
<path fill="#A91818" stroke="none" d="
M 114.3 24.1
L 114.25 22.55
Q 114.2 21.05 113.25 19.9
L 99.95 3.4
Q 99.1 2.3 97.8 1.9 96.45 1.5 95.15 1.9 93.85 2.3 93 3.35
L 79.5 19.85
Q 78.4 21.15 78.45 22.85
L 78.5 24.4
Q 78.55 26.2 79.9 27.5 81.2 28.75 83 28.75
L 85.6 28.75
Q 84.55 38.15 77.6 45.1 69.45 53.25 57.95 53.25 56.65 53.25 55.4 53.2 50.9 52.9 47.5 55.9
L 47.45 55.95
Q 44.05 58.95 43.8 63.5 43.5 68 46.5 71.45 49.55 74.85 54.1 75.15 56 75.25 57.95 75.25 78.55 75.25 93.15 60.65
L 93.1 60.65 93.15 60.6 93.15 60.65
Q 106.55 47.25 107.65 28.75
L 109.8 28.75
Q 111.05 28.75 112.1 28.15 113.15 27.5 113.75 26.4 114.35 25.3 114.3 24.1
M 109.8 24.25
L 103.25 24.25
Q 103.25 24.5 103.25 24.75 103.25 25.1 103.25 25.45 103.25 44.2 89.95 57.45 76.7 70.75 57.95 70.75 56.15 70.75 54.35 70.65 51.65 70.45 49.9 68.45 48.1 66.45 48.3 63.75 48.45 61.05 50.45 59.3 52.5 57.5 55.15 57.7 56.55 57.75 57.95 57.75 71.3 57.75 80.75 48.3
L 80.8 48.25
Q 90.25 38.8 90.25 25.45 90.25 25.1 90.25 24.75 90.25 24.5 90.3 24.25
L 83 24.25 82.95 22.7 96.45 6.2 109.75 22.7 109.8 24.25 Z"/>

<path fill="#E02727" stroke="none" d="
M 103.25 24.25
L 109.8 24.25 109.75 22.7 96.45 6.2 82.95 22.7 83 24.25 90.3 24.25
Q 90.25 24.5 90.25 24.75 90.25 25.1 90.25 25.45 90.25 38.8 80.8 48.25
L 80.75 48.3
Q 71.3 57.75 57.95 57.75 56.55 57.75 55.15 57.7 52.5 57.5 50.45 59.3 48.45 61.05 48.3 63.75 48.1 66.45 49.9 68.45 51.65 70.45 54.35 70.65 56.15 70.75 57.95 70.75 76.7 70.75 89.95 57.45 103.25 44.2 103.25 25.45 103.25 25.1 103.25 24.75 103.25 24.5 103.25 24.25 Z"/>
</g>

<g id="Layer40_0_FILL">
<path fill="#A91818" stroke="none" d="
M 25 -6.95
Q 23.9 -6.1 23.5 -4.75 23.1 -3.45 23.5 -2.15 23.9 -0.85 24.95 0.05
L 41.45 13.55
Q 42.75 14.6 44.45 14.55
L 46 14.5
Q 47.8 14.45 49.1 13.15 50.35 11.8 50.35 10
L 50.35 7.05
Q 59.55 8.1 66.45 15 74.6 23.15 74.6 34.65 74.6 46.15 66.45 54.3 58.3 62.45 46.8 62.45 45.5 62.45 44.25 62.4 39.75 62.1 36.35 65.1
L 36.3 65.15
Q 32.9 68.15 32.65 72.7 32.35 77.2 35.35 80.65 38.4 84.05 42.95 84.35 44.85 84.45 46.8 84.45 67.4 84.45 82 69.85
L 81.95 69.85 82 69.8 82 69.85
Q 96.6 55.25 96.6 34.65 96.6 14.05 82 -0.55 68.65 -13.9 50.35 -15.05
L 50.35 -16.8
Q 50.35 -18.05 49.75 -19.1 49.1 -20.15 48 -20.75 46.9 -21.35 45.7 -21.3
L 44.15 -21.25
Q 42.65 -21.2 41.5 -20.25
L 25 -6.95
M 44.3 -16.75
L 45.85 -16.8 45.85 -10.55
Q 46.35 -10.65 46.85 -10.65 65.55 -10.65 78.8 2.6 92.1 15.9 92.1 34.65 92.1 53.4 78.8 66.65 65.55 79.95 46.8 79.95 45 79.95 43.2 79.85 40.5 79.65 38.75 77.65 36.95 75.65 37.15 72.95 37.3 70.25 39.3 68.5 41.35 66.7 44 66.9 45.4 66.95 46.8 66.95 60.15 66.95 69.6 57.5
L 69.65 57.45
Q 79.1 48 79.1 34.65 79.1 21.3 69.6 11.8 60.15 2.35 46.85 2.35 46.35 2.35 45.85 2.3
L 45.85 10 44.3 10.05 27.8 -3.45 44.3 -16.75 Z"/>

<path fill="#E02727" stroke="none" d="
M 45.85 -16.8
L 44.3 -16.75 27.8 -3.45 44.3 10.05 45.85 10 45.85 2.3
Q 46.35 2.35 46.85 2.35 60.15 2.35 69.6 11.8 79.1 21.3 79.1 34.65 79.1 48 69.65 57.45
L 69.6 57.5
Q 60.15 66.95 46.8 66.95 45.4 66.95 44 66.9 41.35 66.7 39.3 68.5 37.3 70.25 37.15 72.95 36.95 75.65 38.75 77.65 40.5 79.65 43.2 79.85 45 79.95 46.8 79.95 65.55 79.95 78.8 66.65 92.1 53.4 92.1 34.65 92.1 15.9 78.8 2.6 65.55 -10.65 46.85 -10.65 46.35 -10.65 45.85 -10.55
L 45.85 -16.8 Z"/>
</g>

<g id="Layer39_0_FILL">
<path fill="#A91818" stroke="none" d="
M 100.75 37.15
Q 100.75 16.55 86.15 1.95 71.55 -12.65 50.95 -12.65 30.35 -12.65 15.75 1.9
L 15.75 1.95 15.7 1.95
Q 1.15 16.55 1.15 37.15 1.2 50.2 7.1 60.9
L 4.6 63.4
Q 3.7 64.25 3.4 65.45 3.1 66.65 3.45 67.85 3.8 69.05 4.75 69.9
L 5.85 70.9
Q 6.9 71.85 8.35 72.05
L 29.45 74.35
Q 30.8 74.45 32.05 73.85 33.25 73.2 33.95 72 34.55 70.75 34.45 69.4
L 32.3 48.15
Q 32.1 46.45 30.85 45.3
L 29.75 44.3
Q 28.4 43.05 26.6 43.1 25.1 43.15 23.95 44.1 23.15 40.8 23.15 37.2
L 23.15 37.15
Q 23.15 25.65 31.3 17.5
L 31.25 17.5 31.3 17.45 31.3 17.5
Q 39.45 9.35 50.95 9.35 62.45 9.35 70.6 17.5 78.75 25.65 78.75 37.15 78.75 48.65 70.6 56.8
L 70.55 56.8
Q 63 64.4 52.5 64.9 47.95 65.1 44.9 68.5 41.8 71.85 42 76.4
L 42 76.45
Q 42.2 80.95 45.6 84.05 48.95 87.1 53.5 86.9 72.5 86 86.15 72.35
L 86.1 72.35 86.15 72.3 86.15 72.35
Q 100.75 57.75 100.75 37.15
M 82.95 5.1
Q 96.25 18.4 96.25 37.15 96.25 55.9 82.95 69.15 70.55 81.6 53.3 82.4 50.6 82.5 48.65 80.7 46.65 78.9 46.5 76.2 46.4 73.5 48.2 71.55 50 69.55 52.7 69.4 64.95 68.8 73.75 60
L 73.8 59.95
Q 83.25 50.5 83.25 37.15 83.25 23.8 73.75 14.3 64.3 4.85 50.95 4.85 37.6 4.85 28.1 14.3 18.65 23.8 18.65 37.15 18.6 45.35 22.2 52.1
L 26.7 47.6 27.8 48.6 29.95 69.85 8.85 67.55 7.75 66.55 12.9 61.4
Q 12.2 60.75 11.65 59.85 5.7 49.75 5.65 37.15 5.65 18.4 18.9 5.15
L 18.95 5.1
Q 32.2 -8.15 50.95 -8.15 69.7 -8.15 82.95 5.1 Z"/>

<path fill="#E02727" stroke="none" d="
M 96.25 37.15
Q 96.25 18.4 82.95 5.1 69.7 -8.15 50.95 -8.15 32.2 -8.15 18.95 5.1
L 18.9 5.15
Q 5.65 18.4 5.65 37.15 5.7 49.75 11.65 59.85 12.2 60.75 12.9 61.4
L 7.75 66.55 8.85 67.55 29.95 69.85 27.8 48.6 26.7 47.6 22.2 52.1
Q 18.6 45.35 18.65 37.15 18.65 23.8 28.1 14.3 37.6 4.85 50.95 4.85 64.3 4.85 73.75 14.3 83.25 23.8 83.25 37.15 83.25 50.5 73.8 59.95
L 73.75 60
Q 64.95 68.8 52.7 69.4 50 69.55 48.2 71.55 46.4 73.5 46.5 76.2 46.65 78.9 48.65 80.7 50.6 82.5 53.3 82.4 70.55 81.6 82.95 69.15 96.25 55.9 96.25 37.15 Z"/>
</g>

<g id="Layer38_0_FILL">
<path fill="url(#Gradient_16)" stroke="none" d="
M 16.7 26.7
L 18.5 33.4 -8.85 40.8 -5.5 53.2 21.85 45.85 23.65 52.55 25.15 52.2 37.55 35 18.2 26.3 16.7 26.7 Z"/>

<path fill="url(#Gradient_17)" stroke="none" d="
M 11.35 23.6
Q 11.15 24.15 11.25 24.55
L 12.85 30 -10.05 36.1 -8.85 40.8 18.5 33.4 16.7 26.7 18.2 26.3 37.55 35 25.15 52.2 23.65 52.55 21.85 45.85 -5.5 53.2 -4.3 57.75 18.5 51.6 20.05 57.1
Q 20.15 57.55 20.45 57.85 20.9 58.1 21.4 58
L 26.9 56.45
Q 27.15 56.4 27.4 56.2
L 41.2 37.15
Q 42.4 33.6 39.65 31.3
L 39.45 31.4 18.2 21.7
Q 17.9 21.5 17.5 21.7
L 12.1 23.1
Q 11.65 23.1 11.35 23.6 Z"/>

<path fill="url(#Gradient_18)" stroke="none" d="
M 92.65 12.65
L 91.45 8.1 68.65 14.25 67.1 8.75
Q 67 8.3 66.7 8 66.25 7.75 65.75 7.85
L 60.25 9.4
Q 60 9.45 59.75 9.65
L 45.95 28.7
Q 44.75 32.25 47.5 34.55
L 47.7 34.45 68.95 44.15
Q 69.25 44.35 69.65 44.15
L 75.05 42.75
Q 75.5 42.75 75.8 42.25 76 41.7 75.9 41.3
L 74.3 35.85 97.2 29.75 96 25.05 68.65 32.45 70.45 39.15 68.95 39.55 49.6 30.85 62 13.65 63.5 13.3 65.3 20 92.65 12.65 Z"/>

<path fill="url(#Gradient_19)" stroke="none" d="
M 96 25.05
L 92.65 12.65 65.3 20 63.5 13.3 62 13.65 49.6 30.85 68.95 39.55 70.45 39.15 68.65 32.45 96 25.05 Z"/>
</g>

<g id="FingerSide_0_Layer0_0_FILL">
<path fill="#F1B776" stroke="none" d="
M -14.15 -11.8
L -13.05 -12
Q -11.75 -10.15 -9.95 -11.5
L -9.15 -13.65
Q -10.1 -13.7 -10.95 -13.95 -16.55 -15 -22.15 -13.95 -18.65 -12.2 -17.35 -8.2
L -15.75 -8.05
Q -14.5 -9.65 -14.15 -11.8
M 32.3 -2.65
Q 30.6 -2.6 28.95 -2.55 24.2 -2.85 19.65 -3.65 21.8 2.1 14.65 3.4 13.2 3.55 11.75 3.8 5.05 5.2 -1.85 4.95 -8.85 4.5 -15.85 3.65 -17.95 3.3 -20 4.15 -25.4 6.4 -31.05 7.5 -32.35 7.65 -33.55 7.35 -34.35 7.15 -35.05 6.75 -37.95 5.05 -40.35 2.6 -38.9 7.5 -36.3 12.05 -35.45 13.55 -34.5 15.1 -33.6 14.8 -32.65 14.55 -29.15 13.4 -25.7 11.9 -19.65 9.35 -13.2 9.05 -6 9.75 1.15 9.75 5.3 9.75 9.5 9.6 15.6 8.8 21.65 6.8 29 4.4 32.3 -2.65
M 11.2 -8.75
L 10.55 -9.1
Q 9.65 -10.5 10 -12.3
L 5.55 -12.7
Q 6.15 -12.2 6.45 -11.55 9.9 -4.25 18.35 -4.1 16.95 -4.7 15.6 -5.3 11.95 -6.95 11.2 -8.75 Z"/>

<path fill="url(#Gradient_20)" stroke="none" d="
M 36.95 -3.95
L 32.3 -2.65
Q 29 4.4 21.65 6.8 15.6 8.8 9.5 9.6 5.3 9.75 1.15 9.75 -6 9.75 -13.2 9.05 -19.65 9.35 -25.7 11.9 -29.15 13.4 -32.65 14.55 -33.6 14.8 -34.5 15.1 -35.2 15.25 -35.9 15.5
L -35.9 19.65
Q -34.65 19.3 -33.4 18.95 -32.8 18.75 -32.15 18.55 -23.8 16 -15.8 12.85 6.85 14.6 16.85 12.5 27.65 10.3 32.2 4.65 32.9 3.8 33.5 3 36.45 -1 36.95 -3.95 Z"/>

<path fill="#FFFFFF" stroke="none" d="
M 32.4 -9.2
Q 32.45 -9.15 32.45 -9.1 32.5 -9.05 32.5 -9 32.55 -8.95 32.55 -8.9 32.55 -8.85 32.55 -8.8 32.55 -8.75 32.6 -8.7 32.6 -8.65 32.6 -8.6 32.65 -8.55 32.65 -8.45 32.7 -8.4 32.7 -8.35 32.7 -8.25 32.7 -8.15 32.7 -7.95 32.7 -7.75 32.7 -7.6 32.7 -7.45 32.7 -7.35 32.7 -7.25 32.65 -7.2 32.6 -7.15 32.6 -7.1 32.6 -7.05 32.55 -6.95 32.55 -6.85 32.55 -6.8 32.55 -6.75 33 -6.85 33.5 -6.9 33.85 -6.95 34.25 -7 34.35 -7.05 34.4 -7.1 35 -7.7 35.05 -8.65 34.3 -8.85 33.5 -9 32.95 -9.1 32.4 -9.2
M 12.8 -11.05
Q 12.75 -11.1 12.7 -11.1
L 10 -12.3
Q 9.65 -10.5 10.55 -9.1
L 11.2 -8.75
Q 11.5 -8.7 11.9 -8.55
L 12 -8.55
Q 12.4 -8.4 12.95 -8.2
L 12.95 -8.25
Q 12.95 -8.3 13 -8.35 13 -8.45 13 -8.55 13 -8.65 13 -8.75 13 -8.85 13 -8.95 13 -9 13 -9.05 12.95 -9.1 12.95 -9.15 12.95 -9.2 13 -9.25 13 -9.3 13 -9.35 13.05 -9.4 13.05 -9.45 13.05 -9.55 13.05 -9.65 13.05 -9.8 13.05 -9.95 13.05 -10.05 13.05 -10.15 13.05 -10.25 13.1 -10.35 13.1 -10.4 13.1 -10.45 13.05 -10.5 13.05 -10.55 13.05 -10.6 13 -10.65 13 -10.7 12.95 -10.75 12.95 -10.8 12.9 -10.85 12.9 -10.9 12.9 -10.95 12.85 -11 12.8 -11.05 Z"/>

<path fill="url(#Gradient_21)" stroke="none" d="
M 10 -12.3
L 10.3 -16.4 -8.9 -17.65
Q -9 -17.65 -9.05 -17.65 -9.35 -17.65 -9.6 -17.65 -16.85 -19.5 -24.05 -17.6 -24.15 -17.6 -24.15 -17.55 -30.4 -16.25 -36.25 -14.75 -39.4 -14 -42.4 -13.2 -43.25 -13 -44.1 -12.75
L -44.1 -8.6
Q -44 -8.65 -43.85 -8.65 -42.6 -9 -41.35 -9.35 -38.6 -10.1 -35.75 -10.75 -29.65 -12.3 -23.2 -13.7
L -23.1 -13.7
Q -22.65 -13.85 -22.15 -13.95 -16.55 -15 -10.95 -13.95 -10.1 -13.7 -9.15 -13.65
L 5.55 -12.7 10 -12.3 Z"/>

<path fill="#FBCF9B" stroke="none" d="
M 19.65 -3.65
Q 19 -3.85 18.35 -4.1 9.9 -4.25 6.45 -11.55 6.15 -12.2 5.55 -12.7
L -9.15 -13.65 -9.95 -11.5
Q -11.75 -10.15 -13.05 -12
L -14.15 -11.8
Q -14.5 -9.65 -15.75 -8.05
L -17.35 -8.2
Q -18.65 -12.2 -22.15 -13.95 -22.65 -13.85 -23.1 -13.7
L -23.2 -13.7
Q -29.65 -12.3 -35.75 -10.75 -38.6 -10.1 -41.35 -9.35 -41.75 -4.65 -40.95 -0.2
L -41 -0.2
Q -40.75 1.15 -40.4 2.55
L -40.35 2.6
Q -37.95 5.05 -35.05 6.75 -34.35 7.15 -33.55 7.35 -32.35 7.65 -31.05 7.5 -25.4 6.4 -20 4.15 -17.95 3.3 -15.85 3.65 -8.85 4.5 -1.85 4.95 5.05 5.2 11.75 3.8 13.2 3.55 14.65 3.4 21.8 2.1 19.65 -3.65 Z"/>

<path fill="url(#Gradient_22)" stroke="none" d="
M 12 -8.55
L 11.9 -8.55
Q 11.5 -8.7 11.2 -8.75 11.95 -6.95 15.6 -5.3 16.95 -4.7 18.35 -4.1 19 -3.85 19.65 -3.65 24.2 -2.85 28.95 -2.55 30.6 -2.6 32.3 -2.65
L 34.4 -7.1
Q 34.35 -7.05 34.25 -7 33.85 -6.95 33.5 -6.9 33 -6.85 32.55 -6.75 21.35 -5.4 15.95 -7.2 14.55 -7.7 13.5 -8.05 13.2 -8.15 12.95 -8.2 12.4 -8.4 12 -8.55 Z"/>

<path fill="#FFFCF4" stroke="none" d="
M 13.4 -10.95
Q 13.1 -10.95 12.8 -11.05 12.85 -11 12.9 -10.95 12.9 -10.9 12.9 -10.85 12.95 -10.8 12.95 -10.75 13 -10.7 13 -10.65 13.05 -10.6 13.05 -10.55 13.05 -10.5 13.1 -10.45 13.1 -10.4 13.1 -10.35 13.05 -10.25 13.05 -10.15 13.05 -10.05 13.05 -9.95 13.05 -9.8 13.05 -9.65 13.05 -9.55 13.05 -9.45 13.05 -9.4 13 -9.35 13 -9.3 13 -9.25 12.95 -9.2 12.95 -9.15 12.95 -9.1 13 -9.05 13 -9 13 -8.95 13 -8.85 13 -8.75 13 -8.65 13 -8.55 13 -8.45 13 -8.35 12.95 -8.3 12.95 -8.25
L 12.95 -8.2
Q 13.2 -8.15 13.5 -8.05 14.55 -7.7 15.95 -7.2 21.35 -5.4 32.55 -6.75 32.55 -6.8 32.55 -6.85 32.55 -6.95 32.6 -7.05 32.6 -7.1 32.6 -7.15 32.65 -7.2 32.7 -7.25 32.7 -7.35 32.7 -7.45 32.7 -7.6 32.7 -7.75 32.7 -7.95 32.7 -8.15 32.7 -8.25 32.7 -8.35 32.7 -8.4 32.65 -8.45 32.65 -8.55 32.6 -8.6 32.6 -8.65 32.6 -8.7 32.55 -8.75 32.55 -8.8 32.55 -8.85 32.55 -8.9 32.55 -8.95 32.5 -9 32.5 -9.05 32.45 -9.1 32.45 -9.15 32.4 -9.2 24.35 -10.65 13.4 -10.95 Z"/>

<path fill="#876B47" stroke="none" d="
M 11 -16.2
Q 10.65 -16.35 10.3 -16.4
L 10 -12.3 12.7 -11.1
Q 12.75 -11.1 12.8 -11.05 13.1 -10.95 13.4 -10.95 24.35 -10.65 32.4 -9.2 32.95 -9.1 33.5 -9 34.3 -8.85 35.05 -8.65 35 -7.7 34.4 -7.1
L 32.3 -2.65 36.95 -3.95
Q 37.55 -4.4 37.95 -4.9 39.6 -7.05 38.95 -10.65 38.8 -11.25 38.4 -11.65 38.2 -11.9 37.95 -12 37.7 -12.2 37.45 -12.25 35.55 -12.7 33.5 -13.05 25.2 -14.6 13.9 -14.95
L 11 -16.2 Z"/>

<path fill="url(#Gradient_23)" stroke="none" d="
M 15 -19.9
L 13 -20.8 13.05 -20.8
Q 11.9 -21.3 10.75 -21.35 10.523046875 -21.3953125 10.35 -21.4
L 10.6 -21.4 -8.6 -22.65
Q -8.7 -22.65 -8.75 -22.65 -8.85 -22.65 -8.95 -22.65 -17.15 -24.6 -25.35 -22.4
L -25.2 -22.45
Q -25.35 -22.45 -25.45 -22.4 -31.3 -21.15 -36.85 -19.75
L -36.25 -14.75
Q -30.4 -16.25 -24.15 -17.55 -24.15 -17.6 -24.05 -17.6 -16.85 -19.5 -9.6 -17.65 -9.35 -17.65 -9.05 -17.65 -9 -17.65 -8.9 -17.65
L 10.3 -16.4
Q 10.65 -16.35 11 -16.2
L 13.9 -14.95
Q 25.2 -14.6 33.5 -13.05 35.55 -12.7 37.45 -12.25 37.7 -12.2 37.95 -12 38.2 -11.9 38.4 -11.65 38.8 -11.25 38.95 -10.65 39.6 -7.05 37.95 -4.9 37.55 -4.4 36.95 -3.95 36.45 -1 33.5 3 32.9 3.8 32.2 4.65 27.65 10.3 16.85 12.5 6.85 14.6 -15.8 12.85 -23.8 16 -32.15 18.55
L -31.55 23.6
Q -23.1 21.05 -15 17.9 7.7 19.6 17.9 17.4 30.75 14.75 36.1 7.8
L 36.05 7.8
Q 36.85 6.85 37.5 6
L 37.55 5.95
Q 40.55 1.9 41.5 -1.35 41.7 -1.6 41.9 -1.8 45 -5.35 43.85 -11.6
L 43.85 -11.65
Q 43.45 -13.6 42.05 -15.1 42 -15.1 42 -15.15 41.35 -15.8 40.65 -16.25 40.5 -16.35 40.35 -16.4 39.55 -16.9 38.65 -17.1
L 38.6 -17.1
Q 36.6 -17.6 34.4 -18 26.15 -19.5 15 -19.9 Z"/>
</g>

<g id="Layer37_0_FILL">
<path fill="url(#Gradient_24)" stroke="none" d="
M 9.8 20.15
L 8.3 20.5 -4.1 37.7 15.25 46.4 16.75 46 14.95 39.3 42.3 31.9 38.95 19.5 11.6 26.85 9.8 20.15 Z"/>

<path fill="url(#Gradient_25)" stroke="none" d="
M 43.5 36.6
L 42.3 31.9 14.95 39.3 16.75 46 15.25 46.4 -4.1 37.7 8.3 20.5 9.8 20.15 11.6 26.85 38.95 19.5 37.75 14.95 14.95 21.1 13.4 15.6
Q 13.3 15.15 13 14.85 12.55 14.6 12.05 14.7
L 6.55 16.25
Q 6.3 16.3 6.05 16.5
L -7.75 35.55
Q -8.95 39.1 -6.2 41.4
L -6 41.3 15.25 51
Q 15.55 51.2 15.95 51
L 21.35 49.6
Q 21.8 49.6 22.1 49.1 22.3 48.55 22.2 48.15
L 20.6 42.7 43.5 36.6 Z"/>

<path fill="url(#Gradient_26)" stroke="none" d="
M 81.7 28.85
L 94.1 11.65 74.75 2.95 73.25 3.35 75.05 10.05 47.7 17.45 51.05 29.85 78.4 22.5 80.2 29.2 81.7 28.85 Z"/>

<path fill="url(#Gradient_27)" stroke="none" d="
M 74.75 -1.65
Q 74.45 -1.85 74.05 -1.65
L 68.65 -0.25
Q 68.2 -0.25 67.9 0.25 67.7 0.8 67.8 1.2
L 69.4 6.65 46.5 12.75 47.7 17.45 75.05 10.05 73.25 3.35 74.75 2.95 94.1 11.65 81.7 28.85 80.2 29.2 78.4 22.5 51.05 29.85 52.25 34.4 75.05 28.25 76.6 33.75
Q 76.7 34.2 77 34.5 77.45 34.75 77.95 34.65
L 83.45 33.1
Q 83.7 33.05 83.95 32.85
L 97.75 13.8
Q 98.95 10.25 96.2 7.95
L 96 8.05 74.75 -1.65 Z"/>
</g>

<g id="Layer36_0_FILL">
<path fill="url(#Gradient_28)" stroke="none" d="
M 61.95 47.1
L 57.15 47 57.15 75.4 64.15 75.4 64.1 76.95 50.7 93.35 37.3 76.95 37.35 75.4 44.3 75.35 44.3 47.05 39.55 47 39.6 70.65 33.85 70.7
Q 33.45 70.7 33.05 70.9 32.65 71.3 32.7 71.75
L 32.75 77.5
Q 32.7 77.75 32.8 78.05
L 47.55 96.2 47.65 96.3
Q 50.75 98.4 53.75 96.35
L 53.7 96.15 68.55 78.1
Q 68.8 77.85 68.75 77.4
L 68.8 71.85
Q 68.85 71.4 68.45 71 68.05 70.65 67.6 70.65
L 61.95 70.75 61.95 47.1 Z"/>

<path fill="url(#Gradient_29)" stroke="none" d="
M 57.15 47
L 44.3 47.05 44.3 75.35 37.35 75.4 37.3 76.95 50.7 93.35 64.1 76.95 64.15 75.4 57.15 75.4 57.15 47 Z"/>
</g>

<g id="Layer35_0_FILL">
<path fill="url(#Gradient_30)" stroke="none" d="
M 11.6 69.15
L 10.45 70.2 8.3 91.25 29.4 89.15 30.55 88.1 25.6 83.15 45.65 63.1 36.5 54.05 16.5 74.05 11.6 69.15 Z"/>

<path fill="url(#Gradient_31)" stroke="none" d="
M 36.5 54.05
L 33.2 50.65 16.5 67.35 12.4 63.35
Q 12.1 63.05 11.7 62.95 11.15 62.9 10.85 63.3
L 6.8 67.35
Q 6.6 67.55 6.45 67.8
L 4.05 91.1 4.05 91.2
Q 4.75 94.9 8.35 95.5
L 8.45 95.4 31.75 93.1
Q 32.05 93.1 32.35 92.8
L 36.3 88.85
Q 36.65 88.6 36.65 88 36.65 87.5 36.3 87.15
L 32.25 83.2 48.95 66.5 45.65 63.1 25.6 83.15 30.55 88.1 29.4 89.15 8.3 91.25 10.45 70.2 11.6 69.15 16.5 74.05 36.5 54.05 Z"/>
</g>

<g id="Layer34_0_FILL">
<path fill="url(#Gradient_32)" stroke="none" d="
M 25.15 41.9
L 25.15 35 23.6 34.95 7.15 48.3 23.6 61.75 25.15 61.8 25.15 54.8 53.45 54.8 53.4 41.95 25.15 41.9 Z"/>

<path fill="url(#Gradient_33)" stroke="none" d="
M 53.4 41.95
L 53.45 37.2 29.85 37.2 29.8 31.45
Q 29.8 31.05 29.55 30.7 29.2 30.25 28.7 30.35
L 23 30.35
Q 22.7 30.35 22.45 30.4
L 4.25 45.2 4.2 45.25
Q 2.1 48.35 4.2 51.35
L 4.3 51.35 22.45 66.2
Q 22.65 66.4 23.05 66.4
L 28.65 66.4
Q 29.1 66.45 29.5 66.05 29.85 65.7 29.85 65.2
L 29.8 59.55 53.4 59.55 53.45 54.8 25.15 54.8 25.15 61.8 23.6 61.75 7.15 48.3 23.6 34.95 25.15 35 25.15 41.9 53.4 41.95 Z"/>
</g>

<g id="Layer33_0_FILL">
<path fill="url(#Gradient_34)" stroke="none" d="
M 28.8 17.4
L 33.7 12.5 32.65 11.35 11.55 9.15 13.7 30.3 14.75 31.45 19.7 26.5 39.7 46.5 48.8 37.4 28.8 17.4 Z"/>

<path fill="url(#Gradient_35)" stroke="none" d="
M 48.8 37.4
L 52.15 34.05 35.45 17.35 39.5 13.3
Q 39.8 13 39.85 12.55 39.9 12 39.5 11.7
L 35.45 7.65
Q 35.25 7.45 35.05 7.35
L 11.75 4.95
Q 11.7 4.9 11.65 4.95 8 5.6 7.35 9.25
L 7.4 9.3 9.75 32.65
Q 9.75 32.95 10 33.2
L 13.95 37.15
Q 14.3 37.5 14.8 37.5 15.3 37.5 15.65 37.15
L 19.65 33.15 36.35 49.85 39.7 46.5 19.7 26.5 14.75 31.45 13.7 30.3 11.55 9.15 32.65 11.35 33.7 12.5 28.8 17.4 48.8 37.4 Z"/>
</g>

<g id="Layer32_0_FILL">
<path fill="url(#Gradient_36)" stroke="none" d="
M 61.4 24.65
L 61.45 23.1 48.15 6.6 34.65 23.1 34.6 24.65 41.6 24.65 41.6 52.95 54.5 52.95 54.5 24.65 61.4 24.65 Z"/>

<path fill="url(#Gradient_37)" stroke="none" d="
M 61.45 23.1
L 61.4 24.65 54.5 24.65 54.5 52.95 59.2 52.95 59.2 29.35 64.95 29.35
Q 65.4 29.35 65.75 29 66.15 28.65 66.1 28.15
L 66.1 22.45
Q 66.1 22.15 66 21.95
L 51.2 3.8
Q 51.2 3.75 51.15 3.75 48.15 1.6 45.1 3.75
L 45.05 3.8 30.2 21.95
Q 30.05 22.2 30.05 22.5
L 30.05 28.1
Q 30.05 28.6 30.4 28.95 30.75 29.3 31.2 29.35
L 36.9 29.35 36.9 52.95 41.6 52.95 41.6 24.65 34.6 24.65 34.65 23.1 48.15 6.6 61.45 23.1 Z"/>
</g>

<g id="Layer31_0_FILL">
<path fill="url(#Gradient_38)" stroke="none" d="
M 82.75 26.25
L 87.65 31.15 88.75 30.05 91 9 69.8 11.1 68.7 12.2 73.6 17.1 53.6 37.1 62.75 46.25 82.75 26.25 Z"/>

<path fill="url(#Gradient_39)" stroke="none" d="
M 90.9 4.8
L 90.8 4.8 67.45 7.15
Q 67.2 7.2 67 7.4
L 63 11.4
Q 62.65 11.75 62.65 12.25 62.65 12.75 62.95 13.05
L 67 17.1 50.3 33.8 53.6 37.1 73.6 17.1 68.7 12.2 69.8 11.1 91 9 88.75 30.05 87.65 31.15 82.75 26.25 62.75 46.25 66.05 49.55 82.75 32.85 86.85 36.95
Q 87.15 37.25 87.65 37.25 88.15 37.25 88.5 36.9
L 92.5 32.9
Q 92.7 32.7 92.75 32.45
L 95.15 9.15
Q 95.2 9.1 95.15 9.05 94.55 5.45 90.9 4.8 Z"/>
</g>

<g id="Layer30_0_FILL">
<path fill="url(#Gradient_40)" stroke="none" d="
M 75.7 31.8
L 74.15 31.8 74.15 38.7 45.85 38.7 45.85 51.65 74.15 51.65 74.15 58.6 75.7 58.6 92.15 45.25 75.7 31.8 Z"/>

<path fill="url(#Gradient_41)" stroke="none" d="
M 95 48.3
Q 95.05 48.3 95.05 48.25 97.2 45.25 95.05 42.2
L 95 42.15 76.85 27.3
Q 76.6 27.15 76.3 27.15
L 70.65 27.15
Q 70.2 27.15 69.85 27.5 69.5 27.85 69.5 28.3
L 69.5 34.05 45.85 34.05 45.85 38.7 74.15 38.7 74.15 31.8 75.7 31.8 92.15 45.25 75.7 58.6 74.15 58.6 74.15 51.65 45.85 51.65 45.85 56.3 69.5 56.3 69.5 62.1
Q 69.5 62.55 69.85 62.9 70.2 63.25 70.65 63.25
L 76.3 63.25
Q 76.6 63.25 76.85 63.1
L 95 48.3 Z"/>
</g>

<g id="Layer29_0_FILL">
<path fill="url(#Gradient_42)" stroke="none" d="
M 87.65 67.3
L 82.75 72.2 62.75 52.2 53.6 61.35 73.6 81.35 68.7 86.25 69.8 87.35 90.85 89.6 88.75 68.4 87.65 67.3 Z"/>

<path fill="url(#Gradient_43)" stroke="none" d="
M 86.8 61.55
L 82.75 65.6 66.05 48.9 62.75 52.2 82.75 72.2 87.65 67.3 88.75 68.4 90.85 89.6 69.8 87.35 68.7 86.25 73.6 81.35 53.6 61.35 50.3 64.65 67 81.35 62.9 85.45
Q 62.6 85.75 62.6 86.25 62.6 86.75 62.95 87.1
L 66.95 91.1
Q 67.15 91.3 67.4 91.35
L 90.7 93.75
Q 90.75 93.8 90.8 93.75 94.4 93.15 95.05 89.5
L 95.05 89.4 92.7 66.05
Q 92.65 65.8 92.45 65.6
L 88.45 61.6
Q 88.1 61.25 87.6 61.25 87.1 61.25 86.8 61.55 Z"/>
</g>

<g id="Layer28_0_FILL">
<path fill="url(#Gradient_44)" stroke="none" d="
M 85.2 79.45
Q 94.8 77.5 94.8 74.55 94.8 71.75 85.2 69.75 75.75 67.7 62.35 67.7 48.85 67.7 39.35 69.75 29.9 71.75 29.9 74.55 29.9 77.5 39.35 79.45 48.85 81.45 62.35 81.45 75.75 81.45 85.2 79.45 Z"/>

<path fill="#FFFFFF" fill-opacity="0.30196078431372547" stroke="none" d="
M 91.85 9.95
L 91.9 9.95
Q 90.4552734375 8.816015625 88.35 8.25 88.3345703125 8.2630859375 88.3 8.25 86.4875 7.8462890625 84.5 7.85
L 79.85 7.85
Q 78.8107421875 7.8462890625 78.05 8.55 77.3462890625 9.3107421875 77.35 10.35
L 77.35 19.1 74.85 19.1 74.85 10.35
Q 74.853515625 9.3107421875 74.1 8.55 73.3890625 7.8462890625 72.35 7.85
L 69.2 7.85
Q 68.1607421875 7.8462890625 67.4 8.55 66.6962890625 9.3107421875 66.7 10.35
L 66.7 10.35
Q 66.613671875 10.283203125 66.5 10.2
L 66.55 10.2
Q 65.1916015625 8.837890625 63.25 8.15 61.46640625 7.5021484375 59.3 7.5 57.191015625 7.509765625 55.4 8.15 53.4583984375 8.837890625 52.05 10.2
L 52.1 10.2
Q 52.0869140625 10.2357421875 52.05 10.25 52.0259765625 9.2830078125 51.3 8.55 50.5890625 7.8462890625 49.55 7.85
L 46.45 7.85
Q 45.4107421875 7.8462890625 44.65 8.55 43.9462890625 9.3107421875 43.95 10.35
L 43.95 13.1 42.85 13.1 42.85 10.35
Q 42.853515625 9.3107421875 42.1 8.55 41.3890625 7.8462890625 40.35 7.85
L 37.25 7.85
Q 36.2107421875 7.8462890625 35.45 8.55 34.7462890625 9.3107421875 34.75 10.35
L 34.75 24.5
Q 34.7462890625 25.5390625 35.45 26.25 36.2107421875 27.003515625 37.25 27
L 40.35 27
Q 41.3890625 27.003515625 42.1 26.25 42.853515625 25.5390625 42.85 24.5
L 42.85 20.9 43.95 20.9 43.95 24.5
Q 43.9462890625 25.5390625 44.65 26.25 45.4107421875 27.003515625 46.45 27
L 49.55 27
Q 50.5890625 27.003515625 51.3 26.25 52.017578125 25.575390625 52.05 24.6 52.0865234375 24.6384765625 52.1 24.65 53.4552734375 25.94609375 55.3 26.65 55.363671875 26.6859375 55.4 26.7 57.18984375 27.3478515625 59.3 27.35 61.46640625 27.3478515625 63.25 26.7 63.2861328125 26.6859375 63.3 26.65 65.1947265625 25.94609375 66.5 24.65 66.61484375 24.58984375 66.7 24.5 66.6962890625 25.5390625 67.4 26.25 68.1607421875 27.003515625 69.2 27
L 78.1 27
Q 78.568359375 27.0015625 78.95 26.85 79.381640625 27.0015625 79.85 27
L 84.95 27
Q 86.8873046875 27.0048828125 88.7 26.45 90.6216796875 25.83984375 92.05 24.6 93.584765625 23.4 94.45 21.6 95.3943359375 19.848046875 95.4 17.45 95.402734375 14.8158203125 94.4 13
L 94.45 13.05
Q 93.5208984375 11.1544921875 91.85 9.95
M 87.75 10.7
Q 89.3 11.1 90.4 11.95 91.55 12.8 92.2 14.15 92.9 15.5 92.9 17.45 92.9 19.2 92.25 20.5 91.6 21.8 90.5 22.7 89.4 23.6 87.95 24.05 86.5 24.5 84.95 24.5
L 79.85 24.5 79.85 10.35 84.5 10.35
Q 86.2 10.35 87.75 10.7
M 62.4 10.5
Q 63.8 11 64.8 12 65.8 12.95 66.4 14.35 66.95 15.7 66.95 17.4 66.95 19.1 66.4 20.5 65.8 21.9 64.8 22.85 63.8 23.8 62.4 24.35 61 24.85 59.3 24.85 57.65 24.85 56.25 24.35 54.85 23.8 53.85 22.85 52.85 21.9 52.25 20.5 51.7 19.1 51.7 17.4 51.7 15.7 52.25 14.35 52.85 12.95 53.85 12 54.85 11 56.25 10.5 57.65 10 59.3 10 61 10 62.4 10.5
M 78.1 21.6
L 78.1 24.5 69.2 24.5 69.2 10.35 72.35 10.35 72.35 21.6 78.1 21.6
M 46.45 10.35
L 49.55 10.35 49.55 24.5 46.45 24.5 46.45 18.4 40.35 18.4 40.35 24.5 37.25 24.5 37.25 10.35 40.35 10.35 40.35 15.6 46.45 15.6 46.45 10.35
M 63.7 17.4
Q 63.7 16.45 63.4 15.6 63.1 14.75 62.5 14.15 61.95 13.55 61.15 13.2 60.3 12.85 59.3 12.85 58.3 12.85 57.5 13.2 56.7 13.55 56.15 14.15 55.55 14.75 55.25 15.6 54.95 16.45 54.95 17.4 54.95 18.4 55.25 19.25 55.55 20.1 56.15 20.7 56.7 21.3 57.5 21.65 58.3 22 59.3 22 60.3 22 61.15 21.65 61.95 21.3 62.5 20.7 63.1 20.1 63.4 19.25 63.7 18.4 63.7 17.4
M 61.05 16.4
Q 61.207421875 16.8853515625 61.2 17.4 61.2111328125 17.954296875 61.05 18.4 60.9369140625 18.7169921875 60.7 18.9 60.6921875 18.96171875 60.65 19 60.44453125 19.2185546875 60.15 19.35
L 60.2 19.35
Q 59.787109375 19.513671875 59.3 19.5 58.8572265625 19.4951171875 58.5 19.35 58.20546875 19.2185546875 58 19 57.9576171875 18.96171875 57.9 18.9 57.712890625 18.7169921875 57.6 18.4 57.4462890625 17.953125 57.45 17.4 57.442578125 16.8853515625 57.6 16.4 57.712890625 16.1328125 57.9 15.9 57.9576171875 15.88828125 58 15.85 58.20546875 15.6314453125 58.5 15.5 58.8572265625 15.3546875 59.3 15.35 59.787109375 15.336328125 60.2 15.5
L 60.15 15.5
Q 60.44453125 15.6314453125 60.65 15.85 60.6921875 15.88828125 60.7 15.9 60.9369140625 16.1328125 61.05 16.4
M 88.2 14.2
Q 87.55 13.7 86.65 13.45 85.75 13.2 84.8 13.2
L 82.95 13.2 82.95 21.6 84.6 21.6
Q 85.65 21.6 86.6 21.4 87.5 21.2 88.2 20.65 88.85 20.15 89.25 19.35 89.65 18.5 89.65 17.3 89.65 16.25 89.25 15.5 88.85 14.7 88.2 14.2
M 87.15 17.3
Q 87.1560546875 17.8685546875 87 18.25 86.8673828125 18.5126953125 86.65 18.65
L 86.65 18.65
Q 86.3861328125 18.87578125 86.05 18.95 85.756640625 19.0130859375 85.45 19.05
L 85.45 15.75
Q 85.7158203125 15.7794921875 85.95 15.85 86.378125 15.9623046875 86.65 16.15 86.8869140625 16.35390625 87 16.6 87.0396484375 16.6482421875 87.05 16.65 87.1529296875 16.9390625 87.15 17.3 Z"/>

<path fill="#E02727" stroke="none" d="
M 49.55 10.35
L 46.45 10.35 46.45 15.6 40.35 15.6 40.35 10.35 37.25 10.35 37.25 24.5 40.35 24.5 40.35 18.4 46.45 18.4 46.45 24.5 49.55 24.5 49.55 10.35
M 78.1 24.5
L 78.1 21.6 72.35 21.6 72.35 10.35 69.2 10.35 69.2 24.5 78.1 24.5
M 64.8 12
Q 63.8 11 62.4 10.5 61 10 59.3 10 57.65 10 56.25 10.5 54.85 11 53.85 12 52.85 12.95 52.25 14.35 51.7 15.7 51.7 17.4 51.7 19.1 52.25 20.5 52.85 21.9 53.85 22.85 54.85 23.8 56.25 24.35 57.65 24.85 59.3 24.85 61 24.85 62.4 24.35 63.8 23.8 64.8 22.85 65.8 21.9 66.4 20.5 66.95 19.1 66.95 17.4 66.95 15.7 66.4 14.35 65.8 12.95 64.8 12
M 63.4 15.6
Q 63.7 16.45 63.7 17.4 63.7 18.4 63.4 19.25 63.1 20.1 62.5 20.7 61.95 21.3 61.15 21.65 60.3 22 59.3 22 58.3 22 57.5 21.65 56.7 21.3 56.15 20.7 55.55 20.1 55.25 19.25 54.95 18.4 54.95 17.4 54.95 16.45 55.25 15.6 55.55 14.75 56.15 14.15 56.7 13.55 57.5 13.2 58.3 12.85 59.3 12.85 60.3 12.85 61.15 13.2 61.95 13.55 62.5 14.15 63.1 14.75 63.4 15.6
M 90.4 11.95
Q 89.3 11.1 87.75 10.7 86.2 10.35 84.5 10.35
L 79.85 10.35 79.85 24.5 84.95 24.5
Q 86.5 24.5 87.95 24.05 89.4 23.6 90.5 22.7 91.6 21.8 92.25 20.5 92.9 19.2 92.9 17.45 92.9 15.5 92.2 14.15 91.55 12.8 90.4 11.95
M 86.65 13.45
Q 87.55 13.7 88.2 14.2 88.85 14.7 89.25 15.5 89.65 16.25 89.65 17.3 89.65 18.5 89.25 19.35 88.85 20.15 88.2 20.65 87.5 21.2 86.6 21.4 85.65 21.6 84.6 21.6
L 82.95 21.6 82.95 13.2 84.8 13.2
Q 85.75 13.2 86.65 13.45 Z"/>
</g>

<g id="Layer27_0_FILL">
<path fill="#A91818" stroke="none" d="
M 88.65 83.25
Q 99.6 80.6 99.6 76.75 99.6 72.9 88.65 70.2 77.75 67.55 62.35 67.55 46.95 67.55 36 70.2 25.1 72.9 25.1 76.75 25.1 80.6 36 83.25 46.95 85.95 62.35 85.95 77.75 85.95 88.65 83.25
M 62.35 70.35
Q 72.85 70.35 80.25 71.95 87.75 73.5 87.75 75.75 87.75 78 80.25 79.55 72.85 81.1 62.35 81.1 51.8 81.1 44.35 79.55 36.95 78 36.95 75.75 36.95 73.5 44.35 71.95 51.8 70.35 62.35 70.35 Z"/>

<path fill="#E02727" stroke="none" d="
M 75.65 71.85
Q 70.15 70.65 62.35 70.65 54.5 70.65 48.95 71.85 43.45 73 43.45 74.65 43.45 76.35 48.95 77.5 54.5 78.65 62.35 78.65 70.15 78.65 75.65 77.5 81.25 76.35 81.25 74.65 81.25 73 75.65 71.85
M 22.25 11.1
Q 22.25 9.15 21.55 7.8 20.9 6.45 19.75 5.6 18.65 4.75 17.1 4.35 15.55 4 13.85 4
L 9.2 4 9.2 18.15 14.3 18.15
Q 15.85 18.15 17.3 17.7 18.75 17.25 19.85 16.35 20.95 15.45 21.6 14.15 22.25 12.85 22.25 11.1
M 12.3 6.85
L 14.15 6.85
Q 15.1 6.85 16 7.1 16.9 7.35 17.55 7.85 18.2 8.35 18.6 9.15 19 9.9 19 10.95 19 12.15 18.6 13 18.2 13.8 17.55 14.3 16.85 14.85 15.95 15.05 15 15.25 13.95 15.25
L 12.3 15.25 12.3 6.85
M 34.35 4.15
Q 32.95 3.65 31.25 3.65 29.6 3.65 28.2 4.15 26.8 4.65 25.8 5.65 24.8 6.6 24.2 8 23.65 9.35 23.65 11.05 23.65 12.75 24.2 14.15 24.8 15.55 25.8 16.5 26.8 17.45 28.2 18 29.6 18.5 31.25 18.5 32.95 18.5 34.35 18 35.75 17.45 36.75 16.5 37.75 15.55 38.35 14.15 38.9 12.75 38.9 11.05 38.9 9.35 38.35 8 37.75 6.6 36.75 5.65 35.75 4.65 34.35 4.15
M 34.45 7.8
Q 35.05 8.4 35.35 9.25 35.65 10.1 35.65 11.05 35.65 12.05 35.35 12.9 35.05 13.75 34.45 14.35 33.9 14.95 33.1 15.3 32.25 15.65 31.25 15.65 30.25 15.65 29.45 15.3 28.65 14.95 28.1 14.35 27.5 13.75 27.2 12.9 26.9 12.05 26.9 11.05 26.9 10.1 27.2 9.25 27.5 8.4 28.1 7.8 28.65 7.2 29.45 6.85 30.25 6.5 31.25 6.5 32.25 6.5 33.1 6.85 33.9 7.2 34.45 7.8
M 44.15 4
L 41.05 4 41.05 12.7
Q 41.05 13.95 41.45 15 41.8 16.05 42.55 16.85 43.3 17.65 44.4 18.05 45.55 18.5 47 18.5 48.5 18.5 49.6 18.05 50.7 17.65 51.45 16.85 52.2 16.05 52.6 15 53 13.95 53 12.7
L 53 4 49.85 4 49.85 12.55
Q 49.85 13.25 49.65 13.8 49.45 14.35 49.05 14.75 48.7 15.15 48.15 15.4 47.65 15.65 47 15.65 46.4 15.65 45.85 15.4 45.35 15.15 44.95 14.75 44.6 14.35 44.4 13.8 44.15 13.25 44.15 12.55
L 44.15 4
M 72.1 20.5
L 69.5 20.5 63.4 34.65 66.8 34.65 68 31.65 73.5 31.65 74.7 34.65 78.25 34.65 72.1 20.5
M 72.45 29
L 69 29 70.7 24.6 72.45 29
M 77.8 15.25
L 72.05 15.25 72.05 4 68.9 4 68.9 18.15 77.8 18.15 77.8 15.25
M 65.1 23.25
L 65.1 20.5 53.9 20.5 53.9 23.25 57.95 23.25 57.95 34.65 61.05 34.65 61.05 23.25 65.1 23.25
M 64.65 4.65
Q 63.9 4.25 62.95 4.1 62.05 4 61.1 4
L 55.85 4 55.85 18.15 61.65 18.15
Q 62.55 18.15 63.5 17.95 64.45 17.75 65.25 17.3 66 16.85 66.45 16.1 66.95 15.35 66.95 14.2 66.95 13.55 66.75 12.95 66.5 12.35 66.1 11.9 65.7 11.45 65.1 11.15 64.55 10.85 63.85 10.75
L 63.85 10.7
Q 64.95 10.4 65.65 9.6 66.3 8.8 66.3 7.6 66.3 6.45 65.85 5.75 65.4 5.05 64.65 4.65
M 63 7.4
Q 63.2 7.65 63.2 8.1 63.2 8.55 63 8.85 62.85 9.15 62.55 9.3 62.3 9.5 61.95 9.6 61.6 9.65 61.2 9.65
L 58.95 9.65 58.95 6.65 61.1 6.65
Q 61.45 6.65 61.8 6.7 62.2 6.75 62.5 6.95 62.8 7.1 63 7.4
M 61.3 12.3
Q 61.7 12.3 62.15 12.35 62.55 12.4 62.95 12.55 63.35 12.75 63.6 13.05 63.85 13.35 63.85 13.85 63.85 14.3 63.65 14.65 63.45 14.95 63.15 15.15 62.85 15.35 62.5 15.45 62.1 15.5 61.75 15.5
L 58.95 15.5 58.95 12.3 61.3 12.3
M 89.85 22.7
Q 89.4 21.85 88.7 21.4 87.95 20.9 87 20.7 86 20.5 84.9 20.5
L 79.65 20.5 79.65 34.65 82.75 34.65 82.75 29.15 85.05 29.15
Q 86.15 29.15 87.1 28.9 88.1 28.7 88.8 28.2 89.5 27.7 89.9 26.9 90.3 26.05 90.3 24.8 90.3 23.55 89.85 22.7
M 84.35 23.15
Q 84.8 23.15 85.3 23.2 85.75 23.2 86.15 23.4 86.55 23.6 86.8 23.9 87.05 24.25 87.05 24.8 87.05 25.3 86.85 25.65 86.65 25.95 86.35 26.15 86.05 26.35 85.65 26.4 85.25 26.5 84.85 26.5
L 82.75 26.5 82.75 23.15 84.35 23.15
M 88.9 9.5
L 82.8 9.5 82.8 6.85 89.3 6.85 89.3 4 79.65 4 79.65 18.15 89.65 18.15 89.65 15.25 82.8 15.25 82.8 12.4 88.9 12.4 88.9 9.5 Z"/>

<path fill="#FFFFFF" fill-opacity="0.30196078431372547" stroke="none" d="
M 91.4 12.1
L 91.8 4.1
Q 91.8302734375 3.4390625 91.5 2.8 91.17109375 2.21015625 90.55 1.85 89.9822265625 1.4966796875 89.3 1.5
L 79.65 1.5
Q 78.6107421875 1.4962890625 77.85 2.2 77.1462890625 2.9607421875 77.15 4
L 77.15 12.75 74.55 12.75 74.55 4
Q 74.553515625 2.9607421875 73.8 2.2 73.0890625 1.4962890625 72.05 1.5
L 49.85 1.5
Q 48.8107421875 1.4962890625 48.05 2.2 47.3462890625 2.9607421875 47.35 4
L 47.35 12.55
Q 47.349609375 12.77265625 47.3 12.95
L 47.25 12.95
Q 47.2263671875 13.0376953125 47.15 13.1 47.1515625 13.109765625 47.1 13.1 47.074609375 13.1525390625 47 13.15
L 47 13.15
Q 46.9568359375 13.1498046875 46.9 13.15 46.850390625 13.097265625 46.75 13.05 46.766015625 12.9970703125 46.75 12.95 46.715625 12.8673828125 46.65 12.75 46.6494140625 12.673828125 46.65 12.55
L 46.65 4
Q 46.653515625 2.9607421875 45.9 2.2 45.1890625 1.4962890625 44.15 1.5
L 41.05 1.5
Q 40.0107421875 1.4962890625 39.25 2.2 38.573828125 2.9330078125 38.55 3.9 38.5130859375 3.8857421875 38.45 3.85
L 38.5 3.85
Q 37.1416015625 2.487890625 35.2 1.8 33.41640625 1.1521484375 31.25 1.15 29.141015625 1.159765625 27.35 1.8 25.4083984375 2.487890625 24 3.85
L 24.05 3.85
Q 23.4166015625 4.4681640625 22.85 5.2 22.1755859375 4.295703125 21.2 3.6
L 21.25 3.6
Q 19.8052734375 2.466015625 17.7 1.9 17.6845703125 1.9130859375 17.65 1.9 15.8375 1.4962890625 13.85 1.5
L 9.2 1.5
Q 8.1607421875 1.4962890625 7.4 2.2 6.6962890625 2.9607421875 6.7 4
L 6.7 18.15
Q 6.6962890625 19.1890625 7.4 19.9 8.1607421875 20.653515625 9.2 20.65
L 14.3 20.65
Q 16.2373046875 20.6548828125 18.05 20.1 19.9716796875 19.48984375 21.4 18.25 22.2115234375 17.63671875 22.8 16.85 23.3810546875 17.6669921875 24.05 18.3 25.4052734375 19.59609375 27.25 20.3 27.313671875 20.3359375 27.35 20.35 29.13984375 20.9978515625 31.25 21 33.41640625 20.9978515625 35.2 20.35 35.2361328125 20.3359375 35.25 20.3 37.1447265625 19.59609375 38.45 18.3 39.0974609375 17.7345703125 39.6 17 40.0603515625 17.8482421875 40.7 18.55 41.85 19.76484375 43.5 20.35 43.523828125 20.3904296875 43.55 20.4 45.0787109375 20.9984375 47 21 49.05 21.00546875 50.55 20.35
L 50.45 20.4
Q 50.978125 20.206640625 51.45 19.95 51.3990234375 20.2146484375 51.4 20.5
L 51.4 23.25
Q 51.3962890625 24.2890625 52.1 25 52.8607421875 25.753515625 53.9 25.75
L 55.45 25.75 55.45 34.65
Q 55.4462890625 35.6890625 56.15 36.4 56.9107421875 37.153515625 57.95 37.15
L 66.8 37.15
Q 67.5654296875 37.152734375 68.2 36.7 68.8365234375 36.28984375 69.1 35.55
L 69.7 34.15 71.8 34.15 72.35 35.55
Q 72.6634765625 36.28984375 73.3 36.7 73.934375 37.152734375 74.7 37.15
L 78.25 37.15
Q 78.608984375 37.15 78.9 37.05 79.2734375 37.1513671875 79.65 37.15
L 82.75 37.15
Q 83.7890625 37.153515625 84.5 36.4 85.253515625 35.6890625 85.25 34.65
L 85.25 31.65
Q 86.5728515625 31.63046875 87.7 31.3 89.2080078125 30.9994140625 90.25 30.2 91.445703125 29.383203125 92.1 28 92.1359375 27.9962890625 92.15 27.95 92.7939453125 26.69296875 92.8 24.8 92.7953125 22.8458984375 92.05 21.5 91.6455078125 20.759375 91.1 20.15 91.277734375 20.0708984375 91.4 19.9 92.153515625 19.1890625 92.15 18.15
L 92.15 15.25
Q 92.153515625 14.9361328125 92.05 14.6
L 91.4 12.1
M 82.8 9.5
L 88.9 9.5 88.9 12.4 82.8 12.4 82.8 15.25 89.65 15.25 89.65 18.15 79.65 18.15 79.65 4 89.3 4 89.3 6.85 82.8 6.85 82.8 9.5
M 88.7 21.4
Q 89.4 21.85 89.85 22.7 90.3 23.55 90.3 24.8 90.3 26.05 89.9 26.9 89.5 27.7 88.8 28.2 88.1 28.7 87.1 28.9 86.15 29.15 85.05 29.15
L 82.75 29.15 82.75 34.65 79.65 34.65 79.65 20.5 84.9 20.5
Q 86 20.5 87 20.7 87.95 20.9 88.7 21.4
M 62.95 4.1
Q 63.9 4.25 64.65 4.65 65.4 5.05 65.85 5.75 66.3 6.45 66.3 7.6 66.3 8.8 65.65 9.6 64.95 10.4 63.85 10.7
L 63.85 10.75
Q 64.55 10.85 65.1 11.15 65.7 11.45 66.1 11.9 66.5 12.35 66.75 12.95 66.95 13.55 66.95 14.2 66.95 15.35 66.45 16.1 66 16.85 65.25 17.3 64.45 17.75 63.5 17.95 62.55 18.15 61.65 18.15
L 55.85 18.15 55.85 4 61.1 4
Q 62.05 4 62.95 4.1
M 65.1 20.5
L 65.1 23.25 61.05 23.25 61.05 34.65 57.95 34.65 57.95 23.25 53.9 23.25 53.9 20.5 65.1 20.5
M 74.9 20.65
L 77.15 20.65 77.15 25.8 74.9 20.65
M 72.05 15.25
L 77.8 15.25 77.8 18.15 68.9 18.15 68.9 4 72.05 4 72.05 15.25
M 69.5 20.5
L 72.1 20.5 78.25 34.65 74.7 34.65 73.5 31.65 68 31.65 66.8 34.65 63.4 34.65 69.5 20.5
M 41.05 4
L 44.15 4 44.15 12.55
Q 44.15 13.25 44.4 13.8 44.6 14.35 44.95 14.75 45.35 15.15 45.85 15.4 46.4 15.65 47 15.65 47.65 15.65 48.15 15.4 48.7 15.15 49.05 14.75 49.45 14.35 49.65 13.8 49.85 13.25 49.85 12.55
L 49.85 4 53 4 53 12.7
Q 53 13.95 52.6 15 52.2 16.05 51.45 16.85 50.7 17.65 49.6 18.05 48.5 18.5 47 18.5 45.55 18.5 44.4 18.05 43.3 17.65 42.55 16.85 41.8 16.05 41.45 15 41.05 13.95 41.05 12.7
L 41.05 4
M 31.25 3.65
Q 32.95 3.65 34.35 4.15 35.75 4.65 36.75 5.65 37.75 6.6 38.35 8 38.9 9.35 38.9 11.05 38.9 12.75 38.35 14.15 37.75 15.55 36.75 16.5 35.75 17.45 34.35 18 32.95 18.5 31.25 18.5 29.6 18.5 28.2 18 26.8 17.45 25.8 16.5 24.8 15.55 24.2 14.15 23.65 12.75 23.65 11.05 23.65 9.35 24.2 8 24.8 6.6 25.8 5.65 26.8 4.65 28.2 4.15 29.6 3.65 31.25 3.65
M 21.55 7.8
Q 22.25 9.15 22.25 11.1 22.25 12.85 21.6 14.15 20.95 15.45 19.85 16.35 18.75 17.25 17.3 17.7 15.85 18.15 14.3 18.15
L 9.2 18.15 9.2 4 13.85 4
Q 15.55 4 17.1 4.35 18.65 4.75 19.75 5.6 20.9 6.45 21.55 7.8
M 14.15 6.85
L 12.3 6.85 12.3 15.25 13.95 15.25
Q 15 15.25 15.95 15.05 16.85 14.85 17.55 14.3 18.2 13.8 18.6 13 19 12.15 19 10.95 19 9.9 18.6 9.15 18.2 8.35 17.55 7.85 16.9 7.35 16 7.1 15.1 6.85 14.15 6.85
M 16.35 10.25
Q 16.3896484375 10.2982421875 16.4 10.3 16.5029296875 10.5890625 16.5 10.95 16.5060546875 11.5185546875 16.35 11.9 16.2173828125 12.1626953125 16 12.3
L 16 12.3
Q 15.7361328125 12.52578125 15.4 12.6 15.106640625 12.6630859375 14.8 12.7
L 14.8 9.4
Q 15.0658203125 9.4294921875 15.3 9.5 15.728125 9.6123046875 16 9.8 16.2369140625 10.00390625 16.35 10.25
M 35.35 9.25
Q 35.05 8.4 34.45 7.8 33.9 7.2 33.1 6.85 32.25 6.5 31.25 6.5 30.25 6.5 29.45 6.85 28.65 7.2 28.1 7.8 27.5 8.4 27.2 9.25 26.9 10.1 26.9 11.05 26.9 12.05 27.2 12.9 27.5 13.75 28.1 14.35 28.65 14.95 29.45 15.3 30.25 15.65 31.25 15.65 32.25 15.65 33.1 15.3 33.9 14.95 34.45 14.35 35.05 13.75 35.35 12.9 35.65 12.05 35.65 11.05 35.65 10.1 35.35 9.25
M 30.45 9.15
Q 30.8072265625 9.0046875 31.25 9 31.737109375 8.986328125 32.15 9.15
L 32.1 9.15
Q 32.39453125 9.2814453125 32.6 9.5 32.6421875 9.53828125 32.65 9.55 32.8869140625 9.7828125 33 10.05 33.157421875 10.5353515625 33.15 11.05 33.1611328125 11.604296875 33 12.05 32.8869140625 12.3669921875 32.65 12.55 32.6421875 12.61171875 32.6 12.65 32.39453125 12.8685546875 32.1 13
L 32.15 13
Q 31.737109375 13.163671875 31.25 13.15 30.8072265625 13.1451171875 30.45 13 30.15546875 12.8685546875 29.95 12.65 29.9076171875 12.61171875 29.85 12.55 29.662890625 12.3669921875 29.55 12.05 29.3962890625 11.603125 29.4 11.05 29.392578125 10.5353515625 29.55 10.05 29.662890625 9.7828125 29.85 9.55 29.9076171875 9.53828125 29.95 9.5 30.15546875 9.2814453125 30.45 9.15
M 69 29
L 72.45 29 70.7 24.6 69 29
M 62.15 12.35
Q 61.7 12.3 61.3 12.3
L 58.95 12.3 58.95 15.5 61.75 15.5
Q 62.1 15.5 62.5 15.45 62.85 15.35 63.15 15.15 63.45 14.95 63.65 14.65 63.85 14.3 63.85 13.85 63.85 13.35 63.6 13.05 63.35 12.75 62.95 12.55 62.55 12.4 62.15 12.35
M 63.2 8.1
Q 63.2 7.65 63 7.4 62.8 7.1 62.5 6.95 62.2 6.75 61.8 6.7 61.45 6.65 61.1 6.65
L 58.95 6.65 58.95 9.65 61.2 9.65
Q 61.6 9.65 61.95 9.6 62.3 9.5 62.55 9.3 62.85 9.15 63 8.85 63.2 8.55 63.2 8.1
M 85.3 23.2
Q 84.8 23.15 84.35 23.15
L 82.75 23.15 82.75 26.5 84.85 26.5
Q 85.25 26.5 85.65 26.4 86.05 26.35 86.35 26.15 86.65 25.95 86.85 25.65 87.05 25.3 87.05 24.8 87.05 24.25 86.8 23.9 86.55 23.6 86.15 23.4 85.75 23.2 85.3 23.2 Z"/>
</g>

<g id="Layer26_0_FILL">
<path fill="#A91818" stroke="none" d="
M 81.9 80.25
Q 90.05 78.25 90.05 75.4 90.05 72.55 81.9 70.55 73.8 68.55 62.35 68.55 50.9 68.55 42.75 70.55 34.65 72.55 34.65 75.4 34.65 78.25 42.75 80.25 50.9 82.25 62.35 82.25 73.8 82.25 81.9 80.25
M 43.45 74.65
Q 43.45 73 48.95 71.85 54.5 70.65 62.35 70.65 70.15 70.65 75.65 71.85 81.25 73 81.25 74.65 81.25 76.35 75.65 77.5 70.15 78.65 62.35 78.65 54.5 78.65 48.95 77.5 43.45 76.35 43.45 74.65 Z"/>

<path fill="#E02727" stroke="none" d="
M 48.95 71.85
Q 43.45 73 43.45 74.65 43.45 76.35 48.95 77.5 54.5 78.65 62.35 78.65 70.15 78.65 75.65 77.5 81.25 76.35 81.25 74.65 81.25 73 75.65 71.85 70.15 70.65 62.35 70.65 54.5 70.65 48.95 71.85
M 72.1 20.5
L 69.5 20.5 63.4 34.65 66.8 34.65 68 31.65 73.5 31.65 74.7 34.65 78.25 34.65 72.1 20.5
M 72.45 29
L 69 29 70.7 24.6 72.45 29
M 65.1 23.25
L 65.1 20.5 53.9 20.5 53.9 23.25 57.95 23.25 57.95 34.65 61.05 34.65 61.05 23.25 65.1 23.25
M 88.7 21.4
Q 87.95 20.9 87 20.7 86 20.5 84.9 20.5
L 79.65 20.5 79.65 34.65 82.75 34.65 82.75 29.15 85.05 29.15
Q 86.15 29.15 87.1 28.9 88.1 28.7 88.8 28.2 89.5 27.7 89.9 26.9 90.3 26.05 90.3 24.8 90.3 23.55 89.85 22.7 89.4 21.85 88.7 21.4
M 84.35 23.15
Q 84.8 23.15 85.3 23.2 85.75 23.2 86.15 23.4 86.55 23.6 86.8 23.9 87.05 24.25 87.05 24.8 87.05 25.3 86.85 25.65 86.65 25.95 86.35 26.15 86.05 26.35 85.65 26.4 85.25 26.5 84.85 26.5
L 82.75 26.5 82.75 23.15 84.35 23.15 Z"/>

<path fill="#FFFFFF" fill-opacity="0.30196078431372547" stroke="none" d="
M 87.5 18.25
L 87.5 18.25
Q 86.26171875 18.0005859375 84.9 18
L 79.65 18
Q 78.6107421875 17.9962890625 77.85 18.7 77.1462890625 19.4607421875 77.15 20.5
L 77.15 25.8 74.4 19.5
Q 74.100390625 18.8140625 73.45 18.4 72.8462890625 17.9947265625 72.1 18
L 69.5 18
Q 68.7548828125 18.0052734375 68.1 18.4 67.596875 18.7642578125 67.3 19.3 67.136328125 18.9888671875 66.85 18.7 66.1390625 17.9962890625 65.1 18
L 53.9 18
Q 52.8607421875 17.9962890625 52.1 18.7 51.3962890625 19.4607421875 51.4 20.5
L 51.4 23.25
Q 51.3962890625 24.2890625 52.1 25 52.8607421875 25.753515625 53.9 25.75
L 55.45 25.75 55.45 34.65
Q 55.4462890625 35.6890625 56.15 36.4 56.9107421875 37.153515625 57.95 37.15
L 61.05 37.15
Q 61.705078125 37.1521484375 62.25 36.85 62.772265625 37.15 63.4 37.15
L 66.8 37.15
Q 67.5654296875 37.152734375 68.2 36.7 68.8365234375 36.28984375 69.1 35.55
L 69.7 34.15 71.8 34.15 72.35 35.55
Q 72.6634765625 36.28984375 73.3 36.7 73.934375 37.152734375 74.7 37.15
L 78.25 37.15
Q 78.608984375 37.15 78.9 37.05 79.2734375 37.1513671875 79.65 37.15
L 82.75 37.15
Q 83.7890625 37.153515625 84.5 36.4 85.253515625 35.6890625 85.25 34.65
L 85.25 31.65
Q 86.5728515625 31.63046875 87.7 31.3 89.2080078125 30.9994140625 90.25 30.2 91.445703125 29.383203125 92.1 28 92.1359375 27.9962890625 92.15 27.95 92.7939453125 26.69296875 92.8 24.8 92.7953125 22.8458984375 92.05 21.5 91.2751953125 20.05859375 90.05 19.3
L 90.05 19.3
Q 88.9525390625 18.5572265625 87.5 18.25
M 87 20.7
Q 87.95 20.9 88.7 21.4 89.4 21.85 89.85 22.7 90.3 23.55 90.3 24.8 90.3 26.05 89.9 26.9 89.5 27.7 88.8 28.2 88.1 28.7 87.1 28.9 86.15 29.15 85.05 29.15
L 82.75 29.15 82.75 34.65 79.65 34.65 79.65 20.5 84.9 20.5
Q 86 20.5 87 20.7
M 65.1 20.5
L 65.1 23.25 61.05 23.25 61.05 34.65 57.95 34.65 57.95 23.25 53.9 23.25 53.9 20.5 65.1 20.5
M 69.5 20.5
L 72.1 20.5 78.25 34.65 74.7 34.65 73.5 31.65 68 31.65 66.8 34.65 63.4 34.65 69.5 20.5
M 64.5 25.75
L 63.55 27.95 63.55 25.75 64.5 25.75
M 69 29
L 72.45 29 70.7 24.6 69 29
M 85.3 23.2
Q 84.8 23.15 84.35 23.15
L 82.75 23.15 82.75 26.5 84.85 26.5
Q 85.25 26.5 85.65 26.4 86.05 26.35 86.35 26.15 86.65 25.95 86.85 25.65 87.05 25.3 87.05 24.8 87.05 24.25 86.8 23.9 86.55 23.6 86.15 23.4 85.75 23.2 85.3 23.2 Z"/>
</g>
</defs>

<g transform="matrix( 1, 0, 0, 1, 0,0) ">
<use xlink:href="#Layer46_0_FILL"/>
</g>

<g transform="matrix( 0.9999542236328125, 0.00799560546875, -0.00799560546875, 0.9999542236328125, 83.6,56.55) ">
<g transform="matrix( 1, 0, 0, 1, 0,0) ">
<use xlink:href="#Finger_Front_0_Layer1_0_FILL"/>
</g>
</g>

<g transform="matrix( 0.9745941162109375, 0.223876953125, -0.223876953125, 0.9745941162109375, 54.2,54.95) ">
<g transform="matrix( 1, 0, 0, 1, 0,0) ">
<use xlink:href="#Finger_Front_0_Layer1_0_FILL"/>
</g>
</g>

<g transform="matrix( 1, 0, 0, 1, 0,0) ">
<use xlink:href="#Layer45_0_FILL"/>
</g>

<g transform="matrix( 0.9999542236328125, 0.00799560546875, -0.00799560546875, 0.9999542236328125, 49.1,56.55) ">
<g transform="matrix( 1, 0, 0, 1, 0,0) ">
<use xlink:href="#Finger_Front_0_Layer1_0_FILL"/>
</g>
</g>

<g transform="matrix( 0.9745941162109375, 0.223876953125, -0.223876953125, 0.9745941162109375, 19.7,54.95) ">
<g transform="matrix( 1, 0, 0, 1, 0,0) ">
<use xlink:href="#Finger_Front_0_Layer1_0_FILL"/>
</g>
</g>

<g transform="matrix( 1, 0, 0, 1, 0,0) ">
<use xlink:href="#Layer44_0_FILL"/>
</g>

<g transform="matrix( 0.9999542236328125, 0.00799560546875, -0.00799560546875, 0.9999542236328125, 67.9,69.7) ">
<g transform="matrix( 1, 0, 0, 1, 0,0) ">
<use xlink:href="#Finger_Front_0_Layer1_0_FILL"/>
</g>
</g>

<g transform="matrix( 0.9949798583984375, 0.099822998046875, -0.099822998046875, 0.9949798583984375, 38.1,67.1) ">
<g transform="matrix( 1, 0, 0, 1, 0,0) ">
<use xlink:href="#Finger_Front_0_Layer1_0_FILL"/>
</g>
</g>

<g transform="matrix( 1, 0, 0, 1, 0,0) ">
<use xlink:href="#Layer43_0_FILL"/>
</g>

<g transform="matrix( 0.9999542236328125, 0.00799560546875, -0.00799560546875, 0.9999542236328125, 67.9,70.7) ">
<g transform="matrix( 1, 0, 0, 1, 0,0) ">
<use xlink:href="#Finger_Front_0_Layer1_0_FILL"/>
</g>
</g>

<g transform="matrix( 0.9949798583984375, 0.099822998046875, -0.099822998046875, 0.9949798583984375, 38.1,68.1) ">
<g transform="matrix( 1, 0, 0, 1, 0,0) ">
<use xlink:href="#Finger_Front_0_Layer1_0_FILL"/>
</g>
</g>

<g transform="matrix( 1, 0, 0, 1, 0,0) ">
<use xlink:href="#Layer42_0_FILL"/>
</g>

<g transform="matrix( 0.9999542236328125, 0.00799560546875, -0.00799560546875, 0.9999542236328125, 82.3,66.4) ">
<g transform="matrix( 1, 0, 0, 1, 0,0) ">
<use xlink:href="#Finger_Front_0_Layer1_0_FILL"/>
</g>
</g>

<g transform="matrix( 0.93524169921875, 0.3539276123046875, -0.3539276123046875, 0.93524169921875, 25.25,57.85) ">
<g transform="matrix( 1, 0, 0, 1, 0,0) ">
<use xlink:href="#Finger_Front_0_Layer1_0_FILL"/>
</g>
</g>

<g transform="matrix( 1, 0, 0, 1, 0,0) ">
<use xlink:href="#Layer41_0_FILL"/>
</g>

<g transform="matrix( 0.9869232177734375, -0.1611328125, 0.1611328125, 0.9869232177734375, 48.1,80.2) ">
<g transform="matrix( 1, 0, 0, 1, 0,0) ">
<use xlink:href="#Finger_Front_0_Layer1_0_FILL"/>
</g>
</g>

<g transform="matrix( 1, 0, 0, 1, 0,0) ">
<use xlink:href="#Layer40_0_FILL"/>
</g>

<g transform="matrix( 0.9869232177734375, -0.1611328125, 0.1611328125, 0.9869232177734375, 40.25,88.75) ">
<g transform="matrix( 1, 0, 0, 1, 0,0) ">
<use xlink:href="#Finger_Front_0_Layer1_0_FILL"/>
</g>
</g>

<g transform="matrix( 1, 0, 0, 1, 0,0) ">
<use xlink:href="#Layer39_0_FILL"/>
</g>

<g transform="matrix( 0.9869232177734375, -0.1611328125, 0.1611328125, 0.9869232177734375, 55.35,92.7) ">
<g transform="matrix( 1, 0, 0, 1, 0,0) ">
<use xlink:href="#Finger_Front_0_Layer1_0_FILL"/>
</g>
</g>

<g transform="matrix( 1, 0, 0, 1, 0,0) ">
<use xlink:href="#Layer38_0_FILL"/>
</g>

<g transform="matrix( -0.5884552001953125, -0.8085174560546875, 0.8085174560546875, -0.5884552001953125, 5.45,69.15) ">
<g transform="matrix( 1, 0, 0, 1, 0,0) ">
<use xlink:href="#FingerSide_0_Layer0_0_FILL"/>
</g>
</g>

<g transform="matrix( 0.9869232177734375, -0.1611328125, 0.1611328125, 0.9869232177734375, 100.8,39.3) ">
<g transform="matrix( 1, 0, 0, 1, 0,0) ">
<use xlink:href="#Finger_Front_0_Layer1_0_FILL"/>
</g>
</g>

<g transform="matrix( 1, 0, 0, 1, 0,0) ">
<use xlink:href="#Layer37_0_FILL"/>
</g>

<g transform="matrix( 0.8503265380859375, -0.526214599609375, 0.526214599609375, 0.8503265380859375, 76.55,61.9) ">
<g transform="matrix( 1, 0, 0, 1, 0,0) ">
<use xlink:href="#Finger_Front_0_Layer1_0_FILL"/>
</g>
</g>

<g transform="matrix( 0.9994964599609375, -0.0305938720703125, 0.0305938720703125, 0.9994964599609375, 36.8,72.95) ">
<g transform="matrix( 1, 0, 0, 1, 0,0) ">
<use xlink:href="#Finger_Front_0_Layer1_0_FILL"/>
</g>
</g>

<g transform="matrix( 1, 0, 0, 1, 0,0) ">
<use xlink:href="#Layer36_0_FILL"/>
</g>

<g transform="matrix( 0.6198272705078125, -0.78472900390625, 0.78472900390625, 0.6198272705078125, 63.15,36.15) ">
<g transform="matrix( 1, 0, 0, 1, 0,0) ">
<use xlink:href="#Finger_Front_0_Layer1_0_FILL"/>
</g>
</g>

<g transform="matrix( 1, 0, 0, 1, 0,0) ">
<use xlink:href="#Layer35_0_FILL"/>
</g>

<g transform="matrix( 0.85760498046875, -0.5142974853515625, 0.5142974853515625, 0.85760498046875, 59.8,57.8) ">
<g transform="matrix( 1, 0, 0, 1, 0,0) ">
<use xlink:href="#Finger_Front_0_Layer1_0_FILL"/>
</g>
</g>

<g transform="matrix( 1, 0, 0, 1, 0,0) ">
<use xlink:href="#Layer34_0_FILL"/>
</g>

<g transform="matrix( 0.9931640625, -0.1167144775390625, 0.1167144775390625, 0.9931640625, 67.4,63.4) ">
<g transform="matrix( 1, 0, 0, 1, 0,0) ">
<use xlink:href="#Finger_Front_0_Layer1_0_FILL"/>
</g>
</g>

<g transform="matrix( 1, 0, 0, 1, 0,0) ">
<use xlink:href="#Layer33_0_FILL"/>
</g>

<g transform="matrix( 0.9659271240234375, 0.2588043212890625, -0.2588043212890625, 0.9659271240234375, 49.85,64.15) ">
<g transform="matrix( 1, 0, 0, 1, 0,0) ">
<use xlink:href="#Finger_Front_0_Layer1_0_FILL"/>
</g>
</g>

<g transform="matrix( 1, 0, 0, 1, 0,0) ">
<use xlink:href="#Layer32_0_FILL"/>
</g>

<g transform="matrix( 0.591339111328125, -0.8064117431640625, 0.8064117431640625, 0.591339111328125, 59.8,66.25) ">
<g transform="matrix( 1, 0, 0, 1, 0,0) ">
<use xlink:href="#Finger_Front_0_Layer1_0_FILL"/>
</g>
</g>

<g transform="matrix( 1, 0, 0, 1, 0,0) ">
<use xlink:href="#Layer31_0_FILL"/>
</g>

<g transform="matrix( 0.945556640625, -0.3254547119140625, 0.3254547119140625, 0.945556640625, 47.75,63.35) ">
<g transform="matrix( 1, 0, 0, 1, 0,0) ">
<use xlink:href="#Finger_Front_0_Layer1_0_FILL"/>
</g>
</g>

<g transform="matrix( 1, 0, 0, 1, 0,0) ">
<use xlink:href="#Layer30_0_FILL"/>
</g>

<g transform="matrix( 0.9946136474609375, 0.1036376953125, -0.1036376953125, 0.9946136474609375, 32.25,57.9) ">
<g transform="matrix( 1, 0, 0, 1, 0,0) ">
<use xlink:href="#Finger_Front_0_Layer1_0_FILL"/>
</g>
</g>

<g transform="matrix( 1, 0, 0, 1, 0,0) ">
<use xlink:href="#Layer29_0_FILL"/>
</g>

<g transform="matrix( 0.9206390380859375, 0.3904266357421875, -0.3904266357421875, 0.9206390380859375, 39.65,61.6) ">
<g transform="matrix( 1, 0, 0, 1, 0,0) ">
<use xlink:href="#Finger_Front_0_Layer1_0_FILL"/>
</g>
</g>

<g transform="matrix( 1, 0, 0, 1, 0,0) ">
<use xlink:href="#Layer28_0_FILL"/>
</g>

<g transform="matrix( 0.86602783203125, 0.4999847412109375, -0.4999847412109375, 0.86602783203125, 43.7,53.6) ">
<g transform="matrix( 1, 0, 0, 1, 0,0) ">
<use xlink:href="#FingerSide_0_Layer0_0_FILL"/>
</g>
</g>

<g transform="matrix( 1, 0, 0, 1, 0,0) ">
<use xlink:href="#Layer27_0_FILL"/>
</g>

<g transform="matrix( 0.86602783203125, 0.4999847412109375, -0.4999847412109375, 0.86602783203125, 43.7,53.6) ">
<g transform="matrix( 1, 0, 0, 1, 0,0) ">
<use xlink:href="#FingerSide_0_Layer0_0_FILL"/>
</g>
</g>

<g transform="matrix( 1, 0, 0, 1, 0,0) ">
<use xlink:href="#Layer26_0_FILL"/>
</g>

<g transform="matrix( 0.86602783203125, 0.4999847412109375, -0.4999847412109375, 0.86602783203125, 43.7,53.6) ">
<g transform="matrix( 1, 0, 0, 1, 0,0) ">
<use xlink:href="#FingerSide_0_Layer0_0_FILL"/>
</g>
</g>

<g transform="matrix( 1, 0, 0, 1, 53.05,53.35) ">
<g transform="matrix( 1, 0, 0, 1, 0,0) ">
<use xlink:href="#FingerSide_0_Layer0_0_FILL"/>
</g>
</g>

<g transform="matrix( 1, 0, 0, 1, 50,50) ">
<g transform="matrix( 1, 0, 0, 1, 0,0) ">
<use xlink:href="#Finger_Front_0_Layer1_0_FILL"/>
</g>
</g>
</svg>
