
<svg xmlns="http://www.w3.org/2000/svg" version="1.1" xmlns:xlink="http://www.w3.org/1999/xlink" preserveAspectRatio="none" x="0px" y="0px" width="100px" height="100px" viewBox="0 0 100 100">
<defs>
<linearGradient id="Gradient_1" gradientUnits="userSpaceOnUse" x1="65.925" y1="60.15" x2="23.575" y2="52.85" spreadMethod="pad">
<stop  offset="0%" stop-color="#FFFFFF" stop-opacity="0"/>

<stop  offset="100%" stop-color="#FFFFFF"/>
</linearGradient>

<linearGradient id="Gradient_2" gradientUnits="userSpaceOnUse" x1="34.075" y1="60.15" x2="76.425" y2="52.85" spreadMethod="pad">
<stop  offset="0%" stop-color="#FFFFFF" stop-opacity="0"/>

<stop  offset="100%" stop-color="#FFFFFF"/>
</linearGradient>

<g id="Layer37_0_FILL">
<path fill="#FFFFFF" stroke="none" d="
M 71.9 29.95
Q 71.85 21.05 65.5 14.7 59.1 8.3 50 8.3 40.95 8.3 34.55 14.7 28.5 20.7 28.15 29.05
L 28.15 71
Q 28.6 79.3 34.55 85.25 40.95 91.7 50 91.7 59.1 91.7 65.5 85.25 71.7 79.05 71.9 70.3 71.9 70.05 71.9 69.8
L 71.9 29.95
M 68.45 31.8
Q 68.45 39.4 63.05 44.85 57.6 50.3 49.95 50.3 42.25 50.3 36.8 44.85 31.45 39.4 31.45 31.8 31.45 24.1 36.8 18.7 42.25 13.25 49.95 13.25 57.6 13.25 63.05 18.7 68.45 24.1 68.45 31.8
M 40.75 67.7
Q 40.75 65.4 42.4 63.75 44.05 62.1 46.4 62.1
L 53.65 62.1
Q 56 62.1 57.6 63.75 59.25 65.4 59.25 67.7 59.25 70.05 57.6 71.7 55.95 73.35 53.65 73.35
L 46.4 73.35
Q 44.05 73.35 42.4 71.7 40.75 70.05 40.75 67.7
M 45 66.3
Q 44.4 66.9 44.4 67.7 44.4 68.55 45 69.15
L 44.95 69.15
Q 45.55 69.7 46.4 69.7
L 53.65 69.7
Q 54.45 69.7 55.05 69.15 55.6 68.55 55.6 67.7 55.6 66.9 55.05 66.3 54.45 65.75 53.65 65.75
L 46.4 65.75
Q 45.55 65.75 44.95 66.3
L 45 66.3
M 59.95 21.8
Q 55.8 17.65 49.95 17.65 44.05 17.65 39.9 21.8 35.85 25.95 35.85 31.8 35.85 37.7 39.9 41.8 44.05 45.9 49.95 45.9 55.8 45.9 59.95 41.8 64.05 37.7 64.05 31.8 64.05 25.95 59.95 21.8 Z"/>
</g>

<g id="Layer36_0_FILL">
<path fill="#2E2E2E" stroke="none" d="
M 84.9 67.35
Q 92.15 60.15 92.15 50 92.15 39.8 84.9 32.55 77.7 25.35 67.5 25.35
L 32.5 25.35
Q 22.25 25.35 15.05 32.55 7.9 39.8 7.9 50 7.9 60.15 15.05 67.35 22.25 74.6 32.5 74.6
L 67.5 74.6
Q 77.7 74.6 84.9 67.35
M 67.5 37.9
Q 72.5 37.9 76 41.45 79.55 45 79.55 50 79.55 55 76 58.55 72.5 62.1 67.5 62.1
L 32.5 62.1
Q 27.45 62.1 23.9 58.55 20.4 55 20.4 50 20.4 45 23.9 41.45 27.45 37.9 32.5 37.9
L 67.5 37.9 Z"/>

<path fill="#3B3B3B" stroke="none" d="
M 76 41.45
Q 72.5 37.9 67.5 37.9
L 32.5 37.9
Q 27.45 37.9 23.9 41.45 20.4 45 20.4 50 20.4 55 23.9 58.55 27.45 62.1 32.5 62.1
L 67.5 62.1
Q 72.5 62.1 76 58.55 79.55 55 79.55 50 79.55 45 76 41.45 Z"/>
</g>

<g id="Layer35_0_FILL">
<path fill="#2E2E2E" stroke="none" d="
M 83.45 50
Q 83.45 46.2265625 82.7 42.75 81.2958984375 35.928515625 77.05 30.25 75.541015625 28.2005859375 73.65 26.3 63.85 16.55 50 16.55 36.15 16.55 26.3 26.3 16.5 36.15 16.5 50 16.5 63.9 26.3 73.7 36.15 83.5 50 83.5 63.85 83.5 73.65 73.7 83.45 63.9 83.45 50
M 56.35 47.15
Q 56.15 47.15 56 47.15
L 39.15 47.15 41.05 49.05
Q 41.9 49.9 41.9 51.15 41.9 52.4 41.05 53.3 40.15 54.15 38.9 54.15 37.65 54.15 36.8 53.3
L 29.8 46.3
Q 28.9 45.4 28.9 44.15 28.9 42.9 29.8 42.05
L 36.8 35.05
Q 37.65 34.15 38.9 34.15 40.15 34.15 41.05 35.05 41.9 35.9 41.9 37.15 41.9 38.4 41.05 39.3
L 39.15 41.15 56 41.15
Q 56.15 41.15 56.35 41.15 61.55 41.15 65.25 44.85 68.9 48.5 68.9 53.75 68.9 58.95 65.25 62.65 61.55 66.3 56.35 66.3 56.15 66.3 56 66.3
L 51.25 66.3
Q 50 66.3 49.15 65.45 48.25 64.55 48.25 63.3 48.25 62.05 49.15 61.2 50 60.3 51.25 60.3
L 56 60.3
Q 56.15 60.3 56.35 60.3 59.05 60.3 61 58.4 62.9 56.45 62.9 53.75 62.9 51 61 49.1 59.05 47.15 56.35 47.15 Z"/>

<path fill="#000000" stroke="none" d="
M 56 47.15
Q 56.15 47.15 56.35 47.15 59.05 47.15 61 49.1 62.9 51 62.9 53.75 62.9 56.45 61 58.4 59.05 60.3 56.35 60.3 56.15 60.3 56 60.3
L 51.25 60.3
Q 50 60.3 49.15 61.2 48.25 62.05 48.25 63.3 48.25 64.55 49.15 65.45 50 66.3 51.25 66.3
L 56 66.3
Q 56.15 66.3 56.35 66.3 61.55 66.3 65.25 62.65 68.9 58.95 68.9 53.75 68.9 48.5 65.25 44.85 61.55 41.15 56.35 41.15 56.15 41.15 56 41.15
L 39.15 41.15 41.05 39.3
Q 41.9 38.4 41.9 37.15 41.9 35.9 41.05 35.05 40.15 34.15 38.9 34.15 37.65 34.15 36.8 35.05
L 29.8 42.05
Q 28.9 42.9 28.9 44.15 28.9 45.4 29.8 46.3
L 36.8 53.3
Q 37.65 54.15 38.9 54.15 40.15 54.15 41.05 53.3 41.9 52.4 41.9 51.15 41.9 49.9 41.05 49.05
L 39.15 47.15 56 47.15 Z"/>
</g>

<g id="Layer34_0_FILL">
<path fill="#2E2E2E" stroke="none" d="
M 84.65 60.65
L 84.65 39.4 60.6 39.4 60.6 15.4 39.35 15.4 39.35 39.4 15.4 39.4 15.4 60.65 39.35 60.65 39.35 84.65 60.6 84.65 60.6 60.65 84.65 60.65 Z"/>
</g>

<g id="Layer33_0_FILL">
<path fill="#2E2E2E" stroke="none" d="
M 84.65 60.65
L 84.65 39.4 15.4 39.4 15.4 60.65 84.65 60.65 Z"/>
</g>

<g id="Layer32_0_FILL">
<path fill="#1B1B1B" stroke="none" d="
M 83.05 83.1
Q 96.75 69.4 96.75 50 96.75 30.6 83.05 16.95 69.4 3.25 50 3.25 30.6 3.25 16.9 16.95 3.25 30.6 3.25 50 3.25 69.4 16.9 83.1 30.6 96.75 50 96.75 69.4 96.75 83.05 83.1
M 50 7
Q 67.8 7 80.4 19.6 93 32.2 93 50 93 67.8 80.4 80.45 67.8 93 50 93 32.2 93 19.55 80.45 7 67.8 7 50 7 32.2 19.55 19.6 32.2 7 50 7
M 70 48.95
L 73.75 48.9
Q 73.4 39.8 66.8 33.2 59.85 26.2 50 26.2 40.1 26.2 33.1 33.2 26.2 40.2 26.2 50 26.2 59.85 33.1 66.85
L 33.15 66.9
Q 40.15 73.8 50 73.8 59.8 73.8 66.8 66.9 72.05 61.65 73.35 54.85
L 70 48.95
M 50 30
Q 58.25 30 64.1 35.9 70 41.75 70 50 70 58.3 64.1 64.2 58.25 69.95 50 69.95 41.75 69.95 35.85 64.2
L 35.8 64.15
Q 30.05 58.25 30.05 50 30.05 41.75 35.8 35.9 41.7 30 50 30 Z"/>

<path fill="#3B3B3B" stroke="none" d="
M 80.4 19.6
Q 67.8 7 50 7 32.2 7 19.55 19.6 7 32.2 7 50 7 67.8 19.55 80.45 32.2 93 50 93 67.8 93 80.4 80.45 93 67.8 93 50 93 32.2 80.4 19.6
M 88.65 48.8
Q 90.35 48.75 92 48.7
L 88.4 55.25
Q 86.8 68 77.25 77.55
L 77.3 77.55
Q 66.3 88.4 50.85 88.75 50.4 88.75 49.9 88.75 33.9 88.75 22.45 77.55 18.8 73.8 16.35 69.6 11.25 60.9 11.25 50.1 11.25 34 22.45 22.7
L 22.45 22.75
Q 33.9 11.3 49.9 11.3 65.95 11.3 77.25 22.7
L 77.3 22.75
Q 88.25 33.55 88.65 48.8
M 64.1 35.9
Q 58.25 30 50 30 41.7 30 35.8 35.9 30.05 41.75 30.05 50 30.05 58.25 35.8 64.15
L 35.85 64.2
Q 41.75 69.95 50 69.95 58.25 69.95 64.1 64.2 70 58.3 70 50 70 41.75 64.1 35.9
M 61.25 38.7
L 61.3 38.75
Q 66 43.4 66 50 66 56.6 61.25 61.35
L 61.3 61.35
Q 56.65 65.95 50 65.95 43.4 65.95 38.65 61.35 34.05 56.6 34.05 50 34.05 43.35 38.65 38.7
L 38.65 38.75
Q 43.4 34 50 34 56.6 34 61.25 38.7 Z"/>

<path fill="#2E2E2E" stroke="none" d="
M 61.3 38.75
L 61.25 38.7
Q 56.6 34 50 34 43.4 34 38.65 38.75
L 38.65 38.7
Q 34.05 43.35 34.05 50 34.05 56.6 38.65 61.35 43.4 65.95 50 65.95 56.65 65.95 61.3 61.35
L 61.25 61.35
Q 66 56.6 66 50 66 43.4 61.3 38.75
M 81.05 48.85
L 82.6 48.85
Q 82.9 48.85 83.2 48.85 83.55 48.85 83.85 48.85 86.25 48.8 88.65 48.8 88.25 33.55 77.3 22.75
L 77.25 22.7
Q 65.95 11.3 49.9 11.3 33.9 11.3 22.45 22.75
L 22.45 22.7
Q 11.25 34 11.25 50.1 11.25 60.9 16.35 69.6 18.8 73.8 22.45 77.55 33.9 88.75 49.9 88.75 50.4 88.75 50.85 88.75 66.3 88.4 77.3 77.55
L 77.25 77.55
Q 86.8 68 88.4 55.25
L 81.1 68.4 73.35 54.85
Q 72.05 61.65 66.8 66.9 59.8 73.8 50 73.8 40.15 73.8 33.15 66.9
L 33.1 66.85
Q 26.2 59.85 26.2 50 26.2 40.2 33.1 33.2 40.1 26.2 50 26.2 59.85 26.2 66.8 33.2 73.4 39.8 73.75 48.9
L 78.75 48.85
Q 79 48.85 79.3 48.85
L 81.05 48.85
Q 80.7 36.6 71.95 27.8 62.7 18.6 49.75 18.6 36.75 18.6 27.6 27.8 18.35 37 18.35 50 18.35 52.3 18.65 54.5 19.25 58.95 21.05 62.9 23.35 67.9 27.6 72.15 36.75 81.35 49.75 81.35 51.9 81.35 53.85 81.1 59 80.5 63.5 78.3 59 80.5 53.85 81.1 51.9 81.35 49.75 81.35 36.75 81.35 27.6 72.15 23.35 67.9 21.05 62.9 19.25 58.95 18.65 54.5 18.35 52.3 18.35 50 18.35 37 27.6 27.8 36.75 18.6 49.75 18.6 62.7 18.6 71.95 27.8 80.7 36.6 81.05 48.85 Z"/>

<path fill="#FFFFFF" stroke="none" d="
M 92 48.7
Q 90.35 48.75 88.65 48.8 86.25 48.8 83.85 48.85 83.55 48.85 83.2 48.85 82.9 48.85 82.6 48.85
L 81.05 48.85 79.3 48.85
Q 79 48.85 78.75 48.85
L 73.75 48.9 70 48.95 73.35 54.85 81.1 68.4 88.4 55.25 92 48.7 Z"/>
</g>

<g id="Layer31_0_FILL">
<path fill="#1B1B1B" stroke="none" d="
M 83.05 83.05
Q 96.7525390625 69.3900390625 96.75 50 96.7525390625 30.609765625 83.05 16.9 69.3900390625 3.247265625 50 3.25 30.609765625 3.247265625 16.9 16.9 3.247265625 30.609765625 3.25 50 3.247265625 69.3900390625 16.9 83.05 30.609765625 96.7525390625 50 96.75 69.3900390625 96.7525390625 83.05 83.05
M 50 7
Q 67.8 7 80.45 19.6 93 32.2 93 50 93 67.8 80.45 80.45 67.8 93 50 93 32.2 93 19.6 80.45 7 67.8 7 50 7 32.2 19.6 19.6 32.2 7 50 7
M 66.85 33.2
L 66.85 33.15
Q 59.8837890625 26.19453125 50 26.2 40.1677734375 26.1927734375 33.15 33.15 26.583984375 39.7759765625 26.2 48.9
L 30 48.95 26.65 54.8
Q 27.9646484375 61.656640625 33.15 66.85
L 33.2 66.85
Q 40.1810546875 73.8029296875 50 73.8 59.870703125 73.8013671875 66.85 66.85
L 66.85 66.85
Q 73.8013671875 59.870703125 73.8 50 73.8029296875 40.1810546875 66.85 33.2
M 64.15 35.85
L 64.15 35.9
Q 69.949609375 41.728515625 69.95 50 69.9474609375 58.26796875 64.15 64.15
L 64.15 64.15
Q 58.26796875 69.9474609375 50 69.95 41.728515625 69.949609375 35.9 64.15
L 35.85 64.15
Q 29.992578125 58.2818359375 30 50 30.003515625 41.73203125 35.85 35.9
L 35.9 35.85
Q 41.73203125 30.003515625 50 30 58.2818359375 29.992578125 64.15 35.85 Z"/>

<path fill="#3B3B3B" stroke="none" d="
M 80.45 19.6
Q 67.8 7 50 7 32.2 7 19.6 19.6 7 32.2 7 50 7 67.8 19.6 80.45 32.2 93 50 93 67.8 93 80.45 80.45 93 67.8 93 50 93 32.2 80.45 19.6
M 88.75 50.1
Q 88.7505859375 60.8947265625 83.65 69.6 81.2009765625 73.805859375 77.55 77.5
L 77.5 77.55
Q 66.114453125 88.7509765625 50.1 88.75 49.6150390625 88.75 49.1 88.75 33.6802734375 88.411328125 22.7 77.5
L 22.7 77.5
Q 13.1763671875 67.9853515625 11.6 55.2
L 8 48.7
Q 9.6638671875 48.740625 11.3 48.75 11.769921875 33.5654296875 22.7 22.7
L 22.7 22.7
Q 34.035546875 11.2958984375 50.1 11.3 66.1181640625 11.307421875 77.5 22.7
L 77.5 22.7
Q 88.75 34.021875 88.75 50.1
M 64.15 35.9
L 64.15 35.85
Q 58.2818359375 29.992578125 50 30 41.73203125 30.003515625 35.9 35.85
L 35.85 35.9
Q 30.003515625 41.73203125 30 50 29.992578125 58.2818359375 35.85 64.15
L 35.9 64.15
Q 41.728515625 69.949609375 50 69.95 58.26796875 69.9474609375 64.15 64.15
L 64.15 64.15
Q 69.9474609375 58.26796875 69.95 50 69.949609375 41.728515625 64.15 35.9
M 61.3 38.7
L 61.3 38.7
Q 65.949609375 43.3708984375 65.95 50 65.9521484375 56.6142578125 61.35 61.3
L 61.3 61.35
Q 56.6142578125 65.9521484375 50 65.95 43.371484375 65.9501953125 38.7 61.3
L 38.7 61.3
Q 34.0072265625 56.61796875 34 50 33.996484375 43.385546875 38.7 38.7
L 38.7 38.7
Q 43.385546875 33.996484375 50 34 56.61796875 34.0072265625 61.3 38.7 Z"/>

<path fill="#FFFFFF" stroke="none" d="
M 11.3 48.75
Q 9.6638671875 48.740625 8 48.7
L 11.6 55.2 18.9 68.4 26.65 54.8 30 48.95 26.2 48.9 21.25 48.85
Q 21 48.85 20.7 48.85
L 18.9 48.85 17.4 48.85
Q 17.1 48.85 16.8 48.85 16.45 48.85 16.15 48.85 13.7435546875 48.8203125 11.3 48.75 Z"/>

<path fill="#2E2E2E" stroke="none" d="
M 61.3 38.7
L 61.3 38.7
Q 56.61796875 34.0072265625 50 34 43.385546875 33.996484375 38.7 38.7
L 38.7 38.7
Q 33.996484375 43.385546875 34 50 34.0072265625 56.61796875 38.7 61.3
L 38.7 61.3
Q 43.371484375 65.9501953125 50 65.95 56.6142578125 65.9521484375 61.3 61.35
L 61.35 61.3
Q 65.9521484375 56.6142578125 65.95 50 65.949609375 43.3708984375 61.3 38.7
M 81.65 50
Q 81.65 52.3 81.35 54.5 80.75 58.95 78.95 62.9 76.65 67.9 72.4 72.15 63.25 81.35 50.25 81.35 48.1 81.35 46.15 81.1 41 80.5 36.5 78.3 41 80.5 46.15 81.1 48.1 81.35 50.25 81.35 63.25 81.35 72.4 72.15 76.65 67.9 78.95 62.9 80.75 58.95 81.35 54.5 81.65 52.3 81.65 50 81.65 37 72.4 27.8 63.25 18.6 50.25 18.6 37.3 18.6 28.05 27.8 19.3072265625 36.5904296875 18.9 48.85
L 20.7 48.85
Q 21 48.85 21.25 48.85
L 26.2 48.9
Q 26.583984375 39.7759765625 33.15 33.15 40.1677734375 26.1927734375 50 26.2 59.8837890625 26.19453125 66.85 33.15
L 66.85 33.2
Q 73.8029296875 40.1810546875 73.8 50 73.8013671875 59.870703125 66.85 66.85
L 66.85 66.85
Q 59.870703125 73.8013671875 50 73.8 40.1810546875 73.8029296875 33.2 66.85
L 33.15 66.85
Q 27.9646484375 61.656640625 26.65 54.8
L 18.9 68.4 11.6 55.2
Q 13.1763671875 67.9853515625 22.7 77.5
L 22.7 77.5
Q 33.6802734375 88.411328125 49.1 88.75 49.6150390625 88.75 50.1 88.75 66.114453125 88.7509765625 77.5 77.55
L 77.55 77.5
Q 81.2009765625 73.805859375 83.65 69.6 88.7505859375 60.8947265625 88.75 50.1 88.75 34.021875 77.5 22.7
L 77.5 22.7
Q 66.1181640625 11.307421875 50.1 11.3 34.035546875 11.2958984375 22.7 22.7
L 22.7 22.7
Q 11.769921875 33.5654296875 11.3 48.75 13.7435546875 48.8203125 16.15 48.85 16.45 48.85 16.8 48.85 17.1 48.85 17.4 48.85
L 18.9 48.85
Q 19.3072265625 36.5904296875 28.05 27.8 37.3 18.6 50.25 18.6 63.25 18.6 72.4 27.8 81.65 37 81.65 50 Z"/>
</g>

<g id="Layer30_0_FILL">
<path fill="#D7D7D7" stroke="none" d="
M 33.5 32.8
Q 33.35 32.7 33.25 32.55 32.8 32.1 32.35 31.65 27.2 26.45 20.6 24.75 20.25 25.15 19.95 25.5 11.3 36 11.3 49.9 11.3 64 20.1 74.4 20.4 74.8 20.75 75.15 27.25 73.5 32.35 68.4 32.85 67.9 33.35 67.35 33.45 67.25 33.55 67.15 33.35 67 33.2 66.8 26.2 59.85 26.2 50 26.2 40.1 33.2 33.1 33.35 32.95 33.5 32.8 Z"/>

<path fill="#F5F5F5" stroke="none" d="
M 16.7 24.1
Q 16.15 24.05 15.65 24 15.35 24.4 15.1 24.75 7 35.7 7 50 7 64.3 15.1 75.25 15.35 75.6 15.65 75.95 16.15 75.9 16.7 75.85 17.35 75.8 18.05 75.7 19.2 75.55 20.35 75.25 20.55 75.2 20.75 75.15 20.4 74.8 20.1 74.4 11.3 64 11.3 49.9 11.3 36 19.95 25.5 20.25 25.15 20.6 24.75 20.4 24.7 20.2 24.65 19.05 24.4 17.9 24.25 17.3 24.15 16.7 24.1 Z"/>

<path fill="#FFFFFF" stroke="none" d="
M 10.95 24.1
L 10.9 24.2
Q 3.25 35.5 3.25 50 3.25 64.5 10.9 75.75
L 10.9 75.8
Q 12.2 76 13.6 76 13.8 76 14 76 14.8 76 15.65 75.95 15.35 75.6 15.1 75.25 7 64.3 7 50 7 35.7 15.1 24.75 15.35 24.4 15.65 24 14.8 24 14 24 13.8 24 13.6 24 12.25 24 10.95 24.1 Z"/>

<path fill="#1B1B1B" stroke="none" d="
M 66.9 33.15
L 66.85 33.1
Q 59.85 26.2 50 26.2 40.55 26.2 33.75 32.55 33.7 32.6 33.7 32.65
L 33.65 32.65
Q 33.55 32.75 33.5 32.8 33.35 32.95 33.2 33.1 26.2 40.1 26.2 50 26.2 59.85 33.2 66.8 33.35 67 33.55 67.15 33.65 67.25 33.75 67.3 33.75 67.35 33.85 67.35 40.6 73.8 50 73.8 59.9 73.8 66.9 66.8 73.8 59.8 73.8 50 73.8 40.15 66.9 33.15
M 64.15 35.8
L 64.2 35.85
Q 69.95 41.75 69.95 50 69.95 58.25 64.2 64.1 58.3 70 50 70 41.95 70 36.2 64.4 36.15 64.35 36.1 64.3 35.95 64.2 35.9 64.1 35.7 63.95 35.6 63.75 30 58.05 30 50 30 41.8 35.85 35.9
L 35.85 35.85 35.9 35.8
Q 36.05 35.7 36.15 35.55 41.9 30.05 50 30.05 58.25 30.05 64.15 35.8
M 83.1 83.05
Q 96.75 69.4 96.75 50 96.75 30.6 83.1 16.9 69.4 3.25 50 3.25 30.6 3.25 16.95 16.9 14.25 19.6 12.1 22.5 11.5 23.3 10.95 24.1 12.25 24 13.6 24 13.8 24 14 24 14.8 24 15.65 24 15.9 23.7 16.2 23.35 17.75 21.4 19.6 19.55 32.2 7 50 7 67.8 7 80.45 19.55 93 32.2 93 50 93 67.8 80.45 80.4 67.8 93 50 93 32.2 93 19.6 80.4 17.75 78.6 16.2 76.65 15.9 76.3 15.65 75.95 14.8 76 14 76 13.8 76 13.6 76 12.2 76 10.9 75.8 11.5 76.65 12.1 77.5 14.25 80.4 16.95 83.05 30.6 96.75 50 96.75 69.4 96.75 83.1 83.05 Z"/>

<path fill="#3B3B3B" stroke="none" d="
M 64.2 35.85
L 64.15 35.8
Q 58.25 30.05 50 30.05 41.9 30.05 36.15 35.55 36.05 35.7 35.9 35.8
L 35.85 35.85 35.85 35.9
Q 30 41.8 30 50 30 58.05 35.6 63.75 35.7 63.95 35.9 64.1 35.95 64.2 36.1 64.3 36.15 64.35 36.2 64.4 41.95 70 50 70 58.3 70 64.2 64.1 69.95 58.25 69.95 50 69.95 41.75 64.2 35.85
M 50 34.05
Q 56.6 34.05 61.35 38.65 65.95 43.4 65.95 50 65.95 56.65 61.35 61.3
L 61.35 61.25
Q 56.6 66 50 66 43.6 66 39 61.55 38.9 61.4 38.75 61.2 38.65 61.15 38.55 61.05 38.4 60.9 38.25 60.75 38.05 60.6 37.9 60.4 34 56.05 34 50 34 44 37.95 39.5 38.05 39.35 38.25 39.15 38.45 38.95 38.7 38.7
L 38.75 38.65 38.7 38.65
Q 43.35 34.05 50 34.05
M 80.45 19.55
Q 67.8 7 50 7 32.2 7 19.6 19.55 17.75 21.4 16.2 23.35 15.9 23.7 15.65 24 16.15 24.05 16.7 24.1 17.3 24.15 17.9 24.25 19.05 24.4 20.2 24.65 20.4 24.7 20.6 24.75 20.65 24.7 20.7 24.65 21.65 23.55 22.75 22.45
L 22.7 22.45
Q 34 11.25 50.1 11.25 66.1 11.25 77.55 22.45 88.75 33.9 88.75 49.9 88.75 66 77.55 77.3
L 77.55 77.25
Q 66.1 88.7 50.1 88.7 34.05 88.7 22.75 77.3
L 22.75 77.25
Q 21.75 76.3 20.85 75.25 20.75 75.2 20.75 75.15 20.55 75.2 20.35 75.25 19.2 75.55 18.05 75.7 17.35 75.8 16.7 75.85 16.15 75.9 15.65 75.95 15.9 76.3 16.2 76.65 17.75 78.6 19.6 80.4 32.2 93 50 93 67.8 93 80.45 80.4 93 67.8 93 50 93 32.2 80.45 19.55 Z"/>

<path fill="#2E2E2E" stroke="none" d="
M 61.35 38.65
Q 56.6 34.05 50 34.05 43.35 34.05 38.7 38.65
L 38.75 38.65 38.7 38.7
Q 38.45 38.95 38.25 39.15 38.05 39.35 37.95 39.5 34 44 34 50 34 56.05 37.9 60.4 38.05 60.6 38.25 60.75 38.4 60.9 38.55 61.05 38.65 61.15 38.75 61.2 38.9 61.4 39 61.55 43.6 66 50 66 56.6 66 61.35 61.25
L 61.35 61.3
Q 65.95 56.65 65.95 50 65.95 43.4 61.35 38.65
M 66.85 33.1
L 66.9 33.15
Q 73.8 40.15 73.8 50 73.8 59.8 66.9 66.8 59.9 73.8 50 73.8 40.6 73.8 33.85 67.35 33.75 67.35 33.75 67.3 33.65 67.25 33.55 67.15 33.45 67.25 33.35 67.35 32.85 67.9 32.35 68.4 27.25 73.5 20.75 75.15 20.75 75.2 20.85 75.25 21.75 76.3 22.75 77.25
L 22.75 77.3
Q 34.05 88.7 50.1 88.7 66.1 88.7 77.55 77.25
L 77.55 77.3
Q 88.75 66 88.75 49.9 88.75 33.9 77.55 22.45 66.1 11.25 50.1 11.25 34 11.25 22.7 22.45
L 22.75 22.45
Q 21.65 23.55 20.7 24.65 20.65 24.7 20.6 24.75 27.2 26.45 32.35 31.65 32.8 32.1 33.25 32.55 33.35 32.7 33.5 32.8 33.55 32.75 33.65 32.65
L 33.7 32.65
Q 33.7 32.6 33.75 32.55 40.55 26.2 50 26.2 59.85 26.2 66.85 33.1 Z"/>
</g>

<g id="Layer29_0_FILL">
<path fill="#FFFFFF" stroke="none" d="
M 24.75 84.9
Q 24.4 84.65 24 84.35 24 85.2 24 86 24 86.2 24 86.4 24 87.75 24.1 89.05
L 24.2 89.1
Q 35.5 96.75 50 96.75 64.5 96.75 75.75 89.1
L 75.8 89.1
Q 76 87.8 76 86.4 76 86.2 76 86 76 85.2 75.95 84.35 75.6 84.65 75.25 84.9 64.3 93 50 93 35.7 93 24.75 84.9 Z"/>

<path fill="#F5F5F5" stroke="none" d="
M 24.75 79.4
Q 24.7 79.6 24.65 79.8 24.4 80.95 24.25 82.1 24.15 82.7 24.1 83.3 24.05 83.85 24 84.35 24.4 84.65 24.75 84.9 35.7 93 50 93 64.3 93 75.25 84.9 75.6 84.65 75.95 84.35 75.9 83.85 75.85 83.3 75.8 82.65 75.7 81.95 75.55 80.8 75.25 79.65 75.2 79.45 75.15 79.25 74.8 79.6 74.4 79.9 64 88.7 49.9 88.7 36 88.7 25.5 80.05 25.15 79.75 24.75 79.4 Z"/>

<path fill="#D7D7D7" stroke="none" d="
M 33.1 66.8
Q 32.95 66.65 32.8 66.5 32.7 66.65 32.55 66.75 32.1 67.2 31.65 67.65 26.45 72.8 24.75 79.4 25.15 79.75 25.5 80.05 36 88.7 49.9 88.7 64 88.7 74.4 79.9 74.8 79.6 75.15 79.25 73.5 72.75 68.4 67.65 67.9 67.15 67.35 66.65 67.25 66.55 67.15 66.45 67 66.65 66.8 66.8 59.85 73.8 50 73.8 40.1 73.8 33.1 66.8 Z"/>

<path fill="#3B3B3B" stroke="none" d="
M 77.3 22.45
L 77.25 22.45
Q 88.7 33.9 88.7 49.9 88.7 65.95 77.3 77.25
L 77.25 77.25
Q 76.3 78.25 75.25 79.15 75.2 79.25 75.15 79.25 75.2 79.45 75.25 79.65 75.55 80.8 75.7 81.95 75.8 82.65 75.85 83.3 75.9 83.85 75.95 84.35 76.3 84.1 76.65 83.8 78.6 82.25 80.4 80.4 93 67.8 93 50 93 32.2 80.4 19.55 67.8 7 50 7 32.2 7 19.55 19.55 7 32.2 7 50 7 67.8 19.55 80.4 21.4 82.25 23.35 83.8 23.7 84.1 24 84.35 24.05 83.85 24.1 83.3 24.15 82.7 24.25 82.1 24.4 80.95 24.65 79.8 24.7 79.6 24.75 79.4 24.7 79.35 24.65 79.3 23.55 78.35 22.45 77.25
L 22.45 77.3
Q 11.25 66 11.25 49.9 11.25 33.9 22.45 22.45 33.9 11.25 49.9 11.25 66 11.25 77.3 22.45
M 64.1 35.8
Q 58.25 30.05 50 30.05 41.75 30.05 35.85 35.8
L 35.8 35.85
Q 30.05 41.75 30.05 50 30.05 58.1 35.55 63.85 35.7 63.95 35.8 64.1
L 35.85 64.15 35.9 64.15
Q 41.8 70 50 70 58.05 70 63.75 64.4 63.95 64.3 64.1 64.1 64.2 64.05 64.3 63.9 64.35 63.85 64.4 63.8 70 58.05 70 50 70 41.7 64.1 35.8
M 61.3 38.65
L 61.25 38.65
Q 66 43.4 66 50 66 56.4 61.55 61 61.4 61.1 61.2 61.25 61.15 61.35 61.05 61.45 60.9 61.6 60.75 61.75 60.6 61.95 60.4 62.1 56.05 66 50 66 44 66 39.5 62.05 39.35 61.95 39.15 61.75 38.95 61.55 38.7 61.3
L 38.65 61.25 38.65 61.3
Q 34.05 56.65 34.05 50 34.05 43.4 38.65 38.65 43.4 34.05 50 34.05 56.65 34.05 61.3 38.65 Z"/>

<path fill="#1B1B1B" stroke="none" d="
M 66.8 33.1
Q 59.8 26.2 50 26.2 40.15 26.2 33.15 33.1
L 33.1 33.15
Q 26.2 40.15 26.2 50 26.2 59.45 32.55 66.25 32.6 66.3 32.65 66.3
L 32.65 66.35
Q 32.75 66.45 32.8 66.5 32.95 66.65 33.1 66.8 40.1 73.8 50 73.8 59.85 73.8 66.8 66.8 67 66.65 67.15 66.45 67.25 66.35 67.3 66.25 67.35 66.25 67.35 66.15 73.8 59.4 73.8 50 73.8 40.1 66.8 33.1
M 50 30.05
Q 58.25 30.05 64.1 35.8 70 41.7 70 50 70 58.05 64.4 63.8 64.35 63.85 64.3 63.9 64.2 64.05 64.1 64.1 63.95 64.3 63.75 64.4 58.05 70 50 70 41.8 70 35.9 64.15
L 35.85 64.15 35.8 64.1
Q 35.7 63.95 35.55 63.85 30.05 58.1 30.05 50 30.05 41.75 35.8 35.85
L 35.85 35.8
Q 41.75 30.05 50 30.05
M 83.05 83.05
Q 96.75 69.4 96.75 50 96.75 30.6 83.05 16.9 69.4 3.25 50 3.25 30.6 3.25 16.9 16.9 3.25 30.6 3.25 50 3.25 69.4 16.9 83.05 19.6 85.75 22.5 87.9 23.3 88.5 24.1 89.05 24 87.75 24 86.4 24 86.2 24 86 24 85.2 24 84.35 23.7 84.1 23.35 83.8 21.4 82.25 19.55 80.4 7 67.8 7 50 7 32.2 19.55 19.55 32.2 7 50 7 67.8 7 80.4 19.55 93 32.2 93 50 93 67.8 80.4 80.4 78.6 82.25 76.65 83.8 76.3 84.1 75.95 84.35 76 85.2 76 86 76 86.2 76 86.4 76 87.8 75.8 89.1 76.65 88.5 77.5 87.9 80.4 85.75 83.05 83.05 Z"/>

<path fill="#2E2E2E" stroke="none" d="
M 61.25 38.65
L 61.3 38.65
Q 56.65 34.05 50 34.05 43.4 34.05 38.65 38.65 34.05 43.4 34.05 50 34.05 56.65 38.65 61.3
L 38.65 61.25 38.7 61.3
Q 38.95 61.55 39.15 61.75 39.35 61.95 39.5 62.05 44 66 50 66 56.05 66 60.4 62.1 60.6 61.95 60.75 61.75 60.9 61.6 61.05 61.45 61.15 61.35 61.2 61.25 61.4 61.1 61.55 61 66 56.4 66 50 66 43.4 61.25 38.65
M 50 26.2
Q 59.8 26.2 66.8 33.1 73.8 40.1 73.8 50 73.8 59.4 67.35 66.15 67.35 66.25 67.3 66.25 67.25 66.35 67.15 66.45 67.25 66.55 67.35 66.65 67.9 67.15 68.4 67.65 73.5 72.75 75.15 79.25 75.2 79.25 75.25 79.15 76.3 78.25 77.25 77.25
L 77.3 77.25
Q 88.7 65.95 88.7 49.9 88.7 33.9 77.25 22.45
L 77.3 22.45
Q 66 11.25 49.9 11.25 33.9 11.25 22.45 22.45 11.25 33.9 11.25 49.9 11.25 66 22.45 77.3
L 22.45 77.25
Q 23.55 78.35 24.65 79.3 24.7 79.35 24.75 79.4 26.45 72.8 31.65 67.65 32.1 67.2 32.55 66.75 32.7 66.65 32.8 66.5 32.75 66.45 32.65 66.35
L 32.65 66.3
Q 32.6 66.3 32.55 66.25 26.2 59.45 26.2 50 26.2 40.15 33.1 33.15
L 33.15 33.1
Q 40.15 26.2 50 26.2 Z"/>
</g>

<g id="Layer28_0_FILL">
<path fill="#1B1B1B" stroke="none" d="
M 66.25 32.7
Q 66.25 32.65 66.15 32.65 59.4 26.2 50 26.2 40.1 26.2 33.1 33.2 26.2 40.2 26.2 50 26.2 59.85 33.1 66.85
L 33.15 66.9
Q 40.15 73.8 50 73.8 59.45 73.8 66.25 67.45 66.3 67.4 66.3 67.35
L 66.35 67.35
Q 66.45 67.25 66.5 67.2 66.65 67.05 66.8 66.9 73.8 59.9 73.8 50 73.8 40.15 66.8 33.2 66.65 33 66.45 32.85 66.35 32.75 66.25 32.7
M 63.9 35.7
Q 64.05 35.8 64.1 35.9 64.3 36.05 64.4 36.25 70 41.95 70 50 70 58.2 64.15 64.1
L 64.15 64.15 64.1 64.2
Q 63.95 64.3 63.85 64.45 58.1 69.95 50 69.95 41.75 69.95 35.85 64.2
L 35.8 64.15
Q 30.05 58.25 30.05 50 30.05 41.75 35.8 35.9 41.7 30 50 30 58.05 30 63.8 35.6 63.85 35.65 63.9 35.7
M 83.8 23.35
Q 84.1 23.7 84.35 24.05 85.2 24 86 24 86.2 24 86.4 24 87.8 24 89.1 24.2 88.5 23.35 87.9 22.5 85.75 19.6 83.05 16.95 69.4 3.25 50 3.25 30.6 3.25 16.9 16.95 3.25 30.6 3.25 50 3.25 69.4 16.9 83.1 30.6 96.75 50 96.75 69.4 96.75 83.05 83.1 85.75 80.4 87.9 77.5 88.5 76.7 89.05 75.9 87.75 76 86.4 76 86.2 76 86 76 85.2 76 84.35 76 84.1 76.3 83.8 76.65 82.25 78.6 80.4 80.45 67.8 93 50 93 32.2 93 19.55 80.45 7 67.8 7 50 7 32.2 19.55 19.6 32.2 7 50 7 67.8 7 80.4 19.6 82.25 21.4 83.8 23.35 Z"/>

<path fill="#3B3B3B" stroke="none" d="
M 64.1 35.9
Q 64.05 35.8 63.9 35.7 63.85 35.65 63.8 35.6 58.05 30 50 30 41.7 30 35.8 35.9 30.05 41.75 30.05 50 30.05 58.25 35.8 64.15
L 35.85 64.2
Q 41.75 69.95 50 69.95 58.1 69.95 63.85 64.45 63.95 64.3 64.1 64.2
L 64.15 64.15 64.15 64.1
Q 70 58.2 70 50 70 41.95 64.4 36.25 64.3 36.05 64.1 35.9
M 61.75 39.25
Q 61.95 39.4 62.1 39.6 66 43.95 66 50 66 56 62.05 60.5 61.95 60.65 61.75 60.85 61.55 61.05 61.3 61.3
L 61.25 61.35 61.3 61.35
Q 56.65 65.95 50 65.95 43.4 65.95 38.65 61.35 34.05 56.6 34.05 50 34.05 43.35 38.65 38.7
L 38.65 38.75
Q 43.4 34 50 34 56.4 34 61 38.45 61.1 38.6 61.25 38.8 61.35 38.85 61.45 38.95 61.6 39.1 61.75 39.25
M 81.95 24.3
Q 82.65 24.2 83.3 24.15 83.85 24.1 84.35 24.05 84.1 23.7 83.8 23.35 82.25 21.4 80.4 19.6 67.8 7 50 7 32.2 7 19.55 19.6 7 32.2 7 50 7 67.8 19.55 80.45 32.2 93 50 93 67.8 93 80.4 80.45 82.25 78.6 83.8 76.65 84.1 76.3 84.35 76 83.85 75.95 83.3 75.9 82.7 75.85 82.1 75.75 80.95 75.6 79.8 75.35 79.6 75.3 79.4 75.25 79.35 75.3 79.3 75.35 78.35 76.45 77.25 77.55
L 77.3 77.55
Q 66 88.75 49.9 88.75 33.9 88.75 22.45 77.55 11.25 66.1 11.25 50.1 11.25 34 22.45 22.7
L 22.45 22.75
Q 33.9 11.3 49.9 11.3 65.95 11.3 77.25 22.7
L 77.25 22.75
Q 78.25 23.7 79.15 24.75 79.25 24.8 79.25 24.85 79.45 24.8 79.65 24.75 80.8 24.45 81.95 24.3 Z"/>

<path fill="#2E2E2E" stroke="none" d="
M 62.1 39.6
Q 61.95 39.4 61.75 39.25 61.6 39.1 61.45 38.95 61.35 38.85 61.25 38.8 61.1 38.6 61 38.45 56.4 34 50 34 43.4 34 38.65 38.75
L 38.65 38.7
Q 34.05 43.35 34.05 50 34.05 56.6 38.65 61.35 43.4 65.95 50 65.95 56.65 65.95 61.3 61.35
L 61.25 61.35 61.3 61.3
Q 61.55 61.05 61.75 60.85 61.95 60.65 62.05 60.5 66 56 66 50 66 43.95 62.1 39.6
M 77.25 22.75
L 77.25 22.7
Q 65.95 11.3 49.9 11.3 33.9 11.3 22.45 22.75
L 22.45 22.7
Q 11.25 34 11.25 50.1 11.25 66.1 22.45 77.55 33.9 88.75 49.9 88.75 66 88.75 77.3 77.55
L 77.25 77.55
Q 78.35 76.45 79.3 75.35 79.35 75.3 79.4 75.25 72.8 73.55 67.65 68.35 67.2 67.9 66.75 67.45 66.65 67.3 66.5 67.2 66.45 67.25 66.35 67.35
L 66.3 67.35
Q 66.3 67.4 66.25 67.45 59.45 73.8 50 73.8 40.15 73.8 33.15 66.9
L 33.1 66.85
Q 26.2 59.85 26.2 50 26.2 40.2 33.1 33.2 40.1 26.2 50 26.2 59.4 26.2 66.15 32.65 66.25 32.65 66.25 32.7 66.35 32.75 66.45 32.85 66.55 32.75 66.65 32.65 67.15 32.1 67.65 31.6 72.75 26.5 79.25 24.85 79.25 24.8 79.15 24.75 78.25 23.7 77.25 22.75 Z"/>

<path fill="#D7D7D7" stroke="none" d="
M 79.9 25.6
Q 79.6 25.2 79.25 24.85 72.75 26.5 67.65 31.6 67.15 32.1 66.65 32.65 66.55 32.75 66.45 32.85 66.65 33 66.8 33.2 73.8 40.15 73.8 50 73.8 59.9 66.8 66.9 66.65 67.05 66.5 67.2 66.65 67.3 66.75 67.45 67.2 67.9 67.65 68.35 72.8 73.55 79.4 75.25 79.75 74.85 80.05 74.5 88.7 64 88.7 50.1 88.7 36 79.9 25.6 Z"/>

<path fill="#FFFFFF" stroke="none" d="
M 86 24
Q 85.2 24 84.35 24.05 84.65 24.4 84.9 24.75 93 35.7 93 50 93 64.3 84.9 75.25 84.65 75.6 84.35 76 85.2 76 86 76 86.2 76 86.4 76 87.75 76 89.05 75.9
L 89.1 75.8
Q 96.75 64.5 96.75 50 96.75 35.5 89.1 24.25
L 89.1 24.2
Q 87.8 24 86.4 24 86.2 24 86 24 Z"/>

<path fill="#F5F5F5" stroke="none" d="
M 83.3 24.15
Q 82.65 24.2 81.95 24.3 80.8 24.45 79.65 24.75 79.45 24.8 79.25 24.85 79.6 25.2 79.9 25.6 88.7 36 88.7 50.1 88.7 64 80.05 74.5 79.75 74.85 79.4 75.25 79.6 75.3 79.8 75.35 80.95 75.6 82.1 75.75 82.7 75.85 83.3 75.9 83.85 75.95 84.35 76 84.65 75.6 84.9 75.25 93 64.3 93 50 93 35.7 84.9 24.75 84.65 24.4 84.35 24.05 83.85 24.1 83.3 24.15 Z"/>
</g>

<g id="Layer27_0_FILL">
<path fill="#1B1B1B" stroke="none" d="
M 67.15 33.45
Q 67.0396484375 33.3396484375 66.85 33.15 59.8837890625 26.19453125 50 26.2 40.1677734375 26.1927734375 33.15 33.15 33.0037109375 33.3548828125 32.85 33.5 32.7736328125 33.630078125 32.7 33.7 32.65625 33.7708984375 32.6 33.8 26.1998046875 40.6150390625 26.2 50 26.19453125 59.8837890625 33.15 66.85
L 33.2 66.85
Q 40.1810546875 73.8029296875 50 73.8 59.870703125 73.8013671875 66.85 66.85
L 66.85 66.85
Q 73.8013671875 59.870703125 73.8 50 73.7943359375 40.5509765625 67.4 33.75 67.384375 33.711328125 67.35 33.65 67.336328125 33.6529296875 67.3 33.6 67.256640625 33.556640625 67.15 33.45
M 64.15 35.9
Q 64.3005859375 36.0267578125 64.4 36.15 69.949609375 41.9083984375 69.95 50 69.9474609375 58.26796875 64.15 64.15
L 64.15 64.15
Q 58.26796875 69.9474609375 50 69.95 41.728515625 69.949609375 35.9 64.15
L 35.85 64.15
Q 29.992578125 58.2818359375 30 50 30.003515625 41.9328125 35.6 36.15 35.6458984375 36.1298828125 35.7 36.05 35.780078125 35.9716796875 35.85 35.85 36.046484375 35.7064453125 36.25 35.55 41.9296875 30.0013671875 50 30 58.216796875 29.9955078125 64.1 35.8
L 64.1 35.8 64.15 35.85 64.15 35.9
M 83.05 83.05
Q 96.7525390625 69.3900390625 96.75 50 96.7525390625 30.609765625 83.05 16.9 80.3927734375 14.24921875 77.5 12.1 76.6896484375 11.4984375 75.85 10.9 76 12.2330078125 76 13.6 76 13.8 76 14 76 14.8177734375 75.95 15.6 76.306640625 15.9056640625 76.65 16.2 78.6 17.75 80.45 19.6 93 32.2 93 50 93 67.8 80.45 80.45 67.8 93 50 93 32.2 93 19.6 80.45 7 67.8 7 50 7 32.2 19.6 19.6 21.4 17.75 23.35 16.2 23.7021484375 15.8982421875 24.05 15.6 24 14.8107421875 24 14 24 13.8 24 13.6 24 12.2193359375 24.15 10.9 23.3283203125 11.48515625 22.5 12.1 19.60703125 14.24921875 16.9 16.9 3.247265625 30.609765625 3.25 50 3.247265625 69.3900390625 16.9 83.05 30.609765625 96.7525390625 50 96.75 69.3900390625 96.7525390625 83.05 83.05 Z"/>

<path fill="#3B3B3B" stroke="none" d="
M 64.4 36.15
Q 64.3005859375 36.0267578125 64.15 35.9
L 64.15 35.85 64.1 35.8 64.1 35.8
Q 58.216796875 29.9955078125 50 30 41.9296875 30.0013671875 36.25 35.55 36.046484375 35.7064453125 35.85 35.85 35.780078125 35.9716796875 35.7 36.05 35.6458984375 36.1298828125 35.6 36.15 30.003515625 41.9328125 30 50 29.992578125 58.2818359375 35.85 64.15
L 35.9 64.15
Q 41.728515625 69.949609375 50 69.95 58.26796875 69.9474609375 64.15 64.15
L 64.15 64.15
Q 69.9474609375 58.26796875 69.95 50 69.949609375 41.9083984375 64.4 36.15
M 50 34
Q 56.0185546875 34.00390625 60.45 37.9 60.653515625 38.066796875 60.8 38.2 61.06328125 38.440625 61.3 38.65
L 61.25 38.65 61.3 38.7 61.3 38.7
Q 65.949609375 43.3708984375 65.95 50 65.9521484375 56.6142578125 61.35 61.3
L 61.3 61.35
Q 56.6142578125 65.9521484375 50 65.95 43.371484375 65.9501953125 38.7 61.3
L 38.7 61.3
Q 34.0072265625 56.61796875 34 50 33.996484375 43.577734375 38.4 39 38.6068359375 38.8900390625 38.75 38.7 38.8697265625 38.628515625 38.95 38.5 39.0908203125 38.3853515625 39.2 38.25 39.41015625 38.074609375 39.6 37.9 43.97265625 33.9984375 50 34
M 76.65 16.2
Q 76.306640625 15.9056640625 75.95 15.6 75.939453125 16.1677734375 75.9 16.7 75.85 17.3 75.75 17.9 75.6 19.05 75.35 20.2 75.30078125 20.404296875 75.25 20.6 75.2865234375 20.641015625 75.3 20.65 76.4484375 21.6443359375 77.5 22.7
L 77.5 22.7
Q 88.75 34.021875 88.75 50.1 88.7509765625 66.114453125 77.55 77.5
L 77.5 77.55
Q 66.114453125 88.7509765625 50.1 88.75 34.021875 88.75 22.7 77.5
L 22.7 77.5
Q 11.307421875 66.1181640625 11.3 50.1 11.2958984375 34.035546875 22.7 22.7
L 22.7 22.7
Q 23.6955078125 21.7404296875 24.7 20.8 24.7826171875 20.772265625 24.85 20.7 24.7939453125 20.535546875 24.75 20.35 24.45 19.2 24.3 18.05 24.2 17.35 24.15 16.7 24.0900390625 16.1607421875 24.05 15.6 23.7021484375 15.8982421875 23.35 16.2 21.4 17.75 19.6 19.6 7 32.2 7 50 7 67.8 19.6 80.45 32.2 93 50 93 67.8 93 80.45 80.45 93 67.8 93 50 93 32.2 80.45 19.6 78.6 17.75 76.65 16.2 Z"/>

<path fill="#2E2E2E" stroke="none" d="
M 60.45 37.9
Q 56.0185546875 34.00390625 50 34 43.97265625 33.9984375 39.6 37.9 39.41015625 38.074609375 39.2 38.25 39.0908203125 38.3853515625 38.95 38.5 38.8697265625 38.628515625 38.75 38.7 38.6068359375 38.8900390625 38.4 39 33.996484375 43.577734375 34 50 34.0072265625 56.61796875 38.7 61.3
L 38.7 61.3
Q 43.371484375 65.9501953125 50 65.95 56.6142578125 65.9521484375 61.3 61.35
L 61.35 61.3
Q 65.9521484375 56.6142578125 65.95 50 65.949609375 43.3708984375 61.3 38.7
L 61.3 38.7 61.25 38.65 61.3 38.65
Q 61.06328125 38.440625 60.8 38.2 60.653515625 38.066796875 60.45 37.9
M 75.3 20.65
Q 75.2865234375 20.641015625 75.25 20.6 73.5404296875 27.2080078125 68.35 32.35 67.9 32.8 67.45 33.25 67.3154296875 33.3677734375 67.15 33.45 67.256640625 33.556640625 67.3 33.6 67.336328125 33.6529296875 67.35 33.65 67.384375 33.711328125 67.4 33.75 73.7943359375 40.5509765625 73.8 50 73.8013671875 59.870703125 66.85 66.85
L 66.85 66.85
Q 59.870703125 73.8013671875 50 73.8 40.1810546875 73.8029296875 33.2 66.85
L 33.15 66.85
Q 26.19453125 59.8837890625 26.2 50 26.1998046875 40.6150390625 32.6 33.8 32.65625 33.7708984375 32.7 33.7 32.7736328125 33.630078125 32.85 33.5 32.750390625 33.4431640625 32.65 33.35 32.1 32.85 31.6 32.35 26.4943359375 27.2443359375 24.85 20.7 24.7826171875 20.772265625 24.7 20.8 23.6955078125 21.7404296875 22.7 22.7
L 22.7 22.7
Q 11.2958984375 34.035546875 11.3 50.1 11.307421875 66.1181640625 22.7 77.5
L 22.7 77.5
Q 34.021875 88.75 50.1 88.75 66.114453125 88.7509765625 77.5 77.55
L 77.55 77.5
Q 88.7509765625 66.114453125 88.75 50.1 88.75 34.021875 77.5 22.7
L 77.5 22.7
Q 76.4484375 21.6443359375 75.3 20.65 Z"/>

<path fill="#D7D7D7" stroke="none" d="
M 75.25 20.6
Q 74.862890625 20.2685546875 74.45 19.95 64.0224609375 11.2984375 50.1 11.3 35.996484375 11.2900390625 25.6 20.05
L 25.55 20.05
Q 25.2005859375 20.3935546875 24.85 20.7 26.4943359375 27.2443359375 31.6 32.35 32.1 32.85 32.65 33.35 32.750390625 33.4431640625 32.85 33.5 33.0037109375 33.3548828125 33.15 33.15 40.1677734375 26.1927734375 50 26.2 59.8837890625 26.19453125 66.85 33.15 67.0396484375 33.3396484375 67.15 33.45 67.3154296875 33.3677734375 67.45 33.25 67.9 32.8 68.35 32.35 73.5404296875 27.2080078125 75.25 20.6 Z"/>

<path fill="#F5F5F5" stroke="none" d="
M 75.75 17.9
Q 75.85 17.3 75.9 16.7 75.939453125 16.1677734375 75.95 15.6 75.606640625 15.3546875 75.25 15.1 64.3 7 50 7 35.7 7 24.75 15.1 24.4021484375 15.3484375 24.05 15.6 24.0900390625 16.1607421875 24.15 16.7 24.2 17.35 24.3 18.05 24.45 19.2 24.75 20.35 24.7939453125 20.535546875 24.85 20.7 25.2005859375 20.3935546875 25.55 20.05
L 25.6 20.05
Q 35.996484375 11.2900390625 50.1 11.3 64.0224609375 11.2984375 74.45 19.95 74.862890625 20.2685546875 75.25 20.6 75.30078125 20.404296875 75.35 20.2 75.6 19.05 75.75 17.9 Z"/>

<path fill="#FFFFFF" stroke="none" d="
M 75.85 10.9
Q 75.8189453125 10.9048828125 75.75 10.85 64.480078125 3.265234375 50 3.25 35.5189453125 3.265234375 24.2 10.85 24.2001953125 10.891796875 24.15 10.9 24 12.2193359375 24 13.6 24 13.8 24 14 24 14.8107421875 24.05 15.6 24.4021484375 15.3484375 24.75 15.1 35.7 7 50 7 64.3 7 75.25 15.1 75.606640625 15.3546875 75.95 15.6 76 14.8177734375 76 14 76 13.8 76 13.6 76 12.2330078125 75.85 10.9 Z"/>
</g>

<g id="Layer26_0_FILL">
<path fill="#2E2E2E" stroke="none" d="
M 85.7 23.75
Q 83.730078125 21.130078125 81.3 18.7 68.35 5.75 50 5.75 31.65 5.75 18.7 18.7 5.75 31.65 5.75 50 5.75 68.35 18.7 81.3 31.65 94.25 50 94.25 68.35 94.25 81.3 81.3 94.25 68.35 94.25 50 94.25 48.8646484375 94.2 47.75 93.5990234375 34.229296875 85.7 23.75
M 81.2 23.75
Q 90.00546875 34.032421875 90.7 47.75 90.75 48.9126953125 90.75 50.1 90.75 66.95 78.95 78.95 66.95 90.75 50.1 90.75 33.2 90.75 21.3 78.95 9.3 66.95 9.3 50.1 9.3 33.2 21.3 21.3 33.2 9.3 50.1 9.3 66.95 9.3 78.95 21.3 80.1396484375 22.499609375 81.2 23.75
M 90.7 47.75
Q 90.00546875 34.032421875 81.2 23.75 80.1396484375 22.499609375 78.95 21.3 66.95 9.3 50.1 9.3 33.2 9.3 21.3 21.3 9.3 33.2 9.3 50.1 9.3 66.95 21.3 78.95 33.2 90.75 50.1 90.75 66.95 90.75 78.95 78.95 90.75 66.95 90.75 50.1 90.75 48.9126953125 90.7 47.75
M 50 28.2
Q 59.05 28.2 65.45 34.6 71.8 41 71.8 50 71.8 59.05 65.45 65.45 59.05 71.8 50 71.8 41 71.8 34.6 65.45 28.2 59.05 28.2 50 28.2 41 34.6 34.6 41 28.2 50 28.2
M 65.45 34.6
Q 59.05 28.2 50 28.2 41 28.2 34.6 34.6 28.2 41 28.2 50 28.2 59.05 34.6 65.45 41 71.8 50 71.8 59.05 71.8 65.45 65.45 71.8 59.05 71.8 50 71.8 41 65.45 34.6
M 50 32
Q 57.45 32 62.75 37.3 67.95 42.55 67.95 50 67.95 57.45 62.75 62.75 57.45 67.95 50 67.95 42.55 67.95 37.3 62.75 32 57.45 32 50 32 42.55 37.3 37.3 42.55 32 50 32 Z"/>

<path fill="#D7D7D7" stroke="none" d="
M 62.75 37.3
Q 57.45 32 50 32 42.55 32 37.3 37.3 32 42.55 32 50 32 57.45 37.3 62.75 42.55 67.95 50 67.95 57.45 67.95 62.75 62.75 67.95 57.45 67.95 50 67.95 42.55 62.75 37.3 Z"/>
</g>

<g id="Layer25_0_FILL">
<path fill="#D7D7D7" stroke="none" d="
M 81.3 81.3
Q 94.25 68.35 94.25 50 94.25 31.65 81.3 18.7 68.35 5.75 50 5.75 31.65 5.75 18.7 18.7 16.154296875 21.245703125 14.1 24 10.289453125 29.137109375 8.2 35 5.75 41.9849609375 5.75 50 5.75 54.8107421875 6.65 59.25 7.2669921875 62.3400390625 8.3 65.25 11.5078125 74.1078125 18.7 81.3 31.65 94.25 50 94.25 68.35 94.25 81.3 81.3
M 50.1 9.3
Q 66.95 9.3 78.95 21.3 90.75 33.2 90.75 50.1 90.75 66.95 78.95 78.95 66.95 90.75 50.1 90.75 33.2 90.75 21.3 78.95 15.098046875 72.748046875 12.1 65.25 10.9330078125 62.3474609375 10.25 59.25 9.3 54.8693359375 9.3 50.1 9.3 41.971875 12.05 35 14.4251953125 29.08359375 18.75 24 19.96953125 22.6193359375 21.3 21.3 33.2 9.3 50.1 9.3
M 78.95 21.3
Q 66.95 9.3 50.1 9.3 33.2 9.3 21.3 21.3 19.96953125 22.6193359375 18.75 24 14.4251953125 29.08359375 12.05 35 9.3 41.971875 9.3 50.1 9.3 54.8693359375 10.25 59.25 10.9330078125 62.3474609375 12.1 65.25 15.098046875 72.748046875 21.3 78.95 33.2 90.75 50.1 90.75 66.95 90.75 78.95 78.95 90.75 66.95 90.75 50.1 90.75 33.2 78.95 21.3
M 50 28.2
Q 59.05 28.2 65.45 34.6 71.8 41 71.8 50 71.8 59.05 65.45 65.45 59.05 71.8 50 71.8 41 71.8 34.6 65.45 28.2 59.05 28.2 50 28.2 41 34.6 34.6 41 28.2 50 28.2 Z"/>

<path fill="#2E2E2E" stroke="none" d="
M 65.45 34.6
Q 59.05 28.2 50 28.2 41 28.2 34.6 34.6 28.2 41 28.2 50 28.2 59.05 34.6 65.45 41 71.8 50 71.8 59.05 71.8 65.45 65.45 71.8 59.05 71.8 50 71.8 41 65.45 34.6
M 50 32
Q 57.45 32 62.75 37.3 67.95 42.55 67.95 50 67.95 57.45 62.75 62.75 57.45 67.95 50 67.95 42.55 67.95 37.3 62.75 32 57.45 32 50 32 42.55 37.3 37.3 42.55 32 50 32
M 62.75 37.3
Q 57.45 32 50 32 42.55 32 37.3 37.3 32 42.55 32 50 32 57.45 37.3 62.75 42.55 67.95 50 67.95 57.45 67.95 62.75 62.75 67.95 57.45 67.95 50 67.95 42.55 62.75 37.3 Z"/>
</g>

<g id="Layer24_0_FILL">
<path fill="#2E2E2E" stroke="none" d="
M 83.75 21.3
Q 82.5892578125 19.9892578125 81.3 18.7 77.618359375 15.018359375 73.5 12.35 72.7572265625 11.900390625 72 11.45 62.1921875 5.75 50 5.75 31.65 5.75 18.7 18.7 5.75 31.65 5.75 50 5.75 68.35 18.7 81.3 31.65 94.25 50 94.25 68.35 94.25 81.3 81.3 94.25 68.35 94.25 50 94.25 40.6794921875 90.9 32.75 88.3271484375 26.622265625 83.75 21.3
M 82.05 24.75
Q 85.0833984375 28.52578125 87.05 32.75 90.75 40.6421875 90.75 50.1 90.75 66.95 78.95 78.95 66.95 90.75 50.1 90.75 33.2 90.75 21.3 78.95 9.3 66.95 9.3 50.1 9.3 33.2 21.3 21.3 33.2 9.3 50.1 9.3 62.3271484375 9.3 72 15.6 72.7578125 16.116015625 73.5 16.65 76.33984375 18.68984375 78.95 21.3 80.611328125 22.975390625 82.05 24.75
M 87.05 32.75
Q 85.0833984375 28.52578125 82.05 24.75 80.611328125 22.975390625 78.95 21.3 76.33984375 18.68984375 73.5 16.65 72.7578125 16.116015625 72 15.6 62.3271484375 9.3 50.1 9.3 33.2 9.3 21.3 21.3 9.3 33.2 9.3 50.1 9.3 66.95 21.3 78.95 33.2 90.75 50.1 90.75 66.95 90.75 78.95 78.95 90.75 66.95 90.75 50.1 90.75 40.6421875 87.05 32.75
M 50 28.2
Q 59.05 28.2 65.45 34.6 71.8 41 71.8 50 71.8 59.05 65.45 65.45 59.05 71.8 50 71.8 41 71.8 34.6 65.45 28.2 59.05 28.2 50 28.2 41 34.6 34.6 41 28.2 50 28.2
M 65.45 34.6
Q 59.05 28.2 50 28.2 41 28.2 34.6 34.6 28.2 41 28.2 50 28.2 59.05 34.6 65.45 41 71.8 50 71.8 59.05 71.8 65.45 65.45 71.8 59.05 71.8 50 71.8 41 65.45 34.6
M 50 32
Q 57.45 32 62.75 37.3 67.95 42.55 67.95 50 67.95 57.45 62.75 62.75 57.45 67.95 50 67.95 42.55 67.95 37.3 62.75 32 57.45 32 50 32 42.55 37.3 37.3 42.55 32 50 32
M 62.75 37.3
Q 57.45 32 50 32 42.55 32 37.3 37.3 32 42.55 32 50 32 57.45 37.3 62.75 42.55 67.95 50 67.95 57.45 67.95 62.75 62.75 67.95 57.45 67.95 50 67.95 42.55 62.75 37.3 Z"/>
</g>

<path id="Layer36_0_1_STROKES" stroke="#1B1B1B" stroke-width="5" stroke-linejoin="round" stroke-linecap="round" fill="none" d="
M 67.5 25.35
Q 77.7 25.35 84.9 32.55 92.15 39.8 92.15 50 92.15 60.15 84.9 67.35 77.7 74.6 67.5 74.6
L 32.5 74.6
Q 22.25 74.6 15.05 67.35 7.9 60.15 7.9 50 7.9 39.8 15.05 32.55 22.25 25.35 32.5 25.35
L 67.5 25.35 Z
M 67.5 37.9
Q 72.5 37.9 76 41.45 79.55 45 79.55 50 79.55 55 76 58.55 72.5 62.1 67.5 62.1
L 32.5 62.1
Q 27.45 62.1 23.9 58.55 20.4 55 20.4 50 20.4 45 23.9 41.45 27.45 37.9 32.5 37.9
L 67.5 37.9 Z"/>

<path id="Layer35_0_1_STROKES" stroke="#1B1B1B" stroke-width="5" stroke-linejoin="round" stroke-linecap="round" fill="none" d="
M 82.725 42.75
Q 83.45 46.2265625 83.45 50 83.45 63.9 73.65 73.7 63.85 83.5 50 83.5 36.15 83.5 26.3 73.7 16.5 63.9 16.5 50 16.5 36.15 26.3 26.3 36.15 16.55 50 16.55 63.85 16.55 73.65 26.3 75.541015625 28.2005859375 77.075 30.25 81.2958984375 35.928515625 82.725 42.75 Z"/>

<path id="Layer34_0_1_STROKES" stroke="#1B1B1B" stroke-width="5" stroke-linejoin="round" stroke-linecap="round" fill="none" d="
M 84.65 39.4
L 84.65 60.65 60.6 60.65 60.6 84.65 39.35 84.65 39.35 60.65 15.4 60.65 15.4 39.4 39.35 39.4 39.35 15.4 60.6 15.4 60.6 39.4 84.65 39.4 Z"/>

<path id="Layer33_0_1_STROKES" stroke="#1B1B1B" stroke-width="5" stroke-linejoin="round" stroke-linecap="round" fill="none" d="
M 84.65 39.4
L 84.65 60.65 15.4 60.65 15.4 39.4 84.65 39.4 Z"/>

<path id="Layer32_0_1_STROKES" stroke="#FFFFFF" stroke-width="8" stroke-linejoin="round" stroke-linecap="round" fill="none" d="
M 81.05 48.85
Q 80.7 36.6 71.95 27.8 62.7 18.6 49.75 18.6 36.75 18.6 27.6 27.8 18.35 37 18.35 50 18.35 52.3 18.65 54.5"/>

<path id="Layer32_0_2_STROKES" stroke="url(#Gradient_1)" stroke-width="8" stroke-linejoin="round" stroke-linecap="round" fill="none" d="
M 18.65 54.5
Q 19.25 58.95 21.05 62.9 23.35 67.9 27.6 72.15 36.75 81.35 49.75 81.35 51.9 81.35 53.85 81.1 59 80.5 63.5 78.3"/>

<path id="Layer31_0_1_STROKES" stroke="#FFFFFF" stroke-width="8" stroke-linejoin="round" stroke-linecap="round" fill="none" d="
M 18.925 48.85
Q 19.3072265625 36.5904296875 28.05 27.8 37.3 18.6 50.25 18.6 63.25 18.6 72.4 27.8 81.65 37 81.65 50 81.65 52.3 81.35 54.5"/>

<path id="Layer31_0_2_STROKES" stroke="url(#Gradient_2)" stroke-width="8" stroke-linejoin="round" stroke-linecap="round" fill="none" d="
M 81.35 54.5
Q 80.75 58.95 78.95 62.9 76.65 67.9 72.4 72.15 63.25 81.35 50.25 81.35 48.1 81.35 46.15 81.1 41 80.5 36.5 78.3"/>

<path id="Layer26_0_1_STROKES" stroke="#1B1B1B" stroke-width="5" stroke-linejoin="round" stroke-linecap="round" fill="none" d="
M 85.7 23.75
Q 93.5990234375 34.229296875 94.2 47.75 94.25 48.8646484375 94.25 50 94.25 68.35 81.3 81.3 68.35 94.25 50 94.25 31.65 94.25 18.7 81.3 5.75 68.35 5.75 50 5.75 31.65 18.7 18.7 31.65 5.75 50 5.75 68.35 5.75 81.3 18.7 83.730078125 21.130078125 85.7 23.75 Z"/>

<path id="Layer26_0_2_STROKES" stroke="#3B3B3B" stroke-width="4" stroke-linejoin="round" stroke-linecap="round" fill="none" d="
M 78.95 78.95
Q 66.95 90.75 50.1 90.75 33.2 90.75 21.3 78.95 9.3 66.95 9.3 50.1 9.3 33.2 21.3 21.3 33.2 9.3 50.1 9.3 66.95 9.3 78.95 21.3 80.1396484375 22.499609375 81.2 23.75 90.00546875 34.032421875 90.7 47.75 90.75 48.9126953125 90.75 50.1 90.75 66.95 78.95 78.95 Z"/>

<path id="Layer26_0_3_STROKES" stroke="#F5F5F5" stroke-width="4" stroke-linejoin="round" stroke-linecap="round" fill="none" d="
M 50 28.2
Q 59.05 28.2 65.45 34.6 71.8 41 71.8 50 71.8 59.05 65.45 65.45 59.05 71.8 50 71.8 41 71.8 34.6 65.45 28.2 59.05 28.2 50 28.2 41 34.6 34.6 41 28.2 50 28.2 Z"/>

<path id="Layer26_0_4_STROKES" stroke="#FFFFFF" stroke-width="4" stroke-linejoin="round" stroke-linecap="round" fill="none" d="
M 50 32
Q 57.45 32 62.75 37.3 67.95 42.55 67.95 50 67.95 57.45 62.75 62.75 57.45 67.95 50 67.95 42.55 67.95 37.3 62.75 32 57.45 32 50 32 42.55 37.3 37.3 42.55 32 50 32 Z"/>

<path id="Layer25_0_1_STROKES" stroke="#3B3B3B" stroke-width="4" stroke-linejoin="round" stroke-linecap="round" fill="none" d="
M 50 32
Q 57.45 32 62.75 37.3 67.95 42.55 67.95 50 67.95 57.45 62.75 62.75 57.45 67.95 50 67.95 42.55 67.95 37.3 62.75 32 57.45 32 50 32 42.55 37.3 37.3 42.55 32 50 32 Z"/>

<path id="Layer25_0_2_STROKES" stroke="#1B1B1B" stroke-width="4" stroke-linejoin="round" stroke-linecap="round" fill="none" d="
M 50 28.2
Q 59.05 28.2 65.45 34.6 71.8 41 71.8 50 71.8 59.05 65.45 65.45 59.05 71.8 50 71.8 41 71.8 34.6 65.45 28.2 59.05 28.2 50 28.2 41 34.6 34.6 41 28.2 50 28.2 Z"/>

<path id="Layer25_0_3_STROKES" stroke="#FFFFFF" stroke-width="5" stroke-linejoin="round" stroke-linecap="round" fill="none" d="
M 94.25 50
Q 94.25 68.35 81.3 81.3 68.35 94.25 50 94.25 31.65 94.25 18.7 81.3 11.5078125 74.1078125 8.325 65.25 7.2669921875 62.3400390625 6.65 59.25 5.75 54.8107421875 5.75 50 5.75 41.9849609375 8.225 35 10.289453125 29.137109375 14.1 24 16.154296875 21.245703125 18.7 18.7 31.65 5.75 50 5.75 68.35 5.75 81.3 18.7 94.25 31.65 94.25 50 Z"/>

<path id="Layer25_0_4_STROKES" stroke="#F5F5F5" stroke-width="4" stroke-linejoin="round" stroke-linecap="round" fill="none" d="
M 78.95 78.95
Q 66.95 90.75 50.1 90.75 33.2 90.75 21.3 78.95 15.098046875 72.748046875 12.1 65.25 10.9330078125 62.3474609375 10.25 59.25 9.3 54.8693359375 9.3 50.1 9.3 41.971875 12.075 35 14.4251953125 29.08359375 18.775 24 19.96953125 22.6193359375 21.3 21.3 33.2 9.3 50.1 9.3 66.95 9.3 78.95 21.3 90.75 33.2 90.75 50.1 90.75 66.95 78.95 78.95 Z"/>

<path id="Layer24_0_1_STROKES" stroke="#1B1B1B" stroke-width="5" stroke-linejoin="round" stroke-linecap="round" fill="none" d="
M 83.75 21.325
Q 88.3271484375 26.622265625 90.9 32.75 94.25 40.6794921875 94.25 50 94.25 68.35 81.3 81.3 68.35 94.25 50 94.25 31.65 94.25 18.7 81.3 5.75 68.35 5.75 50 5.75 31.65 18.7 18.7 31.65 5.75 50 5.75 62.1921875 5.75 72 11.45 72.7572265625 11.900390625 73.5 12.375 77.618359375 15.018359375 81.3 18.7 82.5892578125 19.9892578125 83.75 21.325 Z"/>

<path id="Layer24_0_2_STROKES" stroke="#1B1B1B" stroke-width="4" stroke-linejoin="round" stroke-linecap="round" fill="none" d="
M 50 28.2
Q 59.05 28.2 65.45 34.6 71.8 41 71.8 50 71.8 59.05 65.45 65.45 59.05 71.8 50 71.8 41 71.8 34.6 65.45 28.2 59.05 28.2 50 28.2 41 34.6 34.6 41 28.2 50 28.2 Z"/>

<path id="Layer24_0_3_STROKES" stroke="#3B3B3B" stroke-width="4" stroke-linejoin="round" stroke-linecap="round" fill="none" d="
M 78.95 78.95
Q 66.95 90.75 50.1 90.75 33.2 90.75 21.3 78.95 9.3 66.95 9.3 50.1 9.3 33.2 21.3 21.3 33.2 9.3 50.1 9.3 62.3271484375 9.3 72 15.625 72.7578125 16.116015625 73.5 16.65 76.33984375 18.68984375 78.95 21.3 80.611328125 22.975390625 82.05 24.75 85.0833984375 28.52578125 87.05 32.75 90.75 40.6421875 90.75 50.1 90.75 66.95 78.95 78.95 Z
M 50 32
Q 57.45 32 62.75 37.3 67.95 42.55 67.95 50 67.95 57.45 62.75 62.75 57.45 67.95 50 67.95 42.55 67.95 37.3 62.75 32 57.45 32 50 32 42.55 37.3 37.3 42.55 32 50 32 Z"/>
</defs>

<g transform="matrix( 1, 0, 0, 1, 0,0) ">
<use xlink:href="#Layer37_0_FILL"/>
</g>

<g transform="matrix( 1, 0, 0, 1, 0,0) ">
<use xlink:href="#Layer36_0_FILL"/>

<use xlink:href="#Layer36_0_1_STROKES"/>
</g>

<g transform="matrix( 1, 0, 0, 1, 0,0) ">
<use xlink:href="#Layer35_0_FILL"/>

<use xlink:href="#Layer35_0_1_STROKES"/>
</g>

<g transform="matrix( 1, 0, 0, 1, 0,0) ">
<use xlink:href="#Layer34_0_FILL"/>

<use xlink:href="#Layer34_0_1_STROKES"/>
</g>

<g transform="matrix( 1, 0, 0, 1, 0,0) ">
<use xlink:href="#Layer33_0_FILL"/>

<use xlink:href="#Layer33_0_1_STROKES"/>
</g>

<g transform="matrix( 1, 0, 0, 1, 0,0) ">
<use xlink:href="#Layer32_0_FILL"/>

<use xlink:href="#Layer32_0_1_STROKES"/>

<use xlink:href="#Layer32_0_2_STROKES"/>
</g>

<g transform="matrix( 1, 0, 0, 1, 0,0) ">
<use xlink:href="#Layer31_0_FILL"/>

<use xlink:href="#Layer31_0_1_STROKES"/>

<use xlink:href="#Layer31_0_2_STROKES"/>
</g>

<g transform="matrix( 1, 0, 0, 1, 0,0) ">
<use xlink:href="#Layer30_0_FILL"/>
</g>

<g transform="matrix( 1, 0, 0, 1, 0,0) ">
<use xlink:href="#Layer29_0_FILL"/>
</g>

<g transform="matrix( 1, 0, 0, 1, 0,0) ">
<use xlink:href="#Layer28_0_FILL"/>
</g>

<g transform="matrix( 1, 0, 0, 1, 0,0) ">
<use xlink:href="#Layer27_0_FILL"/>
</g>

<g transform="matrix( 1, 0, 0, 1, 0,0) ">
<use xlink:href="#Layer26_0_FILL"/>

<use xlink:href="#Layer26_0_1_STROKES"/>

<use xlink:href="#Layer26_0_2_STROKES"/>

<use xlink:href="#Layer26_0_3_STROKES"/>

<use xlink:href="#Layer26_0_4_STROKES"/>
</g>

<g transform="matrix( 1, 0, 0, 1, 0,0) ">
<use xlink:href="#Layer25_0_FILL"/>

<use xlink:href="#Layer25_0_1_STROKES"/>

<use xlink:href="#Layer25_0_2_STROKES"/>

<use xlink:href="#Layer25_0_3_STROKES"/>

<use xlink:href="#Layer25_0_4_STROKES"/>
</g>

<g transform="matrix( 1, 0, 0, 1, 0,0) ">
<use xlink:href="#Layer24_0_FILL"/>

<use xlink:href="#Layer24_0_1_STROKES"/>

<use xlink:href="#Layer24_0_2_STROKES"/>

<use xlink:href="#Layer24_0_3_STROKES"/>
</g>
</svg>
