
<svg xmlns="http://www.w3.org/2000/svg" version="1.1" xmlns:xlink="http://www.w3.org/1999/xlink" preserveAspectRatio="none" x="0px" y="0px" width="100px" height="100px" viewBox="0 0 100 100">
<defs>
<g id="Layer37_0_FILL">
<path fill="#FFFFFF" stroke="none" d="
M 89.1 63.2
Q 94.75 47.3 87.65 32.1 80.6 17.05 65.25 11.2 63 10.2 60.3 11.25
L 51.6 15.25
Q 51.05 15.55 50.65 15.8 48.25 16.85 46.55 19.1
L 41.5 29.9 37.65 31.7 37.4 29.55
Q 38.1 28.95 38.9 28.4 39.1 27.75 38.9 27.25 38.5 26.5 37.2 26.35
L 27.85 30.7
Q 27.2 31.75 27.6 32.5 27.8 33 28.4 33.3 29.35 33 30.3 32.85
L 31.7 34.5 25.05 37.55 24.3 36.65 19.35 39 19.55 40.15 12.9 43.25
Q 10.65 44.3 10.3 46.15 9.35 56.4 14.05 66.45 21.15 81.65 36.95 87.45 52.8 93.15 67.95 86.1 83.25 79 89.1 63.2
M 62.5 19.3
Q 62.65 19.35 62.85 19.3 74.6 24.05 80.05 35.7 85.7 47.75 81.1 60.25 76.55 72.75 64.35 78.45 52.35 84.05 39.85 79.5 27.4 74.9 21.8 62.85 19.5 57.9 18.8 52.9 19.2 51.9 20.2 52.2
L 24.05 54.05
Q 29.05 58.35 34.9 58.35
L 37.65 64.3
Q 39.1 65.9 41.9 66.1
L 43 69.85
Q 43.65 71.8 45.2 73.25 46.45 74.3 47.75 74.8 49.15 75.4 50.65 75.45 52.3 75.4 53.7 74.7 54.15 74.45 54.55 74.3 54.9 74.1 55.35 73.8 58.75 71.55 58.9 66.65 57.05 55.65 52.9 39.35 52.4 30.7 55.8 22.8 56.35 21.35 58.3 20.05 60.65 18.7 62.5 19.3 Z"/>
</g>

<g id="Layer36_0_FILL">
<path fill="#FFFFFF" stroke="none" d="
M 82.15 40.15
L 82.35 39 77.4 36.65 76.65 37.55 70 34.5 71.4 32.85
Q 72.35 33 73.3 33.3 73.9 33 74.1 32.5 74.5 31.75 73.85 30.7
L 64.5 26.35
Q 63.2 26.5 62.8 27.25 62.6 27.75 62.8 28.4 63.6 28.95 64.3 29.55
L 64.05 31.7 60.2 29.9 55.15 19.1
Q 53.45 16.85 51.05 15.8 50.65 15.55 50.1 15.25
L 41.4 11.25
Q 38.7 10.2 36.45 11.2 21.1 17.05 14.05 32.1 6.95 47.3 12.6 63.2 18.45 79 33.75 86.1 48.9 93.15 64.75 87.45 80.55 81.65 87.65 66.45 92.35 56.4 91.4 46.15 91.05 44.3 88.8 43.25
L 82.15 40.15
M 81.5 52.2
Q 82.5 51.9 82.9 52.9 82.2 57.9 79.9 62.85 74.3 74.9 61.85 79.5 49.35 84.05 37.35 78.45 25.15 72.75 20.6 60.25 16 47.75 21.65 35.7 27.1 24.05 38.85 19.3 39.05 19.35 39.2 19.3 41.05 18.7 43.4 20.05 45.35 21.35 45.9 22.8 49.3 30.7 48.8 39.35 44.65 55.65 42.8 66.65 42.95 71.55 46.35 73.8 46.8 74.1 47.15 74.3 47.55 74.45 48 74.7 49.4 75.4 51.05 75.45 52.55 75.4 53.95 74.8 55.25 74.3 56.5 73.25 58.05 71.8 58.7 69.85
L 59.8 66.1
Q 62.6 65.9 64.05 64.3
L 66.8 58.35
Q 72.65 58.35 77.65 54.05
L 81.5 52.2 Z"/>
</g>

<g id="Layer35_0_FILL">
<path fill="#1B1B1B" stroke="none" d="
M 81.55 19.3
Q 81.45 19.2 81.4 19.1 79.5 17.1 77.2 15.5 72.3 21.05 62.25 25.55 50.8 30.6 36.3 31.75 11.05 35.6 10 60 10 75.35 25.5 81.05 37.15 86.45 71.65 71.5 82.25 66.9 87.85 55.85 92.45 46.6 90 37.55 88.2 26.3 81.55 19.3
M 83.35 53.6
L 83.4 53.6
Q 78.65 63 69.65 66.9 38.05 80.65 27.35 76.4 15.15 72 15 60.1 15 60.05 15 60 16 40 36.7 36.75 52.1 35.5 64.3 30.1 72.75 26.3 76.1 22.5 79.4109375 22.9712890625 80.15 25.5 83.85 30.8 85.1 38.7 87.1 46.05 83.35 53.6 Z"/>

<path fill="#3F3F3F" stroke="none" d="
M 76.1 22.5
Q 73.4 27.9 69.5 32.35 59.35 43.4 36.35 46.25 27.85 47.3 24.55 52.8 21.15 57.95 22.8 67.2 23.3 59.7 27.55 55 31.2 51.95 36.95 51.2 62.2 48.1 73.2 35.7
L 73.25 35.65
Q 77.3 31.05 80.15 25.5 79.4109375 22.9712890625 76.1 22.5 Z"/>

<path fill="#2E2E2E" stroke="none" d="
M 83.4 53.6
L 83.35 53.6
Q 87.1 46.05 85.1 38.7 83.85 30.8 80.15 25.5 77.3 31.05 73.25 35.65
L 73.2 35.7
Q 62.2 48.1 36.95 51.2 31.2 51.95 27.55 55 23.3 59.7 22.8 67.2 21.15 57.95 24.55 52.8 27.85 47.3 36.35 46.25 59.35 43.4 69.5 32.35 73.4 27.9 76.1 22.5 72.75 26.3 64.3 30.1 52.1 35.5 36.7 36.75 16 40 15 60 15 60.05 15 60.1 15.15 72 27.35 76.4 38.05 80.65 69.65 66.9 78.65 63 83.4 53.6 Z"/>
</g>

<g id="Layer34_0_FILL">
<path fill="#1B1B1B" stroke="none" d="
M 19.4 19.1
Q 19.35 19.2 19.25 19.3 12.6 26.3 10.8 37.55 8.35 46.6 12.95 55.85 18.55 66.9 29.15 71.5 63.65 86.45 75.3 81.05 90.8 75.35 90.8 60 89.75 35.6 64.5 31.75 50 30.6 38.55 25.55 28.5 21.05 23.6 15.5 21.3 17.1 19.4 19.1
M 85.8 60
Q 85.8 60.05 85.8 60.1 85.65 72 73.45 76.4 62.75 80.65 31.15 66.9 22.15 63 17.4 53.6
L 17.45 53.6
Q 13.7 46.05 15.7 38.7 16.95 30.8 20.65 25.5 21.4 22.95 24.7 22.5 28.05 26.3 36.5 30.1 48.7 35.5 64.1 36.75 84.8 40 85.8 60 Z"/>

<path fill="#3F3F3F" stroke="none" d="
M 27.55 35.65
L 27.6 35.7
Q 38.6 48.1 63.85 51.2 69.6 51.95 73.25 55 77.5 59.7 78 67.2 79.65 57.95 76.25 52.8 72.95 47.3 64.45 46.25 41.45 43.4 31.3 32.35 27.4 27.9 24.7 22.5 21.4 22.95 20.65 25.5 23.5 31.05 27.55 35.65 Z"/>

<path fill="#2E2E2E" stroke="none" d="
M 85.8 60.1
Q 85.8 60.05 85.8 60 84.8 40 64.1 36.75 48.7 35.5 36.5 30.1 28.05 26.3 24.7 22.5 27.4 27.9 31.3 32.35 41.45 43.4 64.45 46.25 72.95 47.3 76.25 52.8 79.65 57.95 78 67.2 77.5 59.7 73.25 55 69.6 51.95 63.85 51.2 38.6 48.1 27.6 35.7
L 27.55 35.65
Q 23.5 31.05 20.65 25.5 16.95 30.8 15.7 38.7 13.7 46.05 17.45 53.6
L 17.4 53.6
Q 22.15 63 31.15 66.9 62.75 80.65 73.45 76.4 85.65 72 85.8 60.1
M 40.35 67.4
L 40.35 49.7 46.3 51.4
Q 47.5 51.75 48.55 52.3 49.65 52.85 50.4 53.75 51.2 54.55 51.7 55.75 52.1 56.9 52.1 58.45 52.1 60.35 51.3 61.4 50.4 62.5 48.8 62.3
L 52.75 70.95 48.65 69.75 45.4 61.75 43.75 61.25 43.75 68.35 40.35 67.4
M 64.1 57.35
Q 65.55 58.25 66.75 59.85 66.85 59.9 66.85 60.05 66.85 60.2 66.85 60.35 66.85 60.4 66.75 60.5
L 64.95 62.15
Q 64.8 62.3 64.65 62.25 64.45 62.2 64.4 62.05 63.75 61.2 63 60.55 62.05 59.85 61.1 59.55 60.1 59.3 59.35 59.5
L 59.35 59.45
Q 58.6 59.65 58 60.15 57.45 60.7 57.2 61.6
L 57.15 61.55
Q 56.85 62.4 56.85 63.45 56.85 64.6 57.2 65.65
L 57.2 65.7
Q 57.45 66.7 58 67.55 58.6 68.45 59.35 69.05 60.1 69.7 61.1 69.95 62 70.2 62.75 70.25 63.35 70.25 63.9 70.15
L 63.9 67.35 61.5 66.7
Q 61.35 66.65 61.3 66.45 61.15 66.3 61.15 66.1
L 61.15 63.4
Q 61.15 63.2 61.3 63.05 61.35 63 61.5 63.05
L 66.75 64.55
Q 66.85 64.6 67 64.7 67.15 64.9 67.15 65.1
L 67.15 73.25
Q 67.15 73.4 67.1 73.5 67 73.6 66.9 73.65 64.25 74.5 61.1 73.6 59.45 73.15 58.1 72.15 56.6 71.05 55.65 69.7
L 55.65 69.65
Q 54.65 68.2 54.1 66.4 53.5 64.6 53.5 62.7 53.5 60.7 54.1 59.15 54.65 57.65 55.65 56.8 56.6 55.85 58.1 55.75 59.45 55.45 61.1 55.9 62.7 56.4 64.1 57.35
M 47.75 55.45
Q 47.35 55.15 46.9 54.95 46.45 54.75 45.95 54.6
L 43.75 53.95 43.75 57.95 45.75 58.55
Q 46.2 58.65 46.7 58.8 47.25 58.9 47.6 58.85 48.05 58.75 48.3 58.45 48.6 58.15 48.6 57.4 48.6 56.75 48.35 56.25 48.1 55.75 47.75 55.45 Z"/>

<path fill="#8F8F8F" stroke="none" d="
M 66.75 59.85
Q 65.55 58.25 64.1 57.35 62.7 56.4 61.1 55.9 59.45 55.45 58.1 55.75 56.6 55.85 55.65 56.8 54.65 57.65 54.1 59.15 53.5 60.7 53.5 62.7 53.5 64.6 54.1 66.4 54.65 68.2 55.65 69.65
L 55.65 69.7
Q 56.6 71.05 58.1 72.15 59.45 73.15 61.1 73.6 64.25 74.5 66.9 73.65 67 73.6 67.1 73.5 67.15 73.4 67.15 73.25
L 67.15 65.1
Q 67.15 64.9 67 64.7 66.85 64.6 66.75 64.55
L 61.5 63.05
Q 61.35 63 61.3 63.05 61.15 63.2 61.15 63.4
L 61.15 66.1
Q 61.15 66.3 61.3 66.45 61.35 66.65 61.5 66.7
L 63.9 67.35 63.9 70.15
Q 63.35 70.25 62.75 70.25 62 70.2 61.1 69.95 60.1 69.7 59.35 69.05 58.6 68.45 58 67.55 57.45 66.7 57.2 65.7
L 57.2 65.65
Q 56.85 64.6 56.85 63.45 56.85 62.4 57.15 61.55
L 57.2 61.6
Q 57.45 60.7 58 60.15 58.6 59.65 59.35 59.45
L 59.35 59.5
Q 60.1 59.3 61.1 59.55 62.05 59.85 63 60.55 63.75 61.2 64.4 62.05 64.45 62.2 64.65 62.25 64.8 62.3 64.95 62.15
L 66.75 60.5
Q 66.85 60.4 66.85 60.35 66.85 60.2 66.85 60.05 66.85 59.9 66.75 59.85
M 40.35 49.7
L 40.35 67.4 43.75 68.35 43.75 61.25 45.4 61.75 48.65 69.75 52.75 70.95 48.8 62.3
Q 50.4 62.5 51.3 61.4 52.1 60.35 52.1 58.45 52.1 56.9 51.7 55.75 51.2 54.55 50.4 53.75 49.65 52.85 48.55 52.3 47.5 51.75 46.3 51.4
L 40.35 49.7
M 46.9 54.95
Q 47.35 55.15 47.75 55.45 48.1 55.75 48.35 56.25 48.6 56.75 48.6 57.4 48.6 58.15 48.3 58.45 48.05 58.75 47.6 58.85 47.25 58.9 46.7 58.8 46.2 58.65 45.75 58.55
L 43.75 57.95 43.75 53.95 45.95 54.6
Q 46.45 54.75 46.9 54.95 Z"/>
</g>

<g id="Layer33_0_FILL">
<path fill="#1B1B1B" stroke="none" d="
M 81.55 19.3
Q 81.45 19.2 81.4 19.1 79.5 17.1 77.2 15.5 72.3 21.05 62.25 25.55 50.8 30.6 36.3 31.75 11.05 35.6 10 60 10 75.35 25.5 81.05 37.15 86.45 71.65 71.5 82.25 66.9 87.85 55.85 92.45 46.6 90 37.55 88.2 26.3 81.55 19.3
M 83.35 53.6
L 83.4 53.6
Q 78.65 63 69.65 66.9 38.05 80.65 27.35 76.4 15.15 72 15 60.1 15 60.05 15 60 16 40 36.7 36.75 52.1 35.5 64.3 30.1 72.75 26.3 76.1 22.5 79.4109375 22.9712890625 80.15 25.5 83.85 30.8 85.1 38.7 87.1 46.05 83.35 53.6 Z"/>

<path fill="#3F3F3F" stroke="none" d="
M 76.1 22.5
Q 73.4 27.9 69.5 32.35 59.35 43.4 36.35 46.25 27.85 47.3 24.55 52.8 21.15 57.95 22.8 67.2 23.3 59.7 27.55 55 31.2 51.95 36.95 51.2 62.2 48.1 73.2 35.7
L 73.25 35.65
Q 77.3 31.05 80.15 25.5 79.4109375 22.9712890625 76.1 22.5 Z"/>

<path fill="#2E2E2E" stroke="none" d="
M 83.4 53.6
L 83.35 53.6
Q 87.1 46.05 85.1 38.7 83.85 30.8 80.15 25.5 77.3 31.05 73.25 35.65
L 73.2 35.7
Q 62.2 48.1 36.95 51.2 31.2 51.95 27.55 55 23.3 59.7 22.8 67.2 21.15 57.95 24.55 52.8 27.85 47.3 36.35 46.25 59.35 43.4 69.5 32.35 73.4 27.9 76.1 22.5 72.75 26.3 64.3 30.1 52.1 35.5 36.7 36.75 16 40 15 60 15 60.05 15 60.1 15.15 72 27.35 76.4 38.05 80.65 69.65 66.9 78.65 63 83.4 53.6
M 40.35 55.15
L 40.35 69.25 46.65 67.6 46.65 71.2 36.95 73.75 36.95 56.05 40.35 55.15
M 61.15 51.9
Q 61.25 51.95 61.3 52.05 61.3 52.2 61.3 52.35 61.25 52.45 61.15 52.55
L 59.4 55.25
Q 59.25 55.45 59.05 55.5 58.9 55.5 58.8 55.45 58.2 54.9 57.4 54.7 56.5 54.5 55.55 54.75 54.55 55.05 53.8 55.7
L 53.8 55.65
Q 53 56.25 52.45 57.1 51.85 57.95 51.6 58.95
L 51.55 58.95
Q 51.25 59.95 51.25 61 51.25 62.15 51.6 63
L 51.6 63.05
Q 51.85 63.95 52.45 64.5 53 65.05 53.8 65.25 54.55 65.45 55.55 65.15 56.4 64.95 57.2 64.55 57.75 64.25 58.35 63.85
L 58.35 61.05 55.95 61.65
Q 55.75 61.7 55.7 61.55 55.6 61.45 55.6 61.25
L 55.6 58.55
Q 55.6 58.35 55.7 58.15 55.75 58.05 55.95 58
L 61.15 56.6
Q 61.3 56.6 61.45 56.65 61.55 56.75 61.55 56.95
L 61.55 65.1
Q 61.55 65.25 61.5 65.4 61.45 65.55 61.35 65.65 58.7 68 55.55 68.8 53.9 69.25 52.55 69 51.05 68.75 50.1 67.9
L 50.1 67.85
Q 49.1 67 48.5 65.5 47.95 64 47.95 62.1 47.95 60.1 48.5 58.25 49.1 56.45 50.1 55 51.05 53.55 52.55 52.6 53.9 51.55 55.55 51.1 57.15 50.7 58.55 50.85 60 51 61.15 51.9 Z"/>

<path fill="#8F8F8F" stroke="none" d="
M 61.3 52.05
Q 61.25 51.95 61.15 51.9 60 51 58.55 50.85 57.15 50.7 55.55 51.1 53.9 51.55 52.55 52.6 51.05 53.55 50.1 55 49.1 56.45 48.5 58.25 47.95 60.1 47.95 62.1 47.95 64 48.5 65.5 49.1 67 50.1 67.85
L 50.1 67.9
Q 51.05 68.75 52.55 69 53.9 69.25 55.55 68.8 58.7 68 61.35 65.65 61.45 65.55 61.5 65.4 61.55 65.25 61.55 65.1
L 61.55 56.95
Q 61.55 56.75 61.45 56.65 61.3 56.6 61.15 56.6
L 55.95 58
Q 55.75 58.05 55.7 58.15 55.6 58.35 55.6 58.55
L 55.6 61.25
Q 55.6 61.45 55.7 61.55 55.75 61.7 55.95 61.65
L 58.35 61.05 58.35 63.85
Q 57.75 64.25 57.2 64.55 56.4 64.95 55.55 65.15 54.55 65.45 53.8 65.25 53 65.05 52.45 64.5 51.85 63.95 51.6 63.05
L 51.6 63
Q 51.25 62.15 51.25 61 51.25 59.95 51.55 58.95
L 51.6 58.95
Q 51.85 57.95 52.45 57.1 53 56.25 53.8 55.65
L 53.8 55.7
Q 54.55 55.05 55.55 54.75 56.5 54.5 57.4 54.7 58.2 54.9 58.8 55.45 58.9 55.5 59.05 55.5 59.25 55.45 59.4 55.25
L 61.15 52.55
Q 61.25 52.45 61.3 52.35 61.3 52.2 61.3 52.05
M 40.35 69.25
L 40.35 55.15 36.95 56.05 36.95 73.75 46.65 71.2 46.65 67.6 40.35 69.25 Z"/>
</g>

<g id="Layer32_0_FILL">
<path fill="#3F3F3F" stroke="none" d="
M 75.6 21
L 69.45 19.7
Q 53.2 36.55 57.4 53.7 61.75 72.45 77.2 77.85 65.9 68.2 62.3 52.55 58.8 36.75 75.6 21 Z"/>

<path fill="#1B1B1B" stroke="none" d="
M 69.45 19.7
L 75.6 21 72.95 17.85 72.25 17
Q 71.95 17.3 71.65 17.55 70.5 18.65 69.45 19.7 Z"/>

<path fill="#2E2E2E" stroke="none" d="
M 81.3 82.1
Q 82.2 81.6 82.85 81.05 85.55 78.75 85 73.95 76.2 58.6 74.45 47.75 72.3 34.55 78.45 27.35 79.05 21.55 74.6 18.3 73.75 18.05 72.95 17.85
L 75.6 21
Q 58.8 36.75 62.3 52.55 65.9 68.2 77.2 77.85 61.75 72.45 57.4 53.7 53.2 36.55 69.45 19.7 70.5 18.65 71.65 17.55 54.6 13.75 39.95 20.25 24 27.15 15.5 32.05 18.3 55.65 29.75 66.95 42.85 80.05 61.2 82.05 71.4 83.35 81.3 82.1 Z"/>
</g>

<g id="Layer31_0_FILL">
<path fill="#3F3F3F" stroke="none" d="
M 31.15 19.7
L 25 21
Q 41.8 36.75 38.3 52.55 34.7 68.2 23.4 77.85 38.85 72.45 43.2 53.7 47.4 36.55 31.15 19.7 Z"/>

<path fill="#2E2E2E" stroke="none" d="
M 25 21
L 27.65 17.85
Q 26.85 18.05 26 18.3 21.55 21.55 22.15 27.35 28.3 34.55 26.15 47.75 24.4 58.6 15.6 73.95 15.05 78.75 17.75 81.05 18.4 81.6 19.3 82.1 29.2 83.35 39.4 82.05 57.75 80.05 70.85 66.95 82.3 55.65 85.1 32.05 76.6 27.15 60.65 20.25 46 13.75 28.95 17.55 30.1 18.65 31.15 19.7 47.4 36.55 43.2 53.7 38.85 72.45 23.4 77.85 34.7 68.2 38.3 52.55 41.8 36.75 25 21
M 54.7 34.65
L 52.9 48.65 60.1 48.65 59.65 52.15 48.6 52.15 50.85 34.65 54.7 34.65
M 62.45 34.65
L 76.35 34.65 75.95 38.05 70.9 38.05 69.05 52.15 65.25 52.15 67.1 38.05 62.05 38.05 62.45 34.65 Z"/>

<path fill="#999999" stroke="none" d="
M 76.35 34.65
L 62.45 34.65 62.05 38.05 67.1 38.05 65.25 52.15 69.05 52.15 70.9 38.05 75.95 38.05 76.35 34.65
M 52.9 48.65
L 54.7 34.65 50.85 34.65 48.6 52.15 59.65 52.15 60.1 48.65 52.9 48.65 Z"/>

<path fill="#1B1B1B" stroke="none" d="
M 27.65 17.85
L 25 21 31.15 19.7
Q 30.1 18.65 28.95 17.55 28.65 17.3 28.35 17
L 27.65 17.85 Z"/>
</g>

<g id="Layer30_0_FILL">
<path fill="#3F3F3F" stroke="none" d="
M 75.6 21
L 69.45 19.7
Q 53.2 36.55 57.4 53.7 61.75 72.45 77.2 77.85 65.9 68.2 62.3 52.55 58.8 36.75 75.6 21 Z"/>

<path fill="#1B1B1B" stroke="none" d="
M 75.6 21
L 72.95 17.85 72.25 17
Q 71.95 17.3 71.65 17.55 70.5 18.65 69.45 19.7
L 75.6 21 Z"/>

<path fill="#2E2E2E" stroke="none" d="
M 81.3 82.1
Q 82.2 81.6 82.85 81.05 85.55 78.75 85 73.95 76.2 58.6 74.45 47.75 72.3 34.55 78.45 27.35 79.05 21.55 74.6 18.3 73.75 18.05 72.95 17.85
L 75.6 21
Q 58.8 36.75 62.3 52.55 65.9 68.2 77.2 77.85 61.75 72.45 57.4 53.7 53.2 36.55 69.45 19.7 70.5 18.65 71.65 17.55 54.6 13.75 39.95 20.25 24 27.15 15.5 32.05 18.3 55.65 29.75 66.95 42.85 80.05 61.2 82.05 71.4 83.35 81.3 82.1
M 53.05 38.25
L 48.05 38.25 49.65 52.35 45.8 52.35 44.2 38.25 39.2 38.25 38.8 34.85 52.65 34.85 53.05 38.25
M 34.1 35.1
Q 35.4 35.3 36.35 35.95 37.35 36.55 37.95 37.55 38.6 38.6 38.8 40.15 39 42 38.2 43.3 37.4 44.65 35.55 44.95
L 40.9 52.35 36.25 52.35 31.8 45.35 29.9 45.35 30.7 52.35 26.8 52.35 24.8 34.85 31.6 34.85
Q 32.95 34.85 34.1 35.1 Z"/>

<path fill="#999999" stroke="none" d="
M 36.35 35.95
Q 35.4 35.3 34.1 35.1 32.95 34.85 31.6 34.85
L 24.8 34.85 26.8 52.35 30.7 52.35 29.9 45.35 31.8 45.35 36.25 52.35 40.9 52.35 35.55 44.95
Q 37.4 44.65 38.2 43.3 39 42 38.8 40.15 38.6 38.6 37.95 37.55 37.35 36.55 36.35 35.95
M 29.5 42.1
L 29.05 38.1 31.6 38.1
Q 32.05 38.1 32.65 38.15 33.15 38.2 33.65 38.45 34.1 38.7 34.4 39.05 34.7 39.45 34.8 40.1 34.9 40.85 34.6 41.2 34.35 41.65 33.9 41.8 33.45 42 32.85 42.05 32.25 42.1 31.75 42.1
L 29.5 42.1
M 48.05 38.25
L 53.05 38.25 52.65 34.85 38.8 34.85 39.2 38.25 44.2 38.25 45.8 52.35 49.65 52.35 48.05 38.25 Z"/>

<path fill="#313131" stroke="none" d="
M 29.05 38.1
L 29.5 42.1 31.75 42.1
Q 32.25 42.1 32.85 42.05 33.45 42 33.9 41.8 34.35 41.65 34.6 41.2 34.9 40.85 34.8 40.1 34.7 39.45 34.4 39.05 34.1 38.7 33.65 38.45 33.15 38.2 32.65 38.15 32.05 38.1 31.6 38.1
L 29.05 38.1 Z"/>
</g>

<g id="Layer29_0_FILL">
<path fill="#000000" stroke="none" d="
M 81.65 81.65
Q 94.7 68.55 94.7 50 94.7 31.5 81.65 18.4 68.55 5.3 50 5.3 31.5 5.3 18.4 18.4 5.3 31.5 5.3 50 5.3 68.55 18.4 81.65 31.5 94.7 50 94.7 68.55 94.7 81.65 81.65
M 50 13.95
Q 65.05 13.95 75.55 24.55 86.15 35.1 86.15 50 86.15 65.05 75.55 75.55 65.05 86.15 50 86.15 35.1 86.15 24.55 75.55 13.95 65.05 13.95 50 13.95 35.1 24.55 24.55 35.1 13.95 50 13.95 Z"/>

<path fill="#3F3F3F" stroke="none" d="
M 75.55 24.55
Q 65.05 13.95 50 13.95 35.1 13.95 24.55 24.55 13.95 35.1 13.95 50 13.95 65.05 24.55 75.55 35.1 86.15 50 86.15 65.05 86.15 75.55 75.55 86.15 65.05 86.15 50 86.15 35.1 75.55 24.55
M 50 24.15
Q 60.8 24.15 68.35 31.75 75.95 39.3 75.95 50 75.95 60.8 68.35 68.35 60.8 75.95 50 75.95 39.3 75.95 31.75 68.35 24.15 60.8 24.15 50 24.15 39.3 31.75 31.75 39.3 24.15 50 24.15 Z"/>

<path fill="#151515" stroke="none" d="
M 68.35 31.75
Q 60.8 24.15 50 24.15 39.3 24.15 31.75 31.75 24.15 39.3 24.15 50 24.15 60.8 31.75 68.35 39.3 75.95 50 75.95 60.8 75.95 68.35 68.35 75.95 60.8 75.95 50 75.95 39.3 68.35 31.75
M 57.5 39.3
Q 58.8 40.15 59.55 41.6 60.3 43.05 60.3 45.25 60.3 47.85 58.95 49.7 57.55 51.55 54.95 52
L 61.25 62.5 54.7 62.5 49.5 52.6 46.85 52.6 46.85 62.5 41.4 62.5 41.4 37.7 50.95 37.7
Q 52.85 37.7 54.55 38.1 56.25 38.45 57.5 39.3
M 50.4 42.35
L 46.85 42.35 46.85 47.95 50.05 47.95
Q 50.8 47.95 51.6 47.9 52.4 47.85 53.1 47.6 53.75 47.35 54.2 46.8 54.6 46.25 54.6 45.2 54.6 44.25 54.25 43.7 53.85 43.15 53.25 42.85 52.65 42.55 51.9 42.45 51.15 42.35 50.4 42.35 Z"/>

<path fill="#8C8C8C" stroke="none" d="
M 59.55 41.6
Q 58.8 40.15 57.5 39.3 56.25 38.45 54.55 38.1 52.85 37.7 50.95 37.7
L 41.4 37.7 41.4 62.5 46.85 62.5 46.85 52.6 49.5 52.6 54.7 62.5 61.25 62.5 54.95 52
Q 57.55 51.55 58.95 49.7 60.3 47.85 60.3 45.25 60.3 43.05 59.55 41.6
M 46.85 42.35
L 50.4 42.35
Q 51.15 42.35 51.9 42.45 52.65 42.55 53.25 42.85 53.85 43.15 54.25 43.7 54.6 44.25 54.6 45.2 54.6 46.25 54.2 46.8 53.75 47.35 53.1 47.6 52.4 47.85 51.6 47.9 50.8 47.95 50.05 47.95
L 46.85 47.95 46.85 42.35 Z"/>
</g>

<g id="Layer28_0_FILL">
<path fill="#000000" stroke="none" d="
M 81.65 81.65
Q 94.7 68.55 94.7 50 94.7 31.5 81.65 18.4 68.55 5.3 50 5.3 31.5 5.3 18.4 18.4 5.3 31.5 5.3 50 5.3 68.55 18.4 81.65 31.5 94.7 50 94.7 68.55 94.7 81.65 81.65
M 50 13.95
Q 65.05 13.95 75.55 24.55 86.15 35.1 86.15 50 86.15 65.05 75.55 75.55 65.05 86.15 50 86.15 35.1 86.15 24.55 75.55 13.95 65.05 13.95 50 13.95 35.1 24.55 24.55 35.1 13.95 50 13.95 Z"/>

<path fill="#3F3F3F" stroke="none" d="
M 75.55 24.55
Q 65.05 13.95 50 13.95 35.1 13.95 24.55 24.55 13.95 35.1 13.95 50 13.95 65.05 24.55 75.55 35.1 86.15 50 86.15 65.05 86.15 75.55 75.55 86.15 65.05 86.15 50 86.15 35.1 75.55 24.55
M 50 24.15
Q 60.8 24.15 68.35 31.75 75.95 39.3 75.95 50 75.95 60.8 68.35 68.35 60.8 75.95 50 75.95 39.3 75.95 31.75 68.35 24.15 60.8 24.15 50 24.15 39.3 31.75 31.75 39.3 24.15 50 24.15 Z"/>

<path fill="#151515" stroke="none" d="
M 68.35 31.75
Q 60.8 24.15 50 24.15 39.3 24.15 31.75 31.75 24.15 39.3 24.15 50 24.15 60.8 31.75 68.35 39.3 75.95 50 75.95 60.8 75.95 68.35 68.35 75.95 60.8 75.95 50 75.95 39.3 68.35 31.75
M 43.55 37.7
L 49 37.7 49 57.45 59.1 57.45 59.1 62.5 43.55 62.5 43.55 37.7 Z"/>

<path fill="#8C8C8C" stroke="none" d="
M 49 37.7
L 43.55 37.7 43.55 62.5 59.1 62.5 59.1 57.45 49 57.45 49 37.7 Z"/>
</g>

<g id="Layer27_0_FILL">
<path fill="#1B1B1B" stroke="none" d="
M 78.55 21.4
L 78.6 21.4
Q 66.8 9.6 50 9.6 33.25 9.6 21.35 21.4 9.55 33.25 9.55 50 9.55 66.75 21.35 78.6
L 21.35 78.65
Q 33.25 90.45 50 90.45 66.75 90.45 78.55 78.65
L 78.6 78.6
Q 90.45 66.75 90.45 50 90.45 33.2 78.55 21.4
M 50 13.6
Q 65.1 13.6 75.75 24.25 86.45 34.9 86.45 50 86.45 65.1 75.75 75.8 65.1 86.45 50 86.45 34.9 86.45 24.2 75.8
L 24.15 75.8
Q 13.55 65.1 13.55 50 13.55 34.9 24.15 24.25
L 24.2 24.2
Q 34.9 13.6 50 13.6 Z"/>

<path fill="#3B3B3B" stroke="none" d="
M 75.75 24.25
Q 65.1 13.6 50 13.6 34.9 13.6 24.2 24.2
L 24.15 24.25
Q 13.55 34.9 13.55 50 13.55 65.1 24.15 75.8
L 24.2 75.8
Q 34.9 86.45 50 86.45 65.1 86.45 75.75 75.8 86.45 65.1 86.45 50 86.45 34.9 75.75 24.25
M 71.9 28.05
L 71.95 28.05
Q 81 37.1 81 50 81 62.85 71.95 71.95 62.85 81 50 81 37.1 81 28.05 71.95
L 28.05 71.9
Q 19 62.8 19 50 19 37.15 28.05 28.05 37.15 19 50 19 62.8 19 71.9 28.05 Z"/>

<path fill="#2E2E2E" stroke="none" d="
M 71.95 28.05
L 71.9 28.05
Q 62.8 19 50 19 37.15 19 28.05 28.05 19 37.15 19 50 19 62.8 28.05 71.9
L 28.05 71.95
Q 37.1 81 50 81 62.85 81 71.95 71.95 81 62.85 81 50 81 37.1 71.95 28.05
M 50.55 44.4
L 57.05 33.25 65.55 33.25 55.25 48.3 66.8 65.1 57.95 65.1 50.2 52.25 42.65 65.1 34.3 65.1 45.45 48.45 34.95 33.25 43.75 33.25 50.55 44.4 Z"/>

<path fill="#8C8C8C" stroke="none" d="
M 57.05 33.25
L 50.55 44.4 43.75 33.25 34.95 33.25 45.45 48.45 34.3 65.1 42.65 65.1 50.2 52.25 57.95 65.1 66.8 65.1 55.25 48.3 65.55 33.25 57.05 33.25 Z"/>
</g>

<g id="Layer26_0_FILL">
<path fill="#1B1B1B" stroke="none" d="
M 78.55 21.4
L 78.6 21.4
Q 66.8 9.6 50 9.6 33.25 9.6 21.35 21.4 9.55 33.25 9.55 50 9.55 66.75 21.35 78.6
L 21.35 78.65
Q 33.25 90.45 50 90.45 66.75 90.45 78.55 78.65
L 78.6 78.6
Q 90.45 66.75 90.45 50 90.45 33.2 78.55 21.4
M 50 13.6
Q 65.1 13.6 75.75 24.25 86.45 34.9 86.45 50 86.45 65.1 75.75 75.8 65.1 86.45 50 86.45 34.9 86.45 24.2 75.8
L 24.15 75.8
Q 13.55 65.1 13.55 50 13.55 34.9 24.15 24.25
L 24.2 24.2
Q 34.9 13.6 50 13.6 Z"/>

<path fill="#3B3B3B" stroke="none" d="
M 75.75 24.25
Q 65.1 13.6 50 13.6 34.9 13.6 24.2 24.2
L 24.15 24.25
Q 13.55 34.9 13.55 50 13.55 65.1 24.15 75.8
L 24.2 75.8
Q 34.9 86.45 50 86.45 65.1 86.45 75.75 75.8 86.45 65.1 86.45 50 86.45 34.9 75.75 24.25
M 71.9 28.05
L 71.95 28.05
Q 81 37.1 81 50 81 62.85 71.95 71.95 62.85 81 50 81 37.1 81 28.05 71.95
L 28.05 71.9
Q 19 62.8 19 50 19 37.15 28.05 28.05 37.15 19 50 19 62.8 19 71.9 28.05 Z"/>

<path fill="#2E2E2E" stroke="none" d="
M 71.95 28.05
L 71.9 28.05
Q 62.8 19 50 19 37.15 19 28.05 28.05 19 37.15 19 50 19 62.8 28.05 71.9
L 28.05 71.95
Q 37.1 81 50 81 62.85 81 71.95 71.95 81 62.85 81 50 81 37.1 71.95 28.05
M 43.3 34.9
L 50.05 46.8 57.2 34.9 65.5 34.9 53.55 53.15 53.55 66.75 46.5 66.75 46.5 53.15 34.55 34.9 43.3 34.9 Z"/>

<path fill="#8C8C8C" stroke="none" d="
M 50.05 46.8
L 43.3 34.9 34.55 34.9 46.5 53.15 46.5 66.75 53.55 66.75 53.55 53.15 65.5 34.9 57.2 34.9 50.05 46.8 Z"/>
</g>

<g id="Layer25_0_FILL">
<path fill="#1B1B1B" stroke="none" d="
M 78.55 21.4
L 78.6 21.4
Q 66.8 9.6 50 9.6 33.25 9.6 21.35 21.4 9.55 33.25 9.55 50 9.55 66.75 21.35 78.6
L 21.35 78.65
Q 33.25 90.45 50 90.45 66.75 90.45 78.55 78.65
L 78.6 78.6
Q 90.45 66.75 90.45 50 90.45 33.2 78.55 21.4
M 50 13.6
Q 65.1 13.6 75.75 24.25 86.45 34.9 86.45 50 86.45 65.1 75.75 75.8 65.1 86.45 50 86.45 34.9 86.45 24.2 75.8
L 24.15 75.8
Q 13.55 65.1 13.55 50 13.55 34.9 24.15 24.25
L 24.2 24.2
Q 34.9 13.6 50 13.6 Z"/>

<path fill="#3B3B3B" stroke="none" d="
M 75.75 24.25
Q 65.1 13.6 50 13.6 34.9 13.6 24.2 24.2
L 24.15 24.25
Q 13.55 34.9 13.55 50 13.55 65.1 24.15 75.8
L 24.2 75.8
Q 34.9 86.45 50 86.45 65.1 86.45 75.75 75.8 86.45 65.1 86.45 50 86.45 34.9 75.75 24.25
M 71.9 28.05
L 71.95 28.05
Q 81 37.1 81 50 81 62.85 71.95 71.95 62.85 81 50 81 37.1 81 28.05 71.95
L 28.05 71.9
Q 19 62.8 19 50 19 37.15 28.05 28.05 37.15 19 50 19 62.8 19 71.9 28.05 Z"/>

<path fill="#2E2E2E" stroke="none" d="
M 71.95 28.05
L 71.9 28.05
Q 62.8 19 50 19 37.15 19 28.05 28.05 19 37.15 19 50 19 62.8 28.05 71.9
L 28.05 71.95
Q 37.1 81 50 81 62.85 81 71.95 71.95 81 62.85 81 50 81 37.1 71.95 28.05
M 51.35 33.25
Q 53.45 33.25 55.5 33.55 57.65 33.85 59.3 34.7 60.95 35.6 62 37.15 63 38.75 63 41.35 63 44.05 61.5 45.85 60 47.6 57.55 48.35
L 57.55 48.45
Q 59.1 48.7 60.4 49.3 61.65 50 62.55 51 63.5 52 64 53.35 64.5 54.7 64.5 56.25 64.5 58.75 63.4 60.45 62.35 62.15 60.6 63.15 58.9 64.2 56.75 64.65 54.65 65.1 52.55 65.1
L 39.5 65.1 39.5 33.25 51.35 33.25
M 57.5 55.45
Q 57.5 54.3 56.9 53.6 56.35 52.9 55.5 52.55 54.65 52.2 53.65 52.05 52.65 51.9 51.8 51.9
L 46.5 51.9 46.5 59.15 52.8 59.15
Q 53.6 59.15 54.45 59 55.3 58.8 55.95 58.35 56.6 57.9 57.05 57.2 57.5 56.45 57.5 55.45
M 46.5 39.15
L 46.5 46 51.6 46
Q 52.4 46 53.2 45.8 54 45.65 54.6 45.2 55.25 44.8 55.65 44.15 56 43.45 56 42.5 56 41.5 55.6 40.85 55.15 40.2 54.45 39.85 53.8 39.5 52.95 39.35 52.1 39.15 51.3 39.15
L 46.5 39.15 Z"/>

<path fill="#8C8C8C" stroke="none" d="
M 55.5 33.55
Q 53.45 33.25 51.35 33.25
L 39.5 33.25 39.5 65.1 52.55 65.1
Q 54.65 65.1 56.75 64.65 58.9 64.2 60.6 63.15 62.35 62.15 63.4 60.45 64.5 58.75 64.5 56.25 64.5 54.7 64 53.35 63.5 52 62.55 51 61.65 50 60.4 49.3 59.1 48.7 57.55 48.45
L 57.55 48.35
Q 60 47.6 61.5 45.85 63 44.05 63 41.35 63 38.75 62 37.15 60.95 35.6 59.3 34.7 57.65 33.85 55.5 33.55
M 46.5 46
L 46.5 39.15 51.3 39.15
Q 52.1 39.15 52.95 39.35 53.8 39.5 54.45 39.85 55.15 40.2 55.6 40.85 56 41.5 56 42.5 56 43.45 55.65 44.15 55.25 44.8 54.6 45.2 54 45.65 53.2 45.8 52.4 46 51.6 46
L 46.5 46
M 56.9 53.6
Q 57.5 54.3 57.5 55.45 57.5 56.45 57.05 57.2 56.6 57.9 55.95 58.35 55.3 58.8 54.45 59 53.6 59.15 52.8 59.15
L 46.5 59.15 46.5 51.9 51.8 51.9
Q 52.65 51.9 53.65 52.05 54.65 52.2 55.5 52.55 56.35 52.9 56.9 53.6 Z"/>
</g>

<g id="Layer24_0_FILL">
<path fill="#1B1B1B" stroke="none" d="
M 78.55 21.4
L 78.6 21.4
Q 66.8 9.6 50 9.6 33.25 9.6 21.35 21.4 9.55 33.25 9.55 50 9.55 66.75 21.35 78.6
L 21.35 78.65
Q 33.25 90.45 50 90.45 66.75 90.45 78.55 78.65
L 78.6 78.6
Q 90.45 66.75 90.45 50 90.45 33.2 78.55 21.4
M 50 13.6
Q 65.1 13.6 75.75 24.25 86.45 34.9 86.45 50 86.45 65.1 75.75 75.8 65.1 86.45 50 86.45 34.9 86.45 24.2 75.8
L 24.15 75.8
Q 13.55 65.1 13.55 50 13.55 34.9 24.15 24.25
L 24.2 24.2
Q 34.9 13.6 50 13.6 Z"/>

<path fill="#3B3B3B" stroke="none" d="
M 75.75 24.25
Q 65.1 13.6 50 13.6 34.9 13.6 24.2 24.2
L 24.15 24.25
Q 13.55 34.9 13.55 50 13.55 65.1 24.15 75.8
L 24.2 75.8
Q 34.9 86.45 50 86.45 65.1 86.45 75.75 75.8 86.45 65.1 86.45 50 86.45 34.9 75.75 24.25
M 71.9 28.05
L 71.95 28.05
Q 81 37.1 81 50 81 62.85 71.95 71.95 62.85 81 50 81 37.1 81 28.05 71.95
L 28.05 71.9
Q 19 62.8 19 50 19 37.15 28.05 28.05 37.15 19 50 19 62.8 19 71.9 28.05 Z"/>

<path fill="#2E2E2E" stroke="none" d="
M 71.95 28.05
L 71.9 28.05
Q 62.8 19 50 19 37.15 19 28.05 28.05 19 37.15 19 50 19 62.8 28.05 71.9
L 28.05 71.95
Q 37.1 81 50 81 62.85 81 71.95 71.95 81 62.85 81 50 81 37.1 71.95 28.05
M 47.05 31.6
L 52.85 31.6 66.7 63.45 58.75 63.45 56 56.7 43.65 56.7 41 63.45 33.25 63.45 47.05 31.6
M 45.85 50.75
L 53.65 50.75 49.75 40.85 45.85 50.75 Z"/>

<path fill="#8C8C8C" stroke="none" d="
M 52.85 31.6
L 47.05 31.6 33.25 63.45 41 63.45 43.65 56.7 56 56.7 58.75 63.45 66.7 63.45 52.85 31.6
M 53.65 50.75
L 45.85 50.75 49.75 40.85 53.65 50.75 Z"/>
</g>

<path id="Layer32_0_1_STROKES" stroke="#1B1B1B" stroke-width="5" stroke-linejoin="round" stroke-linecap="round" fill="none" d="
M 72.95 17.85
Q 73.75 18.05 74.6 18.3 79.05 21.55 78.45 27.35 72.3 34.55 74.45 47.75 76.2 58.6 85 73.95 85.55 78.75 82.85 81.05 82.2 81.6 81.3 82.1 71.4 83.35 61.2 82.05 42.85 80.05 29.75 66.95 18.3 55.65 15.5 32.05 24 27.15 39.95 20.25 54.6 13.75 71.65 17.55"/>

<path id="Layer31_0_1_STROKES" stroke="#1B1B1B" stroke-width="5" stroke-linejoin="round" stroke-linecap="round" fill="none" d="
M 27.65 17.85
Q 26.85 18.05 26 18.3 21.55 21.55 22.15 27.35 28.3 34.55 26.15 47.75 24.4 58.6 15.6 73.95 15.05 78.75 17.75 81.05 18.4 81.6 19.3 82.1 29.2 83.35 39.4 82.05 57.75 80.05 70.85 66.95 82.3 55.65 85.1 32.05 76.6 27.15 60.65 20.25 46 13.75 28.95 17.55"/>

<path id="Layer30_0_1_STROKES" stroke="#1B1B1B" stroke-width="5" stroke-linejoin="round" stroke-linecap="round" fill="none" d="
M 72.95 17.85
Q 73.75 18.05 74.6 18.3 79.05 21.55 78.45 27.35 72.3 34.55 74.45 47.75 76.2 58.6 85 73.95 85.55 78.75 82.85 81.05 82.2 81.6 81.3 82.1 71.4 83.35 61.2 82.05 42.85 80.05 29.75 66.95 18.3 55.65 15.5 32.05 24 27.15 39.95 20.25 54.6 13.75 71.65 17.55"/>

<path id="Layer29_0_1_STROKES" stroke="#151515" stroke-width="4" stroke-linejoin="round" stroke-linecap="round" fill="none" d="
M 50 13.95
Q 65.05 13.95 75.55 24.55 86.15 35.1 86.15 50 86.15 65.05 75.55 75.55 65.05 86.15 50 86.15 35.1 86.15 24.55 75.55 13.95 65.05 13.95 50 13.95 35.1 24.55 24.55 35.1 13.95 50 13.95 Z"/>

<path id="Layer29_0_2_STROKES" stroke="#646464" stroke-width="4" stroke-linejoin="round" stroke-linecap="round" fill="none" d="
M 50 24.15
Q 60.8 24.15 68.35 31.75 75.95 39.3 75.95 50 75.95 60.8 68.35 68.35 60.8 75.95 50 75.95 39.3 75.95 31.75 68.35 24.15 60.8 24.15 50 24.15 39.3 31.75 31.75 39.3 24.15 50 24.15 Z"/>

<path id="Layer28_0_1_STROKES" stroke="#151515" stroke-width="4" stroke-linejoin="round" stroke-linecap="round" fill="none" d="
M 50 13.95
Q 65.05 13.95 75.55 24.55 86.15 35.1 86.15 50 86.15 65.05 75.55 75.55 65.05 86.15 50 86.15 35.1 86.15 24.55 75.55 13.95 65.05 13.95 50 13.95 35.1 24.55 24.55 35.1 13.95 50 13.95 Z"/>

<path id="Layer28_0_2_STROKES" stroke="#646464" stroke-width="4" stroke-linejoin="round" stroke-linecap="round" fill="none" d="
M 50 24.15
Q 60.8 24.15 68.35 31.75 75.95 39.3 75.95 50 75.95 60.8 68.35 68.35 60.8 75.95 50 75.95 39.3 75.95 31.75 68.35 24.15 60.8 24.15 50 24.15 39.3 31.75 31.75 39.3 24.15 50 24.15 Z"/>
</defs>

<g transform="matrix( 1, 0, 0, 1, 0,0) ">
<use xlink:href="#Layer37_0_FILL"/>
</g>

<g transform="matrix( 1, 0, 0, 1, 0,0) ">
<use xlink:href="#Layer36_0_FILL"/>
</g>

<g transform="matrix( 1, 0, 0, 1, 0,0) ">
<use xlink:href="#Layer35_0_FILL"/>
</g>

<g transform="matrix( 1, 0, 0, 1, 0,0) ">
<use xlink:href="#Layer34_0_FILL"/>
</g>

<g transform="matrix( 1, 0, 0, 1, 0,0) ">
<use xlink:href="#Layer33_0_FILL"/>
</g>

<g transform="matrix( 1, 0, 0, 1, 0,0) ">
<use xlink:href="#Layer32_0_FILL"/>

<use xlink:href="#Layer32_0_1_STROKES"/>
</g>

<g transform="matrix( 1, 0, 0, 1, 0,0) ">
<use xlink:href="#Layer31_0_FILL"/>

<use xlink:href="#Layer31_0_1_STROKES"/>
</g>

<g transform="matrix( 1, 0, 0, 1, 0,0) ">
<use xlink:href="#Layer30_0_FILL"/>

<use xlink:href="#Layer30_0_1_STROKES"/>
</g>

<g transform="matrix( 1, 0, 0, 1, 0,0) ">
<use xlink:href="#Layer29_0_FILL"/>

<use xlink:href="#Layer29_0_1_STROKES"/>

<use xlink:href="#Layer29_0_2_STROKES"/>
</g>

<g transform="matrix( 1, 0, 0, 1, 0,0) ">
<use xlink:href="#Layer28_0_FILL"/>

<use xlink:href="#Layer28_0_1_STROKES"/>

<use xlink:href="#Layer28_0_2_STROKES"/>
</g>

<g transform="matrix( 1, 0, 0, 1, 0,0) ">
<use xlink:href="#Layer27_0_FILL"/>
</g>

<g transform="matrix( 1, 0, 0, 1, 0,0) ">
<use xlink:href="#Layer26_0_FILL"/>
</g>

<g transform="matrix( 1, 0, 0, 1, 0,0) ">
<use xlink:href="#Layer25_0_FILL"/>
</g>

<g transform="matrix( 1, 0, 0, 1, 0,0) ">
<use xlink:href="#Layer24_0_FILL"/>
</g>
</svg>
