
<svg xmlns="http://www.w3.org/2000/svg" version="1.1" xmlns:xlink="http://www.w3.org/1999/xlink" preserveAspectRatio="none" x="0px" y="0px" width="100px" height="100px" viewBox="0 0 100 100">
<defs>
<g id="Layer28_0_FILL">
<path fill="#D7D7D7" stroke="none" d="
M 19.6 34.8
Q 13.3 34.8 8.85 39.2 4.4 43.7 4.4 50 4.4 56.35 8.85 60.75 13.3 65.2 19.6 65.2 25.9 65.2 30.4 60.75 34.8 56.35 34.8 50 34.8 43.7 30.4 39.2 25.9 34.8 19.6 34.8 Z"/>
</g>

<g id="Layer27_0_FILL">
<path fill="#D7D7D7" stroke="none" d="
M 60.8 30.4
Q 65.2 25.9 65.2 19.6 65.2 13.3 60.8 8.85 56.3 4.4 50 4.4 43.65 4.4 39.25 8.85 34.8 13.3 34.8 19.6 34.8 25.9 39.25 30.4 43.65 34.8 50 34.8 56.3 34.8 60.8 30.4 Z"/>
</g>

<g id="Layer26_0_FILL">
<path fill="#D7D7D7" stroke="none" d="
M 91.15 60.8
Q 95.6 56.3 95.6 50 95.6 43.65 91.15 39.25 86.7 34.8 80.4 34.8 74.1 34.8 69.6 39.25 65.2 43.65 65.2 50 65.2 56.3 69.6 60.8 74.1 65.2 80.4 65.2 86.7 65.2 91.15 60.8 Z"/>
</g>

<g id="Layer25_0_FILL">
<path fill="#D7D7D7" stroke="none" d="
M 39.2 69.6
Q 34.8 74.1 34.8 80.4 34.8 86.7 39.2 91.15 43.7 95.6 50 95.6 56.35 95.6 60.75 91.15 65.2 86.7 65.2 80.4 65.2 74.1 60.75 69.6 56.35 65.2 50 65.2 43.7 65.2 39.2 69.6 Z"/>
</g>

<g id="Layer24_0_FILL">
<path fill="#DE4949" stroke="none" d="
M 37 137.6
Q 18.35 139.35 1.1 146.65 -16.1 153.8 -30.55 165.8 -45.6 178.2 -56.6 194.25 -67.05 209.55 -72.35 227.4 -77.9 245.75 -77.85 264.85 -77.75 284.2 -72.15 302.95 -66.9 320.75 -56.3 336 -49.2 346.25 -40.55 355 -28.1 367.8 -12.55 376.85 2.55 385.4 19.4 389.25 37.2 393.25 55.35 392.55 73.3 392 90.35 386.8
L 90.3 386.8
Q 106.85 381.5 121.2 371.45 136.95 360.45 149.1 346 161 331.7 168.25 314.6 175.65 297 177.3 278.15 179 259.3 175.85 240.8 172.6 222.2 163.75 205.55 154.65 188.55 141.05 174.8 127.35 160.85 109.95 151.5
L 109.95 151.55
Q 93.6 142.8 75.45 139.4 56.4 135.8 37 137.6
M 49.95 161.85
Q 65.85 161.9 80.95 166.6 95.55 171.1 108.3 179.8 108.75 180.15 109 180.7 109.2 181.25 109.1 181.85 109 182.45 108.6 182.9
L 73.4 218.15 22.45 269.1 -31.85 323.4
Q -32.3 323.8 -32.9 323.9 -33.45 324 -34 323.8 -34.6 323.6 -34.9 323.1 -41.95 313.15 -46.25 301.6 -52.95 283.9 -52.9 264.85 -52.85 244.3 -45 225.45 -37.15 206.6 -22.7 192.1 -13.7 183.05 -2.6 176.35 21.6 161.8 49.95 161.85
M 132.4 206.7
Q 132.8 206.25 133.4 206.15 134 206.05 134.55 206.25 135.1 206.5 135.45 207 141.4 215.65 145.35 225.3 153.15 244.3 152.9 264.85
L 152.9 264.9
Q 152.85 275.35 151 285.55
L 151 285.6
Q 146.85 307.7 133.2 325.65 129.25 330.9 126.55 333.8 122 338.7 116.8 343.35 103.45 355.25 86 361.5 66.5 368.4 45.95 367.6
L 45.9 367.6
Q 43.95 367.5 42 367.4 30.4 366.7 19.25 363.35
L 19.25 363.3
Q 4.7 358.85 -7.8 350.2 -8.3 349.85 -8.5 349.3 -8.7 348.75 -8.6 348.15 -8.5 347.55 -8.05 347.15
L 55.15 283.95 114.6 224.55 132.4 206.7
M 94.1 41.55
Q 91.7697265625 28.358984375 81.85 18.4
L 81.75 18.3
Q 81.750390625 18.3001953125 81.7 18.25
L 81.6 18.15
Q 68.522265625 5.15859375 50 5.15 31.4330078125 5.1564453125 18.3 18.25 5.20859375 31.380859375 5.2 50 5.223828125 62.508984375 11.2 72.6 14.0287109375 77.36796875 18.2 81.55
L 18.3 81.65
Q 18.35 81.7001953125 18.35 81.7
L 18.45 81.8
Q 20.9126953125 84.271484375 23.55 86.3
L 23.6 86.3
Q 35.0125 94.777734375 50 94.8 64.9833984375 94.776171875 76.4 86.3
L 76.45 86.3
Q 79.18359375 84.2376953125 81.7 81.65 81.7947265625 81.608984375 81.85 81.55 82.402734375 80.9625 82.95 80.35 83.044140625 80.3099609375 83.1 80.25 86.43515625 76.6611328125 88.85 72.6
L 88.85 72.6
Q 94.8259765625 62.508984375 94.85 50 94.8521484375 45.579296875 94.1 41.55
M 84.25 43.3
L 84.25 43.35
Q 84.84765625 46.520703125 84.85 50 84.873828125 59.691015625 80.25 67.5
L 80.25 67.45
Q 78.3646484375 70.6388671875 75.75 73.45
L 75.9 73.3
Q 75.1970703125 74.0375 74.5 74.75
L 74.65 74.6
Q 72.6162109375 76.6623046875 70.4 78.3
L 70.45 78.25
Q 61.61640625 84.823828125 50 84.8 38.9390625 84.8212890625 30.4 78.85
L 51.65 57.6 73.6 35.7 78.9 30.35
Q 83 36.24609375 84.25 43.3
M 69.75 21.15
L 57.1 33.8 38.4 52.5 21.2 69.7
Q 20.4595703125 68.6130859375 19.8 67.5 15.1759765625 59.691015625 15.2 50 15.19140625 35.519140625 25.35 25.3 35.566796875 15.14375 50 15.15 61.13984375 15.143359375 69.75 21.15 Z"/>

<path fill="#333333" stroke="none" d="
M 125.85 242.85
L 126.05 236.25
Q 126.05 235.8 125.95 235.35 125.15 231.4 121.85 228.35 121.5 228 121.1 227.8 117.9 226.05 114.6 224.55
L 55.15 283.95
Q 57.5 286.6 60.95 288.3 67.15 291.4 73.75 289.9
L 72.65 306.05
Q 72.65 307.15 72.55 308.35 72.5 308.4 72.55 308.55 72.4 310.95 72.3 313.35
L 72.35 313.5
Q 72.25 315.15 72.2 316.8 72.15 316.85 72.25 316.95 72.3 327.1 80.7 332.9
L 80.6 332.8
Q 85.55 336.5 92.3 336.8 92.6 336.75 92.85 336.75 98.65 336 103.55 333.15 103.7 333.1 103.8 333.05 110.85 329.75 114.15 321.6 114.2 321.45 114.25 321.25
L 127.25 275.4
Q 127.9 274.3 128.45 273.15 133.85 262.4 130.05 251.05 129.95 250.65 129.75 250.35 128.3 246.1 125.85 242.85
M 35.85 185.2
Q 35.4 185 34.9 184.95 30.55 184.15 26.85 185.9 26.45 186.05 26.1 186.35
L 20.95 190.5
Q 16.8 190.45 12.6 191.85 12.25 191.9 11.9 192.05 0.5 195.8 -4.9 206.55 -5.45 207.7 -5.9 208.9
L -34.75 246.85
Q -34.95 247 -35 247.15 -39.55 254.7 -37.85 262.35
L -37.9 262.5
Q -37.15 268.2 -34.2 273.3 -34.15 273.45 -33.95 273.75 -29.8 278.9 -23.9 280.65 -23.8 280.7 -23.75 280.7 -14.15 283.85 -6 277.85 -6 277.8 -5.85 277.8 -4.6 276.75 -3.3 275.7
L -3.3 275.6
Q -1.45 274.1 0.5 272.6 0.55 272.5 0.7 272.45 1.5 271.65 2.35 270.95
L 14.65 260.4
Q 17.1 266 22.45 269.1
L 73.4 218.15
Q 73.1 218 72.8 217.85 70.15 216.5 67.55 215.2
L 56.65 209.7 57.1 202.15
Q 57.15 201.15 56.75 200.3 55 196.6 52.25 194.4 52.1 194.25 51.95 194.2 44.3 189.1 35.85 185.2
M 41.8 22.8
Q 41.6 22.75 41.45 22.7 39.85 22.55 38.55 23.25 38.4 23.35 38.3 23.45
L 36.6 25.1
Q 35.15 25.2 33.65 25.75 33.5 25.8 33.45 25.9 29.45 27.55 27.85 31.5 27.7 31.95 27.6 32.4
L 18.4 46.75 18.3 46.8
Q 16.95 49.65 17.7 52.35
L 17.7 52.4
Q 18.15 54.35 19.3 56.15 19.35 56.15 19.45 56.25 21.1 58 23.25 58.45
L 23.2 58.45
Q 23.6 58.6 24.05 58.7 24.2 58.7 24.45 58.7 27.2 58.9 29.5 57
L 29.5 56.95
Q 29.95 56.55 30.3 56.15 30.35 56.15 30.35 56.1 31 55.5 31.65 54.9
L 31.7 54.85
Q 32 54.55 32.25 54.25
L 36.3 50.15
Q 37.084765625 51.58125 38.4 52.5
L 57.1 33.8
Q 56.4912109375 33.5564453125 55.85 33.3 54.9 32.95 53.9 32.55
L 49.9 30.9 49.85 28.2
Q 49.8 27.85 49.6 27.6 48.9 26.25 47.85 25.55 47.75 25.55 47.7 25.5 44.85 23.95 41.8 22.8
M 74.9 37.25
Q 74.5 36.35 73.6 35.7
L 51.65 57.6
Q 52.4990234375 58.35546875 53.6 58.8 55.95 59.75 58.2 59
L 58.3 64.8
Q 58.35 65.2 58.3 65.6
L 58.3 65.65
Q 58.35 66.55 58.35 67.4 58.35 67.45 58.4 67.5 58.4 68.05 58.45 68.6
L 58.45 68.65
Q 58.7 71.8 61.15 73.65 61.5001953125 73.8689453125 61.85 74.05 63.75 75.25 66.2 75.1 66.25 75.1 66.35 75.15 68.4 74.65 70.1 73.55
L 70.15 73.5
Q 72.6 72.1 73.5 69.1
L 73.55 69 76.9 52.3
Q 77.1 51.9 77.25 51.45 78.85 47.5 77.2 43.55 77.1 43.4 77.1 43.35
L 77.05 43.3
Q 76.4 41.85 75.45 40.75
L 75.3 38.4
Q 75.3 38.25 75.25 38.05 75.1 37.65 74.9 37.25 Z"/>
</g>

<path id="Layer28_0_1_STROKES" stroke="#D7D7D7" stroke-width="5" stroke-linejoin="round" stroke-linecap="round" fill="none" d="
M 95.6 50
Q 95.6 56.35 91.15 60.75 86.7 65.2 80.4 65.2 74.05 65.2 69.65 60.75 65.15 56.35 65.15 50 65.15 43.7 69.65 39.2 74.05 34.8 80.4 34.8 86.7 34.8 91.15 39.2 95.6 43.7 95.6 50 Z
M 60.8 30.4
Q 56.3 34.8 50 34.8 43.65 34.8 39.25 30.4 34.8 25.9 34.8 19.6 34.8 13.3 39.25 8.85 43.65 4.4 50 4.4 56.3 4.4 60.8 8.85 65.2 13.3 65.2 19.6 65.2 25.9 60.8 30.4 Z
M 19.6 34.8
Q 25.9 34.8 30.4 39.2 34.8 43.7 34.8 50 34.8 56.35 30.4 60.75 25.9 65.2 19.6 65.2 13.3 65.2 8.85 60.75 4.4 56.35 4.4 50 4.4 43.7 8.85 39.2 13.3 34.8 19.6 34.8 Z
M 39.25 91.15
Q 34.8 86.7 34.8 80.4 34.8 74.05 39.25 69.65 43.65 65.15 50 65.15 56.3 65.15 60.8 69.65 65.2 74.05 65.2 80.4 65.2 86.7 60.8 91.15 56.3 95.6 50 95.6 43.65 95.6 39.25 91.15 Z"/>

<path id="Layer27_0_1_STROKES" stroke="#D7D7D7" stroke-width="5" stroke-linejoin="round" stroke-linecap="round" fill="none" d="
M 95.6 50
Q 95.6 56.3 91.15 60.8 86.7 65.2 80.4 65.2 74.1 65.2 69.6 60.8 65.2 56.3 65.2 50 65.2 43.65 69.6 39.25 74.1 34.8 80.4 34.8 86.7 34.8 91.15 39.25 95.6 43.65 95.6 50 Z
M 60.8 30.4
Q 56.3 34.8 50 34.8 43.65 34.8 39.25 30.4 34.8 25.9 34.8 19.6 34.8 13.3 39.25 8.85 43.65 4.4 50 4.4 56.3 4.4 60.8 8.85 65.2 13.3 65.2 19.6 65.2 25.9 60.8 30.4 Z
M 8.85 39.25
Q 13.3 34.8 19.6 34.8 25.95 34.8 30.35 39.25 34.85 43.65 34.85 50 34.85 56.3 30.35 60.8 25.95 65.2 19.6 65.2 13.3 65.2 8.85 60.8 4.4 56.3 4.4 50 4.4 43.65 8.85 39.25 Z
M 39.25 91.15
Q 34.8 86.7 34.8 80.4 34.8 74.05 39.25 69.65 43.65 65.15 50 65.15 56.3 65.15 60.8 69.65 65.2 74.05 65.2 80.4 65.2 86.7 60.8 91.15 56.3 95.6 50 95.6 43.65 95.6 39.25 91.15 Z"/>

<path id="Layer26_0_1_STROKES" stroke="#D7D7D7" stroke-width="5" stroke-linejoin="round" stroke-linecap="round" fill="none" d="
M 95.6 50
Q 95.6 56.3 91.15 60.8 86.7 65.2 80.4 65.2 74.1 65.2 69.6 60.8 65.2 56.3 65.2 50 65.2 43.65 69.6 39.25 74.1 34.8 80.4 34.8 86.7 34.8 91.15 39.25 95.6 43.65 95.6 50 Z
M 50 4.4
Q 56.35 4.4 60.75 8.85 65.2 13.3 65.2 19.6 65.2 25.95 60.75 30.35 56.35 34.85 50 34.85 43.7 34.85 39.2 30.35 34.8 25.95 34.8 19.6 34.8 13.3 39.2 8.85 43.7 4.4 50 4.4 Z
M 19.6 34.8
Q 25.95 34.8 30.35 39.25 34.85 43.65 34.85 50 34.85 56.3 30.35 60.8 25.95 65.2 19.6 65.2 13.3 65.2 8.85 60.8 4.4 56.3 4.4 50 4.4 43.65 8.85 39.25 13.3 34.8 19.6 34.8 Z
M 39.2 91.15
Q 34.8 86.7 34.8 80.4 34.8 74.1 39.2 69.6 43.7 65.2 50 65.2 56.35 65.2 60.75 69.6 65.2 74.1 65.2 80.4 65.2 86.7 60.75 91.15 56.35 95.6 50 95.6 43.7 95.6 39.2 91.15 Z"/>

<path id="Layer25_0_1_STROKES" stroke="#D7D7D7" stroke-width="5" stroke-linejoin="round" stroke-linecap="round" fill="none" d="
M 80.4 65.2
Q 74.05 65.2 69.65 60.75 65.15 56.35 65.15 50 65.15 43.7 69.65 39.2 74.05 34.8 80.4 34.8 86.7 34.8 91.15 39.2 95.6 43.7 95.6 50 95.6 56.35 91.15 60.75 86.7 65.2 80.4 65.2 Z
M 65.2 19.6
Q 65.2 25.95 60.75 30.35 56.35 34.85 50 34.85 43.7 34.85 39.2 30.35 34.8 25.95 34.8 19.6 34.8 13.3 39.2 8.85 43.7 4.4 50 4.4 56.35 4.4 60.75 8.85 65.2 13.3 65.2 19.6 Z
M 19.6 65.2
Q 13.3 65.2 8.85 60.75 4.4 56.35 4.4 50 4.4 43.7 8.85 39.2 13.3 34.8 19.6 34.8 25.9 34.8 30.4 39.2 34.8 43.7 34.8 50 34.8 56.35 30.4 60.75 25.9 65.2 19.6 65.2 Z
M 65.2 80.4
Q 65.2 86.7 60.75 91.15 56.35 95.6 50 95.6 43.7 95.6 39.2 91.15 34.8 86.7 34.8 80.4 34.8 74.1 39.2 69.6 43.7 65.2 50 65.2 56.35 65.2 60.75 69.6 65.2 74.1 65.2 80.4 Z"/>
</defs>

<g transform="matrix( 1, 0, 0, 1, 0,0) ">
<use xlink:href="#Layer28_0_FILL"/>

<use xlink:href="#Layer28_0_1_STROKES"/>
</g>

<g transform="matrix( 1, 0, 0, 1, 0,0) ">
<use xlink:href="#Layer27_0_FILL"/>

<use xlink:href="#Layer27_0_1_STROKES"/>
</g>

<g transform="matrix( 1, 0, 0, 1, 0,0) ">
<use xlink:href="#Layer26_0_FILL"/>

<use xlink:href="#Layer26_0_1_STROKES"/>
</g>

<g transform="matrix( 1, 0, 0, 1, 0,0) ">
<use xlink:href="#Layer25_0_FILL"/>

<use xlink:href="#Layer25_0_1_STROKES"/>
</g>

<g transform="matrix( 1, 0, 0, 1, 0,0) ">
<use xlink:href="#Layer24_0_FILL"/>
</g>
</svg>
