
<svg xmlns="http://www.w3.org/2000/svg" version="1.1" xmlns:xlink="http://www.w3.org/1999/xlink" preserveAspectRatio="none" x="0px" y="0px" width="100px" height="100px" viewBox="0 0 100 100">
<defs>
<linearGradient id="Gradient_1" gradientUnits="userSpaceOnUse" x1="42.2625" y1="95.875" x2="86.1375" y2="3.2249999999999943" spreadMethod="pad">
<stop  offset="0%" stop-color="#272727"/>

<stop  offset="100%" stop-color="#727272"/>
</linearGradient>

<linearGradient id="Gradient_2" gradientUnits="userSpaceOnUse" x1="120.35" y1="16.5" x2="120.35" y2="80.9" spreadMethod="pad">
<stop  offset="31.764705882352942%" stop-color="#272727"/>

<stop  offset="100%" stop-color="#575757"/>
</linearGradient>

<g id="Layer40_0_FILL">
<path fill="#1E1E1E" stroke="none" d="
M 92.75 46.8
Q 92.45 31.65 83.1 28.05 45.55 18.7 19.1 21.8 8.35 24.2 7.3 40.2 6.3 56.15 14.05 64.6 21.8 73.1 37.9 76.4 59.55 79.9 81.5 78.55 85.85 76.75 87.8 71.95 90.9 64.45 92.15 55.5 92.55 51.3 92.75 46.8
M 76 33.9
Q 80.05 35.6 79.85 43.4
L 78.15 54.4 76.75 60.75
Q 75.8 64.85 71.25 65.55 43.4 65.15 35.15 63.4 26.95 61.6 22.75 58 18.55 54.3 15.75 49 13 43.65 13.2 37.2 13.35 30.75 18.95 27.9 46.7 25.85 76 33.9 Z"/>

<path fill="#3B3B3B" stroke="none" d="
M 79.85 43.4
Q 80.05 35.6 76 33.9 46.7 25.85 18.95 27.9 13.35 30.75 13.2 37.2 13 43.65 15.75 49 18.55 54.3 22.75 58 26.95 61.6 35.15 63.4 43.4 65.15 71.25 65.55 75.8 64.85 76.75 60.75
L 78.15 54.4 79.85 43.4
M 55.15 36.65
L 54.1 47.9 59.8 48.45 59.5 51.35 50.7 50.55 52.05 36.4 55.15 36.65
M 67.85 40.4
Q 67 40.3 66.5 40.8 66 41.3 65.85 42
L 62.9 41.55
Q 63.05 40.45 63.55 39.7 64 38.9 64.75 38.45 65.45 37.95 66.35 37.75 67.3 37.55 68.3 37.65 69.25 37.75 70.05 38.05 70.85 38.45 71.4 39 72 39.6 72.25 40.45 72.55 41.25 72.45 42.3 72.35 43 72.15 43.55 71.95 44.1 71.65 44.5 71.35 44.95 71 45.25 70.65 45.65 70.25 45.95
L 65.6 49.25 71.8 49.85 71.55 52.5 61.8 51.6 62.1 48.4 68 44
Q 68.45 43.6 68.9 43.15 69.4 42.75 69.45 42.1 69.5 41.4 69.05 40.9 68.55 40.45 67.85 40.4 Z"/>

<path fill="#8C8C8C" stroke="none" d="
M 66.5 40.8
Q 67 40.3 67.85 40.4 68.55 40.45 69.05 40.9 69.5 41.4 69.45 42.1 69.4 42.75 68.9 43.15 68.45 43.6 68 44
L 62.1 48.4 61.8 51.6 71.55 52.5 71.8 49.85 65.6 49.25 70.25 45.95
Q 70.65 45.65 71 45.25 71.35 44.95 71.65 44.5 71.95 44.1 72.15 43.55 72.35 43 72.45 42.3 72.55 41.25 72.25 40.45 72 39.6 71.4 39 70.85 38.45 70.05 38.05 69.25 37.75 68.3 37.65 67.3 37.55 66.35 37.75 65.45 37.95 64.75 38.45 64 38.9 63.55 39.7 63.05 40.45 62.9 41.55
L 65.85 42
Q 66 41.3 66.5 40.8
M 54.1 47.9
L 55.15 36.65 52.05 36.4 50.7 50.55 59.5 51.35 59.8 48.45 54.1 47.9 Z"/>
</g>

<g id="Layer39_0_FILL">
<path fill="#1E1E1E" stroke="none" d="
M 85.95 64.6
Q 93.7 56.15 92.7 40.2 91.65 24.2 80.9 21.8 54.45 18.7 16.9 28.05 7.55 31.65 7.25 46.8 7.45 51.3 7.85 55.5 9.1 64.45 12.2 71.95 14.15 76.75 18.5 78.55 40.45 79.9 62.1 76.4 78.2 73.1 85.95 64.6
M 86.8 37.2
Q 87 43.65 84.25 49 81.45 54.3 77.25 58 73.05 61.6 64.85 63.4 56.6 65.15 28.75 65.55 24.2 64.85 23.25 60.75
L 21.85 54.4 20.15 43.4
Q 19.95 35.6 24 33.9 53.3 25.85 81.05 27.9 86.65 30.75 86.8 37.2 Z"/>

<path fill="#3B3B3B" stroke="none" d="
M 84.25 49
Q 87 43.65 86.8 37.2 86.65 30.75 81.05 27.9 53.3 25.85 24 33.9 19.95 35.6 20.15 43.4
L 21.85 54.4 23.25 60.75
Q 24.2 64.85 28.75 65.55 56.6 65.15 64.85 63.4 73.05 61.6 77.25 58 81.45 54.3 84.25 49
M 43.45 37.05
Q 44.05 36.35 44.9 35.9 45.75 35.45 46.7 35.25 47.7 35.1 48.5 35.2 49.35 35.3 50 35.7 50.7 36.15 51.15 36.85 51.55 37.6 51.65 38.65 51.75 39.35 51.65 39.9 51.55 40.5 51.35 41 51.15 41.5 50.85 41.9 50.6 42.4 50.25 42.8
L 46.4 47.3 52.5 46.1 52.8 48.75 43.15 50.65 42.8 47.45 47.7 41.5
Q 48.05 41.05 48.4 40.45 48.8 39.9 48.7 39.25 48.65 38.55 48.1 38.2 47.55 37.9 46.85 38.05 46 38.2 45.65 38.85 45.25 39.45 45.2 40.2
L 42.25 40.6
Q 42.2 39.45 42.5 38.6 42.8 37.65 43.45 37.05
M 37.55 38.2
Q 38.35 38.55 38.9 39.3 39.35 40.05 39.5 41.3 39.65 42.8 38.95 44 38.35 45.2 36.9 45.75
L 41.05 51.05 37.35 51.75 33.9 46.7 32.35 47 32.95 52.65 29.9 53.2 28.45 39.05 33.8 38.05
Q 34.85 37.8 35.85 37.85 36.85 37.85 37.55 38.2
M 36.15 42.8
Q 36.35 42.5 36.3 41.9 36.25 41.4 36 41.05 35.75 40.8 35.4 40.7 35.05 40.6 34.6 40.6 34.15 40.65 33.8 40.75
L 31.75 41.15 32.1 44.35 33.9 44
Q 34.3 43.9 34.8 43.75 35.2 43.65 35.6 43.45 35.95 43.2 36.15 42.8 Z"/>

<path fill="#8C8C8C" stroke="none" d="
M 38.9 39.3
Q 38.35 38.55 37.55 38.2 36.85 37.85 35.85 37.85 34.85 37.8 33.8 38.05
L 28.45 39.05 29.9 53.2 32.95 52.65 32.35 47 33.9 46.7 37.35 51.75 41.05 51.05 36.9 45.75
Q 38.35 45.2 38.95 44 39.65 42.8 39.5 41.3 39.35 40.05 38.9 39.3
M 36.3 41.9
Q 36.35 42.5 36.15 42.8 35.95 43.2 35.6 43.45 35.2 43.65 34.8 43.75 34.3 43.9 33.9 44
L 32.1 44.35 31.75 41.15 33.8 40.75
Q 34.15 40.65 34.6 40.6 35.05 40.6 35.4 40.7 35.75 40.8 36 41.05 36.25 41.4 36.3 41.9
M 44.9 35.9
Q 44.05 36.35 43.45 37.05 42.8 37.65 42.5 38.6 42.2 39.45 42.25 40.6
L 45.2 40.2
Q 45.25 39.45 45.65 38.85 46 38.2 46.85 38.05 47.55 37.9 48.1 38.2 48.65 38.55 48.7 39.25 48.8 39.9 48.4 40.45 48.05 41.05 47.7 41.5
L 42.8 47.45 43.15 50.65 52.8 48.75 52.5 46.1 46.4 47.3 50.25 42.8
Q 50.6 42.4 50.85 41.9 51.15 41.5 51.35 41 51.55 40.5 51.65 39.9 51.75 39.35 51.65 38.65 51.55 37.6 51.15 36.85 50.7 36.15 50 35.7 49.35 35.3 48.5 35.2 47.7 35.1 46.7 35.25 45.75 35.45 44.9 35.9 Z"/>
</g>

<g id="Layer38_0_FILL">
<path fill="#1E1E1E" stroke="none" d="
M 92.4 41.55
Q 91.55 36.5 87.6 33.8 66.25 27.45 44.1 25.95 27.25 26.4 19.7 30.2 8.65 38.45 6.65 50.8 6.1 57.75 16.2 62.55 41.75 71 80.1 74.1 89.8 74.05 92.4 64.2 94.3 52.15 92.4 41.55
M 75.85 42.35
Q 79.25 44.6 80.25 48.25
L 80.25 62.3
Q 79.25 67.4 75.05 67.55 44.65 64.4 18 57.45 12.05 54.4 12.55 51.6 13.65 46.2 16.7 41.55 19.85 36.6 24.55 34.8 48.25 36.4 75.85 42.35 Z"/>

<path fill="#3B3B3B" stroke="none" d="
M 80.25 48.25
Q 79.25 44.6 75.85 42.35 48.25 36.4 24.55 34.8 19.85 36.6 16.7 41.55 13.65 46.2 12.55 51.6 12.05 54.4 18 57.45 44.65 64.4 75.05 67.55 79.25 67.4 80.25 62.3
L 80.25 48.25
M 53.45 45.1
L 56.6 45.5 56.6 56.75 62.35 57.55 62.35 60.45 53.45 59.25 53.45 45.1
M 69.5 47.2
L 72.3 47.6 72.3 61.75 69.4 61.35 69.4 50.55 66.55 52.7 64.85 50.5 69.5 47.2 Z"/>

<path fill="#8C8C8C" stroke="none" d="
M 72.3 47.6
L 69.5 47.2 64.85 50.5 66.55 52.7 69.4 50.55 69.4 61.35 72.3 61.75 72.3 47.6
M 56.6 45.5
L 53.45 45.1 53.45 59.25 62.35 60.45 62.35 57.55 56.6 56.75 56.6 45.5 Z"/>
</g>

<g id="Layer37_0_FILL">
<path fill="#1E1E1E" stroke="none" d="
M 83.8 62.55
Q 93.9 57.75 93.35 50.8 91.35 38.45 80.3 30.2 72.75 26.4 55.9 25.95 33.75 27.45 12.4 33.8 8.45 36.5 7.6 41.55 5.7 52.15 7.6 64.2 10.2 74.05 19.9 74.1 58.2470703125 71.0236328125 83.8 62.55
M 87.45 51.6
Q 87.9373046875 54.4177734375 82 57.45 55.355078125 64.380078125 24.95 67.55 20.7263671875 67.4080078125 19.75 62.3
L 19.75 48.25
Q 20.77421875 44.5763671875 24.15 42.35 51.7353515625 36.3986328125 75.45 34.8 80.1578125 36.6099609375 83.3 41.55 86.366796875 46.205859375 87.45 51.6 Z"/>

<path fill="#3B3B3B" stroke="none" d="
M 82 57.45
Q 87.9373046875 54.4177734375 87.45 51.6 86.366796875 46.205859375 83.3 41.55 80.1578125 36.6099609375 75.45 34.8 51.7353515625 36.3986328125 24.15 42.35 20.77421875 44.5763671875 19.75 48.25
L 19.75 62.3
Q 20.7263671875 67.4080078125 24.95 67.55 55.355078125 64.380078125 82 57.45
M 46.05 44.5
L 48.85 44.05 48.85 58.2 45.95 58.65 45.95 47.85 43.1 50.8 41.4 49.1 46.05 44.5
M 36.9 46.8
Q 37.65 47.15 38.1 47.9 38.5 48.7 38.5 49.95 38.5 51.45 37.7 52.6 36.95 53.8 35.45 54.25
L 39.05 59.7 35.3 60.3 32.35 55.1 30.8 55.35 30.8 61 27.7 61.45 27.7 47.3 33.15 46.45
Q 34.25 46.3 35.2 46.35 36.2 46.4 36.9 46.8
M 33.7 49.1
Q 33.25 49.1 32.85 49.15
L 30.8 49.5 30.8 52.7 32.65 52.4
Q 33.05 52.35 33.55 52.2 34 52.15 34.4 51.95 34.75 51.7 35 51.35 35.25 51 35.25 50.4 35.25 49.9 35.05 49.6 34.8 49.3 34.5 49.15 34.15 49.05 33.7 49.1 Z"/>

<path fill="#8C8C8C" stroke="none" d="
M 38.1 47.9
Q 37.65 47.15 36.9 46.8 36.2 46.4 35.2 46.35 34.25 46.3 33.15 46.45
L 27.7 47.3 27.7 61.45 30.8 61 30.8 55.35 32.35 55.1 35.3 60.3 39.05 59.7 35.45 54.25
Q 36.95 53.8 37.7 52.6 38.5 51.45 38.5 49.95 38.5 48.7 38.1 47.9
M 32.85 49.15
Q 33.25 49.1 33.7 49.1 34.15 49.05 34.5 49.15 34.8 49.3 35.05 49.6 35.25 49.9 35.25 50.4 35.25 51 35 51.35 34.75 51.7 34.4 51.95 34 52.15 33.55 52.2 33.05 52.35 32.65 52.4
L 30.8 52.7 30.8 49.5 32.85 49.15
M 48.85 44.05
L 46.05 44.5 41.4 49.1 43.1 50.8 45.95 47.85 45.95 58.65 48.85 58.2 48.85 44.05 Z"/>
</g>

<g id="Layer36_0_FILL">
<path fill="url(#Gradient_1)" stroke="none" d="
M 21.3 16.55
Q 22.053515625 17.3107421875 22.05 18.35
L 22.05 47.05
Q 22.0654296875 47.2427734375 22.05 47.45 22.0037109375 48 22 48.55 22.0052734375 60.1583984375 30.2 68.3 38.3916015625 76.5447265625 50 76.55 59.1978515625 76.546875 66.25 71.35
L 20.7 8.9 12.8 8.9
Q 9.7388671875 8.9 9.05 11.3 8.919140625 11.879296875 8.9 12.6
L 8.9 87.45
Q 8.919140625 88.170703125 9.05 88.75 9.7388671875 91.15 12.8 91.15
L 80.65 91.15 69.2 75.45
Q 60.8767578125 81.553125 50 81.55 36.3083984375 81.5552734375 26.65 71.85 16.9947265625 62.2416015625 17 48.55 16.9962890625 47.8 17.05 47.05
L 17.05 18.35
Q 17.0462890625 17.3107421875 17.75 16.55 18.5107421875 15.8462890625 19.55 15.85 20.5890625 15.8462890625 21.3 16.55 Z"/>

<path fill="#272727" stroke="none" d="
M 82.3 16.55
Q 83.053515625 17.3107421875 83.05 18.35
L 83.05 47.3
Q 83.05 47.940625 83.05 48.55 83.0552734375 62.2416015625 73.35 71.85 71.3853515625 73.8630859375 69.2 75.45
L 80.65 91.15 87.25 91.15
Q 90.3115234375 91.15 90.95 88.75 91.130859375 88.1703125 91.15 87.45
L 91.15 12.6
Q 91.130859375 11.8796875 90.95 11.3 90.3115234375 8.9 87.25 8.9
L 20.7 8.9 66.25 71.35
Q 68.11796875 70.03359375 69.8 68.3 78.0447265625 60.1583984375 78.05 48.55 78.05 47.940625 78.05 47.3
L 78.05 18.35
Q 78.0462890625 17.3107421875 78.75 16.55 79.5107421875 15.8462890625 80.55 15.85 81.5890625 15.8462890625 82.3 16.55 Z"/>

<path fill="url(#Gradient_2)" stroke="none" d="
M 83.05 18.35
Q 83.053515625 17.3107421875 82.3 16.55 81.5890625 15.8462890625 80.55 15.85 79.5107421875 15.8462890625 78.75 16.55 78.0462890625 17.3107421875 78.05 18.35
L 78.05 47.3
Q 78.05 47.940625 78.05 48.55 78.0447265625 60.1583984375 69.8 68.3 68.11796875 70.03359375 66.25 71.35 59.1978515625 76.546875 50 76.55 38.3916015625 76.5447265625 30.2 68.3 22.0052734375 60.1583984375 22 48.55 22.0037109375 48 22.05 47.45 22.0654296875 47.2427734375 22.05 47.05
L 22.05 18.35
Q 22.053515625 17.3107421875 21.3 16.55 20.5890625 15.8462890625 19.55 15.85 18.5107421875 15.8462890625 17.75 16.55 17.0462890625 17.3107421875 17.05 18.35
L 17.05 47.05
Q 16.9962890625 47.8 17 48.55 16.9947265625 62.2416015625 26.65 71.85 36.3083984375 81.5552734375 50 81.55 60.8767578125 81.553125 69.2 75.45 71.3853515625 73.8630859375 73.35 71.85 83.0552734375 62.2416015625 83.05 48.55 83.05 47.940625 83.05 47.3
L 83.05 18.35 Z"/>
</g>

<g id="Layer35_0_FILL">
<path fill="#151515" stroke="none" d="
M 65.1 65.05
L 65.1 73.2 65.1 74.75 65.1 87.65
Q 72.5 84.7 78.55 78.6 84.65 72.5 87.65 65.05
L 65.1 65.05
M 34.95 65.05
L 33.9 65.05 12.35 65.05
Q 15.3 72.5 21.4 78.6 27.5 84.7 34.95 87.65
L 34.95 65.05
M 34.95 12.35
Q 27.5 15.3 21.4 21.4 15.3 27.5 12.35 34.9
L 34.95 34.9 34.95 12.35
M 78.55 21.4
Q 72.5 15.35 65.1 12.35
L 65.1 25.25 65.1 26.8 65.1 34.9 87.6 34.9
Q 84.65 27.5 78.55 21.4 Z"/>

<path fill="#F5F5F5" stroke="none" d="
M 39.9 40.5
Q 37.8 42.4 34.95 42.4
L 14.2 42.4
Q 13 49.95 14.2 57.55
L 34.95 57.55
Q 37.7 57.55 39.7 59.25
L 39.95 59
Q 45.55 49.75 39.9 40.5 Z"/>

<path fill="#D7D7D7" stroke="none" d="
M 12.35 34.9
L 8.15 34.9
Q 4.05 49.95 8.15 65.05
L 12.35 65.05 33.9 65.05 39.7 59.25
Q 37.7 57.55 34.95 57.55
L 14.2 57.55
Q 13 49.95 14.2 42.4
L 34.95 42.4
Q 37.8 42.4 39.9 40.5
L 39.95 40.5 34.95 34.9 12.35 34.9 Z"/>

<path fill="#3B3B3B" stroke="none" d="
M 85.8 57.55
Q 87 49.95 85.8 42.4
L 65.1 42.4
Q 62 42.4 59.8 40.2 57.6 38 57.6 34.9
L 57.6 14.2
Q 50.05 13 42.45 14.2
L 42.45 34.9
Q 42.45 38 40.25 40.2 40.1 40.35 39.95 40.5
L 39.9 40.5
Q 45.55 49.75 39.95 59
L 39.7 59.25
Q 40 59.5 40.25 59.75 42.45 61.95 42.45 65.05
L 42.45 85.8
Q 50.05 87 57.6 85.8
L 57.6 65.05
Q 57.6 61.95 59.8 59.75 62 57.55 65.1 57.55
L 85.8 57.55 Z"/>

<path fill="#242424" stroke="none" d="
M 91.85 34.9
L 87.6 34.9 65.1 34.9 65.1 26.8 65.1 25.25 65.1 12.35 65.1 8.15
Q 50.05 4.05 34.95 8.15
L 34.95 12.35 34.95 34.9 39.95 40.5
Q 40.1 40.35 40.25 40.2 42.45 38 42.45 34.9
L 42.45 14.2
Q 50.05 13 57.6 14.2
L 57.6 34.9
Q 57.6 38 59.8 40.2 62 42.4 65.1 42.4
L 85.8 42.4
Q 87 49.95 85.8 57.55
L 65.1 57.55
Q 62 57.55 59.8 59.75 57.6 61.95 57.6 65.05
L 57.6 85.8
Q 50.05 87 42.45 85.8
L 42.45 65.05
Q 42.45 61.95 40.25 59.75 40 59.5 39.7 59.25
L 33.9 65.05 34.95 65.05 34.95 87.65 34.95 91.85
Q 50.05 95.95 65.1 91.85
L 65.1 87.65 65.1 74.75 65.1 73.2 65.1 65.05 87.65 65.05 91.85 65.05
Q 95.95 49.95 91.85 34.9 Z"/>
</g>

<g id="Layer34_0_FILL">
<path fill="#F5F5F5" stroke="none" d="
M 57.55 65.05
Q 57.55 62.3 59.25 60.3
L 59 60.05
Q 49.75 54.45 40.5 60.1 42.4 62.2 42.4 65.05
L 42.4 85.8
Q 49.95 87 57.55 85.8
L 57.55 65.05 Z"/>

<path fill="#151515" stroke="none" d="
M 65.05 65.05
L 65.05 66.1 65.05 87.65
Q 72.5 84.7 78.6 78.6 84.7 72.5 87.65 65.05
L 65.05 65.05
M 12.35 65.05
Q 15.3 72.5 21.4 78.6 27.5 84.7 34.9 87.65
L 34.9 65.05 12.35 65.05
M 34.9 12.4
Q 27.5 15.35 21.4 21.45 15.35 27.5 12.35 34.9
L 25.25 34.9 26.8 34.9 34.9 34.9 34.9 12.4
M 78.6 21.45
Q 72.5 15.35 65.05 12.35
L 65.05 34.9 73.2 34.9 74.75 34.9 87.65 34.9
Q 84.7 27.5 78.6 21.45 Z"/>

<path fill="#D7D7D7" stroke="none" d="
M 34.9 87.65
L 34.9 91.85
Q 49.95 95.95 65.05 91.85
L 65.05 87.65 65.05 66.1 59.25 60.3
Q 57.55 62.3 57.55 65.05
L 57.55 85.8
Q 49.95 87 42.4 85.8
L 42.4 65.05
Q 42.4 62.2 40.5 60.1
L 40.5 60.05 34.9 65.05 34.9 87.65 Z"/>

<path fill="#3B3B3B" stroke="none" d="
M 85.8 57.55
Q 87 49.95 85.8 42.4
L 65.05 42.4
Q 61.95 42.4 59.75 40.2 57.55 38 57.55 34.9
L 57.55 14.2
Q 49.95 13 42.4 14.2
L 42.4 34.9
Q 42.4 38 40.2 40.2 38 42.4 34.9 42.4
L 14.2 42.4
Q 13 49.95 14.2 57.55
L 34.9 57.55
Q 38 57.55 40.2 59.75 40.35 59.9 40.5 60.05
L 40.5 60.1
Q 49.75 54.45 59 60.05
L 59.25 60.3
Q 59.5 60 59.75 59.75 61.95 57.55 65.05 57.55
L 85.8 57.55 Z"/>

<path fill="#242424" stroke="none" d="
M 91.85 34.9
L 87.65 34.9 74.75 34.9 73.2 34.9 65.05 34.9 65.05 12.35 65.05 8.15
Q 49.95 4.05 34.9 8.15
L 34.9 12.4 34.9 34.9 26.8 34.9 25.25 34.9 12.35 34.9 8.15 34.9
Q 4.05 49.95 8.15 65.05
L 12.35 65.05 34.9 65.05 40.5 60.05
Q 40.35 59.9 40.2 59.75 38 57.55 34.9 57.55
L 14.2 57.55
Q 13 49.95 14.2 42.4
L 34.9 42.4
Q 38 42.4 40.2 40.2 42.4 38 42.4 34.9
L 42.4 14.2
Q 49.95 13 57.55 14.2
L 57.55 34.9
Q 57.55 38 59.75 40.2 61.95 42.4 65.05 42.4
L 85.8 42.4
Q 87 49.95 85.8 57.55
L 65.05 57.55
Q 61.95 57.55 59.75 59.75 59.5 60 59.25 60.3
L 65.05 66.1 65.05 65.05 87.65 65.05 91.85 65.05
Q 95.95 49.95 91.85 34.9 Z"/>
</g>

<g id="Layer33_0_FILL">
<path fill="#151515" stroke="none" d="
M 65.05 87.65
Q 72.5 84.7 78.6 78.6 84.7 72.5 87.65 65.1
L 65.05 65.1 65.05 87.65
M 34.9 73.2
L 34.9 65.1 12.4 65.1
Q 15.35 72.5 21.45 78.6 27.5 84.65 34.9 87.65
L 34.9 74.75 34.9 73.2
M 34.9 12.35
Q 27.5 15.3 21.45 21.4 15.35 27.5 12.35 34.95
L 34.9 34.95 34.9 26.8 34.9 25.25 34.9 12.35
M 78.6 21.4
Q 72.5 15.3 65.05 12.35
L 65.05 34.95 66.1 34.95 87.65 34.95
Q 84.7 27.5 78.6 21.4 Z"/>

<path fill="#3B3B3B" stroke="none" d="
M 57.55 14.2
Q 49.95 13 42.4 14.2
L 42.4 34.95
Q 42.4 38.05 40.2 40.25 38 42.45 34.9 42.45
L 14.2 42.45
Q 13 50.05 14.2 57.6
L 34.9 57.6
Q 38 57.6 40.2 59.8 42.4 62 42.4 65.1
L 42.4 85.8
Q 49.95 87 57.55 85.8
L 57.55 65.1
Q 57.55 62 59.75 59.8 59.9 59.65 60.05 59.5
L 60.1 59.5
Q 54.45 50.25 60.05 41
L 60.3 40.75
Q 60 40.5 59.75 40.25 57.55 38.05 57.55 34.95
L 57.55 14.2 Z"/>

<path fill="#242424" stroke="none" d="
M 65.05 12.35
L 65.05 8.15
Q 49.95 4.05 34.9 8.15
L 34.9 12.35 34.9 25.25 34.9 26.8 34.9 34.95 12.35 34.95 8.15 34.95
Q 4.05 50.05 8.15 65.1
L 12.4 65.1 34.9 65.1 34.9 73.2 34.9 74.75 34.9 87.65 34.9 91.85
Q 49.95 95.95 65.05 91.85
L 65.05 87.65 65.05 65.1 60.05 59.5
Q 59.9 59.65 59.75 59.8 57.55 62 57.55 65.1
L 57.55 85.8
Q 49.95 87 42.4 85.8
L 42.4 65.1
Q 42.4 62 40.2 59.8 38 57.6 34.9 57.6
L 14.2 57.6
Q 13 50.05 14.2 42.45
L 34.9 42.45
Q 38 42.45 40.2 40.25 42.4 38.05 42.4 34.95
L 42.4 14.2
Q 49.95 13 57.55 14.2
L 57.55 34.95
Q 57.55 38.05 59.75 40.25 60 40.5 60.3 40.75
L 66.1 34.95 65.05 34.95 65.05 12.35 Z"/>

<path fill="#F5F5F5" stroke="none" d="
M 85.8 57.6
Q 87 50.05 85.8 42.45
L 65.05 42.45
Q 62.3 42.45 60.3 40.75
L 60.05 41
Q 54.45 50.25 60.1 59.5 62.2 57.6 65.05 57.6
L 85.8 57.6 Z"/>

<path fill="#D7D7D7" stroke="none" d="
M 91.85 34.95
L 87.65 34.95 66.1 34.95 60.3 40.75
Q 62.3 42.45 65.05 42.45
L 85.8 42.45
Q 87 50.05 85.8 57.6
L 65.05 57.6
Q 62.2 57.6 60.1 59.5
L 60.05 59.5 65.05 65.1 87.65 65.1 91.85 65.1
Q 95.95 50.05 91.85 34.95 Z"/>
</g>

<g id="Layer32_0_FILL">
<path fill="#151515" stroke="none" d="
M 74.75 65.1
L 73.2 65.1 65.1 65.1 65.1 87.6
Q 72.4994140625 84.6505859375 78.6 78.55 84.669921875 72.480078125 87.6 65.1
L 74.75 65.1
M 34.95 65.1
L 26.8 65.1 25.25 65.1 12.35 65.1
Q 15.304296875 72.480078125 21.4 78.55 27.52109375 84.67109375 34.95 87.6
L 34.95 65.1
M 34.95 12.3
Q 27.52109375 15.27890625 21.4 21.4 15.27890625 27.52109375 12.3 34.95
L 34.95 34.95 34.95 33.9 34.95 12.3
M 78.6 21.4
Q 72.4994140625 15.2994140625 65.1 12.35
L 65.1 34.95 87.65 34.95
Q 84.6953125 27.52109375 78.6 21.4 Z"/>

<path fill="#F5F5F5" stroke="none" d="
M 57.6 14.2
Q 50.032421875 13.0115234375 42.45 14.2
L 42.45 34.95
Q 42.4484375 37.6771484375 40.75 39.7
L 41 39.95
Q 50.2375 45.54375 59.45 39.9 57.6013671875 37.807421875 57.6 34.95
L 57.6 14.2 Z"/>

<path fill="#D7D7D7" stroke="none" d="
M 65.1 12.35
L 65.1 8.15
Q 50.05 4.05 34.95 8.15
L 34.95 12.3 34.95 33.9 40.75 39.7
Q 42.4484375 37.6771484375 42.45 34.95
L 42.45 14.2
Q 50.032421875 13.0115234375 57.6 14.2
L 57.6 34.95
Q 57.6013671875 37.807421875 59.45 39.9 59.4802734375 39.90625 59.45 39.9
L 65.1 34.95 65.1 12.35 Z"/>

<path fill="#3B3B3B" stroke="none" d="
M 85.8 57.6
Q 86.9927734375 50.032421875 85.8 42.45
L 65.1 42.45
Q 61.994921875 42.4482421875 59.8 40.25 59.6310546875 40.08125 59.45 39.9 59.4802734375 39.90625 59.45 39.9 50.2375 45.54375 41 39.95
L 40.75 39.7
Q 40.517578125 39.9828125 40.25 40.25 38.0548828125 42.4482421875 34.95 42.45
L 14.2 42.45
Q 13.0072265625 50.032421875 14.2 57.6
L 34.95 57.6
Q 38.0548828125 57.6015625 40.25 59.8 42.4482421875 61.994921875 42.45 65.1
L 42.45 85.8
Q 50.032421875 86.9927734375 57.6 85.8
L 57.6 65.1
Q 57.6015625 61.994921875 59.8 59.8 61.994921875 57.6015625 65.1 57.6
L 85.8 57.6 Z"/>

<path fill="#242424" stroke="none" d="
M 91.85 34.95
L 87.65 34.95 65.1 34.95 59.45 39.9
Q 59.6310546875 40.08125 59.8 40.25 61.994921875 42.4482421875 65.1 42.45
L 85.8 42.45
Q 86.9927734375 50.032421875 85.8 57.6
L 65.1 57.6
Q 61.994921875 57.6015625 59.8 59.8 57.6015625 61.994921875 57.6 65.1
L 57.6 85.8
Q 50.032421875 86.9927734375 42.45 85.8
L 42.45 65.1
Q 42.4482421875 61.994921875 40.25 59.8 38.0548828125 57.6015625 34.95 57.6
L 14.2 57.6
Q 13.0072265625 50.032421875 14.2 42.45
L 34.95 42.45
Q 38.0548828125 42.4482421875 40.25 40.25 40.517578125 39.9828125 40.75 39.7
L 34.95 33.9 34.95 34.95 12.3 34.95 8.15 34.95
Q 4.05 50.05 8.15 65.1
L 12.35 65.1 25.25 65.1 26.8 65.1 34.95 65.1 34.95 87.6 34.95 91.85
Q 50.05 95.95 65.1 91.85
L 65.1 87.6 65.1 65.1 73.2 65.1 74.75 65.1 87.6 65.1 91.85 65.1
Q 95.95 50.05 91.85 34.95 Z"/>
</g>

<g id="Layer31_0_FILL">
<path fill="#151515" stroke="none" d="
M 74.75 65.1
L 73.2 65.1 65.1 65.1 65.1 87.6
Q 72.4994140625 84.6505859375 78.6 78.55 84.669921875 72.480078125 87.6 65.1
L 74.75 65.1
M 34.95 65.1
L 26.8 65.1 25.25 65.1 12.35 65.1
Q 15.304296875 72.480078125 21.4 78.55 27.52109375 84.67109375 34.95 87.6
L 34.95 65.1
M 34.95 34.95
L 34.95 12.3
Q 27.52109375 15.27890625 21.4 21.4 15.27890625 27.52109375 12.3 34.95
L 34.95 34.95
M 78.6 21.4
Q 72.4994140625 15.2994140625 65.1 12.35
L 65.1 25.25 65.1 26.8 65.1 34.95 87.65 34.95
Q 84.6953125 27.52109375 78.6 21.4 Z"/>

<path fill="#242424" stroke="none" d="
M 91.85 34.95
L 87.65 34.95 65.1 34.95 65.1 26.8 65.1 25.25 65.1 12.35 65.1 8.15
Q 50.05 4.05 34.95 8.15
L 34.95 12.3 34.95 34.95 12.3 34.95 8.15 34.95
Q 4.05 50.05 8.15 65.1
L 12.35 65.1 25.25 65.1 26.8 65.1 34.95 65.1 34.95 87.6 34.95 91.85
Q 50.05 95.95 65.1 91.85
L 65.1 87.6 65.1 65.1 73.2 65.1 74.75 65.1 87.6 65.1 91.85 65.1
Q 95.95 50.05 91.85 34.95
M 85.8 42.45
Q 86.9927734375 50.032421875 85.8 57.6
L 65.1 57.6
Q 61.994921875 57.6015625 59.8 59.8 57.6015625 61.994921875 57.6 65.1
L 57.6 85.8
Q 50.032421875 86.9927734375 42.45 85.8
L 42.45 65.1
Q 42.4482421875 61.994921875 40.25 59.8 38.0548828125 57.6015625 34.95 57.6
L 14.2 57.6
Q 13.0072265625 50.032421875 14.2 42.45
L 34.95 42.45
Q 38.0548828125 42.4482421875 40.25 40.25 42.4482421875 38.0548828125 42.45 34.95
L 42.45 14.2
Q 50.032421875 13.0115234375 57.6 14.2
L 57.6 34.95
Q 57.6015625 38.0548828125 59.8 40.25 61.994921875 42.4482421875 65.1 42.45
L 85.8 42.45 Z"/>

<path fill="#3B3B3B" stroke="none" d="
M 85.8 57.6
Q 86.9927734375 50.032421875 85.8 42.45
L 65.1 42.45
Q 61.994921875 42.4482421875 59.8 40.25 57.6015625 38.0548828125 57.6 34.95
L 57.6 14.2
Q 50.032421875 13.0115234375 42.45 14.2
L 42.45 34.95
Q 42.4482421875 38.0548828125 40.25 40.25 38.0548828125 42.4482421875 34.95 42.45
L 14.2 42.45
Q 13.0072265625 50.032421875 14.2 57.6
L 34.95 57.6
Q 38.0548828125 57.6015625 40.25 59.8 42.4482421875 61.994921875 42.45 65.1
L 42.45 85.8
Q 50.032421875 86.9927734375 57.6 85.8
L 57.6 65.1
Q 57.6015625 61.994921875 59.8 59.8 61.994921875 57.6015625 65.1 57.6
L 85.8 57.6 Z"/>
</g>

<g id="Layer30_0_FILL">
<path fill="#242424" stroke="none" d="
M 93.75 50.85
Q 93.75 50.4267578125 93.75 50 93.75 42.5279296875 91.55 35.95 88.4658203125 26.5951171875 80.95 19.05 68.1 6.25 50 6.25 31.9 6.25 19.1 19.05 6.3 31.9 6.3 50 6.3 68.1 19.1 80.9 31.9 93.7 50 93.7 68.1 93.7 80.95 80.9 93.4482421875 68.4017578125 93.75 50.85
M 83.05 50
Q 83.05 50.426953125 83.05 50.85 82.746484375 63.953515625 73.35 73.35 63.65 83 50 83 36.3 83 26.65 73.35 16.95 63.65 16.95 50 16.95 36.3 26.65 26.6 36.3 16.9 50 16.9 63.65 16.9 73.35 26.6 77.634765625 30.884765625 80 35.95 83.05 42.3515625 83.05 50 Z"/>

<path fill="#3B3B3B" stroke="none" d="
M 83.05 50.85
Q 83.05 50.426953125 83.05 50 83.05 42.3515625 80 35.95 77.634765625 30.884765625 73.35 26.6 63.65 16.9 50 16.9 36.3 16.9 26.65 26.6 16.95 36.3 16.95 50 16.95 63.65 26.65 73.35 36.3 83 50 83 63.65 83 73.35 73.35 82.746484375 63.953515625 83.05 50.85
M 67.6 32.35
Q 69.3275390625 34.0658203125 70.65 35.95 74.95 42.0828125 74.95 50 74.95 50.427734375 74.9 50.85 74.644921875 60.603125 67.6 67.6 60.3 74.9 50 74.9 39.65 74.9 32.35 67.6 25.05 60.3 25.05 50 25.05 39.65 32.35 32.35 39.65 25 50 25 60.3 25 67.6 32.35 Z"/>

<path fill="#535353" stroke="none" d="
M 70.65 35.95
Q 69.3275390625 34.0658203125 67.6 32.35 60.3 25 50 25 39.65 25 32.35 32.35 25.05 39.65 25.05 50 25.05 60.3 32.35 67.6 39.65 74.9 50 74.9 60.3 74.9 67.6 67.6 74.644921875 60.603125 74.9 50.85 74.95 50.427734375 74.95 50 74.95 42.0828125 70.65 35.95
M 41.9 37.2
L 50.55 37.2
Q 52.3 37.2 53.95 37.55 55.6 37.9 56.9 38.7 58.2 39.5 59 40.85 59.75 42.25 59.75 44.35 59.75 47.05 58.25 48.85 56.8 50.65 54 51.05
L 60.6 62 55.3 62 49.55 51.5 46.35 51.5 46.35 62 41.9 62 41.9 37.2
M 46.35 47.75
L 49.75 47.75
Q 50.7 47.75 51.65 47.65 52.6 47.55 53.4 47.2 54.15 46.9 54.65 46.2 55.15 45.5 55.15 44.3 55.15 43.15 54.7 42.5 54.25 41.85 53.5 41.55 52.75 41.2 51.9 41.1 51 41 50.15 41
L 46.35 41 46.35 47.75 Z"/>

<path fill="#8C8C8C" stroke="none" d="
M 50.55 37.2
L 41.9 37.2 41.9 62 46.35 62 46.35 51.5 49.55 51.5 55.3 62 60.6 62 54 51.05
Q 56.8 50.65 58.25 48.85 59.75 47.05 59.75 44.35 59.75 42.25 59 40.85 58.2 39.5 56.9 38.7 55.6 37.9 53.95 37.55 52.3 37.2 50.55 37.2
M 49.75 47.75
L 46.35 47.75 46.35 41 50.15 41
Q 51 41 51.9 41.1 52.75 41.2 53.5 41.55 54.25 41.85 54.7 42.5 55.15 43.15 55.15 44.3 55.15 45.5 54.65 46.2 54.15 46.9 53.4 47.2 52.6 47.55 51.65 47.65 50.7 47.75 49.75 47.75 Z"/>
</g>

<g id="Layer29_0_FILL">
<path fill="#242424" stroke="none" d="
M 80.95 19.05
Q 68.1 6.25 50 6.25 31.9 6.25 19.1 19.05 6.3 31.9 6.3 50 6.3 68.1 19.1 80.9 31.9 93.7 50 93.7 68.1 93.7 80.95 80.9 93.75 68.1 93.75 50 93.75 31.9 80.95 19.05
M 50 16.9
Q 63.65 16.9 73.35 26.6 83.05 36.3 83.05 50 83.05 63.65 73.35 73.35 63.65 83 50 83 36.3 83 26.65 73.35 16.95 63.65 16.95 50 16.95 36.3 26.65 26.6 36.3 16.9 50 16.9 Z"/>

<path fill="#3B3B3B" stroke="none" d="
M 73.35 26.6
Q 63.65 16.9 50 16.9 36.3 16.9 26.65 26.6 16.95 36.3 16.95 50 16.95 63.65 26.65 73.35 36.3 83 50 83 63.65 83 73.35 73.35 83.05 63.65 83.05 50 83.05 36.3 73.35 26.6
M 50 25
Q 60.3 25 67.6 32.35 74.95 39.65 74.95 50 74.95 60.3 67.6 67.6 60.3 74.9 50 74.9 39.65 74.9 32.35 67.6 25.05 60.3 25.05 50 25.05 39.65 32.35 32.35 39.65 25 50 25 Z"/>

<path fill="#535353" stroke="none" d="
M 67.6 32.35
Q 60.3 25 50 25 39.65 25 32.35 32.35 25.05 39.65 25.05 50 25.05 60.3 32.35 67.6 39.65 74.9 50 74.9 60.3 74.9 67.6 67.6 74.95 60.3 74.95 50 74.95 39.65 67.6 32.35
M 43.85 37.2
L 48.3 37.2 48.3 58 58.8 58 58.8 62 43.85 62 43.85 37.2 Z"/>

<path fill="#8C8C8C" stroke="none" d="
M 48.3 37.2
L 43.85 37.2 43.85 62 58.8 62 58.8 58 48.3 58 48.3 37.2 Z"/>
</g>

<g id="Layer28_0_FILL">
<path fill="#000000" stroke="none" d="
M 91.95 52.45
Q 92.0001953125 51.2380859375 92 50 92.000390625 44.5794921875 90.8 39.65 88.14765625 28.7162109375 79.6 20.2 79.4958984375 20.0982421875 79.45 19.95 67.325390625 8.046875 50 8.05 32.5546875 8.0458984375 20.15 20.2 7.9466796875 32.5548828125 7.95 50 7.947265625 67.394921875 20.15 79.7 20.223046875 79.772265625 20.25 79.85 32.632421875 92.0029296875 50 92 67.394140625 92.0015625 79.6 79.75 79.655078125 79.68984375 79.7 79.65
L 79.75 79.6
Q 91.12890625 68.219140625 91.95 52.45
M 87.35 50
Q 87.35 51.239453125 87.25 52.45 86.466796875 66.3365234375 76.35 76.45 65.4556640625 87.3478515625 50 87.35 34.5453125 87.3474609375 23.55 76.45 12.65234375 65.4546875 12.65 50 12.65234375 34.6255859375 23.4 23.7 23.4736328125 23.62421875 23.55 23.55 34.5453125 12.65234375 50 12.65 65.4556640625 12.6515625 76.35 23.6 83.466015625 30.6810546875 85.95 39.65 87.349609375 44.544140625 87.35 50 Z"/>

<path fill="#1E1E1E" stroke="none" d="
M 87.25 52.45
Q 87.35 51.239453125 87.35 50 87.349609375 44.544140625 85.95 39.65 83.466015625 30.6810546875 76.35 23.6 65.4556640625 12.6515625 50 12.65 34.5453125 12.65234375 23.55 23.55 23.4736328125 23.62421875 23.4 23.7 12.65234375 34.6255859375 12.65 50 12.65234375 65.4546875 23.55 76.45 34.5453125 87.3474609375 50 87.35 65.4556640625 87.3478515625 76.35 76.45 86.466796875 66.3365234375 87.25 52.45
M 82.35 50
Q 82.35 51.3 82.3 52.55 81.45 64.3 72.9 72.9 63.4 82.35 50 82.35 36.65 82.35 27.25 73 27.15 72.9 27.1 72.85 17.7 63.3 17.7 50 17.7 36.55 27.1 27.1 36.55 17.7 50 17.7 63.3 17.7 72.85 27.1 72.9 27.15 73 27.25 78.3 32.55 80.6 39.15 82.35 44.15 82.35 50 Z"/>

<path fill="#3B3B3B" stroke="none" d="
M 82.3 52.55
Q 82.35 51.3 82.35 50 82.35 44.15 80.6 39.15 78.3 32.55 73 27.25 72.9 27.15 72.85 27.1 63.3 17.7 50 17.7 36.55 17.7 27.1 27.1 17.7 36.55 17.7 50 17.7 63.3 27.1 72.85 27.15 72.9 27.25 73 36.65 82.35 50 82.35 63.4 82.35 72.9 72.9 81.45 64.3 82.3 52.55
M 49.95 24
Q 60.7 24 68.2 31.55 75.85 39.15 75.85 49.9 75.85 60.65 68.2 68.2 60.7 75.8 49.95 75.8 39.2 75.8 31.55 68.2 24.05 60.65 24.05 49.9 24.05 39.15 31.55 31.55 39.2 24 49.95 24
M 68.2 31.55
Q 60.7 24 49.95 24 39.2 24 31.55 31.55 24.05 39.15 24.05 49.9 24.05 60.65 31.55 68.2 39.2 75.8 49.95 75.8 60.7 75.8 68.2 68.2 75.85 60.65 75.85 49.9 75.85 39.15 68.2 31.55
M 35.05 49.9
Q 35.05 49.7244140625 35.05 49.55
L 35.05 43.75 35.05 49.55
Q 35.05 49.7244140625 35.05 49.9 35.05 56.1 39.4 60.45 43.8 64.85 50 64.85 56.2 64.85 60.5 60.45 64.9 56.1 64.9 49.9 64.9 49.7244140625 64.9 49.55
L 64.9 43.75 64.9 49.55
Q 64.9 49.7244140625 64.9 49.9 64.9 56.1 60.5 60.45 56.2 64.85 50 64.85 43.8 64.85 39.4 60.45 35.05 56.1 35.05 49.9 Z"/>
</g>

<g id="Layer27_0_FILL">
<path fill="#000000" stroke="none" d="
M 91.95 52.45
Q 92.0001953125 51.2380859375 92 50 92.000390625 44.5794921875 90.8 39.65 88.14765625 28.7162109375 79.6 20.2 79.4958984375 20.0982421875 79.45 19.95 67.325390625 8.046875 50 8.05 32.5546875 8.0458984375 20.15 20.2 7.9466796875 32.5548828125 7.95 50 7.947265625 67.394921875 20.15 79.7 20.223046875 79.772265625 20.25 79.85 32.632421875 92.0029296875 50 92 67.394140625 92.0015625 79.6 79.75 79.655078125 79.68984375 79.7 79.65
L 79.75 79.6
Q 91.12890625 68.219140625 91.95 52.45
M 87.35 50
Q 87.35 51.239453125 87.25 52.45 86.466796875 66.3365234375 76.35 76.45 65.4556640625 87.3478515625 50 87.35 34.5453125 87.3474609375 23.55 76.45 12.65234375 65.4546875 12.65 50 12.65234375 34.6255859375 23.4 23.7 23.4736328125 23.62421875 23.55 23.55 34.5453125 12.65234375 50 12.65 65.4556640625 12.6515625 76.35 23.6 83.466015625 30.6810546875 85.95 39.65 87.349609375 44.544140625 87.35 50 Z"/>

<path fill="#1E1E1E" stroke="none" d="
M 87.25 52.45
Q 87.35 51.239453125 87.35 50 87.349609375 44.544140625 85.95 39.65 83.466015625 30.6810546875 76.35 23.6 65.4556640625 12.6515625 50 12.65 34.5453125 12.65234375 23.55 23.55 23.4736328125 23.62421875 23.4 23.7 12.65234375 34.6255859375 12.65 50 12.65234375 65.4546875 23.55 76.45 34.5453125 87.3474609375 50 87.35 65.4556640625 87.3478515625 76.35 76.45 86.466796875 66.3365234375 87.25 52.45
M 71.95 28.3
Q 76.9822265625 33.3791015625 79.15 39.65 80.8509765625 44.47265625 80.85 50 80.8501953125 51.2427734375 80.75 52.45 79.9779296875 63.6744140625 71.85 71.85 62.7947265625 80.85234375 50 80.85 37.284765625 80.8521484375 28.3 71.95 28.273828125 71.873046875 28.2 71.8 19.19765625 62.695703125 19.2 50 19.1978515625 37.2056640625 28.2 28.2 37.2056640625 19.1978515625 50 19.2 62.695703125 19.19765625 71.8 28.2 71.873046875 28.273828125 71.95 28.3 Z"/>

<path fill="#4F4F4F" stroke="none" d="
M 79.15 39.65
Q 76.9822265625 33.3791015625 71.95 28.3 71.873046875 28.273828125 71.8 28.2 62.695703125 19.19765625 50 19.2 37.2056640625 19.1978515625 28.2 28.2 19.1978515625 37.2056640625 19.2 50 19.19765625 62.695703125 28.2 71.8 28.273828125 71.873046875 28.3 71.95 37.284765625 80.8521484375 50 80.85 62.7947265625 80.85234375 71.85 71.85 79.9779296875 63.6744140625 80.75 52.45 80.8501953125 51.2427734375 80.85 50 80.8509765625 44.47265625 79.15 39.65
M 69.25 30.8
Q 73.241015625 34.7892578125 75.2 39.65 77.1486328125 44.4076171875 77.15 50 77.149609375 51.2451171875 77.05 52.45 76.2732421875 62.1392578125 69.25 69.25 61.2546875 77.146875 50 77.15 38.69375 77.147265625 30.8 69.25 22.8013671875 61.2548828125 22.8 50 22.801953125 38.6935546875 30.75 30.8
L 30.8 30.75
Q 38.6935546875 22.801953125 50 22.8 61.2548828125 22.8013671875 69.25 30.8 Z"/>

<path fill="#3B3B3B" stroke="none" d="
M 75.2 39.65
Q 73.241015625 34.7892578125 69.25 30.8 61.2548828125 22.8013671875 50 22.8 38.6935546875 22.801953125 30.8 30.75
L 30.75 30.8
Q 22.801953125 38.6935546875 22.8 50 22.8013671875 61.2548828125 30.8 69.25 38.69375 77.147265625 50 77.15 61.2546875 77.146875 69.25 69.25 76.2732421875 62.1392578125 77.05 52.45 77.149609375 51.2451171875 77.15 50 77.1486328125 44.4076171875 75.2 39.65
M 50 31.25
Q 57.75 31.25 63.25 36.75 68.75 42.25 68.75 50 68.75 50.4291015625 68.7 50.85 68.716796875 51.3810546875 68.65 51.9
L 68.7 60.55 68.65 51.9
Q 68.716796875 51.3810546875 68.7 50.85
L 31.25 50.85
Q 31.2833984375 51.38203125 31.3 51.9
L 31.35 60.55 31.3 51.9
Q 31.2833984375 51.38203125 31.25 50.85 31.25 50.430078125 31.25 50 31.25 42.25 36.75 36.75 42.25 31.25 50 31.25
M 63.25 36.75
Q 57.75 31.25 50 31.25 42.25 31.25 36.75 36.75 31.25 42.25 31.25 50 31.25 50.430078125 31.25 50.85
L 68.7 50.85
Q 68.75 50.4291015625 68.75 50 68.75 42.25 63.25 36.75 Z"/>
</g>

<g id="Layer26_0_FILL">
<path fill="#000000" stroke="none" d="
M 91.95 52.45
Q 92.0001953125 51.2380859375 92 50 92.000390625 44.5794921875 90.8 39.65 88.14765625 28.7162109375 79.6 20.2 79.4958984375 20.0982421875 79.45 19.95 69.5236328125 10.205078125 56.1 8.45 53.134765625 8.0494140625 50 8.05 47.367578125 8.0494140625 44.85 8.3 30.6828125 9.8798828125 20.15 20.2 7.9466796875 32.5548828125 7.95 50 7.947265625 67.394921875 20.15 79.7 20.223046875 79.772265625 20.25 79.85 32.632421875 92.0029296875 50 92 67.394140625 92.0015625 79.6 79.75 79.655078125 79.68984375 79.7 79.65
L 79.75 79.6
Q 91.12890625 68.219140625 91.95 52.45
M 87.35 50
Q 87.35 51.239453125 87.25 52.45 86.466796875 66.3365234375 76.35 76.45 65.4556640625 87.3478515625 50 87.35 34.5453125 87.3474609375 23.55 76.45 12.65234375 65.4546875 12.65 50 12.65234375 34.6255859375 23.4 23.7 23.4736328125 23.62421875 23.55 23.55 32.6669921875 14.5138671875 44.85 12.95 47.3599609375 12.650390625 50 12.65 53.14453125 12.650390625 56.1 13.1 67.672265625 14.8791015625 76.35 23.6 83.466015625 30.6810546875 85.95 39.65 87.349609375 44.544140625 87.35 50 Z"/>

<path fill="#1E1E1E" stroke="none" d="
M 87.25 52.45
Q 87.35 51.239453125 87.35 50 87.349609375 44.544140625 85.95 39.65 83.466015625 30.6810546875 76.35 23.6 67.672265625 14.8791015625 56.1 13.1 53.14453125 12.650390625 50 12.65 47.3599609375 12.650390625 44.85 12.95 32.6669921875 14.5138671875 23.55 23.55 23.4736328125 23.62421875 23.4 23.7 12.65234375 34.6255859375 12.65 50 12.65234375 65.4546875 23.55 76.45 34.5453125 87.3474609375 50 87.35 65.4556640625 87.3478515625 76.35 76.45 86.466796875 66.3365234375 87.25 52.45
M 44.85 19.55
Q 47.3435546875 19.199609375 50 19.2 53.1615234375 19.1994140625 56.1 19.75 64.962890625 21.439453125 71.8 28.2 71.873046875 28.273828125 71.95 28.3 76.9822265625 33.3791015625 79.15 39.65 80.8509765625 44.47265625 80.85 50 80.8501953125 51.2427734375 80.75 52.45 79.9779296875 63.6744140625 71.85 71.85 62.7947265625 80.85234375 50 80.85 37.284765625 80.8521484375 28.3 71.95 28.273828125 71.873046875 28.2 71.8 19.19765625 62.695703125 19.2 50 19.1978515625 37.2056640625 28.2 28.2 35.3359375 21.0669921875 44.85 19.55 Z"/>

<path fill="#4F4F4F" stroke="none" d="
M 50 19.2
Q 47.3435546875 19.199609375 44.85 19.55 35.3359375 21.0669921875 28.2 28.2 19.1978515625 37.2056640625 19.2 50 19.19765625 62.695703125 28.2 71.8 28.273828125 71.873046875 28.3 71.95 37.284765625 80.8521484375 50 80.85 62.7947265625 80.85234375 71.85 71.85 79.9779296875 63.6744140625 80.75 52.45 80.8501953125 51.2427734375 80.85 50 80.8509765625 44.47265625 79.15 39.65 76.9822265625 33.3791015625 71.95 28.3 71.873046875 28.273828125 71.8 28.2 64.962890625 21.439453125 56.1 19.75 53.1615234375 19.1994140625 50 19.2
M 44.85 23.25
Q 47.3298828125 22.800390625 50 22.8 53.18046875 22.800390625 56.1 23.45 63.5140625 25.0615234375 69.25 30.8 73.241015625 34.7892578125 75.2 39.65 77.1486328125 44.4076171875 77.15 50 77.149609375 51.2451171875 77.05 52.45 76.2732421875 62.1392578125 69.25 69.25 61.2546875 77.146875 50 77.15 38.69375 77.147265625 30.8 69.25 22.8013671875 61.2548828125 22.8 50 22.801953125 38.6935546875 30.75 30.8
L 30.8 30.75
Q 36.8294921875 24.67890625 44.85 23.25 Z"/>

<path fill="#3B3B3B" stroke="none" d="
M 50 22.8
Q 47.3298828125 22.800390625 44.85 23.25 36.8294921875 24.67890625 30.8 30.75
L 30.75 30.8
Q 22.801953125 38.6935546875 22.8 50 22.8013671875 61.2548828125 30.8 69.25 38.69375 77.147265625 50 77.15 61.2546875 77.146875 69.25 69.25 76.2732421875 62.1392578125 77.05 52.45 77.149609375 51.2451171875 77.15 50 77.1486328125 44.4076171875 75.2 39.65 73.241015625 34.7892578125 69.25 30.8 63.5140625 25.0615234375 56.1 23.45 53.18046875 22.800390625 50 22.8
M 68.75 40.3
Q 68.75 42.1 68.45 43.8 67.45 49.35 63.25 53.55 57.75 59.05 50 59.05
L 50 70.25 50 59.05
Q 42.25 59.05 36.75 53.55 32.55 49.35 31.55 43.8 31.25 42.1 31.25 40.3 31.25 40.05 31.25 39.85 31.25 40.05 31.25 40.3 31.25 42.1 31.55 43.8 32.55 49.35 36.75 53.55 42.25 59.05 50 59.05 57.75 59.05 63.25 53.55 67.45 49.35 68.45 43.8 68.75 42.1 68.75 40.3 68.75 40.05 68.75 39.85 68.75 40.05 68.75 40.3 Z"/>
</g>

<g id="Layer25_0_FILL">
<path fill="#000000" stroke="none" d="
M 91.95 52.45
Q 92.0001953125 51.2380859375 92 50 92.000390625 44.5794921875 90.8 39.65 88.14765625 28.7162109375 79.6 20.2 79.4958984375 20.0982421875 79.45 19.95 67.325390625 8.046875 50 8.05 32.5546875 8.0458984375 20.15 20.2 7.9466796875 32.5548828125 7.95 50 7.947265625 67.394921875 20.15 79.7 20.223046875 79.772265625 20.25 79.85 32.632421875 92.0029296875 50 92 67.394140625 92.0015625 79.6 79.75 79.655078125 79.68984375 79.7 79.65
L 79.75 79.6
Q 91.12890625 68.219140625 91.95 52.45
M 87.35 50
Q 87.35 51.239453125 87.25 52.45 86.466796875 66.3365234375 76.35 76.45 65.4556640625 87.3478515625 50 87.35 34.5453125 87.3474609375 23.55 76.45 12.65234375 65.4546875 12.65 50 12.65234375 34.6255859375 23.4 23.7 23.4736328125 23.62421875 23.55 23.55 34.5453125 12.65234375 50 12.65 65.4556640625 12.6515625 76.35 23.6 83.466015625 30.6810546875 85.95 39.65 87.349609375 44.544140625 87.35 50 Z"/>

<path fill="#1E1E1E" stroke="none" d="
M 87.25 52.45
Q 87.35 51.239453125 87.35 50 87.349609375 44.544140625 85.95 39.65 83.466015625 30.6810546875 76.35 23.6 65.4556640625 12.6515625 50 12.65 34.5453125 12.65234375 23.55 23.55 23.4736328125 23.62421875 23.4 23.7 12.65234375 34.6255859375 12.65 50 12.65234375 65.4546875 23.55 76.45 34.5453125 87.3474609375 50 87.35 65.4556640625 87.3478515625 76.35 76.45 86.466796875 66.3365234375 87.25 52.45
M 71.95 28.3
Q 76.9822265625 33.3791015625 79.15 39.65 80.8509765625 44.47265625 80.85 50 80.8501953125 51.2427734375 80.75 52.45 79.9779296875 63.6744140625 71.85 71.85 62.7947265625 80.85234375 50 80.85 37.284765625 80.8521484375 28.3 71.95 28.273828125 71.873046875 28.2 71.8 19.19765625 62.695703125 19.2 50 19.1978515625 37.2056640625 28.2 28.2 37.2056640625 19.1978515625 50 19.2 62.695703125 19.19765625 71.8 28.2 71.873046875 28.273828125 71.95 28.3 Z"/>

<path fill="#4F4F4F" stroke="none" d="
M 79.15 39.65
Q 76.9822265625 33.3791015625 71.95 28.3 71.873046875 28.273828125 71.8 28.2 62.695703125 19.19765625 50 19.2 37.2056640625 19.1978515625 28.2 28.2 19.1978515625 37.2056640625 19.2 50 19.19765625 62.695703125 28.2 71.8 28.273828125 71.873046875 28.3 71.95 37.284765625 80.8521484375 50 80.85 62.7947265625 80.85234375 71.85 71.85 79.9779296875 63.6744140625 80.75 52.45 80.8501953125 51.2427734375 80.85 50 80.8509765625 44.47265625 79.15 39.65
M 69.25 30.8
Q 73.241015625 34.7892578125 75.2 39.65 77.1486328125 44.4076171875 77.15 50 77.149609375 51.2451171875 77.05 52.45 76.2732421875 62.1392578125 69.25 69.25 61.2546875 77.146875 50 77.15 38.69375 77.147265625 30.8 69.25 22.8013671875 61.2548828125 22.8 50 22.801953125 38.6935546875 30.75 30.8
L 30.8 30.75
Q 38.6935546875 22.801953125 50 22.8 61.2548828125 22.8013671875 69.25 30.8 Z"/>

<path fill="#3B3B3B" stroke="none" d="
M 75.2 39.65
Q 73.241015625 34.7892578125 69.25 30.8 61.2548828125 22.8013671875 50 22.8 38.6935546875 22.801953125 30.8 30.75
L 30.75 30.8
Q 22.801953125 38.6935546875 22.8 50 22.8013671875 61.2548828125 30.8 69.25 38.69375 77.147265625 50 77.15 61.2546875 77.146875 69.25 69.25 76.2732421875 62.1392578125 77.05 52.45 77.149609375 51.2451171875 77.15 50 77.1486328125 44.4076171875 75.2 39.65
M 68.75 49.3
L 68.75 39.85 68.75 49.3
Q 68.75 49.6478515625 68.75 50 68.75 57.75 63.25 63.25 57.75 68.75 50 68.75 42.25 68.75 36.75 63.25 31.3033203125 57.8033203125 31.25 50.15 31.25 50.0751953125 31.25 50 31.25 49.64765625 31.3 49.3
L 31.3 39.85 31.3 49.3 31.25 50.15
Q 31.3033203125 57.8033203125 36.75 63.25 42.25 68.75 50 68.75 57.75 68.75 63.25 63.25 68.75 57.75 68.75 50 68.75 49.6478515625 68.75 49.3
M 31.25 50
Q 31.25 50.0751953125 31.25 50.15
L 31.3 49.3
Q 31.25 49.64765625 31.25 50 Z"/>
</g>

<g id="Layer24_0_FILL">
<path fill="#000000" stroke="none" d="
M 91.95 52.45
Q 92.0001953125 51.2380859375 92 50 92.000390625 44.5794921875 90.8 39.65 88.14765625 28.7162109375 79.6 20.2 79.4958984375 20.0982421875 79.45 19.95 67.325390625 8.046875 50 8.05 32.5546875 8.0458984375 20.15 20.2 7.9466796875 32.5548828125 7.95 50 7.947265625 67.394921875 20.15 79.7 20.223046875 79.772265625 20.25 79.85 32.632421875 92.0029296875 50 92 67.394140625 92.0015625 79.6 79.75 79.655078125 79.68984375 79.7 79.65
L 79.75 79.6
Q 91.12890625 68.219140625 91.95 52.45
M 87.35 50
Q 87.35 51.239453125 87.25 52.45 86.466796875 66.3365234375 76.35 76.45 65.4556640625 87.3478515625 50 87.35 34.5453125 87.3474609375 23.55 76.45 12.65234375 65.4546875 12.65 50 12.65234375 34.6255859375 23.4 23.7 23.4736328125 23.62421875 23.55 23.55 34.5453125 12.65234375 50 12.65 65.4556640625 12.6515625 76.35 23.6 83.466015625 30.6810546875 85.95 39.65 87.349609375 44.544140625 87.35 50 Z"/>

<path fill="#1E1E1E" stroke="none" d="
M 87.25 52.45
Q 87.35 51.239453125 87.35 50 87.349609375 44.544140625 85.95 39.65 83.466015625 30.6810546875 76.35 23.6 65.4556640625 12.6515625 50 12.65 34.5453125 12.65234375 23.55 23.55 23.4736328125 23.62421875 23.4 23.7 12.65234375 34.6255859375 12.65 50 12.65234375 65.4546875 23.55 76.45 34.5453125 87.3474609375 50 87.35 65.4556640625 87.3478515625 76.35 76.45 86.466796875 66.3365234375 87.25 52.45
M 71.95 28.3
Q 76.9822265625 33.3791015625 79.15 39.65 80.8509765625 44.47265625 80.85 50 80.8501953125 51.2427734375 80.75 52.45 79.9779296875 63.6744140625 71.85 71.85 62.7947265625 80.85234375 50 80.85 37.284765625 80.8521484375 28.3 71.95 28.273828125 71.873046875 28.2 71.8 19.19765625 62.695703125 19.2 50 19.1978515625 37.2056640625 28.2 28.2 37.2056640625 19.1978515625 50 19.2 62.695703125 19.19765625 71.8 28.2 71.873046875 28.273828125 71.95 28.3 Z"/>

<path fill="#4F4F4F" stroke="none" d="
M 79.15 39.65
Q 76.9822265625 33.3791015625 71.95 28.3 71.873046875 28.273828125 71.8 28.2 62.695703125 19.19765625 50 19.2 37.2056640625 19.1978515625 28.2 28.2 19.1978515625 37.2056640625 19.2 50 19.19765625 62.695703125 28.2 71.8 28.273828125 71.873046875 28.3 71.95 37.284765625 80.8521484375 50 80.85 62.7947265625 80.85234375 71.85 71.85 79.9779296875 63.6744140625 80.75 52.45 80.8501953125 51.2427734375 80.85 50 80.8509765625 44.47265625 79.15 39.65
M 69.25 30.8
Q 73.241015625 34.7892578125 75.2 39.65 77.1486328125 44.4076171875 77.15 50 77.149609375 51.2451171875 77.05 52.45 76.2732421875 62.1392578125 69.25 69.25 61.2546875 77.146875 50 77.15 38.69375 77.147265625 30.8 69.25 22.8013671875 61.2548828125 22.8 50 22.801953125 38.6935546875 30.75 30.8
L 30.8 30.75
Q 38.6935546875 22.801953125 50 22.8 61.2548828125 22.8013671875 69.25 30.8 Z"/>

<path fill="#3B3B3B" stroke="none" d="
M 75.2 39.65
Q 73.241015625 34.7892578125 69.25 30.8 61.2548828125 22.8013671875 50 22.8 38.6935546875 22.801953125 30.8 30.75
L 30.75 30.8
Q 22.801953125 38.6935546875 22.8 50 22.8013671875 61.2548828125 30.8 69.25 38.69375 77.147265625 50 77.15 61.2546875 77.146875 69.25 69.25 76.2732421875 62.1392578125 77.05 52.45 77.149609375 51.2451171875 77.15 50 77.1486328125 44.4076171875 75.2 39.65
M 50 31.25
Q 57.75 31.25 63.25 36.75 68.75 42.25 68.75 50 68.75 57.75 63.25 63.25 57.75 68.75 50 68.75 42.25 68.75 36.75 63.25 31.25 57.75 31.25 50 31.25 42.25 36.75 36.75 42.25 31.25 50 31.25
M 63.25 36.75
Q 57.75 31.25 50 31.25 42.25 31.25 36.75 36.75 31.25 42.25 31.25 50 31.25 57.75 36.75 63.25 42.25 68.75 50 68.75 57.75 68.75 63.25 63.25 68.75 57.75 68.75 50 68.75 42.25 63.25 36.75 Z"/>
</g>

<path id="Layer40_0_1_STROKES" stroke="#000000" stroke-width="5" stroke-linejoin="round" stroke-linecap="round" fill="none" d="
M 83.1 28.05
Q 92.45 31.65 92.75 46.8 92.55 51.3 92.15 55.5 90.9 64.45 87.8 71.95 85.85 76.75 81.5 78.55 59.55 79.9 37.9 76.4 21.8 73.1 14.05 64.6 6.3 56.15 7.3 40.2 8.35 24.2 19.1 21.8 45.55 18.7 83.1 28.05 Z"/>

<path id="Layer40_0_2_STROKES" stroke="#4F4F4F" stroke-width="4" stroke-linejoin="round" stroke-linecap="round" fill="none" d="
M 79.85 43.4
Q 80.05 35.6 76 33.9 46.7 25.85 18.95 27.9 13.35 30.75 13.2 37.2 13 43.65 15.75 49 18.55 54.3 22.75 58 26.95 61.6 35.15 63.4 43.4 65.15 71.25 65.55 75.8 64.85 76.75 60.75
L 78.15 54.4 79.85 43.4 Z"/>

<path id="Layer39_0_1_STROKES" stroke="#4F4F4F" stroke-width="4" stroke-linejoin="round" stroke-linecap="round" fill="none" d="
M 81.05 27.9
Q 86.65 30.75 86.8 37.2 87 43.65 84.25 49 81.45 54.3 77.25 58 73.05 61.6 64.85 63.4 56.6 65.15 28.75 65.55 24.2 64.85 23.25 60.75
L 21.85 54.4 20.15 43.4
Q 19.95 35.6 24 33.9 53.3 25.85 81.05 27.9 Z"/>

<path id="Layer39_0_2_STROKES" stroke="#000000" stroke-width="5" stroke-linejoin="round" stroke-linecap="round" fill="none" d="
M 62.1 76.4
Q 78.2 73.1 85.95 64.6 93.7 56.15 92.7 40.2 91.65 24.2 80.9 21.8 54.45 18.7 16.9 28.05 7.55 31.65 7.25 46.8 7.45 51.3 7.85 55.5 9.1 64.45 12.2 71.95 14.15 76.75 18.5 78.55 40.45 79.9 62.1 76.4 Z"/>

<path id="Layer38_0_1_STROKES" stroke="#000000" stroke-width="5" stroke-linejoin="round" stroke-linecap="round" fill="none" d="
M 92.4 64.2
Q 94.3 52.15 92.4 41.55 91.55 36.5 87.6 33.8 66.25 27.45 44.1 25.95 27.25 26.4 19.7 30.2 8.65 38.45 6.65 50.8 6.1 57.75 16.2 62.55 41.75 71 80.1 74.1 89.8 74.05 92.4 64.2 Z"/>

<path id="Layer38_0_2_STROKES" stroke="#4F4F4F" stroke-width="4" stroke-linejoin="round" stroke-linecap="round" fill="none" d="
M 75.85 42.35
Q 79.25 44.6 80.25 48.25
L 80.25 62.3
Q 79.25 67.4 75.05 67.55 44.65 64.4 18 57.45 12.05 54.4 12.55 51.6 13.65 46.2 16.7 41.55 19.85 36.6 24.55 34.8 48.25 36.4 75.85 42.35 Z"/>

<path id="Layer37_0_1_STROKES" stroke="#000000" stroke-width="5" stroke-linejoin="round" stroke-linecap="round" fill="none" d="
M 93.35 50.8
Q 93.9 57.75 83.8 62.55 58.2470703125 71.0236328125 19.9 74.1 10.2 74.05 7.6 64.2 5.7 52.15 7.6 41.55 8.45 36.5 12.4 33.8 33.75 27.45 55.9 25.95 72.75 26.4 80.3 30.2 91.35 38.45 93.35 50.8 Z"/>

<path id="Layer37_0_2_STROKES" stroke="#4F4F4F" stroke-width="4" stroke-linejoin="round" stroke-linecap="round" fill="none" d="
M 82 57.45
Q 87.9373046875 54.4177734375 87.45 51.6 86.366796875 46.205859375 83.3 41.55 80.1578125 36.6099609375 75.45 34.8 51.7353515625 36.3986328125 24.15 42.35 20.77421875 44.5763671875 19.75 48.25
L 19.75 62.3
Q 20.7263671875 67.4080078125 24.95 67.55 55.355078125 64.380078125 82 57.45 Z"/>

<path id="Layer36_0_1_STROKES" stroke="#000000" stroke-width="5" stroke-linejoin="round" stroke-linecap="round" fill="none" d="
M 90.975 88.75
Q 91.130859375 88.1703125 91.15 87.45
L 91.15 12.6
Q 91.130859375 11.8796875 90.975 11.3
M 9.075 11.3
Q 8.919140625 11.879296875 8.9 12.6
L 8.9 87.45
Q 8.919140625 88.170703125 9.075 88.75"/>

<path id="Layer35_0_1_STROKES" stroke="#000000" stroke-width="5" stroke-linejoin="round" stroke-linecap="round" fill="none" d="
M 87.6 34.9
L 91.85 34.9
Q 95.95 49.95 91.85 65.05
L 87.65 65.05
Q 84.65 72.5 78.55 78.6 72.5 84.7 65.1 87.65
L 65.1 91.85
Q 50.05 95.95 34.95 91.85
L 34.95 87.65
Q 27.5 84.7 21.4 78.6 15.3 72.5 12.35 65.05
M 12.35 34.9
Q 15.3 27.5 21.4 21.4 27.5 15.3 34.95 12.35
L 34.95 8.15
Q 50.05 4.05 65.1 8.15
L 65.1 12.35
Q 72.5 15.35 78.55 21.4 84.65 27.5 87.6 34.9
L 65.1 34.9 65.1 26.8
M 65.1 25.25
L 65.1 12.35
M 34.95 34.9
L 34.95 12.35
M 34.95 87.65
L 34.95 65.05 33.9 65.05
M 87.65 65.05
L 65.1 65.05 65.1 73.2
M 65.1 74.75
L 65.1 87.65"/>

<path id="Layer35_0_2_STROKES" stroke="#535353" stroke-width="4" stroke-linejoin="round" stroke-linecap="round" fill="none" d="
M 39.7 59.25
Q 40 59.5 40.25 59.75 42.45 61.95 42.45 65.05
L 42.45 85.8
Q 50.05 87 57.6 85.8
L 57.6 65.05
Q 57.6 61.95 59.8 59.75 62 57.55 65.1 57.55
L 85.8 57.55
Q 87 49.95 85.8 42.4
L 65.1 42.4
Q 62 42.4 59.8 40.2 57.6 38 57.6 34.9
L 57.6 14.2
Q 50.05 13 42.45 14.2
L 42.45 34.9
Q 42.45 38 40.25 40.2 40.1 40.35 39.95 40.5
L 39.9 40.5"/>

<path id="Layer35_0_3_STROKES" stroke="#404040" stroke-width="5" stroke-linejoin="round" stroke-linecap="round" fill="none" d="
M 12.35 65.05
L 8.15 65.05
Q 4.05 49.95 8.15 34.9
L 12.35 34.9 34.95 34.9
M 33.9 65.05
L 12.35 65.05"/>

<path id="Layer35_0_4_STROKES" stroke="#FFFFFF" stroke-width="4" stroke-linejoin="round" stroke-linecap="butt" fill="none" d="
M 39.7 59.25
Q 37.7 57.55 34.95 57.55
M 34.95 42.4
Q 37.8 42.4 39.9 40.5"/>

<path id="Layer35_0_5_STROKES" stroke="#FFFFFF" stroke-width="4" stroke-linejoin="round" stroke-linecap="round" fill="none" d="
M 34.95 57.55
L 14.2 57.55
Q 13 49.95 14.2 42.4
L 34.95 42.4"/>

<path id="Layer34_0_1_STROKES" stroke="#000000" stroke-width="5" stroke-linejoin="round" stroke-linecap="round" fill="none" d="
M 87.65 34.9
L 91.85 34.9
Q 95.95 49.95 91.85 65.05
L 87.65 65.05
Q 84.7 72.5 78.6 78.6 72.5 84.7 65.05 87.65
M 34.9 87.65
Q 27.5 84.7 21.4 78.6 15.3 72.5 12.35 65.05
L 8.15 65.05
Q 4.05 49.95 8.15 34.9
L 12.35 34.9
Q 15.35 27.5 21.4 21.45 27.5 15.35 34.9 12.4
L 34.9 8.15
Q 49.95 4.05 65.05 8.15
L 65.05 12.35
Q 72.5 15.35 78.6 21.45 84.7 27.5 87.65 34.9
L 74.75 34.9
M 73.2 34.9
L 65.05 34.9 65.05 12.35
M 65.05 66.1
L 65.05 65.05 87.65 65.05
M 34.9 12.4
L 34.9 34.9 26.8 34.9
M 25.25 34.9
L 12.35 34.9
M 12.35 65.05
L 34.9 65.05"/>

<path id="Layer34_0_2_STROKES" stroke="#535353" stroke-width="4" stroke-linejoin="round" stroke-linecap="round" fill="none" d="
M 59.25 60.3
Q 59.5 60 59.75 59.75 61.95 57.55 65.05 57.55
L 85.8 57.55
Q 87 49.95 85.8 42.4
L 65.05 42.4
Q 61.95 42.4 59.75 40.2 57.55 38 57.55 34.9
L 57.55 14.2
Q 49.95 13 42.4 14.2
L 42.4 34.9
Q 42.4 38 40.2 40.2 38 42.4 34.9 42.4
L 14.2 42.4
Q 13 49.95 14.2 57.55
L 34.9 57.55
Q 38 57.55 40.2 59.75 40.35 59.9 40.5 60.05
L 40.5 60.1"/>

<path id="Layer34_0_3_STROKES" stroke="#404040" stroke-width="5" stroke-linejoin="round" stroke-linecap="round" fill="none" d="
M 65.05 87.65
L 65.05 91.85
Q 49.95 95.95 34.9 91.85
L 34.9 87.65 34.9 65.05
M 65.05 66.1
L 65.05 87.65"/>

<path id="Layer34_0_4_STROKES" stroke="#FFFFFF" stroke-width="4" stroke-linejoin="round" stroke-linecap="butt" fill="none" d="
M 59.25 60.3
Q 57.55 62.3 57.55 65.05
M 42.4 65.05
Q 42.4 62.2 40.5 60.1"/>

<path id="Layer34_0_5_STROKES" stroke="#FFFFFF" stroke-width="4" stroke-linejoin="round" stroke-linecap="round" fill="none" d="
M 57.55 65.05
L 57.55 85.8
Q 49.95 87 42.4 85.8
L 42.4 65.05"/>

<path id="Layer33_0_1_STROKES" stroke="#404040" stroke-width="5" stroke-linejoin="round" stroke-linecap="round" fill="none" d="
M 87.65 34.95
L 91.85 34.95
Q 95.95 50.05 91.85 65.1
L 87.65 65.1
M 66.1 34.95
L 87.65 34.95
M 65.05 65.1
L 87.65 65.1"/>

<path id="Layer33_0_2_STROKES" stroke="#FFFFFF" stroke-width="4" stroke-linejoin="round" stroke-linecap="round" fill="none" d="
M 65.05 42.45
L 85.8 42.45
Q 87 50.05 85.8 57.6
L 65.05 57.6"/>

<path id="Layer33_0_3_STROKES" stroke="#000000" stroke-width="5" stroke-linejoin="round" stroke-linecap="round" fill="none" d="
M 87.65 65.1
Q 84.7 72.5 78.6 78.6 72.5 84.7 65.05 87.65
L 65.05 91.85
Q 49.95 95.95 34.9 91.85
L 34.9 87.65
Q 27.5 84.65 21.45 78.6 15.35 72.5 12.4 65.1
L 8.15 65.1
Q 4.05 50.05 8.15 34.95
L 12.35 34.95
Q 15.35 27.5 21.45 21.4 27.5 15.3 34.9 12.35
L 34.9 8.15
Q 49.95 4.05 65.05 8.15
L 65.05 12.35
Q 72.5 15.3 78.6 21.4 84.7 27.5 87.65 34.95
M 65.05 12.35
L 65.05 34.95 66.1 34.95
M 12.35 34.95
L 34.9 34.95 34.9 26.8
M 34.9 25.25
L 34.9 12.35
M 34.9 73.2
L 34.9 65.1 12.4 65.1
M 34.9 87.65
L 34.9 74.75
M 65.05 65.1
L 65.05 87.65"/>

<path id="Layer33_0_4_STROKES" stroke="#535353" stroke-width="4" stroke-linejoin="round" stroke-linecap="round" fill="none" d="
M 60.05 59.5
L 60.1 59.5
M 60.3 40.75
Q 60 40.5 59.75 40.25 57.55 38.05 57.55 34.95
L 57.55 14.2
Q 49.95 13 42.4 14.2
L 42.4 34.95
Q 42.4 38.05 40.2 40.25 38 42.45 34.9 42.45
L 14.2 42.45
Q 13 50.05 14.2 57.6
L 34.9 57.6
Q 38 57.6 40.2 59.8 42.4 62 42.4 65.1
L 42.4 85.8
Q 49.95 87 57.55 85.8
L 57.55 65.1
Q 57.55 62 59.75 59.8 59.9 59.65 60.05 59.5"/>

<path id="Layer33_0_5_STROKES" stroke="#FFFFFF" stroke-width="4" stroke-linejoin="round" stroke-linecap="butt" fill="none" d="
M 65.05 42.45
Q 62.3 42.45 60.3 40.75
M 60.1 59.5
Q 62.2 57.6 65.05 57.6"/>

<path id="Layer32_0_1_STROKES" stroke="#000000" stroke-width="5" stroke-linejoin="round" stroke-linecap="round" fill="none" d="
M 87.65 34.95
L 91.85 34.95
Q 95.95 50.05 91.85 65.1
L 87.625 65.1
Q 84.669921875 72.480078125 78.6 78.55 72.4994140625 84.6505859375 65.1 87.6
L 65.1 91.85
Q 50.05 95.95 34.95 91.85
L 34.95 87.625
Q 27.52109375 84.67109375 21.4 78.55 15.304296875 72.480078125 12.35 65.1
L 8.15 65.1
Q 4.05 50.05 8.15 34.95
L 12.325 34.95
Q 15.27890625 27.52109375 21.4 21.4 27.52109375 15.27890625 34.95 12.325
M 65.1 12.35
Q 72.4994140625 15.2994140625 78.6 21.4 84.6953125 27.52109375 87.65 34.95
L 65.1 34.95
M 34.95 33.9
L 34.95 34.95 12.325 34.95
M 34.95 87.625
L 34.95 65.1 26.8 65.1
M 25.25 65.1
L 12.35 65.1
M 73.2 65.1
L 65.1 65.1 65.1 87.6
M 87.625 65.1
L 74.75 65.1"/>

<path id="Layer32_0_2_STROKES" stroke="#535353" stroke-width="4" stroke-linejoin="round" stroke-linecap="round" fill="none" d="
M 59.475 39.925
Q 59.6310546875 40.08125 59.8 40.25 61.994921875 42.4482421875 65.1 42.45
L 85.8 42.45
Q 86.9927734375 50.032421875 85.8 57.6
L 65.1 57.6
Q 61.994921875 57.6015625 59.8 59.8 57.6015625 61.994921875 57.6 65.1
L 57.6 85.8
Q 50.032421875 86.9927734375 42.45 85.8
L 42.45 65.1
Q 42.4482421875 61.994921875 40.25 59.8 38.0548828125 57.6015625 34.95 57.6
L 14.2 57.6
Q 13.0072265625 50.032421875 14.2 42.45
L 34.95 42.45
Q 38.0548828125 42.4482421875 40.25 40.25 40.517578125 39.9828125 40.75 39.7
M 59.475 39.925
Q 59.4802734375 39.90625 59.475 39.9"/>

<path id="Layer32_0_3_STROKES" stroke="#FFFFFF" stroke-width="4" stroke-linejoin="round" stroke-linecap="round" fill="none" d="
M 57.6 34.95
L 57.6 14.2
Q 50.032421875 13.0115234375 42.45 14.2
L 42.45 34.95"/>

<path id="Layer32_0_4_STROKES" stroke="#404040" stroke-width="5" stroke-linejoin="round" stroke-linecap="round" fill="none" d="
M 34.95 12.325
L 34.95 8.15
Q 50.05 4.05 65.1 8.15
L 65.1 12.35 65.1 34.95
M 34.95 33.9
L 34.95 12.325"/>

<path id="Layer32_0_5_STROKES" stroke="#FFFFFF" stroke-width="4" stroke-linejoin="round" stroke-linecap="butt" fill="none" d="
M 42.45 34.95
Q 42.4484375 37.6771484375 40.75 39.7
M 59.475 39.9
Q 57.6013671875 37.807421875 57.6 34.95"/>

<path id="Layer31_0_1_STROKES" stroke="#000000" stroke-width="5" stroke-linejoin="round" stroke-linecap="round" fill="none" d="
M 87.65 34.95
L 91.85 34.95
Q 95.95 50.05 91.85 65.1
L 87.625 65.1
Q 84.669921875 72.480078125 78.6 78.55 72.4994140625 84.6505859375 65.1 87.6
L 65.1 91.85
Q 50.05 95.95 34.95 91.85
L 34.95 87.625
Q 27.52109375 84.67109375 21.4 78.55 15.304296875 72.480078125 12.35 65.1
L 8.15 65.1
Q 4.05 50.05 8.15 34.95
L 12.325 34.95
Q 15.27890625 27.52109375 21.4 21.4 27.52109375 15.27890625 34.95 12.325
L 34.95 8.15
Q 50.05 4.05 65.1 8.15
L 65.1 12.35
Q 72.4994140625 15.2994140625 78.6 21.4 84.6953125 27.52109375 87.65 34.95
L 65.1 34.95 65.1 26.8
M 65.1 25.25
L 65.1 12.35
M 12.325 34.95
L 34.95 34.95 34.95 12.325
M 34.95 87.625
L 34.95 65.1 26.8 65.1
M 25.25 65.1
L 12.35 65.1
M 73.2 65.1
L 65.1 65.1 65.1 87.6
M 87.625 65.1
L 74.75 65.1"/>

<path id="Layer31_0_2_STROKES" stroke="#535353" stroke-width="4" stroke-linejoin="round" stroke-linecap="round" fill="none" d="
M 85.8 42.45
Q 86.9927734375 50.032421875 85.8 57.6
L 65.1 57.6
Q 61.994921875 57.6015625 59.8 59.8 57.6015625 61.994921875 57.6 65.1
L 57.6 85.8
Q 50.032421875 86.9927734375 42.45 85.8
L 42.45 65.1
Q 42.4482421875 61.994921875 40.25 59.8 38.0548828125 57.6015625 34.95 57.6
L 14.2 57.6
Q 13.0072265625 50.032421875 14.2 42.45
L 34.95 42.45
Q 38.0548828125 42.4482421875 40.25 40.25 42.4482421875 38.0548828125 42.45 34.95
L 42.45 14.2
Q 50.032421875 13.0115234375 57.6 14.2
L 57.6 34.95
Q 57.6015625 38.0548828125 59.8 40.25 61.994921875 42.4482421875 65.1 42.45
L 85.8 42.45 Z"/>

<path id="Layer30_0_1_STROKES" stroke="#1D1D1D" stroke-width="5" stroke-linejoin="round" stroke-linecap="round" fill="none" d="
M 83.05 50
Q 83.05 50.426953125 83.05 50.85 82.746484375 63.953515625 73.35 73.35 63.65 83 50 83 36.3 83 26.65 73.35 16.95 63.65 16.95 50 16.95 36.3 26.65 26.6 36.3 16.9 50 16.9 63.65 16.9 73.35 26.6 77.634765625 30.884765625 80.025 35.95 83.05 42.3515625 83.05 50 Z"/>

<path id="Layer30_0_2_STROKES" stroke="#000000" stroke-width="5" stroke-linejoin="round" stroke-linecap="round" fill="none" d="
M 93.75 50
Q 93.75 50.4267578125 93.75 50.85 93.4482421875 68.4017578125 80.95 80.9 68.1 93.7 50 93.7 31.9 93.7 19.1 80.9 6.3 68.1 6.3 50 6.3 31.9 19.1 19.05 31.9 6.25 50 6.25 68.1 6.25 80.95 19.05 88.4658203125 26.5951171875 91.575 35.95 93.75 42.5279296875 93.75 50 Z"/>

<path id="Layer29_0_1_STROKES" stroke="#000000" stroke-width="5" stroke-linejoin="round" stroke-linecap="round" fill="none" d="
M 50 6.25
Q 68.1 6.25 80.95 19.05 93.75 31.9 93.75 50 93.75 68.1 80.95 80.9 68.1 93.7 50 93.7 31.9 93.7 19.1 80.9 6.3 68.1 6.3 50 6.3 31.9 19.1 19.05 31.9 6.25 50 6.25 Z"/>

<path id="Layer29_0_2_STROKES" stroke="#1D1D1D" stroke-width="5" stroke-linejoin="round" stroke-linecap="round" fill="none" d="
M 50 16.9
Q 63.65 16.9 73.35 26.6 83.05 36.3 83.05 50 83.05 63.65 73.35 73.35 63.65 83 50 83 36.3 83 26.65 73.35 16.95 63.65 16.95 50 16.95 36.3 26.65 26.6 36.3 16.9 50 16.9 Z"/>

<path id="Layer28_0_1_STROKES" stroke="#FFFFFF" stroke-width="5" stroke-linejoin="round" stroke-linecap="round" fill="none" d="
M 49.95 24
Q 60.7 24 68.2 31.55 75.85 39.15 75.85 49.9 75.85 60.65 68.2 68.2 60.7 75.8 49.95 75.8 39.2 75.8 31.55 68.2 24.05 60.65 24.05 49.9 24.05 39.15 31.55 31.55 39.2 24 49.95 24 Z
M 64.9 43.75
L 64.9 49.55
Q 64.9 49.7244140625 64.9 49.9 64.9 56.1 60.5 60.45 56.2 64.85 50 64.85 43.8 64.85 39.4 60.45 35.05 56.1 35.05 49.9 35.05 49.7244140625 35.05 49.55
L 35.05 43.75"/>

<path id="Layer27_0_1_STROKES" stroke="#E02727" stroke-width="6" stroke-linejoin="round" stroke-linecap="round" fill="none" d="
M 31.35 60.55
L 31.325 51.9
Q 31.2833984375 51.38203125 31.275 50.85 31.25 50.430078125 31.25 50 31.25 42.25 36.75 36.75 42.25 31.25 50 31.25 57.75 31.25 63.25 36.75 68.75 42.25 68.75 50 68.75 50.4291015625 68.725 50.85 68.716796875 51.3810546875 68.675 51.9
L 68.7 60.55
M 68.725 50.85
L 31.275 50.85"/>

<path id="Layer26_0_1_STROKES" stroke="#EEB135" stroke-width="6" stroke-linejoin="round" stroke-linecap="round" fill="none" d="
M 68.75 39.85
Q 68.75 40.05 68.75 40.3 68.75 42.1 68.45 43.8 67.45 49.35 63.25 53.55 57.75 59.05 50 59.05
L 50 70.25
M 50 59.05
Q 42.25 59.05 36.75 53.55 32.55 49.35 31.55 43.8 31.25 42.1 31.25 40.3 31.25 40.05 31.25 39.85"/>

<path id="Layer25_0_1_STROKES" stroke="#4196F3" stroke-width="6" stroke-linejoin="round" stroke-linecap="round" fill="none" d="
M 31.3 39.85
L 31.3 49.3 31.25 50.15
Q 31.3033203125 57.8033203125 36.75 63.25 42.25 68.75 50 68.75 57.75 68.75 63.25 63.25 68.75 57.75 68.75 50 68.75 49.6478515625 68.75 49.3
L 68.75 39.85
M 31.3 49.3
Q 31.25 49.64765625 31.25 50 31.25 50.0751953125 31.25 50.15"/>

<path id="Layer24_0_1_STROKES" stroke="#87D638" stroke-width="6" stroke-linejoin="round" stroke-linecap="round" fill="none" d="
M 50 31.25
Q 57.75 31.25 63.25 36.75 68.75 42.25 68.75 50 68.75 57.75 63.25 63.25 57.75 68.75 50 68.75 42.25 68.75 36.75 63.25 31.25 57.75 31.25 50 31.25 42.25 36.75 36.75 42.25 31.25 50 31.25 Z"/>
</defs>

<g transform="matrix( 1, 0, 0, 1, 0,0) ">
<use xlink:href="#Layer40_0_FILL"/>

<use xlink:href="#Layer40_0_1_STROKES"/>

<use xlink:href="#Layer40_0_2_STROKES"/>
</g>

<g transform="matrix( 1, 0, 0, 1, 0,0) ">
<use xlink:href="#Layer39_0_FILL"/>

<use xlink:href="#Layer39_0_1_STROKES"/>

<use xlink:href="#Layer39_0_2_STROKES"/>
</g>

<g transform="matrix( 1, 0, 0, 1, 0,0) ">
<use xlink:href="#Layer38_0_FILL"/>

<use xlink:href="#Layer38_0_1_STROKES"/>

<use xlink:href="#Layer38_0_2_STROKES"/>
</g>

<g transform="matrix( 1, 0, 0, 1, 0,0) ">
<use xlink:href="#Layer37_0_FILL"/>

<use xlink:href="#Layer37_0_1_STROKES"/>

<use xlink:href="#Layer37_0_2_STROKES"/>
</g>

<g transform="matrix( 1, 0, 0, 1, 0,0) ">
<use xlink:href="#Layer36_0_FILL"/>

<use xlink:href="#Layer36_0_1_STROKES"/>
</g>

<g transform="matrix( 1, 0, 0, 1, 0,0) ">
<use xlink:href="#Layer35_0_FILL"/>

<use xlink:href="#Layer35_0_1_STROKES"/>

<use xlink:href="#Layer35_0_2_STROKES"/>

<use xlink:href="#Layer35_0_3_STROKES"/>

<use xlink:href="#Layer35_0_4_STROKES"/>

<use xlink:href="#Layer35_0_5_STROKES"/>
</g>

<g transform="matrix( 1, 0, 0, 1, 0,0) ">
<use xlink:href="#Layer34_0_FILL"/>

<use xlink:href="#Layer34_0_1_STROKES"/>

<use xlink:href="#Layer34_0_2_STROKES"/>

<use xlink:href="#Layer34_0_3_STROKES"/>

<use xlink:href="#Layer34_0_4_STROKES"/>

<use xlink:href="#Layer34_0_5_STROKES"/>
</g>

<g transform="matrix( 1, 0, 0, 1, 0,0) ">
<use xlink:href="#Layer33_0_FILL"/>

<use xlink:href="#Layer33_0_1_STROKES"/>

<use xlink:href="#Layer33_0_2_STROKES"/>

<use xlink:href="#Layer33_0_3_STROKES"/>

<use xlink:href="#Layer33_0_4_STROKES"/>

<use xlink:href="#Layer33_0_5_STROKES"/>
</g>

<g transform="matrix( 1, 0, 0, 1, 0,0) ">
<use xlink:href="#Layer32_0_FILL"/>

<use xlink:href="#Layer32_0_1_STROKES"/>

<use xlink:href="#Layer32_0_2_STROKES"/>

<use xlink:href="#Layer32_0_3_STROKES"/>

<use xlink:href="#Layer32_0_4_STROKES"/>

<use xlink:href="#Layer32_0_5_STROKES"/>
</g>

<g transform="matrix( 1, 0, 0, 1, 0,0) ">
<use xlink:href="#Layer31_0_FILL"/>

<use xlink:href="#Layer31_0_1_STROKES"/>

<use xlink:href="#Layer31_0_2_STROKES"/>
</g>

<g transform="matrix( 1, 0, 0, 1, 0,0) ">
<use xlink:href="#Layer30_0_FILL"/>

<use xlink:href="#Layer30_0_1_STROKES"/>

<use xlink:href="#Layer30_0_2_STROKES"/>
</g>

<g transform="matrix( 1, 0, 0, 1, 0,0) ">
<use xlink:href="#Layer29_0_FILL"/>

<use xlink:href="#Layer29_0_1_STROKES"/>

<use xlink:href="#Layer29_0_2_STROKES"/>
</g>

<g transform="matrix( 1, 0, 0, 1, 0,0) ">
<use xlink:href="#Layer28_0_FILL"/>

<use xlink:href="#Layer28_0_1_STROKES"/>
</g>

<g transform="matrix( 1, 0, 0, 1, 0,0) ">
<use xlink:href="#Layer27_0_FILL"/>

<use xlink:href="#Layer27_0_1_STROKES"/>
</g>

<g transform="matrix( 1, 0, 0, 1, 0,0) ">
<use xlink:href="#Layer26_0_FILL"/>

<use xlink:href="#Layer26_0_1_STROKES"/>
</g>

<g transform="matrix( 1, 0, 0, 1, 0,0) ">
<use xlink:href="#Layer25_0_FILL"/>

<use xlink:href="#Layer25_0_1_STROKES"/>
</g>

<g transform="matrix( 1, 0, 0, 1, 0,0) ">
<use xlink:href="#Layer24_0_FILL"/>

<use xlink:href="#Layer24_0_1_STROKES"/>
</g>
</svg>
