
<svg xmlns="http://www.w3.org/2000/svg" version="1.1" xmlns:xlink="http://www.w3.org/1999/xlink" preserveAspectRatio="none" x="0px" y="0px" width="100px" height="100px" viewBox="0 0 100 100">
<defs>
<g id="Layer42_0_FILL">
<path fill="#313131" stroke="none" d="
M 33.95 91.75
L 37.35 95.1 62.65 95.1 66.05 91.75 64.85 71.8 55.45 59.4 44.55 59.4 35.15 71.8 33.95 91.75
M 48.1 66.1
L 49.35 66.1 50.65 66.1 51.9 66.1 58.15 73.9 59.05 88.4 40.95 88.4 41.85 73.9 48.1 66.1
M 66.05 8.25
L 62.65 4.9 37.35 4.9 33.95 8.25 35.15 28.2 44.55 40.6 55.45 40.6 64.85 28.2 66.05 8.25
M 40.95 11.6
L 59.05 11.6 58.15 26.1 51.9 33.9 50.65 33.9 49.35 33.9 48.1 33.9 41.85 26.1 40.95 11.6
M 95.1 37.35
L 91.75 33.95 71.8 35.15 59.4 44.55 59.4 55.45 71.8 64.85 91.75 66.05 95.1 62.65 95.1 37.35
M 88.4 40.95
L 88.4 59.05 73.9 58.15 66.1 51.9 66.1 50.65 66.1 49.35 66.1 48.1 73.9 41.85 88.4 40.95 Z"/>

<path fill="#4F4F4F" stroke="none" d="
M 49.35 66.1
L 48.1 66.1 41.85 73.9 40.95 88.4 59.05 88.4 58.15 73.9 51.9 66.1 50.65 66.1 49.35 66.1
M 59.05 11.6
L 40.95 11.6 41.85 26.1 48.1 33.9 49.35 33.9 50.65 33.9 51.9 33.9 58.15 26.1 59.05 11.6
M 88.4 59.05
L 88.4 40.95 73.9 41.85 66.1 48.1 66.1 49.35 66.1 50.65 66.1 51.9 73.9 58.15 88.4 59.05 Z"/>

<path fill="#D7D7D7" stroke="none" d="
M 28.2 35.15
L 8.25 33.95 4.9 37.35 4.9 62.65 8.25 66.05 28.2 64.85 40.6 55.45 40.6 44.55 28.2 35.15
M 33.9 48.1
L 33.9 49.35 33.9 50.65 33.9 51.9 26.1 58.15 11.6 59.05 11.6 40.95 26.1 41.85 33.9 48.1 Z"/>

<path fill="#F5F5F5" stroke="none" d="
M 33.9 49.35
L 33.9 48.1 26.1 41.85 11.6 40.95 11.6 59.05 26.1 58.15 33.9 51.9 33.9 50.65 33.9 49.35 Z"/>
</g>

<g id="Layer41_0_FILL">
<path fill="#D7D7D7" stroke="none" d="
M 35.15 71.8
L 33.95 91.75 37.35 95.1 62.65 95.1 66.05 91.75 64.85 71.8 55.45 59.4 44.55 59.4 35.15 71.8
M 50.65 66.1
L 51.9 66.1 58.15 73.9 59.05 88.4 40.95 88.4 41.85 73.9 48.1 66.1 49.35 66.1 50.65 66.1 Z"/>

<path fill="#F5F5F5" stroke="none" d="
M 51.9 66.1
L 50.65 66.1 49.35 66.1 48.1 66.1 41.85 73.9 40.95 88.4 59.05 88.4 58.15 73.9 51.9 66.1 Z"/>

<path fill="#313131" stroke="none" d="
M 8.25 33.95
L 4.9 37.35 4.9 62.65 8.25 66.05 28.2 64.85 40.6 55.45 40.6 44.55 28.2 35.15 8.25 33.95
M 11.6 40.95
L 26.1 41.85 33.9 48.1 33.9 49.35 33.9 50.65 33.9 51.9 26.1 58.15 11.6 59.05 11.6 40.95
M 66.05 8.25
L 62.65 4.9 37.35 4.9 33.95 8.25 35.15 28.2 44.55 40.6 55.45 40.6 64.85 28.2 66.05 8.25
M 40.95 11.6
L 59.05 11.6 58.15 26.1 51.9 33.9 50.65 33.9 49.35 33.9 48.1 33.9 41.85 26.1 40.95 11.6
M 95.1 37.35
L 91.75 33.95 71.8 35.15 59.4 44.55 59.4 55.45 71.8 64.85 91.75 66.05 95.1 62.65 95.1 37.35
M 88.4 40.95
L 88.4 59.05 73.9 58.15 66.1 51.9 66.1 50.65 66.1 49.35 66.1 48.1 73.9 41.85 88.4 40.95 Z"/>

<path fill="#4F4F4F" stroke="none" d="
M 26.1 41.85
L 11.6 40.95 11.6 59.05 26.1 58.15 33.9 51.9 33.9 50.65 33.9 49.35 33.9 48.1 26.1 41.85
M 59.05 11.6
L 40.95 11.6 41.85 26.1 48.1 33.9 49.35 33.9 50.65 33.9 51.9 33.9 58.15 26.1 59.05 11.6
M 88.4 59.05
L 88.4 40.95 73.9 41.85 66.1 48.1 66.1 49.35 66.1 50.65 66.1 51.9 73.9 58.15 88.4 59.05 Z"/>
</g>

<g id="Layer40_0_FILL">
<path fill="#313131" stroke="none" d="
M 33.95 91.75
L 37.35 95.1 62.65 95.1 66.05 91.75 64.85 71.8 55.45 59.4 44.55 59.4 35.15 71.8 33.95 91.75
M 50.65 66.1
L 51.9 66.1 58.15 73.9 59.05 88.4 40.95 88.4 41.85 73.9 48.1 66.1 49.35 66.1 50.65 66.1
M 8.25 33.95
L 4.9 37.35 4.9 62.65 8.25 66.05 28.2 64.85 40.6 55.45 40.6 44.55 28.2 35.15 8.25 33.95
M 11.6 40.95
L 26.1 41.85 33.9 48.1 33.9 49.35 33.9 50.65 33.9 51.9 26.1 58.15 11.6 59.05 11.6 40.95
M 66.05 8.25
L 62.65 4.9 37.35 4.9 33.95 8.25 35.15 28.2 44.55 40.6 55.45 40.6 64.85 28.2 66.05 8.25
M 40.95 11.6
L 59.05 11.6 58.15 26.1 51.9 33.9 50.65 33.9 49.35 33.9 48.1 33.9 41.85 26.1 40.95 11.6 Z"/>

<path fill="#4F4F4F" stroke="none" d="
M 51.9 66.1
L 50.65 66.1 49.35 66.1 48.1 66.1 41.85 73.9 40.95 88.4 59.05 88.4 58.15 73.9 51.9 66.1
M 26.1 41.85
L 11.6 40.95 11.6 59.05 26.1 58.15 33.9 51.9 33.9 50.65 33.9 49.35 33.9 48.1 26.1 41.85
M 59.05 11.6
L 40.95 11.6 41.85 26.1 48.1 33.9 49.35 33.9 50.65 33.9 51.9 33.9 58.15 26.1 59.05 11.6 Z"/>

<path fill="#D7D7D7" stroke="none" d="
M 95.1 37.35
L 91.75 33.95 71.8 35.15 59.4 44.55 59.4 55.45 71.8 64.85 91.75 66.05 95.1 62.65 95.1 37.35
M 88.4 40.95
L 88.4 59.05 73.9 58.15 66.1 51.9 66.1 50.65 66.1 49.35 66.1 48.1 73.9 41.85 88.4 40.95 Z"/>

<path fill="#F5F5F5" stroke="none" d="
M 88.4 59.05
L 88.4 40.95 73.9 41.85 66.1 48.1 66.1 49.35 66.1 50.65 66.1 51.9 73.9 58.15 88.4 59.05 Z"/>
</g>

<g id="Layer39_0_FILL">
<path fill="#313131" stroke="none" d="
M 33.95 91.75
L 37.35 95.1 62.65 95.1 66.05 91.75 64.85 71.8 55.45 59.4 44.55 59.4 35.15 71.8 33.95 91.75
M 49.35 66.1
L 50.65 66.1 51.9 66.1 58.15 73.9 59.05 88.4 40.95 88.4 41.85 73.9 48.1 66.1 49.35 66.1
M 8.25 33.95
L 4.9 37.35 4.9 62.65 8.25 66.05 28.2 64.85 40.6 55.45 40.6 44.55 28.2 35.15 8.25 33.95
M 33.9 48.1
L 33.9 49.35 33.9 50.65 33.9 51.9 26.1 58.15 11.6 59.05 11.6 40.95 26.1 41.85 33.9 48.1
M 95.1 37.35
L 91.75 33.95 71.8 35.15 59.4 44.55 59.4 55.45 71.8 64.85 91.75 66.05 95.1 62.65 95.1 37.35
M 88.4 40.95
L 88.4 59.05 73.9 58.15 66.1 51.9 66.1 50.65 66.1 49.35 66.1 48.1 73.9 41.85 88.4 40.95 Z"/>

<path fill="#4F4F4F" stroke="none" d="
M 50.65 66.1
L 49.35 66.1 48.1 66.1 41.85 73.9 40.95 88.4 59.05 88.4 58.15 73.9 51.9 66.1 50.65 66.1
M 33.9 49.35
L 33.9 48.1 26.1 41.85 11.6 40.95 11.6 59.05 26.1 58.15 33.9 51.9 33.9 50.65 33.9 49.35
M 88.4 59.05
L 88.4 40.95 73.9 41.85 66.1 48.1 66.1 49.35 66.1 50.65 66.1 51.9 73.9 58.15 88.4 59.05 Z"/>

<path fill="#D7D7D7" stroke="none" d="
M 66.05 8.25
L 62.65 4.9 37.35 4.9 33.95 8.25 35.15 28.2 44.55 40.6 55.45 40.6 64.85 28.2 66.05 8.25
M 40.95 11.6
L 59.05 11.6 58.15 26.1 51.9 33.9 50.65 33.9 49.35 33.9 48.1 33.9 41.85 26.1 40.95 11.6 Z"/>

<path fill="#F5F5F5" stroke="none" d="
M 59.05 11.6
L 40.95 11.6 41.85 26.1 48.1 33.9 49.35 33.9 50.65 33.9 51.9 33.9 58.15 26.1 59.05 11.6 Z"/>
</g>

<g id="Layer38_0_FILL">
<path fill="#313131" stroke="none" d="
M 33.95 91.75
L 37.35 95.1 62.65 95.1 66.05 91.75 64.85 71.8 55.45 59.4 44.55 59.4 35.15 71.8 33.95 91.75
M 48.1 66.1
L 49.35 66.1 50.65 66.1 51.9 66.1 58.15 73.9 59.05 88.4 40.95 88.4 41.85 73.9 48.1 66.1
M 8.25 33.95
L 4.9 37.35 4.9 62.65 8.25 66.05 28.2 64.85 40.6 55.45 40.6 44.55 28.2 35.15 8.25 33.95
M 11.6 40.95
L 26.1 41.85 33.9 48.1 33.9 49.35 33.9 50.65 33.9 51.9 26.1 58.15 11.6 59.05 11.6 40.95
M 66.05 8.25
L 62.65 4.9 37.35 4.9 33.95 8.25 35.15 28.2 44.55 40.6 55.45 40.6 64.85 28.2 66.05 8.25
M 40.95 11.6
L 59.05 11.6 58.15 26.1 51.9 33.9 50.65 33.9 49.35 33.9 48.1 33.9 41.85 26.1 40.95 11.6
M 95.1 37.35
L 91.75 33.95 71.8 35.15 59.4 44.55 59.4 55.45 71.8 64.85 91.75 66.05 95.1 62.65 95.1 37.35
M 88.4 40.95
L 88.4 59.05 73.9 58.15 66.1 51.9 66.1 50.65 66.1 49.35 66.1 48.1 73.9 41.85 88.4 40.95 Z"/>

<path fill="#4F4F4F" stroke="none" d="
M 49.35 66.1
L 48.1 66.1 41.85 73.9 40.95 88.4 59.05 88.4 58.15 73.9 51.9 66.1 50.65 66.1 49.35 66.1
M 26.1 41.85
L 11.6 40.95 11.6 59.05 26.1 58.15 33.9 51.9 33.9 50.65 33.9 49.35 33.9 48.1 26.1 41.85
M 59.05 11.6
L 40.95 11.6 41.85 26.1 48.1 33.9 49.35 33.9 50.65 33.9 51.9 33.9 58.15 26.1 59.05 11.6
M 88.4 59.05
L 88.4 40.95 73.9 41.85 66.1 48.1 66.1 49.35 66.1 50.65 66.1 51.9 73.9 58.15 88.4 59.05 Z"/>
</g>

<g id="Layer37_0_FILL">
<path fill="#FFFFFF" stroke="none" d="
M 50.1 17.15
L 60.6 6.65 39.6 6.65 50.1 17.15 Z"/>

<path fill="#272727" stroke="none" d="
M 30.7 68.8
Q 29.6 69.2 28.55 69.65 19.65 73.55 19.65 79.1 19.65 84.65 28.55 88.5 37.45 92.4 50 92.4 62.55 92.4 71.45 88.5 80.35 84.65 80.35 79.1 80.35 73.55 71.45 69.65 71.4 69.6 71.3 69.6 70.35 69.2 69.35 68.85
L 69.35 76.3
Q 69.35 79.1 63.7 81.05 58 83.05 49.95 83.05 41.9 83.05 36.15 81.05 30.55 79.1 30.7 76.3
L 30.7 68.8 Z"/>

<path fill="#3F3F3F" stroke="none" d="
M 90.35 37.55
Q 88.9 32.75 85.75 30.65 83.2 28.75 76.9 27.3 76 27.1 75.1 26.9 64.45 24.7 50 24.7 34.3 24.7 23.2 27.3 14.7 29.25 12.8 31.9 10.75 34 9.7 37.55 7.65 45.65 16.45 49.8 21.4 52.05 25.5 53.05 30.55 55 30.7 60.55
L 30.7 68.8 30.7 76.3
Q 30.55 79.1 36.15 81.05 41.9 83.05 49.95 83.05 58 83.05 63.7 81.05 69.35 79.1 69.35 76.3
L 69.35 68.85 69.35 60.55
Q 69.5 55 74.55 53.05 78.65 52.05 83.6 49.8 92.4 45.65 90.35 37.55
M 81.55 34.75
Q 81.6 34.9 81.65 35.05 81.7 35.15 81.7 35.3
L 81.7 35.5
Q 81.7 38.3 72.45 40.25 63.1 42.25 49.9 42.25 36.75 42.25 27.35 40.25 18.15 38.3 18.4 35.5 18.35 35.1 18.5 34.75 19.4 32.45 27.35 30.75 36.75 28.75 49.9 28.75 63.1 28.75 72.45 30.75 80.45 32.45 81.55 34.75
M 56.75 51.8
Q 57.95 52.55 58.6 53.85 59.3 55.15 59.3 57.15 59.3 59.5 58.05 61.15 56.8 62.8 54.5 63.2
L 60.15 72.65 54.25 72.65 49.6 63.75 47.2 63.75 47.2 72.65 42.3 72.65 42.3 50.35 50.9 50.35
Q 52.6 50.35 54.1 50.7 55.65 51.05 56.75 51.8
M 52.95 55
Q 52.4 54.7 51.75 54.6 51.05 54.55 50.4 54.55
L 47.2 54.55 47.2 59.55 50.05 59.55
Q 50.75 59.55 51.45 59.5 52.2 59.5 52.8 59.25 53.4 59.05 53.8 58.55 54.15 58.05 54.15 57.1 54.15 56.25 53.85 55.75 53.5 55.25 52.95 55 Z"/>

<path fill="#8C8C8C" stroke="none" d="
M 58.6 53.85
Q 57.95 52.55 56.75 51.8 55.65 51.05 54.1 50.7 52.6 50.35 50.9 50.35
L 42.3 50.35 42.3 72.65 47.2 72.65 47.2 63.75 49.6 63.75 54.25 72.65 60.15 72.65 54.5 63.2
Q 56.8 62.8 58.05 61.15 59.3 59.5 59.3 57.15 59.3 55.15 58.6 53.85
M 51.75 54.6
Q 52.4 54.7 52.95 55 53.5 55.25 53.85 55.75 54.15 56.25 54.15 57.1 54.15 58.05 53.8 58.55 53.4 59.05 52.8 59.25 52.2 59.5 51.45 59.5 50.75 59.55 50.05 59.55
L 47.2 59.55 47.2 54.55 50.4 54.55
Q 51.05 54.55 51.75 54.6 Z"/>

<path fill="#555555" stroke="none" d="
M 81.65 35.05
Q 81.6 34.9 81.55 34.75 80.45 32.45 72.45 30.75 63.1 28.75 49.9 28.75 36.75 28.75 27.35 30.75 19.4 32.45 18.5 34.75 18.35 35.1 18.4 35.5 18.15 38.3 27.35 40.25 36.75 42.25 49.9 42.25 63.1 42.25 72.45 40.25 81.7 38.3 81.7 35.5
L 81.7 35.3
Q 81.7 35.15 81.65 35.05 Z"/>
</g>

<g id="Layer36_0_FILL">
<path fill="#FFFFFF" stroke="none" d="
M 50.1 17.15
L 60.6 6.65 39.6 6.65 50.1 17.15 Z"/>

<path fill="#272727" stroke="none" d="
M 30.7 76.3
L 30.7 68.8
Q 29.6 69.2 28.55 69.65 19.65 73.55 19.65 79.1 19.65 84.65 28.55 88.5 37.45 92.4 50 92.4 62.55 92.4 71.45 88.5 80.35 84.65 80.35 79.1 80.35 73.55 71.45 69.65 71.4 69.6 71.3 69.6 70.35 69.2 69.35 68.85
L 69.35 76.3
Q 69.35 79.1 63.7 81.05 58 83.05 49.95 83.05 41.9 83.05 36.15 81.05 30.55 79.1 30.7 76.3 Z"/>

<path fill="#3F3F3F" stroke="none" d="
M 90.35 37.55
Q 88.9 32.75 85.75 30.65 83.2 28.75 76.9 27.3 76 27.1 75.1 26.9 64.45 24.7 50 24.7 34.3 24.7 23.2 27.3 14.7 29.25 12.8 31.9 10.75 34 9.7 37.55 7.65 45.65 16.45 49.8 21.4 52.05 25.5 53.05 30.55 55 30.7 60.55
L 30.7 68.8 30.7 76.3
Q 30.55 79.1 36.15 81.05 41.9 83.05 49.95 83.05 58 83.05 63.7 81.05 69.35 79.1 69.35 76.3
L 69.35 68.85 69.35 60.55
Q 69.5 55 74.55 53.05 78.65 52.05 83.6 49.8 92.4 45.65 90.35 37.55
M 81.7 35.3
L 81.7 35.5
Q 81.7 38.3 72.45 40.25 63.1 42.25 49.9 42.25 36.75 42.25 27.35 40.25 18.15 38.3 18.4 35.5 18.35 35.1 18.5 34.75 19.4 32.45 27.35 30.75 36.75 28.75 49.9 28.75 63.1 28.75 72.45 30.75 80.45 32.45 81.55 34.75 81.6 34.9 81.65 35.05 81.7 35.15 81.7 35.3
M 44.35 50.35
L 49.25 50.35 49.25 68.1 58.35 68.1 58.35 72.65 44.35 72.65 44.35 50.35 Z"/>

<path fill="#8C8C8C" stroke="none" d="
M 49.25 50.35
L 44.35 50.35 44.35 72.65 58.35 72.65 58.35 68.1 49.25 68.1 49.25 50.35 Z"/>

<path fill="#555555" stroke="none" d="
M 81.7 35.5
L 81.7 35.3
Q 81.7 35.15 81.65 35.05 81.6 34.9 81.55 34.75 80.45 32.45 72.45 30.75 63.1 28.75 49.9 28.75 36.75 28.75 27.35 30.75 19.4 32.45 18.5 34.75 18.35 35.1 18.4 35.5 18.15 38.3 27.35 40.25 36.75 42.25 49.9 42.25 63.1 42.25 72.45 40.25 81.7 38.3 81.7 35.5 Z"/>
</g>

<g id="Layer35_0_FILL">
<path fill="#272727" stroke="none" d="
M 79.85 20.15
Q 67.5 7.8 50 7.8 32.5 7.8 20.15 20.15 7.8 32.5 7.8 50 7.8 67.5 20.15 79.85 32.5 92.2 50 92.2 67.5 92.2 79.85 79.85 92.2 67.5 92.2 50 92.2 32.5 79.85 20.15
M 50 15.95
Q 64.2 15.95 74.1 25.95 84.1 35.9 84.1 50 84.1 64.2 74.1 74.1 64.2 84.1 50 84.1 35.9 84.1 25.95 74.1 15.95 64.2 15.95 50 15.95 35.9 25.95 25.95 35.9 15.95 50 15.95 Z"/>

<path fill="#3F3F3F" stroke="none" d="
M 74.1 25.95
Q 64.2 15.95 50 15.95 35.9 15.95 25.95 25.95 15.95 35.9 15.95 50 15.95 64.2 25.95 74.1 35.9 84.1 50 84.1 64.2 84.1 74.1 74.1 84.1 64.2 84.1 50 84.1 35.9 74.1 25.95
M 50 25.05
Q 60.35 25.05 67.65 32.4 74.95 39.65 74.95 50 74.95 60.35 67.65 67.65 60.35 74.95 50 74.95 39.65 74.95 32.4 67.65 25.05 60.35 25.05 50 25.05 39.65 32.4 32.4 39.65 25.05 50 25.05 Z"/>

<path fill="#555555" stroke="none" d="
M 67.65 32.4
Q 60.35 25.05 50 25.05 39.65 25.05 32.4 32.4 25.05 39.65 25.05 50 25.05 60.35 32.4 67.65 39.65 74.95 50 74.95 60.35 74.95 67.65 67.65 74.95 60.35 74.95 50 74.95 39.65 67.65 32.4
M 57.5 39.3
Q 58.8 40.15 59.55 41.6 60.3 43.05 60.3 45.25 60.3 47.85 58.95 49.7 57.55 51.55 54.95 52
L 61.25 62.5 54.7 62.5 49.5 52.6 46.85 52.6 46.85 62.5 41.4 62.5 41.4 37.7 50.95 37.7
Q 52.85 37.7 54.55 38.1 56.25 38.45 57.5 39.3
M 46.85 42.35
L 46.85 47.95 50.05 47.95
Q 50.8 47.95 51.6 47.9 52.4 47.85 53.1 47.6 53.75 47.35 54.2 46.8 54.6 46.25 54.6 45.2 54.6 44.25 54.25 43.7 53.85 43.15 53.25 42.85 52.65 42.55 51.9 42.45 51.15 42.35 50.4 42.35
L 46.85 42.35 Z"/>

<path fill="#8C8C8C" stroke="none" d="
M 59.55 41.6
Q 58.8 40.15 57.5 39.3 56.25 38.45 54.55 38.1 52.85 37.7 50.95 37.7
L 41.4 37.7 41.4 62.5 46.85 62.5 46.85 52.6 49.5 52.6 54.7 62.5 61.25 62.5 54.95 52
Q 57.55 51.55 58.95 49.7 60.3 47.85 60.3 45.25 60.3 43.05 59.55 41.6
M 46.85 47.95
L 46.85 42.35 50.4 42.35
Q 51.15 42.35 51.9 42.45 52.65 42.55 53.25 42.85 53.85 43.15 54.25 43.7 54.6 44.25 54.6 45.2 54.6 46.25 54.2 46.8 53.75 47.35 53.1 47.6 52.4 47.85 51.6 47.9 50.8 47.95 50.05 47.95
L 46.85 47.95 Z"/>
</g>

<g id="Layer34_0_FILL">
<path fill="#272727" stroke="none" d="
M 79.85 20.15
Q 67.5 7.8 50 7.8 32.5 7.8 20.15 20.15 7.8 32.5 7.8 50 7.8 67.5 20.15 79.85 32.5 92.2 50 92.2 67.5 92.2 79.85 79.85 92.2 67.5 92.2 50 92.2 32.5 79.85 20.15
M 50 15.95
Q 64.2 15.95 74.1 25.95 84.1 35.9 84.1 50 84.1 64.2 74.1 74.1 64.2 84.1 50 84.1 35.9 84.1 25.95 74.1 15.95 64.2 15.95 50 15.95 35.9 25.95 25.95 35.9 15.95 50 15.95 Z"/>

<path fill="#3F3F3F" stroke="none" d="
M 74.1 25.95
Q 64.2 15.95 50 15.95 35.9 15.95 25.95 25.95 15.95 35.9 15.95 50 15.95 64.2 25.95 74.1 35.9 84.1 50 84.1 64.2 84.1 74.1 74.1 84.1 64.2 84.1 50 84.1 35.9 74.1 25.95
M 50 25.05
Q 60.35 25.05 67.65 32.4 74.95 39.65 74.95 50 74.95 60.35 67.65 67.65 60.35 74.95 50 74.95 39.65 74.95 32.4 67.65 25.05 60.35 25.05 50 25.05 39.65 32.4 32.4 39.65 25.05 50 25.05 Z"/>

<path fill="#555555" stroke="none" d="
M 67.65 32.4
Q 60.35 25.05 50 25.05 39.65 25.05 32.4 32.4 25.05 39.65 25.05 50 25.05 60.35 32.4 67.65 39.65 74.95 50 74.95 60.35 74.95 67.65 67.65 74.95 60.35 74.95 50 74.95 39.65 67.65 32.4
M 43.55 37.7
L 49 37.7 49 57.45 59.1 57.45 59.1 62.5 43.55 62.5 43.55 37.7 Z"/>

<path fill="#8C8C8C" stroke="none" d="
M 49 37.7
L 43.55 37.7 43.55 62.5 59.1 62.5 59.1 57.45 49 57.45 49 37.7 Z"/>
</g>

<g id="Layer33_0_FILL">
<path fill="#313131" stroke="none" d="
M 92.1 42.85
Q 93.05 31.9 82.85 30.55 46.7 27.85 23.25 21.35 15.9 21.35 12.5 27.2 4.7 40.6 10 58.1 12.4 66.05 20.05 69.2 46.8 76.1 81.8 78.6 90.85 79.15 91.55 69.35 91.55 49.45 92.1 42.85
M 77.8 39.05
Q 80.35 39.4 80.3 42
L 80.3 42.05
Q 79.8 48.75 79.8 68.75 79.65 69.45 79.1 69.8 78.7 70.05 78.05 70
L 78.1 70.05
Q 46.35 67.65 21.9 60.95 19.7 59.75 19.75 59.05 17.5 56.2 16.65 49.35 15.85 42.5 17.75 37.4 19.55 32.65 21.6 30.45 22.05 29.95 22.1 29.95 44.25 36.4 77.8 39.05
M 22.1 60.95
Q 19.8 59.7 19.75 59.05 19.7 59.75 21.9 60.95 46.35 67.65 78.1 70.05
L 78.05 70
Q 78.7 70.05 79.1 69.8 47.05 67.3 22.1 60.95 Z"/>

<path fill="#4F4F4F" stroke="none" d="
M 80.3 42
Q 80.35 39.4 77.8 39.05 44.25 36.4 22.1 29.95 22.05 29.95 21.6 30.45 19.55 32.65 17.75 37.4 15.85 42.5 16.65 49.35 17.5 56.2 19.75 59.05 19.8 59.7 22.1 60.95 47.05 67.3 79.1 69.8 79.65 69.45 79.8 68.75 79.8 48.75 80.3 42.05
L 80.3 42
M 43.4 41.9
L 46.9 42.8 46.9 60.5 43.3 59.55 43.3 46.05 39.75 48.25 37.65 45.3 43.4 41.9
M 24.6 37.15
L 28.5 38.15 28.5 52.25 35.7 54.05 35.7 57.65 24.6 54.85 24.6 37.15 Z"/>

<path fill="#8F8F8F" stroke="none" d="
M 28.5 38.15
L 24.6 37.15 24.6 54.85 35.7 57.65 35.7 54.05 28.5 52.25 28.5 38.15
M 46.9 42.8
L 43.4 41.9 37.65 45.3 39.75 48.25 43.3 46.05 43.3 59.55 46.9 60.5 46.9 42.8 Z"/>
</g>

<g id="Layer32_0_FILL">
<path fill="#313131" stroke="none" d="
M 90.05 58.1
Q 95.35 40.6 87.55 27.2 84.15 21.35 76.8 21.35 53.35 27.85 17.2 30.55 7 31.9 7.95 42.85 8.5 49.45 8.5 69.35 9.2 79.15 18.25 78.6 53.25 76.1 80 69.2 87.65 66.05 90.05 58.1
M 82.3 37.4
Q 84.2 42.5 83.4 49.35 82.55 56.2 80.3 59.05 80.35 59.75 78.15 60.95 53.7 67.65 21.95 70.05
L 22 70
Q 21.35 70.05 20.95 69.8 20.4 69.45 20.25 68.75 20.25 48.75 19.75 42.05
L 19.75 42
Q 19.7 39.4 22.25 39.05 55.8 36.4 77.95 29.95 78 29.95 78.45 30.45 80.5 32.65 82.3 37.4
M 22 70
L 21.95 70.05
Q 53.7 67.65 78.15 60.95 80.35 59.75 80.3 59.05 80.25 59.7 77.95 60.95 53 67.3 20.95 69.8 21.35 70.05 22 70 Z"/>

<path fill="#4F4F4F" stroke="none" d="
M 83.4 49.35
Q 84.2 42.5 82.3 37.4 80.5 32.65 78.45 30.45 78 29.95 77.95 29.95 55.8 36.4 22.25 39.05 19.7 39.4 19.75 42
L 19.75 42.05
Q 20.25 48.75 20.25 68.75 20.4 69.45 20.95 69.8 53 67.3 77.95 60.95 80.25 59.7 80.3 59.05 82.55 56.2 83.4 49.35
M 58.4 41.5
Q 59.65 41.45 60.55 41.9 61.45 42.3 62 43.25 62.5 44.15 62.5 45.7 62.5 47.6 61.55 49.1 60.55 50.65 58.7 51.35
L 63.2 57.9 58.5 58.9 54.8 52.6 52.9 53 52.9 60.1 49 60.95 49 43.25 55.85 41.8
Q 57.2 41.5 58.4 41.5
M 70.7 38.55
L 74.2 37.8 74.2 55.5 70.6 56.3 70.6 42.8 67.05 46.65 64.95 44.65 70.7 38.55
M 55.45 45.15
L 52.9 45.7 52.9 49.7 55.2 49.2
Q 55.7 49.1 56.3 49 56.9 48.8 57.35 48.5 57.85 48.2 58.15 47.75 58.45 47.3 58.45 46.55 58.45 45.9 58.2 45.55 57.9 45.2 57.5 45.1 57.05 44.95 56.55 45 56 45.05 55.45 45.15 Z"/>

<path fill="#8F8F8F" stroke="none" d="
M 74.2 37.8
L 70.7 38.55 64.95 44.65 67.05 46.65 70.6 42.8 70.6 56.3 74.2 55.5 74.2 37.8
M 60.55 41.9
Q 59.65 41.45 58.4 41.5 57.2 41.5 55.85 41.8
L 49 43.25 49 60.95 52.9 60.1 52.9 53 54.8 52.6 58.5 58.9 63.2 57.9 58.7 51.35
Q 60.55 50.65 61.55 49.1 62.5 47.6 62.5 45.7 62.5 44.15 62 43.25 61.45 42.3 60.55 41.9
M 52.9 45.7
L 55.45 45.15
Q 56 45.05 56.55 45 57.05 44.95 57.5 45.1 57.9 45.2 58.2 45.55 58.45 45.9 58.45 46.55 58.45 47.3 58.15 47.75 57.85 48.2 57.35 48.5 56.9 48.8 56.3 49 55.7 49.1 55.2 49.2
L 52.9 49.7 52.9 45.7 Z"/>
</g>

<g id="Layer31_0_FILL">
<path fill="#313131" stroke="none" d="
M 91.45 65.45
L 91.45 19.95 72.6 19.95
Q 60.6685546875 18.5724609375 48 18.35 42.56796875 18.2744140625 37 18.4 24.919140625 18.6681640625 12.2 19.95 7.3 48.25 9.05 76.55 10.05 82.7 15.35 84.75 24.3 87.7 34 87.65 52 87.55 59.5 85.05 67.9 82.25 70.5 76.55 70.5 74.15 70.5 71.75
L 76.55 65.45 91.45 65.45
M 48 26.1
Q 56.3564453125 26.21328125 64.6 26.65 62.45 49.75 63.55 72.8 61.1 76.85 53.75 78.35 46.4 79.8 34.8 79.6 23.2 79.4 17.2 76.95 15.75 73.75 15.95 69.85 15 47.75 18.45 26.65 27.7921875 26.173046875 37 26.05 42.5244140625 26.01640625 48 26.1 Z"/>

<path fill="#4F4F4F" stroke="none" d="
M 64.6 26.65
Q 56.3564453125 26.21328125 48 26.1 42.5244140625 26.01640625 37 26.05 27.7921875 26.173046875 18.45 26.65 15 47.75 15.95 69.85 15.75 73.75 17.2 76.95 23.2 79.4 34.8 79.6 46.4 79.8 53.75 78.35 61.1 76.85 63.55 72.8 62.45 49.75 64.6 26.65
M 47.85 46.2
Q 48.6 46.85 49.05 47.85 49.5 48.85 49.5 50.2 49.5 51 49.3 51.7 49.1 52.4 48.8 52.95 48.5 53.5 48.05 54 47.65 54.5 47.15 54.95
L 41.8 59.55 49.6 59.55 49.6 62.85 37.3 62.85 37.3 58.85 44.15 52.7
Q 44.7 52.25 45.2 51.6 45.75 51 45.75 50.25 45.75 49.3 45.1 48.8 44.45 48.3 43.55 48.3 42.5 48.3 41.9 48.95 41.35 49.6 41.25 50.55
L 37.5 50.3
Q 37.6 48.9 38.1 47.9 38.6 46.85 39.4 46.2 40.2 45.5 41.35 45.2 42.45 44.85 43.75 44.85 44.95 44.85 46 45.2 47.05 45.5 47.85 46.2
M 23.55 45.15
L 27.45 45.15 27.45 59.25 34.65 59.25 34.65 62.85 23.55 62.85 23.55 45.15 Z"/>

<path fill="#8F8F8F" stroke="none" d="
M 27.45 45.15
L 23.55 45.15 23.55 62.85 34.65 62.85 34.65 59.25 27.45 59.25 27.45 45.15
M 49.05 47.85
Q 48.6 46.85 47.85 46.2 47.05 45.5 46 45.2 44.95 44.85 43.75 44.85 42.45 44.85 41.35 45.2 40.2 45.5 39.4 46.2 38.6 46.85 38.1 47.9 37.6 48.9 37.5 50.3
L 41.25 50.55
Q 41.35 49.6 41.9 48.95 42.5 48.3 43.55 48.3 44.45 48.3 45.1 48.8 45.75 49.3 45.75 50.25 45.75 51 45.2 51.6 44.7 52.25 44.15 52.7
L 37.3 58.85 37.3 62.85 49.6 62.85 49.6 59.55 41.8 59.55 47.15 54.95
Q 47.65 54.5 48.05 54 48.5 53.5 48.8 52.95 49.1 52.4 49.3 51.7 49.5 51 49.5 50.2 49.5 48.85 49.05 47.85 Z"/>
</g>

<g id="Layer30_0_FILL">
<path fill="#313131" stroke="none" d="
M 84.7 84.75
Q 90 82.7 91 76.55 92.75 48.25 87.85 19.95 73.494140625 18.5033203125 59.95 18.35 43.069140625 18.1466796875 27.45 19.95
L 8.6 19.95 8.6 65.45 23.5 65.45 29.55 71.75
Q 29.55 74.15 29.55 76.55 32.15 82.25 40.55 85.05 48.05 87.55 66.05 87.65 75.75 87.7 84.7 84.75
M 84.1 69.85
Q 84.3 73.75 82.85 76.95 76.85 79.4 65.25 79.6 53.65 79.8 46.3 78.35 38.95 76.85 36.5 72.8 37.4 53.941796875 36.1 35.05 35.841015625 30.85078125 35.45 26.65 47.578125 26.007421875 59.95 26.05 70.6833984375 26.092578125 81.6 26.65 85.05 47.75 84.1 69.85 Z"/>

<path fill="#4F4F4F" stroke="none" d="
M 82.85 76.95
Q 84.3 73.75 84.1 69.85 85.05 47.75 81.6 26.65 70.6833984375 26.092578125 59.95 26.05 47.578125 26.007421875 35.45 26.65 35.841015625 30.85078125 36.1 35.05 37.4 53.941796875 36.5 72.8 38.95 76.85 46.3 78.35 53.65 79.8 65.25 79.6 76.85 79.4 82.85 76.95
M 55.4 45.15
Q 56.75 45.15 57.95 45.4 59.2 45.65 60.1 46.3 61 46.9 61.55 47.95 62.05 48.95 62.05 50.5 62.05 52.4 61.1 53.7 60.1 55.05 58.25 55.35
L 62.75 62.85 58.05 62.85 54.35 55.75 52.45 55.75 52.45 62.85 48.55 62.85 48.55 45.15 55.4 45.15
M 74.75 46.2
Q 75.5 46.85 75.95 47.85 76.4 48.85 76.4 50.2 76.4 51 76.2 51.7 76 52.4 75.7 52.95 75.4 53.5 74.95 54 74.55 54.5 74.05 54.95
L 68.7 59.55 76.5 59.55 76.5 62.85 64.2 62.85 64.2 58.85 71.05 52.7
Q 71.6 52.25 72.1 51.6 72.65 51 72.65 50.25 72.65 49.3 72 48.8 71.35 48.3 70.45 48.3 69.4 48.3 68.8 48.95 68.25 49.6 68.15 50.55
L 64.4 50.3
Q 64.5 48.9 65 47.9 65.5 46.85 66.3 46.2 67.1 45.5 68.25 45.2 69.35 44.85 70.65 44.85 71.85 44.85 72.9 45.2 73.95 45.5 74.75 46.2
M 55 48.45
L 52.45 48.45 52.45 52.45 54.75 52.45
Q 55.25 52.45 55.85 52.45 56.45 52.4 56.9 52.2 57.4 52 57.7 51.6 58 51.25 58 50.5 58 49.85 57.75 49.4 57.45 49 57.05 48.8 56.6 48.6 56.1 48.5 55.55 48.45 55 48.45 Z"/>

<path fill="#8F8F8F" stroke="none" d="
M 75.95 47.85
Q 75.5 46.85 74.75 46.2 73.95 45.5 72.9 45.2 71.85 44.85 70.65 44.85 69.35 44.85 68.25 45.2 67.1 45.5 66.3 46.2 65.5 46.85 65 47.9 64.5 48.9 64.4 50.3
L 68.15 50.55
Q 68.25 49.6 68.8 48.95 69.4 48.3 70.45 48.3 71.35 48.3 72 48.8 72.65 49.3 72.65 50.25 72.65 51 72.1 51.6 71.6 52.25 71.05 52.7
L 64.2 58.85 64.2 62.85 76.5 62.85 76.5 59.55 68.7 59.55 74.05 54.95
Q 74.55 54.5 74.95 54 75.4 53.5 75.7 52.95 76 52.4 76.2 51.7 76.4 51 76.4 50.2 76.4 48.85 75.95 47.85
M 57.95 45.4
Q 56.75 45.15 55.4 45.15
L 48.55 45.15 48.55 62.85 52.45 62.85 52.45 55.75 54.35 55.75 58.05 62.85 62.75 62.85 58.25 55.35
Q 60.1 55.05 61.1 53.7 62.05 52.4 62.05 50.5 62.05 48.95 61.55 47.95 61 46.9 60.1 46.3 59.2 45.65 57.95 45.4
M 52.45 48.45
L 55 48.45
Q 55.55 48.45 56.1 48.5 56.6 48.6 57.05 48.8 57.45 49 57.75 49.4 58 49.85 58 50.5 58 51.25 57.7 51.6 57.4 52 56.9 52.2 56.45 52.4 55.85 52.45 55.25 52.45 54.75 52.45
L 52.45 52.45 52.45 48.45 Z"/>
</g>

<g id="Layer29_0_FILL">
<path fill="#1B1B1B" stroke="none" d="
M 61.75 69.4
L 61.75 65.8 49.7 65.8 49.7 83.5 62.15 83.5 62.15 79.9 53.6 79.9 53.6 76.3 61.3 76.3 61.3 72.7 53.6 72.7 53.6 69.4 61.75 69.4
M 70.1 66
Q 68.35 66.65 67.05 67.85 65.8 69.05 65.05 70.8 64.35 72.55 64.35 74.65 64.35 76.75 65.05 78.5 65.8 80.25 67.05 81.45 68.35 82.65 70.1 83.3 71.85 83.95 73.9 83.95 75.75 83.95 77.45 83.2 79.2 82.45 80.3 80.9
L 77.05 78.45
Q 76.45 79.35 75.55 79.85 74.6 80.35 73.4 80.35 72.35 80.35 71.45 79.9 70.55 79.5 69.85 78.75 69.2 77.95 68.8 76.95 68.4 75.9 68.4 74.65 68.4 73.45 68.8 72.4 69.2 71.35 69.85 70.55 70.55 69.8 71.5 69.4 72.45 68.95 73.55 68.95 74.65 68.95 75.5 69.35 76.3 69.7 76.9 70.4
L 79.9 67.95
Q 79.3 67.25 78.6 66.75 77.85 66.25 77.05 65.9 76.3 65.65 75.5 65.5 74.65 65.35 73.9 65.35 71.85 65.35 70.1 66
M 9.45 65.7
Q 8.25 66.05 7.3 66.8 6.35 67.5 5.8 68.6 5.25 69.65 5.25 71.1 5.25 72.55 5.85 73.5 6.5 74.35 7.4 74.95 8.35 75.5 9.4 75.8 10.5 76.15 11.4 76.45 12.35 76.75 12.95 77.25 13.55 77.7 13.55 78.5 13.55 78.95 13.35 79.35 13.1 79.7 12.7 79.9 12.3 80.15 11.85 80.25 11.35 80.35 10.85 80.35 9.9 80.35 8.95 79.9 8.05 79.45 7.45 78.7
L 4.7 81.75
Q 5.95 82.9 7.45 83.45 8.9 83.95 10.65 83.95 12 83.95 13.25 83.6 14.5 83.25 15.4 82.5 16.35 81.8 16.9 80.7 17.45 79.6 17.45 78.15 17.45 76.6 16.85 75.65 16.25 74.7 15.35 74.15 14.45 73.6 13.4 73.3 12.35 73.05 11.4 72.7 10.5 72.45 9.9 72 9.3 71.55 9.3 70.8 9.3 70.3 9.55 69.95 9.8 69.55 10.2 69.35 10.6 69.15 11.05 69.05 11.5 68.95 11.95 68.95 12.65 68.95 13.45 69.25 14.3 69.5 14.75 70.1
L 17.45 67.2
Q 16.3 66.2 14.9 65.8 13.5 65.35 12 65.35 10.7 65.35 9.45 65.7
M 40.15 65.8
L 36.25 65.8 36.25 83.5 47.35 83.5 47.35 79.9 40.15 79.9 40.15 65.8
M 32.1 72.7
L 24.4 72.7 24.4 69.4 32.55 69.4 32.55 65.8 20.5 65.8 20.5 83.5 32.95 83.5 32.95 79.9 24.4 79.9 24.4 76.3 32.1 76.3 32.1 72.7
M 85.85 69.25
L 85.85 83.5 89.75 83.5 89.75 69.25 94.8 69.25 94.8 65.8 80.8 65.8 80.8 69.25 85.85 69.25 Z"/>

<path fill="#313131" stroke="none" d="
M 87.35 54.25
L 87.35 20.7 12.65 20.7 12.65 54.25 87.35 54.25
M 79.85 28.2
L 79.85 46.75 20.15 46.75 20.15 28.2 79.85 28.2 Z"/>

<path fill="#4F4F4F" stroke="none" d="
M 79 45.9
L 79 29.05 21 29.05 21 45.9 79 45.9 Z"/>
</g>

<g id="Layer28_0_FILL">
<path fill="#1B1B1B" stroke="none" d="
M 49.7 65.8
L 46.5 65.8 38.85 83.5 43.1 83.5 44.6 79.75 51.45 79.75 53 83.5 57.4 83.5 49.7 65.8
M 50.15 76.45
L 45.8 76.45 48 70.95 50.15 76.45
M 68.6 66.05
Q 67.4 65.8 66.05 65.8
L 59.2 65.8 59.2 83.5 63.1 83.5 63.1 76.4 65 76.4 68.7 83.5 73.4 83.5 68.9 76
Q 70.75 75.7 71.75 74.35 72.7 73.05 72.7 71.15 72.7 69.6 72.2 68.6 71.65 67.55 70.75 66.95 69.85 66.3 68.6 66.05
M 65.4 73.1
L 63.1 73.1 63.1 69.1 65.65 69.1
Q 66.2 69.1 66.75 69.15 67.25 69.25 67.7 69.45 68.1 69.65 68.4 70.05 68.65 70.5 68.65 71.15 68.65 71.9 68.35 72.25 68.05 72.65 67.55 72.85 67.1 73.05 66.5 73.1 65.9 73.1 65.4 73.1
M 23 70.1
L 25.7 67.2
Q 24.55 66.2 23.15 65.8 21.75 65.35 20.25 65.35 18.95 65.35 17.7 65.7 16.5 66.05 15.55 66.8 14.6 67.5 14.05 68.6 13.5 69.65 13.5 71.1 13.5 72.55 14.1 73.5 14.75 74.35 15.65 74.95 16.6 75.5 17.65 75.8 18.75 76.15 19.65 76.45 20.6 76.75 21.2 77.25 21.8 77.7 21.8 78.5 21.8 78.95 21.6 79.35 21.35 79.7 20.95 79.9 20.55 80.15 20.1 80.25 19.6 80.35 19.1 80.35 18.15 80.35 17.2 79.9 16.3 79.45 15.7 78.7
L 12.95 81.75
Q 14.2 82.9 15.7 83.45 17.15 83.95 18.9 83.95 20.25 83.95 21.5 83.6 22.75 83.25 23.65 82.5 24.6 81.8 25.15 80.7 25.7 79.6 25.7 78.15 25.7 76.6 25.1 75.65 24.5 74.7 23.6 74.15 22.7 73.6 21.65 73.3 20.6 73.05 19.65 72.7 18.75 72.45 18.15 72 17.55 71.55 17.55 70.8 17.55 70.3 17.8 69.95 18.05 69.55 18.45 69.35 18.85 69.15 19.3 69.05 19.75 68.95 20.2 68.95 20.9 68.95 21.7 69.25 22.55 69.5 23 70.1
M 26.95 69.25
L 32 69.25 32 83.5 35.9 83.5 35.9 69.25 40.95 69.25 40.95 65.8 26.95 65.8 26.95 69.25
M 82.25 83.5
L 82.25 69.25 87.3 69.25 87.3 65.8 73.3 65.8 73.3 69.25 78.35 69.25 78.35 83.5 82.25 83.5 Z"/>

<path fill="#313131" stroke="none" d="
M 84.6 40.55
L 84.6 29.5 15.4 13.45 15.4 56.6 84.6 40.55
M 22.9 47.2
L 22.9 22.9 75.25 35.05 22.9 47.2 Z"/>

<path fill="#4F4F4F" stroke="none" d="
M 22.9 22.9
L 22.9 47.2 75.25 35.05 22.9 22.9 Z"/>
</g>

<g id="Layer27_0_FILL">
<path fill="#1B1B1B" stroke="none" d="
M 78.55 21.4
L 78.6 21.4
Q 66.8 9.6 50 9.6 48.480078125 9.6 47 9.7 32.1701171875 10.670703125 21.35 21.4 12.11484375 30.67421875 10.1 42.95 9.55 46.3591796875 9.55 50 9.55 66.75 21.35 78.6
L 21.35 78.65
Q 33.25 90.45 50 90.45 66.75 90.45 78.55 78.65
L 78.6 78.6
Q 90.45 66.75 90.45 50 90.45 33.2 78.55 21.4
M 47 13.7
Q 48.477734375 13.6 50 13.6 65.1 13.6 75.75 24.25 86.45 34.9 86.45 50 86.45 65.1 75.75 75.8 65.1 86.45 50 86.45 34.9 86.45 24.2 75.8
L 24.15 75.8
Q 13.55 65.1 13.55 50 13.55 46.34453125 14.15 42.95 16.116015625 32.321875 24.15 24.25
L 24.2 24.2
Q 33.8212890625 14.6685546875 47 13.7 Z"/>

<path fill="#313131" stroke="none" d="
M 50 13.6
Q 48.477734375 13.6 47 13.7 33.8212890625 14.6685546875 24.2 24.2
L 24.15 24.25
Q 16.116015625 32.321875 14.15 42.95 13.55 46.34453125 13.55 50 13.55 65.1 24.15 75.8
L 24.2 75.8
Q 34.9 86.45 50 86.45 65.1 86.45 75.75 75.8 86.45 65.1 86.45 50 86.45 34.9 75.75 24.25 65.1 13.6 50 13.6
M 47 17.1
Q 48.4751953125 17 50 17 63.6 17 73.3 26.6
L 73.35 26.6
Q 83 36.25 83 50 83 63.65 73.35 73.35 63.65 83 50 83 36.25 83 26.6 73.35
L 26.6 73.3
Q 17 63.6 17 50 17 46.331640625 17.7 42.95 19.5705078125 33.702734375 26.6 26.6 35.2205078125 18.0685546875 47 17.1 Z"/>

<path fill="#626262" stroke="none" d="
M 50 17
Q 48.4751953125 17 47 17.1 35.2205078125 18.0685546875 26.6 26.6 19.5705078125 33.702734375 17.7 42.95 17 46.331640625 17 50 17 63.6 26.6 73.3
L 26.6 73.35
Q 36.25 83 50 83 63.65 83 73.35 73.35 83 63.65 83 50 83 36.25 73.35 26.6
L 73.3 26.6
Q 63.6 17 50 17
M 47 20.1
Q 48.4720703125 20 50 20 62.4 20 71.15 28.75 79.95 37.5 79.95 50 79.95 62.35 71.15 71.15 62.35 79.95 50 79.95 37.5 79.95 28.75 71.15 20 62.4 20 50 20 46.3119140625 20.75 42.95 22.566796875 34.918359375 28.7 28.75
L 28.75 28.7
Q 36.43046875 21.0634765625 47 20.1 Z"/>

<path fill="#4F4F4F" stroke="none" d="
M 50 20
Q 48.4720703125 20 47 20.1 36.43046875 21.0634765625 28.75 28.7
L 28.7 28.75
Q 22.566796875 34.918359375 20.75 42.95 20 46.3119140625 20 50 20 62.4 28.75 71.15 37.5 79.95 50 79.95 62.35 79.95 71.15 71.15 79.95 62.35 79.95 50 79.95 37.5 71.15 28.75 62.4 20 50 20
M 50 50
L 63 63 50 50 37 63 50 50 37.05 37.05 50 50 62.95 37.05 50 50 Z"/>
</g>

<g id="Layer26_0_FILL">
<path fill="#1B1B1B" stroke="none" d="
M 78.55 21.4
L 78.6 21.4
Q 66.8 9.6 50 9.6 33.25 9.6 21.35 21.4 9.55 33.25 9.55 50 9.55 66.75 21.35 78.6
L 21.35 78.65
Q 33.25 90.45 50 90.45 66.75 90.45 78.55 78.65
L 78.6 78.6
Q 90.45 66.75 90.45 50 90.45 33.2 78.55 21.4
M 50 13.6
Q 65.1 13.6 75.75 24.25 86.45 34.9 86.45 50 86.45 65.1 75.75 75.8 65.1 86.45 50 86.45 34.9 86.45 24.2 75.8
L 24.15 75.8
Q 13.55 65.1 13.55 50 13.55 34.9 24.15 24.25
L 24.2 24.2
Q 34.9 13.6 50 13.6 Z"/>

<path fill="#313131" stroke="none" d="
M 75.75 24.25
Q 65.1 13.6 50 13.6 34.9 13.6 24.2 24.2
L 24.15 24.25
Q 13.55 34.9 13.55 50 13.55 65.1 24.15 75.8
L 24.2 75.8
Q 34.9 86.45 50 86.45 65.1 86.45 75.75 75.8 86.45 65.1 86.45 50 86.45 34.9 75.75 24.25
M 73.3 26.6
L 73.35 26.6
Q 83 36.25 83 50 83 63.65 73.35 73.35 63.65 83 50 83 36.25 83 26.6 73.35
L 26.6 73.3
Q 17 63.6 17 50 17 36.3 26.6 26.6 36.3 17 50 17 63.6 17 73.3 26.6 Z"/>

<path fill="#626262" stroke="none" d="
M 73.35 26.6
L 73.3 26.6
Q 63.6 17 50 17 36.3 17 26.6 26.6 17 36.3 17 50 17 63.6 26.6 73.3
L 26.6 73.35
Q 36.25 83 50 83 63.65 83 73.35 73.35 83 63.65 83 50 83 36.25 73.35 26.6
M 50 20
Q 62.4 20 71.15 28.75 79.95 37.5 79.95 50 79.95 62.35 71.15 71.15 62.35 79.95 50 79.95 37.5 79.95 28.75 71.15 20 62.4 20 50 20 37.5 28.7 28.75
L 28.75 28.7
Q 37.5 20 50 20 Z"/>

<path fill="#4F4F4F" stroke="none" d="
M 71.15 28.75
Q 62.4 20 50 20 37.5 20 28.75 28.7
L 28.7 28.75
Q 20 37.5 20 50 20 62.4 28.75 71.15 37.5 79.95 50 79.95 62.35 79.95 71.15 71.15 79.95 62.35 79.95 50 79.95 37.5 71.15 28.75
M 34.95 65.1
L 34.95 34.95 65.1 34.95 65.1 65.1 34.95 65.1
M 34.95 34.95
L 34.95 65.1 65.1 65.1 65.1 34.95 34.95 34.95 Z"/>
</g>

<g id="Layer25_0_FILL">
<path fill="#1B1B1B" stroke="none" d="
M 78.55 21.4
L 78.6 21.4
Q 66.8 9.6 50 9.6 33.25 9.6 21.35 21.4 9.55 33.25 9.55 50 9.55 66.75 21.35 78.6
L 21.35 78.65
Q 33.25 90.45 50 90.45 66.75 90.45 78.55 78.65
L 78.6 78.6
Q 90.45 66.75 90.45 50 90.45 33.2 78.55 21.4
M 50 13.6
Q 65.1 13.6 75.75 24.25 86.45 34.9 86.45 50 86.45 65.1 75.75 75.8 65.1 86.45 50 86.45 34.9 86.45 24.2 75.8
L 24.15 75.8
Q 13.55 65.1 13.55 50 13.55 34.9 24.15 24.25
L 24.2 24.2
Q 34.9 13.6 50 13.6 Z"/>

<path fill="#313131" stroke="none" d="
M 75.75 24.25
Q 65.1 13.6 50 13.6 34.9 13.6 24.2 24.2
L 24.15 24.25
Q 13.55 34.9 13.55 50 13.55 65.1 24.15 75.8
L 24.2 75.8
Q 34.9 86.45 50 86.45 65.1 86.45 75.75 75.8 86.45 65.1 86.45 50 86.45 34.9 75.75 24.25
M 73.3 26.6
L 73.35 26.6
Q 83 36.25 83 50 83 63.65 73.35 73.35 63.65 83 50 83 36.25 83 26.6 73.35
L 26.6 73.3
Q 17 63.6 17 50 17 36.3 26.6 26.6 36.3 17 50 17 63.6 17 73.3 26.6 Z"/>

<path fill="#626262" stroke="none" d="
M 73.35 26.6
L 73.3 26.6
Q 63.6 17 50 17 36.3 17 26.6 26.6 17 36.3 17 50 17 63.6 26.6 73.3
L 26.6 73.35
Q 36.25 83 50 83 63.65 83 73.35 73.35 83 63.65 83 50 83 36.25 73.35 26.6
M 50 20
Q 62.4 20 71.15 28.75 79.95 37.5 79.95 50 79.95 62.35 71.15 71.15 62.35 79.95 50 79.95 37.5 79.95 28.75 71.15 20 62.4 20 50 20 37.5 28.7 28.75
L 28.75 28.7
Q 37.5 20 50 20 Z"/>

<path fill="#4F4F4F" stroke="none" d="
M 71.15 28.75
Q 62.4 20 50 20 37.5 20 28.75 28.7
L 28.7 28.75
Q 20 37.5 20 50 20 62.4 28.75 71.15 37.5 79.95 50 79.95 62.35 79.95 71.15 71.15 79.95 62.35 79.95 50 79.95 37.5 71.15 28.75
M 32.95 62.3
L 50 31.05 67.05 62.3 32.95 62.3
M 50 31.05
L 32.95 62.3 67.05 62.3 50 31.05 Z"/>
</g>

<g id="Layer24_0_FILL">
<path fill="#1B1B1B" stroke="none" d="
M 78.55 21.4
L 78.6 21.4
Q 66.8 9.6 50 9.6 33.25 9.6 21.35 21.4 9.55 33.25 9.55 50 9.55 66.75 21.35 78.6
L 21.35 78.65
Q 33.25 90.45 50 90.45 66.75 90.45 78.55 78.65
L 78.6 78.6
Q 90.45 66.75 90.45 50 90.45 33.2 78.55 21.4
M 50 13.6
Q 65.1 13.6 75.75 24.25 86.45 34.9 86.45 50 86.45 65.1 75.75 75.8 65.1 86.45 50 86.45 34.9 86.45 24.2 75.8
L 24.15 75.8
Q 13.55 65.1 13.55 50 13.55 34.9 24.15 24.25
L 24.2 24.2
Q 34.9 13.6 50 13.6 Z"/>

<path fill="#313131" stroke="none" d="
M 75.75 24.25
Q 65.1 13.6 50 13.6 34.9 13.6 24.2 24.2
L 24.15 24.25
Q 13.55 34.9 13.55 50 13.55 65.1 24.15 75.8
L 24.2 75.8
Q 34.9 86.45 50 86.45 65.1 86.45 75.75 75.8 86.45 65.1 86.45 50 86.45 34.9 75.75 24.25
M 73.3 26.6
L 73.35 26.6
Q 83 36.25 83 50 83 63.65 73.35 73.35 63.65 83 50 83 36.25 83 26.6 73.35
L 26.6 73.3
Q 17 63.6 17 50 17 36.3 26.6 26.6 36.3 17 50 17 63.6 17 73.3 26.6 Z"/>

<path fill="#626262" stroke="none" d="
M 73.35 26.6
L 73.3 26.6
Q 63.6 17 50 17 36.3 17 26.6 26.6 17 36.3 17 50 17 63.6 26.6 73.3
L 26.6 73.35
Q 36.25 83 50 83 63.65 83 73.35 73.35 83 63.65 83 50 83 36.25 73.35 26.6
M 50 20
Q 62.4 20 71.15 28.75 79.95 37.5 79.95 50 79.95 62.35 71.15 71.15 62.35 79.95 50 79.95 37.5 79.95 28.75 71.15 20 62.4 20 50 20 37.5 28.7 28.75
L 28.75 28.7
Q 37.5 20 50 20 Z"/>

<path fill="#4F4F4F" stroke="none" d="
M 71.15 28.75
Q 62.4 20 50 20 37.5 20 28.75 28.7
L 28.7 28.75
Q 20 37.5 20 50 20 62.4 28.75 71.15 37.5 79.95 50 79.95 62.35 79.95 71.15 71.15 79.95 62.35 79.95 50 79.95 37.5 71.15 28.75
M 50 30.25
Q 58.2 30.25 63.95 36.05 69.75 41.85 69.75 50 69.75 58.2 63.95 63.95 58.2 69.75 50 69.75 41.85 69.75 36.05 63.95 30.25 58.2 30.25 50 30.25 41.85 36.05 36.05 41.85 30.25 50 30.25
M 63.95 36.05
Q 58.2 30.25 50 30.25 41.85 30.25 36.05 36.05 30.25 41.85 30.25 50 30.25 58.2 36.05 63.95 41.85 69.75 50 69.75 58.2 69.75 63.95 63.95 69.75 58.2 69.75 50 69.75 41.85 63.95 36.05 Z"/>
</g>

<path id="Layer42_0_1_STROKES" stroke="#202020" stroke-width="4" stroke-linejoin="round" stroke-linecap="round" fill="none" d="
M 95.1 37.35
L 91.75 33.95 71.8 35.15 59.4 44.55 59.4 55.45 71.8 64.85 91.75 66.05 95.1 62.65 95.1 37.35 Z
M 62.65 4.9
L 66.05 8.25 64.85 28.2 55.45 40.6 44.55 40.6 35.15 28.2 33.95 8.25 37.35 4.9 62.65 4.9 Z
M 35.15 71.8
L 33.95 91.75 37.35 95.1 62.65 95.1 66.05 91.75 64.85 71.8 55.45 59.4 44.55 59.4 35.15 71.8 Z"/>

<path id="Layer42_0_2_STROKES" stroke="#626262" stroke-width="4" stroke-linejoin="round" stroke-linecap="round" fill="none" d="
M 66.1 49.35
L 66.1 48.1 73.9 41.85 88.4 40.95 88.4 59.05 73.9 58.15 66.1 51.9 66.1 50.65
M 50.65 33.9
L 51.9 33.9 58.15 26.1 59.05 11.6 40.95 11.6 41.85 26.1 48.1 33.9 49.35 33.9
M 50.65 66.1
L 51.9 66.1 58.15 73.9 59.05 88.4 40.95 88.4 41.85 73.9 48.1 66.1 49.35 66.1"/>

<path id="Layer42_0_3_STROKES" stroke="#404040" stroke-width="4" stroke-linejoin="round" stroke-linecap="round" fill="none" d="
M 4.9 37.35
L 8.25 33.95 28.2 35.15 40.6 44.55 40.6 55.45 28.2 64.85 8.25 66.05 4.9 62.65 4.9 37.35 Z"/>

<path id="Layer42_0_4_STROKES" stroke="#FFFFFF" stroke-width="4" stroke-linejoin="round" stroke-linecap="round" fill="none" d="
M 33.9 49.35
L 33.9 48.1 26.1 41.85 11.6 40.95 11.6 59.05 26.1 58.15 33.9 51.9 33.9 50.65"/>

<path id="Layer41_0_1_STROKES" stroke="#404040" stroke-width="4" stroke-linejoin="round" stroke-linecap="round" fill="none" d="
M 37.35 95.1
L 33.95 91.75 35.15 71.8 44.55 59.4 55.45 59.4 64.85 71.8 66.05 91.75 62.65 95.1 37.35 95.1 Z"/>

<path id="Layer41_0_2_STROKES" stroke="#FFFFFF" stroke-width="4" stroke-linejoin="round" stroke-linecap="round" fill="none" d="
M 49.35 66.1
L 48.1 66.1 41.85 73.9 40.95 88.4 59.05 88.4 58.15 73.9 51.9 66.1 50.65 66.1"/>

<path id="Layer41_0_3_STROKES" stroke="#202020" stroke-width="4" stroke-linejoin="round" stroke-linecap="round" fill="none" d="
M 95.1 37.35
L 91.75 33.95 71.8 35.15 59.4 44.55 59.4 55.45 71.8 64.85 91.75 66.05 95.1 62.65 95.1 37.35 Z
M 66.05 8.25
L 62.65 4.9 37.35 4.9 33.95 8.25 35.15 28.2 44.55 40.6 55.45 40.6 64.85 28.2 66.05 8.25 Z
M 8.25 33.95
L 28.2 35.15 40.6 44.55 40.6 55.45 28.2 64.85 8.25 66.05 4.9 62.65 4.9 37.35 8.25 33.95 Z"/>

<path id="Layer41_0_4_STROKES" stroke="#626262" stroke-width="4" stroke-linejoin="round" stroke-linecap="round" fill="none" d="
M 66.1 49.35
L 66.1 48.1 73.9 41.85 88.4 40.95 88.4 59.05 73.9 58.15 66.1 51.9 66.1 50.65
M 49.35 33.9
L 48.1 33.9 41.85 26.1 40.95 11.6 59.05 11.6 58.15 26.1 51.9 33.9 50.65 33.9
M 33.9 49.35
L 33.9 48.1 26.1 41.85 11.6 40.95 11.6 59.05 26.1 58.15 33.9 51.9 33.9 50.65"/>

<path id="Layer40_0_1_STROKES" stroke="#202020" stroke-width="4" stroke-linejoin="round" stroke-linecap="round" fill="none" d="
M 66.05 8.25
L 62.65 4.9 37.35 4.9 33.95 8.25 35.15 28.2 44.55 40.6 55.45 40.6 64.85 28.2 66.05 8.25 Z
M 28.2 35.15
L 8.25 33.95 4.9 37.35 4.9 62.65 8.25 66.05 28.2 64.85 40.6 55.45 40.6 44.55 28.2 35.15 Z
M 33.95 91.75
L 35.15 71.8 44.55 59.4 55.45 59.4 64.85 71.8 66.05 91.75 62.65 95.1 37.35 95.1 33.95 91.75 Z"/>

<path id="Layer40_0_2_STROKES" stroke="#626262" stroke-width="4" stroke-linejoin="round" stroke-linecap="round" fill="none" d="
M 49.35 33.9
L 48.1 33.9 41.85 26.1 40.95 11.6 59.05 11.6 58.15 26.1 51.9 33.9 50.65 33.9
M 33.9 50.65
L 33.9 51.9 26.1 58.15 11.6 59.05 11.6 40.95 26.1 41.85 33.9 48.1 33.9 49.35
M 49.35 66.1
L 48.1 66.1 41.85 73.9 40.95 88.4 59.05 88.4 58.15 73.9 51.9 66.1 50.65 66.1"/>

<path id="Layer40_0_3_STROKES" stroke="#404040" stroke-width="4" stroke-linejoin="round" stroke-linecap="round" fill="none" d="
M 91.75 33.95
L 95.1 37.35 95.1 62.65 91.75 66.05 71.8 64.85 59.4 55.45 59.4 44.55 71.8 35.15 91.75 33.95 Z"/>

<path id="Layer40_0_4_STROKES" stroke="#FFFFFF" stroke-width="4" stroke-linejoin="round" stroke-linecap="round" fill="none" d="
M 66.1 50.65
L 66.1 51.9 73.9 58.15 88.4 59.05 88.4 40.95 73.9 41.85 66.1 48.1 66.1 49.35"/>

<path id="Layer39_0_1_STROKES" stroke="#202020" stroke-width="4" stroke-linejoin="round" stroke-linecap="round" fill="none" d="
M 91.75 33.95
L 95.1 37.35 95.1 62.65 91.75 66.05 71.8 64.85 59.4 55.45 59.4 44.55 71.8 35.15 91.75 33.95 Z
M 28.2 35.15
L 8.25 33.95 4.9 37.35 4.9 62.65 8.25 66.05 28.2 64.85 40.6 55.45 40.6 44.55 28.2 35.15 Z
M 35.15 71.8
L 33.95 91.75 37.35 95.1 62.65 95.1 66.05 91.75 64.85 71.8 55.45 59.4 44.55 59.4 35.15 71.8 Z"/>

<path id="Layer39_0_2_STROKES" stroke="#626262" stroke-width="4" stroke-linejoin="round" stroke-linecap="round" fill="none" d="
M 66.1 50.65
L 66.1 51.9 73.9 58.15 88.4 59.05 88.4 40.95 73.9 41.85 66.1 48.1 66.1 49.35
M 33.9 50.65
L 33.9 51.9 26.1 58.15 11.6 59.05 11.6 40.95 26.1 41.85 33.9 48.1 33.9 49.35
M 50.65 66.1
L 51.9 66.1 58.15 73.9 59.05 88.4 40.95 88.4 41.85 73.9 48.1 66.1 49.35 66.1"/>

<path id="Layer39_0_3_STROKES" stroke="#404040" stroke-width="4" stroke-linejoin="round" stroke-linecap="round" fill="none" d="
M 62.65 4.9
L 66.05 8.25 64.85 28.2 55.45 40.6 44.55 40.6 35.15 28.2 33.95 8.25 37.35 4.9 62.65 4.9 Z"/>

<path id="Layer39_0_4_STROKES" stroke="#FFFFFF" stroke-width="4" stroke-linejoin="round" stroke-linecap="round" fill="none" d="
M 50.65 33.9
L 51.9 33.9 58.15 26.1 59.05 11.6 40.95 11.6 41.85 26.1 48.1 33.9 49.35 33.9"/>

<path id="Layer38_0_1_STROKES" stroke="#202020" stroke-width="4" stroke-linejoin="round" stroke-linecap="round" fill="none" d="
M 91.75 33.95
L 95.1 37.35 95.1 62.65 91.75 66.05 71.8 64.85 59.4 55.45 59.4 44.55 71.8 35.15 91.75 33.95 Z
M 62.65 4.9
L 66.05 8.25 64.85 28.2 55.45 40.6 44.55 40.6 35.15 28.2 33.95 8.25 37.35 4.9 62.65 4.9 Z
M 28.2 35.15
L 8.25 33.95 4.9 37.35 4.9 62.65 8.25 66.05 28.2 64.85 40.6 55.45 40.6 44.55 28.2 35.15 Z
M 35.15 71.8
L 33.95 91.75 37.35 95.1 62.65 95.1 66.05 91.75 64.85 71.8 55.45 59.4 44.55 59.4 35.15 71.8 Z"/>

<path id="Layer38_0_2_STROKES" stroke="#626262" stroke-width="4" stroke-linejoin="round" stroke-linecap="round" fill="none" d="
M 66.1 50.65
L 66.1 51.9 73.9 58.15 88.4 59.05 88.4 40.95 73.9 41.85 66.1 48.1 66.1 49.35
M 50.65 33.9
L 51.9 33.9 58.15 26.1 59.05 11.6 40.95 11.6 41.85 26.1 48.1 33.9 49.35 33.9
M 33.9 50.65
L 33.9 51.9 26.1 58.15 11.6 59.05 11.6 40.95 26.1 41.85 33.9 48.1 33.9 49.35
M 50.65 66.1
L 51.9 66.1 58.15 73.9 59.05 88.4 40.95 88.4 41.85 73.9 48.1 66.1 49.35 66.1"/>

<path id="Layer37_0_1_STROKES" stroke="#151515" stroke-width="4" stroke-linejoin="round" stroke-linecap="round" fill="none" d="
M 30.7 68.8
L 30.7 60.55
Q 30.55 55 25.5 53.05 21.4 52.05 16.45 49.8 7.65 45.65 9.7 37.55 10.75 34 12.8 31.9 14.7 29.25 23.2 27.3 34.3 24.7 50 24.7 64.45 24.7 75.1 26.9 76 27.1 76.9 27.3 83.2 28.75 85.75 30.65 88.9 32.75 90.35 37.55 92.4 45.65 83.6 49.8 78.65 52.05 74.55 53.05 69.5 55 69.35 60.55
L 69.35 68.85
Q 70.35 69.2 71.3 69.6 71.4 69.6 71.45 69.65 80.35 73.55 80.35 79.1 80.35 84.65 71.45 88.5 62.55 92.4 50 92.4 37.45 92.4 28.55 88.5 19.65 84.65 19.65 79.1 19.65 73.55 28.55 69.65 29.6 69.2 30.7 68.8
L 30.7 76.3
Q 30.55 79.1 36.15 81.05 41.9 83.05 49.95 83.05 58 83.05 63.7 81.05 69.35 79.1 69.35 76.3
L 69.35 68.85"/>

<path id="Layer36_0_1_STROKES" stroke="#151515" stroke-width="4" stroke-linejoin="round" stroke-linecap="round" fill="none" d="
M 30.7 68.8
L 30.7 60.55
Q 30.55 55 25.5 53.05 21.4 52.05 16.45 49.8 7.65 45.65 9.7 37.55 10.75 34 12.8 31.9 14.7 29.25 23.2 27.3 34.3 24.7 50 24.7 64.45 24.7 75.1 26.9 76 27.1 76.9 27.3 83.2 28.75 85.75 30.65 88.9 32.75 90.35 37.55 92.4 45.65 83.6 49.8 78.65 52.05 74.55 53.05 69.5 55 69.35 60.55
L 69.35 68.85
Q 70.35 69.2 71.3 69.6 71.4 69.6 71.45 69.65 80.35 73.55 80.35 79.1 80.35 84.65 71.45 88.5 62.55 92.4 50 92.4 37.45 92.4 28.55 88.5 19.65 84.65 19.65 79.1 19.65 73.55 28.55 69.65 29.6 69.2 30.7 68.8
L 30.7 76.3
Q 30.55 79.1 36.15 81.05 41.9 83.05 49.95 83.05 58 83.05 63.7 81.05 69.35 79.1 69.35 76.3
L 69.35 68.85"/>

<path id="Layer35_0_1_STROKES" stroke="#151515" stroke-width="4" stroke-linejoin="round" stroke-linecap="round" fill="none" d="
M 50 7.8
Q 67.5 7.8 79.85 20.15 92.2 32.5 92.2 50 92.2 67.5 79.85 79.85 67.5 92.2 50 92.2 32.5 92.2 20.15 79.85 7.8 67.5 7.8 50 7.8 32.5 20.15 20.15 32.5 7.8 50 7.8 Z
M 50 15.95
Q 64.2 15.95 74.1 25.95 84.1 35.9 84.1 50 84.1 64.2 74.1 74.1 64.2 84.1 50 84.1 35.9 84.1 25.95 74.1 15.95 64.2 15.95 50 15.95 35.9 25.95 25.95 35.9 15.95 50 15.95 Z"/>

<path id="Layer34_0_1_STROKES" stroke="#151515" stroke-width="4" stroke-linejoin="round" stroke-linecap="round" fill="none" d="
M 50 7.8
Q 67.5 7.8 79.85 20.15 92.2 32.5 92.2 50 92.2 67.5 79.85 79.85 67.5 92.2 50 92.2 32.5 92.2 20.15 79.85 7.8 67.5 7.8 50 7.8 32.5 20.15 20.15 32.5 7.8 50 7.8 Z
M 50 15.95
Q 64.2 15.95 74.1 25.95 84.1 35.9 84.1 50 84.1 64.2 74.1 74.1 64.2 84.1 50 84.1 35.9 84.1 25.95 74.1 15.95 64.2 15.95 50 15.95 35.9 25.95 25.95 35.9 15.95 50 15.95 Z"/>

<path id="Layer33_0_1_STROKES" stroke="#1B1B1B" stroke-width="5" stroke-linejoin="round" stroke-linecap="round" fill="none" d="
M 91.55 69.35
Q 91.55 49.45 92.1 42.85 93.05 31.9 82.85 30.55 46.7 27.85 23.25 21.35 15.9 21.35 12.5 27.2 4.7 40.6 10 58.1 12.4 66.05 20.05 69.2 46.8 76.1 81.8 78.6 90.85 79.15 91.55 69.35 Z"/>

<path id="Layer33_0_2_STROKES" stroke="#626262" stroke-width="4" stroke-linejoin="round" stroke-linecap="round" fill="none" d="
M 79.1 69.8
Q 79.65 69.45 79.8 68.75 79.8 48.75 80.3 42.05
L 80.3 42
Q 80.35 39.4 77.8 39.05 44.25 36.4 22.1 29.95 22.05 29.95 21.6 30.45 19.55 32.65 17.75 37.4 15.85 42.5 16.65 49.35 17.5 56.2 19.75 59.05
M 79.1 69.8
Q 78.7 70.05 78.05 70
L 78.1 70.05
Q 46.35 67.65 21.9 60.95 19.7 59.75 19.75 59.05"/>

<path id="Layer32_0_1_STROKES" stroke="#1B1B1B" stroke-width="5" stroke-linejoin="round" stroke-linecap="round" fill="none" d="
M 76.8 21.35
Q 84.15 21.35 87.55 27.2 95.35 40.6 90.05 58.1 87.65 66.05 80 69.2 53.25 76.1 18.25 78.6 9.2 79.15 8.5 69.35 8.5 49.45 7.95 42.85 7 31.9 17.2 30.55 53.35 27.85 76.8 21.35 Z"/>

<path id="Layer32_0_2_STROKES" stroke="#626262" stroke-width="4" stroke-linejoin="round" stroke-linecap="round" fill="none" d="
M 80.3 59.05
Q 82.55 56.2 83.4 49.35 84.2 42.5 82.3 37.4 80.5 32.65 78.45 30.45 78 29.95 77.95 29.95 55.8 36.4 22.25 39.05 19.7 39.4 19.75 42
L 19.75 42.05
Q 20.25 48.75 20.25 68.75 20.4 69.45 20.95 69.8
M 80.3 59.05
Q 80.35 59.75 78.15 60.95 53.7 67.65 21.95 70.05
L 22 70
Q 21.35 70.05 20.95 69.8"/>

<path id="Layer31_0_1_STROKES" stroke="#1B1B1B" stroke-width="5" stroke-linejoin="round" stroke-linecap="round" fill="none" d="
M 91.45 65.45
L 91.45 19.95 72.6 19.95
Q 60.6685546875 18.5724609375 48 18.375 42.56796875 18.2744140625 37 18.4 24.919140625 18.6681640625 12.2 19.95 7.3 48.25 9.05 76.55 10.05 82.7 15.35 84.75 24.3 87.7 34 87.65 52 87.55 59.5 85.05 67.9 82.25 70.5 76.55 70.5 74.15 70.5 71.75
L 76.55 65.45 91.45 65.45 Z"/>

<path id="Layer31_0_2_STROKES" stroke="#626262" stroke-width="4" stroke-linejoin="round" stroke-linecap="round" fill="none" d="
M 64.6 26.65
Q 56.3564453125 26.21328125 48 26.1 42.5244140625 26.01640625 37 26.075 27.7921875 26.173046875 18.45 26.65 15 47.75 15.95 69.85 15.75 73.75 17.2 76.95 23.2 79.4 34.8 79.6 46.4 79.8 53.75 78.35 61.1 76.85 63.55 72.8 62.45 49.75 64.6 26.65 Z"/>

<path id="Layer30_0_1_STROKES" stroke="#1B1B1B" stroke-width="5" stroke-linejoin="round" stroke-linecap="round" fill="none" d="
M 91 76.55
Q 90 82.7 84.7 84.75 75.75 87.7 66.05 87.65 48.05 87.55 40.55 85.05 32.15 82.25 29.55 76.55 29.55 74.15 29.55 71.75
L 23.5 65.45 8.6 65.45 8.6 19.95 27.45 19.95
Q 43.069140625 18.1466796875 59.95 18.35 73.494140625 18.5033203125 87.85 19.95 92.75 48.25 91 76.55 Z"/>

<path id="Layer30_0_2_STROKES" stroke="#626262" stroke-width="4" stroke-linejoin="round" stroke-linecap="round" fill="none" d="
M 84.1 69.85
Q 84.3 73.75 82.85 76.95 76.85 79.4 65.25 79.6 53.65 79.8 46.3 78.35 38.95 76.85 36.5 72.8 37.4 53.941796875 36.125 35.05 35.841015625 30.85078125 35.45 26.65 47.578125 26.007421875 59.95 26.05 70.6833984375 26.092578125 81.6 26.65 85.05 47.75 84.1 69.85 Z"/>

<path id="Layer29_0_1_STROKES" stroke="#1B1B1B" stroke-width="5" stroke-linejoin="round" stroke-linecap="round" fill="none" d="
M 87.35 20.7
L 87.35 54.25 12.65 54.25 12.65 20.7 87.35 20.7 Z"/>

<path id="Layer29_0_2_STROKES" stroke="#626262" stroke-width="4" stroke-linejoin="round" stroke-linecap="round" fill="none" d="
M 79 29.05
L 79 45.9 21 45.9 21 29.05 79 29.05 Z"/>

<path id="Layer28_0_1_STROKES" stroke="#1B1B1B" stroke-width="5" stroke-linejoin="round" stroke-linecap="round" fill="none" d="
M 84.6 29.5
L 84.6 40.55 15.4 56.6 15.4 13.45 84.6 29.5 Z"/>

<path id="Layer28_0_2_STROKES" stroke="#626262" stroke-width="4" stroke-linejoin="round" stroke-linecap="round" fill="none" d="
M 22.9 47.2
L 22.9 22.9 75.25 35.05 22.9 47.2 Z"/>

<path id="Layer27_0_1_STROKES" stroke="#7EABE2" stroke-width="5" stroke-linejoin="round" stroke-linecap="round" fill="none" d="
M 62.95 37.05
L 50 50 63 63
M 37 63
L 50 50 37.05 37.05"/>

<path id="Layer26_0_1_STROKES" stroke="#D08ED2" stroke-width="5" stroke-linejoin="round" stroke-linecap="round" fill="none" d="
M 65.1 65.1
L 34.95 65.1 34.95 34.95 65.1 34.95 65.1 65.1 Z"/>

<path id="Layer25_0_1_STROKES" stroke="#49DA7C" stroke-width="5" stroke-linejoin="round" stroke-linecap="round" fill="none" d="
M 50 31.05
L 67.05 62.3 32.95 62.3 50 31.05 Z"/>

<path id="Layer24_0_1_STROKES" stroke="#E23838" stroke-width="5" stroke-linejoin="round" stroke-linecap="round" fill="none" d="
M 50 30.25
Q 58.2 30.25 63.95 36.05 69.75 41.85 69.75 50 69.75 58.2 63.95 63.95 58.2 69.75 50 69.75 41.85 69.75 36.05 63.95 30.25 58.2 30.25 50 30.25 41.85 36.05 36.05 41.85 30.25 50 30.25 Z"/>
</defs>

<g transform="matrix( 1, 0, 0, 1, 0,0) ">
<use xlink:href="#Layer42_0_FILL"/>

<use xlink:href="#Layer42_0_1_STROKES"/>

<use xlink:href="#Layer42_0_2_STROKES"/>

<use xlink:href="#Layer42_0_3_STROKES"/>

<use xlink:href="#Layer42_0_4_STROKES"/>
</g>

<g transform="matrix( 1, 0, 0, 1, 0,0) ">
<use xlink:href="#Layer41_0_FILL"/>

<use xlink:href="#Layer41_0_1_STROKES"/>

<use xlink:href="#Layer41_0_2_STROKES"/>

<use xlink:href="#Layer41_0_3_STROKES"/>

<use xlink:href="#Layer41_0_4_STROKES"/>
</g>

<g transform="matrix( 1, 0, 0, 1, 0,0) ">
<use xlink:href="#Layer40_0_FILL"/>

<use xlink:href="#Layer40_0_1_STROKES"/>

<use xlink:href="#Layer40_0_2_STROKES"/>

<use xlink:href="#Layer40_0_3_STROKES"/>

<use xlink:href="#Layer40_0_4_STROKES"/>
</g>

<g transform="matrix( 1, 0, 0, 1, 0,0) ">
<use xlink:href="#Layer39_0_FILL"/>

<use xlink:href="#Layer39_0_1_STROKES"/>

<use xlink:href="#Layer39_0_2_STROKES"/>

<use xlink:href="#Layer39_0_3_STROKES"/>

<use xlink:href="#Layer39_0_4_STROKES"/>
</g>

<g transform="matrix( 1, 0, 0, 1, 0,0) ">
<use xlink:href="#Layer38_0_FILL"/>

<use xlink:href="#Layer38_0_1_STROKES"/>

<use xlink:href="#Layer38_0_2_STROKES"/>
</g>

<g transform="matrix( 1, 0, 0, 1, 0,0) ">
<use xlink:href="#Layer37_0_FILL"/>

<use xlink:href="#Layer37_0_1_STROKES"/>
</g>

<g transform="matrix( 1, 0, 0, 1, 0,0) ">
<use xlink:href="#Layer36_0_FILL"/>

<use xlink:href="#Layer36_0_1_STROKES"/>
</g>

<g transform="matrix( 1, 0, 0, 1, 0,0) ">
<use xlink:href="#Layer35_0_FILL"/>

<use xlink:href="#Layer35_0_1_STROKES"/>
</g>

<g transform="matrix( 1, 0, 0, 1, 0,0) ">
<use xlink:href="#Layer34_0_FILL"/>

<use xlink:href="#Layer34_0_1_STROKES"/>
</g>

<g transform="matrix( 1, 0, 0, 1, 0,0) ">
<use xlink:href="#Layer33_0_FILL"/>

<use xlink:href="#Layer33_0_1_STROKES"/>

<use xlink:href="#Layer33_0_2_STROKES"/>
</g>

<g transform="matrix( 1, 0, 0, 1, 0,0) ">
<use xlink:href="#Layer32_0_FILL"/>

<use xlink:href="#Layer32_0_1_STROKES"/>

<use xlink:href="#Layer32_0_2_STROKES"/>
</g>

<g transform="matrix( 1, 0, 0, 1, 0,0) ">
<use xlink:href="#Layer31_0_FILL"/>

<use xlink:href="#Layer31_0_1_STROKES"/>

<use xlink:href="#Layer31_0_2_STROKES"/>
</g>

<g transform="matrix( 1, 0, 0, 1, 0,0) ">
<use xlink:href="#Layer30_0_FILL"/>

<use xlink:href="#Layer30_0_1_STROKES"/>

<use xlink:href="#Layer30_0_2_STROKES"/>
</g>

<g transform="matrix( 1, 0, 0, 1, 0,0) ">
<use xlink:href="#Layer29_0_FILL"/>

<use xlink:href="#Layer29_0_1_STROKES"/>

<use xlink:href="#Layer29_0_2_STROKES"/>
</g>

<g transform="matrix( 1, 0, 0, 1, 0,0) ">
<use xlink:href="#Layer28_0_FILL"/>

<use xlink:href="#Layer28_0_1_STROKES"/>

<use xlink:href="#Layer28_0_2_STROKES"/>
</g>

<g transform="matrix( 1, 0, 0, 1, 0,0) ">
<use xlink:href="#Layer27_0_FILL"/>

<use xlink:href="#Layer27_0_1_STROKES"/>
</g>

<g transform="matrix( 1, 0, 0, 1, 0,0) ">
<use xlink:href="#Layer26_0_FILL"/>

<use xlink:href="#Layer26_0_1_STROKES"/>
</g>

<g transform="matrix( 1, 0, 0, 1, 0,0) ">
<use xlink:href="#Layer25_0_FILL"/>

<use xlink:href="#Layer25_0_1_STROKES"/>
</g>

<g transform="matrix( 1, 0, 0, 1, 0,0) ">
<use xlink:href="#Layer24_0_FILL"/>

<use xlink:href="#Layer24_0_1_STROKES"/>
</g>
</svg>
