
<svg xmlns="http://www.w3.org/2000/svg" version="1.1" xmlns:xlink="http://www.w3.org/1999/xlink" preserveAspectRatio="none" x="0px" y="0px" width="100px" height="100px" viewBox="0 0 100 100">
<defs>
<g id="Layer38_0_FILL">
<path fill="#A2A2A2" stroke="none" d="
M 17.15 24.6
Q 17.2 24.55 17.2 24.5
L 11.95 24.5
Q 9.8 24.7 8.25 26
L 9.9 27.5
Q 9.9 27.45 9.95 27.4 9.95 27.35 9.95 27.3
L 10 27.25 10 27.2
Q 10.05 27.15 10.05 27.1
L 10.1 27.05
Q 10.15 27 10.2 26.95 10.25 26.9 10.3 26.9 10.4 26.85 10.45 26.85 10.5 26.8 10.6 26.8 10.65 26.8 10.75 26.85 10.8 26.85 10.85 26.8
L 10.9 26.8
Q 10.9 26.75 10.9 26.7 10.95 26.7 11 26.65 11 26.6 11.05 26.55 11.1 26.55 11.15 26.5 11.25 26.45 11.3 26.45 11.45 26.45 11.55 26.45 11.7 26.45 11.85 26.45 11.95 26.4 12.1 26.35 12.25 26.35 12.35 26.35 12.5 26.35 12.6 26.35 12.65 26.4 12.7 26.4 12.75 26.45 12.8 26.45
L 12.85 26.4
Q 12.95 26.35 13 26.35 13.05 26.3 13.1 26.25 13.2 26.25 13.25 26.25 13.3 26.25 13.35 26.25 13.45 26.25 13.5 26.25 13.55 26.3 13.65 26.3 13.7 26.35 13.75 26.4
L 13.8 26.45
Q 13.85 26.5 13.9 26.5
L 13.95 26.5
Q 14.05 26.45 14.1 26.4 14.2 26.4 14.3 26.35 14.4 26.4 14.55 26.4 14.6 26.45 14.65 26.5 14.7 26.55 14.75 26.55 14.75 26.6 14.8 26.65 14.8 26.7 14.85 26.7 14.85 26.75 14.85 26.8 14.9 26.9 14.9 27 14.95 26.95 14.95 26.85
L 15 26.8
Q 15 26.75 15.05 26.7
L 15.1 26.65
Q 15.1 26.6 15.15 26.55
L 15.2 26.5
Q 15.2 26.45 15.25 26.4
L 15.25 26.35 15.3 26.3
Q 15.35 26.25 15.4 26.2
L 15.4 26.15
Q 15.45 26.1 15.45 26.05
L 15.5 26
Q 15.55 25.95 15.55 25.9 15.6 25.85 15.65 25.85 15.65 25.8 15.7 25.75 15.75 25.7 15.8 25.7 15.85 25.65 15.9 25.6 16 25.6 16.1 25.55 16.15 25.5 16.15 25.45 16.2 25.45 16.3 25.4 16.35 25.35 16.4 25.3 16.5 25.25 16.55 25.15 16.6 25.15 16.65 25.1 16.7 25.05 16.75 25.05 16.8 25 16.85 24.95 16.9 24.9 16.95 24.9 16.95 24.85 17 24.8 17 24.75 17.05 24.75 17.1 24.65 17.15 24.6
M 83.65 45.25
Q 83.85 45.35 84 45.45 84.15 45.6 84.25 45.7 84.3 45.75 84.35 45.85 84.4 45.85 84.4 45.9 84.4 45.95 84.4 46 84.45 46 84.45 46.05 84.5 46.1 84.5 46.15 84.55 46.15 84.6 46.15 84.65 46.2 84.7 46.25 84.75 46.25 84.85 46.3 84.85 46.35 84.9 46.35 84.9 46.4 84.95 46.45 84.95 46.5 85 46.5 85 46.55 85 46.6
L 85.05 46.65
Q 85.05 46.7 85.1 46.75 85.15 46.75 85.2 46.8 85.25 46.85 85.3 46.9
L 85.35 46.95
Q 85.35 47 85.4 47.05
L 85.4 47.1
Q 85.4 47.15 85.4 47.2 85.45 47.2 85.45 47.25 85.45 47.3 85.5 47.3 85.5 47.35 85.5 47.4
L 85.55 47.45
Q 85.6 47.55 85.6 47.6 85.65 47.7 85.65 47.75 85.65 47.8 85.7 47.85
L 85.7 47.9
Q 85.7 47.95 85.75 48 85.8 47.95 85.85 47.95 85.85 47.9 85.9 47.85 85.95 47.8 86 47.8 86.1 47.75 86.15 47.75 86.2 47.7 86.3 47.7 86.35 47.7 86.45 47.75 86.5 47.75 86.55 47.75
L 86.55 47.7
Q 86.6 47.65 86.65 47.6 86.65 47.55 86.7 47.5
L 86.75 47.45
Q 86.8 47.4 86.85 47.35 86.9 47.35 86.95 47.3 87.05 47.25 87.1 47.25 87.15 47.25 87.2 47.25 87.25 47.2 87.35 47.2 87.4 47.2 87.5 47.2 87.55 47.25 87.65 47.25 87.7 47.3 87.75 47.35 87.8 47.4 87.85 47.4 87.85 47.45 87.9 47.5
L 87.95 47.55
Q 87.95 47.6 88 47.65 88 47.7 88 47.8 88 47.95 88 48.1 88 48.2 88 48.3 88 48.35 88 48.45 88 48.5 88 48.6
L 88 48.65
Q 87.95 48.7 87.95 48.75
L 87.95 48.8
Q 87.9 48.85 87.9 48.9
L 87.9 48.95
Q 87.9 49 87.9 49.05
L 87.9 49.1
Q 87.9 49.15 87.9 49.2 87.85 49.2 87.85 49.25
L 87.85 49.3
Q 87.8 49.35 87.8 49.4
L 87.8 49.45
Q 87.75 49.5 87.75 49.55 87.75 49.6 87.7 49.6 87.7 49.65 87.7 49.7 87.75 49.7 87.8 49.7 87.85 49.7 87.9 49.7 88 49.7 88.05 49.65 88.15 49.7 88.2 49.7 88.25 49.7 88.3 49.7 88.4 49.8 88.5 49.85 88.6 49.95 88.7 50.15 88.85 50.4 89 50.65 89.1 50.8 89.2 50.95 89.35 51.05 89.5 51.15 89.6 51.25 89.7 51.3 89.75 51.4 89.8 51.45 89.85 51.5 89.95 51.55 90.05 51.6 90.2 51.75 90.25 51.8 90.35 51.9 90.45 51.95 90.6 52.05 90.65 52.05 90.65 52.1 90.7 52.15 90.7 52.2 90.75 52.2 90.8 52.25 90.8 52.3 90.85 52.35 90.9 52.4 91 52.5 91.05 52.55 91.1 52.6 91.1 52.65 91.15 52.7 91.15 52.75 91.2 52.85
L 91.2 52.9 93.2 52.9
Q 91.9 50.1 89.05 47.9
L 65.65 33.65
Q 55.9 30.6 48.6 32.25 41.35 33.9 34.05 31.95
L 18.55 25 18.5 25
Q 18.4 25.05 18.3 25.1 18.25 25.15 18.2 25.15 18.15 25.25 18.05 25.3 18 25.4 17.95 25.45 17.9 25.5 17.85 25.55 17.85 25.6 17.8 25.6 17.8 25.65 17.75 25.7
L 17.65 25.75
Q 17.6 25.8 17.55 25.85 17.45 25.95 17.35 26.05 17.2 26.15 17.1 26.25 17.05 26.35 16.95 26.4 16.8 26.5 16.7 26.55 16.65 26.6 16.6 26.65 16.55 26.7 16.5 26.7 16.45 26.75 16.4 26.8
L 16.35 26.85
Q 16.35 26.9 16.3 26.95
L 16.3 27
Q 16.25 27.05 16.25 27.1 16.2 27.1 16.2 27.15
L 16.2 27.2
Q 16.15 27.25 16.15 27.3
L 16.1 27.35
Q 16.05 27.4 16.05 27.45
L 16 27.5
Q 16 27.55 15.95 27.6
L 15.95 27.65
Q 15.95 27.7 15.9 27.75
L 15.9 27.8
Q 15.85 27.85 15.85 27.9
L 15.8 27.95
Q 15.75 28.05 15.7 28.1 15.7 28.15 15.65 28.2
L 15.65 28.25 15.6 28.3
Q 15.6 28.35 15.55 28.4
L 15.55 28.45
Q 15.55 28.5 15.55 28.55
L 15.55 28.6
Q 15.5 28.65 15.5 28.7
L 15.45 28.75
Q 15.45 28.8 15.45 28.85
L 15.45 28.9
Q 15.4 28.95 15.4 29
L 15.4 29.05
Q 15.4 29.1 15.45 29.15
L 15.45 29.2
Q 15.45 29.25 15.45 29.3
L 15.45 29.4
Q 15.45 29.45 15.45 29.5
L 15.45 29.55
Q 15.45 29.6 15.45 29.65
L 15.45 29.7
Q 15.45 29.75 15.45 29.8
L 15.45 29.85
Q 15.45 29.9 15.45 29.95 15.5 29.95 15.5 30 15.5 30.05 15.55 30.1
L 15.6 30.15
Q 15.65 30.2 15.65 30.25
L 15.65 30.3 15.7 30.35
Q 15.7 30.4 15.7 30.45
L 15.75 30.5
Q 15.75 30.55 15.75 30.6
L 15.75 30.65
Q 15.75 30.7 15.75 30.75
L 15.75 30.8
Q 15.75 30.85 15.75 30.9
L 15.75 30.95
Q 15.7 31 15.7 31.05 15.65 31.05 15.65 31.1 15.55 31.15 15.5 31.2 15.4 31.2 15.3 31.25 15.25 31.2 15.15 31.2 15.1 31.2 15.05 31.2 15.05 31.15 15 31.15
L 14.95 31.15
Q 14.95 31.2 14.85 31.25 14.8 31.3 14.75 31.35 14.7 31.4 14.6 31.45 14.6 31.5 14.6 31.55 14.6 31.6 14.6 31.7
L 14.6 31.75 14.95 32.1 38.7 47.8
Q 46.4 53.05 57.2 52.9
L 81.15 52.9
Q 81.15 52.85 81.15 52.8 81.2 52.8 81.2 52.75 81.25 52.7 81.3 52.65 81.35 52.65 81.4 52.6 81.5 52.55 81.6 52.55 81.65 52.5 81.7 52.5 81.85 52.45 81.95 52.45 82 52.4 82 52.35 82.05 52.3 82 52.3 82 52.25 82.05 52.2
L 82.05 52.15
Q 82.05 52.1 82.05 52.05
L 82.1 52
Q 82.1 51.95 82.15 51.9
L 82.2 51.85
Q 82.25 51.8 82.3 51.75 82.4 51.7 82.5 51.6 82.55 51.6 82.65 51.55 82.7 51.5 82.75 51.45
L 82.75 51.4
Q 82.85 51.2 83 51 83.15 50.9 83.25 50.75 83.3 50.65 83.35 50.6 83.4 50.55 83.45 50.5
L 83.5 50.45
Q 83.5 50.35 83.55 50.3
L 83.6 50.25
Q 83.65 50.2 83.65 50.15
L 83.7 50.1
Q 83.7 50.05 83.75 50 83.75 49.95 83.75 49.85 83.8 49.85 83.8 49.8 83.8 49.75 83.8 49.7
L 83.8 49.65
Q 83.85 49.6 83.85 49.55
L 83.9 49.5
Q 83.9 49.35 83.9 49.2 83.9 49 83.9 48.85 83.9 48.7 83.9 48.55 83.9 48.45 83.9 48.4 83.85 48.35 83.85 48.3
L 83.85 48.25 83.8 48.2
Q 83.8 48.15 83.8 48.1 83.8 48.05 83.8 47.95 83.8 47.9 83.8 47.8
L 83.8 47.75
Q 83.8 47.7 83.75 47.65
L 83.75 47.6
Q 83.75 47.55 83.7 47.5
L 83.7 47.45
Q 83.65 47.35 83.65 47.3 83.6 47.25 83.6 47.2 83.55 47.2 83.55 47.15 83.55 47.1 83.5 47.1 83.5 47.05 83.5 47
L 83.5 46.95
Q 83.45 46.9 83.45 46.85 83.45 46.8 83.4 46.8 83.4 46.75 83.4 46.7
L 83.4 46.65
Q 83.4 46.6 83.4 46.55
L 83.4 46.5
Q 83.35 46.45 83.35 46.4 83.3 46.4 83.3 46.35 83.25 46.3 83.15 46.25 83.1 46.25 83.05 46.2 83.05 46.15 83 46.15 83 46.1 82.95 46.05 82.95 46 82.95 45.9 82.9 45.85 82.9 45.75
L 82.9 45.7
Q 82.85 45.65 82.85 45.6
L 82.9 45.55
Q 82.9 45.5 82.9 45.45 82.95 45.45 82.95 45.4 83 45.35 83.1 45.3 83.15 45.3 83.25 45.25 83.35 45.2 83.45 45.2 83.55 45.25 83.65 45.25 Z"/>

<path fill="#C8C8C8" stroke="none" d="
M 84 45.45
Q 83.85 45.35 83.65 45.25 83.55 45.25 83.45 45.2 83.35 45.2 83.25 45.25 83.15 45.3 83.1 45.3 83 45.35 82.95 45.4 82.95 45.45 82.9 45.45 82.9 45.5 82.9 45.55
L 82.85 45.6
Q 82.85 45.65 82.9 45.7
L 82.9 45.75
Q 82.9 45.85 82.95 45.9 82.95 46 82.95 46.05 83 46.1 83 46.15 83.05 46.15 83.05 46.2 83.1 46.25 83.15 46.25 83.25 46.3 83.3 46.35 83.3 46.4 83.35 46.4 83.35 46.45 83.4 46.5
L 83.4 46.55
Q 83.4 46.6 83.4 46.65
L 83.4 46.7
Q 83.4 46.75 83.4 46.8 83.45 46.8 83.45 46.85 83.45 46.9 83.5 46.95
L 83.5 47
Q 83.5 47.05 83.5 47.1 83.55 47.1 83.55 47.15 83.55 47.2 83.6 47.2 83.6 47.25 83.65 47.3 83.65 47.35 83.7 47.45
L 83.7 47.5
Q 83.75 47.55 83.75 47.6
L 83.75 47.65
Q 83.8 47.7 83.8 47.75
L 83.8 47.8
Q 83.8 47.9 83.8 47.95 83.8 48.05 83.8 48.1 83.8 48.15 83.8 48.2
L 83.85 48.25 83.85 48.3
Q 83.85 48.35 83.9 48.4 83.9 48.45 83.9 48.55 83.9 48.7 83.9 48.85 83.9 49 83.9 49.2 83.9 49.35 83.9 49.5
L 83.85 49.55
Q 83.85 49.6 83.8 49.65
L 83.8 49.7
Q 83.8 49.75 83.8 49.8 83.8 49.85 83.75 49.85 83.75 49.95 83.75 50 83.7 50.05 83.7 50.1
L 83.65 50.15
Q 83.65 50.2 83.6 50.25
L 83.55 50.3
Q 83.5 50.35 83.5 50.45
L 83.45 50.5
Q 83.4 50.55 83.35 50.6 83.3 50.65 83.25 50.75 83.15 50.9 83 51 82.85 51.2 82.75 51.4
L 82.75 51.45
Q 82.7 51.5 82.65 51.55 82.55 51.6 82.5 51.6 82.4 51.7 82.3 51.75 82.25 51.8 82.2 51.85
L 82.15 51.9
Q 82.1 51.95 82.1 52
L 82.05 52.05
Q 82.05 52.1 82.05 52.15
L 82.05 52.2
Q 82 52.25 82 52.3 82.05 52.3 82 52.35 82 52.4 81.95 52.45 81.85 52.45 81.7 52.5 81.65 52.5 81.6 52.55 81.5 52.55 81.4 52.6 81.35 52.65 81.3 52.65 81.25 52.7 81.2 52.75 81.2 52.8 81.15 52.8 81.15 52.85 81.15 52.9
L 82.25 52.9 81.15 52.9 57.2 52.9
Q 46.4 53.05 38.7 47.8
L 14.95 32.1 14.6 31.75 14.6 31.7
Q 14.6 31.6 14.6 31.55 14.6 31.5 14.6 31.45 14.7 31.4 14.75 31.35 14.8 31.3 14.85 31.25 14.95 31.2 14.95 31.15
L 15 31.15
Q 15.05 31.15 15.05 31.2 15.1 31.2 15.15 31.2 15.25 31.2 15.3 31.25 15.4 31.2 15.5 31.2 15.55 31.15 15.65 31.1 15.65 31.05 15.7 31.05 15.7 31 15.75 30.95
L 15.75 30.9
Q 15.75 30.85 15.75 30.8
L 15.75 30.75
Q 15.75 30.7 15.75 30.65
L 15.75 30.6
Q 15.75 30.55 15.75 30.5
L 15.7 30.45
Q 15.7 30.4 15.7 30.35
L 15.65 30.3 15.65 30.25
Q 15.65 30.2 15.6 30.15
L 15.55 30.1
Q 15.5 30.05 15.5 30 15.5 29.95 15.45 29.95 15.45 29.9 15.45 29.85
L 15.45 29.8
Q 15.45 29.75 15.45 29.7
L 15.45 29.65
Q 15.45 29.6 15.45 29.55
L 15.45 29.5
Q 15.45 29.45 15.45 29.4
L 15.45 29.3
Q 15.45 29.25 15.45 29.2
L 15.45 29.15
Q 15.4 29.1 15.4 29.05
L 15.4 29
Q 15.4 28.95 15.45 28.9
L 15.45 28.85
Q 15.45 28.8 15.45 28.75
L 15.5 28.7
Q 15.5 28.65 15.55 28.6
L 15.55 28.55
Q 15.55 28.5 15.55 28.45
L 15.55 28.4
Q 15.6 28.35 15.6 28.3
L 15.65 28.25 15.65 28.2
Q 15.7 28.15 15.7 28.1 15.75 28.05 15.8 27.95
L 15.85 27.9
Q 15.85 27.85 15.9 27.8
L 15.9 27.75
Q 15.95 27.7 15.95 27.65
L 15.95 27.6
Q 16 27.55 16 27.5
L 16.05 27.45
Q 16.05 27.4 16.1 27.35
L 16.15 27.3
Q 16.15 27.25 16.2 27.2
L 16.2 27.15
Q 16.2 27.1 16.25 27.1 16.25 27.05 16.3 27
L 16.3 26.95
Q 16.35 26.9 16.35 26.85
L 16.4 26.8
Q 16.45 26.75 16.5 26.7 16.55 26.7 16.6 26.65 16.65 26.6 16.7 26.55 16.8 26.5 16.95 26.4 17.05 26.35 17.1 26.25 17.2 26.15 17.35 26.05 17.45 25.95 17.55 25.85 17.6 25.8 17.65 25.75
L 17.75 25.7
Q 17.8 25.65 17.8 25.6 17.85 25.6 17.85 25.55 17.9 25.5 17.95 25.45 18 25.4 18.05 25.3 18.15 25.25 18.2 25.15 18.25 25.15 18.3 25.1 18.4 25.05 18.5 25
L 18.55 25 17.5 24.5 17.2 24.5
Q 17.2 24.55 17.15 24.6 17.1 24.65 17.05 24.75 17 24.75 17 24.8 16.95 24.85 16.95 24.9 16.9 24.9 16.85 24.95 16.8 25 16.75 25.05 16.7 25.05 16.65 25.1 16.6 25.15 16.55 25.15 16.5 25.25 16.4 25.3 16.35 25.35 16.3 25.4 16.2 25.45 16.15 25.45 16.15 25.5 16.1 25.55 16 25.6 15.9 25.6 15.85 25.65 15.8 25.7 15.75 25.7 15.7 25.75 15.65 25.8 15.65 25.85 15.6 25.85 15.55 25.9 15.55 25.95 15.5 26
L 15.45 26.05
Q 15.45 26.1 15.4 26.15
L 15.4 26.2
Q 15.35 26.25 15.3 26.3
L 15.25 26.35 15.25 26.4
Q 15.2 26.45 15.2 26.5
L 15.15 26.55
Q 15.1 26.6 15.1 26.65
L 15.05 26.7
Q 15 26.75 15 26.8
L 14.95 26.85
Q 14.95 26.95 14.9 27 14.9 26.9 14.85 26.8 14.85 26.75 14.85 26.7 14.8 26.7 14.8 26.65 14.75 26.6 14.75 26.55 14.7 26.55 14.65 26.5 14.6 26.45 14.55 26.4 14.4 26.4 14.3 26.35 14.2 26.4 14.1 26.4 14.05 26.45 13.95 26.5
L 13.9 26.5
Q 13.85 26.5 13.8 26.45
L 13.75 26.4
Q 13.7 26.35 13.65 26.3 13.55 26.3 13.5 26.25 13.45 26.25 13.35 26.25 13.3 26.25 13.25 26.25 13.2 26.25 13.1 26.25 13.05 26.3 13 26.35 12.95 26.35 12.85 26.4
L 12.8 26.45
Q 12.75 26.45 12.7 26.4 12.65 26.4 12.6 26.35 12.5 26.35 12.35 26.35 12.25 26.35 12.1 26.35 11.95 26.4 11.85 26.45 11.7 26.45 11.55 26.45 11.45 26.45 11.3 26.45 11.25 26.45 11.15 26.5 11.1 26.55 11.05 26.55 11 26.6 11 26.65 10.95 26.7 10.9 26.7 10.9 26.75 10.9 26.8
L 10.85 26.8
Q 10.8 26.85 10.75 26.85 10.65 26.8 10.6 26.8 10.5 26.8 10.45 26.85 10.4 26.85 10.3 26.9 10.25 26.9 10.2 26.95 10.15 27 10.1 27.05
L 10.05 27.1
Q 10.05 27.15 10 27.2
L 10 27.25 9.95 27.3
Q 9.95 27.35 9.95 27.4 9.9 27.45 9.9 27.5
L 8.25 26
Q 7.75 26.4 7.3 27 2.85 37.35 7.3 49.6
L 38.7 70.4
Q 46.4 75.65 57.2 75.5
L 93.2 75.5
Q 96.9 64.2 93.2 52.9
L 91.2 52.9 91.2 52.85
Q 91.15 52.75 91.15 52.7 91.1 52.65 91.1 52.6 91.05 52.55 91 52.5 90.9 52.4 90.85 52.35 90.8 52.3 90.8 52.25 90.75 52.2 90.7 52.2 90.7 52.15 90.65 52.1 90.65 52.05 90.6 52.05 90.45 51.95 90.35 51.9 90.25 51.8 90.2 51.75 90.05 51.6 89.95 51.55 89.85 51.5 89.8 51.45 89.75 51.4 89.7 51.3 89.6 51.25 89.5 51.15 89.35 51.05 89.2 50.95 89.1 50.8 89 50.65 88.85 50.4 88.7 50.15 88.6 49.95 88.5 49.85 88.4 49.8 88.3 49.7 88.25 49.7 88.2 49.7 88.15 49.7 88.05 49.65 88 49.7 87.9 49.7 87.85 49.7 87.8 49.7 87.75 49.7 87.7 49.7 87.7 49.65 87.7 49.6 87.75 49.6 87.75 49.55 87.75 49.5 87.8 49.45
L 87.8 49.4
Q 87.8 49.35 87.85 49.3
L 87.85 49.25
Q 87.85 49.2 87.9 49.2 87.9 49.15 87.9 49.1
L 87.9 49.05
Q 87.9 49 87.9 48.95
L 87.9 48.9
Q 87.9 48.85 87.95 48.8
L 87.95 48.75
Q 87.95 48.7 88 48.65
L 88 48.6
Q 88 48.5 88 48.45 88 48.35 88 48.3 88 48.2 88 48.1 88 47.95 88 47.8 88 47.7 88 47.65 87.95 47.6 87.95 47.55
L 87.9 47.5
Q 87.85 47.45 87.85 47.4 87.8 47.4 87.75 47.35 87.7 47.3 87.65 47.25 87.55 47.25 87.5 47.2 87.4 47.2 87.35 47.2 87.25 47.2 87.2 47.25 87.15 47.25 87.1 47.25 87.05 47.25 86.95 47.3 86.9 47.35 86.85 47.35 86.8 47.4 86.75 47.45
L 86.7 47.5
Q 86.65 47.55 86.65 47.6 86.6 47.65 86.55 47.7
L 86.55 47.75
Q 86.5 47.75 86.45 47.75 86.35 47.7 86.3 47.7 86.2 47.7 86.15 47.75 86.1 47.75 86 47.8 85.95 47.8 85.9 47.85 85.85 47.9 85.85 47.95 85.8 47.95 85.75 48 85.7 47.95 85.7 47.9
L 85.7 47.85
Q 85.65 47.8 85.65 47.75 85.65 47.7 85.6 47.6 85.6 47.55 85.55 47.45
L 85.5 47.4
Q 85.5 47.35 85.5 47.3 85.45 47.3 85.45 47.25 85.45 47.2 85.4 47.2 85.4 47.15 85.4 47.1
L 85.4 47.05
Q 85.35 47 85.35 46.95
L 85.3 46.9
Q 85.25 46.85 85.2 46.8 85.15 46.75 85.1 46.75 85.05 46.7 85.05 46.65
L 85 46.6
Q 85 46.55 85 46.5 84.95 46.5 84.95 46.45 84.9 46.4 84.9 46.35 84.85 46.35 84.85 46.3 84.75 46.25 84.7 46.25 84.65 46.2 84.6 46.15 84.55 46.15 84.5 46.15 84.5 46.1 84.45 46.05 84.45 46 84.4 46 84.4 45.95 84.4 45.9 84.4 45.85 84.35 45.85 84.3 45.75 84.25 45.7 84.15 45.6 84 45.45
M 23.8 42.6
L 26.05 44.1
Q 26.1701171875 44.19296875 26.2 44.3 26.2900390625 44.405859375 26.3 44.5
L 26.65 53.45 30.55 56.05
Q 30.6705078125 56.14375 30.7 56.25 30.7896484375 56.35546875 30.8 56.45
L 30.9 58.8
Q 30.903125 59.0216796875 30.75 59.15 30.6583984375 59.3224609375 30.45 59.35 30.285546875 59.3798828125 30.1 59.25
L 23.7 55
Q 23.6294921875 54.9564453125 23.55 54.85 23.51015625 54.7451171875 23.5 54.6
L 23.05 43.05
Q 23.0474609375 42.87890625 23.15 42.7 23.291796875 42.5775390625 23.45 42.55 23.6640625 42.5203125 23.8 42.6 Z"/>

<path fill="#FFFFFF" stroke="none" d="
M 26.05 44.1
L 23.8 42.6
Q 23.6640625 42.5203125 23.45 42.55 23.291796875 42.5775390625 23.15 42.7 23.0474609375 42.87890625 23.05 43.05
L 23.5 54.6
Q 23.51015625 54.7451171875 23.55 54.85 23.6294921875 54.9564453125 23.7 55
L 30.1 59.25
Q 30.285546875 59.3798828125 30.45 59.35 30.6583984375 59.3224609375 30.75 59.15 30.903125 59.0216796875 30.9 58.8
L 30.8 56.45
Q 30.7896484375 56.35546875 30.7 56.25 30.6705078125 56.14375 30.55 56.05
L 26.65 53.45 26.3 44.5
Q 26.2900390625 44.405859375 26.2 44.3 26.1701171875 44.19296875 26.05 44.1 Z"/>
</g>

<g id="Layer37_0_FILL">
<path fill="#A2A2A2" stroke="none" d="
M 83.7 26.8
Q 83.65 26.75 83.6 26.7 83.55 26.7 83.5 26.65 83.45 26.6 83.4 26.55 83.3 26.5 83.15 26.4 83.05 26.35 83 26.25 82.9 26.15 82.75 26.05 82.65 25.95 82.55 25.85 82.5 25.8 82.45 25.75
L 82.35 25.7
Q 82.3 25.65 82.3 25.6 82.25 25.6 82.25 25.55 82.2 25.5 82.15 25.45 82.1 25.4 82.05 25.3 81.95 25.25 81.9 25.15 81.85 25.15 81.8 25.1 81.7 25.05 81.6 25
L 81.55 25 66.05 31.95
Q 58.75 33.9 51.5 32.25 44.2 30.6 34.45 33.65
L 11.05 47.9
Q 8.2 50.1 6.9 52.9
L 8.9 52.9 8.9 52.85
Q 8.95 52.75 8.95 52.7 9 52.65 9 52.6 9.05 52.55 9.1 52.5 9.2 52.4 9.25 52.35 9.3 52.3 9.3 52.25 9.35 52.2 9.4 52.2 9.4 52.15 9.45 52.1 9.45 52.05 9.5 52.05 9.65 51.95 9.75 51.9 9.85 51.8 9.9 51.75 10.05 51.6 10.15 51.55 10.25 51.5 10.3 51.45 10.35 51.4 10.4 51.3 10.5 51.25 10.6 51.15 10.75 51.05 10.9 50.95 11 50.8 11.1 50.65 11.25 50.4 11.4 50.15 11.5 49.95 11.6 49.85 11.7 49.8 11.8 49.7 11.85 49.7 11.9 49.7 11.95 49.7 12.05 49.65 12.1 49.7 12.2 49.7 12.25 49.7 12.3 49.7 12.35 49.7 12.4 49.7 12.4 49.65 12.4 49.6 12.35 49.6 12.35 49.55 12.35 49.5 12.3 49.45
L 12.3 49.4
Q 12.3 49.35 12.25 49.3
L 12.25 49.25
Q 12.25 49.2 12.2 49.2 12.2 49.15 12.2 49.1
L 12.2 49.05
Q 12.2 49 12.2 48.95
L 12.2 48.9
Q 12.2 48.85 12.15 48.8
L 12.15 48.75
Q 12.15 48.7 12.1 48.65
L 12.1 48.6
Q 12.1 48.5 12.1 48.45 12.1 48.35 12.1 48.3 12.1 48.2 12.1 48.1 12.1 47.95 12.1 47.8 12.1 47.7 12.1 47.65 12.15 47.6 12.15 47.55
L 12.2 47.5
Q 12.25 47.45 12.25 47.4 12.3 47.4 12.35 47.35 12.4 47.3 12.45 47.25 12.55 47.25 12.6 47.2 12.7 47.2 12.75 47.2 12.85 47.2 12.9 47.25 12.95 47.25 13 47.25 13.05 47.25 13.15 47.3 13.2 47.35 13.25 47.35 13.3 47.4 13.35 47.45
L 13.4 47.5
Q 13.45 47.55 13.45 47.6 13.5 47.65 13.55 47.7
L 13.55 47.75
Q 13.6 47.75 13.65 47.75 13.75 47.7 13.8 47.7 13.9 47.7 13.95 47.75 14 47.75 14.1 47.8 14.15 47.8 14.2 47.85 14.25 47.9 14.25 47.95 14.3 47.95 14.35 48 14.4 47.95 14.4 47.9
L 14.4 47.85
Q 14.45 47.8 14.45 47.75 14.45 47.7 14.5 47.6 14.5 47.55 14.55 47.45
L 14.6 47.4
Q 14.6 47.35 14.6 47.3 14.65 47.3 14.65 47.25 14.65 47.2 14.7 47.2 14.7 47.15 14.7 47.1
L 14.7 47.05
Q 14.75 47 14.75 46.95
L 14.8 46.9
Q 14.85 46.85 14.9 46.8 14.95 46.75 15 46.75 15.05 46.7 15.05 46.65
L 15.1 46.6
Q 15.1 46.55 15.1 46.5 15.15 46.5 15.15 46.45 15.2 46.4 15.2 46.35 15.25 46.35 15.25 46.3 15.35 46.25 15.4 46.25 15.45 46.2 15.5 46.15 15.55 46.15 15.6 46.15 15.6 46.1 15.65 46.05 15.65 46 15.7 46 15.7 45.95 15.7 45.9 15.7 45.85 15.75 45.85 15.8 45.75 15.85 45.7 15.95 45.6 16.1 45.45 16.25 45.35 16.45 45.25 16.55 45.25 16.65 45.2 16.75 45.2 16.85 45.25 16.95 45.3 17 45.3 17.1 45.35 17.15 45.4 17.15 45.45 17.2 45.45 17.2 45.5 17.2 45.55
L 17.25 45.6
Q 17.25 45.65 17.2 45.7
L 17.2 45.75
Q 17.2 45.85 17.15 45.9 17.15 46 17.15 46.05 17.1 46.1 17.1 46.15 17.05 46.15 17.05 46.2 17 46.25 16.95 46.25 16.85 46.3 16.8 46.35 16.8 46.4 16.75 46.4 16.75 46.45 16.7 46.5
L 16.7 46.55
Q 16.7 46.6 16.7 46.65
L 16.7 46.7
Q 16.7 46.75 16.7 46.8 16.65 46.8 16.65 46.85 16.65 46.9 16.6 46.95
L 16.6 47
Q 16.6 47.05 16.6 47.1 16.55 47.1 16.55 47.15 16.55 47.2 16.5 47.2 16.5 47.25 16.45 47.3 16.45 47.35 16.4 47.45
L 16.4 47.5
Q 16.35 47.55 16.35 47.6
L 16.35 47.65
Q 16.3 47.7 16.3 47.75
L 16.3 47.8
Q 16.3 47.9 16.3 47.95 16.3 48.05 16.3 48.1 16.3 48.15 16.3 48.2
L 16.25 48.25 16.25 48.3
Q 16.25 48.35 16.2 48.4 16.2 48.45 16.2 48.55 16.2 48.7 16.2 48.85 16.2 49 16.2 49.2 16.2 49.35 16.2 49.5
L 16.25 49.55
Q 16.25 49.6 16.3 49.65
L 16.3 49.7
Q 16.3 49.75 16.3 49.8 16.3 49.85 16.35 49.85 16.35 49.95 16.35 50 16.4 50.05 16.4 50.1
L 16.45 50.15
Q 16.45 50.2 16.5 50.25
L 16.55 50.3
Q 16.6 50.35 16.6 50.45
L 16.65 50.5
Q 16.7 50.55 16.75 50.6 16.8 50.65 16.85 50.75 16.95 50.9 17.1 51 17.25 51.2 17.35 51.4
L 17.35 51.45
Q 17.4 51.5 17.45 51.55 17.55 51.6 17.6 51.6 17.7 51.7 17.8 51.75 17.85 51.8 17.9 51.85
L 17.95 51.9
Q 18 51.95 18 52
L 18.05 52.05
Q 18.05 52.1 18.05 52.15
L 18.05 52.2
Q 18.1 52.25 18.1 52.3 18.05 52.3 18.1 52.35 18.1 52.4 18.15 52.45 18.25 52.45 18.4 52.5 18.45 52.5 18.5 52.55 18.6 52.55 18.7 52.6 18.75 52.65 18.8 52.65 18.85 52.7 18.9 52.75 18.9 52.8 18.95 52.8 18.95 52.85 18.95 52.9
L 42.9 52.9
Q 53.7 53.05 61.4 47.8
L 85.15 32.1 85.5 31.75 85.5 31.7
Q 85.5 31.6 85.5 31.55 85.5 31.5 85.5 31.45 85.4 31.4 85.35 31.35 85.3 31.3 85.25 31.25 85.15 31.2 85.15 31.15
L 85.1 31.15
Q 85.05 31.15 85.05 31.2 85 31.2 84.95 31.2 84.85 31.2 84.8 31.25 84.7 31.2 84.6 31.2 84.55 31.15 84.45 31.1 84.45 31.05 84.4 31.05 84.4 31 84.35 30.95
L 84.35 30.9
Q 84.35 30.85 84.35 30.8
L 84.35 30.75
Q 84.35 30.7 84.35 30.65
L 84.35 30.6
Q 84.35 30.55 84.35 30.5
L 84.4 30.45
Q 84.4 30.4 84.4 30.35
L 84.45 30.3 84.45 30.25
Q 84.45 30.2 84.5 30.15
L 84.55 30.1
Q 84.6 30.05 84.6 30 84.6 29.95 84.65 29.95 84.65 29.9 84.65 29.85
L 84.65 29.8
Q 84.65 29.75 84.65 29.7
L 84.65 29.65
Q 84.65 29.6 84.65 29.55
L 84.65 29.5
Q 84.65 29.45 84.65 29.4
L 84.65 29.3
Q 84.65 29.25 84.65 29.2
L 84.65 29.15
Q 84.7 29.1 84.7 29.05
L 84.7 29
Q 84.7 28.95 84.65 28.9
L 84.65 28.85
Q 84.65 28.8 84.65 28.75
L 84.6 28.7
Q 84.6 28.65 84.55 28.6
L 84.55 28.55
Q 84.55 28.5 84.55 28.45
L 84.55 28.4
Q 84.5 28.35 84.5 28.3
L 84.45 28.25 84.45 28.2
Q 84.4 28.15 84.4 28.1 84.35 28.05 84.3 27.95
L 84.25 27.9
Q 84.25 27.85 84.2 27.8
L 84.2 27.75
Q 84.15 27.7 84.15 27.65
L 84.15 27.6
Q 84.1 27.55 84.1 27.5
L 84.05 27.45
Q 84.05 27.4 84 27.35
L 83.95 27.3
Q 83.95 27.25 83.9 27.2
L 83.9 27.15
Q 83.9 27.1 83.85 27.1 83.85 27.05 83.8 27
L 83.8 26.95
Q 83.75 26.9 83.75 26.85
L 83.7 26.8
M 88.15 24.5
L 82.9 24.5
Q 82.9 24.55 82.95 24.6 83 24.65 83.05 24.75 83.1 24.75 83.1 24.8 83.15 24.85 83.15 24.9 83.2 24.9 83.25 24.95 83.3 25 83.35 25.05 83.4 25.05 83.45 25.1 83.5 25.15 83.55 25.15 83.6 25.25 83.7 25.3 83.75 25.35 83.8 25.4 83.9 25.45 83.95 25.45 83.95 25.5 84 25.55 84.1 25.6 84.2 25.6 84.25 25.65 84.3 25.7 84.35 25.7 84.4 25.75 84.45 25.8 84.45 25.85 84.5 25.85 84.55 25.9 84.55 25.95 84.6 26
L 84.65 26.05
Q 84.65 26.1 84.7 26.15
L 84.7 26.2
Q 84.75 26.25 84.8 26.3
L 84.85 26.35 84.85 26.4
Q 84.9 26.45 84.9 26.5
L 84.95 26.55
Q 85 26.6 85 26.65
L 85.05 26.7
Q 85.1 26.75 85.1 26.8
L 85.15 26.85
Q 85.15 26.95 85.2 27 85.2 26.9 85.25 26.8 85.25 26.75 85.25 26.7 85.3 26.7 85.3 26.65 85.35 26.6 85.35 26.55 85.4 26.55 85.45 26.5 85.5 26.45 85.55 26.4 85.7 26.4 85.8 26.35 85.9 26.4 86 26.4 86.05 26.45 86.15 26.5
L 86.2 26.5
Q 86.25 26.5 86.3 26.45
L 86.35 26.4
Q 86.4 26.35 86.45 26.3 86.55 26.3 86.6 26.25 86.65 26.25 86.75 26.25 86.8 26.25 86.85 26.25 86.9 26.25 87 26.25 87.05 26.3 87.1 26.35 87.15 26.35 87.25 26.4
L 87.3 26.45
Q 87.35 26.45 87.4 26.4 87.45 26.4 87.5 26.35 87.6 26.35 87.75 26.35 87.85 26.35 88 26.35 88.15 26.4 88.25 26.45 88.4 26.45 88.55 26.45 88.65 26.45 88.8 26.45 88.85 26.45 88.95 26.5 89 26.55 89.05 26.55 89.1 26.6 89.1 26.65 89.15 26.7 89.2 26.7 89.2 26.75 89.2 26.8
L 89.25 26.8
Q 89.3 26.85 89.35 26.85 89.45 26.8 89.5 26.8 89.6 26.8 89.65 26.85 89.7 26.85 89.8 26.9 89.85 26.9 89.9 26.95 89.95 27 90 27.05
L 90.05 27.1
Q 90.05 27.15 90.1 27.2
L 90.1 27.25 90.15 27.3
Q 90.15 27.35 90.15 27.4 90.2 27.45 90.2 27.5
L 91.85 26
Q 90.3 24.7 88.15 24.5 Z"/>

<path fill="#C8C8C8" stroke="none" d="
M 82.9 24.5
L 82.6 24.5 81.55 25 81.6 25
Q 81.7 25.05 81.8 25.1 81.85 25.15 81.9 25.15 81.95 25.25 82.05 25.3 82.1 25.4 82.15 25.45 82.2 25.5 82.25 25.55 82.25 25.6 82.3 25.6 82.3 25.65 82.35 25.7
L 82.45 25.75
Q 82.5 25.8 82.55 25.85 82.65 25.95 82.75 26.05 82.9 26.15 83 26.25 83.05 26.35 83.15 26.4 83.3 26.5 83.4 26.55 83.45 26.6 83.5 26.65 83.55 26.7 83.6 26.7 83.65 26.75 83.7 26.8
L 83.75 26.85
Q 83.75 26.9 83.8 26.95
L 83.8 27
Q 83.85 27.05 83.85 27.1 83.9 27.1 83.9 27.15
L 83.9 27.2
Q 83.95 27.25 83.95 27.3
L 84 27.35
Q 84.05 27.4 84.05 27.45
L 84.1 27.5
Q 84.1 27.55 84.15 27.6
L 84.15 27.65
Q 84.15 27.7 84.2 27.75
L 84.2 27.8
Q 84.25 27.85 84.25 27.9
L 84.3 27.95
Q 84.35 28.05 84.4 28.1 84.4 28.15 84.45 28.2
L 84.45 28.25 84.5 28.3
Q 84.5 28.35 84.55 28.4
L 84.55 28.45
Q 84.55 28.5 84.55 28.55
L 84.55 28.6
Q 84.6 28.65 84.6 28.7
L 84.65 28.75
Q 84.65 28.8 84.65 28.85
L 84.65 28.9
Q 84.7 28.95 84.7 29
L 84.7 29.05
Q 84.7 29.1 84.65 29.15
L 84.65 29.2
Q 84.65 29.25 84.65 29.3
L 84.65 29.4
Q 84.65 29.45 84.65 29.5
L 84.65 29.55
Q 84.65 29.6 84.65 29.65
L 84.65 29.7
Q 84.65 29.75 84.65 29.8
L 84.65 29.85
Q 84.65 29.9 84.65 29.95 84.6 29.95 84.6 30 84.6 30.05 84.55 30.1
L 84.5 30.15
Q 84.45 30.2 84.45 30.25
L 84.45 30.3 84.4 30.35
Q 84.4 30.4 84.4 30.45
L 84.35 30.5
Q 84.35 30.55 84.35 30.6
L 84.35 30.65
Q 84.35 30.7 84.35 30.75
L 84.35 30.8
Q 84.35 30.85 84.35 30.9
L 84.35 30.95
Q 84.4 31 84.4 31.05 84.45 31.05 84.45 31.1 84.55 31.15 84.6 31.2 84.7 31.2 84.8 31.25 84.85 31.2 84.95 31.2 85 31.2 85.05 31.2 85.05 31.15 85.1 31.15
L 85.15 31.15
Q 85.15 31.2 85.25 31.25 85.3 31.3 85.35 31.35 85.4 31.4 85.5 31.45 85.5 31.5 85.5 31.55 85.5 31.6 85.5 31.7
L 85.5 31.75 85.15 32.1 61.4 47.8
Q 53.7 53.05 42.9 52.9
L 18.95 52.9 17.85 52.9 18.95 52.9
Q 18.95 52.85 18.95 52.8 18.9 52.8 18.9 52.75 18.85 52.7 18.8 52.65 18.75 52.65 18.7 52.6 18.6 52.55 18.5 52.55 18.45 52.5 18.4 52.5 18.25 52.45 18.15 52.45 18.1 52.4 18.1 52.35 18.05 52.3 18.1 52.3 18.1 52.25 18.05 52.2
L 18.05 52.15
Q 18.05 52.1 18.05 52.05
L 18 52
Q 18 51.95 17.95 51.9
L 17.9 51.85
Q 17.85 51.8 17.8 51.75 17.7 51.7 17.6 51.6 17.55 51.6 17.45 51.55 17.4 51.5 17.35 51.45
L 17.35 51.4
Q 17.25 51.2 17.1 51 16.95 50.9 16.85 50.75 16.8 50.65 16.75 50.6 16.7 50.55 16.65 50.5
L 16.6 50.45
Q 16.6 50.35 16.55 50.3
L 16.5 50.25
Q 16.45 50.2 16.45 50.15
L 16.4 50.1
Q 16.4 50.05 16.35 50 16.35 49.95 16.35 49.85 16.3 49.85 16.3 49.8 16.3 49.75 16.3 49.7
L 16.3 49.65
Q 16.25 49.6 16.25 49.55
L 16.2 49.5
Q 16.2 49.35 16.2 49.2 16.2 49 16.2 48.85 16.2 48.7 16.2 48.55 16.2 48.45 16.2 48.4 16.25 48.35 16.25 48.3
L 16.25 48.25 16.3 48.2
Q 16.3 48.15 16.3 48.1 16.3 48.05 16.3 47.95 16.3 47.9 16.3 47.8
L 16.3 47.75
Q 16.3 47.7 16.35 47.65
L 16.35 47.6
Q 16.35 47.55 16.4 47.5
L 16.4 47.45
Q 16.45 47.35 16.45 47.3 16.5 47.25 16.5 47.2 16.55 47.2 16.55 47.15 16.55 47.1 16.6 47.1 16.6 47.05 16.6 47
L 16.6 46.95
Q 16.65 46.9 16.65 46.85 16.65 46.8 16.7 46.8 16.7 46.75 16.7 46.7
L 16.7 46.65
Q 16.7 46.6 16.7 46.55
L 16.7 46.5
Q 16.75 46.45 16.75 46.4 16.8 46.4 16.8 46.35 16.85 46.3 16.95 46.25 17 46.25 17.05 46.2 17.05 46.15 17.1 46.15 17.1 46.1 17.15 46.05 17.15 46 17.15 45.9 17.2 45.85 17.2 45.75
L 17.2 45.7
Q 17.25 45.65 17.25 45.6
L 17.2 45.55
Q 17.2 45.5 17.2 45.45 17.15 45.45 17.15 45.4 17.1 45.35 17 45.3 16.95 45.3 16.85 45.25 16.75 45.2 16.65 45.2 16.55 45.25 16.45 45.25 16.25 45.35 16.1 45.45 15.95 45.6 15.85 45.7 15.8 45.75 15.75 45.85 15.7 45.85 15.7 45.9 15.7 45.95 15.7 46 15.65 46 15.65 46.05 15.6 46.1 15.6 46.15 15.55 46.15 15.5 46.15 15.45 46.2 15.4 46.25 15.35 46.25 15.25 46.3 15.25 46.35 15.2 46.35 15.2 46.4 15.15 46.45 15.15 46.5 15.1 46.5 15.1 46.55 15.1 46.6
L 15.05 46.65
Q 15.05 46.7 15 46.75 14.95 46.75 14.9 46.8 14.85 46.85 14.8 46.9
L 14.75 46.95
Q 14.75 47 14.7 47.05
L 14.7 47.1
Q 14.7 47.15 14.7 47.2 14.65 47.2 14.65 47.25 14.65 47.3 14.6 47.3 14.6 47.35 14.6 47.4
L 14.55 47.45
Q 14.5 47.55 14.5 47.6 14.45 47.7 14.45 47.75 14.45 47.8 14.4 47.85
L 14.4 47.9
Q 14.4 47.95 14.35 48 14.3 47.95 14.25 47.95 14.25 47.9 14.2 47.85 14.15 47.8 14.1 47.8 14 47.75 13.95 47.75 13.9 47.7 13.8 47.7 13.75 47.7 13.65 47.75 13.6 47.75 13.55 47.75
L 13.55 47.7
Q 13.5 47.65 13.45 47.6 13.45 47.55 13.4 47.5
L 13.35 47.45
Q 13.3 47.4 13.25 47.35 13.2 47.35 13.15 47.3 13.05 47.25 13 47.25 12.95 47.25 12.9 47.25 12.85 47.2 12.75 47.2 12.7 47.2 12.6 47.2 12.55 47.25 12.45 47.25 12.4 47.3 12.35 47.35 12.3 47.4 12.25 47.4 12.25 47.45 12.2 47.5
L 12.15 47.55
Q 12.15 47.6 12.1 47.65 12.1 47.7 12.1 47.8 12.1 47.95 12.1 48.1 12.1 48.2 12.1 48.3 12.1 48.35 12.1 48.45 12.1 48.5 12.1 48.6
L 12.1 48.65
Q 12.15 48.7 12.15 48.75
L 12.15 48.8
Q 12.2 48.85 12.2 48.9
L 12.2 48.95
Q 12.2 49 12.2 49.05
L 12.2 49.1
Q 12.2 49.15 12.2 49.2 12.25 49.2 12.25 49.25
L 12.25 49.3
Q 12.3 49.35 12.3 49.4
L 12.3 49.45
Q 12.35 49.5 12.35 49.55 12.35 49.6 12.4 49.6 12.4 49.65 12.4 49.7 12.35 49.7 12.3 49.7 12.25 49.7 12.2 49.7 12.1 49.7 12.05 49.65 11.95 49.7 11.9 49.7 11.85 49.7 11.8 49.7 11.7 49.8 11.6 49.85 11.5 49.95 11.4 50.15 11.25 50.4 11.1 50.65 11 50.8 10.9 50.95 10.75 51.05 10.6 51.15 10.5 51.25 10.4 51.3 10.35 51.4 10.3 51.45 10.25 51.5 10.15 51.55 10.05 51.6 9.9 51.75 9.85 51.8 9.75 51.9 9.65 51.95 9.5 52.05 9.45 52.05 9.45 52.1 9.4 52.15 9.4 52.2 9.35 52.2 9.3 52.25 9.3 52.3 9.25 52.35 9.2 52.4 9.1 52.5 9.05 52.55 9 52.6 9 52.65 8.95 52.7 8.95 52.75 8.9 52.85
L 8.9 52.9 6.9 52.9
Q 3.2 64.2 6.9 75.5
L 42.9 75.5
Q 53.7 75.65 61.4 70.4
L 92.8 49.6
Q 97.25 37.35 92.8 27 92.35 26.4 91.85 26
L 90.2 27.5
Q 90.2 27.45 90.15 27.4 90.15 27.35 90.15 27.3
L 90.1 27.25 90.1 27.2
Q 90.05 27.15 90.05 27.1
L 90 27.05
Q 89.95 27 89.9 26.95 89.85 26.9 89.8 26.9 89.7 26.85 89.65 26.85 89.6 26.8 89.5 26.8 89.45 26.8 89.35 26.85 89.3 26.85 89.25 26.8
L 89.2 26.8
Q 89.2 26.75 89.2 26.7 89.15 26.7 89.1 26.65 89.1 26.6 89.05 26.55 89 26.55 88.95 26.5 88.85 26.45 88.8 26.45 88.65 26.45 88.55 26.45 88.4 26.45 88.25 26.45 88.15 26.4 88 26.35 87.85 26.35 87.75 26.35 87.6 26.35 87.5 26.35 87.45 26.4 87.4 26.4 87.35 26.45 87.3 26.45
L 87.25 26.4
Q 87.15 26.35 87.1 26.35 87.05 26.3 87 26.25 86.9 26.25 86.85 26.25 86.8 26.25 86.75 26.25 86.65 26.25 86.6 26.25 86.55 26.3 86.45 26.3 86.4 26.35 86.35 26.4
L 86.3 26.45
Q 86.25 26.5 86.2 26.5
L 86.15 26.5
Q 86.05 26.45 86 26.4 85.9 26.4 85.8 26.35 85.7 26.4 85.55 26.4 85.5 26.45 85.45 26.5 85.4 26.55 85.35 26.55 85.35 26.6 85.3 26.65 85.3 26.7 85.25 26.7 85.25 26.75 85.25 26.8 85.2 26.9 85.2 27 85.15 26.95 85.15 26.85
L 85.1 26.8
Q 85.1 26.75 85.05 26.7
L 85 26.65
Q 85 26.6 84.95 26.55
L 84.9 26.5
Q 84.9 26.45 84.85 26.4
L 84.85 26.35 84.8 26.3
Q 84.75 26.25 84.7 26.2
L 84.7 26.15
Q 84.65 26.1 84.65 26.05
L 84.6 26
Q 84.55 25.95 84.55 25.9 84.5 25.85 84.45 25.85 84.45 25.8 84.4 25.75 84.35 25.7 84.3 25.7 84.25 25.65 84.2 25.6 84.1 25.6 84 25.55 83.95 25.5 83.95 25.45 83.9 25.45 83.8 25.4 83.75 25.35 83.7 25.3 83.6 25.25 83.55 25.15 83.5 25.15 83.45 25.1 83.4 25.05 83.35 25.05 83.3 25 83.25 24.95 83.2 24.9 83.15 24.9 83.15 24.85 83.1 24.8 83.1 24.75 83.05 24.75 83 24.65 82.95 24.6 82.9 24.55 82.9 24.5
M 74.65 44.9
Q 75.2 45 75.45 45.55 75.8 46.1 75.85 47.15 75.9 48.45 75.4 49.7 74.9 50.9 73.85 51.75
L 76.55 55.45 74 56.95 71.75 53.25 70.7 53.85 70.9 58.75 68.8 60 68.35 47.8 72.05 45.6
Q 72.8 45.2 73.45 45 74.15 44.75 74.65 44.9
M 72.55 47.7
Q 72.25 47.8 71.95 48
L 70.55 48.8 70.65 51.6 71.9 50.85
Q 72.2 50.7 72.5 50.45 72.85 50.3 73.05 49.95 73.3 49.7 73.5 49.3 73.65 48.95 73.65 48.45 73.6 47.95 73.45 47.8 73.3 47.6 73.05 47.65 72.85 47.55 72.55 47.7 Z"/>

<path fill="#FFFFFF" stroke="none" d="
M 75.45 45.55
Q 75.2 45 74.65 44.9 74.15 44.75 73.45 45 72.8 45.2 72.05 45.6
L 68.35 47.8 68.8 60 70.9 58.75 70.7 53.85 71.75 53.25 74 56.95 76.55 55.45 73.85 51.75
Q 74.9 50.9 75.4 49.7 75.9 48.45 75.85 47.15 75.8 46.1 75.45 45.55
M 71.95 48
Q 72.25 47.8 72.55 47.7 72.85 47.55 73.05 47.65 73.3 47.6 73.45 47.8 73.6 47.95 73.65 48.45 73.65 48.95 73.5 49.3 73.3 49.7 73.05 49.95 72.85 50.3 72.5 50.45 72.2 50.7 71.9 50.85
L 70.65 51.6 70.55 48.8 71.95 48 Z"/>
</g>

<g id="Layer36_0_FILL">
<path fill="#353535" stroke="none" d="
M 81.5 68.85
Q 94.55 61.05 94.55 50.05 94.55 39 81.5 31.15 68.45 23.35 50.05 23.35 31.6 23.35 18.5 31.15 5.45 39 5.45 50.05 5.45 61.05 18.5 68.85 31.6 76.7 50.05 76.7 68.45 76.7 81.5 68.85
M 77.85 36.55
L 77.8 36.55
Q 87.35 42.3 87.8 50.05 87.35 57.7 77.85 63.4
L 77.8 63.4
Q 66.3 70.25 50.05 70.25 33.7 70.25 22.15 63.4 12.6 57.7 12.2 50.05 12.6 42.3 22.15 36.55 33.7 29.75 50.05 29.75 66.3 29.75 77.85 36.55 Z"/>

<path fill="#535353" stroke="none" d="
M 77.8 36.55
L 77.85 36.55
Q 66.3 29.75 50.05 29.75 33.7 29.75 22.15 36.55 12.6 42.3 12.2 50.05 12.6 57.7 22.15 63.4 33.7 70.25 50.05 70.25 66.3 70.25 77.8 63.4
L 77.85 63.4
Q 87.35 57.7 87.8 50.05 87.35 42.3 77.8 36.55
M 47.65 44.1
L 49.8 44.1 55 56.05 52.05 56.05 51 53.5 46.35 53.5 45.4 56.05 42.5 56.05 47.65 44.1
M 43.9 46.45
L 40.5 46.45 40.5 56.05 37.85 56.05 37.85 46.45 34.45 46.45 34.45 44.1 43.9 44.1 43.9 46.45
M 64 44.9
Q 64.6 45.3 64.95 46 65.3 46.7 65.3 47.75 65.3 49 64.65 49.9 64 50.8 62.75 51
L 65.8 56.05 62.65 56.05 60.15 51.3 58.85 51.3 58.85 56.05 56.2 56.05 56.2 44.1 60.85 44.1
Q 61.75 44.1 62.55 44.3 63.35 44.5 64 44.9
M 65.7 46.45
L 65.7 44.1 75.15 44.1 75.15 46.45 71.75 46.45 71.75 56.05 69.1 56.05 69.1 46.45 65.7 46.45
M 28.2 44.05
Q 29.05 43.8 29.9 43.8 30.9 43.8 31.85 44.1 32.8 44.4 33.55 45.05
L 31.75 47.05
Q 31.45 46.65 30.9 46.45 30.35 46.25 29.85 46.25 29.55 46.25 29.25 46.3 28.95 46.4 28.7 46.5 28.45 46.65 28.25 46.9 28.1 47.15 28.1 47.5 28.1 48 28.5 48.3 28.9 48.6 29.5 48.8 30.15 49 30.85 49.2 31.55 49.4 32.15 49.75 32.8 50.15 33.2 50.75 33.6 51.4 33.6 52.45 33.6 53.45 33.2 54.15 32.85 54.9 32.2 55.4 31.6 55.9 30.75 56.1 29.9 56.35 29 56.35 27.85 56.35 26.85 56 25.85 55.65 25 54.85
L 26.85 52.8
Q 27.25 53.35 27.85 53.65 28.5 53.95 29.15 53.95 29.45 53.95 29.8 53.85 30.1 53.8 30.4 53.6 30.65 53.5 30.8 53.25 30.95 53 30.95 52.7 30.95 52.15 30.55 51.85 30.15 51.5 29.5 51.3 28.9 51.1 28.15 50.85 27.45 50.65 26.8 50.3 26.2 49.9 25.75 49.3 25.35 48.7 25.35 47.7 25.35 46.75 25.75 46 26.1 45.3 26.75 44.8 27.4 44.3 28.2 44.05
M 58.85 46.35
L 58.85 49.05 60.4 49.05
Q 60.75 49.05 61.15 49.05 61.55 49 61.85 48.9 62.15 48.75 62.4 48.5 62.6 48.2 62.6 47.75 62.6 47.25 62.4 47 62.2 46.75 61.95 46.6 61.65 46.45 61.3 46.4 60.9 46.35 60.55 46.35
L 58.85 46.35
M 47.2 51.3
L 50.1 51.3 48.65 47.6 47.2 51.3 Z"/>

<path fill="#D6D6D6" stroke="none" d="
M 29.9 43.8
Q 29.05 43.8 28.2 44.05 27.4 44.3 26.75 44.8 26.1 45.3 25.75 46 25.35 46.75 25.35 47.7 25.35 48.7 25.75 49.3 26.2 49.9 26.8 50.3 27.45 50.65 28.15 50.85 28.9 51.1 29.5 51.3 30.15 51.5 30.55 51.85 30.95 52.15 30.95 52.7 30.95 53 30.8 53.25 30.65 53.5 30.4 53.6 30.1 53.8 29.8 53.85 29.45 53.95 29.15 53.95 28.5 53.95 27.85 53.65 27.25 53.35 26.85 52.8
L 25 54.85
Q 25.85 55.65 26.85 56 27.85 56.35 29 56.35 29.9 56.35 30.75 56.1 31.6 55.9 32.2 55.4 32.85 54.9 33.2 54.15 33.6 53.45 33.6 52.45 33.6 51.4 33.2 50.75 32.8 50.15 32.15 49.75 31.55 49.4 30.85 49.2 30.15 49 29.5 48.8 28.9 48.6 28.5 48.3 28.1 48 28.1 47.5 28.1 47.15 28.25 46.9 28.45 46.65 28.7 46.5 28.95 46.4 29.25 46.3 29.55 46.25 29.85 46.25 30.35 46.25 30.9 46.45 31.45 46.65 31.75 47.05
L 33.55 45.05
Q 32.8 44.4 31.85 44.1 30.9 43.8 29.9 43.8
M 65.7 44.1
L 65.7 46.45 69.1 46.45 69.1 56.05 71.75 56.05 71.75 46.45 75.15 46.45 75.15 44.1 65.7 44.1
M 64.95 46
Q 64.6 45.3 64 44.9 63.35 44.5 62.55 44.3 61.75 44.1 60.85 44.1
L 56.2 44.1 56.2 56.05 58.85 56.05 58.85 51.3 60.15 51.3 62.65 56.05 65.8 56.05 62.75 51
Q 64 50.8 64.65 49.9 65.3 49 65.3 47.75 65.3 46.7 64.95 46
M 58.85 49.05
L 58.85 46.35 60.55 46.35
Q 60.9 46.35 61.3 46.4 61.65 46.45 61.95 46.6 62.2 46.75 62.4 47 62.6 47.25 62.6 47.75 62.6 48.2 62.4 48.5 62.15 48.75 61.85 48.9 61.55 49 61.15 49.05 60.75 49.05 60.4 49.05
L 58.85 49.05
M 40.5 46.45
L 43.9 46.45 43.9 44.1 34.45 44.1 34.45 46.45 37.85 46.45 37.85 56.05 40.5 56.05 40.5 46.45
M 49.8 44.1
L 47.65 44.1 42.5 56.05 45.4 56.05 46.35 53.5 51 53.5 52.05 56.05 55 56.05 49.8 44.1
M 50.1 51.3
L 47.2 51.3 48.65 47.6 50.1 51.3 Z"/>
</g>

<g id="Layer35_0_FILL">
<path fill="#353535" stroke="none" d="
M 81.5 68.85
Q 94.55 61.05 94.55 50.05 94.55 39 81.5 31.15 68.45 23.35 50.05 23.35 31.6 23.35 18.5 31.15 5.45 39 5.45 50.05 5.45 61.05 18.5 68.85 31.6 76.7 50.05 76.7 68.45 76.7 81.5 68.85
M 77.85 36.55
L 77.8 36.55
Q 87.35 42.3 87.8 50.05 87.35 57.7 77.85 63.4
L 77.8 63.4
Q 66.3 70.25 50.05 70.25 33.7 70.25 22.15 63.4 12.6 57.7 12.2 50.05 12.6 42.3 22.15 36.55 33.7 29.75 50.05 29.75 66.3 29.75 77.85 36.55 Z"/>

<path fill="#535353" stroke="none" d="
M 77.8 36.55
L 77.85 36.55
Q 66.3 29.75 50.05 29.75 33.7 29.75 22.15 36.55 12.6 42.3 12.2 50.05 12.6 57.7 22.15 63.4 33.7 70.25 50.05 70.25 66.3 70.25 77.8 63.4
L 77.85 63.4
Q 87.35 57.7 87.8 50.05 87.35 42.3 77.8 36.55
M 41 44.1
L 43.65 44.1 43.65 53.6 48.5 53.6 48.5 56.05 41 56.05 41 44.1
M 58.1 46.55
L 52.65 46.55 52.65 48.75 57.8 48.75 57.8 51.2 52.65 51.2 52.65 53.6 58.4 53.6 58.4 56.05 50 56.05 50 44.1 58.1 44.1 58.1 46.55
M 61.75 45.5
Q 62.6 44.7 63.8 44.25 64.95 43.8 66.35 43.8 66.85 43.8 67.4 43.9 67.95 44 68.5 44.2 69 44.4 69.5 44.75 70 45.1 70.4 45.55
L 68.35 47.2
Q 68 46.75 67.4 46.5 66.85 46.25 66.1 46.25 65.35 46.25 64.75 46.55 64.1 46.8 63.65 47.35 63.2 47.85 62.9 48.55 62.65 49.25 62.65 50.1 62.65 50.95 62.9 51.6 63.2 52.3 63.65 52.85 64.1 53.35 64.7 53.65 65.3 53.95 66.05 53.95 66.85 53.95 67.45 53.6 68.1 53.25 68.5 52.65
L 70.7 54.3
Q 69.9 55.35 68.75 55.85 67.6 56.35 66.35 56.35 64.95 56.35 63.8 55.9 62.6 55.45 61.75 54.65 60.9 53.85 60.4 52.7 59.95 51.5 59.95 50.1 59.95 48.65 60.4 47.5 60.9 46.35 61.75 45.5
M 80.45 46.45
L 77.05 46.45 77.05 56.05 74.4 56.05 74.4 46.45 71 46.45 71 44.1 80.45 44.1 80.45 46.45
M 22.95 44.05
Q 23.8 43.8 24.65 43.8 25.65 43.8 26.6 44.1 27.55 44.4 28.3 45.05
L 26.5 47.05
Q 26.2 46.65 25.65 46.45 25.1 46.25 24.6 46.25 24.3 46.25 24 46.3 23.7 46.4 23.45 46.5 23.2 46.65 23 46.9 22.85 47.15 22.85 47.5 22.85 48 23.25 48.3 23.65 48.6 24.25 48.8 24.9 49 25.6 49.2 26.3 49.4 26.9 49.75 27.55 50.15 27.95 50.75 28.35 51.4 28.35 52.45 28.35 53.45 27.95 54.15 27.6 54.9 26.95 55.4 26.35 55.9 25.5 56.1 24.65 56.35 23.75 56.35 22.6 56.35 21.6 56 20.6 55.65 19.75 54.85
L 21.6 52.8
Q 22 53.35 22.6 53.65 23.25 53.95 23.9 53.95 24.2 53.95 24.55 53.85 24.85 53.8 25.15 53.6 25.4 53.5 25.55 53.25 25.7 53 25.7 52.7 25.7 52.15 25.3 51.85 24.9 51.5 24.25 51.3 23.65 51.1 22.9 50.85 22.2 50.65 21.55 50.3 20.95 49.9 20.5 49.3 20.1 48.7 20.1 47.7 20.1 46.75 20.5 46 20.85 45.3 21.5 44.8 22.15 44.3 22.95 44.05
M 33 48.75
L 38.15 48.75 38.15 51.2 33 51.2 33 53.6 38.75 53.6 38.75 56.05 30.35 56.05 30.35 44.1 38.45 44.1 38.45 46.55 33 46.55 33 48.75 Z"/>

<path fill="#D6D6D6" stroke="none" d="
M 38.15 48.75
L 33 48.75 33 46.55 38.45 46.55 38.45 44.1 30.35 44.1 30.35 56.05 38.75 56.05 38.75 53.6 33 53.6 33 51.2 38.15 51.2 38.15 48.75
M 24.65 43.8
Q 23.8 43.8 22.95 44.05 22.15 44.3 21.5 44.8 20.85 45.3 20.5 46 20.1 46.75 20.1 47.7 20.1 48.7 20.5 49.3 20.95 49.9 21.55 50.3 22.2 50.65 22.9 50.85 23.65 51.1 24.25 51.3 24.9 51.5 25.3 51.85 25.7 52.15 25.7 52.7 25.7 53 25.55 53.25 25.4 53.5 25.15 53.6 24.85 53.8 24.55 53.85 24.2 53.95 23.9 53.95 23.25 53.95 22.6 53.65 22 53.35 21.6 52.8
L 19.75 54.85
Q 20.6 55.65 21.6 56 22.6 56.35 23.75 56.35 24.65 56.35 25.5 56.1 26.35 55.9 26.95 55.4 27.6 54.9 27.95 54.15 28.35 53.45 28.35 52.45 28.35 51.4 27.95 50.75 27.55 50.15 26.9 49.75 26.3 49.4 25.6 49.2 24.9 49 24.25 48.8 23.65 48.6 23.25 48.3 22.85 48 22.85 47.5 22.85 47.15 23 46.9 23.2 46.65 23.45 46.5 23.7 46.4 24 46.3 24.3 46.25 24.6 46.25 25.1 46.25 25.65 46.45 26.2 46.65 26.5 47.05
L 28.3 45.05
Q 27.55 44.4 26.6 44.1 25.65 43.8 24.65 43.8
M 77.05 46.45
L 80.45 46.45 80.45 44.1 71 44.1 71 46.45 74.4 46.45 74.4 56.05 77.05 56.05 77.05 46.45
M 63.8 44.25
Q 62.6 44.7 61.75 45.5 60.9 46.35 60.4 47.5 59.95 48.65 59.95 50.1 59.95 51.5 60.4 52.7 60.9 53.85 61.75 54.65 62.6 55.45 63.8 55.9 64.95 56.35 66.35 56.35 67.6 56.35 68.75 55.85 69.9 55.35 70.7 54.3
L 68.5 52.65
Q 68.1 53.25 67.45 53.6 66.85 53.95 66.05 53.95 65.3 53.95 64.7 53.65 64.1 53.35 63.65 52.85 63.2 52.3 62.9 51.6 62.65 50.95 62.65 50.1 62.65 49.25 62.9 48.55 63.2 47.85 63.65 47.35 64.1 46.8 64.75 46.55 65.35 46.25 66.1 46.25 66.85 46.25 67.4 46.5 68 46.75 68.35 47.2
L 70.4 45.55
Q 70 45.1 69.5 44.75 69 44.4 68.5 44.2 67.95 44 67.4 43.9 66.85 43.8 66.35 43.8 64.95 43.8 63.8 44.25
M 52.65 46.55
L 58.1 46.55 58.1 44.1 50 44.1 50 56.05 58.4 56.05 58.4 53.6 52.65 53.6 52.65 51.2 57.8 51.2 57.8 48.75 52.65 48.75 52.65 46.55
M 43.65 44.1
L 41 44.1 41 56.05 48.5 56.05 48.5 53.6 43.65 53.6 43.65 44.1 Z"/>
</g>

<g id="Layer34_0_FILL">
<path fill="#D6D6D6" stroke="none" d="
M 82.25 82.25
Q 95.65 68.9 95.65 50 95.65 31.1 82.25 17.7 68.9 4.35 50 4.35 31.1 4.35 17.7 17.7 4.35 31.1 4.35 50 4.35 68.9 17.7 82.25 31.1 95.65 50 95.65 68.9 95.65 82.25 82.25
M 50 9.05
Q 67 9.05 78.9 21 90.95 33.05 90.95 50 90.95 67 78.9 78.9 67 90.95 50 90.95 33.05 90.95 21 78.9 9.05 67 9.05 50 9.05 33.05 21 21 33.05 9.05 50 9.05
M 59.35 41.5
Q 58.6 40.05 57.3 39.2 56.05 38.35 54.35 38 52.65 37.6 50.75 37.6
L 41.2 37.6 41.2 62.4 46.65 62.4 46.65 52.5 49.3 52.5 54.5 62.4 61.05 62.4 54.75 51.9
Q 57.35 51.45 58.75 49.6 60.1 47.75 60.1 45.15 60.1 42.95 59.35 41.5
M 49.85 47.85
L 46.65 47.85 46.65 42.25 50.2 42.25
Q 50.95 42.25 51.7 42.35 52.45 42.45 53.05 42.75 53.65 43.05 54.05 43.6 54.4 44.15 54.4 45.1 54.4 46.15 54 46.7 53.55 47.25 52.9 47.5 52.2 47.75 51.4 47.8 50.6 47.85 49.85 47.85 Z"/>

<path fill="#353535" stroke="none" d="
M 78.9 21
Q 67 9.05 50 9.05 33.05 9.05 21 21 9.05 33.05 9.05 50 9.05 67 21 78.9 33.05 90.95 50 90.95 67 90.95 78.9 78.9 90.95 67 90.95 50 90.95 33.05 78.9 21
M 50.05 17.45
Q 63.5 17.45 73.05 27 82.6 36.55 82.6 50.05 82.6 63.5 73.05 73.05 63.5 82.6 50.05 82.6 36.55 82.6 27 73.05 17.45 63.5 17.45 50.05 17.45 36.55 27 27 36.55 17.45 50.05 17.45
M 73.05 27
Q 63.5 17.45 50.05 17.45 36.55 17.45 27 27 17.45 36.55 17.45 50.05 17.45 63.5 27 73.05 36.55 82.6 50.05 82.6 63.5 82.6 73.05 73.05 82.6 63.5 82.6 50.05 82.6 36.55 73.05 27
M 50 26.25
Q 59.8 26.25 66.75 33.2 73.75 40.2 73.75 50 73.75 59.8 66.75 66.75 59.8 73.75 50 73.75 40.2 73.75 33.2 66.75 26.25 59.8 26.25 50 26.25 40.2 33.2 33.2 40.2 26.25 50 26.25 Z"/>

<path fill="#4B4B4B" stroke="none" d="
M 66.75 33.2
Q 59.8 26.25 50 26.25 40.2 26.25 33.2 33.2 26.25 40.2 26.25 50 26.25 59.8 33.2 66.75 40.2 73.75 50 73.75 59.8 73.75 66.75 66.75 73.75 59.8 73.75 50 73.75 40.2 66.75 33.2
M 57.3 39.2
Q 58.6 40.05 59.35 41.5 60.1 42.95 60.1 45.15 60.1 47.75 58.75 49.6 57.35 51.45 54.75 51.9
L 61.05 62.4 54.5 62.4 49.3 52.5 46.65 52.5 46.65 62.4 41.2 62.4 41.2 37.6 50.75 37.6
Q 52.65 37.6 54.35 38 56.05 38.35 57.3 39.2
M 46.65 47.85
L 49.85 47.85
Q 50.6 47.85 51.4 47.8 52.2 47.75 52.9 47.5 53.55 47.25 54 46.7 54.4 46.15 54.4 45.1 54.4 44.15 54.05 43.6 53.65 43.05 53.05 42.75 52.45 42.45 51.7 42.35 50.95 42.25 50.2 42.25
L 46.65 42.25 46.65 47.85 Z"/>
</g>

<g id="Layer33_0_FILL">
<path fill="#D6D6D6" stroke="none" d="
M 82.25 82.25
Q 95.65 68.9 95.65 50 95.65 31.1 82.25 17.7 68.9 4.35 50 4.35 31.1 4.35 17.7 17.7 4.35 31.1 4.35 50 4.35 68.9 17.7 82.25 31.1 95.65 50 95.65 68.9 95.65 82.25 82.25
M 50 9.05
Q 67 9.05 78.9 21 90.95 33.05 90.95 50 90.95 67 78.9 78.9 67 90.95 50 90.95 33.05 90.95 21 78.9 9.05 67 9.05 50 9.05 33.05 21 21 33.05 9.05 50 9.05
M 48.8 37.05
L 43.35 37.05 43.35 61.85 58.9 61.85 58.9 56.8 48.8 56.8 48.8 37.05 Z"/>

<path fill="#353535" stroke="none" d="
M 78.9 21
Q 67 9.05 50 9.05 33.05 9.05 21 21 9.05 33.05 9.05 50 9.05 67 21 78.9 33.05 90.95 50 90.95 67 90.95 78.9 78.9 90.95 67 90.95 50 90.95 33.05 78.9 21
M 50.05 17.45
Q 63.5 17.45 73.05 27 82.6 36.55 82.6 50.05 82.6 63.5 73.05 73.05 63.5 82.6 50.05 82.6 36.55 82.6 27 73.05 17.45 63.5 17.45 50.05 17.45 36.55 27 27 36.55 17.45 50.05 17.45
M 73.05 27
Q 63.5 17.45 50.05 17.45 36.55 17.45 27 27 17.45 36.55 17.45 50.05 17.45 63.5 27 73.05 36.55 82.6 50.05 82.6 63.5 82.6 73.05 73.05 82.6 63.5 82.6 50.05 82.6 36.55 73.05 27
M 50 26.25
Q 59.8 26.25 66.75 33.2 73.75 40.2 73.75 50 73.75 59.8 66.75 66.75 59.8 73.75 50 73.75 40.2 73.75 33.2 66.75 26.25 59.8 26.25 50 26.25 40.2 33.2 33.2 40.2 26.25 50 26.25 Z"/>

<path fill="#4B4B4B" stroke="none" d="
M 66.75 33.2
Q 59.8 26.25 50 26.25 40.2 26.25 33.2 33.2 26.25 40.2 26.25 50 26.25 59.8 33.2 66.75 40.2 73.75 50 73.75 59.8 73.75 66.75 66.75 73.75 59.8 73.75 50 73.75 40.2 66.75 33.2
M 43.35 37.05
L 48.8 37.05 48.8 56.8 58.9 56.8 58.9 61.85 43.35 61.85 43.35 37.05 Z"/>
</g>

<g id="Layer32_0_FILL">
<path fill="#202020" stroke="none" d="
M 78.55 21.4
L 78.6 21.4
Q 66.8 9.6 50 9.6 33.25 9.6 21.35 21.4 9.55 33.25 9.55 50 9.55 66.75 21.35 78.6
L 21.35 78.65
Q 33.25 90.45 50 90.45 66.75 90.45 78.55 78.65
L 78.6 78.6
Q 90.45 66.75 90.45 50 90.45 33.2 78.55 21.4
M 50 13.6
Q 65.1 13.6 75.75 24.25 86.45 34.9 86.45 50 86.45 65.1 75.75 75.8 65.1 86.45 50 86.45 34.9 86.45 24.2 75.8
L 24.15 75.8
Q 13.55 65.1 13.55 50 13.55 34.9 24.15 24.25
L 24.2 24.2
Q 34.9 13.6 50 13.6 Z"/>

<path fill="#353535" stroke="none" d="
M 75.75 24.25
Q 65.1 13.6 50 13.6 34.9 13.6 24.2 24.2
L 24.15 24.25
Q 13.55 34.9 13.55 50 13.55 65.1 24.15 75.8
L 24.2 75.8
Q 34.9 86.45 50 86.45 65.1 86.45 75.75 75.8 86.45 65.1 86.45 50 86.45 34.9 75.75 24.25
M 73.3 26.6
L 73.35 26.6
Q 83 36.25 83 50 83 63.65 73.35 73.35 63.65 83 50 83 36.25 83 26.6 73.35
L 26.6 73.3
Q 17 63.6 17 50 17 36.3 26.6 26.6 36.3 17 50 17 63.6 17 73.3 26.6 Z"/>

<path fill="#616161" stroke="none" d="
M 73.35 26.6
L 73.3 26.6
Q 63.6 17 50 17 36.3 17 26.6 26.6 17 36.3 17 50 17 63.6 26.6 73.3
L 26.6 73.35
Q 36.25 83 50 83 63.65 83 73.35 73.35 83 63.65 83 50 83 36.25 73.35 26.6
M 50 20
Q 62.4 20 71.15 28.75 79.95 37.5 79.95 50 79.95 62.35 71.15 71.15 62.35 79.95 50 79.95 37.5 79.95 28.75 71.15 20 62.4 20 50 20 37.5 28.7 28.75
L 28.75 28.7
Q 37.5 20 50 20 Z"/>

<path fill="#535353" stroke="none" d="
M 71.15 28.75
Q 62.4 20 50 20 37.5 20 28.75 28.7
L 28.7 28.75
Q 20 37.5 20 50 20 62.4 28.75 71.15 37.5 79.95 50 79.95 62.35 79.95 71.15 71.15 79.95 62.35 79.95 50 79.95 37.5 71.15 28.75
M 50 50
L 63 63 50 50 37 63 50 50 37.05 37.05 50 50 62.95 37.05 50 50 Z"/>
</g>

<g id="Layer31_0_FILL">
<path fill="#202020" stroke="none" d="
M 78.55 21.4
L 78.6 21.4
Q 66.8 9.6 50 9.6 33.25 9.6 21.35 21.4 9.55 33.25 9.55 50 9.55 66.75 21.35 78.6
L 21.35 78.65
Q 33.25 90.45 50 90.45 66.75 90.45 78.55 78.65
L 78.6 78.6
Q 90.45 66.75 90.45 50 90.45 33.2 78.55 21.4
M 50 13.6
Q 65.1 13.6 75.75 24.25 86.45 34.9 86.45 50 86.45 65.1 75.75 75.8 65.1 86.45 50 86.45 34.9 86.45 24.2 75.8
L 24.15 75.8
Q 13.55 65.1 13.55 50 13.55 34.9 24.15 24.25
L 24.2 24.2
Q 34.9 13.6 50 13.6 Z"/>

<path fill="#353535" stroke="none" d="
M 75.75 24.25
Q 65.1 13.6 50 13.6 34.9 13.6 24.2 24.2
L 24.15 24.25
Q 13.55 34.9 13.55 50 13.55 65.1 24.15 75.8
L 24.2 75.8
Q 34.9 86.45 50 86.45 65.1 86.45 75.75 75.8 86.45 65.1 86.45 50 86.45 34.9 75.75 24.25
M 73.3 26.6
L 73.35 26.6
Q 83 36.25 83 50 83 63.65 73.35 73.35 63.65 83 50 83 36.25 83 26.6 73.35
L 26.6 73.3
Q 17 63.6 17 50 17 36.3 26.6 26.6 36.3 17 50 17 63.6 17 73.3 26.6 Z"/>

<path fill="#626262" stroke="none" d="
M 73.35 26.6
L 73.3 26.6
Q 63.6 17 50 17 36.3 17 26.6 26.6 17 36.3 17 50 17 63.6 26.6 73.3
L 26.6 73.35
Q 36.25 83 50 83 63.65 83 73.35 73.35 83 63.65 83 50 83 36.25 73.35 26.6
M 50 20
Q 62.4 20 71.15 28.75 79.95 37.5 79.95 50 79.95 62.35 71.15 71.15 62.35 79.95 50 79.95 37.5 79.95 28.75 71.15 20 62.4 20 50 20 37.5 28.7 28.75
L 28.75 28.7
Q 37.5 20 50 20 Z"/>

<path fill="#535353" stroke="none" d="
M 71.15 28.75
Q 62.4 20 50 20 37.5 20 28.75 28.7
L 28.7 28.75
Q 20 37.5 20 50 20 62.4 28.75 71.15 37.5 79.95 50 79.95 62.35 79.95 71.15 71.15 79.95 62.35 79.95 50 79.95 37.5 71.15 28.75
M 65.1 65.1
L 34.95 65.1 34.95 34.95 65.1 34.95 65.1 65.1
M 34.95 65.1
L 65.1 65.1 65.1 34.95 34.95 34.95 34.95 65.1 Z"/>
</g>

<g id="Layer30_0_FILL">
<path fill="#202020" stroke="none" d="
M 78.55 21.4
L 78.6 21.4
Q 66.8 9.6 50 9.6 33.25 9.6 21.35 21.4 9.55 33.25 9.55 50 9.55 66.75 21.35 78.6
L 21.35 78.65
Q 33.25 90.45 50 90.45 66.75 90.45 78.55 78.65
L 78.6 78.6
Q 90.45 66.75 90.45 50 90.45 33.2 78.55 21.4
M 50 13.6
Q 65.1 13.6 75.75 24.25 86.45 34.9 86.45 50 86.45 65.1 75.75 75.8 65.1 86.45 50 86.45 34.9 86.45 24.2 75.8
L 24.15 75.8
Q 13.55 65.1 13.55 50 13.55 34.9 24.15 24.25
L 24.2 24.2
Q 34.9 13.6 50 13.6 Z"/>

<path fill="#353535" stroke="none" d="
M 75.75 24.25
Q 65.1 13.6 50 13.6 34.9 13.6 24.2 24.2
L 24.15 24.25
Q 13.55 34.9 13.55 50 13.55 65.1 24.15 75.8
L 24.2 75.8
Q 34.9 86.45 50 86.45 65.1 86.45 75.75 75.8 86.45 65.1 86.45 50 86.45 34.9 75.75 24.25
M 73.3 26.6
L 73.35 26.6
Q 83 36.25 83 50 83 63.65 73.35 73.35 63.65 83 50 83 36.25 83 26.6 73.35
L 26.6 73.3
Q 17 63.6 17 50 17 36.3 26.6 26.6 36.3 17 50 17 63.6 17 73.3 26.6 Z"/>

<path fill="#616161" stroke="none" d="
M 73.35 26.6
L 73.3 26.6
Q 63.6 17 50 17 36.3 17 26.6 26.6 17 36.3 17 50 17 63.6 26.6 73.3
L 26.6 73.35
Q 36.25 83 50 83 63.65 83 73.35 73.35 83 63.65 83 50 83 36.25 73.35 26.6
M 50 20
Q 62.4 20 71.15 28.75 79.95 37.5 79.95 50 79.95 62.35 71.15 71.15 62.35 79.95 50 79.95 37.5 79.95 28.75 71.15 20 62.4 20 50 20 37.5 28.7 28.75
L 28.75 28.7
Q 37.5 20 50 20 Z"/>

<path fill="#535353" stroke="none" d="
M 71.15 28.75
Q 62.4 20 50 20 37.5 20 28.75 28.7
L 28.7 28.75
Q 20 37.5 20 50 20 62.4 28.75 71.15 37.5 79.95 50 79.95 62.35 79.95 71.15 71.15 79.95 62.35 79.95 50 79.95 37.5 71.15 28.75
M 50 31.05
L 67.05 62.3 32.95 62.3 50 31.05
M 67.05 62.3
L 50 31.05 32.95 62.3 67.05 62.3 Z"/>
</g>

<g id="Layer29_0_FILL">
<path fill="#202020" stroke="none" d="
M 78.55 21.4
L 78.6 21.4
Q 66.8 9.6 50 9.6 33.25 9.6 21.35 21.4 9.55 33.25 9.55 50 9.55 66.75 21.35 78.6
L 21.35 78.65
Q 33.25 90.45 50 90.45 66.75 90.45 78.55 78.65
L 78.6 78.6
Q 90.45 66.75 90.45 50 90.45 33.2 78.55 21.4
M 50 13.6
Q 65.1 13.6 75.75 24.25 86.45 34.9 86.45 50 86.45 65.1 75.75 75.8 65.1 86.45 50 86.45 34.9 86.45 24.2 75.8
L 24.15 75.8
Q 13.55 65.1 13.55 50 13.55 34.9 24.15 24.25
L 24.2 24.2
Q 34.9 13.6 50 13.6 Z"/>

<path fill="#353535" stroke="none" d="
M 75.75 24.25
Q 65.1 13.6 50 13.6 34.9 13.6 24.2 24.2
L 24.15 24.25
Q 13.55 34.9 13.55 50 13.55 65.1 24.15 75.8
L 24.2 75.8
Q 34.9 86.45 50 86.45 65.1 86.45 75.75 75.8 86.45 65.1 86.45 50 86.45 34.9 75.75 24.25
M 73.3 26.6
L 73.35 26.6
Q 83 36.25 83 50 83 63.65 73.35 73.35 63.65 83 50 83 36.25 83 26.6 73.35
L 26.6 73.3
Q 17 63.6 17 50 17 36.3 26.6 26.6 36.3 17 50 17 63.6 17 73.3 26.6 Z"/>

<path fill="#616161" stroke="none" d="
M 73.35 26.6
L 73.3 26.6
Q 63.6 17 50 17 36.3 17 26.6 26.6 17 36.3 17 50 17 63.6 26.6 73.3
L 26.6 73.35
Q 36.25 83 50 83 63.65 83 73.35 73.35 83 63.65 83 50 83 36.25 73.35 26.6
M 50 20
Q 62.4 20 71.15 28.75 79.95 37.5 79.95 50 79.95 62.35 71.15 71.15 62.35 79.95 50 79.95 37.5 79.95 28.75 71.15 20 62.4 20 50 20 37.5 28.7 28.75
L 28.75 28.7
Q 37.5 20 50 20 Z"/>

<path fill="#535353" stroke="none" d="
M 71.15 28.75
Q 62.4 20 50 20 37.5 20 28.75 28.7
L 28.7 28.75
Q 20 37.5 20 50 20 62.4 28.75 71.15 37.5 79.95 50 79.95 62.35 79.95 71.15 71.15 79.95 62.35 79.95 50 79.95 37.5 71.15 28.75
M 50 30.25
Q 58.2 30.25 63.95 36.05 69.75 41.85 69.75 50 69.75 58.2 63.95 63.95 58.2 69.75 50 69.75 41.85 69.75 36.05 63.95 30.25 58.2 30.25 50 30.25 41.85 36.05 36.05 41.85 30.25 50 30.25
M 63.95 36.05
Q 58.2 30.25 50 30.25 41.85 30.25 36.05 36.05 30.25 41.85 30.25 50 30.25 58.2 36.05 63.95 41.85 69.75 50 69.75 58.2 69.75 63.95 63.95 69.75 58.2 69.75 50 69.75 41.85 63.95 36.05 Z"/>
</g>

<g id="Layer28_0_FILL">
<path fill="#353535" stroke="none" d="
M 34.55 70.15
L 34.55 92.75
Q 50.05 96.65 65.5 92.75
L 65.5 70.15 50.1 54.6 34.55 70.15
M 49 64.2
Q 49.45 63.75 50.05 63.75 50.65 63.75 51.1 64.2
L 59.05 72.15
Q 59.5 72.6 59.5 73.2
L 59.5 86.6
Q 59.5 87.15 59.15 87.55 58.75 88 58.25 88.05 50.05 89.3 41.85 88.05 41.3 88 40.95 87.55 40.55 87.15 40.55 86.6
L 40.55 73.25
Q 40.55 72.65 41 72.2
L 49 64.2
M 30 34.5
L 7.25 34.5
Q 3.35 49.95 7.25 65.45
L 29.85 65.45 45.4 49.9 30 34.5
M 13.4 40.5
L 26.9 40.5
Q 27.55 40.5 28 40.95
L 35.85 48.85
Q 36.3 49.3 36.3 49.9 36.25 50.55 35.85 50.95
L 27.8 59
Q 27.35 59.45 26.75 59.45
L 13.4 59.45
Q 12.85 59.45 12.45 59.05 12 58.7 11.95 58.15 10.7 49.95 11.95 41.75 12 41.25 12.45 40.85 12.85 40.5 13.4 40.5
M 70.2 34.5
L 65.5 29.8 50 45.3 34.55 29.95 30 34.5 45.4 49.9 29.85 65.45 34.55 70.15 50.1 54.6 65.5 70.15 70.2 65.45 54.7 50 70.2 34.5
M 92.75 65.45
Q 96.65 49.95 92.75 34.5
L 70.2 34.5 54.7 50 70.2 65.45 92.75 65.45
M 86.6 40.5
Q 87.15 40.5 87.6 40.85 88 41.25 88.1 41.75 89.3 49.95 88.1 58.15 88 58.7 87.6 59.05 87.15 59.45 86.6 59.45
L 73.3 59.45
Q 72.7 59.45 72.25 59
L 64.25 51.05
Q 63.8 50.65 63.8 50 63.8 49.4 64.25 48.95
L 72.25 40.95
Q 72.7 40.5 73.3 40.5
L 86.6 40.5 Z"/>

<path fill="#535353" stroke="none" d="
M 50.05 63.75
Q 49.45 63.75 49 64.2
L 41 72.2
Q 40.55 72.65 40.55 73.25
L 40.55 86.6
Q 40.55 87.15 40.95 87.55 41.3 88 41.85 88.05 50.05 89.3 58.25 88.05 58.75 88 59.15 87.55 59.5 87.15 59.5 86.6
L 59.5 73.2
Q 59.5 72.6 59.05 72.15
L 51.1 64.2
Q 50.65 63.75 50.05 63.75
M 45.5 76.6
L 54.5 76.6 50.05 82.8 45.5 76.6
M 26.9 40.5
L 13.4 40.5
Q 12.85 40.5 12.45 40.85 12 41.25 11.95 41.75 10.7 49.95 11.95 58.15 12 58.7 12.45 59.05 12.85 59.45 13.4 59.45
L 26.75 59.45
Q 27.35 59.45 27.8 59
L 35.85 50.95
Q 36.25 50.55 36.3 49.9 36.3 49.3 35.85 48.85
L 28 40.95
Q 27.55 40.5 26.9 40.5
M 23.4 54.5
L 17.2 50.05 23.4 45.5 23.4 54.5
M 87.6 40.85
Q 87.15 40.5 86.6 40.5
L 73.3 40.5
Q 72.7 40.5 72.25 40.95
L 64.25 48.95
Q 63.8 49.4 63.8 50 63.8 50.65 64.25 51.05
L 72.25 59
Q 72.7 59.45 73.3 59.45
L 86.6 59.45
Q 87.15 59.45 87.6 59.05 88 58.7 88.1 58.15 89.3 49.95 88.1 41.75 88 41.25 87.6 40.85
M 76.65 54.5
L 76.65 45.5 82.85 50.05 76.65 54.5 Z"/>

<path fill="#D6D6D6" stroke="none" d="
M 54.5 76.6
L 45.5 76.6 50.05 82.8 54.5 76.6
M 17.2 50.05
L 23.4 54.5 23.4 45.5 17.2 50.05
M 76.65 45.5
L 76.65 54.5 82.85 50.05 76.65 45.5 Z"/>

<path fill="#D7D7D7" stroke="none" d="
M 65.5 29.8
L 65.5 7.25
Q 50.05 3.35 34.55 7.25
L 34.55 29.95 50 45.3 65.5 29.8
M 40.55 13.4
Q 40.55 12.85 40.95 12.4 41.3 12 41.85 11.9 50.05 10.7 58.25 11.9 58.75 12 59.15 12.4 59.5 12.85 59.5 13.4
L 59.5 26.7
Q 59.5 27.3 59.05 27.75
L 51.05 35.75
Q 50.6 36.2 50 36.2 49.35 36.2 48.95 35.75
L 41 27.85
Q 40.55 27.45 40.55 26.8
L 40.55 13.4 Z"/>

<path fill="#F5F5F5" stroke="none" d="
M 40.95 12.4
Q 40.55 12.85 40.55 13.4
L 40.55 26.8
Q 40.55 27.45 41 27.85
L 48.95 35.75
Q 49.35 36.2 50 36.2 50.6 36.2 51.05 35.75
L 59.05 27.75
Q 59.5 27.3 59.5 26.7
L 59.5 13.4
Q 59.5 12.85 59.15 12.4 58.75 12 58.25 11.9 50.05 10.7 41.85 11.9 41.3 12 40.95 12.4
M 50.05 17.15
L 54.5 23.35 45.5 23.35 50.05 17.15 Z"/>

<path fill="#616161" stroke="none" d="
M 54.5 23.35
L 50.05 17.15 45.5 23.35 54.5 23.35 Z"/>
</g>

<g id="Layer27_0_FILL">
<path fill="#353535" stroke="none" d="
M 34.5 70
L 34.5 92.75
Q 49.95 96.65 65.45 92.75
L 65.45 70.15 49.9 54.6 34.5 70
M 40.95 72
L 48.85 64.15
Q 49.3 63.7 49.9 63.7 50.55 63.75 50.95 64.15
L 59 72.2
Q 59.45 72.65 59.45 73.25
L 59.45 86.6
Q 59.45 87.15 59.05 87.55 58.7 88 58.15 88.05 49.95 89.3 41.75 88.05 41.25 88 40.85 87.55 40.5 87.15 40.5 86.6
L 40.5 73.1
Q 40.5 72.45 40.95 72
M 50 45.3
L 65.45 29.8 65.45 7.25
Q 49.95 3.35 34.5 7.25
L 34.5 29.8 50 45.3
M 40.5 13.4
Q 40.5 12.85 40.85 12.4 41.25 12 41.75 11.9 49.95 10.7 58.15 11.9 58.7 12 59.05 12.4 59.45 12.85 59.45 13.4
L 59.45 26.7
Q 59.45 27.3 59 27.75
L 51.05 35.75
Q 50.65 36.2 50 36.2 49.4 36.2 48.95 35.75
L 40.95 27.75
Q 40.5 27.3 40.5 26.7
L 40.5 13.4
M 70.15 34.5
L 65.45 29.8 50 45.3 34.5 29.8 29.8 34.5 45.3 50 29.95 65.45 34.5 70 49.9 54.6 65.45 70.15 70.15 65.45 54.6 49.9 70.15 34.5
M 92.75 65.45
Q 96.65 49.95 92.75 34.5
L 70.15 34.5 54.6 49.9 70.15 65.45 92.75 65.45
M 87.55 40.85
Q 88 41.25 88.05 41.75 89.3 49.95 88.05 58.15 88 58.7 87.55 59.05 87.15 59.45 86.6 59.45
L 73.25 59.45
Q 72.65 59.45 72.2 59
L 64.2 51
Q 63.75 50.55 63.75 49.95 63.75 49.35 64.2 48.9
L 72.15 40.95
Q 72.6 40.5 73.2 40.5
L 86.6 40.5
Q 87.15 40.5 87.55 40.85 Z"/>

<path fill="#535353" stroke="none" d="
M 48.85 64.15
L 40.95 72
Q 40.5 72.45 40.5 73.1
L 40.5 86.6
Q 40.5 87.15 40.85 87.55 41.25 88 41.75 88.05 49.95 89.3 58.15 88.05 58.7 88 59.05 87.55 59.45 87.15 59.45 86.6
L 59.45 73.25
Q 59.45 72.65 59 72.2
L 50.95 64.15
Q 50.55 63.75 49.9 63.7 49.3 63.7 48.85 64.15
M 54.5 76.6
L 50.05 82.8 45.5 76.6 54.5 76.6
M 40.85 12.4
Q 40.5 12.85 40.5 13.4
L 40.5 26.7
Q 40.5 27.3 40.95 27.75
L 48.95 35.75
Q 49.4 36.2 50 36.2 50.65 36.2 51.05 35.75
L 59 27.75
Q 59.45 27.3 59.45 26.7
L 59.45 13.4
Q 59.45 12.85 59.05 12.4 58.7 12 58.15 11.9 49.95 10.7 41.75 11.9 41.25 12 40.85 12.4
M 50.05 17.15
L 54.5 23.35 45.5 23.35 50.05 17.15
M 88.05 41.75
Q 88 41.25 87.55 40.85 87.15 40.5 86.6 40.5
L 73.2 40.5
Q 72.6 40.5 72.15 40.95
L 64.2 48.9
Q 63.75 49.35 63.75 49.95 63.75 50.55 64.2 51
L 72.2 59
Q 72.65 59.45 73.25 59.45
L 86.6 59.45
Q 87.15 59.45 87.55 59.05 88 58.7 88.05 58.15 89.3 49.95 88.05 41.75
M 76.6 54.5
L 76.6 45.5 82.8 49.95 76.6 54.5 Z"/>

<path fill="#D6D6D6" stroke="none" d="
M 50.05 82.8
L 54.5 76.6 45.5 76.6 50.05 82.8
M 54.5 23.35
L 50.05 17.15 45.5 23.35 54.5 23.35
M 76.6 45.5
L 76.6 54.5 82.8 49.95 76.6 45.5 Z"/>

<path fill="#D7D7D7" stroke="none" d="
M 29.8 34.5
L 7.25 34.5
Q 3.35 49.95 7.25 65.45
L 29.95 65.45 45.3 50 29.8 34.5
M 13.4 40.5
L 26.7 40.5
Q 27.3 40.5 27.75 40.95
L 35.75 48.95
Q 36.2 49.4 36.2 50 36.2 50.65 35.75 51.05
L 27.85 59
Q 27.45 59.45 26.8 59.45
L 13.4 59.45
Q 12.85 59.45 12.4 59.05 12 58.7 11.9 58.15 10.7 49.95 11.9 41.75 12 41.25 12.4 40.85 12.85 40.5 13.4 40.5 Z"/>

<path fill="#F5F5F5" stroke="none" d="
M 26.7 40.5
L 13.4 40.5
Q 12.85 40.5 12.4 40.85 12 41.25 11.9 41.75 10.7 49.95 11.9 58.15 12 58.7 12.4 59.05 12.85 59.45 13.4 59.45
L 26.8 59.45
Q 27.45 59.45 27.85 59
L 35.75 51.05
Q 36.2 50.65 36.2 50 36.2 49.4 35.75 48.95
L 27.75 40.95
Q 27.3 40.5 26.7 40.5
M 23.35 54.5
L 17.15 49.95 23.35 45.5 23.35 54.5 Z"/>

<path fill="#616161" stroke="none" d="
M 17.15 49.95
L 23.35 54.5 23.35 45.5 17.15 49.95 Z"/>
</g>

<g id="Layer26_0_FILL">
<path fill="#D7D7D7" stroke="none" d="
M 34.5 70.2
L 34.5 92.75
Q 49.95 96.65 65.45 92.75
L 65.45 70.05 50 54.7 34.5 70.2
M 50 63.8
Q 50.65 63.8 51.05 64.25
L 59 72.15
Q 59.45 72.55 59.45 73.2
L 59.45 86.6
Q 59.45 87.15 59.05 87.6 58.7 88 58.15 88.1 49.95 89.3 41.75 88.1 41.25 88 40.85 87.6 40.5 87.15 40.5 86.6
L 40.5 73.3
Q 40.5 72.7 40.95 72.25
L 48.95 64.25
Q 49.4 63.8 50 63.8 Z"/>

<path fill="#F5F5F5" stroke="none" d="
M 51.05 64.25
Q 50.65 63.8 50 63.8 49.4 63.8 48.95 64.25
L 40.95 72.25
Q 40.5 72.7 40.5 73.3
L 40.5 86.6
Q 40.5 87.15 40.85 87.6 41.25 88 41.75 88.1 49.95 89.3 58.15 88.1 58.7 88 59.05 87.6 59.45 87.15 59.45 86.6
L 59.45 73.2
Q 59.45 72.55 59 72.15
L 51.05 64.25
M 54.5 76.65
L 49.95 82.85 45.5 76.65 54.5 76.65 Z"/>

<path fill="#616161" stroke="none" d="
M 49.95 82.85
L 54.5 76.65 45.5 76.65 49.95 82.85 Z"/>

<path fill="#353535" stroke="none" d="
M 29.8 34.55
L 7.25 34.55
Q 3.35 50.05 7.25 65.5
L 29.8 65.5 45.3 50 29.8 34.55
M 13.4 40.55
L 26.7 40.55
Q 27.3 40.55 27.75 41
L 35.75 48.95
Q 36.2 49.35 36.2 50 36.2 50.6 35.75 51.05
L 27.75 59.05
Q 27.3 59.5 26.7 59.5
L 13.4 59.5
Q 12.85 59.5 12.4 59.15 12 58.75 11.9 58.25 10.7 50.05 11.9 41.85 12 41.3 12.4 40.95 12.85 40.55 13.4 40.55
M 65.45 29.85
L 65.45 7.25
Q 49.95 3.35 34.5 7.25
L 34.5 29.85 49.9 45.4 65.45 29.85
M 40.5 13.4
Q 40.5 12.85 40.85 12.45 41.25 12 41.75 11.95 49.95 10.7 58.15 11.95 58.7 12 59.05 12.45 59.45 12.85 59.45 13.4
L 59.45 26.75
Q 59.45 27.35 59 27.8
L 51 35.8
Q 50.55 36.25 49.95 36.25 49.35 36.25 48.9 35.8
L 40.95 27.85
Q 40.5 27.4 40.5 26.8
L 40.5 13.4
M 70.15 34.55
L 65.45 29.85 49.9 45.4 34.5 29.85 29.8 34.55 45.3 50 29.8 65.5 34.5 70.2 50 54.7 65.45 70.05 70 65.5 54.6 50.1 70.15 34.55
M 92.75 65.5
Q 96.65 50.05 92.75 34.55
L 70.15 34.55 54.6 50.1 70 65.5 92.75 65.5
M 86.6 40.55
Q 87.15 40.55 87.55 40.95 88 41.3 88.05 41.85 89.3 50.05 88.05 58.25 88 58.75 87.55 59.15 87.15 59.5 86.6 59.5
L 73.1 59.5
Q 72.45 59.5 72 59.05
L 64.15 51.15
Q 63.7 50.7 63.7 50.1 63.75 49.45 64.15 49.05
L 72.2 41
Q 72.65 40.55 73.25 40.55
L 86.6 40.55 Z"/>

<path fill="#535353" stroke="none" d="
M 26.7 40.55
L 13.4 40.55
Q 12.85 40.55 12.4 40.95 12 41.3 11.9 41.85 10.7 50.05 11.9 58.25 12 58.75 12.4 59.15 12.85 59.5 13.4 59.5
L 26.7 59.5
Q 27.3 59.5 27.75 59.05
L 35.75 51.05
Q 36.2 50.6 36.2 50 36.2 49.35 35.75 48.95
L 27.75 41
Q 27.3 40.55 26.7 40.55
M 23.35 54.5
L 17.15 49.95 23.35 45.5 23.35 54.5
M 40.85 12.45
Q 40.5 12.85 40.5 13.4
L 40.5 26.8
Q 40.5 27.4 40.95 27.85
L 48.9 35.8
Q 49.35 36.25 49.95 36.25 50.55 36.25 51 35.8
L 59 27.8
Q 59.45 27.35 59.45 26.75
L 59.45 13.4
Q 59.45 12.85 59.05 12.45 58.7 12 58.15 11.95 49.95 10.7 41.75 11.95 41.25 12 40.85 12.45
M 54.5 23.4
L 45.5 23.4 49.95 17.2 54.5 23.4
M 87.55 40.95
Q 87.15 40.55 86.6 40.55
L 73.25 40.55
Q 72.65 40.55 72.2 41
L 64.15 49.05
Q 63.75 49.45 63.7 50.1 63.7 50.7 64.15 51.15
L 72 59.05
Q 72.45 59.5 73.1 59.5
L 86.6 59.5
Q 87.15 59.5 87.55 59.15 88 58.75 88.05 58.25 89.3 50.05 88.05 41.85 88 41.3 87.55 40.95
M 76.6 54.5
L 76.6 45.5 82.8 49.95 76.6 54.5 Z"/>

<path fill="#D6D6D6" stroke="none" d="
M 17.15 49.95
L 23.35 54.5 23.35 45.5 17.15 49.95
M 45.5 23.4
L 54.5 23.4 49.95 17.2 45.5 23.4
M 76.6 45.5
L 76.6 54.5 82.8 49.95 76.6 45.5 Z"/>
</g>

<g id="Layer25_0_FILL">
<path fill="#353535" stroke="none" d="
M 34.55 70.2
L 34.55 92.75
Q 50.05 96.65 65.5 92.75
L 65.5 70.2 50 54.7 34.55 70.2
M 50 63.8
Q 50.6130859375 63.803515625 51.05 64.25
L 59.05 72.25
Q 59.49453125 72.683984375 59.5 73.3
L 59.5 86.6
Q 59.494921875 87.153515625 59.1 87.55 58.7681640625 87.9951171875 58.2 88.05 50.0330078125 89.2861328125 41.8 88.05 41.281640625 87.9951171875 40.9 87.55 40.555078125 87.153515625 40.55 86.6
L 40.55 73.3
Q 40.54453125 72.6880859375 40.95 72.25
L 48.9 64.25
Q 49.373046875 63.8044921875 50 63.8
M 29.85 34.55
L 7.25 34.55
Q 3.35 50.05 7.25 65.5
L 29.85 65.5 45.35 50.05 29.85 34.55
M 12.4 40.9
Q 12.846484375 40.555078125 13.4 40.55
L 26.75 40.55
Q 27.3658203125 40.5552734375 27.8 41
L 35.8 49
Q 36.2462890625 49.43671875 36.25 50.05 36.244921875 50.6650390625 35.8 51.1
L 27.8 59.05
Q 27.3865234375 59.49375 26.75 59.5
L 13.4 59.5
Q 12.846484375 59.494921875 12.4 59.1 12.0048828125 58.7681640625 11.9 58.2 10.7134765625 50.0330078125 11.9 41.8 12.0048828125 41.281640625 12.4 40.9
M 50.05 45.35
L 65.5 30 65.5 7.25
Q 50.05 3.35 34.55 7.25
L 34.55 29.85 50.05 45.35
M 41.8 11.9
Q 50.0328125 10.7140625 58.2 11.9 58.7681640625 12.0048828125 59.1 12.4 59.494921875 12.846484375 59.5 13.4
L 59.5 26.9
Q 59.4962890625 27.5283203125 59.05 27.95
L 51.1 35.85
Q 50.68828125 36.28125 50.05 36.25 49.4603515625 36.2677734375 49 35.8
L 41 27.8
Q 40.5552734375 27.3658203125 40.55 26.75
L 40.55 13.4
Q 40.555078125 12.8462890625 40.9 12.4 41.281640625 12.0048828125 41.8 11.9
M 70.05 34.55
L 65.5 30 50.05 45.35 34.55 29.85 29.85 34.55 45.35 50.05 29.85 65.5 34.55 70.2 50 54.7 65.5 70.2 65.5 70.15 70.15 65.5 70.2 65.5 54.7 50 70.05 34.55 Z"/>

<path fill="#535353" stroke="none" d="
M 51.05 64.25
Q 50.6130859375 63.803515625 50 63.8 49.373046875 63.8044921875 48.9 64.25
L 40.95 72.25
Q 40.54453125 72.6880859375 40.55 73.3
L 40.55 86.6
Q 40.555078125 87.153515625 40.9 87.55 41.281640625 87.9951171875 41.8 88.05 50.0330078125 89.2861328125 58.2 88.05 58.7681640625 87.9951171875 59.1 87.55 59.494921875 87.153515625 59.5 86.6
L 59.5 73.3
Q 59.49453125 72.683984375 59.05 72.25
L 51.05 64.25
M 45.5 76.65
L 54.5 76.65 49.95 82.85 45.5 76.65
M 13.4 40.55
Q 12.846484375 40.555078125 12.4 40.9 12.0048828125 41.281640625 11.9 41.8 10.7134765625 50.0330078125 11.9 58.2 12.0048828125 58.7681640625 12.4 59.1 12.846484375 59.494921875 13.4 59.5
L 26.75 59.5
Q 27.3865234375 59.49375 27.8 59.05
L 35.8 51.1
Q 36.244921875 50.6650390625 36.25 50.05 36.2462890625 49.43671875 35.8 49
L 27.8 41
Q 27.3658203125 40.5552734375 26.75 40.55
L 13.4 40.55
M 23.4 54.5
L 17.2 50.05 23.4 45.5 23.4 54.5
M 58.2 11.9
Q 50.0328125 10.7140625 41.8 11.9 41.281640625 12.0048828125 40.9 12.4 40.555078125 12.8462890625 40.55 13.4
L 40.55 26.75
Q 40.5552734375 27.3658203125 41 27.8
L 49 35.8
Q 49.4603515625 36.2677734375 50.05 36.25 50.68828125 36.28125 51.1 35.85
L 59.05 27.95
Q 59.4962890625 27.5283203125 59.5 26.9
L 59.5 13.4
Q 59.494921875 12.846484375 59.1 12.4 58.7681640625 12.0048828125 58.2 11.9
M 49.95 17.2
L 54.5 23.4 45.5 23.4 49.95 17.2 Z"/>

<path fill="#D6D6D6" stroke="none" d="
M 54.5 76.65
L 45.5 76.65 49.95 82.85 54.5 76.65
M 17.2 50.05
L 23.4 54.5 23.4 45.5 17.2 50.05
M 54.5 23.4
L 49.95 17.2 45.5 23.4 54.5 23.4 Z"/>

<path fill="#D7D7D7" stroke="none" d="
M 92.75 65.5
Q 96.65 50.05 92.75 34.55
L 70.05 34.55 54.7 50 70.2 65.5 92.75 65.5
M 87.55 40.9
Q 87.9951171875 41.281640625 88.05 41.8 89.2861328125 50.0330078125 88.05 58.2 87.9951171875 58.7681640625 87.55 59.1 87.153515625 59.494921875 86.6 59.5
L 73.3 59.5
Q 72.683984375 59.49453125 72.25 59.05
L 64.2 51
Q 63.78203125 50.5896484375 63.75 49.95 63.78046875 49.3623046875 64.2 48.9
L 72.1 41
Q 72.55859375 40.5544921875 73.15 40.55
L 86.6 40.55
Q 87.153515625 40.555078125 87.55 40.9 Z"/>

<path fill="#F5F5F5" stroke="none" d="
M 88.05 41.8
Q 87.9951171875 41.281640625 87.55 40.9 87.153515625 40.555078125 86.6 40.55
L 73.15 40.55
Q 72.55859375 40.5544921875 72.1 41
L 64.2 48.9
Q 63.78046875 49.3623046875 63.75 49.95 63.78203125 50.5896484375 64.2 51
L 72.25 59.05
Q 72.683984375 59.49453125 73.3 59.5
L 86.6 59.5
Q 87.153515625 59.494921875 87.55 59.1 87.9951171875 58.7681640625 88.05 58.2 89.2861328125 50.0330078125 88.05 41.8
M 76.65 54.5
L 76.65 45.5 82.85 50.05 76.65 54.5 Z"/>

<path fill="#616161" stroke="none" d="
M 76.65 45.5
L 76.65 54.5 82.85 50.05 76.65 45.5 Z"/>
</g>

<g id="Layer24_0_FILL">
<path fill="#353535" stroke="none" d="
M 34.55 70.2
L 34.55 92.75
Q 50.05 96.65 65.5 92.75
L 65.5 70.2 50 54.7 34.55 70.2
M 50 63.8
Q 50.6130859375 63.803515625 51.05 64.25
L 59.05 72.25
Q 59.49453125 72.683984375 59.5 73.3
L 59.5 86.6
Q 59.494921875 87.153515625 59.1 87.55 58.7681640625 87.9951171875 58.2 88.05 50.0330078125 89.2861328125 41.8 88.05 41.281640625 87.9951171875 40.9 87.55 40.555078125 87.153515625 40.55 86.6
L 40.55 73.3
Q 40.54453125 72.6880859375 40.95 72.25
L 48.9 64.25
Q 49.373046875 63.8044921875 50 63.8
M 29.85 34.55
L 7.25 34.55
Q 3.35 50.05 7.25 65.5
L 29.85 65.5 45.35 50.05 29.85 34.55
M 13.4 40.55
L 26.75 40.55
Q 27.3658203125 40.5552734375 27.8 41
L 35.8 49
Q 36.2462890625 49.43671875 36.25 50.05 36.244921875 50.6650390625 35.8 51.1
L 27.8 59.05
Q 27.3865234375 59.49375 26.75 59.5
L 13.4 59.5
Q 12.846484375 59.494921875 12.4 59.1 12.0048828125 58.7681640625 11.9 58.2 10.7134765625 50.0330078125 11.9 41.8 12.0048828125 41.281640625 12.4 40.9 12.846484375 40.555078125 13.4 40.55
M 65.5 30
L 65.5 7.25
Q 50.05 3.35 34.55 7.25
L 34.55 29.85 50.05 45.35 65.5 30
M 41.8 11.9
Q 50.0328125 10.7140625 58.2 11.9 58.7681640625 12.0048828125 59.1 12.4 59.494921875 12.846484375 59.5 13.4
L 59.5 26.9
Q 59.4962890625 27.5283203125 59.05 27.95
L 51.1 35.85
Q 50.68828125 36.28125 50.05 36.25 49.4603515625 36.2677734375 49 35.8
L 41 27.8
Q 40.5552734375 27.3658203125 40.55 26.75
L 40.55 13.4
Q 40.555078125 12.8462890625 40.9 12.4 41.281640625 12.0048828125 41.8 11.9
M 70.05 34.55
L 65.5 30 50.05 45.35 34.55 29.85 29.85 34.55 45.35 50.05 29.85 65.5 34.55 70.2 50 54.7 65.5 70.2 65.5 70.15 70.15 65.5 70.2 65.5 54.7 50 70.05 34.55
M 92.75 65.5
Q 96.65 50.05 92.75 34.55
L 70.05 34.55 54.7 50 70.2 65.5 92.75 65.5
M 87.55 40.9
Q 87.9951171875 41.281640625 88.05 41.8 89.2861328125 50.0330078125 88.05 58.2 87.9951171875 58.7681640625 87.55 59.1 87.153515625 59.494921875 86.6 59.5
L 73.3 59.5
Q 72.683984375 59.49453125 72.25 59.05
L 64.2 51
Q 63.78203125 50.5896484375 63.75 49.95 63.78046875 49.3623046875 64.2 48.9
L 72.1 41
Q 72.55859375 40.5544921875 73.15 40.55
L 86.6 40.55
Q 87.153515625 40.555078125 87.55 40.9 Z"/>

<path fill="#535353" stroke="none" d="
M 51.05 64.25
Q 50.6130859375 63.803515625 50 63.8 49.373046875 63.8044921875 48.9 64.25
L 40.95 72.25
Q 40.54453125 72.6880859375 40.55 73.3
L 40.55 86.6
Q 40.555078125 87.153515625 40.9 87.55 41.281640625 87.9951171875 41.8 88.05 50.0330078125 89.2861328125 58.2 88.05 58.7681640625 87.9951171875 59.1 87.55 59.494921875 87.153515625 59.5 86.6
L 59.5 73.3
Q 59.49453125 72.683984375 59.05 72.25
L 51.05 64.25
M 45.5 76.65
L 54.5 76.65 49.95 82.85 45.5 76.65
M 26.75 40.55
L 13.4 40.55
Q 12.846484375 40.555078125 12.4 40.9 12.0048828125 41.281640625 11.9 41.8 10.7134765625 50.0330078125 11.9 58.2 12.0048828125 58.7681640625 12.4 59.1 12.846484375 59.494921875 13.4 59.5
L 26.75 59.5
Q 27.3865234375 59.49375 27.8 59.05
L 35.8 51.1
Q 36.244921875 50.6650390625 36.25 50.05 36.2462890625 49.43671875 35.8 49
L 27.8 41
Q 27.3658203125 40.5552734375 26.75 40.55
M 23.4 54.5
L 17.2 50.05 23.4 45.5 23.4 54.5
M 58.2 11.9
Q 50.0328125 10.7140625 41.8 11.9 41.281640625 12.0048828125 40.9 12.4 40.555078125 12.8462890625 40.55 13.4
L 40.55 26.75
Q 40.5552734375 27.3658203125 41 27.8
L 49 35.8
Q 49.4603515625 36.2677734375 50.05 36.25 50.68828125 36.28125 51.1 35.85
L 59.05 27.95
Q 59.4962890625 27.5283203125 59.5 26.9
L 59.5 13.4
Q 59.494921875 12.846484375 59.1 12.4 58.7681640625 12.0048828125 58.2 11.9
M 54.5 23.4
L 45.5 23.4 49.95 17.2 54.5 23.4
M 88.05 41.8
Q 87.9951171875 41.281640625 87.55 40.9 87.153515625 40.555078125 86.6 40.55
L 73.15 40.55
Q 72.55859375 40.5544921875 72.1 41
L 64.2 48.9
Q 63.78046875 49.3623046875 63.75 49.95 63.78203125 50.5896484375 64.2 51
L 72.25 59.05
Q 72.683984375 59.49453125 73.3 59.5
L 86.6 59.5
Q 87.153515625 59.494921875 87.55 59.1 87.9951171875 58.7681640625 88.05 58.2 89.2861328125 50.0330078125 88.05 41.8
M 76.65 54.5
L 76.65 45.5 82.85 50.05 76.65 54.5 Z"/>

<path fill="#D6D6D6" stroke="none" d="
M 54.5 76.65
L 45.5 76.65 49.95 82.85 54.5 76.65
M 17.2 50.05
L 23.4 54.5 23.4 45.5 17.2 50.05
M 45.5 23.4
L 54.5 23.4 49.95 17.2 45.5 23.4
M 76.65 45.5
L 76.65 54.5 82.85 50.05 76.65 45.5 Z"/>
</g>

<path id="Layer38_0_1_STROKES" stroke="#757575" stroke-width="5" stroke-linejoin="round" stroke-linecap="round" fill="none" d="
M 93.2 52.9
Q 96.9 64.2 93.2 75.5
L 57.2 75.5
Q 46.4 75.65 38.7 70.4
L 7.3 49.6
Q 2.85 37.35 7.3 27 7.75 26.4 8.25 26 9.8 24.7 11.95 24.5
L 17.2 24.5
M 17.5 24.5
L 18.55 25 34.05 31.95
Q 41.35 33.9 48.6 32.25 55.9 30.6 65.65 33.65
L 89.05 47.9
Q 91.9 50.1 93.2 52.9"/>

<path id="Layer38_0_2_STROKES" stroke="#FFFFFF" stroke-width="4" stroke-linejoin="round" stroke-linecap="round" fill="none" d="
M 82.25 52.9
L 81.15 52.9 57.2 52.9
Q 46.4 53.05 38.7 47.8
L 14.95 32.1"/>

<path id="Layer37_0_1_STROKES" stroke="#757575" stroke-width="5" stroke-linejoin="round" stroke-linecap="round" fill="none" d="
M 91.85 26
Q 90.3 24.7 88.15 24.5
L 82.9 24.5
M 91.85 26
Q 92.35 26.4 92.8 27 97.25 37.35 92.8 49.6
L 61.4 70.4
Q 53.7 75.65 42.9 75.5
L 6.9 75.5
Q 3.2 64.2 6.9 52.9 8.2 50.1 11.05 47.9
L 34.45 33.65
Q 44.2 30.6 51.5 32.25 58.75 33.9 66.05 31.95
L 81.55 25 82.6 24.5"/>

<path id="Layer37_0_2_STROKES" stroke="#FFFFFF" stroke-width="4" stroke-linejoin="round" stroke-linecap="round" fill="none" d="
M 85.15 32.1
L 61.4 47.8
Q 53.7 53.05 42.9 52.9
L 18.95 52.9 17.85 52.9"/>

<path id="Layer36_0_1_STROKES" stroke="#202020" stroke-width="5" stroke-linejoin="round" stroke-linecap="round" fill="none" d="
M 94.55 50.05
Q 94.55 61.05 81.5 68.85 68.45 76.7 50.05 76.7 31.6 76.7 18.5 68.85 5.45 61.05 5.45 50.05 5.45 39 18.5 31.15 31.6 23.35 50.05 23.35 68.45 23.35 81.5 31.15 94.55 39 94.55 50.05 Z"/>

<path id="Layer36_0_2_STROKES" stroke="#616161" stroke-width="4" stroke-linejoin="round" stroke-linecap="round" fill="none" d="
M 77.85 36.55
L 77.8 36.55
Q 87.35 42.3 87.8 50.05 87.35 57.7 77.85 63.4
L 77.8 63.4
Q 66.3 70.25 50.05 70.25 33.7 70.25 22.15 63.4 12.6 57.7 12.2 50.05 12.6 42.3 22.15 36.55 33.7 29.75 50.05 29.75 66.3 29.75 77.85 36.55 Z"/>

<path id="Layer35_0_1_STROKES" stroke="#202020" stroke-width="5" stroke-linejoin="round" stroke-linecap="round" fill="none" d="
M 94.55 50.05
Q 94.55 61.05 81.5 68.85 68.45 76.7 50.05 76.7 31.6 76.7 18.5 68.85 5.45 61.05 5.45 50.05 5.45 39 18.5 31.15 31.6 23.35 50.05 23.35 68.45 23.35 81.5 31.15 94.55 39 94.55 50.05 Z"/>

<path id="Layer35_0_2_STROKES" stroke="#616161" stroke-width="4" stroke-linejoin="round" stroke-linecap="round" fill="none" d="
M 77.85 36.55
L 77.8 36.55
Q 87.35 42.3 87.8 50.05 87.35 57.7 77.85 63.4
L 77.8 63.4
Q 66.3 70.25 50.05 70.25 33.7 70.25 22.15 63.4 12.6 57.7 12.2 50.05 12.6 42.3 22.15 36.55 33.7 29.75 50.05 29.75 66.3 29.75 77.85 36.55 Z"/>

<path id="Layer34_0_1_STROKES" stroke="#4B4B4B" stroke-width="5" stroke-linejoin="round" stroke-linecap="round" fill="none" d="
M 95.65 50
Q 95.65 68.9 82.25 82.25 68.9 95.65 50 95.65 31.1 95.65 17.7 82.25 4.35 68.9 4.35 50 4.35 31.1 17.7 17.7 31.1 4.35 50 4.35 68.9 4.35 82.25 17.7 95.65 31.1 95.65 50 Z"/>

<path id="Layer34_0_2_STROKES" stroke="#202020" stroke-width="5" stroke-linejoin="round" stroke-linecap="round" fill="none" d="
M 50.05 17.45
Q 63.5 17.45 73.05 27 82.6 36.55 82.6 50.05 82.6 63.5 73.05 73.05 63.5 82.6 50.05 82.6 36.55 82.6 27 73.05 17.45 63.5 17.45 50.05 17.45 36.55 27 27 36.55 17.45 50.05 17.45 Z"/>

<path id="Layer33_0_1_STROKES" stroke="#202020" stroke-width="5" stroke-linejoin="round" stroke-linecap="round" fill="none" d="
M 50.05 17.45
Q 63.5 17.45 73.05 27 82.6 36.55 82.6 50.05 82.6 63.5 73.05 73.05 63.5 82.6 50.05 82.6 36.55 82.6 27 73.05 17.45 63.5 17.45 50.05 17.45 36.55 27 27 36.55 17.45 50.05 17.45 Z"/>

<path id="Layer33_0_2_STROKES" stroke="#4B4B4B" stroke-width="5" stroke-linejoin="round" stroke-linecap="round" fill="none" d="
M 95.65 50
Q 95.65 68.9 82.25 82.25 68.9 95.65 50 95.65 31.1 95.65 17.7 82.25 4.35 68.9 4.35 50 4.35 31.1 17.7 17.7 31.1 4.35 50 4.35 68.9 4.35 82.25 17.7 95.65 31.1 95.65 50 Z"/>

<path id="Layer32_0_1_STROKES" stroke="#D6D6D6" stroke-width="5" stroke-linejoin="round" stroke-linecap="round" fill="none" d="
M 62.95 37.05
L 50 50 63 63
M 37.05 37.05
L 50 50 37 63"/>

<path id="Layer31_0_1_STROKES" stroke="#D6D6D6" stroke-width="5" stroke-linejoin="round" stroke-linecap="round" fill="none" d="
M 34.95 65.1
L 34.95 34.95 65.1 34.95 65.1 65.1 34.95 65.1 Z"/>

<path id="Layer30_0_1_STROKES" stroke="#D6D6D6" stroke-width="5" stroke-linejoin="round" stroke-linecap="round" fill="none" d="
M 32.95 62.3
L 50 31.05 67.05 62.3 32.95 62.3 Z"/>

<path id="Layer29_0_1_STROKES" stroke="#D6D6D6" stroke-width="5" stroke-linejoin="round" stroke-linecap="round" fill="none" d="
M 50 30.25
Q 58.2 30.25 63.95 36.05 69.75 41.85 69.75 50 69.75 58.2 63.95 63.95 58.2 69.75 50 69.75 41.85 69.75 36.05 63.95 30.25 58.2 30.25 50 30.25 41.85 36.05 36.05 41.85 30.25 50 30.25 Z"/>

<path id="Layer28_0_1_STROKES" stroke="#616161" stroke-width="4" stroke-linejoin="round" stroke-linecap="round" fill="none" d="
M 87.6 40.85
Q 88 41.25 88.1 41.75 89.3 49.95 88.1 58.15 88 58.7 87.6 59.05 87.15 59.45 86.6 59.45
L 73.3 59.45
Q 72.7 59.45 72.25 59
L 64.25 51.05
Q 63.8 50.65 63.8 50 63.8 49.4 64.25 48.95
L 72.25 40.95
Q 72.7 40.5 73.3 40.5
L 86.6 40.5
Q 87.15 40.5 87.6 40.85 Z
M 26.9 40.5
Q 27.55 40.5 28 40.95
L 35.85 48.85
Q 36.3 49.3 36.3 49.9 36.25 50.55 35.85 50.95
L 27.8 59
Q 27.35 59.45 26.75 59.45
L 13.4 59.45
Q 12.85 59.45 12.45 59.05 12 58.7 11.95 58.15 10.7 49.95 11.95 41.75 12 41.25 12.45 40.85 12.85 40.5 13.4 40.5
L 26.9 40.5 Z
M 50.05 63.75
Q 50.65 63.75 51.1 64.2
L 59.05 72.15
Q 59.5 72.6 59.5 73.2
L 59.5 86.6
Q 59.5 87.15 59.15 87.55 58.75 88 58.25 88.05 50.05 89.3 41.85 88.05 41.3 88 40.95 87.55 40.55 87.15 40.55 86.6
L 40.55 73.25
Q 40.55 72.65 41 72.2
L 49 64.2
Q 49.45 63.75 50.05 63.75 Z"/>

<path id="Layer28_0_2_STROKES" stroke="#202020" stroke-width="5" stroke-linejoin="round" stroke-linecap="round" fill="none" d="
M 65.5 29.8
L 70.2 34.5 92.75 34.5
Q 96.65 49.95 92.75 65.45
L 70.2 65.45 65.5 70.15 65.5 92.75
Q 50.05 96.65 34.55 92.75
L 34.55 70.15 29.85 65.45 7.25 65.45
Q 3.35 49.95 7.25 34.5
L 30 34.5 34.55 29.95
M 65.5 70.15
L 50.1 54.6 34.55 70.15
M 70.2 65.45
L 54.7 50 70.2 34.5
M 30 34.5
L 45.4 49.9 29.85 65.45"/>

<path id="Layer28_0_3_STROKES" stroke="#404040" stroke-width="5" stroke-linejoin="round" stroke-linecap="round" fill="none" d="
M 34.55 29.95
L 34.55 7.25
Q 50.05 3.35 65.5 7.25
L 65.5 29.8 50 45.3 34.55 29.95 Z"/>

<path id="Layer28_0_4_STROKES" stroke="#FFFFFF" stroke-width="4" stroke-linejoin="round" stroke-linecap="round" fill="none" d="
M 40.95 12.4
Q 41.3 12 41.85 11.9 50.05 10.7 58.25 11.9 58.75 12 59.15 12.4 59.5 12.85 59.5 13.4
L 59.5 26.7
Q 59.5 27.3 59.05 27.75
L 51.05 35.75
Q 50.6 36.2 50 36.2 49.35 36.2 48.95 35.75
L 41 27.85
Q 40.55 27.45 40.55 26.8
L 40.55 13.4
Q 40.55 12.85 40.95 12.4 Z"/>

<path id="Layer27_0_1_STROKES" stroke="#616161" stroke-width="4" stroke-linejoin="round" stroke-linecap="round" fill="none" d="
M 88.05 41.75
Q 89.3 49.95 88.05 58.15 88 58.7 87.55 59.05 87.15 59.45 86.6 59.45
L 73.25 59.45
Q 72.65 59.45 72.2 59
L 64.2 51
Q 63.75 50.55 63.75 49.95 63.75 49.35 64.2 48.9
L 72.15 40.95
Q 72.6 40.5 73.2 40.5
L 86.6 40.5
Q 87.15 40.5 87.55 40.85 88 41.25 88.05 41.75 Z
M 40.85 12.4
Q 41.25 12 41.75 11.9 49.95 10.7 58.15 11.9 58.7 12 59.05 12.4 59.45 12.85 59.45 13.4
L 59.45 26.7
Q 59.45 27.3 59 27.75
L 51.05 35.75
Q 50.65 36.2 50 36.2 49.4 36.2 48.95 35.75
L 40.95 27.75
Q 40.5 27.3 40.5 26.7
L 40.5 13.4
Q 40.5 12.85 40.85 12.4 Z
M 48.85 64.15
Q 49.3 63.7 49.9 63.7 50.55 63.75 50.95 64.15
L 59 72.2
Q 59.45 72.65 59.45 73.25
L 59.45 86.6
Q 59.45 87.15 59.05 87.55 58.7 88 58.15 88.05 49.95 89.3 41.75 88.05 41.25 88 40.85 87.55 40.5 87.15 40.5 86.6
L 40.5 73.1
Q 40.5 72.45 40.95 72
L 48.85 64.15 Z"/>

<path id="Layer27_0_2_STROKES" stroke="#202020" stroke-width="5" stroke-linejoin="round" stroke-linecap="round" fill="none" d="
M 29.8 34.5
L 34.5 29.8 34.5 7.25
Q 49.95 3.35 65.45 7.25
L 65.45 29.8 70.15 34.5 92.75 34.5
Q 96.65 49.95 92.75 65.45
L 70.15 65.45 65.45 70.15 65.45 92.75
Q 49.95 96.65 34.5 92.75
L 34.5 70 29.95 65.45
M 65.45 29.8
L 50 45.3 34.5 29.8
M 70.15 65.45
L 54.6 49.9 70.15 34.5
M 65.45 70.15
L 49.9 54.6 34.5 70"/>

<path id="Layer27_0_3_STROKES" stroke="#FFFFFF" stroke-width="4" stroke-linejoin="round" stroke-linecap="round" fill="none" d="
M 26.7 40.5
Q 27.3 40.5 27.75 40.95
L 35.75 48.95
Q 36.2 49.4 36.2 50 36.2 50.65 35.75 51.05
L 27.85 59
Q 27.45 59.45 26.8 59.45
L 13.4 59.45
Q 12.85 59.45 12.4 59.05 12 58.7 11.9 58.15 10.7 49.95 11.9 41.75 12 41.25 12.4 40.85 12.85 40.5 13.4 40.5
L 26.7 40.5 Z"/>

<path id="Layer27_0_4_STROKES" stroke="#404040" stroke-width="5" stroke-linejoin="round" stroke-linecap="round" fill="none" d="
M 29.95 65.45
L 7.25 65.45
Q 3.35 49.95 7.25 34.5
L 29.8 34.5 45.3 50 29.95 65.45 Z"/>

<path id="Layer26_0_1_STROKES" stroke="#616161" stroke-width="4" stroke-linejoin="round" stroke-linecap="round" fill="none" d="
M 87.55 40.95
Q 88 41.3 88.05 41.85 89.3 50.05 88.05 58.25 88 58.75 87.55 59.15 87.15 59.5 86.6 59.5
L 73.1 59.5
Q 72.45 59.5 72 59.05
L 64.15 51.15
Q 63.7 50.7 63.7 50.1 63.75 49.45 64.15 49.05
L 72.2 41
Q 72.65 40.55 73.25 40.55
L 86.6 40.55
Q 87.15 40.55 87.55 40.95 Z
M 40.85 12.45
Q 41.25 12 41.75 11.95 49.95 10.7 58.15 11.95 58.7 12 59.05 12.45 59.45 12.85 59.45 13.4
L 59.45 26.75
Q 59.45 27.35 59 27.8
L 51 35.8
Q 50.55 36.25 49.95 36.25 49.35 36.25 48.9 35.8
L 40.95 27.85
Q 40.5 27.4 40.5 26.8
L 40.5 13.4
Q 40.5 12.85 40.85 12.45 Z
M 26.7 40.55
Q 27.3 40.55 27.75 41
L 35.75 48.95
Q 36.2 49.35 36.2 50 36.2 50.6 35.75 51.05
L 27.75 59.05
Q 27.3 59.5 26.7 59.5
L 13.4 59.5
Q 12.85 59.5 12.4 59.15 12 58.75 11.9 58.25 10.7 50.05 11.9 41.85 12 41.3 12.4 40.95 12.85 40.55 13.4 40.55
L 26.7 40.55 Z"/>

<path id="Layer26_0_2_STROKES" stroke="#202020" stroke-width="5" stroke-linejoin="round" stroke-linecap="round" fill="none" d="
M 34.5 70.2
L 29.8 65.5 7.25 65.5
Q 3.35 50.05 7.25 34.55
L 29.8 34.55 34.5 29.85 34.5 7.25
Q 49.95 3.35 65.45 7.25
L 65.45 29.85 70.15 34.55 92.75 34.55
Q 96.65 50.05 92.75 65.5
L 70 65.5 65.45 70.05
M 65.45 29.85
L 49.9 45.4 34.5 29.85
M 70.15 34.55
L 54.6 50.1 70 65.5
M 29.8 65.5
L 45.3 50 29.8 34.55"/>

<path id="Layer26_0_3_STROKES" stroke="#404040" stroke-width="5" stroke-linejoin="round" stroke-linecap="round" fill="none" d="
M 65.45 70.05
L 65.45 92.75
Q 49.95 96.65 34.5 92.75
L 34.5 70.2 50 54.7 65.45 70.05 Z"/>

<path id="Layer26_0_4_STROKES" stroke="#FFFFFF" stroke-width="4" stroke-linejoin="round" stroke-linecap="round" fill="none" d="
M 51.05 64.25
L 59 72.15
Q 59.45 72.55 59.45 73.2
L 59.45 86.6
Q 59.45 87.15 59.05 87.6 58.7 88 58.15 88.1 49.95 89.3 41.75 88.1 41.25 88 40.85 87.6 40.5 87.15 40.5 86.6
L 40.5 73.3
Q 40.5 72.7 40.95 72.25
L 48.95 64.25
Q 49.4 63.8 50 63.8 50.65 63.8 51.05 64.25 Z"/>

<path id="Layer25_0_1_STROKES" stroke="#616161" stroke-width="4" stroke-linejoin="round" stroke-linecap="round" fill="none" d="
M 58.225 11.925
Q 58.7681640625 12.0048828125 59.125 12.425 59.494921875 12.846484375 59.5 13.4
L 59.5 26.9
Q 59.4962890625 27.5283203125 59.05 27.975
L 51.125 35.85
Q 50.68828125 36.28125 50.075 36.275 49.4603515625 36.2677734375 49.025 35.825
L 41 27.8
Q 40.5552734375 27.3658203125 40.55 26.75
L 40.55 13.4
Q 40.555078125 12.8462890625 40.925 12.425 41.281640625 12.0048828125 41.825 11.925 50.0328125 10.7140625 58.225 11.925 Z
M 13.4 40.55
L 26.75 40.55
Q 27.3658203125 40.5552734375 27.8 41
L 35.8 49
Q 36.2462890625 49.43671875 36.25 50.05 36.244921875 50.6650390625 35.8 51.1
L 27.825 59.05
Q 27.3865234375 59.49375 26.775 59.5
L 13.4 59.5
Q 12.846484375 59.494921875 12.425 59.125 12.0048828125 58.7681640625 11.925 58.225 10.7134765625 50.0330078125 11.925 41.825 12.0048828125 41.281640625 12.425 40.925 12.846484375 40.555078125 13.4 40.55 Z
M 51.05 64.25
L 59.05 72.25
Q 59.49453125 72.683984375 59.5 73.3
L 59.5 86.6
Q 59.494921875 87.153515625 59.125 87.575 58.7681640625 87.9951171875 58.225 88.075 50.0330078125 89.2861328125 41.825 88.075 41.281640625 87.9951171875 40.925 87.575 40.555078125 87.153515625 40.55 86.6
L 40.55 73.3
Q 40.54453125 72.6880859375 40.975 72.25
L 48.925 64.25
Q 49.373046875 63.8044921875 50 63.8 50.6130859375 63.803515625 51.05 64.25 Z"/>

<path id="Layer25_0_2_STROKES" stroke="#202020" stroke-width="5" stroke-linejoin="round" stroke-linecap="round" fill="none" d="
M 70.175 65.5
L 65.5 70.175 65.5 70.2 65.5 92.75
Q 50.05 96.65 34.55 92.75
L 34.55 70.2 29.85 65.5 7.25 65.5
Q 3.35 50.05 7.25 34.55
L 29.85 34.55 34.55 29.85 34.55 7.25
Q 50.05 3.35 65.5 7.25
L 65.5 30 70.05 34.55
M 65.5 30
L 50.075 45.375 34.55 29.85
M 34.55 70.2
L 50 54.7 65.5 70.2
M 29.85 34.55
L 45.375 50.075 29.85 65.5"/>

<path id="Layer25_0_3_STROKES" stroke="#404040" stroke-width="5" stroke-linejoin="round" stroke-linecap="round" fill="none" d="
M 70.05 34.55
L 92.75 34.55
Q 96.65 50.05 92.75 65.5
L 70.2 65.5 70.175 65.5
M 70.05 34.55
L 54.7 50 70.2 65.5"/>

<path id="Layer25_0_4_STROKES" stroke="#FFFFFF" stroke-width="4" stroke-linejoin="round" stroke-linecap="round" fill="none" d="
M 88.075 41.825
Q 89.2861328125 50.0330078125 88.075 58.225 87.9951171875 58.7681640625 87.575 59.125 87.153515625 59.494921875 86.6 59.5
L 73.3 59.5
Q 72.683984375 59.49453125 72.25 59.05
L 64.225 51.025
Q 63.78203125 50.5896484375 63.775 49.975 63.78046875 49.3623046875 64.225 48.925
L 72.125 41
Q 72.55859375 40.5544921875 73.175 40.55
L 86.6 40.55
Q 87.153515625 40.555078125 87.575 40.925 87.9951171875 41.281640625 88.075 41.825 Z"/>

<path id="Layer24_0_1_STROKES" stroke="#202020" stroke-width="5" stroke-linejoin="round" stroke-linecap="round" fill="none" d="
M 70.05 34.55
L 92.75 34.55
Q 96.65 50.05 92.75 65.5
L 70.2 65.5 70.175 65.5 65.5 70.175 65.5 70.2 65.5 92.75
Q 50.05 96.65 34.55 92.75
L 34.55 70.2 29.85 65.5 7.25 65.5
Q 3.35 50.05 7.25 34.55
L 29.85 34.55 34.55 29.85 34.55 7.25
Q 50.05 3.35 65.5 7.25
L 65.5 30 70.05 34.55 54.7 50 70.2 65.5
M 65.5 30
L 50.075 45.375 34.55 29.85
M 65.5 70.2
L 50 54.7 34.55 70.2
M 29.85 34.55
L 45.375 50.075 29.85 65.5"/>

<path id="Layer24_0_2_STROKES" stroke="#616161" stroke-width="4" stroke-linejoin="round" stroke-linecap="round" fill="none" d="
M 88.075 41.825
Q 89.2861328125 50.0330078125 88.075 58.225 87.9951171875 58.7681640625 87.575 59.125 87.153515625 59.494921875 86.6 59.5
L 73.3 59.5
Q 72.683984375 59.49453125 72.25 59.05
L 64.225 51.025
Q 63.78203125 50.5896484375 63.775 49.975 63.78046875 49.3623046875 64.225 48.925
L 72.125 41
Q 72.55859375 40.5544921875 73.175 40.55
L 86.6 40.55
Q 87.153515625 40.555078125 87.575 40.925 87.9951171875 41.281640625 88.075 41.825 Z
M 58.225 11.925
Q 58.7681640625 12.0048828125 59.125 12.425 59.494921875 12.846484375 59.5 13.4
L 59.5 26.9
Q 59.4962890625 27.5283203125 59.05 27.975
L 51.125 35.85
Q 50.68828125 36.28125 50.075 36.275 49.4603515625 36.2677734375 49.025 35.825
L 41 27.8
Q 40.5552734375 27.3658203125 40.55 26.75
L 40.55 13.4
Q 40.555078125 12.8462890625 40.925 12.425 41.281640625 12.0048828125 41.825 11.925 50.0328125 10.7140625 58.225 11.925 Z
M 26.75 40.55
Q 27.3658203125 40.5552734375 27.8 41
L 35.8 49
Q 36.2462890625 49.43671875 36.25 50.05 36.244921875 50.6650390625 35.8 51.1
L 27.825 59.05
Q 27.3865234375 59.49375 26.775 59.5
L 13.4 59.5
Q 12.846484375 59.494921875 12.425 59.125 12.0048828125 58.7681640625 11.925 58.225 10.7134765625 50.0330078125 11.925 41.825 12.0048828125 41.281640625 12.425 40.925 12.846484375 40.555078125 13.4 40.55
L 26.75 40.55 Z
M 51.05 64.25
L 59.05 72.25
Q 59.49453125 72.683984375 59.5 73.3
L 59.5 86.6
Q 59.494921875 87.153515625 59.125 87.575 58.7681640625 87.9951171875 58.225 88.075 50.0330078125 89.2861328125 41.825 88.075 41.281640625 87.9951171875 40.925 87.575 40.555078125 87.153515625 40.55 86.6
L 40.55 73.3
Q 40.54453125 72.6880859375 40.975 72.25
L 48.925 64.25
Q 49.373046875 63.8044921875 50 63.8 50.6130859375 63.803515625 51.05 64.25 Z"/>
</defs>

<g transform="matrix( 1, 0, 0, 1, 0,0) ">
<use xlink:href="#Layer38_0_FILL"/>

<use xlink:href="#Layer38_0_1_STROKES"/>

<use xlink:href="#Layer38_0_2_STROKES"/>
</g>

<g transform="matrix( 1, 0, 0, 1, 0,0) ">
<use xlink:href="#Layer37_0_FILL"/>

<use xlink:href="#Layer37_0_1_STROKES"/>

<use xlink:href="#Layer37_0_2_STROKES"/>
</g>

<g transform="matrix( 1, 0, 0, 1, 0,0) ">
<use xlink:href="#Layer36_0_FILL"/>

<use xlink:href="#Layer36_0_1_STROKES"/>

<use xlink:href="#Layer36_0_2_STROKES"/>
</g>

<g transform="matrix( 1, 0, 0, 1, 0,0) ">
<use xlink:href="#Layer35_0_FILL"/>

<use xlink:href="#Layer35_0_1_STROKES"/>

<use xlink:href="#Layer35_0_2_STROKES"/>
</g>

<g transform="matrix( 1, 0, 0, 1, 0,0) ">
<use xlink:href="#Layer34_0_FILL"/>

<use xlink:href="#Layer34_0_1_STROKES"/>

<use xlink:href="#Layer34_0_2_STROKES"/>
</g>

<g transform="matrix( 1, 0, 0, 1, 0,0) ">
<use xlink:href="#Layer33_0_FILL"/>

<use xlink:href="#Layer33_0_1_STROKES"/>

<use xlink:href="#Layer33_0_2_STROKES"/>
</g>

<g transform="matrix( 1, 0, 0, 1, 0,0) ">
<use xlink:href="#Layer32_0_FILL"/>

<use xlink:href="#Layer32_0_1_STROKES"/>
</g>

<g transform="matrix( 1, 0, 0, 1, 0,0) ">
<use xlink:href="#Layer31_0_FILL"/>

<use xlink:href="#Layer31_0_1_STROKES"/>
</g>

<g transform="matrix( 1, 0, 0, 1, 0,0) ">
<use xlink:href="#Layer30_0_FILL"/>

<use xlink:href="#Layer30_0_1_STROKES"/>
</g>

<g transform="matrix( 1, 0, 0, 1, 0,0) ">
<use xlink:href="#Layer29_0_FILL"/>

<use xlink:href="#Layer29_0_1_STROKES"/>
</g>

<g transform="matrix( 1, 0, 0, 1, 0,0) ">
<use xlink:href="#Layer28_0_FILL"/>

<use xlink:href="#Layer28_0_1_STROKES"/>

<use xlink:href="#Layer28_0_2_STROKES"/>

<use xlink:href="#Layer28_0_3_STROKES"/>

<use xlink:href="#Layer28_0_4_STROKES"/>
</g>

<g transform="matrix( 1, 0, 0, 1, 0,0) ">
<use xlink:href="#Layer27_0_FILL"/>

<use xlink:href="#Layer27_0_1_STROKES"/>

<use xlink:href="#Layer27_0_2_STROKES"/>

<use xlink:href="#Layer27_0_3_STROKES"/>

<use xlink:href="#Layer27_0_4_STROKES"/>
</g>

<g transform="matrix( 1, 0, 0, 1, 0,0) ">
<use xlink:href="#Layer26_0_FILL"/>

<use xlink:href="#Layer26_0_1_STROKES"/>

<use xlink:href="#Layer26_0_2_STROKES"/>

<use xlink:href="#Layer26_0_3_STROKES"/>

<use xlink:href="#Layer26_0_4_STROKES"/>
</g>

<g transform="matrix( 1, 0, 0, 1, 0,0) ">
<use xlink:href="#Layer25_0_FILL"/>

<use xlink:href="#Layer25_0_1_STROKES"/>

<use xlink:href="#Layer25_0_2_STROKES"/>

<use xlink:href="#Layer25_0_3_STROKES"/>

<use xlink:href="#Layer25_0_4_STROKES"/>
</g>

<g transform="matrix( 1, 0, 0, 1, 0,0) ">
<use xlink:href="#Layer24_0_FILL"/>

<use xlink:href="#Layer24_0_1_STROKES"/>

<use xlink:href="#Layer24_0_2_STROKES"/>
</g>
</svg>
