
<svg xmlns="http://www.w3.org/2000/svg" version="1.1" xmlns:xlink="http://www.w3.org/1999/xlink" preserveAspectRatio="none" x="0px" y="0px" width="100px" height="100px" viewBox="0 0 100 100">
<defs>
<linearGradient id="Gradient_1" gradientUnits="userSpaceOnUse" x1="49.85" y1="63.1" x2="49.85" y2="75.9" spreadMethod="pad">
<stop  offset="0%" stop-color="#313131"/>

<stop  offset="100%" stop-color="#D7D7D7"/>
</linearGradient>

<linearGradient id="Gradient_2" gradientUnits="userSpaceOnUse" x1="50.25" y1="60" x2="50.25" y2="71" spreadMethod="pad">
<stop  offset="0%" stop-color="#4F4F4F"/>

<stop  offset="100%" stop-color="#F5F5F5"/>
</linearGradient>

<linearGradient id="Gradient_3" gradientUnits="userSpaceOnUse" x1="50.75" y1="63.00000000000001" x2="50.75" y2="81.80000000000001" spreadMethod="pad">
<stop  offset="0%" stop-color="#626262"/>

<stop  offset="100%" stop-color="#FFFFFF"/>
</linearGradient>

<linearGradient id="Gradient_4" gradientUnits="userSpaceOnUse" x1="49.6" y1="67.80000000000001" x2="49.6" y2="92.5" spreadMethod="pad">
<stop  offset="0%" stop-color="#1B1B1B"/>

<stop  offset="100%" stop-color="#404040"/>
</linearGradient>

<linearGradient id="Gradient_5" gradientUnits="userSpaceOnUse" x1="36.9" y1="49.85" x2="24.1" y2="49.85" spreadMethod="pad">
<stop  offset="0%" stop-color="#313131"/>

<stop  offset="100%" stop-color="#D7D7D7"/>
</linearGradient>

<linearGradient id="Gradient_6" gradientUnits="userSpaceOnUse" x1="40" y1="50.25" x2="29" y2="50.25" spreadMethod="pad">
<stop  offset="0%" stop-color="#4F4F4F"/>

<stop  offset="100%" stop-color="#F5F5F5"/>
</linearGradient>

<linearGradient id="Gradient_7" gradientUnits="userSpaceOnUse" x1="37" y1="50.75" x2="18.200000000000003" y2="50.75" spreadMethod="pad">
<stop  offset="0%" stop-color="#626262"/>

<stop  offset="100%" stop-color="#FFFFFF"/>
</linearGradient>

<linearGradient id="Gradient_8" gradientUnits="userSpaceOnUse" x1="32.2" y1="49.6" x2="7.5" y2="49.6" spreadMethod="pad">
<stop  offset="0%" stop-color="#1B1B1B"/>

<stop  offset="100%" stop-color="#404040"/>
</linearGradient>

<linearGradient id="Gradient_9" gradientUnits="userSpaceOnUse" x1="50.15" y1="36.9" x2="50.15" y2="24.1" spreadMethod="pad">
<stop  offset="0%" stop-color="#313131"/>

<stop  offset="100%" stop-color="#D7D7D7"/>
</linearGradient>

<linearGradient id="Gradient_10" gradientUnits="userSpaceOnUse" x1="49.75" y1="40" x2="49.75" y2="29" spreadMethod="pad">
<stop  offset="0%" stop-color="#4F4F4F"/>

<stop  offset="100%" stop-color="#F5F5F5"/>
</linearGradient>

<linearGradient id="Gradient_11" gradientUnits="userSpaceOnUse" x1="49.25" y1="37" x2="49.25" y2="18.200000000000003" spreadMethod="pad">
<stop  offset="0%" stop-color="#626262"/>

<stop  offset="100%" stop-color="#FFFFFF"/>
</linearGradient>

<linearGradient id="Gradient_12" gradientUnits="userSpaceOnUse" x1="50.4" y1="32.2" x2="50.4" y2="7.5" spreadMethod="pad">
<stop  offset="0%" stop-color="#1B1B1B"/>

<stop  offset="100%" stop-color="#404040"/>
</linearGradient>

<linearGradient id="Gradient_13" gradientUnits="userSpaceOnUse" x1="63.1" y1="50.15" x2="75.9" y2="50.15" spreadMethod="pad">
<stop  offset="0%" stop-color="#313131"/>

<stop  offset="100%" stop-color="#D7D7D7"/>
</linearGradient>

<linearGradient id="Gradient_14" gradientUnits="userSpaceOnUse" x1="60" y1="49.75" x2="71" y2="49.75" spreadMethod="pad">
<stop  offset="0%" stop-color="#4F4F4F"/>

<stop  offset="100%" stop-color="#F5F5F5"/>
</linearGradient>

<linearGradient id="Gradient_15" gradientUnits="userSpaceOnUse" x1="67.80000000000001" y1="50.4" x2="92.5" y2="50.4" spreadMethod="pad">
<stop  offset="0%" stop-color="#1B1B1B"/>

<stop  offset="100%" stop-color="#404040"/>
</linearGradient>

<linearGradient id="Gradient_16" gradientUnits="userSpaceOnUse" x1="63.00000000000001" y1="49.25" x2="81.80000000000001" y2="49.25" spreadMethod="pad">
<stop  offset="0%" stop-color="#626262"/>

<stop  offset="100%" stop-color="#FFFFFF"/>
</linearGradient>

<radialGradient id="Gradient_17" gradientUnits="userSpaceOnUse" cx="0" cy="0" r="32.80000000000001" fx="0" fy="0" gradientTransform="matrix( 0.9999999999999998, 0, 0, 0.9999999999999998, 50,50.05) " spreadMethod="pad">
<stop  offset="83.13725490196079%" stop-color="#6C6C6C"/>

<stop  offset="97.6470588235294%" stop-color="#151515"/>
</radialGradient>

<g id="Layer44_0_FILL">
<path fill="#313131" stroke="none" d="
M 90.95 70.45
Q 93.05 51.95 91.3 34.15 51.35 28.65 11.15 29.7 8.35 47.7 8.05 65.8 49.45 69.15 90.95 70.45
M 84.6 40.55
Q 85.3 51.65 84.4 63 49.9 61.8 15.45 59.15 16 47.95 17.4 36.75 51.15 36.35 84.6 40.55 Z"/>

<path fill="#4F4F4F" stroke="none" d="
M 84.4 63
Q 85.3 51.65 84.6 40.55 51.15 36.35 17.4 36.75 16 47.95 15.45 59.15 49.9 61.8 84.4 63
M 46.85 42.05
Q 47.95 42.15 48.85 42.4 49.85 42.65 50.55 43.2 51.25 43.75 51.65 44.6 52 45.45 51.9 46.7 51.8 48.25 51 49.25 50.15 50.3 48.65 50.45
L 51.9 56.65 48.1 56.45 45.45 50.55 43.9 50.45 43.55 56.15 40.4 56 41.3 41.75 46.85 42.05
M 53.35 46.3
L 58.2 42.7 61 42.9 60.1 57.15 57.2 57 57.85 46.15 54.9 48.5 53.35 46.3
M 44.25 44.55
L 44.05 47.8 45.9 47.95
Q 46.3 47.95 46.8 48 47.3 47.95 47.7 47.85 48.1 47.7 48.35 47.4 48.65 47.1 48.65 46.5 48.7 46 48.5 45.6 48.3 45.25 47.95 45.1 47.6 44.9 47.2 44.8 46.75 44.7 46.3 44.7
L 44.25 44.55 Z"/>

<path fill="#8F8F8F" stroke="none" d="
M 58.2 42.7
L 53.35 46.3 54.9 48.5 57.85 46.15 57.2 57 60.1 57.15 61 42.9 58.2 42.7
M 48.85 42.4
Q 47.95 42.15 46.85 42.05
L 41.3 41.75 40.4 56 43.55 56.15 43.9 50.45 45.45 50.55 48.1 56.45 51.9 56.65 48.65 50.45
Q 50.15 50.3 51 49.25 51.8 48.25 51.9 46.7 52 45.45 51.65 44.6 51.25 43.75 50.55 43.2 49.85 42.65 48.85 42.4
M 44.05 47.8
L 44.25 44.55 46.3 44.7
Q 46.75 44.7 47.2 44.8 47.6 44.9 47.95 45.1 48.3 45.25 48.5 45.6 48.7 46 48.65 46.5 48.65 47.1 48.35 47.4 48.1 47.7 47.7 47.85 47.3 47.95 46.8 48 46.3 47.95 45.9 47.95
L 44.05 47.8 Z"/>
</g>

<g id="Layer43_0_FILL">
<path fill="#313131" stroke="none" d="
M 92.15 65.8
Q 91.85 47.7 89.05 29.7 48.85 28.65 8.9 34.15 7.15 51.95 9.25 70.45 50.75 69.15 92.15 65.8
M 82.8 36.75
Q 84.2 47.95 84.75 59.15 50.3 61.8 15.8 63 14.9 51.65 15.6 40.55 49.05 36.35 82.8 36.75 Z"/>

<path fill="#4F4F4F" stroke="none" d="
M 84.75 59.15
Q 84.2 47.95 82.8 36.75 49.05 36.35 15.6 40.55 14.9 51.65 15.8 63 50.3 61.8 84.75 59.15
M 52.15 42.35
L 55 42.25 55.8 56.5 52.9 56.65 52.3 45.8 49.5 48.5 47.7 46.55 52.15 42.35
M 48.3 54
L 48.45 56.9 39.45 57.45 38.65 43.2 41.8 43 42.45 54.35 48.3 54 Z"/>

<path fill="#8F8F8F" stroke="none" d="
M 48.45 56.9
L 48.3 54 42.45 54.35 41.8 43 38.65 43.2 39.45 57.45 48.45 56.9
M 55 42.25
L 52.15 42.35 47.7 46.55 49.5 48.5 52.3 45.8 52.9 56.65 55.8 56.5 55 42.25 Z"/>
</g>

<g id="Layer42_0_FILL">
<path fill="#313131" stroke="none" d="
M 86.5 61.85
L 86.5 19.7
Q 85.6 14.55 79.05 12.5
L 22.8 12.5
Q 18.75 16.6 18.35 26.5 21.9 47.75 18.35 70.8 17.15 77.65 22.25 84.65 27.35 89.35 35.4 90.6 51.3 93.1 62.05 83.95
L 68.6 70.35
Q 75.9 61.45 86.5 61.85
M 60.25 18.9
Q 64.45 21.3 63.75 26.25 63.9 40.25 60.4 53.4 57.95 62.65 53.15 70.75 50.15 76.5 45.05 81.65 39.35 84.9 33 83.5 24.55 80.65 24.35 73.85 26.9 60.65 26.9 44.3 26.45 34.1 24.65 24.7 24.45 21 27.1 18.9
L 60.25 18.9 Z"/>

<path fill="#4F4F4F" stroke="none" d="
M 63.75 26.25
Q 64.45 21.3 60.25 18.9
L 27.1 18.9
Q 24.45 21 24.65 24.7 26.45 34.1 26.9 44.3 26.9 60.65 24.35 73.85 24.55 80.65 33 83.5 39.35 84.9 45.05 81.65 50.15 76.5 53.15 70.75 57.95 62.65 60.4 53.4 63.9 40.25 63.75 26.25
M 56.65 27.8
Q 57 28.7 57 29.85 57 30.6 56.85 31.2 56.7 31.8 56.45 32.3 56.15 32.8 55.8 33.2 55.4 33.65 55 34.05
L 50.25 38.1 57.15 38.1 57.15 41 46.3 41 46.3 37.5 52.35 32.05
Q 52.8 31.65 53.25 31.1 53.7 30.6 53.7 29.9 53.7 29.1 53.15 28.65 52.6 28.2 51.8 28.2 50.9 28.2 50.35 28.75 49.85 29.35 49.8 30.15
L 46.5 29.95
Q 46.55 28.7 47 27.85 47.4 26.95 48.15 26.35 48.85 25.75 49.85 25.45 50.85 25.15 52 25.15 53.05 25.15 53.95 25.45 54.9 25.75 55.55 26.35 56.25 26.9 56.65 27.8
M 42.9 37.85
L 42.9 41 33.1 41 33.1 25.4 36.55 25.4 36.55 37.85 42.9 37.85 Z"/>

<path fill="#8C8C8C" stroke="none" d="
M 42.9 41
L 42.9 37.85 36.55 37.85 36.55 25.4 33.1 25.4 33.1 41 42.9 41
M 57 29.85
Q 57 28.7 56.65 27.8 56.25 26.9 55.55 26.35 54.9 25.75 53.95 25.45 53.05 25.15 52 25.15 50.85 25.15 49.85 25.45 48.85 25.75 48.15 26.35 47.4 26.95 47 27.85 46.55 28.7 46.5 29.95
L 49.8 30.15
Q 49.85 29.35 50.35 28.75 50.9 28.2 51.8 28.2 52.6 28.2 53.15 28.65 53.7 29.1 53.7 29.9 53.7 30.6 53.25 31.1 52.8 31.65 52.35 32.05
L 46.3 37.5 46.3 41 57.15 41 57.15 38.1 50.25 38.1 55 34.05
Q 55.4 33.65 55.8 33.2 56.15 32.8 56.45 32.3 56.7 31.8 56.85 31.2 57 30.6 57 29.85 Z"/>
</g>

<g id="Layer41_0_FILL">
<path fill="#313131" stroke="none" d="
M 86.25 26.5
Q 85.85 16.6 81.8 12.5
L 25.55 12.5
Q 19 14.55 18.1 19.7
L 18.1 61.85
Q 28.7 61.45 36 70.35
L 42.55 83.95
Q 53.3 93.1 69.2 90.6 77.25 89.35 82.35 84.65 87.45 77.65 86.25 70.8 82.7 47.75 86.25 26.5
M 77.5 18.9
Q 80.15 21 79.95 24.7 78.15 34.1 77.7 44.3 77.7 60.65 80.25 73.85 80.05 80.65 71.6 83.5 65.25 84.9 59.55 81.65 54.45 76.5 51.45 70.75 46.65 62.65 44.2 53.4 40.7 40.25 40.85 26.25 40.15 21.3 44.35 18.9
L 77.5 18.9 Z"/>

<path fill="#4F4F4F" stroke="none" d="
M 79.95 24.7
Q 80.15 21 77.5 18.9
L 44.35 18.9
Q 40.15 21.3 40.85 26.25 40.7 40.25 44.2 53.4 46.65 62.65 51.45 70.75 54.45 76.5 59.55 81.65 65.25 84.9 71.6 83.5 80.05 80.65 80.25 73.85 77.7 60.65 77.7 44.3 78.15 34.1 79.95 24.7
M 55.8 25.65
Q 56.9 25.9 57.7 26.4 58.5 26.95 58.95 27.85 59.45 28.8 59.45 30.15 59.45 31.8 58.55 32.95 57.7 34.1 56.05 34.4
L 60 41 55.9 41 52.65 34.75 50.95 34.75 50.95 41 47.55 41 47.55 25.4 53.55 25.4
Q 54.75 25.4 55.8 25.65
M 71.65 27.8
Q 72 28.7 72 29.85 72 30.6 71.85 31.2 71.7 31.8 71.45 32.3 71.15 32.8 70.8 33.2 70.4 33.65 70 34.05
L 65.25 38.1 72.15 38.1 72.15 41 61.3 41 61.3 37.5 67.35 32.05
Q 67.8 31.65 68.25 31.1 68.7 30.6 68.7 29.9 68.7 29.1 68.15 28.65 67.6 28.2 66.8 28.2 65.9 28.2 65.35 28.75 64.85 29.35 64.8 30.15
L 61.5 29.95
Q 61.55 28.7 62 27.85 62.4 26.95 63.15 26.35 63.85 25.75 64.85 25.45 65.85 25.15 67 25.15 68.05 25.15 68.95 25.45 69.9 25.75 70.55 26.35 71.25 26.9 71.65 27.8
M 54.15 28.4
Q 53.65 28.3 53.2 28.3
L 50.95 28.3 50.95 31.85 53 31.85
Q 53.45 31.85 53.95 31.85 54.5 31.8 54.9 31.65 55.3 31.45 55.6 31.1 55.85 30.75 55.85 30.15 55.85 29.55 55.65 29.2 55.4 28.85 55 28.65 54.65 28.45 54.15 28.4 Z"/>

<path fill="#8C8C8C" stroke="none" d="
M 72 29.85
Q 72 28.7 71.65 27.8 71.25 26.9 70.55 26.35 69.9 25.75 68.95 25.45 68.05 25.15 67 25.15 65.85 25.15 64.85 25.45 63.85 25.75 63.15 26.35 62.4 26.95 62 27.85 61.55 28.7 61.5 29.95
L 64.8 30.15
Q 64.85 29.35 65.35 28.75 65.9 28.2 66.8 28.2 67.6 28.2 68.15 28.65 68.7 29.1 68.7 29.9 68.7 30.6 68.25 31.1 67.8 31.65 67.35 32.05
L 61.3 37.5 61.3 41 72.15 41 72.15 38.1 65.25 38.1 70 34.05
Q 70.4 33.65 70.8 33.2 71.15 32.8 71.45 32.3 71.7 31.8 71.85 31.2 72 30.6 72 29.85
M 57.7 26.4
Q 56.9 25.9 55.8 25.65 54.75 25.4 53.55 25.4
L 47.55 25.4 47.55 41 50.95 41 50.95 34.75 52.65 34.75 55.9 41 60 41 56.05 34.4
Q 57.7 34.1 58.55 32.95 59.45 31.8 59.45 30.15 59.45 28.8 58.95 27.85 58.5 26.95 57.7 26.4
M 53.2 28.3
Q 53.65 28.3 54.15 28.4 54.65 28.45 55 28.65 55.4 28.85 55.65 29.2 55.85 29.55 55.85 30.15 55.85 30.75 55.6 31.1 55.3 31.45 54.9 31.65 54.5 31.8 53.95 31.85 53.45 31.85 53 31.85
L 50.95 31.85 50.95 28.3 53.2 28.3 Z"/>
</g>

<g id="Layer40_0_FILL">
<path fill="url(#Gradient_1)" stroke="none" d="
M 92.8 39.95
Q 92.5 39.6 92.15 39.25 87.85 35 81.85 34.85
L 65.15 34.85 65.15 18.15
Q 64.95 12.15 60.65 7.85 60.3 7.5 59.95 7.15 55.75 3.4 49.95 3.4 44.2 3.4 39.95 7.2 39.6 7.5 39.25 7.85 35 12.15 34.85 18.15
L 34.85 34.85 18.15 34.85
Q 12.15 35.05 7.85 39.35 7.5 39.7 7.15 40.05 3.4 44.25 3.4 50.05 3.4 55.8 7.2 60.05 7.5 60.4 7.85 60.75 12.15 65 18.15 65.15
L 34.85 65.15 34.85 81.85
Q 35.05 87.85 39.35 92.15 39.7 92.5 40.05 92.85 44.25 96.6 50.05 96.6 55.8 96.6 60.05 92.8 60.4 92.5 60.75 92.15 65 87.85 65.15 81.85
L 65.15 65.15 81.85 65.15
Q 87.85 64.95 92.15 60.65 92.5 60.3 92.85 59.95 96.6 55.75 96.6 49.95 96.6 44.2 92.8 39.95
M 86.85 44.55
L 86.85 44.6
Q 87 44.7 87.1 44.85 87.15 44.85 87.2 44.95 89.1 47.05 89.1 49.95 89.15 52.85 87.25 54.95 87.05 55.15 86.85 55.35 84.65 57.55 81.6 57.65
L 65.15 57.65
Q 62.05 57.65 59.85 59.85 57.65 62.05 57.65 65.15
L 57.65 81.65
Q 57.6 84.65 55.45 86.85
L 55.4 86.9
Q 55.3 87 55.15 87.1 55.1 87.2 55.05 87.25 52.95 89.1 50.05 89.1 47.2 89.15 45.1 87.3
L 45.05 87.25
Q 44.85 87.05 44.65 86.9
L 44.65 86.85
Q 42.45 84.65 42.35 81.6
L 42.35 65.15
Q 42.35 62.05 40.15 59.85 37.95 57.65 34.85 57.65
L 18.3 57.65
Q 15.3 57.55 13.15 55.45
L 13.1 55.45
Q 13 55.3 12.9 55.2 12.85 55.15 12.8 55.05 10.9 52.95 10.9 50.05 10.85 47.15 12.75 45.05 12.95 44.85 13.15 44.65 15.35 42.45 18.4 42.35
L 34.85 42.35
Q 37.95 42.35 40.15 40.15 42.35 37.95 42.35 34.85
L 42.35 18.35
Q 42.45 15.35 44.55 13.15 44.7 13 44.8 12.9 44.85 12.85 44.95 12.8 47.05 10.9 49.95 10.9 52.85 10.85 54.95 12.75 55.15 12.95 55.35 13.15 57.55 15.35 57.65 18.4
L 57.65 34.85
Q 57.65 37.95 59.85 40.15 62.05 42.35 65.15 42.35
L 81.65 42.35
Q 84.65 42.45 86.85 44.55 Z"/>

<path fill="url(#Gradient_2)" stroke="none" d="
M 86.85 44.6
L 86.85 44.55
Q 84.65 42.45 81.65 42.35
L 65.15 42.35
Q 62.05 42.35 59.85 40.15 57.65 37.95 57.65 34.85
L 57.65 18.4
Q 57.55 15.35 55.35 13.15 55.15 12.95 54.95 12.75 52.85 10.85 49.95 10.9 47.05 10.9 44.95 12.8 44.85 12.85 44.8 12.9 44.7 13 44.55 13.15 42.45 15.35 42.35 18.35
L 42.35 34.85
Q 42.35 37.95 40.15 40.15 37.95 42.35 34.85 42.35
L 18.4 42.35
Q 15.35 42.45 13.15 44.65 12.95 44.85 12.75 45.05 10.85 47.15 10.9 50.05 10.9 52.95 12.8 55.05 12.85 55.15 12.9 55.2 13 55.3 13.1 55.45
L 13.15 55.45
Q 15.3 57.55 18.3 57.65
L 34.85 57.65
Q 37.95 57.65 40.15 59.85 42.35 62.05 42.35 65.15
L 42.35 81.6
Q 42.45 84.65 44.65 86.85
L 44.65 86.9
Q 44.85 87.05 45.05 87.25
L 45.1 87.3
Q 47.2 89.15 50.05 89.1 52.95 89.1 55.05 87.25 55.1 87.2 55.15 87.1 55.3 87 55.4 86.9
L 55.45 86.85
Q 57.6 84.65 57.65 81.65
L 57.65 65.15
Q 57.65 62.05 59.85 59.85 62.05 57.65 65.15 57.65
L 81.6 57.65
Q 84.65 57.55 86.85 55.35 87.05 55.15 87.25 54.95 89.15 52.85 89.1 49.95 89.1 47.05 87.2 44.95 87.15 44.85 87.1 44.85 87 44.7 86.85 44.6 Z"/>
</g>

<g id="Layer39_0_FILL">
<path fill="url(#Gradient_5)" stroke="none" d="
M 92.8 39.95
Q 92.5 39.6 92.15 39.25 87.85 35 81.85 34.85
L 65.15 34.85 65.15 18.15
Q 64.95 12.15 60.65 7.85 60.3 7.5 59.95 7.15 55.75 3.4 49.95 3.4 44.2 3.4 39.95 7.2 39.6 7.5 39.25 7.85 35 12.15 34.85 18.15
L 34.85 34.85 18.15 34.85
Q 12.15 35.05 7.85 39.35 7.5 39.7 7.15 40.05 3.4 44.25 3.4 50.05 3.4 55.8 7.2 60.05 7.5 60.4 7.85 60.75 12.15 65 18.15 65.15
L 34.85 65.15 34.85 81.85
Q 35.05 87.85 39.35 92.15 39.7 92.5 40.05 92.85 44.25 96.6 50.05 96.6 55.8 96.6 60.05 92.8 60.4 92.5 60.75 92.15 65 87.85 65.15 81.85
L 65.15 65.15 81.85 65.15
Q 87.85 64.95 92.15 60.65 92.5 60.3 92.85 59.95 96.6 55.75 96.6 49.95 96.6 44.2 92.8 39.95
M 87.1 44.8
Q 87.15 44.85 87.2 44.95 89.1 47.05 89.1 49.95 89.15 52.85 87.25 54.95 87.05 55.15 86.85 55.35 84.65 57.55 81.6 57.65
L 65.15 57.65
Q 62.05 57.65 59.85 59.85 57.65 62.05 57.65 65.15
L 57.65 81.65
Q 57.55 84.65 55.45 86.85
L 55.4 86.85
Q 55.3 87 55.15 87.1 55.15 87.15 55.05 87.2 52.95 89.1 50.05 89.1 47.15 89.15 45.05 87.25 44.85 87.05 44.65 86.85 42.45 84.65 42.35 81.6
L 42.35 65.15
Q 42.35 62.05 40.15 59.85 37.95 57.65 34.85 57.65
L 18.35 57.65
Q 15.35 57.6 13.15 55.45
L 13.1 55.4
Q 13 55.3 12.9 55.15 12.8 55.1 12.75 55.05 10.9 52.95 10.9 50.05 10.85 47.2 12.7 45.1
L 12.75 45.05
Q 12.95 44.85 13.1 44.65
L 13.15 44.65
Q 15.35 42.45 18.4 42.35
L 34.85 42.35
Q 37.95 42.35 40.15 40.15 42.35 37.95 42.35 34.85
L 42.35 18.3
Q 42.45 15.3 44.55 13.15
L 44.55 13.1
Q 44.7 13 44.8 12.9 44.85 12.85 44.95 12.8 47.05 10.9 49.95 10.9 52.85 10.85 54.95 12.75 55.15 12.95 55.35 13.15 57.55 15.35 57.65 18.4
L 57.65 34.85
Q 57.65 37.95 59.85 40.15 62.05 42.35 65.15 42.35
L 81.65 42.35
Q 84.65 42.45 86.85 44.55 87 44.7 87.1 44.8 Z"/>

<path fill="url(#Gradient_6)" stroke="none" d="
M 87.2 44.95
Q 87.15 44.85 87.1 44.8 87 44.7 86.85 44.55 84.65 42.45 81.65 42.35
L 65.15 42.35
Q 62.05 42.35 59.85 40.15 57.65 37.95 57.65 34.85
L 57.65 18.4
Q 57.55 15.35 55.35 13.15 55.15 12.95 54.95 12.75 52.85 10.85 49.95 10.9 47.05 10.9 44.95 12.8 44.85 12.85 44.8 12.9 44.7 13 44.55 13.1
L 44.55 13.15
Q 42.45 15.3 42.35 18.3
L 42.35 34.85
Q 42.35 37.95 40.15 40.15 37.95 42.35 34.85 42.35
L 18.4 42.35
Q 15.35 42.45 13.15 44.65
L 13.1 44.65
Q 12.95 44.85 12.75 45.05
L 12.7 45.1
Q 10.85 47.2 10.9 50.05 10.9 52.95 12.75 55.05 12.8 55.1 12.9 55.15 13 55.3 13.1 55.4
L 13.15 55.45
Q 15.35 57.6 18.35 57.65
L 34.85 57.65
Q 37.95 57.65 40.15 59.85 42.35 62.05 42.35 65.15
L 42.35 81.6
Q 42.45 84.65 44.65 86.85 44.85 87.05 45.05 87.25 47.15 89.15 50.05 89.1 52.95 89.1 55.05 87.2 55.15 87.15 55.15 87.1 55.3 87 55.4 86.85
L 55.45 86.85
Q 57.55 84.65 57.65 81.65
L 57.65 65.15
Q 57.65 62.05 59.85 59.85 62.05 57.65 65.15 57.65
L 81.6 57.65
Q 84.65 57.55 86.85 55.35 87.05 55.15 87.25 54.95 89.15 52.85 89.1 49.95 89.1 47.05 87.2 44.95 Z"/>
</g>

<g id="Layer38_0_FILL">
<path fill="url(#Gradient_9)" stroke="none" d="
M 92.8 39.95
Q 92.5 39.6 92.15 39.25 87.85 35 81.85 34.85
L 65.15 34.85 65.15 18.15
Q 64.95 12.15 60.65 7.85 60.3 7.5 59.95 7.15 55.75 3.4 49.95 3.4 44.2 3.4 39.95 7.2 39.6 7.5 39.25 7.85 35 12.15 34.85 18.15
L 34.85 34.85 18.15 34.85
Q 12.15 35.05 7.85 39.35 7.5 39.7 7.15 40.05 3.4 44.25 3.4 50.05 3.4 55.8 7.2 60.05 7.5 60.4 7.85 60.75 12.15 65 18.15 65.15
L 34.85 65.15 34.85 81.85
Q 35.05 87.85 39.35 92.15 39.7 92.5 40.05 92.85 44.25 96.6 50.05 96.6 55.8 96.6 60.05 92.8 60.4 92.5 60.75 92.15 65 87.85 65.15 81.85
L 65.15 65.15 81.85 65.15
Q 87.85 64.95 92.15 60.65 92.5 60.3 92.85 59.95 96.6 55.75 96.6 49.95 96.6 44.2 92.8 39.95
M 87.1 44.8
Q 87.15 44.85 87.2 44.95 89.1 47.05 89.1 49.95 89.15 52.85 87.25 54.95 87.05 55.15 86.85 55.35 84.65 57.55 81.6 57.65
L 65.15 57.65
Q 62.05 57.65 59.85 59.85 57.65 62.05 57.65 65.15
L 57.65 81.65
Q 57.55 84.65 55.45 86.85 55.3 87 55.2 87.1 55.15 87.15 55.05 87.2 52.95 89.1 50.05 89.1 47.15 89.15 45.05 87.25 44.85 87.05 44.65 86.85 42.45 84.65 42.35 81.6
L 42.35 65.15
Q 42.35 62.05 40.15 59.85 37.95 57.65 34.85 57.65
L 18.35 57.65
Q 15.35 57.55 13.15 55.45
L 13.15 55.4
Q 13 55.3 12.9 55.15 12.85 55.15 12.8 55.05 10.9 52.95 10.9 50.05 10.85 47.15 12.75 45.05 12.95 44.85 13.15 44.65 15.35 42.45 18.4 42.35
L 34.85 42.35
Q 37.95 42.35 40.15 40.15 42.35 37.95 42.35 34.85
L 42.35 18.35
Q 42.4 15.35 44.55 13.15
L 44.6 13.1
Q 44.7 13 44.85 12.9 44.9 12.8 44.95 12.75 47.05 10.9 49.95 10.9 52.8 10.85 54.9 12.7
L 54.95 12.75
Q 55.15 12.95 55.35 13.1
L 55.35 13.15
Q 57.55 15.35 57.65 18.4
L 57.65 34.85
Q 57.65 37.95 59.85 40.15 62.05 42.35 65.15 42.35
L 81.7 42.35
Q 84.7 42.45 86.85 44.55
L 86.9 44.55
Q 87 44.7 87.1 44.8 Z"/>

<path fill="url(#Gradient_10)" stroke="none" d="
M 87.2 44.95
Q 87.15 44.85 87.1 44.8 87 44.7 86.9 44.55
L 86.85 44.55
Q 84.7 42.45 81.7 42.35
L 65.15 42.35
Q 62.05 42.35 59.85 40.15 57.65 37.95 57.65 34.85
L 57.65 18.4
Q 57.55 15.35 55.35 13.15
L 55.35 13.1
Q 55.15 12.95 54.95 12.75
L 54.9 12.7
Q 52.8 10.85 49.95 10.9 47.05 10.9 44.95 12.75 44.9 12.8 44.85 12.9 44.7 13 44.6 13.1
L 44.55 13.15
Q 42.4 15.35 42.35 18.35
L 42.35 34.85
Q 42.35 37.95 40.15 40.15 37.95 42.35 34.85 42.35
L 18.4 42.35
Q 15.35 42.45 13.15 44.65 12.95 44.85 12.75 45.05 10.85 47.15 10.9 50.05 10.9 52.95 12.8 55.05 12.85 55.15 12.9 55.15 13 55.3 13.15 55.4
L 13.15 55.45
Q 15.35 57.55 18.35 57.65
L 34.85 57.65
Q 37.95 57.65 40.15 59.85 42.35 62.05 42.35 65.15
L 42.35 81.6
Q 42.45 84.65 44.65 86.85 44.85 87.05 45.05 87.25 47.15 89.15 50.05 89.1 52.95 89.1 55.05 87.2 55.15 87.15 55.2 87.1 55.3 87 55.45 86.85 57.55 84.65 57.65 81.65
L 57.65 65.15
Q 57.65 62.05 59.85 59.85 62.05 57.65 65.15 57.65
L 81.6 57.65
Q 84.65 57.55 86.85 55.35 87.05 55.15 87.25 54.95 89.15 52.85 89.1 49.95 89.1 47.05 87.2 44.95 Z"/>
</g>

<g id="Layer37_0_FILL">
<path fill="url(#Gradient_13)" stroke="none" d="
M 92.8 39.95
Q 92.494140625 39.594140625 92.15 39.25 87.83515625 34.98359375 81.8 34.85
L 65.15 34.85 65.15 18.15
Q 64.95 12.15 60.65 7.85 60.3 7.5 59.95 7.15 55.75 3.4 49.95 3.4 44.2 3.4 39.95 7.2 39.6 7.5 39.25 7.85 35 12.15 34.85 18.15
L 34.85 34.85 18.15 34.85
Q 12.15 35.05 7.85 39.35 7.5 39.7 7.15 40.05 3.4 44.25 3.4 50.05 3.4 55.8 7.2 60.05 7.5 60.4 7.85 60.75 12.15 65 18.15 65.15
L 34.85 65.15 34.85 81.85
Q 35.05 87.85 39.35 92.15 39.7 92.5 40.05 92.85 44.25 96.6 50.05 96.6 55.8 96.6 60.05 92.8 60.4 92.5 60.75 92.15 65 87.85 65.15 81.85
L 65.15 65.15 81.8 65.15
Q 87.83515625 64.96484375 92.15 60.65 92.5015625 60.30234375 92.8 59.95 96.6 55.75234375 96.6 49.95 96.6 44.183203125 92.8 39.95
M 87.1 44.85
Q 87.175 44.897265625 87.2 44.95 89.1162109375 47.0650390625 89.1 49.95 89.126953125 52.8048828125 87.3 54.85 87.2763671875 54.901171875 87.25 54.9 87.0705078125 55.1271484375 86.85 55.3
L 86.85 55.35
Q 84.653515625 57.544140625 81.6 57.65
L 65.15 57.65
Q 62.044921875 57.6515625 59.85 59.85 57.6515625 62.044921875 57.65 65.15
L 57.65 81.65
Q 57.57265625 84.6865234375 55.45 86.85
L 55.4 86.85
Q 55.2994140625 86.9953125 55.15 87.1 55.1265625 87.15234375 55.05 87.2 52.9263671875 89.1037109375 50.05 89.1 47.1451171875 89.1255859375 45.05 87.25 44.85 87.05 44.65 86.85 42.4611328125 84.6556640625 42.35 81.6
L 42.35 65.15
Q 42.3482421875 62.044921875 40.15 59.85 37.9548828125 57.6515625 34.85 57.65
L 18.35 57.65
Q 15.326171875 57.57265625 13.15 55.45
L 13.1 55.4
Q 13.0046875 55.2994140625 12.9 55.15 12.8474609375 55.1265625 12.8 55.05 10.8962890625 52.9263671875 10.9 50.05 10.8744140625 47.1451171875 12.75 45.05 12.95 44.85 13.15 44.65 15.3443359375 42.4611328125 18.4 42.35
L 34.85 42.35
Q 37.9548828125 42.3482421875 40.15 40.15 42.3482421875 37.9548828125 42.35 34.85
L 42.35 18.35
Q 42.4271484375 15.3259765625 44.55 13.15
L 44.55 13.1
Q 44.700390625 13.0046875 44.8 12.9 44.8732421875 12.8474609375 44.95 12.8 47.0734375 10.8962890625 49.95 10.9 52.8546875 10.8744140625 54.95 12.75 55.15 12.95 55.35 13.15 57.5388671875 15.3443359375 57.65 18.4
L 57.65 34.85
Q 57.6515625 37.9548828125 59.85 40.15 62.044921875 42.3482421875 65.15 42.35
L 81.65 42.35
Q 84.6716796875 42.421484375 86.85 44.55
L 86.85 44.55
Q 86.9931640625 44.711328125 87.1 44.85 Z"/>

<path fill="url(#Gradient_14)" stroke="none" d="
M 87.2 44.95
Q 87.175 44.897265625 87.1 44.85 86.9931640625 44.711328125 86.85 44.55
L 86.85 44.55
Q 84.6716796875 42.421484375 81.65 42.35
L 65.15 42.35
Q 62.044921875 42.3482421875 59.85 40.15 57.6515625 37.9548828125 57.65 34.85
L 57.65 18.4
Q 57.5388671875 15.3443359375 55.35 13.15 55.15 12.95 54.95 12.75 52.8546875 10.8744140625 49.95 10.9 47.0734375 10.8962890625 44.95 12.8 44.8732421875 12.8474609375 44.8 12.9 44.700390625 13.0046875 44.55 13.1
L 44.55 13.15
Q 42.4271484375 15.3259765625 42.35 18.35
L 42.35 34.85
Q 42.3482421875 37.9548828125 40.15 40.15 37.9548828125 42.3482421875 34.85 42.35
L 18.4 42.35
Q 15.3443359375 42.4611328125 13.15 44.65 12.95 44.85 12.75 45.05 10.8744140625 47.1451171875 10.9 50.05 10.8962890625 52.9263671875 12.8 55.05 12.8474609375 55.1265625 12.9 55.15 13.0046875 55.2994140625 13.1 55.4
L 13.15 55.45
Q 15.326171875 57.57265625 18.35 57.65
L 34.85 57.65
Q 37.9548828125 57.6515625 40.15 59.85 42.3482421875 62.044921875 42.35 65.15
L 42.35 81.6
Q 42.4611328125 84.6556640625 44.65 86.85 44.85 87.05 45.05 87.25 47.1451171875 89.1255859375 50.05 89.1 52.9263671875 89.1037109375 55.05 87.2 55.1265625 87.15234375 55.15 87.1 55.2994140625 86.9953125 55.4 86.85
L 55.45 86.85
Q 57.57265625 84.6865234375 57.65 81.65
L 57.65 65.15
Q 57.6515625 62.044921875 59.85 59.85 62.044921875 57.6515625 65.15 57.65
L 81.6 57.65
Q 84.653515625 57.544140625 86.85 55.35
L 86.85 55.3
Q 87.0705078125 55.1271484375 87.25 54.9 87.2763671875 54.901171875 87.3 54.85 89.126953125 52.8048828125 89.1 49.95 89.1162109375 47.0650390625 87.2 44.95 Z"/>
</g>

<g id="Layer36_0_FILL">
<path fill="#313131" stroke="none" d="
M 92.8 39.95
Q 92.494140625 39.594140625 92.15 39.25 87.83515625 34.98359375 81.8 34.85
L 65.15 34.85 65.15 18.15
Q 64.95 12.15 60.65 7.85 60.3 7.5 59.95 7.15 55.75 3.4 49.95 3.4 44.2 3.4 39.95 7.2 39.6 7.5 39.25 7.85 35 12.15 34.85 18.15
L 34.85 34.85 18.15 34.85
Q 12.15 35.05 7.85 39.35 7.5 39.7 7.15 40.05 3.4 44.25 3.4 50.05 3.4 55.8 7.2 60.05 7.5 60.4 7.85 60.75 12.15 65 18.15 65.15
L 34.85 65.15 34.85 81.85
Q 35.05 87.85 39.35 92.15 39.7 92.5 40.05 92.85 44.25 96.6 50.05 96.6 55.8 96.6 60.05 92.8 60.4 92.5 60.75 92.15 65 87.85 65.15 81.85
L 65.15 65.15 81.8 65.15
Q 87.83515625 64.96484375 92.15 60.65 92.5015625 60.30234375 92.8 59.95 96.6 55.75234375 96.6 49.95 96.6 44.183203125 92.8 39.95
M 87.1 44.85
Q 87.175 44.897265625 87.2 44.95 89.1162109375 47.0650390625 89.1 49.95 89.126953125 52.8048828125 87.3 54.85 87.2763671875 54.901171875 87.25 54.9 87.0705078125 55.1271484375 86.85 55.3
L 86.85 55.35
Q 84.653515625 57.544140625 81.6 57.65
L 65.15 57.65
Q 62.044921875 57.6515625 59.85 59.85 57.6515625 62.044921875 57.65 65.15
L 57.65 81.65
Q 57.57265625 84.6865234375 55.45 86.85
L 55.4 86.85
Q 55.2994140625 86.9953125 55.15 87.1 55.1265625 87.15234375 55.05 87.2 52.9263671875 89.1037109375 50.05 89.1 47.1451171875 89.1255859375 45.05 87.25 44.85 87.05 44.65 86.85 42.4611328125 84.6556640625 42.35 81.6
L 42.35 65.15
Q 42.3482421875 62.044921875 40.15 59.85 37.9548828125 57.6515625 34.85 57.65
L 18.35 57.65
Q 15.326171875 57.57265625 13.15 55.45
L 13.1 55.4
Q 13.0046875 55.2994140625 12.9 55.15 12.8474609375 55.1265625 12.8 55.05 10.8962890625 52.9263671875 10.9 50.05 10.8744140625 47.1451171875 12.75 45.05 12.95 44.85 13.15 44.65 15.3443359375 42.4611328125 18.4 42.35
L 34.85 42.35
Q 37.9548828125 42.3482421875 40.15 40.15 42.3482421875 37.9548828125 42.35 34.85
L 42.35 18.35
Q 42.4271484375 15.3259765625 44.55 13.15
L 44.55 13.1
Q 44.700390625 13.0046875 44.8 12.9 44.8732421875 12.8474609375 44.95 12.8 47.0734375 10.8962890625 49.95 10.9 52.8546875 10.8744140625 54.95 12.75 55.15 12.95 55.35 13.15 57.5388671875 15.3443359375 57.65 18.4
L 57.65 34.85
Q 57.6515625 37.9548828125 59.85 40.15 62.044921875 42.3482421875 65.15 42.35
L 81.65 42.35
Q 84.6716796875 42.421484375 86.85 44.55
L 86.85 44.55
Q 86.9931640625 44.711328125 87.1 44.85 Z"/>

<path fill="#4F4F4F" stroke="none" d="
M 87.2 44.95
Q 87.175 44.897265625 87.1 44.85 86.9931640625 44.711328125 86.85 44.55
L 86.85 44.55
Q 84.6716796875 42.421484375 81.65 42.35
L 65.15 42.35
Q 62.044921875 42.3482421875 59.85 40.15 57.6515625 37.9548828125 57.65 34.85
L 57.65 18.4
Q 57.5388671875 15.3443359375 55.35 13.15 55.15 12.95 54.95 12.75 52.8546875 10.8744140625 49.95 10.9 47.0734375 10.8962890625 44.95 12.8 44.8732421875 12.8474609375 44.8 12.9 44.700390625 13.0046875 44.55 13.1
L 44.55 13.15
Q 42.4271484375 15.3259765625 42.35 18.35
L 42.35 34.85
Q 42.3482421875 37.9548828125 40.15 40.15 37.9548828125 42.3482421875 34.85 42.35
L 18.4 42.35
Q 15.3443359375 42.4611328125 13.15 44.65 12.95 44.85 12.75 45.05 10.8744140625 47.1451171875 10.9 50.05 10.8962890625 52.9263671875 12.8 55.05 12.8474609375 55.1265625 12.9 55.15 13.0046875 55.2994140625 13.1 55.4
L 13.15 55.45
Q 15.326171875 57.57265625 18.35 57.65
L 34.85 57.65
Q 37.9548828125 57.6515625 40.15 59.85 42.3482421875 62.044921875 42.35 65.15
L 42.35 81.6
Q 42.4611328125 84.6556640625 44.65 86.85 44.85 87.05 45.05 87.25 47.1451171875 89.1255859375 50.05 89.1 52.9263671875 89.1037109375 55.05 87.2 55.1265625 87.15234375 55.15 87.1 55.2994140625 86.9953125 55.4 86.85
L 55.45 86.85
Q 57.57265625 84.6865234375 57.65 81.65
L 57.65 65.15
Q 57.6515625 62.044921875 59.85 59.85 62.044921875 57.6515625 65.15 57.65
L 81.6 57.65
Q 84.653515625 57.544140625 86.85 55.35
L 86.85 55.3
Q 87.0705078125 55.1271484375 87.25 54.9 87.2763671875 54.901171875 87.3 54.85 89.126953125 52.8048828125 89.1 49.95 89.1162109375 47.0650390625 87.2 44.95 Z"/>
</g>

<g id="Layer35_0_FILL">
<path fill="#FFFFFF" stroke="none" d="
M 50.1 17.15
L 60.6 6.65 39.6 6.65 50.1 17.15 Z"/>

<path fill="#272727" stroke="none" d="
M 36.15 81.05
Q 30.55 79.1 30.7 76.3
L 30.7 68.8
Q 29.6 69.2 28.55 69.65 19.65 73.55 19.65 79.1 19.65 84.65 28.55 88.5 37.45 92.4 50 92.4 62.55 92.4 71.45 88.5 80.35 84.65 80.35 79.1 80.35 73.55 71.45 69.65 71.4 69.6 71.3 69.6 70.35 69.2 69.35 68.85
L 69.35 76.3
Q 69.35 79.1 63.7 81.05 58 83.05 49.95 83.05 41.9 83.05 36.15 81.05 Z"/>

<path fill="#3F3F3F" stroke="none" d="
M 90.35 37.55
Q 88.9 32.75 85.75 30.65 83.2 28.75 76.9 27.3 76 27.1 75.1 26.9 64.45 24.7 50 24.7 34.3 24.7 23.2 27.3 14.7 29.25 12.8 31.9 10.75 34 9.7 37.55 7.65 45.65 16.45 49.8 21.4 52.05 25.5 53.05 30.55 55 30.7 60.55
L 30.7 68.8 30.7 76.3
Q 30.55 79.1 36.15 81.05 41.9 83.05 49.95 83.05 58 83.05 63.7 81.05 69.35 79.1 69.35 76.3
L 69.35 68.85 69.35 60.55
Q 69.5 55 74.55 53.05 78.65 52.05 83.6 49.8 92.4 45.65 90.35 37.55
M 81.7 35.3
L 81.7 35.5
Q 81.7 38.3 72.45 40.25 63.1 42.25 49.9 42.25 36.75 42.25 27.35 40.25 18.15 38.3 18.4 35.5 18.35 35.1 18.5 34.75 19.4 32.45 27.35 30.75 36.75 28.75 49.9 28.75 63.1 28.75 72.45 30.75 80.45 32.45 81.55 34.75 81.6 34.9 81.65 35.05 81.7 35.15 81.7 35.3
M 56.75 51.8
Q 57.95 52.55 58.6 53.85 59.3 55.15 59.3 57.15 59.3 59.5 58.05 61.15 56.8 62.8 54.5 63.2
L 60.15 72.65 54.25 72.65 49.6 63.75 47.2 63.75 47.2 72.65 42.3 72.65 42.3 50.35 50.9 50.35
Q 52.6 50.35 54.1 50.7 55.65 51.05 56.75 51.8
M 52.95 55
Q 52.4 54.7 51.75 54.6 51.05 54.55 50.4 54.55
L 47.2 54.55 47.2 59.55 50.05 59.55
Q 50.75 59.55 51.45 59.5 52.2 59.5 52.8 59.25 53.4 59.05 53.8 58.55 54.15 58.05 54.15 57.1 54.15 56.25 53.85 55.75 53.5 55.25 52.95 55 Z"/>

<path fill="#8C8C8C" stroke="none" d="
M 58.6 53.85
Q 57.95 52.55 56.75 51.8 55.65 51.05 54.1 50.7 52.6 50.35 50.9 50.35
L 42.3 50.35 42.3 72.65 47.2 72.65 47.2 63.75 49.6 63.75 54.25 72.65 60.15 72.65 54.5 63.2
Q 56.8 62.8 58.05 61.15 59.3 59.5 59.3 57.15 59.3 55.15 58.6 53.85
M 51.75 54.6
Q 52.4 54.7 52.95 55 53.5 55.25 53.85 55.75 54.15 56.25 54.15 57.1 54.15 58.05 53.8 58.55 53.4 59.05 52.8 59.25 52.2 59.5 51.45 59.5 50.75 59.55 50.05 59.55
L 47.2 59.55 47.2 54.55 50.4 54.55
Q 51.05 54.55 51.75 54.6 Z"/>

<path fill="#555555" stroke="none" d="
M 81.7 35.5
L 81.7 35.3
Q 81.7 35.15 81.65 35.05 81.6 34.9 81.55 34.75 80.45 32.45 72.45 30.75 63.1 28.75 49.9 28.75 36.75 28.75 27.35 30.75 19.4 32.45 18.5 34.75 18.35 35.1 18.4 35.5 18.15 38.3 27.35 40.25 36.75 42.25 49.9 42.25 63.1 42.25 72.45 40.25 81.7 38.3 81.7 35.5 Z"/>
</g>

<g id="Layer34_0_FILL">
<path fill="#FFFFFF" stroke="none" d="
M 50.1 17.15
L 60.6 6.65 39.6 6.65 50.1 17.15 Z"/>

<path fill="#272727" stroke="none" d="
M 36.15 81.05
Q 30.55 79.1 30.7 76.3
L 30.7 68.8
Q 29.6 69.2 28.55 69.65 19.65 73.55 19.65 79.1 19.65 84.65 28.55 88.5 37.45 92.4 50 92.4 62.55 92.4 71.45 88.5 80.35 84.65 80.35 79.1 80.35 73.55 71.45 69.65 71.4 69.6 71.3 69.6 70.35 69.2 69.35 68.85
L 69.35 76.3
Q 69.35 79.1 63.7 81.05 58 83.05 49.95 83.05 41.9 83.05 36.15 81.05 Z"/>

<path fill="#3F3F3F" stroke="none" d="
M 90.35 37.55
Q 88.9 32.75 85.75 30.65 83.2 28.75 76.9 27.3 76 27.1 75.1 26.9 64.45 24.7 50 24.7 34.3 24.7 23.2 27.3 14.7 29.25 12.8 31.9 10.75 34 9.7 37.55 7.65 45.65 16.45 49.8 21.4 52.05 25.5 53.05 30.55 55 30.7 60.55
L 30.7 68.8 30.7 76.3
Q 30.55 79.1 36.15 81.05 41.9 83.05 49.95 83.05 58 83.05 63.7 81.05 69.35 79.1 69.35 76.3
L 69.35 68.85 69.35 60.55
Q 69.5 55 74.55 53.05 78.65 52.05 83.6 49.8 92.4 45.65 90.35 37.55
M 81.7 35.3
L 81.7 35.5
Q 81.7 38.3 72.45 40.25 63.1 42.25 49.9 42.25 36.75 42.25 27.35 40.25 18.15 38.3 18.4 35.5 18.35 35.1 18.5 34.75 19.4 32.45 27.35 30.75 36.75 28.75 49.9 28.75 63.1 28.75 72.45 30.75 80.45 32.45 81.55 34.75 81.6 34.9 81.65 35.05 81.7 35.15 81.7 35.3
M 44.35 50.35
L 49.25 50.35 49.25 68.1 58.35 68.1 58.35 72.65 44.35 72.65 44.35 50.35 Z"/>

<path fill="#8C8C8C" stroke="none" d="
M 49.25 50.35
L 44.35 50.35 44.35 72.65 58.35 72.65 58.35 68.1 49.25 68.1 49.25 50.35 Z"/>

<path fill="#555555" stroke="none" d="
M 81.7 35.5
L 81.7 35.3
Q 81.7 35.15 81.65 35.05 81.6 34.9 81.55 34.75 80.45 32.45 72.45 30.75 63.1 28.75 49.9 28.75 36.75 28.75 27.35 30.75 19.4 32.45 18.5 34.75 18.35 35.1 18.4 35.5 18.15 38.3 27.35 40.25 36.75 42.25 49.9 42.25 63.1 42.25 72.45 40.25 81.7 38.3 81.7 35.5 Z"/>
</g>

<g id="Layer33_0_FILL">
<path fill="#272727" stroke="none" d="
M 79.85 20.15
Q 67.5 7.8 50 7.8 32.5 7.8 20.15 20.15 7.8 32.5 7.8 50 7.8 67.5 20.15 79.85 32.5 92.2 50 92.2 67.5 92.2 79.85 79.85 92.2 67.5 92.2 50 92.2 32.5 79.85 20.15
M 50 15.95
Q 64.2 15.95 74.1 25.95 84.1 35.9 84.1 50 84.1 64.2 74.1 74.1 64.2 84.1 50 84.1 35.9 84.1 25.95 74.1 15.95 64.2 15.95 50 15.95 35.9 25.95 25.95 35.9 15.95 50 15.95 Z"/>

<path fill="#3C3C3C" stroke="none" d="
M 74.1 25.95
Q 64.2 15.95 50 15.95 35.9 15.95 25.95 25.95 15.95 35.9 15.95 50 15.95 64.2 25.95 74.1 35.9 84.1 50 84.1 64.2 84.1 74.1 74.1 84.1 64.2 84.1 50 84.1 35.9 74.1 25.95
M 82.2 50
Q 82.2 51.268359375 82.1 52.5
L 77.8 52.5
Q 77.53671875 55.71015625 76.6 58.6
L 80.6 60.3
Q 79.840234375 62.6869140625 78.65 64.9
L 74.7 63.25
Q 73.3615234375 65.6876953125 71.45 67.95
L 74.5 71
Q 73.6869140625 71.9130859375 72.8 72.8 71.887109375 73.712890625 70.9 74.5
L 67.9 71.5
Q 65.479296875 73.5103515625 62.8 74.9
L 64.4 78.95
Q 62.170703125 80.0837890625 59.75 80.8
L 58.15 76.75
Q 55.4259765625 77.5837890625 52.5 77.8
L 52.5 82.15
Q 51.267578125 82.25 50 82.25 48.7322265625 82.25 47.5 82.15
L 47.5 77.8
Q 44.304296875 77.5353515625 41.4 76.6
L 39.65 80.65
Q 37.31015625 79.887109375 35.1 78.7
L 36.8 74.65
Q 34.368359375 73.348828125 32.15 71.45
L 29.05 74.55
Q 28.11171875 73.7166015625 27.2 72.8 26.314453125 71.914453125 25.5 71
L 28.6 67.9
Q 26.53515625 65.4916015625 25.15 62.75
L 21.05 64.4
Q 19.95234375 62.16796875 19.2 59.75
L 23.3 58.1
Q 22.5236328125 55.42421875 22.3 52.5
L 17.85 52.5
Q 17.8 51.26796875 17.8 50 17.8 48.732421875 17.85 47.5
L 22.3 47.5
Q 22.5712890625 44.3568359375 23.45 41.45
L 19.35 39.75
Q 20.1376953125 37.371484375 21.3 35.15
L 25.4 36.85
Q 26.7173828125 34.4447265625 28.6 32.2
L 25.45 29.05
Q 26.3 28.15 27.2 27.25 28.09765625 26.34765625 29 25.5
L 32.15 28.65
Q 34.5685546875 26.6119140625 37.25 25.2
L 35.55 21.05
Q 37.816796875 19.9484375 40.2 19.2
L 41.9 23.3
Q 44.56484375 22.525390625 47.5 22.3
L 47.5 17.85
Q 48.73203125 17.8 50 17.8 51.267578125 17.8 52.5 17.85
L 52.5 22.25
Q 55.633203125 22.525390625 58.5 23.4
L 60.25 19.35
Q 62.6337890625 20.1580078125 64.85 21.3
L 63.1 25.35
Q 65.625 26.707421875 67.85 28.6
L 70.95 25.5
Q 71.9001953125 26.3501953125 72.8 27.25 73.7 28.15 74.5 29.05
L 71.45 32.15
Q 73.4640625 34.5408203125 74.9 37.25
L 78.9 35.6
Q 80.051953125 37.84375 80.8 40.25
L 76.75 41.9
Q 77.5765625 44.5783203125 77.8 47.5
L 82.1 47.5
Q 82.2 48.7326171875 82.2 50 Z"/>

<path fill="url(#Gradient_17)" stroke="none" d="
M 82.1 52.5
Q 82.2 51.268359375 82.2 50 82.2 48.7326171875 82.1 47.5
L 77.8 47.5
Q 77.5765625 44.5783203125 76.75 41.9
L 80.8 40.25
Q 80.051953125 37.84375 78.9 35.6
L 74.9 37.25
Q 73.4640625 34.5408203125 71.45 32.15
L 74.5 29.05
Q 73.7 28.15 72.8 27.25 71.9001953125 26.3501953125 70.95 25.5
L 67.85 28.6
Q 65.625 26.707421875 63.1 25.35
L 64.85 21.3
Q 62.6337890625 20.1580078125 60.25 19.35
L 58.5 23.4
Q 55.633203125 22.525390625 52.5 22.25
L 52.5 17.85
Q 51.267578125 17.8 50 17.8 48.73203125 17.8 47.5 17.85
L 47.5 22.3
Q 44.56484375 22.525390625 41.9 23.3
L 40.2 19.2
Q 37.816796875 19.9484375 35.55 21.05
L 37.25 25.2
Q 34.5685546875 26.6119140625 32.15 28.65
L 29 25.5
Q 28.09765625 26.34765625 27.2 27.25 26.3 28.15 25.45 29.05
L 28.6 32.2
Q 26.7173828125 34.4447265625 25.4 36.85
L 21.3 35.15
Q 20.1376953125 37.371484375 19.35 39.75
L 23.45 41.45
Q 22.5712890625 44.3568359375 22.3 47.5
L 17.85 47.5
Q 17.8 48.732421875 17.8 50 17.8 51.26796875 17.85 52.5
L 22.3 52.5
Q 22.5236328125 55.42421875 23.3 58.1
L 19.2 59.75
Q 19.95234375 62.16796875 21.05 64.4
L 25.15 62.75
Q 26.53515625 65.4916015625 28.6 67.9
L 25.5 71
Q 26.314453125 71.914453125 27.2 72.8 28.11171875 73.7166015625 29.05 74.55
L 32.15 71.45
Q 34.368359375 73.348828125 36.8 74.65
L 35.1 78.7
Q 37.31015625 79.887109375 39.65 80.65
L 41.4 76.6
Q 44.304296875 77.5353515625 47.5 77.8
L 47.5 82.15
Q 48.7322265625 82.25 50 82.25 51.267578125 82.25 52.5 82.15
L 52.5 77.8
Q 55.4259765625 77.5837890625 58.15 76.75
L 59.75 80.8
Q 62.170703125 80.0837890625 64.4 78.95
L 62.8 74.9
Q 65.479296875 73.5103515625 67.9 71.5
L 70.9 74.5
Q 71.887109375 73.712890625 72.8 72.8 73.6869140625 71.9130859375 74.5 71
L 71.45 67.95
Q 73.3615234375 65.6876953125 74.7 63.25
L 78.65 64.9
Q 79.840234375 62.6869140625 80.6 60.3
L 76.6 58.6
Q 77.53671875 55.71015625 77.8 52.5
L 82.1 52.5
M 51.7 26.25
Q 54.91328125 26.4326171875 57.8 27.4
L 57.75 27.35
Q 59.358984375 27.9443359375 60.85 28.7
L 60.85 28.65
Q 63.3751953125 29.9677734375 65.6 31.95
L 65.65 31.95
Q 66.2873046875 32.5291015625 66.9 33.15 67.525390625 33.7646484375 68.1 34.4 68.148046875 34.4267578125 68.15 34.45 70.1904296875 36.7953125 71.55 39.5
L 71.55 39.45
Q 72.2921875 41.007421875 72.85 42.7
L 72.85 42.7
Q 73.66953125 45.312890625 73.85 48.2 73.8986328125 49.1 73.9 50 73.8986328125 50.9224609375 73.85 51.8 73.6232421875 54.949609375 72.7 57.75 72.14140625 59.4482421875 71.35 61.05
L 71.4 61
Q 70.1046875 63.388671875 68.2 65.6 68.20078125 65.6255859375 68.15 65.65 67.5728515625 66.287890625 66.9 66.9 66.2408203125 67.6201171875 65.6 68.2 65.573046875 68.2478515625 65.55 68.25 63.23125 70.2212890625 60.65 71.55 60.6248046875 71.5619140625 60.6 71.55 59.0326171875 72.3025390625 57.35 72.85
L 57.4 72.85
Q 54.739453125 73.669921875 51.85 73.85 50.9486328125 73.8986328125 50 73.9 49.1248046875 73.8986328125 48.25 73.85 45.0630859375 73.6205078125 42.2 72.65 40.58046875 72.0923828125 39.1 71.35
L 39.1 71.35
Q 36.651953125 70.092578125 34.45 68.15
L 34.4 68.15
Q 33.7765625 67.5376953125 33.15 66.9 32.5771484375 66.3353515625 32 65.7 31.99765625 65.6767578125 31.95 65.65 29.8259765625 63.2701171875 28.5 60.5 27.7765625 59.02265625 27.3 57.45 27.31171875 57.4529296875 27.3 57.4 26.4326171875 54.724609375 26.25 51.75 26.2015625 50.8984375 26.2 50 26.2015625 49.127734375 26.25 48.3 26.4794921875 45.1130859375 27.45 42.25
L 27.45 42.2
Q 27.9521484375 40.6923828125 28.7 39.25 28.73515625 39.224609375 28.75 39.2 30.0240234375 36.6380859375 32.05 34.35 32.098046875 34.323046875 32.1 34.3 32.62734375 33.71484375 33.15 33.15 33.7001953125 32.6306640625 34.2 32.15 34.258203125 32.1501953125 34.3 32.1 36.7291015625 29.9244140625 39.5 28.55
L 39.55 28.55
Q 41.006640625 27.8111328125 42.6 27.3
L 42.6 27.3
Q 45.2888671875 26.4294921875 48.25 26.25 49.1146484375 26.2015625 50 26.2 50.8853515625 26.2015625 51.7 26.25 Z"/>

<path fill="#555555" stroke="none" d="
M 57.8 27.4
Q 54.91328125 26.4326171875 51.7 26.25 50.8853515625 26.2015625 50 26.2 49.1146484375 26.2015625 48.25 26.25 45.2888671875 26.4294921875 42.6 27.3
L 42.6 27.3
Q 41.006640625 27.8111328125 39.55 28.55
L 39.5 28.55
Q 36.7291015625 29.9244140625 34.3 32.1 34.258203125 32.1501953125 34.2 32.15 33.7001953125 32.6306640625 33.15 33.15 32.62734375 33.71484375 32.1 34.3 32.098046875 34.323046875 32.05 34.35 30.0240234375 36.6380859375 28.75 39.2 28.73515625 39.224609375 28.7 39.25 27.9521484375 40.6923828125 27.45 42.2
L 27.45 42.25
Q 26.4794921875 45.1130859375 26.25 48.3 26.2015625 49.127734375 26.2 50 26.2015625 50.8984375 26.25 51.75 26.4326171875 54.724609375 27.3 57.4 27.31171875 57.4529296875 27.3 57.45 27.7765625 59.02265625 28.5 60.5 29.8259765625 63.2701171875 31.95 65.65 31.99765625 65.6767578125 32 65.7 32.5771484375 66.3353515625 33.15 66.9 33.7765625 67.5376953125 34.4 68.15
L 34.45 68.15
Q 36.651953125 70.092578125 39.1 71.35
L 39.1 71.35
Q 40.58046875 72.0923828125 42.2 72.65 45.0630859375 73.6205078125 48.25 73.85 49.1248046875 73.8986328125 50 73.9 50.9486328125 73.8986328125 51.85 73.85 54.739453125 73.669921875 57.4 72.85
L 57.35 72.85
Q 59.0326171875 72.3025390625 60.6 71.55 60.6248046875 71.5619140625 60.65 71.55 63.23125 70.2212890625 65.55 68.25 65.573046875 68.2478515625 65.6 68.2 66.2408203125 67.6201171875 66.9 66.9 67.5728515625 66.287890625 68.15 65.65 68.20078125 65.6255859375 68.2 65.6 70.1046875 63.388671875 71.4 61
L 71.35 61.05
Q 72.14140625 59.4482421875 72.7 57.75 73.6232421875 54.949609375 73.85 51.8 73.8986328125 50.9224609375 73.9 50 73.8986328125 49.1 73.85 48.2 73.66953125 45.312890625 72.85 42.7
L 72.85 42.7
Q 72.2921875 41.007421875 71.55 39.45
L 71.55 39.5
Q 70.1904296875 36.7953125 68.15 34.45 68.148046875 34.4267578125 68.1 34.4 67.525390625 33.7646484375 66.9 33.15 66.2873046875 32.5291015625 65.65 31.95
L 65.6 31.95
Q 63.3751953125 29.9677734375 60.85 28.65
L 60.85 28.7
Q 59.358984375 27.9443359375 57.75 27.35
L 57.8 27.4
M 50 31.4
Q 57.8 31.4 63.25 36.9 68.7 42.3 68.7 50 68.7 57.8 63.25 63.25 57.8 68.7 50 68.7 42.3 68.7 36.9 63.25 31.4 57.8 31.4 50 31.4 42.3 36.9 36.9 42.3 31.4 50 31.4 Z"/>

<path fill="#3F3F3F" stroke="none" d="
M 63.25 36.9
Q 57.8 31.4 50 31.4 42.3 31.4 36.9 36.9 31.4 42.3 31.4 50 31.4 57.8 36.9 63.25 42.3 68.7 50 68.7 57.8 68.7 63.25 63.25 68.7 57.8 68.7 50 68.7 42.3 63.25 36.9
M 57.5 39.3
Q 58.8 40.15 59.55 41.6 60.3 43.05 60.3 45.25 60.3 47.85 58.95 49.7 57.55 51.55 54.95 52
L 61.25 62.5 54.7 62.5 49.5 52.6 46.85 52.6 46.85 62.5 41.4 62.5 41.4 37.7 50.95 37.7
Q 52.85 37.7 54.55 38.1 56.25 38.45 57.5 39.3
M 46.85 47.95
L 50.05 47.95
Q 50.8 47.95 51.6 47.9 52.4 47.85 53.1 47.6 53.75 47.35 54.2 46.8 54.6 46.25 54.6 45.2 54.6 44.25 54.25 43.7 53.85 43.15 53.25 42.85 52.65 42.55 51.9 42.45 51.15 42.35 50.4 42.35
L 46.85 42.35 46.85 47.95 Z"/>

<path fill="#8C8C8C" stroke="none" d="
M 59.55 41.6
Q 58.8 40.15 57.5 39.3 56.25 38.45 54.55 38.1 52.85 37.7 50.95 37.7
L 41.4 37.7 41.4 62.5 46.85 62.5 46.85 52.6 49.5 52.6 54.7 62.5 61.25 62.5 54.95 52
Q 57.55 51.55 58.95 49.7 60.3 47.85 60.3 45.25 60.3 43.05 59.55 41.6
M 50.05 47.95
L 46.85 47.95 46.85 42.35 50.4 42.35
Q 51.15 42.35 51.9 42.45 52.65 42.55 53.25 42.85 53.85 43.15 54.25 43.7 54.6 44.25 54.6 45.2 54.6 46.25 54.2 46.8 53.75 47.35 53.1 47.6 52.4 47.85 51.6 47.9 50.8 47.95 50.05 47.95 Z"/>
</g>

<g id="Layer32_0_FILL">
<path fill="#272727" stroke="none" d="
M 79.85 20.15
Q 67.5 7.8 50 7.8 32.5 7.8 20.15 20.15 7.8 32.5 7.8 50 7.8 67.5 20.15 79.85 32.5 92.2 50 92.2 67.5 92.2 79.85 79.85 92.2 67.5 92.2 50 92.2 32.5 79.85 20.15
M 50 15.95
Q 64.2 15.95 74.1 25.95 84.1 35.9 84.1 50 84.1 64.2 74.1 74.1 64.2 84.1 50 84.1 35.9 84.1 25.95 74.1 15.95 64.2 15.95 50 15.95 35.9 25.95 25.95 35.9 15.95 50 15.95 Z"/>

<path fill="#3C3C3C" stroke="none" d="
M 74.1 25.95
Q 64.2 15.95 50 15.95 35.9 15.95 25.95 25.95 15.95 35.9 15.95 50 15.95 64.2 25.95 74.1 35.9 84.1 50 84.1 64.2 84.1 74.1 74.1 84.1 64.2 84.1 50 84.1 35.9 74.1 25.95
M 82.2 50
Q 82.2 51.268359375 82.1 52.5
L 77.8 52.5
Q 77.53671875 55.71015625 76.6 58.6
L 80.6 60.3
Q 79.840234375 62.6869140625 78.65 64.9
L 74.7 63.25
Q 73.3615234375 65.6876953125 71.45 67.95
L 74.5 71
Q 73.6869140625 71.9130859375 72.8 72.8 71.887109375 73.712890625 70.9 74.5
L 67.9 71.5
Q 65.479296875 73.5103515625 62.8 74.9
L 64.4 78.95
Q 62.170703125 80.0837890625 59.75 80.8
L 58.15 76.75
Q 55.4259765625 77.5837890625 52.5 77.8
L 52.5 82.15
Q 51.267578125 82.25 50 82.25 48.7322265625 82.25 47.5 82.15
L 47.5 77.8
Q 44.304296875 77.5353515625 41.4 76.6
L 39.65 80.65
Q 37.31015625 79.887109375 35.1 78.7
L 36.8 74.65
Q 34.368359375 73.348828125 32.15 71.45
L 29.05 74.55
Q 28.11171875 73.7166015625 27.2 72.8 26.314453125 71.914453125 25.5 71
L 28.6 67.9
Q 26.53515625 65.4916015625 25.15 62.75
L 21.05 64.4
Q 19.95234375 62.16796875 19.2 59.75
L 23.3 58.1
Q 22.5236328125 55.42421875 22.3 52.5
L 17.85 52.5
Q 17.8 51.26796875 17.8 50 17.8 48.732421875 17.85 47.5
L 22.3 47.5
Q 22.5712890625 44.3568359375 23.45 41.45
L 19.35 39.75
Q 20.1376953125 37.371484375 21.3 35.15
L 25.4 36.85
Q 26.7173828125 34.4447265625 28.6 32.2
L 25.45 29.05
Q 26.3 28.15 27.2 27.25 28.09765625 26.34765625 29 25.5
L 32.15 28.65
Q 34.5685546875 26.6119140625 37.25 25.2
L 35.55 21.05
Q 37.816796875 19.9484375 40.2 19.2
L 41.9 23.3
Q 44.56484375 22.525390625 47.5 22.3
L 47.5 17.85
Q 48.73203125 17.8 50 17.8 51.267578125 17.8 52.5 17.85
L 52.5 22.25
Q 55.633203125 22.525390625 58.5 23.4
L 60.25 19.35
Q 62.6337890625 20.1580078125 64.85 21.3
L 63.1 25.35
Q 65.625 26.707421875 67.85 28.6
L 70.95 25.5
Q 71.9001953125 26.3501953125 72.8 27.25 73.7 28.15 74.5 29.05
L 71.45 32.15
Q 73.4640625 34.5408203125 74.9 37.25
L 78.9 35.6
Q 80.051953125 37.84375 80.8 40.25
L 76.75 41.9
Q 77.5765625 44.5783203125 77.8 47.5
L 82.1 47.5
Q 82.2 48.7326171875 82.2 50 Z"/>

<path fill="url(#Gradient_17)" stroke="none" d="
M 82.1 52.5
Q 82.2 51.268359375 82.2 50 82.2 48.7326171875 82.1 47.5
L 77.8 47.5
Q 77.5765625 44.5783203125 76.75 41.9
L 80.8 40.25
Q 80.051953125 37.84375 78.9 35.6
L 74.9 37.25
Q 73.4640625 34.5408203125 71.45 32.15
L 74.5 29.05
Q 73.7 28.15 72.8 27.25 71.9001953125 26.3501953125 70.95 25.5
L 67.85 28.6
Q 65.625 26.707421875 63.1 25.35
L 64.85 21.3
Q 62.6337890625 20.1580078125 60.25 19.35
L 58.5 23.4
Q 55.633203125 22.525390625 52.5 22.25
L 52.5 17.85
Q 51.267578125 17.8 50 17.8 48.73203125 17.8 47.5 17.85
L 47.5 22.3
Q 44.56484375 22.525390625 41.9 23.3
L 40.2 19.2
Q 37.816796875 19.9484375 35.55 21.05
L 37.25 25.2
Q 34.5685546875 26.6119140625 32.15 28.65
L 29 25.5
Q 28.09765625 26.34765625 27.2 27.25 26.3 28.15 25.45 29.05
L 28.6 32.2
Q 26.7173828125 34.4447265625 25.4 36.85
L 21.3 35.15
Q 20.1376953125 37.371484375 19.35 39.75
L 23.45 41.45
Q 22.5712890625 44.3568359375 22.3 47.5
L 17.85 47.5
Q 17.8 48.732421875 17.8 50 17.8 51.26796875 17.85 52.5
L 22.3 52.5
Q 22.5236328125 55.42421875 23.3 58.1
L 19.2 59.75
Q 19.95234375 62.16796875 21.05 64.4
L 25.15 62.75
Q 26.53515625 65.4916015625 28.6 67.9
L 25.5 71
Q 26.314453125 71.914453125 27.2 72.8 28.11171875 73.7166015625 29.05 74.55
L 32.15 71.45
Q 34.368359375 73.348828125 36.8 74.65
L 35.1 78.7
Q 37.31015625 79.887109375 39.65 80.65
L 41.4 76.6
Q 44.304296875 77.5353515625 47.5 77.8
L 47.5 82.15
Q 48.7322265625 82.25 50 82.25 51.267578125 82.25 52.5 82.15
L 52.5 77.8
Q 55.4259765625 77.5837890625 58.15 76.75
L 59.75 80.8
Q 62.170703125 80.0837890625 64.4 78.95
L 62.8 74.9
Q 65.479296875 73.5103515625 67.9 71.5
L 70.9 74.5
Q 71.887109375 73.712890625 72.8 72.8 73.6869140625 71.9130859375 74.5 71
L 71.45 67.95
Q 73.3615234375 65.6876953125 74.7 63.25
L 78.65 64.9
Q 79.840234375 62.6869140625 80.6 60.3
L 76.6 58.6
Q 77.53671875 55.71015625 77.8 52.5
L 82.1 52.5
M 51.7 26.25
Q 54.91328125 26.4326171875 57.8 27.4
L 57.75 27.35
Q 59.358984375 27.9443359375 60.85 28.7
L 60.85 28.65
Q 63.3751953125 29.9677734375 65.6 31.95
L 65.65 31.95
Q 66.2873046875 32.5291015625 66.9 33.15 67.525390625 33.7646484375 68.1 34.4 68.148046875 34.4267578125 68.15 34.45 70.1904296875 36.7953125 71.55 39.5
L 71.55 39.45
Q 72.2921875 41.007421875 72.85 42.7
L 72.85 42.7
Q 73.66953125 45.312890625 73.85 48.2 73.8986328125 49.1 73.9 50 73.8986328125 50.9224609375 73.85 51.8 73.6232421875 54.949609375 72.7 57.75 72.14140625 59.4482421875 71.35 61.05
L 71.4 61
Q 70.1046875 63.388671875 68.2 65.6 68.20078125 65.6255859375 68.15 65.65 67.5728515625 66.287890625 66.9 66.9 66.2408203125 67.6201171875 65.6 68.2 65.573046875 68.2478515625 65.55 68.25 63.23125 70.2212890625 60.65 71.55 60.6248046875 71.5619140625 60.6 71.55 59.0326171875 72.3025390625 57.35 72.85
L 57.4 72.85
Q 54.739453125 73.669921875 51.85 73.85 50.9486328125 73.8986328125 50 73.9 49.1248046875 73.8986328125 48.25 73.85 45.0630859375 73.6205078125 42.2 72.65 40.58046875 72.0923828125 39.1 71.35
L 39.1 71.35
Q 36.651953125 70.092578125 34.45 68.15
L 34.4 68.15
Q 33.7765625 67.5376953125 33.15 66.9 32.5771484375 66.3353515625 32 65.7 31.99765625 65.6767578125 31.95 65.65 29.8259765625 63.2701171875 28.5 60.5 27.7765625 59.02265625 27.3 57.45 27.31171875 57.4529296875 27.3 57.4 26.4326171875 54.724609375 26.25 51.75 26.2015625 50.8984375 26.2 50 26.2015625 49.127734375 26.25 48.3 26.4794921875 45.1130859375 27.45 42.25
L 27.45 42.2
Q 27.9521484375 40.6923828125 28.7 39.25 28.73515625 39.224609375 28.75 39.2 30.0240234375 36.6380859375 32.05 34.35 32.098046875 34.323046875 32.1 34.3 32.62734375 33.71484375 33.15 33.15 33.7001953125 32.6306640625 34.2 32.15 34.258203125 32.1501953125 34.3 32.1 36.7291015625 29.9244140625 39.5 28.55
L 39.55 28.55
Q 41.006640625 27.8111328125 42.6 27.3
L 42.6 27.3
Q 45.2888671875 26.4294921875 48.25 26.25 49.1146484375 26.2015625 50 26.2 50.8853515625 26.2015625 51.7 26.25 Z"/>

<path fill="#555555" stroke="none" d="
M 57.8 27.4
Q 54.91328125 26.4326171875 51.7 26.25 50.8853515625 26.2015625 50 26.2 49.1146484375 26.2015625 48.25 26.25 45.2888671875 26.4294921875 42.6 27.3
L 42.6 27.3
Q 41.006640625 27.8111328125 39.55 28.55
L 39.5 28.55
Q 36.7291015625 29.9244140625 34.3 32.1 34.258203125 32.1501953125 34.2 32.15 33.7001953125 32.6306640625 33.15 33.15 32.62734375 33.71484375 32.1 34.3 32.098046875 34.323046875 32.05 34.35 30.0240234375 36.6380859375 28.75 39.2 28.73515625 39.224609375 28.7 39.25 27.9521484375 40.6923828125 27.45 42.2
L 27.45 42.25
Q 26.4794921875 45.1130859375 26.25 48.3 26.2015625 49.127734375 26.2 50 26.2015625 50.8984375 26.25 51.75 26.4326171875 54.724609375 27.3 57.4 27.31171875 57.4529296875 27.3 57.45 27.7765625 59.02265625 28.5 60.5 29.8259765625 63.2701171875 31.95 65.65 31.99765625 65.6767578125 32 65.7 32.5771484375 66.3353515625 33.15 66.9 33.7765625 67.5376953125 34.4 68.15
L 34.45 68.15
Q 36.651953125 70.092578125 39.1 71.35
L 39.1 71.35
Q 40.58046875 72.0923828125 42.2 72.65 45.0630859375 73.6205078125 48.25 73.85 49.1248046875 73.8986328125 50 73.9 50.9486328125 73.8986328125 51.85 73.85 54.739453125 73.669921875 57.4 72.85
L 57.35 72.85
Q 59.0326171875 72.3025390625 60.6 71.55 60.6248046875 71.5619140625 60.65 71.55 63.23125 70.2212890625 65.55 68.25 65.573046875 68.2478515625 65.6 68.2 66.2408203125 67.6201171875 66.9 66.9 67.5728515625 66.287890625 68.15 65.65 68.20078125 65.6255859375 68.2 65.6 70.1046875 63.388671875 71.4 61
L 71.35 61.05
Q 72.14140625 59.4482421875 72.7 57.75 73.6232421875 54.949609375 73.85 51.8 73.8986328125 50.9224609375 73.9 50 73.8986328125 49.1 73.85 48.2 73.66953125 45.312890625 72.85 42.7
L 72.85 42.7
Q 72.2921875 41.007421875 71.55 39.45
L 71.55 39.5
Q 70.1904296875 36.7953125 68.15 34.45 68.148046875 34.4267578125 68.1 34.4 67.525390625 33.7646484375 66.9 33.15 66.2873046875 32.5291015625 65.65 31.95
L 65.6 31.95
Q 63.3751953125 29.9677734375 60.85 28.65
L 60.85 28.7
Q 59.358984375 27.9443359375 57.75 27.35
L 57.8 27.4
M 50 31.4
Q 57.8 31.4 63.25 36.9 68.7 42.3 68.7 50 68.7 57.8 63.25 63.25 57.8 68.7 50 68.7 42.3 68.7 36.9 63.25 31.4 57.8 31.4 50 31.4 42.3 36.9 36.9 42.3 31.4 50 31.4 Z"/>

<path fill="#3F3F3F" stroke="none" d="
M 63.25 36.9
Q 57.8 31.4 50 31.4 42.3 31.4 36.9 36.9 31.4 42.3 31.4 50 31.4 57.8 36.9 63.25 42.3 68.7 50 68.7 57.8 68.7 63.25 63.25 68.7 57.8 68.7 50 68.7 42.3 63.25 36.9
M 43.55 37.7
L 49 37.7 49 57.45 59.1 57.45 59.1 62.5 43.55 62.5 43.55 37.7 Z"/>

<path fill="#8C8C8C" stroke="none" d="
M 49 37.7
L 43.55 37.7 43.55 62.5 59.1 62.5 59.1 57.45 49 57.45 49 37.7 Z"/>
</g>

<g id="Layer31_0_FILL">
<path fill="#313131" stroke="none" d="
M 84.8 30.8
Q 83 29 81.05 27.6 74.3 22.85 65.55 22.85 65.5 22.85 65.45 22.85
L 34.4 22.85
Q 23.2 22.9 15.3 30.8 12.45 33.6 10.65 36.85 7.3 42.7 7.3 50 7.3 57.3 10.65 63.15 12.45 66.4 15.3 69.25 23.2 77.15 34.4 77.2
L 65.45 77.2
Q 65.5 77.2 65.55 77.2 74.3 77.2 81.05 72.45 83 71.05 84.8 69.25 92.7 61.3 92.7 50 92.7 38.75 84.8 30.8
M 86.25 50
Q 86.25 58 81.05 63.75 80.6 64.2 80.2 64.65 74.15 70.7 65.55 70.7 65.5 70.7 65.45 70.7
L 34.4 70.7
Q 25.9 70.7 19.85 64.65 13.8 58.6 13.8 50 13.8 41.45 19.85 35.4 25.9 29.35 34.4 29.35
L 65.45 29.35
Q 65.5 29.35 65.55 29.35 74.15 29.35 80.2 35.4 80.6 35.85 81.05 36.3 86.25 42.05 86.25 50 Z"/>

<path fill="#4F4F4F" stroke="none" d="
M 81.05 63.75
Q 86.25 58 86.25 50 86.25 42.05 81.05 36.3 80.6 35.85 80.2 35.4 74.15 29.35 65.55 29.35 65.5 29.35 65.45 29.35
L 34.4 29.35
Q 25.9 29.35 19.85 35.4 13.8 41.45 13.8 50 13.8 58.6 19.85 64.65 25.9 70.7 34.4 70.7
L 65.45 70.7
Q 65.5 70.7 65.55 70.7 74.15 70.7 80.2 64.65 80.6 64.2 81.05 63.75
M 46.15 46.15
Q 47.45 44.9 49.2 44.65 49.6 44.6 50 44.6 50.4 44.6 50.8 44.65 52.55 44.9 53.8 46.15 55.4 47.75 55.4 50 55.4 52.25 53.8 53.8 52.25 55.4 50 55.4 47.75 55.4 46.15 53.8 44.6 52.25 44.6 50 44.6 47.75 46.15 46.15
M 65.8 44.65
Q 67.55 44.9 68.8 46.15 70.4 47.75 70.4 50 70.4 52.25 68.8 53.8 67.25 55.4 65 55.4 62.75 55.4 61.15 53.8 59.6 52.25 59.6 50 59.6 47.75 61.15 46.15 62.45 44.9 64.2 44.65 64.6 44.6 65 44.6 65.4 44.6 65.8 44.65
M 35.8 44.65
Q 37.55 44.9 38.8 46.15 40.4 47.75 40.4 50 40.4 52.25 38.8 53.8 37.25 55.4 35 55.4 32.75 55.4 31.15 53.8 29.6 52.25 29.6 50 29.6 47.75 31.15 46.15 32.45 44.9 34.2 44.65 34.6 44.6 35 44.6 35.4 44.6 35.8 44.65 Z"/>

<path fill="#999999" stroke="none" d="
M 38.8 46.15
Q 37.55 44.9 35.8 44.65 35.4 44.6 35 44.6 34.6 44.6 34.2 44.65 32.45 44.9 31.15 46.15 29.6 47.75 29.6 50 29.6 52.25 31.15 53.8 32.75 55.4 35 55.4 37.25 55.4 38.8 53.8 40.4 52.25 40.4 50 40.4 47.75 38.8 46.15
M 68.8 46.15
Q 67.55 44.9 65.8 44.65 65.4 44.6 65 44.6 64.6 44.6 64.2 44.65 62.45 44.9 61.15 46.15 59.6 47.75 59.6 50 59.6 52.25 61.15 53.8 62.75 55.4 65 55.4 67.25 55.4 68.8 53.8 70.4 52.25 70.4 50 70.4 47.75 68.8 46.15
M 49.2 44.65
Q 47.45 44.9 46.15 46.15 44.6 47.75 44.6 50 44.6 52.25 46.15 53.8 47.75 55.4 50 55.4 52.25 55.4 53.8 53.8 55.4 52.25 55.4 50 55.4 47.75 53.8 46.15 52.55 44.9 50.8 44.65 50.4 44.6 50 44.6 49.6 44.6 49.2 44.65 Z"/>
</g>

<g id="Layer30_0_FILL">
<path fill="#313131" stroke="none" d="
M 84.8 30.8
Q 83 29 81.05 27.6 74.3 22.85 65.55 22.85 65.5 22.85 65.45 22.85
L 34.4 22.85
Q 23.2 22.9 15.3 30.8 12.45 33.6 10.65 36.85 7.3 42.7 7.3 50 7.3 57.3 10.65 63.15 12.45 66.4 15.3 69.25 23.2 77.15 34.4 77.2
L 65.45 77.2
Q 65.5 77.2 65.55 77.2 74.3 77.2 81.05 72.45 83 71.05 84.8 69.25 92.7 61.3 92.7 50 92.7 38.75 84.8 30.8
M 86.25 50
Q 86.25 58 81.05 63.75 80.6 64.2 80.2 64.65 74.15 70.7 65.55 70.7 65.5 70.7 65.45 70.7
L 34.4 70.7
Q 25.9 70.7 19.85 64.65 13.8 58.6 13.8 50 13.8 41.45 19.85 35.4 25.9 29.35 34.4 29.35
L 65.45 29.35
Q 65.5 29.35 65.55 29.35 74.15 29.35 80.2 35.4 80.6 35.85 81.05 36.3 86.25 42.05 86.25 50 Z"/>

<path fill="#4F4F4F" stroke="none" d="
M 81.05 63.75
Q 86.25 58 86.25 50 86.25 42.05 81.05 36.3 80.6 35.85 80.2 35.4 74.15 29.35 65.55 29.35 65.5 29.35 65.45 29.35
L 34.4 29.35
Q 25.9 29.35 19.85 35.4 13.8 41.45 13.8 50 13.8 58.6 19.85 64.65 25.9 70.7 34.4 70.7
L 65.45 70.7
Q 65.5 70.7 65.55 70.7 74.15 70.7 80.2 64.65 80.6 64.2 81.05 63.75
M 62.25 59.85
L 37.9 59.85 62.25 59.85
M 62.25 40.65
L 37.9 40.65 62.25 40.65
M 62.25 50.15
L 37.9 50.15 62.25 50.15 Z"/>
</g>

<g id="Layer29_0_FILL">
<path fill="#313131" stroke="none" d="
M 75.25 24.7
Q 64.85 14.3 50 14.3 35.2 14.3 24.75 24.7 14.3 35.15 14.3 50 14.3 64.8 24.75 75.25 29.71015625 80.21015625 35.65 82.8 42.2248046875 85.7 50 85.7 57.8166015625 85.7 64.4 82.8 70.32421875 80.1994140625 75.25 75.25 85.7 64.8 85.7 50 85.7 35.15 75.25 24.7
M 50 22.8
Q 61.3 22.8 69.25 30.75 77.2 38.7 77.2 50 77.2 61.3 69.25 69.25 66.963671875 71.536328125 64.4 73.15 58.0501953125 77.2 50 77.2 42.004296875 77.2 35.65 73.15 33.0642578125 71.5498046875 30.75 69.25 22.8 61.3 22.8 50 22.8 38.7 30.75 30.75 38.75 22.8 50 22.8 Z"/>

<path fill="#4F4F4F" stroke="none" d="
M 69.25 30.75
Q 61.3 22.8 50 22.8 38.75 22.8 30.75 30.75 22.8 38.7 22.8 50 22.8 61.3 30.75 69.25 33.0642578125 71.5498046875 35.65 73.15 42.004296875 77.2 50 77.2 58.0501953125 77.2 64.4 73.15 66.963671875 71.536328125 69.25 69.25 77.2 61.3 77.2 50 77.2 38.7 69.25 30.75
M 62.7 37.35
L 62.7 43 62.7 37.35 57 37.35 62.7 37.35
M 37.35 43
L 37.35 37.35 43 37.35 37.35 37.35 37.35 43
M 37.35 62.7
L 37.35 57 37.35 62.7 43 62.7 37.35 62.7
M 62.7 57
L 62.7 62.7 57 62.7 62.7 62.7 62.7 57 Z"/>
</g>

<g id="Layer28_0_FILL">
<path fill="#313131" stroke="none" d="
M 75.25 24.7
Q 64.85 14.3 50 14.3 35.2 14.3 24.75 24.7 14.3 35.15 14.3 50 14.3 64.8 24.75 75.25 35.2 85.7 50 85.7 64.85 85.7 75.25 75.25 85.7 64.8 85.7 50 85.7 35.15 75.25 24.7
M 50 22.8
Q 61.3 22.8 69.25 30.75 77.2 38.7 77.2 50 77.2 61.3 69.25 69.25 61.3 77.2 50 77.2 38.75 77.2 30.75 69.25 22.8 61.3 22.8 50 22.8 38.7 30.75 30.75 38.75 22.8 50 22.8 Z"/>

<path fill="#4F4F4F" stroke="none" d="
M 69.25 30.75
Q 61.3 22.8 50 22.8 38.75 22.8 30.75 30.75 22.8 38.7 22.8 50 22.8 61.3 30.75 69.25 38.75 77.2 50 77.2 61.3 77.2 69.25 69.25 77.2 61.3 77.2 50 77.2 38.7 69.25 30.75
M 42.85 32.9
Q 47.5 32.9 50.8 36.2 54.05 39.5 54.05 44.1 54.05 48.75 50.8 52.05 47.5 55.35 42.85 55.35 38.2 55.35 34.95 52.05 31.65 48.75 31.65 44.1 31.65 39.5 34.95 36.2 38.2 32.9 42.85 32.9
M 56.4 47.9
Q 57.65 46.65 59.45 46.65 61.25 46.65 62.55 47.9 63.8 49.15 63.8 50.95 63.8 52.75 62.55 54.05 61.25 55.3 59.45 55.3 57.65 55.3 56.4 54.05 55.1 52.75 55.1 50.95 55.1 49.15 56.4 47.9
M 67.05 43.5
Q 67.65 44.1 67.65 45 67.65 45.85 67.05 46.5 66.4 47.1 65.5 47.1 64.65 47.1 64 46.5 63.4 45.85 63.4 45 63.4 44.1 64 43.5 64.65 42.85 65.5 42.85 66.4 42.85 67.05 43.5
M 63.1 58.1
Q 64.6 59.6 64.6 61.7 64.6 63.85 63.1 65.35 61.6 66.85 59.45 66.85 57.35 66.85 55.85 65.35 54.3 63.85 54.3 61.7 54.3 59.6 55.85 58.1 57.35 56.55 59.45 56.55 61.6 56.55 63.1 58.1 Z"/>

<path fill="#999999" stroke="none" d="
M 64.6 61.7
Q 64.6 59.6 63.1 58.1 61.6 56.55 59.45 56.55 57.35 56.55 55.85 58.1 54.3 59.6 54.3 61.7 54.3 63.85 55.85 65.35 57.35 66.85 59.45 66.85 61.6 66.85 63.1 65.35 64.6 63.85 64.6 61.7
M 67.65 45
Q 67.65 44.1 67.05 43.5 66.4 42.85 65.5 42.85 64.65 42.85 64 43.5 63.4 44.1 63.4 45 63.4 45.85 64 46.5 64.65 47.1 65.5 47.1 66.4 47.1 67.05 46.5 67.65 45.85 67.65 45
M 59.45 46.65
Q 57.65 46.65 56.4 47.9 55.1 49.15 55.1 50.95 55.1 52.75 56.4 54.05 57.65 55.3 59.45 55.3 61.25 55.3 62.55 54.05 63.8 52.75 63.8 50.95 63.8 49.15 62.55 47.9 61.25 46.65 59.45 46.65
M 50.8 36.2
Q 47.5 32.9 42.85 32.9 38.2 32.9 34.95 36.2 31.65 39.5 31.65 44.1 31.65 48.75 34.95 52.05 38.2 55.35 42.85 55.35 47.5 55.35 50.8 52.05 54.05 48.75 54.05 44.1 54.05 39.5 50.8 36.2 Z"/>
</g>

<g id="Layer27_0_FILL">
<path fill="#1B1B1B" stroke="none" d="
M 78.55 21.4
L 78.6 21.4
Q 66.8 9.6 50 9.6 33.25 9.6 21.35 21.4 9.55 33.25 9.55 50 9.55 66.75 21.35 78.6
L 21.35 78.65
Q 33.25 90.45 50 90.45 66.75 90.45 78.55 78.65
L 78.6 78.6
Q 90.45 66.75 90.45 50 90.45 33.2 78.55 21.4
M 50 13.6
Q 65.1 13.6 75.75 24.25 86.45 34.9 86.45 50 86.45 65.1 75.75 75.8 65.1 86.45 50 86.45 34.9 86.45 24.2 75.8
L 24.15 75.8
Q 13.55 65.1 13.55 50 13.55 34.9 24.15 24.25
L 24.2 24.2
Q 34.9 13.6 50 13.6 Z"/>

<path fill="#313131" stroke="none" d="
M 75.75 24.25
Q 65.1 13.6 50 13.6 34.9 13.6 24.2 24.2
L 24.15 24.25
Q 13.55 34.9 13.55 50 13.55 65.1 24.15 75.8
L 24.2 75.8
Q 34.9 86.45 50 86.45 65.1 86.45 75.75 75.8 86.45 65.1 86.45 50 86.45 34.9 75.75 24.25
M 71.9 28.05
L 71.95 28.05
Q 81 37.1 81 50 81 62.85 71.95 71.95 62.85 81 50 81 37.1 81 28.05 71.95
L 28.05 71.9
Q 19 62.8 19 50 19 37.15 28.05 28.05 37.15 19 50 19 62.8 19 71.9 28.05 Z"/>

<path fill="#626262" stroke="none" d="
M 71.95 28.05
L 71.9 28.05
Q 62.8 19 50 19 37.15 19 28.05 28.05 19 37.15 19 50 19 62.8 28.05 71.9
L 28.05 71.95
Q 37.1 81 50 81 62.85 81 71.95 71.95 81 62.85 81 50 81 37.1 71.95 28.05
M 50 23
Q 61.2 23 69.1 30.9 77 38.8 77 50 77 61.15 69.1 69.1 61.15 77 50 77 38.8 77 30.9 69.1 23 61.2 23 50 23 38.8 30.85 30.9
L 30.9 30.85
Q 38.8 23 50 23 Z"/>

<path fill="#4F4F4F" stroke="none" d="
M 69.1 30.9
Q 61.2 23 50 23 38.8 23 30.9 30.85
L 30.85 30.9
Q 23 38.8 23 50 23 61.2 30.9 69.1 38.8 77 50 77 61.15 77 69.1 69.1 77 61.15 77 50 77 38.8 69.1 30.9
M 50.55 44.4
L 57.05 33.25 65.55 33.25 55.25 48.3 66.8 65.1 57.95 65.1 50.2 52.25 42.65 65.1 34.3 65.1 45.45 48.45 34.95 33.25 43.75 33.25 50.55 44.4 Z"/>

<path fill="#999999" stroke="none" d="
M 57.05 33.25
L 50.55 44.4 43.75 33.25 34.95 33.25 45.45 48.45 34.3 65.1 42.65 65.1 50.2 52.25 57.95 65.1 66.8 65.1 55.25 48.3 65.55 33.25 57.05 33.25 Z"/>
</g>

<g id="Layer26_0_FILL">
<path fill="#1B1B1B" stroke="none" d="
M 78.55 21.4
L 78.6 21.4
Q 66.8 9.6 50 9.6 33.25 9.6 21.35 21.4 9.55 33.25 9.55 50 9.55 66.75 21.35 78.6
L 21.35 78.65
Q 33.25 90.45 50 90.45 66.75 90.45 78.55 78.65
L 78.6 78.6
Q 90.45 66.75 90.45 50 90.45 33.2 78.55 21.4
M 50 13.6
Q 65.1 13.6 75.75 24.25 86.45 34.9 86.45 50 86.45 65.1 75.75 75.8 65.1 86.45 50 86.45 34.9 86.45 24.2 75.8
L 24.15 75.8
Q 13.55 65.1 13.55 50 13.55 34.9 24.15 24.25
L 24.2 24.2
Q 34.9 13.6 50 13.6 Z"/>

<path fill="#313131" stroke="none" d="
M 75.75 24.25
Q 65.1 13.6 50 13.6 34.9 13.6 24.2 24.2
L 24.15 24.25
Q 13.55 34.9 13.55 50 13.55 65.1 24.15 75.8
L 24.2 75.8
Q 34.9 86.45 50 86.45 65.1 86.45 75.75 75.8 86.45 65.1 86.45 50 86.45 34.9 75.75 24.25
M 71.9 28.05
L 71.95 28.05
Q 81 37.1 81 50 81 62.85 71.95 71.95 62.85 81 50 81 37.1 81 28.05 71.95
L 28.05 71.9
Q 19 62.8 19 50 19 37.15 28.05 28.05 37.15 19 50 19 62.8 19 71.9 28.05 Z"/>

<path fill="#626262" stroke="none" d="
M 71.95 28.05
L 71.9 28.05
Q 62.8 19 50 19 37.15 19 28.05 28.05 19 37.15 19 50 19 62.8 28.05 71.9
L 28.05 71.95
Q 37.1 81 50 81 62.85 81 71.95 71.95 81 62.85 81 50 81 37.1 71.95 28.05
M 50 23
Q 61.2 23 69.1 30.9 77 38.8 77 50 77 61.15 69.1 69.1 61.15 77 50 77 38.8 77 30.9 69.1 23 61.2 23 50 23 38.8 30.85 30.9
L 30.9 30.85
Q 38.8 23 50 23 Z"/>

<path fill="#4F4F4F" stroke="none" d="
M 69.1 30.9
Q 61.2 23 50 23 38.8 23 30.9 30.85
L 30.85 30.9
Q 23 38.8 23 50 23 61.2 30.9 69.1 38.8 77 50 77 61.15 77 69.1 69.1 77 61.15 77 50 77 38.8 69.1 30.9
M 50.05 46.8
L 57.2 34.9 65.5 34.9 53.55 53.15 53.55 66.75 46.5 66.75 46.5 53.15 34.55 34.9 43.3 34.9 50.05 46.8 Z"/>

<path fill="#999999" stroke="none" d="
M 57.2 34.9
L 50.05 46.8 43.3 34.9 34.55 34.9 46.5 53.15 46.5 66.75 53.55 66.75 53.55 53.15 65.5 34.9 57.2 34.9 Z"/>
</g>

<g id="Layer25_0_FILL">
<path fill="#1B1B1B" stroke="none" d="
M 78.55 21.4
L 78.6 21.4
Q 66.8 9.6 50 9.6 33.25 9.6 21.35 21.4 9.55 33.25 9.55 50 9.55 66.75 21.35 78.6
L 21.35 78.65
Q 33.25 90.45 50 90.45 66.75 90.45 78.55 78.65
L 78.6 78.6
Q 90.45 66.75 90.45 50 90.45 33.2 78.55 21.4
M 50 13.6
Q 65.1 13.6 75.75 24.25 86.45 34.9 86.45 50 86.45 65.1 75.75 75.8 65.1 86.45 50 86.45 34.9 86.45 24.2 75.8
L 24.15 75.8
Q 13.55 65.1 13.55 50 13.55 34.9 24.15 24.25
L 24.2 24.2
Q 34.9 13.6 50 13.6 Z"/>

<path fill="#313131" stroke="none" d="
M 75.75 24.25
Q 65.1 13.6 50 13.6 34.9 13.6 24.2 24.2
L 24.15 24.25
Q 13.55 34.9 13.55 50 13.55 65.1 24.15 75.8
L 24.2 75.8
Q 34.9 86.45 50 86.45 65.1 86.45 75.75 75.8 86.45 65.1 86.45 50 86.45 34.9 75.75 24.25
M 71.9 28.05
L 71.95 28.05
Q 81 37.1 81 50 81 62.85 71.95 71.95 62.85 81 50 81 37.1 81 28.05 71.95
L 28.05 71.9
Q 19 62.8 19 50 19 37.15 28.05 28.05 37.15 19 50 19 62.8 19 71.9 28.05 Z"/>

<path fill="#626262" stroke="none" d="
M 71.95 28.05
L 71.9 28.05
Q 62.8 19 50 19 37.15 19 28.05 28.05 19 37.15 19 50 19 62.8 28.05 71.9
L 28.05 71.95
Q 37.1 81 50 81 62.85 81 71.95 71.95 81 62.85 81 50 81 37.1 71.95 28.05
M 50 23
Q 61.2 23 69.1 30.9 77 38.8 77 50 77 61.15 69.1 69.1 61.15 77 50 77 38.8 77 30.9 69.1 23 61.2 23 50 23 38.8 30.85 30.9
L 30.9 30.85
Q 38.8 23 50 23 Z"/>

<path fill="#4F4F4F" stroke="none" d="
M 69.1 30.9
Q 61.2 23 50 23 38.8 23 30.9 30.85
L 30.85 30.9
Q 23 38.8 23 50 23 61.2 30.9 69.1 38.8 77 50 77 61.15 77 69.1 69.1 77 61.15 77 50 77 38.8 69.1 30.9
M 51.35 33.25
Q 53.45 33.25 55.5 33.55 57.65 33.85 59.3 34.7 60.95 35.6 62 37.15 63 38.75 63 41.35 63 44.05 61.5 45.85 60 47.6 57.55 48.35
L 57.55 48.45
Q 59.1 48.7 60.4 49.3 61.65 50 62.55 51 63.5 52 64 53.35 64.5 54.7 64.5 56.25 64.5 58.75 63.4 60.45 62.35 62.15 60.6 63.15 58.9 64.2 56.75 64.65 54.65 65.1 52.55 65.1
L 39.5 65.1 39.5 33.25 51.35 33.25
M 55.95 58.35
Q 56.6 57.9 57.05 57.2 57.5 56.45 57.5 55.45 57.5 54.3 56.9 53.6 56.35 52.9 55.5 52.55 54.65 52.2 53.65 52.05 52.65 51.9 51.8 51.9
L 46.5 51.9 46.5 59.15 52.8 59.15
Q 53.6 59.15 54.45 59 55.3 58.8 55.95 58.35
M 46.5 39.15
L 46.5 46 51.6 46
Q 52.4 46 53.2 45.8 54 45.65 54.6 45.2 55.25 44.8 55.65 44.15 56 43.45 56 42.5 56 41.5 55.6 40.85 55.15 40.2 54.45 39.85 53.8 39.5 52.95 39.35 52.1 39.15 51.3 39.15
L 46.5 39.15 Z"/>

<path fill="#999999" stroke="none" d="
M 55.5 33.55
Q 53.45 33.25 51.35 33.25
L 39.5 33.25 39.5 65.1 52.55 65.1
Q 54.65 65.1 56.75 64.65 58.9 64.2 60.6 63.15 62.35 62.15 63.4 60.45 64.5 58.75 64.5 56.25 64.5 54.7 64 53.35 63.5 52 62.55 51 61.65 50 60.4 49.3 59.1 48.7 57.55 48.45
L 57.55 48.35
Q 60 47.6 61.5 45.85 63 44.05 63 41.35 63 38.75 62 37.15 60.95 35.6 59.3 34.7 57.65 33.85 55.5 33.55
M 46.5 46
L 46.5 39.15 51.3 39.15
Q 52.1 39.15 52.95 39.35 53.8 39.5 54.45 39.85 55.15 40.2 55.6 40.85 56 41.5 56 42.5 56 43.45 55.65 44.15 55.25 44.8 54.6 45.2 54 45.65 53.2 45.8 52.4 46 51.6 46
L 46.5 46
M 57.05 57.2
Q 56.6 57.9 55.95 58.35 55.3 58.8 54.45 59 53.6 59.15 52.8 59.15
L 46.5 59.15 46.5 51.9 51.8 51.9
Q 52.65 51.9 53.65 52.05 54.65 52.2 55.5 52.55 56.35 52.9 56.9 53.6 57.5 54.3 57.5 55.45 57.5 56.45 57.05 57.2 Z"/>
</g>

<g id="Layer24_0_FILL">
<path fill="#1B1B1B" stroke="none" d="
M 78.6 21.4
Q 66.8 9.6 50 9.6 33.25 9.6 21.35 21.4 9.55 33.25 9.55 50 9.55 66.75 21.35 78.6
L 21.35 78.65
Q 33.25 90.45 50 90.45 66.75 90.45 78.55 78.65
L 78.6 78.6
Q 90.45 66.75 90.45 50 90.45 33.2 78.55 21.4
L 78.6 21.4
M 50 13.6
Q 65.1 13.6 75.75 24.25 86.45 34.9 86.45 50 86.45 65.1 75.75 75.8 65.1 86.45 50 86.45 34.9 86.45 24.2 75.8
L 24.15 75.8
Q 13.55 65.1 13.55 50 13.55 34.9 24.15 24.25
L 24.2 24.2
Q 34.9 13.6 50 13.6 Z"/>

<path fill="#313131" stroke="none" d="
M 75.75 24.25
Q 65.1 13.6 50 13.6 34.9 13.6 24.2 24.2
L 24.15 24.25
Q 13.55 34.9 13.55 50 13.55 65.1 24.15 75.8
L 24.2 75.8
Q 34.9 86.45 50 86.45 65.1 86.45 75.75 75.8 86.45 65.1 86.45 50 86.45 34.9 75.75 24.25
M 71.9 28.05
L 71.95 28.05
Q 81 37.1 81 50 81 62.85 71.95 71.95 62.85 81 50 81 37.1 81 28.05 71.95
L 28.05 71.9
Q 19 62.8 19 50 19 37.15 28.05 28.05 37.15 19 50 19 62.8 19 71.9 28.05 Z"/>

<path fill="#626262" stroke="none" d="
M 71.95 28.05
L 71.9 28.05
Q 62.8 19 50 19 37.15 19 28.05 28.05 19 37.15 19 50 19 62.8 28.05 71.9
L 28.05 71.95
Q 37.1 81 50 81 62.85 81 71.95 71.95 81 62.85 81 50 81 37.1 71.95 28.05
M 50 23
Q 61.2 23 69.1 30.9 77 38.8 77 50 77 61.15 69.1 69.1 61.15 77 50 77 38.8 77 30.9 69.1 23 61.2 23 50 23 38.8 30.85 30.9
L 30.9 30.85
Q 38.8 23 50 23 Z"/>

<path fill="#4F4F4F" stroke="none" d="
M 69.1 30.9
Q 61.2 23 50 23 38.8 23 30.9 30.85
L 30.85 30.9
Q 23 38.8 23 50 23 61.2 30.9 69.1 38.8 77 50 77 61.15 77 69.1 69.1 77 61.15 77 50 77 38.8 69.1 30.9
M 47.05 31.6
L 52.85 31.6 66.7 63.45 58.75 63.45 56 56.7 43.65 56.7 41 63.45 33.25 63.45 47.05 31.6
M 45.85 50.75
L 53.65 50.75 49.75 40.85 45.85 50.75 Z"/>

<path fill="#999999" stroke="none" d="
M 52.85 31.6
L 47.05 31.6 33.25 63.45 41 63.45 43.65 56.7 56 56.7 58.75 63.45 66.7 63.45 52.85 31.6
M 53.65 50.75
L 45.85 50.75 49.75 40.85 53.65 50.75 Z"/>
</g>

<path id="Layer44_0_1_STROKES" stroke="#1B1B1B" stroke-width="5" stroke-linejoin="round" stroke-linecap="round" fill="none" d="
M 90.95 70.45
Q 93.05 51.95 91.3 34.15 51.35 28.65 11.15 29.7 8.35 47.7 8.05 65.8 49.45 69.15 90.95 70.45 Z"/>

<path id="Layer44_0_2_STROKES" stroke="#626262" stroke-width="4" stroke-linejoin="round" stroke-linecap="round" fill="none" d="
M 84.4 63
Q 85.3 51.65 84.6 40.55 51.15 36.35 17.4 36.75 16 47.95 15.45 59.15 49.9 61.8 84.4 63 Z"/>

<path id="Layer43_0_1_STROKES" stroke="#626262" stroke-width="4" stroke-linejoin="round" stroke-linecap="round" fill="none" d="
M 82.8 36.75
Q 84.2 47.95 84.75 59.15 50.3 61.8 15.8 63 14.9 51.65 15.6 40.55 49.05 36.35 82.8 36.75 Z"/>

<path id="Layer43_0_2_STROKES" stroke="#1B1B1B" stroke-width="5" stroke-linejoin="round" stroke-linecap="round" fill="none" d="
M 89.05 29.7
Q 91.85 47.7 92.15 65.8 50.75 69.15 9.25 70.45 7.15 51.95 8.9 34.15 48.85 28.65 89.05 29.7 Z"/>

<path id="Layer42_0_1_STROKES" stroke="#202020" stroke-width="5" stroke-linejoin="round" stroke-linecap="round" fill="none" d="
M 86.5 61.85
L 86.5 19.7
Q 85.6 14.55 79.05 12.5
L 22.8 12.5
Q 18.75 16.6 18.35 26.5 21.9 47.75 18.35 70.8 17.15 77.65 22.25 84.65 27.35 89.35 35.4 90.6 51.3 93.1 62.05 83.95
L 68.6 70.35
Q 75.9 61.45 86.5 61.85 Z"/>

<path id="Layer42_0_2_STROKES" stroke="#626262" stroke-width="4" stroke-linejoin="round" stroke-linecap="round" fill="none" d="
M 60.25 18.9
Q 64.45 21.3 63.75 26.25 63.9 40.25 60.4 53.4 57.95 62.65 53.15 70.75 50.15 76.5 45.05 81.65 39.35 84.9 33 83.5 24.55 80.65 24.35 73.85 26.9 60.65 26.9 44.3 26.45 34.1 24.65 24.7 24.45 21 27.1 18.9
L 60.25 18.9 Z"/>

<path id="Layer41_0_1_STROKES" stroke="#202020" stroke-width="5" stroke-linejoin="round" stroke-linecap="round" fill="none" d="
M 81.8 12.5
Q 85.85 16.6 86.25 26.5 82.7 47.75 86.25 70.8 87.45 77.65 82.35 84.65 77.25 89.35 69.2 90.6 53.3 93.1 42.55 83.95
L 36 70.35
Q 28.7 61.45 18.1 61.85
L 18.1 19.7
Q 19 14.55 25.55 12.5
L 81.8 12.5 Z"/>

<path id="Layer41_0_2_STROKES" stroke="#626262" stroke-width="4" stroke-linejoin="round" stroke-linecap="round" fill="none" d="
M 79.95 24.7
Q 80.15 21 77.5 18.9
L 44.35 18.9
Q 40.15 21.3 40.85 26.25 40.7 40.25 44.2 53.4 46.65 62.65 51.45 70.75 54.45 76.5 59.55 81.65 65.25 84.9 71.6 83.5 80.05 80.65 80.25 73.85 77.7 60.65 77.7 44.3 78.15 34.1 79.95 24.7 Z"/>

<path id="Layer40_0_1_STROKES" stroke="url(#Gradient_3)" stroke-width="4" stroke-linejoin="round" stroke-linecap="round" fill="none" d="
M 81.65 42.35
Q 84.65 42.45 86.85 44.55
L 86.85 44.6
Q 87 44.7 87.1 44.85 87.15 44.85 87.2 44.95 89.1 47.05 89.1 49.95 89.15 52.85 87.25 54.95 87.05 55.15 86.85 55.35 84.65 57.55 81.6 57.65
L 65.15 57.65
Q 62.05 57.65 59.85 59.85 57.65 62.05 57.65 65.15
L 57.65 81.65
Q 57.6 84.65 55.45 86.85
L 55.4 86.9
Q 55.3 87 55.15 87.1 55.1 87.2 55.05 87.25 52.95 89.1 50.05 89.1 47.2 89.15 45.1 87.3
L 45.05 87.25
Q 44.85 87.05 44.65 86.9
L 44.65 86.85
Q 42.45 84.65 42.35 81.6
L 42.35 65.15
Q 42.35 62.05 40.15 59.85 37.95 57.65 34.85 57.65
L 18.3 57.65
Q 15.3 57.55 13.15 55.45
L 13.1 55.45
Q 13 55.3 12.9 55.2 12.85 55.15 12.8 55.05 10.9 52.95 10.9 50.05 10.85 47.15 12.75 45.05 12.95 44.85 13.15 44.65 15.35 42.45 18.4 42.35
L 34.85 42.35
Q 37.95 42.35 40.15 40.15 42.35 37.95 42.35 34.85
L 42.35 18.35
Q 42.45 15.35 44.55 13.15 44.7 13 44.8 12.9 44.85 12.85 44.95 12.8 47.05 10.9 49.95 10.9 52.85 10.85 54.95 12.75 55.15 12.95 55.35 13.15 57.55 15.35 57.65 18.4
L 57.65 34.85
Q 57.65 37.95 59.85 40.15 62.05 42.35 65.15 42.35
L 81.65 42.35 Z"/>

<path id="Layer40_0_2_STROKES" stroke="#1B1B1B" stroke-width="5" stroke-linejoin="round" stroke-linecap="round" fill="none" d="
M 34.85 65.15
L 18.15 65.15
Q 12.15 65 7.85 60.75 7.5 60.4 7.2 60.05 3.4 55.8 3.4 50.05 3.4 44.25 7.15 40.05 7.5 39.7 7.85 39.35 12.15 35.05 18.15 34.85
L 34.85 34.85 34.85 18.15
Q 35 12.15 39.25 7.85 39.6 7.5 39.95 7.2 44.2 3.4 49.95 3.4 55.75 3.4 59.95 7.15 60.3 7.5 60.65 7.85 64.95 12.15 65.15 18.15
L 65.15 34.85 81.85 34.85
Q 87.85 35 92.15 39.25 92.5 39.6 92.8 39.95 96.6 44.2 96.6 49.95 96.6 55.75 92.85 59.95 92.5 60.3 92.15 60.65 87.85 64.95 81.85 65.15
L 65.15 65.15"/>

<path id="Layer40_0_3_STROKES" stroke="url(#Gradient_4)" stroke-width="5" stroke-linejoin="round" stroke-linecap="round" fill="none" d="
M 65.15 65.15
L 65.15 81.85
Q 65 87.85 60.75 92.15 60.4 92.5 60.05 92.8 55.8 96.6 50.05 96.6 44.25 96.6 40.05 92.85 39.7 92.5 39.35 92.15 35.05 87.85 34.85 81.85
L 34.85 65.15"/>

<path id="Layer39_0_1_STROKES" stroke="url(#Gradient_7)" stroke-width="4" stroke-linejoin="round" stroke-linecap="round" fill="none" d="
M 81.65 42.35
Q 84.65 42.45 86.85 44.55 87 44.7 87.1 44.8 87.15 44.85 87.2 44.95 89.1 47.05 89.1 49.95 89.15 52.85 87.25 54.95 87.05 55.15 86.85 55.35 84.65 57.55 81.6 57.65
L 65.15 57.65
Q 62.05 57.65 59.85 59.85 57.65 62.05 57.65 65.15
L 57.65 81.65
Q 57.55 84.65 55.45 86.85
L 55.4 86.85
Q 55.3 87 55.15 87.1 55.15 87.15 55.05 87.2 52.95 89.1 50.05 89.1 47.15 89.15 45.05 87.25 44.85 87.05 44.65 86.85 42.45 84.65 42.35 81.6
L 42.35 65.15
Q 42.35 62.05 40.15 59.85 37.95 57.65 34.85 57.65
L 18.35 57.65
Q 15.35 57.6 13.15 55.45
L 13.1 55.4
Q 13 55.3 12.9 55.15 12.8 55.1 12.75 55.05 10.9 52.95 10.9 50.05 10.85 47.2 12.7 45.1
L 12.75 45.05
Q 12.95 44.85 13.1 44.65
L 13.15 44.65
Q 15.35 42.45 18.4 42.35
L 34.85 42.35
Q 37.95 42.35 40.15 40.15 42.35 37.95 42.35 34.85
L 42.35 18.3
Q 42.45 15.3 44.55 13.15
L 44.55 13.1
Q 44.7 13 44.8 12.9 44.85 12.85 44.95 12.8 47.05 10.9 49.95 10.9 52.85 10.85 54.95 12.75 55.15 12.95 55.35 13.15 57.55 15.35 57.65 18.4
L 57.65 34.85
Q 57.65 37.95 59.85 40.15 62.05 42.35 65.15 42.35
L 81.65 42.35 Z"/>

<path id="Layer39_0_2_STROKES" stroke="#1B1B1B" stroke-width="5" stroke-linejoin="round" stroke-linecap="round" fill="none" d="
M 34.85 34.85
L 34.85 18.15
Q 35 12.15 39.25 7.85 39.6 7.5 39.95 7.2 44.2 3.4 49.95 3.4 55.75 3.4 59.95 7.15 60.3 7.5 60.65 7.85 64.95 12.15 65.15 18.15
L 65.15 34.85 81.85 34.85
Q 87.85 35 92.15 39.25 92.5 39.6 92.8 39.95 96.6 44.2 96.6 49.95 96.6 55.75 92.85 59.95 92.5 60.3 92.15 60.65 87.85 64.95 81.85 65.15
L 65.15 65.15 65.15 81.85
Q 65 87.85 60.75 92.15 60.4 92.5 60.05 92.8 55.8 96.6 50.05 96.6 44.25 96.6 40.05 92.85 39.7 92.5 39.35 92.15 35.05 87.85 34.85 81.85
L 34.85 65.15"/>

<path id="Layer39_0_3_STROKES" stroke="url(#Gradient_8)" stroke-width="5" stroke-linejoin="round" stroke-linecap="round" fill="none" d="
M 34.85 65.15
L 18.15 65.15
Q 12.15 65 7.85 60.75 7.5 60.4 7.2 60.05 3.4 55.8 3.4 50.05 3.4 44.25 7.15 40.05 7.5 39.7 7.85 39.35 12.15 35.05 18.15 34.85
L 34.85 34.85"/>

<path id="Layer38_0_1_STROKES" stroke="url(#Gradient_11)" stroke-width="4" stroke-linejoin="round" stroke-linecap="round" fill="none" d="
M 81.7 42.35
Q 84.7 42.45 86.85 44.55
L 86.9 44.55
Q 87 44.7 87.1 44.8 87.15 44.85 87.2 44.95 89.1 47.05 89.1 49.95 89.15 52.85 87.25 54.95 87.05 55.15 86.85 55.35 84.65 57.55 81.6 57.65
L 65.15 57.65
Q 62.05 57.65 59.85 59.85 57.65 62.05 57.65 65.15
L 57.65 81.65
Q 57.55 84.65 55.45 86.85 55.3 87 55.2 87.1 55.15 87.15 55.05 87.2 52.95 89.1 50.05 89.1 47.15 89.15 45.05 87.25 44.85 87.05 44.65 86.85 42.45 84.65 42.35 81.6
L 42.35 65.15
Q 42.35 62.05 40.15 59.85 37.95 57.65 34.85 57.65
L 18.35 57.65
Q 15.35 57.55 13.15 55.45
L 13.15 55.4
Q 13 55.3 12.9 55.15 12.85 55.15 12.8 55.05 10.9 52.95 10.9 50.05 10.85 47.15 12.75 45.05 12.95 44.85 13.15 44.65 15.35 42.45 18.4 42.35
L 34.85 42.35
Q 37.95 42.35 40.15 40.15 42.35 37.95 42.35 34.85
L 42.35 18.35
Q 42.4 15.35 44.55 13.15
L 44.6 13.1
Q 44.7 13 44.85 12.9 44.9 12.8 44.95 12.75 47.05 10.9 49.95 10.9 52.8 10.85 54.9 12.7
L 54.95 12.75
Q 55.15 12.95 55.35 13.1
L 55.35 13.15
Q 57.55 15.35 57.65 18.4
L 57.65 34.85
Q 57.65 37.95 59.85 40.15 62.05 42.35 65.15 42.35
L 81.7 42.35 Z"/>

<path id="Layer38_0_2_STROKES" stroke="#1B1B1B" stroke-width="5" stroke-linejoin="round" stroke-linecap="round" fill="none" d="
M 65.15 34.85
L 81.85 34.85
Q 87.85 35 92.15 39.25 92.5 39.6 92.8 39.95 96.6 44.2 96.6 49.95 96.6 55.75 92.85 59.95 92.5 60.3 92.15 60.65 87.85 64.95 81.85 65.15
L 65.15 65.15 65.15 81.85
Q 65 87.85 60.75 92.15 60.4 92.5 60.05 92.8 55.8 96.6 50.05 96.6 44.25 96.6 40.05 92.85 39.7 92.5 39.35 92.15 35.05 87.85 34.85 81.85
L 34.85 65.15 18.15 65.15
Q 12.15 65 7.85 60.75 7.5 60.4 7.2 60.05 3.4 55.8 3.4 50.05 3.4 44.25 7.15 40.05 7.5 39.7 7.85 39.35 12.15 35.05 18.15 34.85
L 34.85 34.85"/>

<path id="Layer38_0_3_STROKES" stroke="url(#Gradient_12)" stroke-width="5" stroke-linejoin="round" stroke-linecap="round" fill="none" d="
M 34.85 34.85
L 34.85 18.15
Q 35 12.15 39.25 7.85 39.6 7.5 39.95 7.2 44.2 3.4 49.95 3.4 55.75 3.4 59.95 7.15 60.3 7.5 60.65 7.85 64.95 12.15 65.15 18.15
L 65.15 34.85"/>

<path id="Layer37_0_1_STROKES" stroke="#1B1B1B" stroke-width="5" stroke-linejoin="round" stroke-linecap="round" fill="none" d="
M 65.15 65.15
L 65.15 81.85
Q 65 87.85 60.75 92.15 60.4 92.5 60.05 92.8 55.8 96.6 50.05 96.6 44.25 96.6 40.05 92.85 39.7 92.5 39.35 92.15 35.05 87.85 34.85 81.85
L 34.85 65.15 18.15 65.15
Q 12.15 65 7.85 60.75 7.5 60.4 7.2 60.05 3.4 55.8 3.4 50.05 3.4 44.25 7.15 40.05 7.5 39.7 7.85 39.35 12.15 35.05 18.15 34.85
L 34.85 34.85 34.85 18.15
Q 35 12.15 39.25 7.85 39.6 7.5 39.95 7.2 44.2 3.4 49.95 3.4 55.75 3.4 59.95 7.15 60.3 7.5 60.65 7.85 64.95 12.15 65.15 18.15
L 65.15 34.85"/>

<path id="Layer37_0_2_STROKES" stroke="url(#Gradient_15)" stroke-width="5" stroke-linejoin="round" stroke-linecap="round" fill="none" d="
M 65.15 34.85
L 81.825 34.85
Q 87.83515625 34.98359375 92.15 39.25 92.494140625 39.594140625 92.8 39.95 96.6 44.183203125 96.6 49.95 96.6 55.75234375 92.825 59.95 92.5015625 60.30234375 92.15 60.65 87.83515625 64.96484375 81.825 65.15
L 65.15 65.15"/>

<path id="Layer37_0_3_STROKES" stroke="url(#Gradient_16)" stroke-width="4" stroke-linejoin="round" stroke-linecap="round" fill="none" d="
M 81.65 42.35
Q 84.6716796875 42.421484375 86.85 44.55
L 86.875 44.575
Q 86.9931640625 44.711328125 87.1 44.85 87.175 44.897265625 87.225 44.95 89.1162109375 47.0650390625 89.1 49.95 89.126953125 52.8048828125 87.3 54.875 87.2763671875 54.901171875 87.25 54.925 87.0705078125 55.1271484375 86.875 55.325
L 86.85 55.35
Q 84.653515625 57.544140625 81.6 57.65
L 65.15 57.65
Q 62.044921875 57.6515625 59.85 59.85 57.6515625 62.044921875 57.65 65.15
L 57.65 81.675
Q 57.57265625 84.6865234375 55.45 86.85
L 55.425 86.875
Q 55.2994140625 86.9953125 55.175 87.1 55.1265625 87.15234375 55.05 87.2 52.9263671875 89.1037109375 50.05 89.1 47.1451171875 89.1255859375 45.05 87.25 44.85 87.05 44.65 86.85 42.4611328125 84.6556640625 42.35 81.6
L 42.35 65.15
Q 42.3482421875 62.044921875 40.15 59.85 37.9548828125 57.6515625 34.85 57.65
L 18.35 57.65
Q 15.326171875 57.57265625 13.15 55.45
L 13.125 55.425
Q 13.0046875 55.2994140625 12.9 55.175 12.8474609375 55.1265625 12.8 55.05 10.8962890625 52.9263671875 10.9 50.05 10.8744140625 47.1451171875 12.75 45.05 12.95 44.85 13.15 44.65 15.3443359375 42.4611328125 18.4 42.35
L 34.85 42.35
Q 37.9548828125 42.3482421875 40.15 40.15 42.3482421875 37.9548828125 42.35 34.85
L 42.35 18.35
Q 42.4271484375 15.3259765625 44.55 13.15
L 44.575 13.125
Q 44.700390625 13.0046875 44.825 12.9 44.8732421875 12.8474609375 44.95 12.8 47.0734375 10.8962890625 49.95 10.9 52.8546875 10.8744140625 54.95 12.75 55.15 12.95 55.35 13.15 57.5388671875 15.3443359375 57.65 18.4
L 57.65 34.85
Q 57.6515625 37.9548828125 59.85 40.15 62.044921875 42.3482421875 65.15 42.35
L 81.65 42.35 Z"/>

<path id="Layer36_0_1_STROKES" stroke="#1B1B1B" stroke-width="5" stroke-linejoin="round" stroke-linecap="round" fill="none" d="
M 81.825 34.85
Q 87.83515625 34.98359375 92.15 39.25 92.494140625 39.594140625 92.8 39.95 96.6 44.183203125 96.6 49.95 96.6 55.75234375 92.825 59.95 92.5015625 60.30234375 92.15 60.65 87.83515625 64.96484375 81.825 65.15
L 65.15 65.15 65.15 81.85
Q 65 87.85 60.75 92.15 60.4 92.5 60.05 92.8 55.8 96.6 50.05 96.6 44.25 96.6 40.05 92.85 39.7 92.5 39.35 92.15 35.05 87.85 34.85 81.85
L 34.85 65.15 18.15 65.15
Q 12.15 65 7.85 60.75 7.5 60.4 7.2 60.05 3.4 55.8 3.4 50.05 3.4 44.25 7.15 40.05 7.5 39.7 7.85 39.35 12.15 35.05 18.15 34.85
L 34.85 34.85 34.85 18.15
Q 35 12.15 39.25 7.85 39.6 7.5 39.95 7.2 44.2 3.4 49.95 3.4 55.75 3.4 59.95 7.15 60.3 7.5 60.65 7.85 64.95 12.15 65.15 18.15
L 65.15 34.85 81.825 34.85 Z"/>

<path id="Layer36_0_2_STROKES" stroke="#626262" stroke-width="4" stroke-linejoin="round" stroke-linecap="round" fill="none" d="
M 81.65 42.35
Q 84.6716796875 42.421484375 86.85 44.55
L 86.875 44.575
Q 86.9931640625 44.711328125 87.1 44.85 87.175 44.897265625 87.225 44.95 89.1162109375 47.0650390625 89.1 49.95 89.126953125 52.8048828125 87.3 54.875 87.2763671875 54.901171875 87.25 54.925 87.0705078125 55.1271484375 86.875 55.325
L 86.85 55.35
Q 84.653515625 57.544140625 81.6 57.65
L 65.15 57.65
Q 62.044921875 57.6515625 59.85 59.85 57.6515625 62.044921875 57.65 65.15
L 57.65 81.675
Q 57.57265625 84.6865234375 55.45 86.85
L 55.425 86.875
Q 55.2994140625 86.9953125 55.175 87.1 55.1265625 87.15234375 55.05 87.2 52.9263671875 89.1037109375 50.05 89.1 47.1451171875 89.1255859375 45.05 87.25 44.85 87.05 44.65 86.85 42.4611328125 84.6556640625 42.35 81.6
L 42.35 65.15
Q 42.3482421875 62.044921875 40.15 59.85 37.9548828125 57.6515625 34.85 57.65
L 18.35 57.65
Q 15.326171875 57.57265625 13.15 55.45
L 13.125 55.425
Q 13.0046875 55.2994140625 12.9 55.175 12.8474609375 55.1265625 12.8 55.05 10.8962890625 52.9263671875 10.9 50.05 10.8744140625 47.1451171875 12.75 45.05 12.95 44.85 13.15 44.65 15.3443359375 42.4611328125 18.4 42.35
L 34.85 42.35
Q 37.9548828125 42.3482421875 40.15 40.15 42.3482421875 37.9548828125 42.35 34.85
L 42.35 18.35
Q 42.4271484375 15.3259765625 44.55 13.15
L 44.575 13.125
Q 44.700390625 13.0046875 44.825 12.9 44.8732421875 12.8474609375 44.95 12.8 47.0734375 10.8962890625 49.95 10.9 52.8546875 10.8744140625 54.95 12.75 55.15 12.95 55.35 13.15 57.5388671875 15.3443359375 57.65 18.4
L 57.65 34.85
Q 57.6515625 37.9548828125 59.85 40.15 62.044921875 42.3482421875 65.15 42.35
L 81.65 42.35 Z"/>

<path id="Layer35_0_1_STROKES" stroke="#151515" stroke-width="4" stroke-linejoin="round" stroke-linecap="round" fill="none" d="
M 30.7 68.8
L 30.7 60.55
Q 30.55 55 25.5 53.05 21.4 52.05 16.45 49.8 7.65 45.65 9.7 37.55 10.75 34 12.8 31.9 14.7 29.25 23.2 27.3 34.3 24.7 50 24.7 64.45 24.7 75.1 26.9 76 27.1 76.9 27.3 83.2 28.75 85.75 30.65 88.9 32.75 90.35 37.55 92.4 45.65 83.6 49.8 78.65 52.05 74.55 53.05 69.5 55 69.35 60.55
L 69.35 68.85
Q 70.35 69.2 71.3 69.6 71.4 69.6 71.45 69.65 80.35 73.55 80.35 79.1 80.35 84.65 71.45 88.5 62.55 92.4 50 92.4 37.45 92.4 28.55 88.5 19.65 84.65 19.65 79.1 19.65 73.55 28.55 69.65 29.6 69.2 30.7 68.8
L 30.7 76.3
Q 30.55 79.1 36.15 81.05 41.9 83.05 49.95 83.05 58 83.05 63.7 81.05 69.35 79.1 69.35 76.3
L 69.35 68.85"/>

<path id="Layer35_0_2_STROKES" stroke="#6C6C6C" stroke-width="0.1" stroke-linejoin="round" stroke-linecap="round" fill="none" d="
M 81.7 35.3
Q 81.7 35.15 81.65 35.05 81.6 34.9 81.55 34.75
M 18.5 34.75
Q 18.35 35.1 18.4 35.5"/>

<path id="Layer35_0_3_STROKES" stroke="#6C6C6C" stroke-width="3" stroke-linejoin="round" stroke-linecap="round" fill="none" d="
M 18.4 35.5
Q 18.15 38.3 27.35 40.25 36.75 42.25 49.9 42.25 63.1 42.25 72.45 40.25 81.7 38.3 81.7 35.5"/>

<path id="Layer34_0_1_STROKES" stroke="#151515" stroke-width="4" stroke-linejoin="round" stroke-linecap="round" fill="none" d="
M 30.7 68.8
L 30.7 60.55
Q 30.55 55 25.5 53.05 21.4 52.05 16.45 49.8 7.65 45.65 9.7 37.55 10.75 34 12.8 31.9 14.7 29.25 23.2 27.3 34.3 24.7 50 24.7 64.45 24.7 75.1 26.9 76 27.1 76.9 27.3 83.2 28.75 85.75 30.65 88.9 32.75 90.35 37.55 92.4 45.65 83.6 49.8 78.65 52.05 74.55 53.05 69.5 55 69.35 60.55
L 69.35 68.85
Q 70.35 69.2 71.3 69.6 71.4 69.6 71.45 69.65 80.35 73.55 80.35 79.1 80.35 84.65 71.45 88.5 62.55 92.4 50 92.4 37.45 92.4 28.55 88.5 19.65 84.65 19.65 79.1 19.65 73.55 28.55 69.65 29.6 69.2 30.7 68.8
L 30.7 76.3
Q 30.55 79.1 36.15 81.05 41.9 83.05 49.95 83.05 58 83.05 63.7 81.05 69.35 79.1 69.35 76.3
L 69.35 68.85"/>

<path id="Layer34_0_2_STROKES" stroke="#6C6C6C" stroke-width="0.1" stroke-linejoin="round" stroke-linecap="round" fill="none" d="
M 81.7 35.3
Q 81.7 35.15 81.65 35.05 81.6 34.9 81.55 34.75
M 18.5 34.75
Q 18.35 35.1 18.4 35.5"/>

<path id="Layer34_0_3_STROKES" stroke="#6C6C6C" stroke-width="3" stroke-linejoin="round" stroke-linecap="round" fill="none" d="
M 18.4 35.5
Q 18.15 38.3 27.35 40.25 36.75 42.25 49.9 42.25 63.1 42.25 72.45 40.25 81.7 38.3 81.7 35.5"/>

<path id="Layer33_0_1_STROKES" stroke="#151515" stroke-width="4" stroke-linejoin="round" stroke-linecap="round" fill="none" d="
M 50 15.95
Q 64.2 15.95 74.1 25.95 84.1 35.9 84.1 50 84.1 64.2 74.1 74.1 64.2 84.1 50 84.1 35.9 84.1 25.95 74.1 15.95 64.2 15.95 50 15.95 35.9 25.95 25.95 35.9 15.95 50 15.95 Z
M 50 7.8
Q 67.5 7.8 79.85 20.15 92.2 32.5 92.2 50 92.2 67.5 79.85 79.85 67.5 92.2 50 92.2 32.5 92.2 20.15 79.85 7.8 67.5 7.8 50 7.8 32.5 20.15 20.15 32.5 7.8 50 7.8 Z"/>

<path id="Layer32_0_1_STROKES" stroke="#151515" stroke-width="4" stroke-linejoin="round" stroke-linecap="round" fill="none" d="
M 50 15.95
Q 64.2 15.95 74.1 25.95 84.1 35.9 84.1 50 84.1 64.2 74.1 74.1 64.2 84.1 50 84.1 35.9 84.1 25.95 74.1 15.95 64.2 15.95 50 15.95 35.9 25.95 25.95 35.9 15.95 50 15.95 Z
M 50 7.8
Q 67.5 7.8 79.85 20.15 92.2 32.5 92.2 50 92.2 67.5 79.85 79.85 67.5 92.2 50 92.2 32.5 92.2 20.15 79.85 7.8 67.5 7.8 50 7.8 32.5 20.15 20.15 32.5 7.8 50 7.8 Z"/>

<path id="Layer31_0_1_STROKES" stroke="#1B1B1B" stroke-width="5" stroke-linejoin="round" stroke-linecap="round" fill="none" d="
M 65.55 22.85
Q 74.3 22.85 81.05 27.6 83 29 84.8 30.8 92.7 38.75 92.7 50 92.7 61.3 84.8 69.25 83 71.05 81.05 72.45 74.3 77.2 65.55 77.2
M 65.45 77.2
L 34.4 77.2
Q 23.2 77.15 15.3 69.25 12.45 66.4 10.65 63.15 7.3 57.3 7.3 50 7.3 42.7 10.65 36.85 12.45 33.6 15.3 30.8 23.2 22.9 34.4 22.85
L 65.45 22.85"/>

<path id="Layer31_0_2_STROKES" stroke="#626262" stroke-width="4" stroke-linejoin="round" stroke-linecap="round" fill="none" d="
M 65.45 29.35
Q 65.5 29.35 65.55 29.35 74.15 29.35 80.2 35.4 80.6 35.85 81.05 36.3 86.25 42.05 86.25 50 86.25 58 81.05 63.75 80.6 64.2 80.2 64.65 74.15 70.7 65.55 70.7 65.5 70.7 65.45 70.7
L 34.4 70.7
Q 25.9 70.7 19.85 64.65 13.8 58.6 13.8 50 13.8 41.45 19.85 35.4 25.9 29.35 34.4 29.35
L 65.45 29.35 Z"/>

<path id="Layer30_0_1_STROKES" stroke="#1B1B1B" stroke-width="5" stroke-linejoin="round" stroke-linecap="round" fill="none" d="
M 65.55 22.85
Q 74.3 22.85 81.05 27.6 83 29 84.8 30.8 92.7 38.75 92.7 50 92.7 61.3 84.8 69.25 83 71.05 81.05 72.45 74.3 77.2 65.55 77.2
M 65.45 77.2
L 34.4 77.2
Q 23.2 77.15 15.3 69.25 12.45 66.4 10.65 63.15 7.3 57.3 7.3 50 7.3 42.7 10.65 36.85 12.45 33.6 15.3 30.8 23.2 22.9 34.4 22.85
L 65.45 22.85"/>

<path id="Layer30_0_2_STROKES" stroke="#626262" stroke-width="4" stroke-linejoin="round" stroke-linecap="round" fill="none" d="
M 65.45 29.35
Q 65.5 29.35 65.55 29.35 74.15 29.35 80.2 35.4 80.6 35.85 81.05 36.3 86.25 42.05 86.25 50 86.25 58 81.05 63.75 80.6 64.2 80.2 64.65 74.15 70.7 65.55 70.7 65.5 70.7 65.45 70.7
L 34.4 70.7
Q 25.9 70.7 19.85 64.65 13.8 58.6 13.8 50 13.8 41.45 19.85 35.4 25.9 29.35 34.4 29.35
L 65.45 29.35 Z"/>

<path id="Layer30_0_3_STROKES" stroke="#999999" stroke-width="5" stroke-linejoin="round" stroke-linecap="square" fill="none" d="
M 62.25 59.85
L 37.9 59.85
M 62.25 40.65
L 37.9 40.65
M 62.25 50.15
L 37.9 50.15"/>

<path id="Layer29_0_1_STROKES" stroke="#626262" stroke-width="4" stroke-linejoin="round" stroke-linecap="round" fill="none" d="
M 50 22.8
Q 61.3 22.8 69.25 30.75 77.2 38.7 77.2 50 77.2 61.3 69.25 69.25 66.963671875 71.536328125 64.4 73.175 58.0501953125 77.2 50 77.2 42.004296875 77.2 35.65 73.175 33.0642578125 71.5498046875 30.75 69.25 22.8 61.3 22.8 50 22.8 38.7 30.75 30.75 38.75 22.8 50 22.8 Z"/>

<path id="Layer29_0_2_STROKES" stroke="#1B1B1B" stroke-width="5" stroke-linejoin="round" stroke-linecap="round" fill="none" d="
M 50 14.3
Q 64.85 14.3 75.25 24.7 85.7 35.15 85.7 50 85.7 64.8 75.25 75.25 70.32421875 80.1994140625 64.4 82.8 57.8166015625 85.7 50 85.7 42.2248046875 85.7 35.65 82.825 29.71015625 80.21015625 24.75 75.25 14.3 64.8 14.3 50 14.3 35.15 24.75 24.7 35.2 14.3 50 14.3 Z"/>

<path id="Layer29_0_3_STROKES" stroke="#999999" stroke-width="5" stroke-linejoin="round" stroke-linecap="square" fill="none" d="
M 57 37.35
L 62.7 37.35 62.7 43
M 37.35 43
L 37.35 37.35 43 37.35
M 43 62.7
L 37.35 62.7 37.35 57
M 62.7 57
L 62.7 62.7 57 62.7"/>

<path id="Layer28_0_1_STROKES" stroke="#626262" stroke-width="4" stroke-linejoin="round" stroke-linecap="round" fill="none" d="
M 50 22.8
Q 61.3 22.8 69.25 30.75 77.2 38.7 77.2 50 77.2 61.3 69.25 69.25 61.3 77.2 50 77.2 38.75 77.2 30.75 69.25 22.8 61.3 22.8 50 22.8 38.7 30.75 30.75 38.75 22.8 50 22.8 Z"/>

<path id="Layer28_0_2_STROKES" stroke="#1B1B1B" stroke-width="5" stroke-linejoin="round" stroke-linecap="round" fill="none" d="
M 50 14.3
Q 64.85 14.3 75.25 24.7 85.7 35.15 85.7 50 85.7 64.8 75.25 75.25 64.85 85.7 50 85.7 35.2 85.7 24.75 75.25 14.3 64.8 14.3 50 14.3 35.15 24.75 24.7 35.2 14.3 50 14.3 Z"/>
</defs>

<g transform="matrix( 1, 0, 0, 1, 0,0) ">
<use xlink:href="#Layer44_0_FILL"/>

<use xlink:href="#Layer44_0_1_STROKES"/>

<use xlink:href="#Layer44_0_2_STROKES"/>
</g>

<g transform="matrix( 1, 0, 0, 1, 0,0) ">
<use xlink:href="#Layer43_0_FILL"/>

<use xlink:href="#Layer43_0_1_STROKES"/>

<use xlink:href="#Layer43_0_2_STROKES"/>
</g>

<g transform="matrix( 1, 0, 0, 1, 0,0) ">
<use xlink:href="#Layer42_0_FILL"/>

<use xlink:href="#Layer42_0_1_STROKES"/>

<use xlink:href="#Layer42_0_2_STROKES"/>
</g>

<g transform="matrix( 1, 0, 0, 1, 0,0) ">
<use xlink:href="#Layer41_0_FILL"/>

<use xlink:href="#Layer41_0_1_STROKES"/>

<use xlink:href="#Layer41_0_2_STROKES"/>
</g>

<g transform="matrix( 1, 0, 0, 1, 0,0) ">
<use xlink:href="#Layer40_0_FILL"/>

<use xlink:href="#Layer40_0_1_STROKES"/>

<use xlink:href="#Layer40_0_2_STROKES"/>

<use xlink:href="#Layer40_0_3_STROKES"/>
</g>

<g transform="matrix( 1, 0, 0, 1, 0,0) ">
<use xlink:href="#Layer39_0_FILL"/>

<use xlink:href="#Layer39_0_1_STROKES"/>

<use xlink:href="#Layer39_0_2_STROKES"/>

<use xlink:href="#Layer39_0_3_STROKES"/>
</g>

<g transform="matrix( 1, 0, 0, 1, 0,0) ">
<use xlink:href="#Layer38_0_FILL"/>

<use xlink:href="#Layer38_0_1_STROKES"/>

<use xlink:href="#Layer38_0_2_STROKES"/>

<use xlink:href="#Layer38_0_3_STROKES"/>
</g>

<g transform="matrix( 1, 0, 0, 1, 0,0) ">
<use xlink:href="#Layer37_0_FILL"/>

<use xlink:href="#Layer37_0_1_STROKES"/>

<use xlink:href="#Layer37_0_2_STROKES"/>

<use xlink:href="#Layer37_0_3_STROKES"/>
</g>

<g transform="matrix( 1, 0, 0, 1, 0,0) ">
<use xlink:href="#Layer36_0_FILL"/>

<use xlink:href="#Layer36_0_1_STROKES"/>

<use xlink:href="#Layer36_0_2_STROKES"/>
</g>

<g transform="matrix( 1, 0, 0, 1, 0,0) ">
<use xlink:href="#Layer35_0_FILL"/>

<use xlink:href="#Layer35_0_1_STROKES"/>

<use xlink:href="#Layer35_0_2_STROKES"/>

<use xlink:href="#Layer35_0_3_STROKES"/>
</g>

<g transform="matrix( 1, 0, 0, 1, 0,0) ">
<use xlink:href="#Layer34_0_FILL"/>

<use xlink:href="#Layer34_0_1_STROKES"/>

<use xlink:href="#Layer34_0_2_STROKES"/>

<use xlink:href="#Layer34_0_3_STROKES"/>
</g>

<g transform="matrix( 1, 0, 0, 1, 0,0) ">
<use xlink:href="#Layer33_0_FILL"/>

<use xlink:href="#Layer33_0_1_STROKES"/>
</g>

<g transform="matrix( 1, 0, 0, 1, 0,0) ">
<use xlink:href="#Layer32_0_FILL"/>

<use xlink:href="#Layer32_0_1_STROKES"/>
</g>

<g transform="matrix( 1, 0, 0, 1, 0,0) ">
<use xlink:href="#Layer31_0_FILL"/>

<use xlink:href="#Layer31_0_1_STROKES"/>

<use xlink:href="#Layer31_0_2_STROKES"/>
</g>

<g transform="matrix( 1, 0, 0, 1, 0,0) ">
<use xlink:href="#Layer30_0_FILL"/>

<use xlink:href="#Layer30_0_1_STROKES"/>

<use xlink:href="#Layer30_0_2_STROKES"/>

<use xlink:href="#Layer30_0_3_STROKES"/>
</g>

<g transform="matrix( 1, 0, 0, 1, 0,0) ">
<use xlink:href="#Layer29_0_FILL"/>

<use xlink:href="#Layer29_0_1_STROKES"/>

<use xlink:href="#Layer29_0_2_STROKES"/>

<use xlink:href="#Layer29_0_3_STROKES"/>
</g>

<g transform="matrix( 1, 0, 0, 1, 0,0) ">
<use xlink:href="#Layer28_0_FILL"/>

<use xlink:href="#Layer28_0_1_STROKES"/>

<use xlink:href="#Layer28_0_2_STROKES"/>
</g>

<g transform="matrix( 1, 0, 0, 1, 0,0) ">
<use xlink:href="#Layer27_0_FILL"/>
</g>

<g transform="matrix( 1, 0, 0, 1, 0,0) ">
<use xlink:href="#Layer26_0_FILL"/>
</g>

<g transform="matrix( 1, 0, 0, 1, 0,0) ">
<use xlink:href="#Layer25_0_FILL"/>
</g>

<g transform="matrix( 1, 0, 0, 1, 0,0) ">
<use xlink:href="#Layer24_0_FILL"/>
</g>
</svg>
