
<svg xmlns="http://www.w3.org/2000/svg" version="1.1" xmlns:xlink="http://www.w3.org/1999/xlink" preserveAspectRatio="none" x="0px" y="0px" width="100px" height="100px" viewBox="0 0 100 100">
<defs>
<linearGradient id="Gradient_1" gradientUnits="userSpaceOnUse" x1="146.75" y1="55.6875" x2="146.75" y2="2.8125" spreadMethod="pad">
<stop  offset="0%" stop-color="#616161"/>

<stop  offset="95.29411764705883%" stop-color="#353535"/>
</linearGradient>

<linearGradient id="Gradient_2" gradientUnits="userSpaceOnUse" x1="-46.55" y1="55.6875" x2="-46.55" y2="2.8125" spreadMethod="pad">
<stop  offset="0%" stop-color="#616161"/>

<stop  offset="95.29411764705883%" stop-color="#353535"/>
</linearGradient>

<linearGradient id="Gradient_3" gradientUnits="userSpaceOnUse" x1="50" y1="10.412499999999994" x2="50" y2="89.5875" spreadMethod="pad">
<stop  offset="0%" stop-color="#373737"/>

<stop  offset="100%" stop-color="#575757"/>
</linearGradient>

<linearGradient id="Gradient_4" gradientUnits="userSpaceOnUse" x1="64.15" y1="59.1375" x2="26.05" y2="52.5625" spreadMethod="pad">
<stop  offset="0%" stop-color="#FFFFFF" stop-opacity="0"/>

<stop  offset="100%" stop-color="#FFFFFF"/>
</linearGradient>

<linearGradient id="Gradient_5" gradientUnits="userSpaceOnUse" x1="35.349999999999994" y1="59.1375" x2="73.45" y2="52.5625" spreadMethod="pad">
<stop  offset="0%" stop-color="#FFFFFF" stop-opacity="0"/>

<stop  offset="100%" stop-color="#FFFFFF"/>
</linearGradient>

<linearGradient id="Gradient_6" gradientUnits="userSpaceOnUse" x1="46.4375" y1="52.537499999999994" x2="68.1625" y2="15.2625" spreadMethod="pad">
<stop  offset="10.196078431372548%" stop-color="#313131"/>

<stop  offset="100%" stop-color="#4F4F4F"/>
</linearGradient>

<linearGradient id="Gradient_7" gradientUnits="userSpaceOnUse" x1="49.7625" y1="52.537499999999994" x2="28.037499999999998" y2="15.2625" spreadMethod="pad">
<stop  offset="10.196078431372548%" stop-color="#313131"/>

<stop  offset="100%" stop-color="#4F4F4F"/>
</linearGradient>

<linearGradient id="Gradient_8" gradientUnits="userSpaceOnUse" x1="50" y1="76.4375" x2="50" y2="23.5625" spreadMethod="pad">
<stop  offset="0%" stop-color="#616161"/>

<stop  offset="95.29411764705883%" stop-color="#353535"/>
</linearGradient>

<g id="Layer45_0_FILL">
<path fill="#FFFFFF" stroke="none" d="
M 69.25 84
Q 75.5 88.85 80.55 82.8 86.55 77.8 81.65 71.6
L 72 59.25 54.8 72.65 69.25 84
M 43.45 22.9
Q 43.45 19.9 44.2 17.25
L 44.2 17.2
Q 44.65 15.5 45.45 13.9 40.6 12.9 36.95 11.2
L 36.9 11.15
Q 35.05 10.3 30.6 12.75 25.5 15.55 19.95 21.1 19.65 21.4 19.4 21.65 19.15 21.9 18.85 22.2 13.25 27.8 10.45 32.9 8 37.35 8.9 39.15 11 43.75 12.1 50.1 15.75 52.8 20.65 52.8 22.8 50.25 26.4 51.4
L 43.5 29.65
Q 43.55 29.6 43.6 29.55 43.75 29.35 43.9 29.15 44.35 28.45 44.7 27.85
L 44.7 27.8
Q 44.9890625 27.221875 45.55 27.45
L 45.55 27.45
Q 44.6 26.6 44.05 25.45 43.45 24.25 43.45 22.9
M 30.75 19.4
Q 33.75 17.8 35.05 18.4 35.25 18.5 35.4 18.65 36.5 19.7 34.6 23.1 32.75 26.6 28.9 30.45 28.7 30.65 28.55 30.8 28.35 31 28.2 31.2 24.35 35 20.8 36.85 17.4 38.75 16.35 37.7 16.15 37.5 16.1 37.35 15.45 36.1 17.15 33 19.1 29.65 22.9 25.9 23.05 25.7 23.25 25.5 23.4 25.35 23.6 25.15 27.4 21.35 30.75 19.4
M 89.5 32.85
Q 86.7 27.75 81.15 22.2 80.85 21.9 80.6 21.65 80.35 21.4 80.05 21.1 74.45 15.5 69.35 12.7 64.9 10.25 63.1 11.15 58.5 13.25 52.15 14.35 49.45 18 49.45 22.9 53.25 26.05 48.85 32.5 48.6 32.85 48.3 33.25
L 18.25 71.5
Q 13.4 77.75 19.45 82.8 24.45 88.8 30.65 83.9
L 69 53.95
Q 69.35 53.65 69.8 53.45 76.15 48.9 79.35 52.8 84.2 52.75 87.9 50.05 88.95 43.7 91.05 39.2
L 91.1 39.15
Q 91.95 37.3 89.5 32.85
M 83.85 37.3
Q 83.75 37.5 83.6 37.65 82.55 38.75 79.15 36.85 75.65 35 71.8 31.15 71.6 30.95 71.45 30.8 71.25 30.6 71.05 30.45 67.25 26.6 65.4 23.05 63.5 19.65 64.55 18.6 64.75 18.4 64.9 18.35 66.15 17.7 69.25 19.4 72.6 21.35 76.35 25.15 76.55 25.3 76.75 25.5 76.9 25.65 77.1 25.85 80.9 29.65 82.85 33 84.45 36 83.85 37.3
M 46.25 46.3
Q 46.3 42.35 49.15 39.5 52 36.65 55.95 36.6 59.9 36.65 62.75 39.5 65.55 42.3 65.6 46.25 65.6 50.25 62.75 53.1 59.9 55.95 55.9 55.95 51.9 55.9 49.1 53.1 46.25 50.25 46.25 46.3 Z"/>
</g>

<g id="Layer44_0_FILL">
<path fill="#FFFFFF" stroke="none" d="
M 62.4 8.25
Q 62 8.15 61.65 8.05 54.05 6 48.25 6.1 43.15 6.2 42 7.9
L 42 7.95
Q 39.1 12 34.1 16.1 33.65 20.65 36 24.9 41 25.7 40.25 33.5 40.3 34 40.2 34.45
L 33.4 82.6
Q 32.25 90.45 40 91.8 47.4 94.5 50.35 87.15
L 68.45 42
Q 68.7 41.6 68.85 41.15 72.25 34.05 76.85 35.85 81.05 33.35 82.95 29.15 80.7 23.15 80.25 18.15
L 80.2 18.15
Q 80.1 16.1 75.75 13.45 70.75 10.45 63.15 8.45 62.75 8.3 62.4 8.25
M 61 13.5
Q 61.25 13.55 61.5 13.6 66.65 15 69.95 16.95 72.95 18.75 73.1 20.15 73.15 20.35 73.05 20.6 72.65 22.1 68.7 22.1 64.75 22.25 59.55 20.85 59.3 20.8 59.05 20.75 58.8 20.65 58.5 20.6 53.3 19.2 49.95 17.05 46.55 15.1 47 13.6 47.05 13.4 47.2 13.2 48 12.05 51.4 12 55.3 11.95 60.45 13.35 60.75 13.4 61 13.5
M 45.05 46.75
Q 43.05 43.3 44.05 39.45 45.1 35.55 48.6 33.5 52 31.55 55.85 32.6 59.7 33.6 61.7 37.05 63.65 40.5 62.6 44.4 61.6 48.25 58.15 50.3 54.7 52.25 50.85 51.25 47 50.2 45.05 46.75 Z"/>
</g>

<g id="Layer43_0_FILL">
<path fill="#FFFFFF" stroke="none" d="
M 59.2 7.95
L 59.2 7.9
Q 58.05 6.2 52.95 6.1 47.15 6 39.55 8.05 39.2 8.15 38.8 8.25 38.45 8.3 38.05 8.45 30.45 10.45 25.45 13.45 21.1 16.1 21 18.15
L 20.95 18.15
Q 20.5 23.15 18.25 29.15 20.15 33.35 24.35 35.85 28.95 34.05 32.35 41.15 32.5 41.6 32.75 42
L 50.85 87.15
Q 53.8 94.5 61.2 91.8 68.95 90.45 67.8 82.6
L 61 34.45
Q 60.9 34 60.95 33.5 60.2 25.7 65.2 24.9 67.55 20.65 67.1 16.1 62.1 12 59.2 7.95
M 42.15 20.75
Q 41.9 20.8 41.65 20.85 36.45 22.25 32.5 22.1 28.55 22.1 28.15 20.6 28.05 20.35 28.1 20.15 28.25 18.75 31.25 16.95 34.55 15 39.7 13.6 39.95 13.55 40.2 13.5 40.45 13.4 40.75 13.35 45.9 11.95 49.8 12 53.2 12.05 54 13.2 54.15 13.4 54.2 13.6 54.65 15.1 51.25 17.05 47.9 19.2 42.7 20.6 42.4 20.65 42.15 20.75
M 57.15 39.45
Q 58.15 43.3 56.15 46.75 54.2 50.2 50.35 51.25 46.5 52.25 43.05 50.3 39.6 48.25 38.6 44.4 37.55 40.5 39.5 37.05 41.5 33.6 45.35 32.6 49.2 31.55 52.6 33.5 56.1 35.55 57.15 39.45 Z"/>
</g>

<g id="Layer42_0_FILL">
<path fill="#FFFFFF" stroke="none" d="
M 87.25 46.1
Q 88.05 43.6 86.35 41.95 84 40.15 80.35 41.95 76.7 43.7 73.5 47.35 70.8 50.35 69.95 53.9 66 56.8 65 49.45 64.85 47.2 64.8 44.75 64.7 30.8 63.8 21.5 63 12.1 61.45 10.8 59.85 9.55 57.9 9.75 55.95 9.85 54.85 11.3 53.65 12.75 53.9 14.75 55.45 27 54.25 39.55 50.7 26.5 48.15 12.5 47.75 10.5 46.15 9.3 44.55 8.05 42.7 8.4 40.75 8.6 39.6 10.15 38.4 11.75 38.9 13.65 41.55 28.65 44.4 43.75 39 31.5 35.9 18.5 35.35 16.5 33.65 15.5 32.05 14.4 30.1 14.75 28.25 15 27.15 16.7 26.15 18.3 26.55 20.2 30 33.85 33.35 47.65 27.9 37 23.9 25.9 23.2 24.1 21.5 23.1 19.7 22.15 17.85 22.7 16.1 23.25 15.15 25.05 14.4 26.7 15 28.5 19.3 40.55 23.6 52.6 24.4 55.35 28.5 66.35
L 34.4 84.25
Q 37.05 89.75 44.5 88.15
L 70.4 83.9
Q 78.4 81.75 79.05 73.8
L 79.15 73.85
Q 79.15 73.75 79.2 73.6 79.6 71.45 79.75 69.3 80.3 61.75 82.25 54.9 83.3 50.15 87.25 46.1 Z"/>
</g>

<g id="Layer41_0_FILL">
<path fill="#FFFFFF" stroke="none" d="
M 87.15 25.05
Q 86.2 23.25 84.45 22.7 82.6 22.15 80.8 23.1 79.1 24.1 78.4 25.9 74.4 37 68.95 47.65 72.3 33.85 75.75 20.2 76.15 18.3 75.15 16.7 74.05 15 72.2 14.75 70.25 14.4 68.65 15.5 66.95 16.5 66.4 18.5 63.3 31.5 57.9 43.75 60.75 28.65 63.4 13.65 63.9 11.75 62.7 10.15 61.55 8.6 59.6 8.4 57.75 8.05 56.15 9.3 54.55 10.5 54.15 12.5 51.6 26.5 48.05 39.55 46.85 27 48.4 14.75 48.65 12.75 47.45 11.3 46.35 9.85 44.4 9.75 42.45 9.55 40.85 10.8 39.3 12.1 38.5 21.5 37.6 30.8 37.5 44.75 37.45 47.2 37.3 49.45 36.3 56.8 32.35 53.9 31.5 50.35 28.8 47.35 25.6 43.7 21.95 41.95 18.3 40.15 15.95 41.95 14.25 43.6 15.05 46.1 19 50.15 20.05 54.9 22 61.75 22.55 69.3 22.7 71.45 23.1 73.6 23.15 73.75 23.15 73.85
L 23.25 73.8
Q 23.9 81.75 31.9 83.9
L 57.8 88.15
Q 65.25 89.75 67.9 84.25
L 73.8 66.35
Q 77.9 55.35 78.7 52.6 83 40.55 87.3 28.5 87.9 26.7 87.15 25.05 Z"/>
</g>

<g id="Layer40_0_FILL">
<path fill="#FFFFFF" stroke="none" d="
M 61.8 10.9
Q 61.45 10.7 61.1 10.6 60.7 10.45 60.3 10.35 52.65 7.85 46.6 7.6 41.45 7.35 40.1 9.1
L 40.1 9.15
Q 36.9 13.15 31.5 17.05 30.8 21.65 33 26.2 38.05 27.35 36.8 35.3 36.85 35.75 36.75 36.3
L 35.75 41.5
Q 36.95 46.65 34.2 52.15 37.7 52.45 42.4 51.35 41.55 50.4 41 49.3 39.1 45.5 40.4 41.65 41.65 37.7 45.4 35.9 49.1 33.95 53 35.3 56.9 36.6 58.7 40.25 60.05 42.95 59.75 45.85 63.3 44.75 66.4 43.9 70.1 37.95 74.4 39.85 78.9 37.55 81.05 33.35 79.1 27.05 78.9 21.85
L 78.85 21.85
Q 78.85 19.75 74.6 16.8 69.55 13.4 61.8 10.9
M 71.4 23.5
Q 71.45 23.7 71.4 23.95 70.9 25.5 66.85 25.25 62.75 25.15 57.5 23.45 57.2 23.35 56.95 23.3 56.7 23.15 56.45 23.1 51.1 21.35 47.8 19 44.45 16.75 45 15.2 45.05 15 45.15 14.8 46.1 13.7 49.6 13.75 53.6 13.95 58.85 15.7 59.15 15.8 59.4 15.95 59.65 16 59.9 16.1 65.1 17.8 68.45 20.05 71.4 22.05 71.4 23.5
M 81.05 78.45
Q 82.75 78.25 83.8 76.9 84.85 75.5 84.55 73.85 84.25 72.15 82.85 71.15 81.45 70.05 79.7 70.2 67.95 71.5 56.1 70.7 69.55 68.5 82.8 66.25 84.55 66.05 85.5 64.6 86.45 63.2 86.05 61.5 85.75 59.85 84.25 58.9 82.75 57.9 81 58.2 68.55 60.25 56.65 61.2 66.7 56.45 77.4 54.05 79.1 53.7 79.95 52.3 80.85 50.9 80.35 49.25 79.9 47.6 78.4 46.65 76.85 45.7 68.8 47.85 60.8 49.95 49.15 54 37.6 58.05 30.9 56.15 27.6 55.15 30 50.45 32.5 45.85 31.05 41.55 29.6 37.3 27.15 34.4 24.75 31.45 22.2 31.9 20.2 32.55 19.8 34.85 21.35 39.65 20.3 43.75 19.1 49.95 16.5 56.2 15.5 58.55 14.9 61.1
L 19.15 83.9
Q 20.05 90.6 25.4 91.15
L 42.1 90.7
Q 52.45 90.85 54.95 90.65 66.3 90.6 77.6 90.6 79.3 90.55 80.45 89.4 81.65 88.1 81.55 86.45 81.45 84.75 80.15 83.55 78.8 82.4 77.1 82.35 66.65 82.4 56.2 81.05 68.65 79.7 81.05 78.45 Z"/>
</g>

<g id="Layer39_0_FILL">
<path fill="#FFFFFF" stroke="none" d="
M 60.9 9.15
L 60.9 9.1
Q 59.55 7.35 54.4 7.6 48.35 7.85 40.7 10.35 40.3 10.45 39.9 10.6 39.55 10.7 39.2 10.9 31.45 13.4 26.4 16.8 22.15 19.75 22.15 21.85
L 22.1 21.85
Q 21.9 27.05 19.95 33.35 22.1 37.55 26.6 39.85 30.9 37.95 34.6 43.9 37.7 44.75 41.25 45.85 40.95 42.95 42.3 40.25 44.1 36.6 48 35.3 51.9 33.95 55.6 35.9 59.35 37.7 60.6 41.65 61.9 45.5 60 49.3 59.45 50.4 58.6 51.35 63.3 52.45 66.8 52.15 64.05 46.65 65.25 41.5
L 64.25 36.3
Q 64.15 35.75 64.2 35.3 62.95 27.35 68 26.2 70.2 21.65 69.5 17.05 64.1 13.15 60.9 9.15
M 41.1 16.1
Q 41.35 16 41.6 15.95 41.85 15.8 42.15 15.7 47.4 13.95 51.4 13.75 54.9 13.7 55.85 14.8 55.95 15 56 15.2 56.55 16.75 53.2 19 49.9 21.35 44.55 23.1 44.3 23.15 44.05 23.3 43.8 23.35 43.5 23.45 38.25 25.15 34.15 25.25 30.1 25.5 29.6 23.95 29.55 23.7 29.6 23.5 29.6 22.05 32.55 20.05 35.9 17.8 41.1 16.1
M 81.85 83.9
L 86.1 61.1
Q 85.5 58.55 84.5 56.2 81.9 49.95 80.7 43.75 79.65 39.65 81.2 34.85 80.8 32.55 78.8 31.9 76.25 31.45 73.85 34.4 71.4 37.3 69.95 41.55 68.5 45.85 71 50.45 73.4 55.15 70.1 56.15 63.4 58.05 51.85 54 40.2 49.95 32.2 47.85 24.15 45.7 22.6 46.65 21.1 47.6 20.65 49.25 20.15 50.9 21.05 52.3 21.9 53.7 23.6 54.05 34.3 56.45 44.35 61.2 32.45 60.25 20 58.2 18.25 57.9 16.75 58.9 15.25 59.85 14.95 61.5 14.55 63.2 15.5 64.6 16.45 66.05 18.2 66.25 31.45 68.5 44.9 70.7 33.05 71.5 21.3 70.2 19.55 70.05 18.15 71.15 16.75 72.15 16.45 73.85 16.15 75.5 17.2 76.9 18.25 78.25 19.95 78.45 32.35 79.7 44.8 81.05 34.35 82.4 23.9 82.35 22.2 82.4 20.85 83.55 19.55 84.75 19.45 86.45 19.35 88.1 20.55 89.4 21.7 90.55 23.4 90.6 34.7 90.6 46.05 90.65 48.55 90.85 58.9 90.7
L 75.6 91.15
Q 80.95 90.6 81.85 83.9 Z"/>
</g>

<g id="Layer38_0_FILL">
<path fill="#353535" stroke="none" d="
M 84.85 78.4
Q 88.01015625 75.87734375 87.8 72.4 87.6392578125 69.636328125 85.3 66.25 80.95 60.05 77.2 46.25 73.45 32.4 73.85 15.95 52.9 10.85 30.4 14.15 30.145703125 14.2400390625 29.9 14.3 19.09375 18.259765625 12.4 25.1 13.75 43.65 19.1 58.7 24.4 73.8 38.85 82.1 44.1 85.2 54.1 85.05 73.8 86 84.85 78.4
M 28 21.6
Q 28.77421875 20.93671875 29.8 21 30.8341796875 21.06875 31.5 21.85 32.2123046875 22.6259765625 32.15 23.65 31.1126953125 40.47265625 33.55 58.75 33.71953125 59.77734375 33.95 60.8 34.0033203125 61.073828125 34 61.3 36.2380859375 68.0892578125 42.15 73 44.799609375 75.2279296875 49 76.15 49.1716796875 76.1931640625 49.3 76.2 50.4814453125 76.4701171875 51.75 76.6 53.426953125 76.81796875 55.3 76.85 55.0337890625 76.93515625 54.75 77 46.4740234375 79.471484375 39.4 75.45
L 39.45 75.45
Q 32.119140625 71.3234375 29.3 62.55 29.135546875 62.2583984375 29.05 61.85 28.7830078125 60.6353515625 28.6 59.45
L 28.6 59.4
Q 26.087109375 40.6271484375 27.15 23.35 27.21953125 22.3140625 28 21.6 Z"/>

<path fill="url(#Gradient_1)" stroke="none" d="
M 29.8 21
Q 28.77421875 20.93671875 28 21.6 27.21953125 22.3140625 27.15 23.35 26.087109375 40.6271484375 28.6 59.4
L 28.6 59.45
Q 28.7830078125 60.6353515625 29.05 61.85 29.135546875 62.2583984375 29.3 62.55 32.119140625 71.3234375 39.45 75.45
L 39.4 75.45
Q 46.4740234375 79.471484375 54.75 77 55.0337890625 76.93515625 55.3 76.85 53.426953125 76.81796875 51.75 76.6 50.4814453125 76.4701171875 49.3 76.2 49.1716796875 76.1931640625 49 76.15 44.799609375 75.2279296875 42.15 73 36.2380859375 68.0892578125 34 61.3 34.0033203125 61.073828125 33.95 60.8 33.71953125 59.77734375 33.55 58.75 31.1126953125 40.47265625 32.15 23.65 32.2123046875 22.6259765625 31.5 21.85 30.8341796875 21.06875 29.8 21 Z"/>
</g>

<g id="Layer37_0_FILL">
<path fill="#353535" stroke="none" d="
M 87.8 25.1
Q 85.503125 22.7517578125 82.7 20.75 77.3974609375 16.9130859375 70.3 14.35 70.05 14.25 69.8 14.15 47.3 10.85 26.35 15.95 26.408984375 18.378515625 26.35 20.75 26.271875 28.69296875 25.15 36 24.342578125 41.2916015625 23 46.25 19.25 60.05 14.9 66.25 12.55 69.65 12.4 72.45 12.2 75.9 15.35 78.4 26.4 86 46.1 85.05 56.1 85.2 61.35 82.1 75.8 73.8 81.1 58.7 84.8318359375 48.2017578125 86.6 36 87.391796875 30.7103515625 87.8 25.1
M 68.65 21.85
Q 69.35 21.05 70.4 21 71.45 20.95 72.2 21.65 73 22.3 73.05 23.35 73.4279296875 29.5779296875 73.35 36 73.18203125 47.41796875 71.55 59.45 71.4 60.65 71.15 61.9 71.05 62.25 70.85 62.6 68.1 71.3 60.75 75.45
L 60.8 75.45
Q 53.75 79.45 45.4 77.05 45.15 76.95 44.9 76.85 46.75 76.8 48.45 76.65 49.7 76.45 50.85 76.25 51.05 76.2 51.15 76.15 55.4 75.25 58.05 73 63.95 68.1 66.2 61.35 66.2 61.05 66.25 60.85 66.5 59.8 66.6 58.8 68.19609375 47.083984375 68.35 36 68.4296875 29.7236328125 68.05 23.65 68 22.65 68.65 21.85
M 45.85 38.8
L 46.45 35.65 60.35 35.65 59.75 38.8 54.7 38.8 51.9 51.9 48.1 51.9 50.9 38.8 45.85 38.8
M 38.7 35.65
L 35.95 48.65 43.15 48.65 42.5 51.9 31.45 51.9 34.85 35.65 38.7 35.65 Z"/>

<path fill="#999999" stroke="none" d="
M 35.95 48.65
L 38.7 35.65 34.85 35.65 31.45 51.9 42.5 51.9 43.15 48.65 35.95 48.65
M 46.45 35.65
L 45.85 38.8 50.9 38.8 48.1 51.9 51.9 51.9 54.7 38.8 59.75 38.8 60.35 35.65 46.45 35.65 Z"/>

<path fill="url(#Gradient_2)" stroke="none" d="
M 70.4 21
Q 69.35 21.05 68.65 21.85 68 22.65 68.05 23.65 68.4296875 29.7236328125 68.35 36 68.19609375 47.083984375 66.6 58.8 66.5 59.8 66.25 60.85 66.2 61.05 66.2 61.35 63.95 68.1 58.05 73 55.4 75.25 51.15 76.15 51.05 76.2 50.85 76.25 49.7 76.45 48.45 76.65 46.75 76.8 44.9 76.85 45.15 76.95 45.4 77.05 53.75 79.45 60.8 75.45
L 60.75 75.45
Q 68.1 71.3 70.85 62.6 71.05 62.25 71.15 61.9 71.4 60.65 71.55 59.45 73.18203125 47.41796875 73.35 36 73.4279296875 29.5779296875 73.05 23.35 73 22.3 72.2 21.65 71.45 20.95 70.4 21 Z"/>
</g>

<g id="Layer36_0_FILL">
<path fill="#353535" stroke="none" d="
M 84.85 78.4
Q 88.01015625 75.87734375 87.8 72.4 87.6392578125 69.636328125 85.3 66.25 80.95 60.05 77.2 46.25 73.45 32.4 73.85 15.95 52.9 10.85 30.4 14.15 30.145703125 14.2400390625 29.9 14.3 19.09375 18.259765625 12.4 25.1 13.75 43.65 19.1 58.7 24.4 73.8 38.85 82.1 44.1 85.2 54.1 85.05 73.8 86 84.85 78.4
M 46.7 36.05
Q 48.05 36.05 49.25 36.3 50.55 36.45 51.6 37.1 52.65 37.65 53.35 38.55 54.1 39.55 54.5 41 54.9 42.7 54.2 43.9 53.55 45.15 51.75 45.45
L 57.9 52.3 53.25 52.3 48.05 45.8 46.15 45.8 47.7 52.3 43.8 52.3 39.9 36.05 46.7 36.05
M 59.7 39.2
L 54.7 39.2 53.9 36.05 67.75 36.05 68.55 39.2 63.55 39.2 66.65 52.3 62.8 52.3 59.7 39.2
M 27.15 23.35
Q 27.21953125 22.3140625 28 21.6 28.77421875 20.93671875 29.8 21 30.8341796875 21.06875 31.5 21.85 32.2123046875 22.6259765625 32.15 23.65 31.1126953125 40.47265625 33.55 58.75 33.71953125 59.77734375 33.95 60.8 34.0033203125 61.073828125 34 61.3 36.2380859375 68.0892578125 42.15 73 44.799609375 75.2279296875 49 76.15 49.1716796875 76.1931640625 49.3 76.2 50.4814453125 76.4701171875 51.75 76.6 53.426953125 76.81796875 55.3 76.85 55.0337890625 76.93515625 54.75 77 46.4740234375 79.471484375 39.4 75.45
L 39.45 75.45
Q 32.119140625 71.3234375 29.3 62.55 29.135546875 62.2583984375 29.05 61.85 28.7830078125 60.6353515625 28.6 59.45
L 28.6 59.4
Q 26.087109375 40.6271484375 27.15 23.35
M 47.65 42.8
Q 48.15 42.8 48.75 42.75 49.35 42.7 49.75 42.5 50.2 42.35 50.4 41.95 50.65 41.65 50.5 40.95 50.3 40.35 49.95 39.95 49.65 39.65 49.15 39.4 48.65 39.15 48.1 39.1 47.5 39.05 47.05 39.05
L 44.5 39.05 45.4 42.8 47.65 42.8 Z"/>

<path fill="url(#Gradient_1)" stroke="none" d="
M 28 21.6
Q 27.21953125 22.3140625 27.15 23.35 26.087109375 40.6271484375 28.6 59.4
L 28.6 59.45
Q 28.7830078125 60.6353515625 29.05 61.85 29.135546875 62.2583984375 29.3 62.55 32.119140625 71.3234375 39.45 75.45
L 39.4 75.45
Q 46.4740234375 79.471484375 54.75 77 55.0337890625 76.93515625 55.3 76.85 53.426953125 76.81796875 51.75 76.6 50.4814453125 76.4701171875 49.3 76.2 49.1716796875 76.1931640625 49 76.15 44.799609375 75.2279296875 42.15 73 36.2380859375 68.0892578125 34 61.3 34.0033203125 61.073828125 33.95 60.8 33.71953125 59.77734375 33.55 58.75 31.1126953125 40.47265625 32.15 23.65 32.2123046875 22.6259765625 31.5 21.85 30.8341796875 21.06875 29.8 21 28.77421875 20.93671875 28 21.6 Z"/>

<path fill="#999999" stroke="none" d="
M 54.7 39.2
L 59.7 39.2 62.8 52.3 66.65 52.3 63.55 39.2 68.55 39.2 67.75 36.05 53.9 36.05 54.7 39.2
M 49.25 36.3
Q 48.05 36.05 46.7 36.05
L 39.9 36.05 43.8 52.3 47.7 52.3 46.15 45.8 48.05 45.8 53.25 52.3 57.9 52.3 51.75 45.45
Q 53.55 45.15 54.2 43.9 54.9 42.7 54.5 41 54.1 39.55 53.35 38.55 52.65 37.65 51.6 37.1 50.55 36.45 49.25 36.3
M 48.75 42.75
Q 48.15 42.8 47.65 42.8
L 45.4 42.8 44.5 39.05 47.05 39.05
Q 47.5 39.05 48.1 39.1 48.65 39.15 49.15 39.4 49.65 39.65 49.95 39.95 50.3 40.35 50.5 40.95 50.65 41.65 50.4 41.95 50.2 42.35 49.75 42.5 49.35 42.7 48.75 42.75 Z"/>
</g>

<g id="Layer35_0_FILL">
<path fill="#2A2A2A" stroke="none" d="
M 83.8 83.8
Q 97.7 69.8 97.7 50 97.7 30.2 83.8 16.3 69.8 2.3 50 2.3 30.2 2.3 16.3 16.3 2.3 30.2 2.3 50 2.3 69.8 16.3 83.8 30.2 97.7 50 97.7 69.8 97.7 83.8 83.8
M 50 7.65
Q 67.55 7.65 80 20.05 92.35 32.45 92.35 50 92.35 67.55 80 80 67.55 92.35 50 92.35 32.45 92.35 20.05 80 7.65 67.55 7.65 50 7.65 32.45 20.05 20.05 32.45 7.65 50 7.65 Z"/>

<path fill="#464646" stroke="none" d="
M 80 20.05
Q 67.55 7.65 50 7.65 32.45 7.65 20.05 20.05 7.65 32.45 7.65 50 7.65 67.55 20.05 80 32.45 92.35 50 92.35 67.55 92.35 80 80 92.35 67.55 92.35 50 92.35 32.45 80 20.05
M 89.55 48.8
Q 90.1033203125 48.8 90.6 48.8
L 89.6 50.15 89.6 50.9
Q 89.25 66.7 78 78 66.4 89.6 50 89.6 33.7 89.6 22.1 78 10.75 66.7 10.4 50.9 10.4 50.7 10.4 50.5
L 10.4 50.1
Q 10.4 50.05 10.4 50 10.4 33.65 22.1 22.05 33.7 10.4 50 10.4 66.4 10.4 78 22.05 89.1798828125 33.2298828125 89.55 48.8 Z"/>

<path fill="#FFFFFF" stroke="none" d="
M 89.55 48.8
Q 89.3203125 48.833203125 89.05 48.85 88.3 48.85 87.55 48.9 87.15 48.9 86.7 48.9 83.9 48.9 81 48.95 80.7 48.95 80.3 48.95
L 80.25 48.95
Q 80 48.95 79.7 48.95
L 77.75 48.95 75.7 48.95
Q 75.4 48.95 75.1 48.95
L 69.15 49.05
Q 69 49.05 68.8 49.05
L 64.8 49.05 77.8 66.55 89.6 50.15 90.6 48.8
Q 90.1033203125 48.8 89.55 48.8 Z"/>

<path fill="url(#Gradient_3)" stroke="none" d="
M 89.05 48.85
Q 89.3203125 48.833203125 89.55 48.8 89.1798828125 33.2298828125 78 22.05 66.4 10.4 50 10.4 33.7 10.4 22.1 22.05 10.4 33.65 10.4 50 10.4 50.05 10.4 50.1
L 10.4 50.5
Q 10.4 50.7 10.4 50.9 10.75 66.7 22.1 78 33.7 89.6 50 89.6 66.4 89.6 78 78 89.25 66.7 89.6 50.9
L 89.6 50.15 77.8 66.55 64.8 49.05 68.8 49.05
Q 69 49.05 69.15 49.05
L 75.1 48.95
Q 75.4 48.95 75.7 48.95
L 77.75 48.95
Q 77.45 37.95 69.55 30 61.25 21.75 49.6 21.75 37.9 21.75 29.65 30 21.35 38.3 21.35 50 21.35 52.05 21.6 54.05 22.15 58.05 23.8 61.6 25.85 66.1 29.65 69.9 37.9 78.2 49.6 78.2 51.55 78.2 53.3 77.95 57.9 77.4 61.95 75.45 57.9 77.4 53.3 77.95 51.55 78.2 49.6 78.2 37.9 78.2 29.65 69.9 25.85 66.1 23.8 61.6 22.15 58.05 21.6 54.05 21.35 52.05 21.35 50 21.35 38.3 29.65 30 37.9 21.75 49.6 21.75 61.25 21.75 69.55 30 77.45 37.95 77.75 48.95
L 79.7 48.95
Q 80 48.95 80.25 48.95
L 80.3 48.95
Q 80.7 48.95 81 48.95 83.9 48.9 86.7 48.9 87.15 48.9 87.55 48.9 88.3 48.85 89.05 48.85 Z"/>
</g>

<g id="Layer34_0_FILL">
<path fill="#2A2A2A" stroke="none" d="
M 83.8 83.8
Q 97.7 69.8 97.7 50 97.7 30.2 83.8 16.3 69.8 2.3 50 2.3 30.2 2.3 16.3 16.3 2.3 30.2 2.3 50 2.3 69.8 16.3 83.8 30.2 97.7 50 97.7 69.8 97.7 83.8 83.8
M 50 7.65
Q 67.55 7.65 80 20.05 92.35 32.45 92.35 50 92.35 67.55 80 80 67.55 92.35 50 92.35 32.45 92.35 20.05 80 7.65 67.55 7.65 50 7.65 32.45 20.05 20.05 32.45 7.65 50 7.65 Z"/>

<path fill="#464646" stroke="none" d="
M 80 20.05
Q 67.55 7.65 50 7.65 32.45 7.65 20.05 20.05 7.65 32.45 7.65 50 7.65 67.55 20.05 80 32.45 92.35 50 92.35 67.55 92.35 80 80 92.35 67.55 92.35 50 92.35 32.45 80 20.05
M 89.6 50.1
L 89.6 50.9
Q 89.25 66.7 78 78 66.4 89.6 50 89.6 33.7 89.6 22.1 78 10.75 66.7 10.4 50.9
L 10.4 50.85 8.9 48.8
Q 9.656640625 48.8193359375 10.4 48.85 10.81796875 33.235546875 22.1 22.05 33.7 10.4 50 10.4 66.4 10.4 78 22.05 89.6 33.65 89.6 50 89.6 50.05 89.6 50.1 Z"/>

<path fill="#FFFFFF" stroke="none" d="
M 12.8 48.9
Q 12.371484375 48.8890625 11.95 48.85 11.181640625 48.8568359375 10.4 48.85 9.656640625 48.8193359375 8.9 48.8
L 10.4 50.85 21.7 66.55 34.7 49.05 30.65 49
Q 30.496875 49.026953125 30.3 49
L 24.35 48.95
Q 24.1248046875 48.9517578125 23.8 48.95
L 21.75 48.95 19.8 48.95
Q 19.5 48.95 19.25 48.95
L 19.2 48.95
Q 18.8 48.95 18.5 48.95 15.6 48.9 12.8 48.9 Z"/>

<path fill="url(#Gradient_3)" stroke="none" d="
M 89.6 50.9
L 89.6 50.1
Q 89.6 50.05 89.6 50 89.6 33.65 78 22.05 66.4 10.4 50 10.4 33.7 10.4 22.1 22.05 10.81796875 33.235546875 10.4 48.85 11.181640625 48.8568359375 11.95 48.85
L 11.9 48.8
Q 13.4 48.85 14.9 48.9 17.0255859375 48.9 19.2 48.95
L 19.25 48.95
Q 19.5 48.95 19.8 48.95
L 21.75 48.95
Q 22.05 37.95 29.95 30 38.25 21.75 49.9 21.75 61.6 21.75 69.85 30 78.15 38.3 78.15 50 78.15 52.05 77.9 54.05 77.35 58.05 75.7 61.6 73.65 66.1 69.85 69.9 61.6 78.2 49.9 78.2 47.95 78.2 46.2 77.95 41.6 77.4 37.55 75.45 41.6 77.4 46.2 77.95 47.95 78.2 49.9 78.2 61.6 78.2 69.85 69.9 73.65 66.1 75.7 61.6 77.35 58.05 77.9 54.05 78.15 52.05 78.15 50 78.15 38.3 69.85 30 61.6 21.75 49.9 21.75 38.25 21.75 29.95 30 22.05 37.95 21.75 48.95
L 23.8 48.95
Q 24.1248046875 48.9517578125 24.35 48.95
L 30.3 49
Q 30.496875 49.026953125 30.65 49
L 34.7 49.05 21.7 66.55 10.4 50.85 10.4 50.9
Q 10.75 66.7 22.1 78 33.7 89.6 50 89.6 66.4 89.6 78 78 89.25 66.7 89.6 50.9 Z"/>
</g>

<g id="Layer33_0_FILL">
<path fill="#2A2A2A" stroke="none" d="
M 83.8 83.8
Q 97.7 69.8 97.7 50 97.7 30.2 83.8 16.3 69.8 2.3 50 2.3 30.2 2.3 16.3 16.3 2.3 30.2 2.3 50 2.3 69.8 16.3 83.8 30.2 97.7 50 97.7 69.8 97.7 83.8 83.8
M 50 7.65
Q 67.55 7.65 80 20.05 92.35 32.45 92.35 50 92.35 67.55 80 80 67.55 92.35 50 92.35 32.45 92.35 20.05 80 7.65 67.55 7.65 50 7.65 32.45 20.05 20.05 32.45 7.65 50 7.65 Z"/>

<path fill="#464646" stroke="none" d="
M 80 20.05
Q 67.55 7.65 50 7.65 32.45 7.65 20.05 20.05 7.65 32.45 7.65 50 7.65 67.55 20.05 80 32.45 92.35 50 92.35 67.55 92.35 80 80 92.35 67.55 92.35 50 92.35 32.45 80 20.05
M 89.6 50.1
L 89.6 50.9
Q 89.25 66.7 78 78 66.4 89.6 50 89.6 33.7 89.6 22.1 78 10.75 66.7 10.4 50.9 10.4 50.7 10.4 50.5
L 10.4 50.1
Q 10.4 50.05 10.4 50 10.4 33.65 22.1 22.05 33.7 10.4 50 10.4 66.4 10.4 78 22.05 89.6 33.65 89.6 50 89.6 50.05 89.6 50.1 Z"/>

<path fill="url(#Gradient_3)" stroke="none" d="
M 89.6 50.9
L 89.6 50.1
Q 89.6 50.05 89.6 50 89.6 33.65 78 22.05 66.4 10.4 50 10.4 33.7 10.4 22.1 22.05 10.4 33.65 10.4 50 10.4 50.05 10.4 50.1
L 10.4 50.5
Q 10.4 50.7 10.4 50.9 10.75 66.7 22.1 78 33.7 89.6 50 89.6 66.4 89.6 78 78 89.25 66.7 89.6 50.9
M 50 28.15
Q 59.05 28.15 65.5 34.55 71.85 40.95 71.85 50 71.85 59.05 65.5 65.5 59.05 71.85 50 71.85 40.95 71.85 34.55 65.5 28.15 59.05 28.15 50 28.15 40.95 34.55 34.55 40.95 28.15 50 28.15 Z"/>

<path fill="#FFFFFF" stroke="none" d="
M 65.5 34.55
Q 59.05 28.15 50 28.15 40.95 28.15 34.55 34.55 28.15 40.95 28.15 50 28.15 59.05 34.55 65.5 40.95 71.85 50 71.85 59.05 71.85 65.5 65.5 71.85 59.05 71.85 50 71.85 40.95 65.5 34.55
M 50 31.15
Q 57.8 31.15 63.35 36.65 68.85 42.2 68.85 50 68.85 57.8 63.35 63.35 57.8 68.85 50 68.85 42.2 68.85 36.65 63.35 31.15 57.8 31.15 50 31.15 42.2 36.65 36.65 42.2 31.15 50 31.15 Z"/>

<path fill="#F5F5F5" stroke="none" d="
M 63.35 36.65
Q 57.8 31.15 50 31.15 42.2 31.15 36.65 36.65 31.15 42.2 31.15 50 31.15 57.8 36.65 63.35 42.2 68.85 50 68.85 57.8 68.85 63.35 63.35 68.85 57.8 68.85 50 68.85 42.2 63.35 36.65 Z"/>
</g>

<g id="Layer32_0_FILL">
<path fill="#2A2A2A" stroke="none" d="
M 83.8 83.8
Q 97.7 69.8 97.7 50 97.7 30.2 83.8 16.3 69.8 2.3 50 2.3 30.2 2.3 16.3 16.3 2.3 30.2 2.3 50 2.3 69.8 16.3 83.8 30.2 97.7 50 97.7 69.8 97.7 83.8 83.8
M 50 7.65
Q 67.55 7.65 80 20.05 92.35 32.45 92.35 50 92.35 67.55 80 80 67.55 92.35 50 92.35 32.45 92.35 20.05 80 16.7611328125 76.6978515625 14.35 73 7.6630859375 62.8736328125 7.65 50 7.65 49.9501953125 7.65 49.9 7.3849609375 45.2 8.6 40.5 8.925 39 9.35 37.55 9.95 35.65 10.65 33.9 12.1 30.35 14.25 27.1 15.25 25.55 16.45 24.05
L 16.45 24.05
Q 18.115234375 21.984765625 20.05 20.05 32.45 7.65 50 7.65 Z"/>

<path fill="#FFFFFF" stroke="none" d="
M 16.45 24.05
L 16.45 24.05
Q 15.25 25.55 14.25 27.1 12.1 30.35 10.65 33.9 9.95 35.65 9.35 37.55 8.925 39 8.6 40.5 7.3849609375 45.2 7.65 49.9 7.65 49.9501953125 7.65 50 7.6630859375 62.8736328125 14.35 73 15.3537109375 74.4546875 16.45 75.85 17.95 76 19.55 76 19.879296875 76 20.2 76
L 20.25 76
Q 19.04921875 74.658984375 17.95 73.25 10.6830078125 63.5322265625 10.4 50.9 10.4013671875 50.7001953125 10.4 50.5
L 10.4 50.1
Q 10.4 50.05 10.4 50 10.4 49.9501953125 10.4 49.9
L 11.75 39.35
Q 12.2 37.6625 12.8 36.05 13.45 34.3 14.25 32.65 15.95 29.3 18.3 26.25 19.25 25 20.35 23.8 19.95 23.8 19.55 23.8 17.9671875 23.8 16.45 24.05 Z"/>

<path fill="#F5F5F5" stroke="none" d="
M 45.55 48
Q 45.5 47.1 45.35 46.2 45.25 45.6 45.15 45 44.5 41.2 42.7 37.8 42.45 37.3 42.1 36.8 40.85 34.65 39.15 32.75 38.6 32.1 37.95 31.45 35.05 28.55 31.75 26.8 30.65 26.15 29.45 25.7 28.8 25.4 28.1 25.15 24.4830078125 23.911328125 20.4 23.8 20.387109375 23.8009765625 20.35 23.8 19.25 25 18.3 26.25 15.95 29.3 14.25 32.65 13.45 34.3 12.8 36.05 12.2 37.6625 11.75 39.35
L 10.4 49.9
Q 10.4 49.9501953125 10.4 50 10.4 50.05 10.4 50.1
L 10.4 50.5
Q 10.4013671875 50.7001953125 10.4 50.9 10.6830078125 63.5322265625 17.95 73.25 19.04921875 74.658984375 20.25 76 24.55 75.9 28.4 74.55 28.5 74.45 28.65 74.45 30.5 73.75 32.3 72.75 35.25 71 37.95 68.3 40.9 65.4 42.7 62 45.2 57.25 45.55 51.65 45.6 50.75 45.6 49.9 45.6 48.95 45.55 48 Z"/>

<path fill="url(#Gradient_3)" stroke="none" d="
M 89.6 50.9
L 89.6 50.1
Q 89.6 50.05 89.6 50 89.6 33.65 78 22.05 66.4 10.4 50 10.4 33.7 10.4 22.1 22.05 21.2296875 22.912890625 20.4 23.8 24.4830078125 23.911328125 28.1 25.15 28.8 25.4 29.45 25.7 30.65 26.15 31.75 26.8 35.05 28.55 37.95 31.45 38.6 32.1 39.15 32.75 40.85 34.65 42.1 36.8 42.45 37.3 42.7 37.8 44.5 41.2 45.15 45 45.25 45.6 45.35 46.2 45.5 47.1 45.55 48 45.6 48.95 45.6 49.9 45.6 50.75 45.55 51.65 45.2 57.25 42.7 62 40.9 65.4 37.95 68.3 35.25 71 32.3 72.75 30.5 73.75 28.65 74.45 28.5 74.45 28.4 74.55 24.55 75.9 20.25 76
L 20.2 76
Q 21.112890625 77.0171875 22.1 78 33.7 89.6 50 89.6 66.4 89.6 78 78 89.25 66.7 89.6 50.9 Z"/>

<path fill="#464646" stroke="none" d="
M 89.6 50.1
L 89.6 50.9
Q 89.25 66.7 78 78 66.4 89.6 50 89.6 33.7 89.6 22.1 78 21.112890625 77.0171875 20.2 76 19.879296875 76 19.55 76 17.95 76 16.45 75.85 15.3537109375 74.4546875 14.35 73 16.7611328125 76.6978515625 20.05 80 32.45 92.35 50 92.35 67.55 92.35 80 80 92.35 67.55 92.35 50 92.35 32.45 80 20.05 67.55 7.65 50 7.65 32.45 7.65 20.05 20.05 18.115234375 21.984765625 16.45 24.05 17.9671875 23.8 19.55 23.8 19.95 23.8 20.35 23.8 20.387109375 23.8009765625 20.4 23.8 21.2296875 22.912890625 22.1 22.05 33.7 10.4 50 10.4 66.4 10.4 78 22.05 89.6 33.65 89.6 50 89.6 50.05 89.6 50.1 Z"/>
</g>

<g id="Layer31_0_FILL">
<path fill="#2A2A2A" stroke="none" d="
M 83.8 83.8
Q 97.7 69.8 97.7 50 97.7 30.2 83.8 16.3 69.8 2.3 50 2.3 30.2 2.3 16.3 16.3 2.3 30.2 2.3 50 2.3 69.8 16.3 83.8 30.2 97.7 50 97.7 69.8 97.7 83.8 83.8
M 50 7.65
Q 67.55 7.65 80 20.05 92.35 32.45 92.35 50 92.35 67.55 80 80 77.41328125 82.566015625 74.6 84.6 64.4896484375 91.3904296875 51.05 92.35 50.9671875 92.3478515625 50.85 92.35 50.723046875 92.3484375 50.6 92.35 50.4654296875 92.3490234375 50.3 92.35 50.1658203125 92.35 50 92.35 49.0748046875 92.35 48.15 92.3 36.2501953125 91.8662109375 26.75 85.5 23.23984375 83.176953125 20.05 80 7.65 67.55 7.65 50 7.65 32.45 20.05 20.05 32.45 7.65 50 7.65 Z"/>

<path fill="#FFFFFF" stroke="none" d="
M 23.9 79.65
L 23.9 79.7
Q 23.9 80.07734375 23.9 80.45 23.9 82.05 24.15 83.55 25.450390625 84.5810546875 26.75 85.5 36.2501953125 91.8662109375 48.15 92.3 49.0748046875 92.35 50 92.35 50.1658203125 92.35 50.3 92.35 50.4654296875 92.3490234375 50.6 92.35 50.723046875 92.3484375 50.85 92.35 50.9671875 92.3478515625 51.05 92.35 64.4896484375 91.3904296875 74.6 84.6 75.2759765625 84.0794921875 75.95 83.55 76.1 82.05 76.1 80.45 76.1 80.1216796875 76.1 79.8
L 76.1 79.75
Q 74.8705078125 80.85078125 73.6 81.85 65.6615234375 87.6263671875 53.35 89.45 53.2771484375 89.4677734375 53.15 89.45 53.0458984375 89.4921875 52.9 89.5 52.794921875 89.5177734375 52.65 89.5 51.8185546875 89.5810546875 50.95 89.6 50.7173828125 89.5974609375 50.45 89.6 50.2404296875 89.6 50 89.6 36.8234375 89.6 26.7 82 25.28125 80.89375 23.9 79.65 Z"/>

<path fill="#F5F5F5" stroke="none" d="
M 37.9 57.3
Q 34.5 59.1 31.55 62.05 28.65 64.95 26.9 68.25 25.9 70 25.25 71.9 24 75.55 23.9 79.65 25.28125 80.89375 26.7 82 36.8234375 89.6 50 89.6 50.2404296875 89.6 50.45 89.6 50.7173828125 89.5974609375 50.95 89.6 51.8185546875 89.5810546875 52.65 89.5 52.794921875 89.5177734375 52.9 89.5 53.0458984375 89.4921875 53.15 89.45 53.2771484375 89.4677734375 53.35 89.45 65.6615234375 87.6263671875 73.6 81.85 74.8705078125 80.85078125 76.1 79.75 76 75.45 74.65 71.6 74.55 71.5 74.55 71.35 73.85 69.5 72.85 67.7 71.1 64.75 68.4 62.05 65.5 59.1 62.1 57.3 57.35 54.8 51.75 54.45 50.85 54.4 50 54.4 49.05 54.4 48.1 54.45 47.2 54.5 46.3 54.65 45.7 54.75 45.1 54.85 41.3 55.5 37.9 57.3 Z"/>

<path fill="url(#Gradient_3)" stroke="none" d="
M 89.6 50.9
L 89.6 50.1
Q 89.6 50.05 89.6 50 89.6 33.65 78 22.05 66.4 10.4 50 10.4 33.7 10.4 22.1 22.05 10.4 33.65 10.4 50 10.4 50.05 10.4 50.1
L 10.4 50.5
Q 10.4 50.7 10.4 50.9 10.75 66.7 22.1 78 22.9865234375 78.8865234375 23.9 79.7
L 23.9 79.65
Q 24 75.55 25.25 71.9 25.9 70 26.9 68.25 28.65 64.95 31.55 62.05 34.5 59.1 37.9 57.3 41.3 55.5 45.1 54.85 45.7 54.75 46.3 54.65 47.2 54.5 48.1 54.45 49.05 54.4 50 54.4 50.85 54.4 51.75 54.45 57.35 54.8 62.1 57.3 65.5 59.1 68.4 62.05 71.1 64.75 72.85 67.7 73.85 69.5 74.55 71.35 74.55 71.5 74.65 71.6 76 75.45 76.1 79.75
L 76.1 79.8
Q 77.065625 78.934375 78 78 89.25 66.7 89.6 50.9 Z"/>

<path fill="#464646" stroke="none" d="
M 89.6 50.1
L 89.6 50.9
Q 89.25 66.7 78 78 77.065625 78.934375 76.1 79.8 76.1 80.1216796875 76.1 80.45 76.1 82.05 75.95 83.55 75.2759765625 84.0794921875 74.6 84.6 77.41328125 82.566015625 80 80 92.35 67.55 92.35 50 92.35 32.45 80 20.05 67.55 7.65 50 7.65 32.45 7.65 20.05 20.05 7.65 32.45 7.65 50 7.65 67.55 20.05 80 23.23984375 83.176953125 26.75 85.5 25.450390625 84.5810546875 24.15 83.55 23.9 82.05 23.9 80.45 23.9 80.07734375 23.9 79.7 22.9865234375 78.8865234375 22.1 78 10.75 66.7 10.4 50.9 10.4 50.7 10.4 50.5
L 10.4 50.1
Q 10.4 50.05 10.4 50 10.4 33.65 22.1 22.05 33.7 10.4 50 10.4 66.4 10.4 78 22.05 89.6 33.65 89.6 50 89.6 50.05 89.6 50.1 Z"/>
</g>

<g id="Layer30_0_FILL">
<path fill="#2A2A2A" stroke="none" d="
M 83.8 83.8
Q 97.7 69.8 97.7 50 97.7 30.2 83.8 16.3 69.8 2.3 50 2.3 30.2 2.3 16.3 16.3 2.3 30.2 2.3 50 2.3 69.8 16.3 83.8 30.2 97.7 50 97.7 69.8 97.7 83.8 83.8
M 89.95 35.5
Q 90.219921875 36.300390625 90.45 37.1
L 90.55 37.3
Q 90.5958984375 37.4787109375 90.65 37.65 90.7546875 38.007421875 90.85 38.35 92.0146484375 42.6263671875 92.3 47.25 92.3166015625 47.4259765625 92.3 47.55 92.319140625 47.6828125 92.3 47.8 92.337890625 48.153515625 92.35 48.5 92.3462890625 48.6197265625 92.35 48.75 92.3470703125 48.8689453125 92.35 49 92.3482421875 49.09609375 92.35 49.2 92.3484375 49.455078125 92.35 49.7 92.35 49.85390625 92.35 50 92.35 50.928125 92.3 51.85 91.819140625 64.109375 84.45 74.8 82.4732421875 77.5068359375 80 80 67.55 92.35 50 92.35 32.45 92.35 20.05 80 7.65 67.55 7.65 50 7.65 32.45 20.05 20.05 32.45 7.65 50 7.65 67.55 7.65 80 20.05 86.9033203125 26.98125 89.95 35.5 Z"/>

<path fill="url(#Gradient_3)" stroke="none" d="
M 79.65 23.9
Q 79.6994140625 23.9 79.75 23.9 78.910546875 22.960546875 78 22.05 66.4 10.4 50 10.4 33.7 10.4 22.1 22.05 10.4 33.65 10.4 50 10.4 50.05 10.4 50.1
L 10.4 50.5
Q 10.4 50.7 10.4 50.9 10.75 66.7 22.1 78 33.7 89.6 50 89.6 66.4 89.6 78 78 78.93046875 77.0654296875 79.75 76.1
L 79.75 76.1
Q 75.45 76 71.6 74.65 71.5 74.55 71.35 74.55 69.5 73.85 67.7 72.85 64.75 71.1 62.05 68.4 59.1 65.5 57.3 62.1 54.8 57.35 54.45 51.75 54.4 50.85 54.4 50 54.4 49.05 54.45 48.1 54.5 47.2 54.65 46.3 54.75 45.7 54.85 45.1 55.5 41.3 57.3 37.9 57.55 37.4 57.9 36.9 59.15 34.75 60.85 32.85 61.4 32.2 62.05 31.55 64.95 28.65 68.25 26.9 69.35 26.25 70.55 25.8 71.2 25.5 71.9 25.25 75.55 24 79.65 23.9 Z"/>

<path fill="#F5F5F5" stroke="none" d="
M 87.2 36.15
Q 87.0375 35.7125 86.85 35.25 86.35546875 33.990625 85.75 32.75 84.9126953125 31.0701171875 83.9 29.45 82.875 27.875 81.7 26.35 80.75 25.1 79.65 23.9 75.55 24 71.9 25.25 71.2 25.5 70.55 25.8 69.35 26.25 68.25 26.9 64.95 28.65 62.05 31.55 61.4 32.2 60.85 32.85 59.15 34.75 57.9 36.9 57.55 37.4 57.3 37.9 55.5 41.3 54.85 45.1 54.75 45.7 54.65 46.3 54.5 47.2 54.45 48.1 54.4 49.05 54.4 50 54.4 50.85 54.45 51.75 54.8 57.35 57.3 62.1 59.1 65.5 62.05 68.4 64.75 71.1 67.7 72.85 69.5 73.85 71.35 74.55 71.5 74.55 71.6 74.65 75.45 76 79.75 76.1 80.2353515625 75.5578125 80.7 75
L 83.2 71.65
Q 88.324609375 64.0080078125 89.35 54.7 89.5572265625 52.82734375 89.6 50.9
L 89.6 50.1
Q 89.6 50.05 89.6 50 89.6 49.05703125 89.55 48.1 89.5318359375 47.674609375 89.5 47.2 89.4875 47.01953125 89.45 46.8 89.4376953125 46.2958984375 89.4 45.75 88.9576171875 41.270703125 87.55 37.15 87.3859375 36.65 87.2 36.15 Z"/>

<path fill="#464646" stroke="none" d="
M 85.75 27.2
Q 87.9 30.45 89.35 34 89.649609375 34.748828125 89.95 35.5 86.9033203125 26.98125 80 20.05 67.55 7.65 50 7.65 32.45 7.65 20.05 20.05 7.65 32.45 7.65 50 7.65 67.55 20.05 80 32.45 92.35 50 92.35 67.55 92.35 80 80 82.4732421875 77.5068359375 84.45 74.8 84.0009765625 75.3759765625 83.55 75.95 82.05 76.1 80.45 76.1 80.11796875 76.1 79.75 76.1 78.93046875 77.0654296875 78 78 66.4 89.6 50 89.6 33.7 89.6 22.1 78 10.75 66.7 10.4 50.9 10.4 50.7 10.4 50.5
L 10.4 50.1
Q 10.4 50.05 10.4 50 10.4 33.65 22.1 22.05 33.7 10.4 50 10.4 66.4 10.4 78 22.05 78.910546875 22.960546875 79.75 23.9 80.0994140625 23.9 80.45 23.9 82.05 23.9 83.55 24.15 84.75 25.65 85.75 27.2 Z"/>

<path fill="#FFFFFF" stroke="none" d="
M 89.35 34
Q 87.9 30.45 85.75 27.2 84.75 25.65 83.55 24.15 82.05 23.9 80.45 23.9 80.0994140625 23.9 79.75 23.9 79.6994140625 23.9 79.65 23.9 80.75 25.1 81.7 26.35 82.875 27.875 83.9 29.45 84.9126953125 31.0701171875 85.75 32.75 86.35546875 33.990625 86.85 35.25 87.0375 35.7125 87.2 36.15 87.3859375 36.65 87.55 37.15 88.9576171875 41.270703125 89.4 45.75 89.4376953125 46.2958984375 89.45 46.8 89.4875 47.01953125 89.5 47.2 89.5318359375 47.674609375 89.55 48.1 89.6 49.05703125 89.6 50 89.6 50.05 89.6 50.1
L 89.6 50.9
Q 89.5572265625 52.82734375 89.35 54.7 88.324609375 64.0080078125 83.2 71.65
L 80.7 75
Q 80.2353515625 75.5578125 79.75 76.1
L 79.75 76.1
Q 80.11796875 76.1 80.45 76.1 82.05 76.1 83.55 75.95 84.0009765625 75.3759765625 84.45 74.8 91.819140625 64.109375 92.3 51.85 92.35 50.928125 92.35 50 92.35 49.85390625 92.35 49.7 92.3484375 49.455078125 92.35 49.2 92.3482421875 49.09609375 92.35 49 92.3470703125 48.8689453125 92.35 48.75 92.3462890625 48.6197265625 92.35 48.5 92.337890625 48.153515625 92.3 47.8 92.319140625 47.6828125 92.3 47.55 92.3166015625 47.4259765625 92.3 47.25 92.0146484375 42.6263671875 90.85 38.35 90.7546875 38.007421875 90.65 37.65 90.5958984375 37.4787109375 90.55 37.3
L 90.45 37.1
Q 90.219921875 36.300390625 89.95 35.5 89.649609375 34.748828125 89.35 34 Z"/>
</g>

<g id="Layer29_0_FILL">
<path fill="#2A2A2A" stroke="none" d="
M 83.8 83.8
Q 97.7 69.8 97.7 50 97.7 30.2 83.8 16.3 79.0794921875 11.5794921875 73.7 8.45 63.1240234375 2.3 50 2.3 36.8515625 2.3 26.3 8.45 20.96953125 11.596875 16.3 16.3 2.3 30.2 2.3 50 2.3 69.8 16.3 83.8 30.2 97.7 50 97.7 69.8 97.7 83.8 83.8
M 75.9 16.4
Q 78.025390625 18.0833984375 80 20.05 92.35 32.45 92.35 50 92.35 67.55 80 80 67.55 92.35 50 92.35 32.45 92.35 20.05 80 7.65 67.55 7.65 50 7.65 32.45 20.05 20.05 22.0208984375 18.0791015625 24.1 16.4 35.2396484375 7.65 50 7.65 64.7666015625 7.65 75.9 16.4 Z"/>

<path fill="#F5F5F5" stroke="none" d="
M 45.1 45.15
Q 45.68984375 45.2689453125 46.25 45.35 47.1853515625 45.4830078125 48.1 45.55 49.04296875 45.6 50 45.6 50.873046875 45.6 51.7 45.55 57.3626953125 45.2193359375 62.05 42.7 65.47890625 40.890234375 68.4 37.95 71.1 35.25 72.85 32.3 73.85 30.5 74.55 28.65 74.55 28.5 74.65 28.4 75.9927734375 24.556640625 76.1 20.25 65.0794921875 10.4 50 10.4 34.9458984375 10.4 23.9 20.3 24.0162109375 24.444140625 25.25 28.1 25.9 30 26.9 31.75 28.65 35.05 31.55 37.95 34.49609375 40.89609375 37.9 42.7 41.276953125 44.4818359375 45.1 45.15 Z"/>

<path fill="#FFFFFF" stroke="none" d="
M 76.1 19.55
Q 76.1 17.96015625 75.9 16.4 64.7666015625 7.65 50 7.65 35.2396484375 7.65 24.1 16.4 23.9 17.93984375 23.9 19.55 23.9 19.94140625 23.9 20.3 34.9458984375 10.4 50 10.4 65.0794921875 10.4 76.1 20.25 76.1 19.897265625 76.1 19.55 Z"/>

<path fill="url(#Gradient_3)" stroke="none" d="
M 89.6 50.9
L 89.6 50.1
Q 89.6 50.05 89.6 50 89.6 33.65 78 22.05 77.066015625 21.1119140625 76.1 20.25 75.9927734375 24.556640625 74.65 28.4 74.55 28.5 74.55 28.65 73.85 30.5 72.85 32.3 71.1 35.25 68.4 37.95 65.47890625 40.890234375 62.05 42.7 57.3626953125 45.2193359375 51.7 45.55 50.873046875 45.6 50 45.6 49.04296875 45.6 48.1 45.55 47.1853515625 45.4830078125 46.25 45.35 45.68984375 45.2689453125 45.1 45.15 41.276953125 44.4818359375 37.9 42.7 34.49609375 40.89609375 31.55 37.95 28.65 35.05 26.9 31.75 25.9 30 25.25 28.1 24.0162109375 24.444140625 23.9 20.3 22.9865234375 21.1595703125 22.1 22.05 10.4 33.65 10.4 50 10.4 50.05 10.4 50.1
L 10.4 50.5
Q 10.4 50.7 10.4 50.9 10.75 66.7 22.1 78 33.7 89.6 50 89.6 66.4 89.6 78 78 89.25 66.7 89.6 50.9 Z"/>

<path fill="#464646" stroke="none" d="
M 89.6 50.1
L 89.6 50.9
Q 89.25 66.7 78 78 66.4 89.6 50 89.6 33.7 89.6 22.1 78 10.75 66.7 10.4 50.9 10.4 50.7 10.4 50.5
L 10.4 50.1
Q 10.4 50.05 10.4 50 10.4 33.65 22.1 22.05 22.9865234375 21.1595703125 23.9 20.3 23.9 19.94140625 23.9 19.55 23.9 17.93984375 24.1 16.4 22.0208984375 18.0791015625 20.05 20.05 7.65 32.45 7.65 50 7.65 67.55 20.05 80 32.45 92.35 50 92.35 67.55 92.35 80 80 92.35 67.55 92.35 50 92.35 32.45 80 20.05 78.025390625 18.0833984375 75.9 16.4 76.1 17.96015625 76.1 19.55 76.1 19.897265625 76.1 20.25 77.066015625 21.1119140625 78 22.05 89.6 33.65 89.6 50 89.6 50.05 89.6 50.1 Z"/>
</g>

<g id="Layer28_0_FILL">
<path fill="#2A2A2A" stroke="none" d="
M 83.8 83.8
Q 97.7 69.8 97.7 50 97.7 30.2 83.8 16.3 69.8 2.3 50 2.3 30.2 2.3 16.3 16.3 2.3 30.2 2.3 50 2.3 69.8 16.3 83.8 30.2 97.7 50 97.7 69.8 97.7 83.8 83.8
M 50 7.65
Q 67.55 7.65 80 20.05 92.35 32.45 92.35 50 92.35 67.55 80 80 67.55 92.35 50 92.35 32.45 92.35 20.05 80 7.65 67.55 7.65 50 7.65 32.45 20.05 20.05 32.45 7.65 50 7.65 Z"/>

<path fill="#464646" stroke="none" d="
M 80 20.05
Q 67.55 7.65 50 7.65 32.45 7.65 20.05 20.05 7.65 32.45 7.65 50 7.65 67.55 20.05 80 32.45 92.35 50 92.35 67.55 92.35 80 80 92.35 67.55 92.35 50 92.35 32.45 80 20.05
M 89.6 50
Q 89.6 50.05 89.6 50.1
L 89.6 50.9
Q 89.25 66.7 78 78 66.4 89.6 50 89.6 33.7 89.6 22.1 78 10.75 66.7 10.4 50.9 10.4 50.7 10.4 50.5
L 10.4 50.1
Q 10.4 50.05 10.4 50 10.4 33.65 22.1 22.05 33.7 10.4 50 10.4 66.4 10.4 78 22.05 89.6 33.65 89.6 50 Z"/>

<path fill="url(#Gradient_3)" stroke="none" d="
M 89.6 50.1
Q 89.6 50.05 89.6 50 89.6 33.65 78 22.05 66.4 10.4 50 10.4 33.7 10.4 22.1 22.05 10.4 33.65 10.4 50 10.4 50.05 10.4 50.1
L 10.4 50.5
Q 10.4 50.7 10.4 50.9 10.75 66.7 22.1 78 33.7 89.6 50 89.6 66.4 89.6 78 78 89.25 66.7 89.6 50.9
L 89.6 50.1 Z"/>
</g>

<g id="Layer27_0_FILL">
<path fill="#313131" stroke="none" d="
M 82.85 23.6
Q 82.8 23.45 82.65 23.35 79.75 14.8 70.75 11.05 61.6 7.2 51.65 10.55 41.8 13.85 36.75 22.15
L 36.65 22.2
Q 31.2 31.45 25.75 40.65 25.1 41.85 24.45 42.95 23.3 44.75 17.45 54.85 16.2 56.85 15.4 58.4 10.5 66.95 13.3 75.6 16.15 84.3 25.3 88.15 34.4 91.95 44.5 88.65 54.35 85.3 59.45 76.85 60.3 75.3 61.55 73.35 67.4 63.25 68.55 61.4 69.15 60.35 69.85 59.15 75.3 49.9 80.75 40.65
L 80.85 40.65
Q 85.6 32.15 82.85 23.6
M 80.75 24.25
L 80.85 24.35
Q 83.55 31.95 79.3 39.3
L 79.3 39.35
Q 78.9 40.05 78.4 40.85
L 67.8 58.9
Q 67.35 59.6 66.95 60.3 66 61.85 65.15 63.4
L 62.35 62.2
Q 61.85 62.9 61.35 63.85
L 36.85 34.1 34.65 37.6 59.2 67.4
Q 58.25 69.15 56.95 71.25
L 32.4 41.45 31.25 43.6
Q 31.1 43.7 31.05 43.9 30.7 44.45 30.35 45
L 30.3 45.05 54.85 74.85
Q 54.75 74.95 54.7 75.05
L 54.7 75.1
Q 53.6 76.85 52.25 78.35
L 27.3 47.95
Q 27.45 47.6 27.6 47.35 27.5 47.35 27.4 47.3 27.25 47.25 26.95 47.15
L 26.9 47.15
Q 26.85 47.2 26.75 47.2 26.65 47.2 26.6 47.25
L 24.7 46.45
Q 25.55 44.95 26.5 43.4 26.95 42.65 27.35 42
L 38 23.9
Q 38.4 23.15 38.8 22.5
L 38.85 22.4
Q 38.85 22.35 38.95 22.3
L 38.95 22.25
Q 43.45 15.1 52.2 12.3 52.4 12.2 52.7 12.15 59.45 10.15 65.7 11.65 67.65 12.1 69.6 12.9 71.55 13.75 73.25 14.85 78.55 18.15 80.75 23.95 80.75 24.05 80.8 24.1
L 80.75 24.25
M 22.9 55.4
Q 24.15 53.2 25.15 51.5
L 49.45 81
Q 47.8 82.3 45.8 83.25
L 22.9 55.4
M 18.25 74.15
Q 17.2 70.9 17.5 67.7
L 31.95 85.3
Q 29.85 84.95 27.75 84.05 25.35 83.05 23.5 81.55
L 19.05 76.25
Q 18.55 75.25 18.2 74.1
L 18.25 74.15
M 18.7 63
Q 19.15 61.7 19.85 60.45 20.3 59.7 20.8 58.9
L 42 84.75
Q 39.6 85.45 37.25 85.55
L 18.7 63
M 62.85 59.05
Q 62.95 58.95 63.05 58.7 63.5 57.95 63.95 57.3
L 64.9 55.5 41.2 26.6 39.1 30.15 62.85 59.05
M 75.95 36.65
Q 77.05 34.45 77.35 32.25
L 63.3 15.2
Q 60.8 14.8 58.1 15.05
L 75.95 36.65
M 53.5 15.95
Q 53.4 16.05 53.15 16.05 51.3 16.65 49.7 17.55
L 71.65 44.2 72.9 42.05
Q 73.3 41.35 73.7 40.6
L 53.5 15.95
M 46.25 19.9
Q 44.7 21.2 43.55 22.85
L 67.25 51.65 69.35 48.05 46.25 19.9
M 75.55 23.45
Q 74.2 20.95 72 19.05
L 75.55 23.45 Z"/>

<path fill="#4F4F4F" stroke="none" d="
M 19.85 60.45
Q 19.15 61.7 18.7 63
L 37.25 85.55
Q 39.6 85.45 42 84.75
L 20.8 58.9
Q 20.3 59.7 19.85 60.45
M 17.5 67.7
Q 17.2 70.9 18.25 74.15
L 18.2 74.1
Q 18.55 75.25 19.05 76.25
L 23.5 81.55
Q 25.35 83.05 27.75 84.05 29.85 84.95 31.95 85.3
L 17.5 67.7
M 25.15 51.5
Q 24.15 53.2 22.9 55.4
L 45.8 83.25
Q 47.8 82.3 49.45 81
L 25.15 51.5
M 31.65 40.5
L 32.4 41.45 56.95 71.25
Q 58.25 69.15 59.2 67.4
L 34.65 37.6 33.9 36.6
Q 32.8 38.55 31.65 40.5
M 30.3 45.05
L 29.55 44.1
Q 29.2 44.6 28.9 45.1 28.5 45.75 27.6 47.35 27.45 47.6 27.3 47.95
L 52.25 78.35
Q 53.6 76.85 54.7 75.1
L 54.7 75.05
Q 54.75 74.95 54.85 74.85
L 30.3 45.05
M 36 33.05
L 36.85 34.1 61.35 63.85
Q 61.85 62.9 62.35 62.2 63.2 60.65 63.65 60
L 62.85 59.05 39.1 30.15 38.25 29.15
Q 37.15 31.1 36 33.05
M 58.1 15.05
L 57.4 14.15
Q 55.25 14.45 52.9 15.2
L 52.85 15.25 53.5 15.95 73.7 40.6 74.5 41.5
Q 75.3 40.25 76 39
L 76.05 38.9
Q 76.45 38.2 76.7 37.55
L 75.95 36.65 58.1 15.05
M 45.6 19.2
L 46.25 19.9 69.35 48.05 70.1 48.95
Q 71.25 47 72.4 45.1
L 71.65 44.2 49.7 17.55 49.15 16.85
Q 47.2 17.85 45.6 19.2
M 43.55 22.85
L 42.85 21.95
Q 42 23 41.2 24.3 40.8 24.95 40.4 25.65
L 41.2 26.6 64.9 55.5 65.75 56.4
Q 66.85 54.45 68 52.55
L 67.25 51.65 43.55 22.85
M 62.45 14.05
L 63.3 15.2 77.35 32.25 78.1 33.2
Q 78.85 29.7 77.85 26.1
L 75.55 23.45 72 19.05 69.8 16.45
Q 68.95 16 68.05 15.6 65.3 14.45 62.45 14.05 Z"/>

<path fill="url(#Gradient_6)" stroke="none" d="
M 63.3 15.2
L 62.45 14.05
Q 65.3 14.45 68.05 15.6 68.95 16 69.8 16.45
L 72 19.05
Q 74.2 20.95 75.55 23.45
L 77.85 26.1
Q 78.85 29.7 78.1 33.2
L 77.35 32.25
Q 77.05 34.45 75.95 36.65
L 76.7 37.55
Q 76.45 38.2 76.05 38.9
L 76 39
Q 75.3 40.25 74.5 41.5
L 73.7 40.6
Q 73.3 41.35 72.9 42.05
L 71.65 44.2 72.4 45.1
Q 71.25 47 70.1 48.95
L 69.35 48.05 67.25 51.65 68 52.55
Q 66.85 54.45 65.75 56.4
L 64.9 55.5 63.95 57.3
Q 63.5 57.95 63.05 58.7 62.95 58.95 62.85 59.05
L 63.65 60
Q 63.2 60.65 62.35 62.2
L 65.15 63.4
Q 66 61.85 66.95 60.3 67.35 59.6 67.8 58.9
L 78.4 40.85
Q 78.9 40.05 79.3 39.35
L 79.3 39.3
Q 83.55 31.95 80.85 24.35
L 80.75 24.25 80.8 24.1
Q 80.75 24.05 80.75 23.95 78.55 18.15 73.25 14.85 71.55 13.75 69.6 12.9 67.65 12.1 65.7 11.65 59.45 10.15 52.7 12.15 52.4 12.2 52.2 12.3 43.45 15.1 38.95 22.25
L 38.95 22.3
Q 38.85 22.35 38.85 22.4
L 38.8 22.5
Q 38.4 23.15 38 23.9
L 27.35 42
Q 26.95 42.65 26.5 43.4 25.55 44.95 24.7 46.45
L 26.6 47.25
Q 26.65 47.2 26.75 47.2 26.85 47.2 26.9 47.15
L 26.95 47.15
Q 27.25 47.25 27.4 47.3 27.5 47.35 27.6 47.35 28.5 45.75 28.9 45.1 29.2 44.6 29.55 44.1
L 30.3 45.05 30.35 45
Q 30.7 44.45 31.05 43.9 31.1 43.7 31.25 43.6
L 32.4 41.45 31.65 40.5
Q 32.8 38.55 33.9 36.6
L 34.65 37.6 36.85 34.1 36 33.05
Q 37.15 31.1 38.25 29.15
L 39.1 30.15 41.2 26.6 40.4 25.65
Q 40.8 24.95 41.2 24.3 42 23 42.85 21.95
L 43.55 22.85
Q 44.7 21.2 46.25 19.9
L 45.6 19.2
Q 47.2 17.85 49.15 16.85
L 49.7 17.55
Q 51.3 16.65 53.15 16.05 53.4 16.05 53.5 15.95
L 52.85 15.25 52.9 15.2
Q 55.25 14.45 57.4 14.15
L 58.1 15.05
Q 60.8 14.8 63.3 15.2 Z"/>
</g>

<g id="Layer26_0_FILL">
<path fill="#313131" stroke="none" d="
M 59.55 22.2
L 59.45 22.15
Q 54.4 13.85 44.55 10.55 34.6 7.2 25.45 11.05 16.45 14.8 13.55 23.35 13.4 23.45 13.35 23.6 10.6 32.15 15.35 40.65
L 15.45 40.65
Q 20.9 49.9 26.35 59.15 27.05 60.35 27.65 61.4 28.8 63.25 34.65 73.35 35.9 75.3 36.75 76.85 41.85 85.3 51.7 88.65 61.8 91.95 70.9 88.15 80.05 84.3 82.9 75.6 85.7 66.95 80.8 58.4 80 56.85 78.75 54.85 72.9 44.75 71.75 42.95 71.1 41.85 70.45 40.65 65 31.45 59.55 22.2
M 43.5 12.15
Q 43.8 12.2 44 12.3 52.75 15.1 57.25 22.25
L 57.25 22.3
Q 57.35 22.35 57.35 22.4
L 57.4 22.5
Q 57.8 23.15 58.2 23.9
L 68.85 42
Q 69.25 42.65 69.7 43.4 70.65 44.95 71.5 46.45
L 69.6 47.25
Q 69.55 47.2 69.45 47.2 69.35 47.2 69.3 47.15
L 69.25 47.15
Q 68.95 47.25 68.8 47.3 68.7 47.35 68.6 47.35 68.75 47.6 68.9 47.95
L 43.95 78.35
Q 42.6 76.85 41.5 75.1
L 41.5 75.05
Q 41.45 74.95 41.35 74.85
L 65.9 45.05 65.85 45
Q 65.5 44.45 65.15 43.9 65.1 43.7 64.95 43.6
L 63.8 41.45 39.25 71.25
Q 37.95 69.15 37 67.4
L 61.55 37.6 59.35 34.1 34.85 63.85
Q 34.35 62.9 33.85 62.2
L 31.05 63.4
Q 30.2 61.85 29.25 60.3 28.85 59.6 28.4 58.9
L 17.8 40.85
Q 17.3 40.05 16.9 39.35
L 16.9 39.3
Q 12.65 31.95 15.35 24.35
L 15.45 24.25 15.4 24.1
Q 15.45 24.05 15.45 23.95 17.65 18.15 22.95 14.85 24.65 13.75 26.6 12.9 28.55 12.1 30.5 11.65 36.75 10.15 43.5 12.15
M 78.7 67.7
Q 79 70.9 77.95 74.15
L 78 74.1
Q 77.65 75.25 77.15 76.25
L 72.7 81.55
Q 70.85 83.05 68.45 84.05 66.35 84.95 64.25 85.3
L 78.7 67.7
M 71.05 51.5
Q 72.05 53.2 73.3 55.4
L 50.4 83.25
Q 48.4 82.3 46.75 81
L 71.05 51.5
M 75.4 58.9
Q 75.9 59.7 76.35 60.45 77.05 61.7 77.5 63
L 58.95 85.55
Q 56.6 85.45 54.2 84.75
L 75.4 58.9
M 38.1 15.05
Q 35.4 14.8 32.9 15.2
L 18.85 32.25
Q 19.15 34.45 20.25 36.65
L 38.1 15.05
M 20.65 23.45
L 24.2 19.05
Q 22 20.95 20.65 23.45
M 57.1 30.15
L 55 26.6 31.3 55.5 32.25 57.3
Q 32.7 57.95 33.15 58.7 33.25 58.95 33.35 59.05
L 57.1 30.15
M 52.65 22.85
Q 51.5 21.2 49.95 19.9
L 26.85 48.05 28.95 51.65 52.65 22.85
M 43.05 16.05
Q 42.8 16.05 42.7 15.95
L 22.5 40.6
Q 22.9 41.35 23.3 42.05
L 24.55 44.2 46.5 17.55
Q 44.9 16.65 43.05 16.05 Z"/>

<path fill="#4F4F4F" stroke="none" d="
M 76.35 60.45
Q 75.9 59.7 75.4 58.9
L 54.2 84.75
Q 56.6 85.45 58.95 85.55
L 77.5 63
Q 77.05 61.7 76.35 60.45
M 73.3 55.4
Q 72.05 53.2 71.05 51.5
L 46.75 81
Q 48.4 82.3 50.4 83.25
L 73.3 55.4
M 77.95 74.15
Q 79 70.9 78.7 67.7
L 64.25 85.3
Q 66.35 84.95 68.45 84.05 70.85 83.05 72.7 81.55
L 77.15 76.25
Q 77.65 75.25 78 74.1
L 77.95 74.15
M 24.2 19.05
L 20.65 23.45 18.35 26.1
Q 17.35 29.7 18.1 33.2
L 18.85 32.25 32.9 15.2 33.75 14.05
Q 30.9 14.45 28.15 15.6 27.25 16 26.4 16.45
L 24.2 19.05
M 67.3 45.1
Q 67 44.6 66.65 44.1
L 65.9 45.05 41.35 74.85
Q 41.45 74.95 41.5 75.05
L 41.5 75.1
Q 42.6 76.85 43.95 78.35
L 68.9 47.95
Q 68.75 47.6 68.6 47.35 67.7 45.75 67.3 45.1
M 63.8 41.45
L 64.55 40.5
Q 63.4 38.55 62.3 36.6
L 61.55 37.6 37 67.4
Q 37.95 69.15 39.25 71.25
L 63.8 41.45
M 59.35 34.1
L 60.2 33.05
Q 59.05 31.1 57.95 29.15
L 57.1 30.15 33.35 59.05 32.55 60
Q 33 60.65 33.85 62.2 34.35 62.9 34.85 63.85
L 59.35 34.1
M 55 24.3
Q 54.2 23 53.35 21.95
L 52.65 22.85 28.95 51.65 28.2 52.55
Q 29.35 54.45 30.45 56.4
L 31.3 55.5 55 26.6 55.8 25.65
Q 55.4 24.95 55 24.3
M 42.7 15.95
L 43.35 15.25 43.3 15.2
Q 40.95 14.45 38.8 14.15
L 38.1 15.05 20.25 36.65 19.5 37.55
Q 19.75 38.2 20.15 38.9
L 20.2 39
Q 20.9 40.25 21.7 41.5
L 22.5 40.6 42.7 15.95
M 49.95 19.9
L 50.6 19.2
Q 49 17.85 47.05 16.85
L 46.5 17.55 24.55 44.2 23.8 45.1
Q 24.95 47 26.1 48.95
L 26.85 48.05 49.95 19.9 Z"/>

<path fill="url(#Gradient_7)" stroke="none" d="
M 44 12.3
Q 43.8 12.2 43.5 12.15 36.75 10.15 30.5 11.65 28.55 12.1 26.6 12.9 24.65 13.75 22.95 14.85 17.65 18.15 15.45 23.95 15.45 24.05 15.4 24.1
L 15.45 24.25 15.35 24.35
Q 12.65 31.95 16.9 39.3
L 16.9 39.35
Q 17.3 40.05 17.8 40.85
L 28.4 58.9
Q 28.85 59.6 29.25 60.3 30.2 61.85 31.05 63.4
L 33.85 62.2
Q 33 60.65 32.55 60
L 33.35 59.05
Q 33.25 58.95 33.15 58.7 32.7 57.95 32.25 57.3
L 31.3 55.5 30.45 56.4
Q 29.35 54.45 28.2 52.55
L 28.95 51.65 26.85 48.05 26.1 48.95
Q 24.95 47 23.8 45.1
L 24.55 44.2 23.3 42.05
Q 22.9 41.35 22.5 40.6
L 21.7 41.5
Q 20.9 40.25 20.2 39
L 20.15 38.9
Q 19.75 38.2 19.5 37.55
L 20.25 36.65
Q 19.15 34.45 18.85 32.25
L 18.1 33.2
Q 17.35 29.7 18.35 26.1
L 20.65 23.45
Q 22 20.95 24.2 19.05
L 26.4 16.45
Q 27.25 16 28.15 15.6 30.9 14.45 33.75 14.05
L 32.9 15.2
Q 35.4 14.8 38.1 15.05
L 38.8 14.15
Q 40.95 14.45 43.3 15.2
L 43.35 15.25 42.7 15.95
Q 42.8 16.05 43.05 16.05 44.9 16.65 46.5 17.55
L 47.05 16.85
Q 49 17.85 50.6 19.2
L 49.95 19.9
Q 51.5 21.2 52.65 22.85
L 53.35 21.95
Q 54.2 23 55 24.3 55.4 24.95 55.8 25.65
L 55 26.6 57.1 30.15 57.95 29.15
Q 59.05 31.1 60.2 33.05
L 59.35 34.1 61.55 37.6 62.3 36.6
Q 63.4 38.55 64.55 40.5
L 63.8 41.45 64.95 43.6
Q 65.1 43.7 65.15 43.9 65.5 44.45 65.85 45
L 65.9 45.05 66.65 44.1
Q 67 44.6 67.3 45.1 67.7 45.75 68.6 47.35 68.7 47.35 68.8 47.3 68.95 47.25 69.25 47.15
L 69.3 47.15
Q 69.35 47.2 69.45 47.2 69.55 47.2 69.6 47.25
L 71.5 46.45
Q 70.65 44.95 69.7 43.4 69.25 42.65 68.85 42
L 58.2 23.9
Q 57.8 23.15 57.4 22.5
L 57.35 22.4
Q 57.35 22.35 57.25 22.3
L 57.25 22.25
Q 52.75 15.1 44 12.3 Z"/>
</g>

<g id="Layer25_0_FILL">
<path fill="#353535" stroke="none" d="
M 74.85 25.05
Q 64.55 14.75 50 14.75 35.4 14.75 25.05 25.05 14.75 35.4 14.75 50 14.75 64.55 25.05 74.85 35.4 85.25 50 85.25 64.55 85.25 74.85 74.85 85.25 64.55 85.25 50 85.25 35.4 74.85 25.05
M 50 20.75
Q 62.15 20.75 70.7 29.25 79.3 37.85 79.3 50 79.3 62.1 70.7 70.65
L 70.65 70.7
Q 62.1 79.3 50 79.3 37.85 79.3 29.25 70.7 20.75 62.15 20.75 50 20.75 37.9 29.25 29.25 37.9 20.75 50 20.75 Z"/>

<path fill="url(#Gradient_8)" stroke="none" d="
M 70.7 29.25
Q 62.15 20.75 50 20.75 37.9 20.75 29.25 29.25 20.75 37.9 20.75 50 20.75 62.15 29.25 70.7 37.85 79.3 50 79.3 62.1 79.3 70.65 70.7
L 70.7 70.65
Q 79.3 62.1 79.3 50 79.3 37.85 70.7 29.25
M 50 25.15
Q 60.3 25.15 67.55 32.4 74.85 39.75 74.85 50 74.85 60.3 67.55 67.55 60.3 74.85 50 74.85 39.75 74.85 32.4 67.55 25.15 60.3 25.15 50 25.15 39.75 32.35 32.4
L 32.4 32.35
Q 39.75 25.15 50 25.15 Z"/>

<path fill="#535353" stroke="none" d="
M 67.55 32.4
Q 60.3 25.15 50 25.15 39.75 25.15 32.4 32.35
L 32.35 32.4
Q 25.15 39.75 25.15 50 25.15 60.3 32.4 67.55 39.75 74.85 50 74.85 60.3 74.85 67.55 67.55 74.85 60.3 74.85 50 74.85 39.75 67.55 32.4
M 37.15 41
L 62.9 41 37.15 41
M 37.15 50
L 62.9 50 37.15 50
M 37.15 59
L 62.9 59 37.15 59 Z"/>
</g>

<g id="Layer24_0_FILL">
<path fill="#353535" stroke="none" d="
M 74.85 25.05
Q 64.55 14.75 50 14.75 35.4 14.75 25.05 25.05 14.75 35.4 14.75 50 14.75 64.55 25.05 74.85 35.4 85.25 50 85.25 64.55 85.25 74.85 74.85 85.25 64.55 85.25 50 85.25 35.4 74.85 25.05
M 50 20.75
Q 62.15 20.75 70.7 29.25 79.3 37.85 79.3 50 79.3 62.1 70.7 70.65
L 70.65 70.7
Q 62.1 79.3 50 79.3 37.85 79.3 29.25 70.7 20.75 62.15 20.75 50 20.75 37.9 29.25 29.25 37.9 20.75 50 20.75 Z"/>

<path fill="url(#Gradient_8)" stroke="none" d="
M 70.7 29.25
Q 62.15 20.75 50 20.75 37.9 20.75 29.25 29.25 20.75 37.9 20.75 50 20.75 62.15 29.25 70.7 37.85 79.3 50 79.3 62.1 79.3 70.65 70.7
L 70.7 70.65
Q 79.3 62.1 79.3 50 79.3 37.85 70.7 29.25
M 50 25.15
Q 60.3 25.15 67.55 32.4 74.85 39.75 74.85 50 74.85 60.3 67.55 67.55 60.3 74.85 50 74.85 39.75 74.85 32.4 67.55 25.15 60.3 25.15 50 25.15 39.75 32.35 32.4
L 32.4 32.35
Q 39.75 25.15 50 25.15 Z"/>

<path fill="#535353" stroke="none" d="
M 67.55 32.4
Q 60.3 25.15 50 25.15 39.75 25.15 32.4 32.35
L 32.35 32.4
Q 25.15 39.75 25.15 50 25.15 60.3 32.4 67.55 39.75 74.85 50 74.85 60.3 74.85 67.55 67.55 74.85 60.3 74.85 50 74.85 39.75 67.55 32.4
M 48.7 33.7
Q 50.1 32.95 51.35 33.65 59.4 38.2 67.45 42.75 68.85 43.5 68.9 45.1 68.95 46.05 68.2 46.75 67.95 47.05 67.65 47.25 66.05 48.15 64.5 49.1 63.25 49.75 62.05 50.45
L 57 53.3
Q 54.15 54.9 51.25 56.5 50.3 57 49.5 56.8 49.15 56.65 48.9 56.45 46 54.9 43.15 53.3
L 38.15 50.45
Q 36.9 49.75 35.75 49.05 33.8 47.9 32 46.7 31.65 46.45 31.45 46.05 30.75 45 31.45 43.8 32 43 32.65 42.65 40.7 38.2 48.7 33.7
M 35.65 52.55
Q 36.8 53.25 38.05 53.95
L 40.65 55.45 38.65 56.55 49.95 63 61.35 56.55 59.35 55.45 61.95 53.95
Q 63.15 53.25 64.4 52.6
L 67.35 54.25
Q 67.4 54.3 67.5 54.35
L 67.55 54.35
Q 67.6 54.35 67.65 54.4 68 54.6 68.25 54.9 68.45 55.1 68.6 55.35
L 68.6 55.4 68.65 55.4
Q 68.9 55.95 68.9 56.6 68.9 56.9 68.8 57.25 68.75 57.45 68.6 57.7 68.6 57.75 68.6 57.8 68.4 58.1 68.2 58.35 67.95 58.55 67.65 58.75
L 67.55 58.75 51.3 68
Q 51.2 68 51.2 68.05 51.1 68.1 51 68.15 50.8 68.2 50.65 68.25 50.3 68.35 49.95 68.35 49.35 68.35 48.8 68.1
L 48.75 68.05 32.5 58.8 32.45 58.8 32.4 58.75 32.35 58.75
Q 32 58.55 31.8 58.35 31.45 58 31.3 57.6 31 57.05 31.05 56.5 31.05 56.2 31.15 55.9 31.2 55.75 31.25 55.65
L 31.35 55.4
Q 31.35 55.35 31.4 55.35 31.55 55 31.8 54.75 32.05 54.55 32.35 54.4
L 32.4 54.35
Q 32.45 54.35 32.5 54.35 32.55 54.3 32.6 54.25
L 35.65 52.55
M 61.45 45.05
L 50.05 38.65 38.75 45.05 50.05 51.5 61.45 45.05 Z"/>

<path fill="#8C8C8C" stroke="none" d="
M 38.05 53.95
Q 36.8 53.25 35.65 52.55
L 32.6 54.25
Q 32.55 54.3 32.5 54.35 32.45 54.35 32.4 54.35
L 32.35 54.4
Q 32.05 54.55 31.8 54.75 31.55 55 31.4 55.35 31.35 55.35 31.35 55.4
L 31.25 55.65
Q 31.2 55.75 31.15 55.9 31.05 56.2 31.05 56.5 31 57.05 31.3 57.6 31.45 58 31.8 58.35 32 58.55 32.35 58.75
L 32.4 58.75 32.45 58.8 32.5 58.8 48.75 68.05 48.8 68.1
Q 49.35 68.35 49.95 68.35 50.3 68.35 50.65 68.25 50.8 68.2 51 68.15 51.1 68.1 51.2 68.05 51.2 68 51.3 68
L 67.55 58.75 67.65 58.75
Q 67.95 58.55 68.2 58.35 68.4 58.1 68.6 57.8 68.6 57.75 68.6 57.7 68.75 57.45 68.8 57.25 68.9 56.9 68.9 56.6 68.9 55.95 68.65 55.4
L 68.6 55.4 68.6 55.35
Q 68.45 55.1 68.25 54.9 68 54.6 67.65 54.4 67.6 54.35 67.55 54.35
L 67.5 54.35
Q 67.4 54.3 67.35 54.25
L 64.4 52.6
Q 63.15 53.25 61.95 53.95
L 59.35 55.45 61.35 56.55 49.95 63 38.65 56.55 40.65 55.45 38.05 53.95
M 51.35 33.65
Q 50.1 32.95 48.7 33.7 40.7 38.2 32.65 42.65 32 43 31.45 43.8 30.75 45 31.45 46.05 31.65 46.45 32 46.7 33.8 47.9 35.75 49.05 36.9 49.75 38.15 50.45
L 43.15 53.3
Q 46 54.9 48.9 56.45 49.15 56.65 49.5 56.8 50.3 57 51.25 56.5 54.15 54.9 57 53.3
L 62.05 50.45
Q 63.25 49.75 64.5 49.1 66.05 48.15 67.65 47.25 67.95 47.05 68.2 46.75 68.95 46.05 68.9 45.1 68.85 43.5 67.45 42.75 59.4 38.2 51.35 33.65
M 50.05 38.65
L 61.45 45.05 50.05 51.5 38.75 45.05 50.05 38.65 Z"/>
</g>

<path id="Layer38_0_1_STROKES" stroke="#2A2A2A" stroke-width="5" stroke-linejoin="round" stroke-linecap="round" fill="none" d="
M 73.85 15.95
Q 73.45 32.4 77.2 46.25 80.95 60.05 85.3 66.25 87.6392578125 69.636328125 87.8 72.425 88.01015625 75.87734375 84.85 78.4 73.8 86 54.1 85.05 44.1 85.2 38.85 82.1 24.4 73.8 19.1 58.7 13.75 43.65 12.4 25.1 19.09375 18.259765625 29.9 14.325 30.145703125 14.2400390625 30.4 14.15 52.9 10.85 73.85 15.95 Z"/>

<path id="Layer37_0_1_STROKES" stroke="#2A2A2A" stroke-width="5" stroke-linejoin="round" stroke-linecap="round" fill="none" d="
M 46.1 85.05
Q 56.1 85.2 61.35 82.1 75.8 73.8 81.1 58.7 84.8318359375 48.2017578125 86.625 36 87.391796875 30.7103515625 87.8 25.1 85.503125 22.7517578125 82.725 20.75 77.3974609375 16.9130859375 70.3 14.35 70.05 14.25 69.8 14.15 47.3 10.85 26.35 15.95 26.408984375 18.378515625 26.375 20.75 26.271875 28.69296875 25.15 36 24.342578125 41.2916015625 23 46.25 19.25 60.05 14.9 66.25 12.55 69.65 12.4 72.45 12.2 75.9 15.35 78.4 26.4 86 46.1 85.05 Z"/>

<path id="Layer36_0_1_STROKES" stroke="#2A2A2A" stroke-width="5" stroke-linejoin="round" stroke-linecap="round" fill="none" d="
M 73.85 15.95
Q 73.45 32.4 77.2 46.25 80.95 60.05 85.3 66.25 87.6392578125 69.636328125 87.8 72.425 88.01015625 75.87734375 84.85 78.4 73.8 86 54.1 85.05 44.1 85.2 38.85 82.1 24.4 73.8 19.1 58.7 13.75 43.65 12.4 25.1 19.09375 18.259765625 29.9 14.325 30.145703125 14.2400390625 30.4 14.15 52.9 10.85 73.85 15.95 Z"/>

<path id="Layer35_0_1_STROKES" stroke="#FFFFFF" stroke-width="8" stroke-linejoin="round" stroke-linecap="round" fill="none" d="
M 77.75 48.95
Q 77.45 37.95 69.55 30 61.25 21.75 49.6 21.75 37.9 21.75 29.65 30 21.35 38.3 21.35 50 21.35 52.05 21.6 54.05"/>

<path id="Layer35_0_2_STROKES" stroke="url(#Gradient_4)" stroke-width="8" stroke-linejoin="round" stroke-linecap="round" fill="none" d="
M 21.6 54.05
Q 22.15 58.05 23.8 61.6 25.85 66.1 29.65 69.9 37.9 78.2 49.6 78.2 51.55 78.2 53.3 77.95 57.9 77.4 61.95 75.45"/>

<path id="Layer34_0_1_STROKES" stroke="#FFFFFF" stroke-width="8" stroke-linejoin="round" stroke-linecap="round" fill="none" d="
M 21.75 48.95
Q 22.05 37.95 29.95 30 38.25 21.75 49.9 21.75 61.6 21.75 69.85 30 78.15 38.3 78.15 50 78.15 52.05 77.9 54.05"/>

<path id="Layer34_0_2_STROKES" stroke="url(#Gradient_5)" stroke-width="8" stroke-linejoin="round" stroke-linecap="round" fill="none" d="
M 77.9 54.05
Q 77.35 58.05 75.7 61.6 73.65 66.1 69.85 69.9 61.6 78.2 49.9 78.2 47.95 78.2 46.2 77.95 41.6 77.4 37.55 75.45"/>

<path id="Layer27_0_1_STROKES" stroke="#1B1B1B" stroke-width="5" stroke-linejoin="round" stroke-linecap="round" fill="none" d="
M 82.65 23.35
Q 82.8 23.45 82.85 23.6 85.6 32.15 80.85 40.65
L 80.75 40.65
Q 75.3 49.9 69.85 59.15 69.15 60.35 68.55 61.4 67.4 63.25 61.55 73.35 60.3 75.3 59.45 76.85 54.35 85.3 44.5 88.65 34.4 91.95 25.3 88.15 16.15 84.3 13.3 75.6 10.5 66.95 15.4 58.4 16.2 56.85 17.45 54.85 23.3 44.75 24.45 42.95 25.1 41.85 25.75 40.65 31.2 31.45 36.65 22.2
L 36.75 22.15
Q 41.8 13.85 51.65 10.55 61.6 7.2 70.75 11.05 79.75 14.8 82.65 23.35 Z"/>

<path id="Layer26_0_1_STROKES" stroke="#1B1B1B" stroke-width="5" stroke-linejoin="round" stroke-linecap="round" fill="none" d="
M 59.55 22.2
L 59.45 22.15
Q 54.4 13.85 44.55 10.55 34.6 7.2 25.45 11.05 16.45 14.8 13.55 23.35 13.4 23.45 13.35 23.6 10.6 32.15 15.35 40.65
L 15.45 40.65
Q 20.9 49.9 26.35 59.15 27.05 60.35 27.65 61.4 28.8 63.25 34.65 73.35 35.9 75.3 36.75 76.85 41.85 85.3 51.7 88.65 61.8 91.95 70.9 88.15 80.05 84.3 82.9 75.6 85.7 66.95 80.8 58.4 80 56.85 78.75 54.85 72.9 44.75 71.75 42.95 71.1 41.85 70.45 40.65 65 31.45 59.55 22.2 Z"/>

<path id="Layer25_0_1_STROKES" stroke="#202020" stroke-width="5" stroke-linejoin="round" stroke-linecap="butt" fill="none" d="
M 50 14.75
Q 64.55 14.75 74.85 25.05 85.25 35.4 85.25 50 85.25 64.55 74.85 74.85 64.55 85.25 50 85.25 35.4 85.25 25.05 74.85 14.75 64.55 14.75 50 14.75 35.4 25.05 25.05 35.4 14.75 50 14.75 Z"/>

<path id="Layer25_0_2_STROKES" stroke="#8C8C8C" stroke-width="5" stroke-linejoin="round" stroke-linecap="round" fill="none" d="
M 37.15 41
L 62.9 41
M 37.15 50
L 62.9 50
M 37.15 59
L 62.9 59"/>

<path id="Layer24_0_1_STROKES" stroke="#202020" stroke-width="5" stroke-linejoin="round" stroke-linecap="butt" fill="none" d="
M 50 14.75
Q 64.55 14.75 74.85 25.05 85.25 35.4 85.25 50 85.25 64.55 74.85 74.85 64.55 85.25 50 85.25 35.4 85.25 25.05 74.85 14.75 64.55 14.75 50 14.75 35.4 25.05 25.05 35.4 14.75 50 14.75 Z"/>
</defs>

<g transform="matrix( 1, 0, 0, 1, 0,0) ">
<use xlink:href="#Layer45_0_FILL"/>
</g>

<g transform="matrix( 1, 0, 0, 1, 0,0) ">
<use xlink:href="#Layer44_0_FILL"/>
</g>

<g transform="matrix( 1, 0, 0, 1, 0,0) ">
<use xlink:href="#Layer43_0_FILL"/>
</g>

<g transform="matrix( 1, 0, 0, 1, 0,0) ">
<use xlink:href="#Layer42_0_FILL"/>
</g>

<g transform="matrix( 1, 0, 0, 1, 0,0) ">
<use xlink:href="#Layer41_0_FILL"/>
</g>

<g transform="matrix( 1, 0, 0, 1, 0,0) ">
<use xlink:href="#Layer40_0_FILL"/>
</g>

<g transform="matrix( 1, 0, 0, 1, 0,0) ">
<use xlink:href="#Layer39_0_FILL"/>
</g>

<g transform="matrix( 1, 0, 0, 1, 0,0) ">
<use xlink:href="#Layer38_0_FILL"/>

<use xlink:href="#Layer38_0_1_STROKES"/>
</g>

<g transform="matrix( 1, 0, 0, 1, 0,0) ">
<use xlink:href="#Layer37_0_FILL"/>

<use xlink:href="#Layer37_0_1_STROKES"/>
</g>

<g transform="matrix( 1, 0, 0, 1, 0,0) ">
<use xlink:href="#Layer36_0_FILL"/>

<use xlink:href="#Layer36_0_1_STROKES"/>
</g>

<g transform="matrix( 1, 0, 0, 1, 0,0) ">
<use xlink:href="#Layer35_0_FILL"/>

<use xlink:href="#Layer35_0_1_STROKES"/>

<use xlink:href="#Layer35_0_2_STROKES"/>
</g>

<g transform="matrix( 1, 0, 0, 1, 0,0) ">
<use xlink:href="#Layer34_0_FILL"/>

<use xlink:href="#Layer34_0_1_STROKES"/>

<use xlink:href="#Layer34_0_2_STROKES"/>
</g>

<g transform="matrix( 1, 0, 0, 1, 0,0) ">
<use xlink:href="#Layer33_0_FILL"/>
</g>

<g transform="matrix( 1, 0, 0, 1, 0,0) ">
<use xlink:href="#Layer32_0_FILL"/>
</g>

<g transform="matrix( 1, 0, 0, 1, 0,0) ">
<use xlink:href="#Layer31_0_FILL"/>
</g>

<g transform="matrix( 1, 0, 0, 1, 0,0) ">
<use xlink:href="#Layer30_0_FILL"/>
</g>

<g transform="matrix( 1, 0, 0, 1, 0,0) ">
<use xlink:href="#Layer29_0_FILL"/>
</g>

<g transform="matrix( 1, 0, 0, 1, 0,0) ">
<use xlink:href="#Layer28_0_FILL"/>
</g>

<g transform="matrix( 1, 0, 0, 1, 0,0) ">
<use xlink:href="#Layer27_0_FILL"/>

<use xlink:href="#Layer27_0_1_STROKES"/>
</g>

<g transform="matrix( 1, 0, 0, 1, 0,0) ">
<use xlink:href="#Layer26_0_FILL"/>

<use xlink:href="#Layer26_0_1_STROKES"/>
</g>

<g transform="matrix( 1, 0, 0, 1, 0,0) ">
<use xlink:href="#Layer25_0_FILL"/>

<use xlink:href="#Layer25_0_1_STROKES"/>

<use xlink:href="#Layer25_0_2_STROKES"/>
</g>

<g transform="matrix( 1, 0, 0, 1, 0,0) ">
<use xlink:href="#Layer24_0_FILL"/>

<use xlink:href="#Layer24_0_1_STROKES"/>
</g>
</svg>
