
<svg xmlns="http://www.w3.org/2000/svg" version="1.1" xmlns:xlink="http://www.w3.org/1999/xlink" preserveAspectRatio="none" x="0px" y="0px" width="100px" height="100px" viewBox="0 0 100 100">
<defs>
<linearGradient id="Gradient_1" gradientUnits="userSpaceOnUse" x1="49.95" y1="-1.9625000000000021" x2="49.95" y2="58.962500000000006" spreadMethod="pad">
<stop  offset="36.07843137254902%" stop-color="#FFFFFF" stop-opacity="0"/>

<stop  offset="68.23529411764706%" stop-color="#FFFFFF"/>
</linearGradient>

<linearGradient id="Gradient_2" gradientUnits="userSpaceOnUse" x1="49.95" y1="70.7125" x2="49.95" y2="9.787499999999998" spreadMethod="pad">
<stop  offset="36.07843137254902%" stop-color="#FFFFFF" stop-opacity="0"/>

<stop  offset="68.23529411764706%" stop-color="#FFFFFF"/>
</linearGradient>

<g id="Layer52_0_FILL">
<path fill="url(#Gradient_1)" stroke="none" d="
M 58.4 35.35
L 58.4 11 41.45 11 41.45 35.25 32.3 35.35 32.25 37.35 49.9 58.95 67.5 37.35 67.6 35.35 58.4 35.35 Z"/>

<path fill="#FFFFFF" stroke="none" d="
M 91.65 69.8
L 91.65 54.7
Q 91.65 41 77.95 41
L 72.25 41
Q 72.21015625 41.0755859375 72.15 41.15
L 65.1 49.8 76.15 49.8 76.15 76.4 23.95 76.4 23.95 49.8 34.65 49.8 27.6 41.15
Q 27.5404296875 41.0755859375 27.45 41
L 22.1 41
Q 8.4 41 8.4 54.7
L 8.4 69.8
Q 8.4 83.5 22.1 83.5
L 77.95 83.5
Q 91.65 83.5 91.65 69.8 Z"/>
</g>

<g id="Layer51_0_FILL">
<path fill="url(#Gradient_2)" stroke="none" d="
M 67.6 33.4
L 67.65 31.4 50 9.8 32.4 31.4 32.3 33.4 41.5 33.4 41.5 57.75 58.45 57.75 58.45 33.5 67.6 33.4 Z"/>

<path fill="#FFFFFF" stroke="none" d="
M 91.65 69.8
L 91.65 54.7
Q 91.65 41 77.95 41
L 65.9 41 65.9 49.8 76.15 49.8 76.15 76.4 23.95 76.4 23.95 49.8 33.2 49.8 33.2 41 22.1 41
Q 8.4 41 8.4 54.7
L 8.4 69.8
Q 8.4 83.5 22.1 83.5
L 77.95 83.5
Q 91.65 83.5 91.65 69.8 Z"/>
</g>

<g id="Layer50_0_FILL">
<path fill="#D7D7D7" stroke="none" d="
M 79.85 39.85
Q 79.85 28.1 68.1 28.1
L 31.95 28.1
Q 20.2 28.1 20.2 39.85
L 20.2 60.15
Q 20.2 71.9 31.95 71.9
L 68.1 71.9
Q 79.85 71.9 79.85 60.15
L 79.85 39.85
M 68.1 35.6
Q 72.35 35.6 72.35 39.85
L 72.35 60.15
Q 72.35 64.4 68.1 64.4
L 31.95 64.4
Q 27.7 64.4 27.7 60.15
L 27.7 39.85
Q 27.7 35.6 31.95 35.6
L 68.1 35.6 Z"/>

<path fill="#F5F5F5" stroke="none" d="
M 72.35 39.85
Q 72.35 35.6 68.1 35.6
L 31.95 35.6
Q 27.7 35.6 27.7 39.85
L 27.7 60.15
Q 27.7 64.4 31.95 64.4
L 68.1 64.4
Q 72.35 64.4 72.35 60.15
L 72.35 39.85
M 61.25 41.65
L 65.25 41.65 58.25 58.6 55.25 58.6 48.45 41.65 52.7 41.65 56.9 52.75 56.95 52.75 61.25 41.65
M 48.25 44.95
L 43.4 44.95 43.4 58.6 39.65 58.6 39.65 44.95 34.8 44.95 34.8 41.65 48.25 41.65 48.25 44.95 Z"/>

<path fill="#4196F3" stroke="none" d="
M 43.4 44.95
L 48.25 44.95 48.25 41.65 34.8 41.65 34.8 44.95 39.65 44.95 39.65 58.6 43.4 58.6 43.4 44.95
M 65.25 41.65
L 61.25 41.65 56.95 52.75 56.9 52.75 52.7 41.65 48.45 41.65 55.25 58.6 58.25 58.6 65.25 41.65 Z"/>
</g>

<g id="Layer49_0_FILL">
<path fill="#D7D7D7" stroke="none" d="
M 91.5 42.8
Q 91.3 39 88.25 38.05 81.4443359375 36.6619140625 75.2 35.5 74.47109375 35.3806640625 73.75 35.25 71.6 34.85 69.55 34.5 63.471875 33.39921875 58 32.5 40.11015625 29.6009765625 28.7 28.95 8.8 27.75 8.5 39.45
L 8.5 59.15
Q 9.1 70.95 22.2 71.2
L 88.25 70.05
Q 91.3 69.45 91.5 65.65
L 91.5 42.8
M 84 44.85
L 84 62.65 22.2 63.7
Q 16.55 63.55 16 58.8
L 16 39.45
Q 16.05 38.2 17.15 37.65 20.9 36 28.25 36.45 39.7513671875 37.10390625 58 40.1 63.471484375 40.9927734375 69.55 42.1 71.6 42.5 73.75 42.9 74.47109375 43.0310546875 75.2 43.15 79.4720703125 43.9529296875 84 44.85 Z"/>

<path fill="#F5F5F5" stroke="none" d="
M 84 62.65
L 84 44.85
Q 79.4720703125 43.9529296875 75.2 43.15 74.47109375 43.0310546875 73.75 42.9 71.6 42.5 69.55 42.1 63.471484375 40.9927734375 58 40.1 39.7513671875 37.10390625 28.25 36.45 20.9 36 17.15 37.65 16.05 38.2 16 39.45
L 16 58.8
Q 16.55 63.55 22.2 63.7
L 84 62.65
M 35.6 42.65
L 38.85 42.65 38.85 54.5 44.95 54.5 44.95 57.5 35.6 57.5 35.6 42.65
M 32.95 42.65
L 32.95 45.55 25.55 54.5 33.2 54.5 33.2 57.5 21.45 57.5 21.45 54.5 28.95 45.55 21.7 45.55 21.7 42.65 32.95 42.65 Z"/>

<path fill="#999999" stroke="none" d="
M 32.95 45.55
L 32.95 42.65 21.7 42.65 21.7 45.55 28.95 45.55 21.45 54.5 21.45 57.5 33.2 57.5 33.2 54.5 25.55 54.5 32.95 45.55
M 38.85 42.65
L 35.6 42.65 35.6 57.5 44.95 57.5 44.95 54.5 38.85 54.5 38.85 42.65 Z"/>
</g>

<g id="Layer48_0_FILL">
<path fill="#D7D7D7" stroke="none" d="
M 91.5 59.15
L 91.5 39.45
Q 91.2 27.75 71.3 28.95 56.406640625 29.810546875 30.45 34.45 28.38515625 34.8541015625 26.25 35.25 19.3646484375 36.5232421875 11.75 38.05 8.7 39 8.5 42.8
L 8.5 65.65
Q 8.7 69.45 11.75 70.05
L 77.8 71.2
Q 90.9 70.95 91.5 59.15
M 82.85 37.65
Q 83.95 38.2 84 39.45
L 84 58.8
Q 83.45 63.55 77.8 63.7
L 16 62.65 16 44.85
Q 21.3123046875 43.7990234375 26.25 42.85 28.3853515625 42.476171875 30.45 42.1 56.7873046875 37.323046875 71.75 36.45 79.1 36 82.85 37.65 Z"/>

<path fill="#F5F5F5" stroke="none" d="
M 84 39.45
Q 83.95 38.2 82.85 37.65 79.1 36 71.75 36.45 56.7873046875 37.323046875 30.45 42.1 28.3853515625 42.476171875 26.25 42.85 21.3123046875 43.7990234375 16 44.85
L 16 62.65 77.8 63.7
Q 83.45 63.55 84 58.8
L 84 39.45
M 53.75 45.55
L 53.75 42.65 65 42.65 65 45.55 57.6 54.5 65.25 54.5 65.25 57.5 53.5 57.5 53.5 54.5 61 45.55 53.75 45.55
M 73.25 42.65
Q 74.4 42.65 75.4 42.85 76.45 43.05 77.2 43.6 77.95 44.1 78.4 44.95 78.85 45.85 78.85 47.15 78.85 48.7 78.05 49.8 77.25 50.95 75.65 51.2
L 79.45 57.5 75.5 57.5 72.4 51.55 70.8 51.55 70.8 57.5 67.5 57.5 67.5 42.65 73.25 42.65
M 70.8 45.4
L 70.8 48.8 72.7 48.8
Q 73.15 48.8 73.65 48.75 74.15 48.7 74.55 48.55 74.95 48.4 75.2 48.05 75.45 47.75 75.45 47.1 75.45 46.55 75.25 46.2 75 45.9 74.65 45.7 74.3 45.5 73.85 45.45 73.35 45.4 72.95 45.4
L 70.8 45.4 Z"/>

<path fill="#999999" stroke="none" d="
M 75.4 42.85
Q 74.4 42.65 73.25 42.65
L 67.5 42.65 67.5 57.5 70.8 57.5 70.8 51.55 72.4 51.55 75.5 57.5 79.45 57.5 75.65 51.2
Q 77.25 50.95 78.05 49.8 78.85 48.7 78.85 47.15 78.85 45.85 78.4 44.95 77.95 44.1 77.2 43.6 76.45 43.05 75.4 42.85
M 70.8 48.8
L 70.8 45.4 72.95 45.4
Q 73.35 45.4 73.85 45.45 74.3 45.5 74.65 45.7 75 45.9 75.25 46.2 75.45 46.55 75.45 47.1 75.45 47.75 75.2 48.05 74.95 48.4 74.55 48.55 74.15 48.7 73.65 48.75 73.15 48.8 72.7 48.8
L 70.8 48.8
M 53.75 42.65
L 53.75 45.55 61 45.55 53.5 54.5 53.5 57.5 65.25 57.5 65.25 54.5 57.6 54.5 65 45.55 65 42.65 53.75 42.65 Z"/>
</g>

<g id="Layer47_0_FILL">
<path fill="#D7D7D7" stroke="none" d="
M 88.75 77.8
L 86.55 24.85
Q 81.45 14.1 71.5 12.35
L 18.45 16.25
Q 15.15 18.2 14.95 21.85 17.15 50.95 11.2 78.1 12.7 87.95 21.15 87.7
L 71.5 87.7
Q 81.8 86.45 88.75 77.8
M 65.65 20.8
Q 69.45 21.5 69.95 24.55 71.85 46.75 70.45 68.95 68.75 73.65 63.95 75.05 43.35 76.6 23.85 75.5 19.35 74.55 18.8 70.45 23.25 51.8 22 23.7
L 65.65 20.8 Z"/>

<path fill="#F5F5F5" stroke="none" d="
M 69.95 24.55
Q 69.45 21.5 65.65 20.8
L 22 23.7
Q 23.25 51.8 18.8 70.45 19.35 74.55 23.85 75.5 43.35 76.6 63.95 75.05 68.75 73.65 70.45 68.95 71.85 46.75 69.95 24.55
M 54.4 47.05
L 64.5 47.05 64.5 52.1 48.95 52.1 48.95 27.3 54.4 27.3 54.4 47.05 Z"/>

<path fill="#9A9A9A" stroke="none" d="
M 64.5 47.05
L 54.4 47.05 54.4 27.3 48.95 27.3 48.95 52.1 64.5 52.1 64.5 47.05 Z"/>
</g>

<g id="Layer46_0_FILL">
<path fill="#D7D7D7" stroke="none" d="
M 85.05 21.85
Q 84.85 18.2 81.55 16.25
L 28.5 12.35
Q 18.55 14.1 13.45 24.85
L 11.25 77.8
Q 18.2 86.45 28.5 87.7
L 78.85 87.7
Q 87.3 87.95 88.8 78.1 82.85 50.95 85.05 21.85
M 30.05 24.55
Q 30.55 21.5 34.35 20.8
L 78 23.7
Q 76.75 51.8 81.2 70.45 80.65 74.55 76.15 75.5 56.65 76.6 36.05 75.05 31.25 73.65 29.55 68.95 28.15 46.75 30.05 24.55 Z"/>

<path fill="#F5F5F5" stroke="none" d="
M 34.35 20.8
Q 30.55 21.5 30.05 24.55 28.15 46.75 29.55 68.95 31.25 73.65 36.05 75.05 56.65 76.6 76.15 75.5 80.65 74.55 81.2 70.45 76.75 51.8 78 23.7
L 34.35 20.8
M 54.15 31.2
Q 54.9 32.65 54.9 34.85 54.9 37.45 53.55 39.3 52.15 41.15 49.55 41.6
L 55.85 52.1 49.3 52.1 44.1 42.2 41.45 42.2 41.45 52.1 36 52.1 36 27.3 45.55 27.3
Q 47.45 27.3 49.15 27.7 50.85 28.05 52.1 28.9 53.4 29.75 54.15 31.2
M 45 31.95
L 41.45 31.95 41.45 37.55 44.65 37.55
Q 45.4 37.55 46.2 37.5 47 37.45 47.7 37.2 48.35 36.95 48.8 36.4 49.2 35.85 49.2 34.8 49.2 33.85 48.85 33.3 48.45 32.75 47.85 32.45 47.25 32.15 46.5 32.05 45.75 31.95 45 31.95 Z"/>

<path fill="#9A9A9A" stroke="none" d="
M 54.9 34.85
Q 54.9 32.65 54.15 31.2 53.4 29.75 52.1 28.9 50.85 28.05 49.15 27.7 47.45 27.3 45.55 27.3
L 36 27.3 36 52.1 41.45 52.1 41.45 42.2 44.1 42.2 49.3 52.1 55.85 52.1 49.55 41.6
Q 52.15 41.15 53.55 39.3 54.9 37.45 54.9 34.85
M 41.45 31.95
L 45 31.95
Q 45.75 31.95 46.5 32.05 47.25 32.15 47.85 32.45 48.45 32.75 48.85 33.3 49.2 33.85 49.2 34.8 49.2 35.85 48.8 36.4 48.35 36.95 47.7 37.2 47 37.45 46.2 37.5 45.4 37.55 44.65 37.55
L 41.45 37.55 41.45 31.95 Z"/>
</g>

<g id="Layer45_0_FILL">
<path fill="#404040" stroke="none" d="
M 91.95 52.45
Q 92.0001953125 51.2380859375 92 50 92.000390625 44.5794921875 90.8 39.65 88.14765625 28.7162109375 79.6 20.2 79.4958984375 20.0982421875 79.45 19.95 67.325390625 8.046875 50 8.05 32.5546875 8.0458984375 20.15 20.2 7.9466796875 32.5548828125 7.95 50 7.947265625 67.394921875 20.15 79.7 20.223046875 79.772265625 20.25 79.85 32.632421875 92.0029296875 50 92 67.394140625 92.0015625 79.6 79.75 79.655078125 79.68984375 79.7 79.65
L 79.75 79.6
Q 91.12890625 68.219140625 91.95 52.45
M 87.35 50
Q 87.35 51.239453125 87.25 52.45 86.466796875 66.3365234375 76.35 76.45 65.4556640625 87.3478515625 50 87.35 34.5453125 87.3474609375 23.55 76.45 12.65234375 65.4546875 12.65 50 12.65234375 34.6255859375 23.4 23.7 23.4736328125 23.62421875 23.55 23.55 34.5453125 12.65234375 50 12.65 65.4556640625 12.6515625 76.35 23.6 83.466015625 30.6810546875 85.95 39.65 87.349609375 44.544140625 87.35 50 Z"/>

<path fill="#D7D7D7" stroke="none" d="
M 87.25 52.45
Q 87.35 51.239453125 87.35 50 87.349609375 44.544140625 85.95 39.65 83.466015625 30.6810546875 76.35 23.6 65.4556640625 12.6515625 50 12.65 34.5453125 12.65234375 23.55 23.55 23.4736328125 23.62421875 23.4 23.7 12.65234375 34.6255859375 12.65 50 12.65234375 65.4546875 23.55 76.45 34.5453125 87.3474609375 50 87.35 65.4556640625 87.3478515625 76.35 76.45 86.466796875 66.3365234375 87.25 52.45
M 71.95 28.3
Q 76.9822265625 33.3791015625 79.15 39.65 80.8509765625 44.47265625 80.85 50 80.8501953125 51.2427734375 80.75 52.45 79.9779296875 63.6744140625 71.85 71.85 62.7947265625 80.85234375 50 80.85 37.284765625 80.8521484375 28.3 71.95 28.273828125 71.873046875 28.2 71.8 19.19765625 62.695703125 19.2 50 19.1978515625 37.2056640625 28.2 28.2 37.2056640625 19.1978515625 50 19.2 62.695703125 19.19765625 71.8 28.2 71.873046875 28.273828125 71.95 28.3 Z"/>

<path fill="#FFFFFF" stroke="none" d="
M 79.15 39.65
Q 76.9822265625 33.3791015625 71.95 28.3 71.873046875 28.273828125 71.8 28.2 62.695703125 19.19765625 50 19.2 37.2056640625 19.1978515625 28.2 28.2 19.1978515625 37.2056640625 19.2 50 19.19765625 62.695703125 28.2 71.8 28.273828125 71.873046875 28.3 71.95 37.284765625 80.8521484375 50 80.85 62.7947265625 80.85234375 71.85 71.85 79.9779296875 63.6744140625 80.75 52.45 80.8501953125 51.2427734375 80.85 50 80.8509765625 44.47265625 79.15 39.65
M 69.25 30.8
Q 73.241015625 34.7892578125 75.2 39.65 77.1486328125 44.4076171875 77.15 50 77.149609375 51.2451171875 77.05 52.45 76.2732421875 62.1392578125 69.25 69.25 61.2546875 77.146875 50 77.15 38.69375 77.147265625 30.8 69.25 22.8013671875 61.2548828125 22.8 50 22.801953125 38.6935546875 30.75 30.8
L 30.8 30.75
Q 38.6935546875 22.801953125 50 22.8 61.2548828125 22.8013671875 69.25 30.8 Z"/>

<path fill="#F5F5F5" stroke="none" d="
M 75.2 39.65
Q 73.241015625 34.7892578125 69.25 30.8 61.2548828125 22.8013671875 50 22.8 38.6935546875 22.801953125 30.8 30.75
L 30.75 30.8
Q 22.801953125 38.6935546875 22.8 50 22.8013671875 61.2548828125 30.8 69.25 38.69375 77.147265625 50 77.15 61.2546875 77.146875 69.25 69.25 76.2732421875 62.1392578125 77.05 52.45 77.149609375 51.2451171875 77.15 50 77.1486328125 44.4076171875 75.2 39.65
M 34.7 70.75
L 34.7 50.85 25 50.85 50 26.85 75 50.85 65.3 50.85 65.3 70.75 34.7 70.75
M 56.85 48.2
L 43.1 48.2 43.1 61.9 56.85 61.9 56.85 48.2 Z"/>

<path fill="#9A9A9A" stroke="none" d="
M 34.7 50.85
L 34.7 70.75 65.3 70.75 65.3 50.85 75 50.85 50 26.85 25 50.85 34.7 50.85
M 43.1 48.2
L 56.85 48.2 56.85 61.9 43.1 61.9 43.1 48.2 Z"/>
</g>

<g id="Layer44_0_FILL">
<path fill="#404040" stroke="none" d="
M 91.95 52.45
Q 92.0001953125 51.2380859375 92 50 92.000390625 44.5794921875 90.8 39.65 88.14765625 28.7162109375 79.6 20.2 79.4958984375 20.0982421875 79.45 19.95 67.325390625 8.046875 50 8.05 32.5546875 8.0458984375 20.15 20.2 7.9466796875 32.5548828125 7.95 50 7.947265625 67.394921875 20.15 79.7 20.223046875 79.772265625 20.25 79.85 32.632421875 92.0029296875 50 92 67.394140625 92.0015625 79.6 79.75 79.655078125 79.68984375 79.7 79.65
L 79.75 79.6
Q 91.12890625 68.219140625 91.95 52.45
M 87.35 50
Q 87.35 51.239453125 87.25 52.45 86.466796875 66.3365234375 76.35 76.45 65.4556640625 87.3478515625 50 87.35 34.5453125 87.3474609375 23.55 76.45 12.65234375 65.4546875 12.65 50 12.65234375 34.6255859375 23.4 23.7 23.4736328125 23.62421875 23.55 23.55 34.5453125 12.65234375 50 12.65 65.4556640625 12.6515625 76.35 23.6 83.466015625 30.6810546875 85.95 39.65 87.349609375 44.544140625 87.35 50 Z"/>

<path fill="#D7D7D7" stroke="none" d="
M 87.25 52.45
Q 87.35 51.239453125 87.35 50 87.349609375 44.544140625 85.95 39.65 83.466015625 30.6810546875 76.35 23.6 65.4556640625 12.6515625 50 12.65 34.5453125 12.65234375 23.55 23.55 23.4736328125 23.62421875 23.4 23.7 12.65234375 34.6255859375 12.65 50 12.65234375 65.4546875 23.55 76.45 34.5453125 87.3474609375 50 87.35 65.4556640625 87.3478515625 76.35 76.45 86.466796875 66.3365234375 87.25 52.45
M 71.8 28.2
Q 71.873046875 28.273828125 71.95 28.3 76.9822265625 33.3791015625 79.15 39.65 80.8509765625 44.47265625 80.85 50 80.8501953125 51.2427734375 80.75 52.45 79.9779296875 63.6744140625 71.85 71.85 62.7947265625 80.85234375 50 80.85 37.284765625 80.8521484375 28.3 71.95 28.273828125 71.873046875 28.2 71.8 19.19765625 62.695703125 19.2 50 19.1978515625 37.2056640625 28.2 28.2 37.2056640625 19.1978515625 50 19.2 62.695703125 19.19765625 71.8 28.2 Z"/>

<path fill="#FFFFFF" stroke="none" d="
M 71.95 28.3
Q 71.873046875 28.273828125 71.8 28.2 62.695703125 19.19765625 50 19.2 37.2056640625 19.1978515625 28.2 28.2 19.1978515625 37.2056640625 19.2 50 19.19765625 62.695703125 28.2 71.8 28.273828125 71.873046875 28.3 71.95 37.284765625 80.8521484375 50 80.85 62.7947265625 80.85234375 71.85 71.85 79.9779296875 63.6744140625 80.75 52.45 80.8501953125 51.2427734375 80.85 50 80.8509765625 44.47265625 79.15 39.65 76.9822265625 33.3791015625 71.95 28.3
M 69.25 30.8
Q 73.241015625 34.7892578125 75.2 39.65 77.1486328125 44.4076171875 77.15 50 77.149609375 51.2451171875 77.05 52.45 76.2732421875 62.1392578125 69.25 69.25 61.2546875 77.146875 50 77.15 38.69375 77.147265625 30.8 69.25 22.8013671875 61.2548828125 22.8 50 22.801953125 38.6935546875 30.75 30.8
L 30.8 30.75
Q 38.6935546875 22.801953125 50 22.8 61.2548828125 22.8013671875 69.25 30.8 Z"/>

<path fill="#F5F5F5" stroke="none" d="
M 75.2 39.65
Q 73.241015625 34.7892578125 69.25 30.8 61.2548828125 22.8013671875 50 22.8 38.6935546875 22.801953125 30.8 30.75
L 30.75 30.8
Q 22.801953125 38.6935546875 22.8 50 22.8013671875 61.2548828125 30.8 69.25 38.69375 77.147265625 50 77.15 61.2546875 77.146875 69.25 69.25 76.2732421875 62.1392578125 77.05 52.45 77.149609375 51.2451171875 77.15 50 77.1486328125 44.4076171875 75.2 39.65
M 43.25 35.5
L 50 47.4 57.15 35.5 65.45 35.5 53.5 53.75 53.5 67.35 46.45 67.35 46.45 53.75 34.5 35.5 43.25 35.5 Z"/>

<path fill="#9A9A9A" stroke="none" d="
M 50 47.4
L 43.25 35.5 34.5 35.5 46.45 53.75 46.45 67.35 53.5 67.35 53.5 53.75 65.45 35.5 57.15 35.5 50 47.4 Z"/>
</g>

<g id="Layer43_0_FILL">
<path fill="#404040" stroke="none" d="
M 91.95 52.45
Q 92.0001953125 51.2380859375 92 50 92.000390625 44.5794921875 90.8 39.65 88.14765625 28.7162109375 79.6 20.2 79.4958984375 20.0982421875 79.45 19.95 67.325390625 8.046875 50 8.05 32.5546875 8.0458984375 20.15 20.2 7.9466796875 32.5548828125 7.95 50 7.947265625 67.394921875 20.15 79.7 20.223046875 79.772265625 20.25 79.85 32.632421875 92.0029296875 50 92 67.394140625 92.0015625 79.6 79.75 79.655078125 79.68984375 79.7 79.65
L 79.75 79.6
Q 91.12890625 68.219140625 91.95 52.45
M 87.35 50
Q 87.35 51.239453125 87.25 52.45 86.466796875 66.3365234375 76.35 76.45 65.4556640625 87.3478515625 50 87.35 34.5453125 87.3474609375 23.55 76.45 12.65234375 65.4546875 12.65 50 12.65234375 34.6255859375 23.4 23.7 23.4736328125 23.62421875 23.55 23.55 34.5453125 12.65234375 50 12.65 65.4556640625 12.6515625 76.35 23.6 83.466015625 30.6810546875 85.95 39.65 87.349609375 44.544140625 87.35 50 Z"/>

<path fill="#D7D7D7" stroke="none" d="
M 87.25 52.45
Q 87.35 51.239453125 87.35 50 87.349609375 44.544140625 85.95 39.65 83.466015625 30.6810546875 76.35 23.6 65.4556640625 12.6515625 50 12.65 34.5453125 12.65234375 23.55 23.55 23.4736328125 23.62421875 23.4 23.7 12.65234375 34.6255859375 12.65 50 12.65234375 65.4546875 23.55 76.45 34.5453125 87.3474609375 50 87.35 65.4556640625 87.3478515625 76.35 76.45 86.466796875 66.3365234375 87.25 52.45
M 71.95 28.3
Q 76.9822265625 33.3791015625 79.15 39.65 80.8509765625 44.47265625 80.85 50 80.8501953125 51.2427734375 80.75 52.45 79.9779296875 63.6744140625 71.85 71.85 62.7947265625 80.85234375 50 80.85 37.284765625 80.8521484375 28.3 71.95 28.273828125 71.873046875 28.2 71.8 19.19765625 62.695703125 19.2 50 19.1978515625 37.2056640625 28.2 28.2 37.2056640625 19.1978515625 50 19.2 62.695703125 19.19765625 71.8 28.2 71.873046875 28.273828125 71.95 28.3 Z"/>

<path fill="#FFFFFF" stroke="none" d="
M 79.15 39.65
Q 76.9822265625 33.3791015625 71.95 28.3 71.873046875 28.273828125 71.8 28.2 62.695703125 19.19765625 50 19.2 37.2056640625 19.1978515625 28.2 28.2 19.1978515625 37.2056640625 19.2 50 19.19765625 62.695703125 28.2 71.8 28.273828125 71.873046875 28.3 71.95 37.284765625 80.8521484375 50 80.85 62.7947265625 80.85234375 71.85 71.85 79.9779296875 63.6744140625 80.75 52.45 80.8501953125 51.2427734375 80.85 50 80.8509765625 44.47265625 79.15 39.65
M 69.25 30.8
Q 73.241015625 34.7892578125 75.2 39.65 77.1486328125 44.4076171875 77.15 50 77.149609375 51.2451171875 77.05 52.45 76.2732421875 62.1392578125 69.25 69.25 61.2546875 77.146875 50 77.15 38.69375 77.147265625 30.8 69.25 22.8013671875 61.2548828125 22.8 50 22.801953125 38.6935546875 30.75 30.8
L 30.8 30.75
Q 38.6935546875 22.801953125 50 22.8 61.2548828125 22.8013671875 69.25 30.8 Z"/>

<path fill="#F5F5F5" stroke="none" d="
M 75.2 39.65
Q 73.241015625 34.7892578125 69.25 30.8 61.2548828125 22.8013671875 50 22.8 38.6935546875 22.801953125 30.8 30.75
L 30.75 30.8
Q 22.801953125 38.6935546875 22.8 50 22.8013671875 61.2548828125 30.8 69.25 38.69375 77.147265625 50 77.15 61.2546875 77.146875 69.25 69.25 76.2732421875 62.1392578125 77.05 52.45 77.149609375 51.2451171875 77.15 50 77.1486328125 44.4076171875 75.2 39.65
M 43.2 34.7
L 50 45.85 56.5 34.7 65 34.7 54.7 49.75 66.25 66.55 57.4 66.55 49.65 53.7 42.1 66.55 33.75 66.55 44.9 49.9 34.4 34.7 43.2 34.7 Z"/>

<path fill="#9A9A9A" stroke="none" d="
M 50 45.85
L 43.2 34.7 34.4 34.7 44.9 49.9 33.75 66.55 42.1 66.55 49.65 53.7 57.4 66.55 66.25 66.55 54.7 49.75 65 34.7 56.5 34.7 50 45.85 Z"/>
</g>

<g id="Layer42_0_FILL">
<path fill="#404040" stroke="none" d="
M 91.95 52.45
Q 92.0001953125 51.2380859375 92 50 92.000390625 44.5794921875 90.8 39.65 88.14765625 28.7162109375 79.6 20.2 79.4958984375 20.0982421875 79.45 19.95 67.325390625 8.046875 50 8.05 32.5546875 8.0458984375 20.15 20.2 7.9466796875 32.5548828125 7.95 50 7.947265625 67.394921875 20.15 79.7 20.223046875 79.772265625 20.25 79.85 32.632421875 92.0029296875 50 92 67.394140625 92.0015625 79.6 79.75 79.655078125 79.68984375 79.7 79.65
L 79.75 79.6
Q 91.12890625 68.219140625 91.95 52.45
M 87.35 50
Q 87.35 51.239453125 87.25 52.45 86.466796875 66.3365234375 76.35 76.45 65.4556640625 87.3478515625 50 87.35 34.5453125 87.3474609375 23.55 76.45 12.65234375 65.4546875 12.65 50 12.65234375 34.6255859375 23.4 23.7 23.4736328125 23.62421875 23.55 23.55 34.5453125 12.65234375 50 12.65 65.4556640625 12.6515625 76.35 23.6 83.466015625 30.6810546875 85.95 39.65 87.349609375 44.544140625 87.35 50 Z"/>

<path fill="#D7D7D7" stroke="none" d="
M 87.25 52.45
Q 87.35 51.239453125 87.35 50 87.349609375 44.544140625 85.95 39.65 83.466015625 30.6810546875 76.35 23.6 65.4556640625 12.6515625 50 12.65 34.5453125 12.65234375 23.55 23.55 23.4736328125 23.62421875 23.4 23.7 12.65234375 34.6255859375 12.65 50 12.65234375 65.4546875 23.55 76.45 34.5453125 87.3474609375 50 87.35 65.4556640625 87.3478515625 76.35 76.45 86.466796875 66.3365234375 87.25 52.45
M 71.95 28.3
Q 76.9822265625 33.3791015625 79.15 39.65 80.8509765625 44.47265625 80.85 50 80.8501953125 51.2427734375 80.75 52.45 79.9779296875 63.6744140625 71.85 71.85 62.7947265625 80.85234375 50 80.85 37.284765625 80.8521484375 28.3 71.95 28.273828125 71.873046875 28.2 71.8 19.19765625 62.695703125 19.2 50 19.1978515625 37.2056640625 28.2 28.2 37.2056640625 19.1978515625 50 19.2 62.695703125 19.19765625 71.8 28.2 71.873046875 28.273828125 71.95 28.3 Z"/>

<path fill="#FFFFFF" stroke="none" d="
M 79.15 39.65
Q 76.9822265625 33.3791015625 71.95 28.3 71.873046875 28.273828125 71.8 28.2 62.695703125 19.19765625 50 19.2 37.2056640625 19.1978515625 28.2 28.2 19.1978515625 37.2056640625 19.2 50 19.19765625 62.695703125 28.2 71.8 28.273828125 71.873046875 28.3 71.95 37.284765625 80.8521484375 50 80.85 62.7947265625 80.85234375 71.85 71.85 79.9779296875 63.6744140625 80.75 52.45 80.8501953125 51.2427734375 80.85 50 80.8509765625 44.47265625 79.15 39.65
M 69.25 30.8
Q 73.241015625 34.7892578125 75.2 39.65 77.1486328125 44.4076171875 77.15 50 77.149609375 51.2451171875 77.05 52.45 76.2732421875 62.1392578125 69.25 69.25 61.2546875 77.146875 50 77.15 38.69375 77.147265625 30.8 69.25 22.8013671875 61.2548828125 22.8 50 22.801953125 38.6935546875 30.75 30.8
L 30.8 30.75
Q 38.6935546875 22.801953125 50 22.8 61.2548828125 22.8013671875 69.25 30.8 Z"/>

<path fill="#F5F5F5" stroke="none" d="
M 75.2 39.65
Q 73.241015625 34.7892578125 69.25 30.8 61.2548828125 22.8013671875 50 22.8 38.6935546875 22.801953125 30.8 30.75
L 30.75 30.8
Q 22.801953125 38.6935546875 22.8 50 22.8013671875 61.2548828125 30.8 69.25 38.69375 77.147265625 50 77.15 61.2546875 77.146875 69.25 69.25 76.2732421875 62.1392578125 77.05 52.45 77.149609375 51.2451171875 77.15 50 77.1486328125 44.4076171875 75.2 39.65
M 54.65 33.8
Q 56.8 34.1 58.45 34.95 60.1 35.85 61.15 37.4 62.15 39 62.15 41.6 62.15 44.3 60.65 46.1 59.15 47.85 56.7 48.6
L 56.7 48.7
Q 58.25 48.95 59.55 49.55 60.8 50.25 61.7 51.25 62.65 52.25 63.15 53.6 63.65 54.95 63.65 56.5 63.65 59 62.55 60.7 61.5 62.4 59.75 63.4 58.05 64.45 55.9 64.9 53.8 65.35 51.7 65.35
L 38.65 65.35 38.65 33.5 50.5 33.5
Q 52.6 33.5 54.65 33.8
M 55.1 58.6
Q 55.75 58.15 56.2 57.45 56.65 56.7 56.65 55.7 56.65 54.55 56.05 53.85 55.5 53.15 54.65 52.8 53.8 52.45 52.8 52.3 51.8 52.15 50.95 52.15
L 45.65 52.15 45.65 59.4 51.95 59.4
Q 52.75 59.4 53.6 59.25 54.45 59.05 55.1 58.6
M 50.45 39.4
L 45.65 39.4 45.65 46.25 50.75 46.25
Q 51.55 46.25 52.35 46.05 53.15 45.9 53.75 45.45 54.4 45.05 54.8 44.4 55.15 43.7 55.15 42.75 55.15 41.75 54.75 41.1 54.3 40.45 53.6 40.1 52.95 39.75 52.1 39.6 51.25 39.4 50.45 39.4 Z"/>

<path fill="#9A9A9A" stroke="none" d="
M 58.45 34.95
Q 56.8 34.1 54.65 33.8 52.6 33.5 50.5 33.5
L 38.65 33.5 38.65 65.35 51.7 65.35
Q 53.8 65.35 55.9 64.9 58.05 64.45 59.75 63.4 61.5 62.4 62.55 60.7 63.65 59 63.65 56.5 63.65 54.95 63.15 53.6 62.65 52.25 61.7 51.25 60.8 50.25 59.55 49.55 58.25 48.95 56.7 48.7
L 56.7 48.6
Q 59.15 47.85 60.65 46.1 62.15 44.3 62.15 41.6 62.15 39 61.15 37.4 60.1 35.85 58.45 34.95
M 45.65 39.4
L 50.45 39.4
Q 51.25 39.4 52.1 39.6 52.95 39.75 53.6 40.1 54.3 40.45 54.75 41.1 55.15 41.75 55.15 42.75 55.15 43.7 54.8 44.4 54.4 45.05 53.75 45.45 53.15 45.9 52.35 46.05 51.55 46.25 50.75 46.25
L 45.65 46.25 45.65 39.4
M 56.2 57.45
Q 55.75 58.15 55.1 58.6 54.45 59.05 53.6 59.25 52.75 59.4 51.95 59.4
L 45.65 59.4 45.65 52.15 50.95 52.15
Q 51.8 52.15 52.8 52.3 53.8 52.45 54.65 52.8 55.5 53.15 56.05 53.85 56.65 54.55 56.65 55.7 56.65 56.7 56.2 57.45 Z"/>
</g>

<g id="Layer41_0_FILL">
<path fill="#404040" stroke="none" d="
M 83.7 16.05
Q 83.6 15.95 83.6 15.85 69.75 2.3 50.05 2.3 30.15 2.3 16.05 16.05 2.2 30.1 2.2 50 2.2 69.75 16.05 83.7 16.1 83.75 16.2 83.9 30.25 97.75 50.05 97.75 69.8 97.75 83.7 83.75 83.7 83.7 83.8 83.65
L 83.9 83.65
Q 96.8 70.65 97.75 52.75 97.8 51.4 97.8 50 97.8 43.85 96.45 38.2 93.4 25.7 83.7 16.05
M 92.45 50
Q 92.45 51.4 92.4 52.75 91.45 68.55 80 80.05 67.6 92.4 50.05 92.4 32.45 92.4 19.95 80.05 7.55 67.55 7.55 50 7.55 32.5 19.85 20.1 19.85 19.9 19.95 19.9 32.45 7.5 50.05 7.5 67.6 7.5 80 19.9 88.05 28 90.95 38.2 92.45 43.75 92.45 50
M 88.65 52.25
Q 88.7 51.15 88.7 50 88.7 45 87.6 40.45 85.15 30.35 77.3 22.55 77.2 22.45 77.2 22.35 66 11.35 50 11.35 33.9 11.35 22.5 22.55 11.25 33.9 11.25 50 11.25 66.05 22.5 77.35 22.55 77.4 22.6 77.5 34 88.7 50 88.7 66.05 88.7 77.3 77.4 77.3 77.35 77.4 77.3
L 77.45 77.3
Q 87.9 66.75 88.65 52.25
M 84.4 50
Q 84.4 51.15 84.35 52.25 83.6 65.05 74.25 74.35 64.25 84.4 50 84.4 35.75 84.4 25.65 74.35 15.55 64.25 15.55 50 15.55 35.85 25.55 25.8 25.55 25.65 25.65 25.65 35.75 15.55 50 15.55 64.25 15.55 74.25 25.65 80.8 32.2 83.15 40.45 84.4 44.95 84.4 50 Z"/>

<path fill="#5D5D5D" stroke="none" d="
M 92.4 52.75
Q 92.45 51.4 92.45 50 92.45 43.75 90.95 38.2 88.05 28 80 19.9 67.6 7.5 50.05 7.5 32.45 7.5 19.95 19.9 19.85 19.9 19.85 20.1 7.55 32.5 7.55 50 7.55 67.55 19.95 80.05 32.45 92.4 50.05 92.4 67.6 92.4 80 80.05 91.45 68.55 92.4 52.75
M 88.7 50
Q 88.7 51.15 88.65 52.25 87.9 66.75 77.45 77.3
L 77.4 77.3
Q 77.3 77.35 77.3 77.4 66.05 88.7 50 88.7 34 88.7 22.6 77.5 22.55 77.4 22.5 77.35 11.25 66.05 11.25 50 11.25 33.9 22.5 22.55 33.9 11.35 50 11.35 66 11.35 77.2 22.35 77.2 22.45 77.3 22.55 85.15 30.35 87.6 40.45 88.7 45 88.7 50 Z"/>

<path fill="#D7D7D7" stroke="none" d="
M 84.35 52.25
Q 84.4 51.15 84.4 50 84.4 44.95 83.15 40.45 80.8 32.2 74.25 25.65 64.25 15.55 50 15.55 35.75 15.55 25.65 25.65 25.55 25.65 25.55 25.8 15.55 35.85 15.55 50 15.55 64.25 25.65 74.35 35.75 84.4 50 84.4 64.25 84.4 74.25 74.35 83.6 65.05 84.35 52.25
M 70.25 30
Q 74.9 34.7 76.9 40.45 78.45 44.9 78.45 50 78.45 51.15 78.4 52.25 77.65 62.55 70.15 70.15 61.8 78.45 50 78.45 38.3 78.45 30 70.25 29.95 70.15 29.9 70.1 21.6 61.7 21.6 50 21.6 38.2 29.9 29.9 38.2 21.6 50 21.6 61.7 21.6 70.1 29.9 70.15 29.95 70.25 30 Z"/>

<path fill="#FFFFFF" stroke="none" d="
M 76.9 40.45
Q 74.9 34.7 70.25 30 70.15 29.95 70.1 29.9 61.7 21.6 50 21.6 38.2 21.6 29.9 29.9 21.6 38.2 21.6 50 21.6 61.7 29.9 70.1 29.95 70.15 30 70.25 38.3 78.45 50 78.45 61.8 78.45 70.15 70.15 77.65 62.55 78.4 52.25 78.45 51.15 78.45 50 78.45 44.9 76.9 40.45
M 67.75 32.3
Q 71.45 36 73.25 40.45 75 44.85 75 50 75 51.15 74.95 52.25 74.2 61.2 67.75 67.75 60.35 75 50 75 39.6 75 32.3 67.75 24.95 60.35 24.95 50 24.95 39.6 32.25 32.3
L 32.3 32.25
Q 39.6 24.95 50 24.95 60.35 24.95 67.75 32.3 Z"/>

<path fill="#F5F5F5" stroke="none" d="
M 73.25 40.45
Q 71.45 36 67.75 32.3 60.35 24.95 50 24.95 39.6 24.95 32.3 32.25
L 32.25 32.3
Q 24.95 39.6 24.95 50 24.95 60.35 32.3 67.75 39.6 75 50 75 60.35 75 67.75 67.75 74.2 61.2 74.95 52.25 75 51.15 75 50 75 44.85 73.25 40.45
M 57.3 39.95
Q 58.6 40.8 59.35 42.25 60.1 43.7 60.1 45.9 60.1 48.5 58.75 50.35 57.35 52.2 54.75 52.65
L 61.05 63.15 54.5 63.15 49.3 53.25 46.65 53.25 46.65 63.15 41.2 63.15 41.2 38.35 50.75 38.35
Q 52.65 38.35 54.35 38.75 56.05 39.1 57.3 39.95
M 46.65 48.6
L 49.85 48.6
Q 50.6 48.6 51.4 48.55 52.2 48.5 52.9 48.25 53.55 48 54 47.45 54.4 46.9 54.4 45.85 54.4 44.9 54.05 44.35 53.65 43.8 53.05 43.5 52.45 43.2 51.7 43.1 50.95 43 50.2 43
L 46.65 43 46.65 48.6 Z"/>

<path fill="#9A9A9A" stroke="none" d="
M 59.35 42.25
Q 58.6 40.8 57.3 39.95 56.05 39.1 54.35 38.75 52.65 38.35 50.75 38.35
L 41.2 38.35 41.2 63.15 46.65 63.15 46.65 53.25 49.3 53.25 54.5 63.15 61.05 63.15 54.75 52.65
Q 57.35 52.2 58.75 50.35 60.1 48.5 60.1 45.9 60.1 43.7 59.35 42.25
M 49.85 48.6
L 46.65 48.6 46.65 43 50.2 43
Q 50.95 43 51.7 43.1 52.45 43.2 53.05 43.5 53.65 43.8 54.05 44.35 54.4 44.9 54.4 45.85 54.4 46.9 54 47.45 53.55 48 52.9 48.25 52.2 48.5 51.4 48.55 50.6 48.6 49.85 48.6 Z"/>
</g>

<g id="Layer40_0_FILL">
<path fill="#404040" stroke="none" d="
M 96.45 38.2
Q 93.4 25.7 83.7 16.05 83.6 15.95 83.6 15.85 69.75 2.3 50.05 2.3 30.15 2.3 16.05 16.05 2.2 30.1 2.2 50 2.2 69.75 16.05 83.7 16.1 83.75 16.2 83.9 30.25 97.75 50.05 97.75 69.8 97.75 83.7 83.75 83.7 83.7 83.8 83.65
L 83.9 83.65
Q 96.8 70.65 97.75 52.75 97.8 51.4 97.8 50 97.8 43.85 96.45 38.2
M 92.45 50
Q 92.45 51.4 92.4 52.75 91.45 68.55 80 80.05 67.6 92.4 50.05 92.4 32.45 92.4 19.95 80.05 7.55 67.55 7.55 50 7.55 32.5 19.85 20.1 19.85 19.9 19.95 19.9 32.45 7.5 50.05 7.5 67.6 7.5 80 19.9 88.05 28 90.95 38.2 92.45 43.75 92.45 50
M 88.65 52.25
Q 88.7 51.15 88.7 50 88.7 45 87.6 40.45 85.15 30.35 77.3 22.55 77.2 22.45 77.2 22.35 66 11.35 50 11.35 33.9 11.35 22.5 22.55 11.25 33.9 11.25 50 11.25 66.05 22.5 77.35 22.55 77.4 22.6 77.5 34 88.7 50 88.7 66.05 88.7 77.3 77.4 77.3 77.35 77.4 77.3
L 77.45 77.3
Q 87.9 66.75 88.65 52.25
M 84.4 50
Q 84.4 51.15 84.35 52.25 83.6 65.05 74.25 74.35 64.25 84.4 50 84.4 35.75 84.4 25.65 74.35 15.55 64.25 15.55 50 15.55 35.85 25.55 25.8 25.55 25.65 25.65 25.65 35.75 15.55 50 15.55 64.25 15.55 74.25 25.65 80.8 32.2 83.15 40.45 84.4 44.95 84.4 50 Z"/>

<path fill="#5D5D5D" stroke="none" d="
M 92.4 52.75
Q 92.45 51.4 92.45 50 92.45 43.75 90.95 38.2 88.05 28 80 19.9 67.6 7.5 50.05 7.5 32.45 7.5 19.95 19.9 19.85 19.9 19.85 20.1 7.55 32.5 7.55 50 7.55 67.55 19.95 80.05 32.45 92.4 50.05 92.4 67.6 92.4 80 80.05 91.45 68.55 92.4 52.75
M 88.7 50
Q 88.7 51.15 88.65 52.25 87.9 66.75 77.45 77.3
L 77.4 77.3
Q 77.3 77.35 77.3 77.4 66.05 88.7 50 88.7 34 88.7 22.6 77.5 22.55 77.4 22.5 77.35 11.25 66.05 11.25 50 11.25 33.9 22.5 22.55 33.9 11.35 50 11.35 66 11.35 77.2 22.35 77.2 22.45 77.3 22.55 85.15 30.35 87.6 40.45 88.7 45 88.7 50 Z"/>

<path fill="#D7D7D7" stroke="none" d="
M 84.35 52.25
Q 84.4 51.15 84.4 50 84.4 44.95 83.15 40.45 80.8 32.2 74.25 25.65 64.25 15.55 50 15.55 35.75 15.55 25.65 25.65 25.55 25.65 25.55 25.8 15.55 35.85 15.55 50 15.55 64.25 25.65 74.35 35.75 84.4 50 84.4 64.25 84.4 74.25 74.35 83.6 65.05 84.35 52.25
M 70.25 30
Q 74.9 34.7 76.9 40.45 78.45 44.9 78.45 50 78.45 51.15 78.4 52.25 77.65 62.55 70.15 70.15 61.8 78.45 50 78.45 38.3 78.45 30 70.25 29.95 70.15 29.9 70.1 21.6 61.7 21.6 50 21.6 38.2 29.9 29.9 38.2 21.6 50 21.6 61.7 21.6 70.1 29.9 70.15 29.95 70.25 30 Z"/>

<path fill="#FFFFFF" stroke="none" d="
M 76.9 40.45
Q 74.9 34.7 70.25 30 70.15 29.95 70.1 29.9 61.7 21.6 50 21.6 38.2 21.6 29.9 29.9 21.6 38.2 21.6 50 21.6 61.7 29.9 70.1 29.95 70.15 30 70.25 38.3 78.45 50 78.45 61.8 78.45 70.15 70.15 77.65 62.55 78.4 52.25 78.45 51.15 78.45 50 78.45 44.9 76.9 40.45
M 67.75 32.3
Q 71.45 36 73.25 40.45 75 44.85 75 50 75 51.15 74.95 52.25 74.2 61.2 67.75 67.75 60.35 75 50 75 39.6 75 32.3 67.75 24.95 60.35 24.95 50 24.95 39.6 32.25 32.3
L 32.3 32.25
Q 39.6 24.95 50 24.95 60.35 24.95 67.75 32.3 Z"/>

<path fill="#F5F5F5" stroke="none" d="
M 73.25 40.45
Q 71.45 36 67.75 32.3 60.35 24.95 50 24.95 39.6 24.95 32.3 32.25
L 32.25 32.3
Q 24.95 39.6 24.95 50 24.95 60.35 32.3 67.75 39.6 75 50 75 60.35 75 67.75 67.75 74.2 61.2 74.95 52.25 75 51.15 75 50 75 44.85 73.25 40.45
M 43.35 38.35
L 48.8 38.35 48.8 58.1 58.9 58.1 58.9 63.15 43.35 63.15 43.35 38.35 Z"/>

<path fill="#9A9A9A" stroke="none" d="
M 48.8 38.35
L 43.35 38.35 43.35 63.15 58.9 63.15 58.9 58.1 48.8 58.1 48.8 38.35 Z"/>
</g>

<g id="Layer39_0_FILL">
<path fill="#D7D7D7" stroke="none" d="
M 79.9 24.4
Q 64.95 25.7 50 25.85 35 25.7 20.05 24.4 16.05 25.25 15.5 28.25
L 19.3 69.9
Q 19.95 72.2 23.1 73.45 34.45 75.6 50 75.55 65.6 75.6 76.9 73.45 80.05 72.2 80.7 69.9
L 84.5 28.25
Q 83.95 25.25 79.9 24.4
M 50.1 32.85
Q 63.6 32.7 77.15 31.7
L 73.95 66.9
Q 63.7 68.6 50.05 68.55
L 50 68.55
Q 36.3 68.6 26.1 66.9
L 22.85 31.7
Q 36.35 32.7 49.95 32.85 50 32.85 50.1 32.85 Z"/>

<path fill="#F5F5F5" stroke="none" d="
M 77.15 31.7
Q 63.6 32.7 50.1 32.85 50 32.85 49.95 32.85 36.35 32.7 22.85 31.7
L 26.1 66.9
Q 36.3 68.6 50 68.55
L 50.05 68.55
Q 63.7 68.6 73.95 66.9
L 77.15 31.7
M 56.55 40.85
L 56.55 44.8 46.45 57 56.9 57 56.9 61.1 40.85 61.1 40.85 57 51.15 44.8 41.2 44.8 41.2 40.85 56.55 40.85 Z"/>

<path fill="#9A9A9A" stroke="none" d="
M 56.55 44.8
L 56.55 40.85 41.2 40.85 41.2 44.8 51.15 44.8 40.85 57 40.85 61.1 56.9 61.1 56.9 57 46.45 57 56.55 44.8 Z"/>
</g>

<g id="Layer38_0_FILL">
<path fill="#D7D7D7" stroke="none" d="
M 72.75 32.8
Q 63.3 25.7 49.95 25.7 36.6 25.7 27.1 32.8 17.65 39.95 17.65 50 17.65 60.1 27.1 67.2 36.6 74.35 49.95 74.35 63.3 74.35 72.75 67.2 82.25 60.1 82.25 50 82.25 39.95 72.75 32.8
M 49.95 32.85
Q 60.8 32.85 68.5 38.5 74.85 43.35 75.1 50 74.85 56.7 68.5 61.45
L 68.5 61.5
Q 60.8 67.2 49.95 67.2 39.15 67.2 31.45 61.45
L 31.4 61.45
Q 25.05 56.7 24.8 50 25.05 43.35 31.4 38.5
L 31.45 38.5
Q 39.15 32.85 49.95 32.85 Z"/>

<path fill="#F5F5F5" stroke="none" d="
M 68.5 38.5
Q 60.8 32.85 49.95 32.85 39.15 32.85 31.45 38.5
L 31.4 38.5
Q 25.05 43.35 24.8 50 25.05 56.7 31.4 61.45
L 31.45 61.45
Q 39.15 67.2 49.95 67.2 60.8 67.2 68.5 61.5
L 68.5 61.45
Q 74.85 56.7 75.1 50 74.85 43.35 68.5 38.5
M 43.1 42.35
Q 44.6 40.95 46.6 40.2 48.6 39.45 50.95 39.45 51.85 39.45 52.75 39.6 53.7 39.8 54.6 40.1 55.5 40.45 56.35 41.05 57.15 41.6 57.8 42.45
L 54.35 45.25
Q 53.7 44.45 52.75 44 51.8 43.6 50.55 43.6 49.3 43.6 48.2 44.1 47.15 44.55 46.35 45.45 45.55 46.3 45.1 47.5 44.65 48.7 44.65 50.1 44.65 51.55 45.1 52.75 45.55 53.9 46.35 54.8 47.1 55.65 48.15 56.15 49.2 56.65 50.4 56.65 51.75 56.65 52.85 56.05 53.9 55.5 54.6 54.45
L 58.3 57.25
Q 57 59.05 55.05 59.9 53.05 60.75 50.95 60.75 48.6 60.75 46.6 60.05 44.6 59.25 43.1 57.9 41.65 56.5 40.85 54.5 40.05 52.55 40.05 50.1 40.05 47.7 40.85 45.7 41.65 43.75 43.1 42.35 Z"/>

<path fill="#9A9A9A" stroke="none" d="
M 46.6 40.2
Q 44.6 40.95 43.1 42.35 41.65 43.75 40.85 45.7 40.05 47.7 40.05 50.1 40.05 52.55 40.85 54.5 41.65 56.5 43.1 57.9 44.6 59.25 46.6 60.05 48.6 60.75 50.95 60.75 53.05 60.75 55.05 59.9 57 59.05 58.3 57.25
L 54.6 54.45
Q 53.9 55.5 52.85 56.05 51.75 56.65 50.4 56.65 49.2 56.65 48.15 56.15 47.1 55.65 46.35 54.8 45.55 53.9 45.1 52.75 44.65 51.55 44.65 50.1 44.65 48.7 45.1 47.5 45.55 46.3 46.35 45.45 47.15 44.55 48.2 44.1 49.3 43.6 50.55 43.6 51.8 43.6 52.75 44 53.7 44.45 54.35 45.25
L 57.8 42.45
Q 57.15 41.6 56.35 41.05 55.5 40.45 54.6 40.1 53.7 39.8 52.75 39.6 51.85 39.45 50.95 39.45 48.6 39.45 46.6 40.2 Z"/>
</g>

<g id="Layer37_0_FILL">
<path fill="#5D5D5D" stroke="none" d="
M 81.95 81.85
L 95.15 49.95 81.9 18.05 50 4.9 18.15 18.1 4.9 50 18.15 81.9 50.05 95.1 81.95 81.85
M 74.25 25.3
Q 74.25 25.4 74.35 25.45 84.55 35.65 84.55 50 84.55 64.25 74.5 74.4
L 74.45 74.4
Q 74.4 74.45 74.35 74.45 64.3 84.55 50 84.55 35.7 84.55 25.5 74.55
L 25.45 74.45
Q 15.4 64.3 15.4 50 15.4 35.65 25.45 25.45 35.65 15.45 50 15.45 64.25 15.45 74.25 25.3 Z"/>

<path fill="#404040" stroke="none" d="
M 74.35 25.45
Q 74.25 25.4 74.25 25.3 64.25 15.45 50 15.45 35.65 15.45 25.45 25.45 15.4 35.65 15.4 50 15.4 64.3 25.45 74.45
L 25.5 74.55
Q 35.7 84.55 50 84.55 64.3 84.55 74.35 74.45 74.4 74.45 74.45 74.4
L 74.5 74.4
Q 84.55 64.25 84.55 50 84.55 35.65 74.35 25.45
M 50 19.25
Q 62.7 19.25 71.65 28.25 80.7 37.3 80.7 50 80.7 62.7 71.65 71.75 62.7 80.7 50 80.7 37.3 80.7 28.25 71.75 19.25 62.7 19.25 50 19.25 37.35 28.15 28.4 28.15 28.25 28.25 28.25 37.3 19.25 50 19.25 Z"/>

<path fill="#D7D7D7" stroke="none" d="
M 71.65 28.25
Q 62.7 19.25 50 19.25 37.3 19.25 28.25 28.25 28.15 28.25 28.15 28.4 19.25 37.35 19.25 50 19.25 62.7 28.25 71.75 37.3 80.7 50 80.7 62.7 80.7 71.65 71.75 80.7 62.7 80.7 50 80.7 37.3 71.65 28.25
M 66.8 33.2
Q 66.8 33.25 66.9 33.25 73.8 40.2 73.8 50 73.8 59.85 66.8 66.8 59.85 73.8 50 73.8 40.2 73.8 33.25 66.9 33.25 66.8 33.2 66.8 26.25 59.8 26.25 50 26.25 40.1 33.2 33.2 40.1 26.25 50 26.25 59.8 26.25 66.8 33.2 Z"/>

<path fill="#FFFFFF" stroke="none" d="
M 66.9 33.25
Q 66.8 33.25 66.8 33.2 59.8 26.25 50 26.25 40.1 26.25 33.2 33.2 26.25 40.1 26.25 50 26.25 59.8 33.2 66.8 33.25 66.8 33.25 66.9 40.2 73.8 50 73.8 59.85 73.8 66.8 66.8 73.8 59.85 73.8 50 73.8 40.2 66.9 33.25
M 50 29
Q 58.65 29 64.85 35.2 70.95 41.3 70.95 50 70.95 58.65 64.85 64.85 58.65 70.95 50 70.95 41.3 70.95 35.2 64.85 29 58.65 29 50 29 41.3 35.15 35.2
L 35.2 35.15
Q 41.3 29 50 29 Z"/>

<path fill="#F5F5F5" stroke="none" d="
M 64.85 35.2
Q 58.65 29 50 29 41.3 29 35.2 35.15
L 35.15 35.2
Q 29 41.3 29 50 29 58.65 35.2 64.85 41.3 70.95 50 70.95 58.65 70.95 64.85 64.85 70.95 58.65 70.95 50 70.95 41.3 64.85 35.2 Z"/>
</g>

<g id="Layer36_0_FILL">
<path fill="#D7D7D7" stroke="none" d="
M 85.6 80.1
Q 89.6365234375 74.7375 87.2 68.85
L 80.15 60.2
Q 73 50.25 68.75 39 64.5 27.75 64.6 15.55 63.3 10.55 58.85 10.7 40.75 11.95 19.85 18.25 16.553515625 19.25078125 14.1 30.75 11.6888671875 42.2970703125 14.05 62.3 15.1638671875 66.055859375 17.45 69.2
L 31.65 84.55
Q 37.05 89.65 42.4 89.3 65.0587890625 87.423828125 85.6 80.1
M 57.85 17.75
Q 57.95 26.65 61.15 36.05 64.35 45.4 69.1 54.2 72.3 60.1 79.25 68.35 81.3 70.8 80.05 72.7 68.25 77.6 53.65 79.35 48 79.1 44.75 74.4 39.65 68 36.35 61.55 27.3 44.2 27.35 24.35 41.75 18.8 57.85 17.75 Z"/>

<path fill="#F5F5F5" stroke="none" d="
M 61.15 36.05
Q 57.95 26.65 57.85 17.75 41.75 18.8 27.35 24.35 27.3 44.2 36.35 61.55 39.65 68 44.75 74.4 48 79.1 53.65 79.35 68.25 77.6 80.05 72.7 81.3 70.8 79.25 68.35 72.3 60.1 69.1 54.2 64.35 45.4 61.15 36.05
M 45.9 37
Q 47.4 36.8 49.05 36.8 50.7 36.85 52.15 37.3 53.65 37.85 54.85 38.95 56.1 40.1 56.85 42.15 57.6 44.25 57 45.75 56.4 47.3 54.8 48.15
L 54.8 48.2
Q 56.05 48.25 57.15 48.6 58.3 49 59.25 49.7 60.25 50.35 61 51.35 61.7 52.35 62.15 53.55 62.85 55.5 62.6 56.95 62.25 58.35 61.35 59.35 60.35 60.3 58.9 60.9 57.45 61.45 55.9 61.65
L 46.25 63
Q 39.5775390625 50.7908203125 37.1 38.2
L 45.9 37
M 56.95 55.05
Q 57.05 54.45 56.8 53.65 56.45 52.75 55.85 52.25 55.2 51.75 54.45 51.6 53.75 51.4 53 51.4 52.2 51.4 51.5 51.5
L 47 52.05
Q 47.7419921875 54.875 49.75 57.7
L 54.4 57.05
Q 55 56.95 55.5 56.7 56.1 56.5 56.5 56.05 56.8 55.65 56.95 55.05
M 44 42.15
Q 43.8423828125 44.85 45.1 47.55
L 49.7 46.9
Q 50.35 46.85 50.85 46.6 51.35 46.35 51.75 46 52.05 45.65 52.15 45.05 52.25 44.45 52 43.75 51.65 42.95 51.2 42.5 50.7 42.05 50.05 41.8 49.45 41.6 48.8 41.6 48.1 41.55 47.5 41.65
L 44 42.15 Z"/>

<path fill="#9A9A9A" stroke="none" d="
M 49.05 36.8
Q 47.4 36.8 45.9 37
L 37.1 38.2
Q 39.5775390625 50.7908203125 46.25 63
L 55.9 61.65
Q 57.45 61.45 58.9 60.9 60.35 60.3 61.35 59.35 62.25 58.35 62.6 56.95 62.85 55.5 62.15 53.55 61.7 52.35 61 51.35 60.25 50.35 59.25 49.7 58.3 49 57.15 48.6 56.05 48.25 54.8 48.2
L 54.8 48.15
Q 56.4 47.3 57 45.75 57.6 44.25 56.85 42.15 56.1 40.1 54.85 38.95 53.65 37.85 52.15 37.3 50.7 36.85 49.05 36.8
M 45.1 47.55
Q 43.8423828125 44.85 44 42.15
L 47.5 41.65
Q 48.1 41.55 48.8 41.6 49.45 41.6 50.05 41.8 50.7 42.05 51.2 42.5 51.65 42.95 52 43.75 52.25 44.45 52.15 45.05 52.05 45.65 51.75 46 51.35 46.35 50.85 46.6 50.35 46.85 49.7 46.9
L 45.1 47.55
M 56.8 53.65
Q 57.05 54.45 56.95 55.05 56.8 55.65 56.5 56.05 56.1 56.5 55.5 56.7 55 56.95 54.4 57.05
L 49.75 57.7
Q 47.7419921875 54.875 47 52.05
L 51.5 51.5
Q 52.2 51.4 53 51.4 53.75 51.4 54.45 51.6 55.2 51.75 55.85 52.25 56.45 52.75 56.8 53.65 Z"/>
</g>

<g id="Layer35_0_FILL">
<path fill="#D7D7D7" stroke="none" d="
M 12.5 34.85
Q 7.85 35.95 7.15 40.2
L 7.15 59.8
Q 7.75 64.15 12.5 65.15
L 34.85 65.15 34.85 65.8 40.8 60.6
Q 40.5 60.2 40.15 59.85 37.95 57.65 34.85 57.65
L 14.65 57.65 14.65 42.35 34.85 42.35
Q 37.95 42.35 40.15 40.15 40.4 39.9 40.6 39.65
L 34 34.85 12.5 34.85 Z"/>

<path fill="#F5F5F5" stroke="none" d="
M 40.8 39.85
L 40.6 39.65
Q 40.4 39.9 40.15 40.15 37.95 42.35 34.85 42.35
L 14.65 42.35 14.65 57.65 34.85 57.65
Q 37.95 57.65 40.15 59.85 40.5 60.2 40.8 60.6 46.65 49.9 40.8 39.85
M 19.9 50
L 33.05 50 19.9 50 Z"/>

<path fill="#9F9F9F" stroke="none" d="
M 85.35 57.65
L 85.35 42.35 65.15 42.35
Q 62.05 42.35 59.85 40.15 57.65 37.95 57.65 34.85
L 57.65 14.65 42.35 14.65 42.35 34.85
Q 42.35 37.65 40.6 39.65
L 40.8 39.85
Q 46.65 49.9 40.8 60.6 42.35 62.55 42.35 65.15
L 42.35 85.35 57.65 85.35 57.65 65.15
Q 57.65 62.05 59.85 59.85 62.05 57.65 65.15 57.65
L 85.35 57.65
M 50 33.05
L 50 19.9 50 33.05
M 66.95 50
L 80.1 50 66.95 50
M 50 80.1
L 50 66.95 50 80.1 Z"/>

<path fill="#747474" stroke="none" d="
M 92.85 40.2
Q 92.15 35.95 87.5 34.85
L 65.15 34.85 65.15 12.5
Q 64.05 7.85 59.8 7.15
L 40.2 7.15
Q 35.85 7.75 34.85 12.5
L 34.85 34.85 34 34.85 40.6 39.65
Q 42.35 37.65 42.35 34.85
L 42.35 14.65 57.65 14.65 57.65 34.85
Q 57.65 37.95 59.85 40.15 62.05 42.35 65.15 42.35
L 85.35 42.35 85.35 57.65 65.15 57.65
Q 62.05 57.65 59.85 59.85 57.65 62.05 57.65 65.15
L 57.65 85.35 42.35 85.35 42.35 65.15
Q 42.35 62.55 40.8 60.6
L 34.85 65.8 34.85 87.5
Q 35.85 92.25 40.2 92.85
L 59.8 92.85
Q 64.05 92.15 65.15 87.5
L 65.15 65.15 87.5 65.15
Q 92.25 64.15 92.85 59.8
L 92.85 40.2 Z"/>
</g>

<g id="Layer34_0_FILL">
<path fill="#D7D7D7" stroke="none" d="
M 40.15 59.85
Q 39.9 59.6 39.65 59.4
L 34.85 66 34.85 87.5
Q 35.95 92.15 40.2 92.85
L 59.8 92.85
Q 64.15 92.25 65.15 87.5
L 65.15 65.15 65.8 65.15 60.6 59.2
Q 60.2 59.5 59.85 59.85 57.65 62.05 57.65 65.15
L 57.65 85.35 42.35 85.35 42.35 65.15
Q 42.35 62.05 40.15 59.85 Z"/>

<path fill="#F5F5F5" stroke="none" d="
M 39.65 59.4
Q 39.9 59.6 40.15 59.85 42.35 62.05 42.35 65.15
L 42.35 85.35 57.65 85.35 57.65 65.15
Q 57.65 62.05 59.85 59.85 60.2 59.5 60.6 59.2 49.9 53.35 39.85 59.2
L 39.65 59.4
M 50 80.1
L 50 66.95 50 80.1 Z"/>

<path fill="#9F9F9F" stroke="none" d="
M 85.35 57.65
L 85.35 42.35 65.15 42.35
Q 62.05 42.35 59.85 40.15 57.65 37.95 57.65 34.85
L 57.65 14.65 42.35 14.65 42.35 34.85
Q 42.35 37.95 40.15 40.15 37.95 42.35 34.85 42.35
L 14.65 42.35 14.65 57.65 34.85 57.65
Q 37.65 57.65 39.65 59.4
L 39.85 59.2
Q 49.9 53.35 60.6 59.2 62.55 57.65 65.15 57.65
L 85.35 57.65
M 50 33.05
L 50 19.9 50 33.05
M 33.05 50
L 19.9 50 33.05 50
M 80.1 50
L 66.95 50 80.1 50 Z"/>

<path fill="#747474" stroke="none" d="
M 92.85 40.2
Q 92.15 35.95 87.5 34.85
L 65.15 34.85 65.15 12.5
Q 64.15 7.75 59.8 7.15
L 40.2 7.15
Q 35.95 7.85 34.85 12.5
L 34.85 34.85 12.5 34.85
Q 7.85 35.95 7.15 40.2
L 7.15 59.8
Q 7.75 64.15 12.5 65.15
L 34.85 65.15 34.85 66 39.65 59.4
Q 37.65 57.65 34.85 57.65
L 14.65 57.65 14.65 42.35 34.85 42.35
Q 37.95 42.35 40.15 40.15 42.35 37.95 42.35 34.85
L 42.35 14.65 57.65 14.65 57.65 34.85
Q 57.65 37.95 59.85 40.15 62.05 42.35 65.15 42.35
L 85.35 42.35 85.35 57.65 65.15 57.65
Q 62.55 57.65 60.6 59.2
L 65.8 65.15 87.5 65.15
Q 92.25 64.15 92.85 59.8
L 92.85 40.2 Z"/>
</g>

<g id="Layer33_0_FILL">
<path fill="#9F9F9F" stroke="none" d="
M 57.65 14.65
L 42.35 14.65 42.35 34.85
Q 42.35 37.95 40.15 40.15 37.95 42.35 34.85 42.35
L 14.65 42.35 14.65 57.65 34.85 57.65
Q 37.95 57.65 40.15 59.85 42.35 62.05 42.35 65.15
L 42.35 85.35 57.65 85.35 57.65 65.15
Q 57.65 62.35 59.4 60.35
L 59.2 60.15
Q 53.35 50.1 59.2 39.4 57.65 37.45 57.65 34.85
L 57.65 14.65
M 50 19.9
L 50 33.05 50 19.9
M 33.05 50
L 19.9 50 33.05 50
M 50 66.95
L 50 80.1 50 66.95 Z"/>

<path fill="#747474" stroke="none" d="
M 42.35 14.65
L 57.65 14.65 57.65 34.85
Q 57.65 37.45 59.2 39.4
L 65.15 34.2 65.15 12.5
Q 64.15 7.75 59.8 7.15
L 40.2 7.15
Q 35.95 7.85 34.85 12.5
L 34.85 34.85 12.5 34.85
Q 7.75 35.85 7.15 40.2
L 7.15 59.8
Q 7.85 64.05 12.5 65.15
L 34.85 65.15 34.85 87.5
Q 35.95 92.15 40.2 92.85
L 59.8 92.85
Q 64.15 92.25 65.15 87.5
L 65.15 65.15 66 65.15 59.4 60.35
Q 57.65 62.35 57.65 65.15
L 57.65 85.35 42.35 85.35 42.35 65.15
Q 42.35 62.05 40.15 59.85 37.95 57.65 34.85 57.65
L 14.65 57.65 14.65 42.35 34.85 42.35
Q 37.95 42.35 40.15 40.15 42.35 37.95 42.35 34.85
L 42.35 14.65 Z"/>

<path fill="#F5F5F5" stroke="none" d="
M 85.35 57.65
L 85.35 42.35 65.15 42.35
Q 62.05 42.35 59.85 40.15 59.5 39.8 59.2 39.4 53.35 50.1 59.2 60.15
L 59.4 60.35
Q 59.6 60.1 59.85 59.85 62.05 57.65 65.15 57.65
L 85.35 57.65
M 80.1 50
L 66.95 50 80.1 50 Z"/>

<path fill="#D7D7D7" stroke="none" d="
M 92.85 40.2
Q 92.25 35.85 87.5 34.85
L 65.15 34.85 65.15 34.2 59.2 39.4
Q 59.5 39.8 59.85 40.15 62.05 42.35 65.15 42.35
L 85.35 42.35 85.35 57.65 65.15 57.65
Q 62.05 57.65 59.85 59.85 59.6 60.1 59.4 60.35
L 66 65.15 87.5 65.15
Q 92.15 64.05 92.85 59.8
L 92.85 40.2 Z"/>
</g>

<g id="Layer32_0_FILL">
<path fill="#F5F5F5" stroke="none" d="
M 57.65 14.65
L 42.35 14.65 42.35 34.85
Q 42.3482421875 37.9548828125 40.15 40.15 39.7912109375 40.509375 39.4 40.8 50.090625 46.6359375 60.15 40.8
L 60.3 40.55
Q 60.0763671875 40.3767578125 59.85 40.15 57.6515625 37.9548828125 57.65 34.85
L 57.65 14.65
M 50 19.9
L 50 33.05 50 19.9 Z"/>

<path fill="#D7D7D7" stroke="none" d="
M 42.35 14.65
L 57.65 14.65 57.65 34.85
Q 57.6515625 37.9548828125 59.85 40.15 60.0763671875 40.3767578125 60.3 40.55
L 65.15 34 65.15 12.5
Q 64.05 7.85 59.8 7.15
L 40.2 7.15
Q 35.85 7.75 34.85 12.5
L 34.85 34.85 34.2 34.85 39.4 40.8
Q 39.7912109375 40.509375 40.15 40.15 42.3482421875 37.9548828125 42.35 34.85
L 42.35 14.65 Z"/>

<path fill="#9F9F9F" stroke="none" d="
M 85.35 57.65
L 85.35 42.35 65.15 42.35
Q 62.365234375 42.3484375 60.3 40.55
L 60.15 40.8
Q 50.090625 46.6359375 39.4 40.8 37.447265625 42.3484375 34.85 42.35
L 14.65 42.35 14.65 57.65 34.85 57.65
Q 37.9548828125 57.6515625 40.15 59.85 42.3482421875 62.044921875 42.35 65.15
L 42.35 85.35 57.65 85.35 57.65 65.15
Q 57.6515625 62.044921875 59.85 59.85 62.044921875 57.6515625 65.15 57.65
L 85.35 57.65
M 19.9 50
L 33.05 50 19.9 50
M 66.95 50
L 80.1 50 66.95 50
M 50 66.95
L 50 80.1 50 66.95 Z"/>

<path fill="#747474" stroke="none" d="
M 92.85 40.2
Q 92.25 35.85 87.5 34.85
L 65.15 34.85 65.15 34 60.3 40.55
Q 62.365234375 42.3484375 65.15 42.35
L 85.35 42.35 85.35 57.65 65.15 57.65
Q 62.044921875 57.6515625 59.85 59.85 57.6515625 62.044921875 57.65 65.15
L 57.65 85.35 42.35 85.35 42.35 65.15
Q 42.3482421875 62.044921875 40.15 59.85 37.9548828125 57.6515625 34.85 57.65
L 14.65 57.65 14.65 42.35 34.85 42.35
Q 37.447265625 42.3484375 39.4 40.8
L 34.2 34.85 12.5 34.85
Q 7.75 35.85 7.15 40.2
L 7.15 59.8
Q 7.85 64.05 12.5 65.15
L 34.85 65.15 34.85 87.5
Q 35.85 92.25 40.2 92.85
L 59.8 92.85
Q 64.05 92.15 65.15 87.5
L 65.15 65.15 87.5 65.15
Q 92.15 64.05 92.85 59.8
L 92.85 40.2 Z"/>
</g>

<g id="Layer31_0_FILL">
<path fill="#D7D7D7" stroke="none" d="
M 92.85 40.2
Q 92.25 35.85 87.5 34.85
L 65.15 34.85 65.15 12.5
Q 64.05 7.85 59.8 7.15
L 40.2 7.15
Q 35.85 7.75 34.85 12.5
L 34.85 34.85 12.5 34.85
Q 7.75 35.85 7.15 40.2
L 7.15 59.8
Q 7.85 64.05 12.5 65.15
L 34.85 65.15 34.85 87.5
Q 35.85 92.25 40.2 92.85
L 59.8 92.85
Q 64.05 92.15 65.15 87.5
L 65.15 65.15 87.5 65.15
Q 92.15 64.05 92.85 59.8
L 92.85 40.2
M 85.35 42.35
L 85.35 57.65 65.15 57.65
Q 62.044921875 57.6515625 59.85 59.85 57.6515625 62.044921875 57.65 65.15
L 57.65 85.35 42.35 85.35 42.35 65.15
Q 42.3482421875 62.044921875 40.15 59.85 37.9548828125 57.6515625 34.85 57.65
L 14.65 57.65 14.65 42.35 34.85 42.35
Q 37.9548828125 42.3482421875 40.15 40.15 42.3482421875 37.9548828125 42.35 34.85
L 42.35 14.65 57.65 14.65 57.65 34.85
Q 57.6515625 37.9548828125 59.85 40.15 62.044921875 42.3482421875 65.15 42.35
L 85.35 42.35 Z"/>

<path fill="#F5F5F5" stroke="none" d="
M 85.35 57.65
L 85.35 42.35 65.15 42.35
Q 62.044921875 42.3482421875 59.85 40.15 57.6515625 37.9548828125 57.65 34.85
L 57.65 14.65 42.35 14.65 42.35 34.85
Q 42.3482421875 37.9548828125 40.15 40.15 37.9548828125 42.3482421875 34.85 42.35
L 14.65 42.35 14.65 57.65 34.85 57.65
Q 37.9548828125 57.6515625 40.15 59.85 42.3482421875 62.044921875 42.35 65.15
L 42.35 85.35 57.65 85.35 57.65 65.15
Q 57.6515625 62.044921875 59.85 59.85 62.044921875 57.6515625 65.15 57.65
L 85.35 57.65
M 50 19.9
L 50 33.05 50 19.9
M 19.9 50
L 33.05 50 19.9 50
M 66.95 50
L 80.1 50 66.95 50
M 50 66.95
L 50 80.1 50 66.95 Z"/>
</g>

<g id="Layer30_0_FILL">
<path fill="#404040" stroke="none" d="
M 91.95 52.45
Q 92.0001953125 51.2380859375 92 50 92.000390625 44.5794921875 90.8 39.65 88.14765625 28.7162109375 79.6 20.2 79.4958984375 20.0982421875 79.45 19.95 67.325390625 8.046875 50 8.05 32.5546875 8.0458984375 20.15 20.2 7.9466796875 32.5548828125 7.95 50 7.947265625 67.394921875 20.15 79.7 20.223046875 79.772265625 20.25 79.85 32.632421875 92.0029296875 50 92 67.394140625 92.0015625 79.6 79.75 79.655078125 79.68984375 79.7 79.65
L 79.75 79.6
Q 91.12890625 68.219140625 91.95 52.45
M 87.35 50
Q 87.35 51.239453125 87.25 52.45 86.466796875 66.3365234375 76.35 76.45 65.4556640625 87.3478515625 50 87.35 34.5453125 87.3474609375 23.55 76.45 12.65234375 65.4546875 12.65 50 12.65234375 34.6255859375 23.4 23.7 23.4736328125 23.62421875 23.55 23.55 34.5453125 12.65234375 50 12.65 65.4556640625 12.6515625 76.35 23.6 83.466015625 30.6810546875 85.95 39.65 87.349609375 44.544140625 87.35 50 Z"/>

<path fill="#D7D7D7" stroke="none" d="
M 87.25 52.45
Q 87.35 51.239453125 87.35 50 87.349609375 44.544140625 85.95 39.65 83.466015625 30.6810546875 76.35 23.6 65.4556640625 12.6515625 50 12.65 34.5453125 12.65234375 23.55 23.55 23.4736328125 23.62421875 23.4 23.7 12.65234375 34.6255859375 12.65 50 12.65234375 65.4546875 23.55 76.45 34.5453125 87.3474609375 50 87.35 65.4556640625 87.3478515625 76.35 76.45 86.466796875 66.3365234375 87.25 52.45
M 71.8 28.2
Q 71.873046875 28.273828125 71.95 28.3 76.9822265625 33.3791015625 79.15 39.65 80.8509765625 44.47265625 80.85 50 80.8501953125 51.2427734375 80.75 52.45 79.9779296875 63.6744140625 71.85 71.85 62.7947265625 80.85234375 50 80.85 37.284765625 80.8521484375 28.3 71.95 28.273828125 71.873046875 28.2 71.8 19.19765625 62.695703125 19.2 50 19.1978515625 37.2056640625 28.2 28.2 37.2056640625 19.1978515625 50 19.2 62.695703125 19.19765625 71.8 28.2 Z"/>

<path fill="#FFFFFF" stroke="none" d="
M 71.95 28.3
Q 71.873046875 28.273828125 71.8 28.2 62.695703125 19.19765625 50 19.2 37.2056640625 19.1978515625 28.2 28.2 19.1978515625 37.2056640625 19.2 50 19.19765625 62.695703125 28.2 71.8 28.273828125 71.873046875 28.3 71.95 37.284765625 80.8521484375 50 80.85 62.7947265625 80.85234375 71.85 71.85 79.9779296875 63.6744140625 80.75 52.45 80.8501953125 51.2427734375 80.85 50 80.8509765625 44.47265625 79.15 39.65 76.9822265625 33.3791015625 71.95 28.3
M 69.25 30.8
Q 73.241015625 34.7892578125 75.2 39.65 77.1486328125 44.4076171875 77.15 50 77.149609375 51.2451171875 77.05 52.45 76.2732421875 62.1392578125 69.25 69.25 61.2546875 77.146875 50 77.15 38.69375 77.147265625 30.8 69.25 22.8013671875 61.2548828125 22.8 50 22.801953125 38.6935546875 30.75 30.8
L 30.8 30.75
Q 38.6935546875 22.801953125 50 22.8 61.2548828125 22.8013671875 69.25 30.8 Z"/>

<path fill="#F5F5F5" stroke="none" d="
M 75.2 39.65
Q 73.241015625 34.7892578125 69.25 30.8 61.2548828125 22.8013671875 50 22.8 38.6935546875 22.801953125 30.8 30.75
L 30.75 30.8
Q 22.801953125 38.6935546875 22.8 50 22.8013671875 61.2548828125 30.8 69.25 38.69375 77.147265625 50 77.15 61.2546875 77.146875 69.25 69.25 76.2732421875 62.1392578125 77.05 52.45 77.149609375 51.2451171875 77.15 50 77.1486328125 44.4076171875 75.2 39.65
M 47.05 32.25
L 52.85 32.25 66.7 64.1 58.75 64.1 56 57.35 43.65 57.35 41 64.1 33.25 64.1 47.05 32.25
M 45.85 51.4
L 53.65 51.4 49.75 41.5 45.85 51.4 Z"/>

<path fill="#9A9A9A" stroke="none" d="
M 52.85 32.25
L 47.05 32.25 33.25 64.1 41 64.1 43.65 57.35 56 57.35 58.75 64.1 66.7 64.1 52.85 32.25
M 53.65 51.4
L 45.85 51.4 49.75 41.5 53.65 51.4 Z"/>
</g>

<g id="Layer29_0_FILL">
<path fill="#404040" stroke="none" d="
M 79.6 20.2
Q 79.4958984375 20.0982421875 79.45 19.95 67.325390625 8.046875 50 8.05 32.5546875 8.0458984375 20.15 20.2 7.9466796875 32.5548828125 7.95 50 7.947265625 67.394921875 20.15 79.7 20.223046875 79.772265625 20.25 79.85 32.632421875 92.0029296875 50 92 67.394140625 92.0015625 79.6 79.75 79.655078125 79.68984375 79.7 79.65
L 79.75 79.6
Q 92.0017578125 67.3421875 92 50 92.0009765625 32.5552734375 79.6 20.2
M 50 12.65
Q 65.4556640625 12.6515625 76.35 23.6 87.348828125 34.5447265625 87.35 50 87.348828125 65.4546875 76.35 76.45 65.4556640625 87.3478515625 50 87.35 34.5453125 87.3474609375 23.55 76.45 12.65234375 65.4546875 12.65 50 12.65234375 34.6255859375 23.4 23.7 23.4736328125 23.62421875 23.55 23.55 34.5453125 12.65234375 50 12.65 Z"/>

<path fill="#D7D7D7" stroke="none" d="
M 76.35 23.6
Q 65.4556640625 12.6515625 50 12.65 34.5453125 12.65234375 23.55 23.55 23.4736328125 23.62421875 23.4 23.7 12.65234375 34.6255859375 12.65 50 12.65234375 65.4546875 23.55 76.45 34.5453125 87.3474609375 50 87.35 65.4556640625 87.3478515625 76.35 76.45 87.348828125 65.4546875 87.35 50 87.348828125 34.5447265625 76.35 23.6
M 71.8 28.2
Q 71.873046875 28.273828125 71.95 28.3 80.8521484375 37.284765625 80.85 50 80.85234375 62.7947265625 71.85 71.85 62.7947265625 80.85234375 50 80.85 37.284765625 80.8521484375 28.3 71.95 28.273828125 71.873046875 28.2 71.8 19.19765625 62.695703125 19.2 50 19.1978515625 37.2056640625 28.2 28.2 37.2056640625 19.1978515625 50 19.2 62.695703125 19.19765625 71.8 28.2 Z"/>

<path fill="#FFFFFF" stroke="none" d="
M 71.95 28.3
Q 71.873046875 28.273828125 71.8 28.2 62.695703125 19.19765625 50 19.2 37.2056640625 19.1978515625 28.2 28.2 19.1978515625 37.2056640625 19.2 50 19.19765625 62.695703125 28.2 71.8 28.273828125 71.873046875 28.3 71.95 37.284765625 80.8521484375 50 80.85 62.7947265625 80.85234375 71.85 71.85 80.85234375 62.7947265625 80.85 50 80.8521484375 37.284765625 71.95 28.3
M 50 22.8
Q 61.2548828125 22.8013671875 69.25 30.8 77.147265625 38.69375 77.15 50 77.146875 61.2546875 69.25 69.25 61.2546875 77.146875 50 77.15 38.69375 77.147265625 30.8 69.25 22.8013671875 61.2548828125 22.8 50 22.801953125 38.6935546875 30.75 30.8
L 30.8 30.75
Q 38.6935546875 22.801953125 50 22.8 Z"/>

<path fill="#F5F5F5" stroke="none" d="
M 69.25 30.8
Q 61.2548828125 22.8013671875 50 22.8 38.6935546875 22.801953125 30.8 30.75
L 30.75 30.8
Q 22.801953125 38.6935546875 22.8 50 22.8013671875 61.2548828125 30.8 69.25 38.69375 77.147265625 50 77.15 61.2546875 77.146875 69.25 69.25 77.146875 61.2546875 77.15 50 77.147265625 38.69375 69.25 30.8
M 54.55 33.75
Q 56.45 34.35 57.85 35.55 59.25 36.75 60.05 38.55 60.8 40.35 60.8 42.75 60.8 44.25 60.5 45.5 60.2 46.75 59.65 47.75 59.05 48.75 58.3 49.6 57.5 50.5 56.65 51.3
L 46.95 59.6 61.1 59.6 61.1 65.55 38.85 65.55 38.85 58.4 51.25 47.25
Q 52.2 46.45 53.15 45.35 54.05 44.25 54.05 42.85 54.05 41.2 52.9 40.3 51.75 39.35 50.15 39.35 48.25 39.35 47.2 40.5 46.15 41.7 46 43.4
L 39.25 42.9
Q 39.4 40.45 40.3 38.6 41.2 36.8 42.7 35.6 44.15 34.35 46.2 33.75 48.2 33.15 50.5 33.15 52.7 33.15 54.55 33.75 Z"/>

<path fill="#9A9A9A" stroke="none" d="
M 57.85 35.55
Q 56.45 34.35 54.55 33.75 52.7 33.15 50.5 33.15 48.2 33.15 46.2 33.75 44.15 34.35 42.7 35.6 41.2 36.8 40.3 38.6 39.4 40.45 39.25 42.9
L 46 43.4
Q 46.15 41.7 47.2 40.5 48.25 39.35 50.15 39.35 51.75 39.35 52.9 40.3 54.05 41.2 54.05 42.85 54.05 44.25 53.15 45.35 52.2 46.45 51.25 47.25
L 38.85 58.4 38.85 65.55 61.1 65.55 61.1 59.6 46.95 59.6 56.65 51.3
Q 57.5 50.5 58.3 49.6 59.05 48.75 59.65 47.75 60.2 46.75 60.5 45.5 60.8 44.25 60.8 42.75 60.8 40.35 60.05 38.55 59.25 36.75 57.85 35.55 Z"/>
</g>

<g id="Layer28_0_FILL">
<path fill="#404040" stroke="none" d="
M 79.6 20.2
Q 79.4958984375 20.0982421875 79.45 19.95 67.325390625 8.046875 50 8.05 32.5546875 8.0458984375 20.15 20.2 7.9466796875 32.5548828125 7.95 50 7.947265625 67.394921875 20.15 79.7 20.223046875 79.772265625 20.25 79.85 32.632421875 92.0029296875 50 92 67.394140625 92.0015625 79.6 79.75 79.655078125 79.68984375 79.7 79.65
L 79.75 79.6
Q 92.0017578125 67.3421875 92 50 92.0009765625 32.5552734375 79.6 20.2
M 50 12.65
Q 65.4556640625 12.6515625 76.35 23.6 87.348828125 34.5447265625 87.35 50 87.348828125 65.4546875 76.35 76.45 65.4556640625 87.3478515625 50 87.35 34.5453125 87.3474609375 23.55 76.45 12.65234375 65.4546875 12.65 50 12.65234375 34.6255859375 23.4 23.7 23.4736328125 23.62421875 23.55 23.55 34.5453125 12.65234375 50 12.65 Z"/>

<path fill="#D7D7D7" stroke="none" d="
M 76.35 23.6
Q 65.4556640625 12.6515625 50 12.65 34.5453125 12.65234375 23.55 23.55 23.4736328125 23.62421875 23.4 23.7 12.65234375 34.6255859375 12.65 50 12.65234375 65.4546875 23.55 76.45 34.5453125 87.3474609375 50 87.35 65.4556640625 87.3478515625 76.35 76.45 87.348828125 65.4546875 87.35 50 87.348828125 34.5447265625 76.35 23.6
M 71.8 28.2
Q 71.873046875 28.273828125 71.95 28.3 80.8521484375 37.284765625 80.85 50 80.85234375 62.7947265625 71.85 71.85 62.7947265625 80.85234375 50 80.85 37.284765625 80.8521484375 28.3 71.95 28.273828125 71.873046875 28.2 71.8 19.19765625 62.695703125 19.2 50 19.1978515625 37.2056640625 28.2 28.2 37.2056640625 19.1978515625 50 19.2 62.695703125 19.19765625 71.8 28.2 Z"/>

<path fill="#FFFFFF" stroke="none" d="
M 71.95 28.3
Q 71.873046875 28.273828125 71.8 28.2 62.695703125 19.19765625 50 19.2 37.2056640625 19.1978515625 28.2 28.2 19.1978515625 37.2056640625 19.2 50 19.19765625 62.695703125 28.2 71.8 28.273828125 71.873046875 28.3 71.95 37.284765625 80.8521484375 50 80.85 62.7947265625 80.85234375 71.85 71.85 80.85234375 62.7947265625 80.85 50 80.8521484375 37.284765625 71.95 28.3
M 50 22.8
Q 61.2548828125 22.8013671875 69.25 30.8 77.147265625 38.69375 77.15 50 77.146875 61.2546875 69.25 69.25 61.2546875 77.146875 50 77.15 38.69375 77.147265625 30.8 69.25 22.8013671875 61.2548828125 22.8 50 22.801953125 38.6935546875 30.75 30.8
L 30.8 30.75
Q 38.6935546875 22.801953125 50 22.8 Z"/>

<path fill="#F5F5F5" stroke="none" d="
M 69.25 30.8
Q 61.2548828125 22.8013671875 50 22.8 38.6935546875 22.801953125 30.8 30.75
L 30.75 30.8
Q 22.801953125 38.6935546875 22.8 50 22.8013671875 61.2548828125 30.8 69.25 38.69375 77.147265625 50 77.15 61.2546875 77.146875 69.25 69.25 77.146875 61.2546875 77.15 50 77.147265625 38.69375 69.25 30.8
M 48.7 34.1
L 55 34.1 55 65.95 48.5 65.95 48.5 41.65 42.1 47.25 38.3 42.85 48.7 34.1 Z"/>

<path fill="#9A9A9A" stroke="none" d="
M 55 34.1
L 48.7 34.1 38.3 42.85 42.1 47.25 48.5 41.65 48.5 65.95 55 65.95 55 34.1 Z"/>
</g>

<g id="Layer27_0_FILL">
<path fill="#404040" stroke="none" d="
M 82.45 39.85
Q 81.92109375 38.1166015625 81.2 36.45 79.71875 33.0673828125 77.4 30 75.8546875 27.894921875 73.9 25.95
L 73.95 25.95
Q 64.1 16.1 50 16.1 35.9 16.1 25.9 25.95 23.973828125 27.895703125 22.4 30 19.0693359375 34.553515625 17.45 39.85 17.1078125 41.080078125 16.8 42.35 16.05 46.0087890625 16.05 50 16.05 64.05 25.9 73.95
L 25.9 74
Q 35.9 83.9 50 83.9 64.05 83.9 73.9 74
L 73.95 73.95
Q 83.9 64.05 83.9 50 83.9 44.6232421875 82.45 39.85
M 77.65 39.85
Q 78.1232421875 41.0759765625 78.45 42.35 79.4 45.9796875 79.4 50 79.4 62.15 70.75 70.8 62.15 79.4 50 79.4 37.8 79.4 29.15 70.8 20.6 62.15 20.6 50 20.6 45.9796875 21.5 42.35 21.858203125 41.0759765625 22.3 39.85 24.2318359375 34.459375 28.35 30 28.755859375 29.5962890625 29.15 29.2
L 29.15 29.15
Q 37.8 20.6 50 20.6 62.15 20.6 70.75 29.2 71.1486328125 29.5962890625 71.5 30 75.725390625 34.459375 77.65 39.85 Z"/>

<path fill="#D7D7D7" stroke="none" d="
M 78.45 42.35
Q 78.1232421875 41.0759765625 77.65 39.85 75.725390625 34.459375 71.5 30 71.1486328125 29.5962890625 70.75 29.2 62.15 20.6 50 20.6 37.8 20.6 29.15 29.15
L 29.15 29.2
Q 28.755859375 29.5962890625 28.35 30 24.2318359375 34.459375 22.3 39.85 21.858203125 41.0759765625 21.5 42.35 20.6 45.9796875 20.6 50 20.6 62.15 29.15 70.8 37.8 79.4 50 79.4 62.15 79.4 70.75 70.8 79.4 62.15 79.4 50 79.4 45.9796875 78.45 42.35
M 65 30
Q 66.3830078125 31.0416015625 67.65 32.3
L 67.7 32.3
Q 71.132421875 35.732421875 72.95 39.85 73.4890625 41.0701171875 73.85 42.35 75 45.938671875 75 50 75 60.35 67.7 67.7 60.35 75 50 75 39.6 75 32.3 67.7
L 32.3 67.65
Q 25 60.3 25 50 25 45.938671875 26.1 42.35 26.5109375 41.0701171875 27.05 39.85 28.867578125 35.732421875 32.3 32.3 33.5583984375 31.0416015625 34.9 30 41.3927734375 25 50 25 58.5244140625 25 65 30 Z"/>

<path fill="#FFFFFF" stroke="none" d="
M 67.65 32.3
Q 66.3830078125 31.0416015625 65 30 58.5244140625 25 50 25 41.3927734375 25 34.9 30 33.5583984375 31.0416015625 32.3 32.3 28.867578125 35.732421875 27.05 39.85 26.5109375 41.0701171875 26.1 42.35 25 45.938671875 25 50 25 60.3 32.3 67.65
L 32.3 67.7
Q 39.6 75 50 75 60.35 75 67.7 67.7 75 60.35 75 50 75 45.938671875 73.85 42.35 73.4890625 41.0701171875 72.95 39.85 71.132421875 35.732421875 67.7 32.3
L 67.65 32.3
M 42.45 30
Q 45.947265625 28.7 50 28.7 54.013671875 28.7 57.5 30 61.6505859375 31.5505859375 65.05 34.95 67.3220703125 37.2220703125 68.75 39.85 69.4169921875 41.0623046875 69.9 42.35 71.25 45.8892578125 71.25 50 71.25 58.8 65.05 65.05 58.8 71.25 50 71.25 41.15 71.25 34.95 65.05 28.7 58.8 28.7 50 28.7 45.8892578125 30.05 42.35 30.5330078125 41.0623046875 31.2 39.85 32.6279296875 37.2220703125 34.9 34.95
L 34.95 34.9
Q 38.3107421875 31.5392578125 42.45 30 Z"/>

<path fill="#F5F5F5" stroke="none" d="
M 50 28.7
Q 45.947265625 28.7 42.45 30 38.3107421875 31.5392578125 34.95 34.9
L 34.9 34.95
Q 32.6279296875 37.2220703125 31.2 39.85 30.5330078125 41.0623046875 30.05 42.35 28.7 45.8892578125 28.7 50 28.7 58.8 34.95 65.05 41.15 71.25 50 71.25 58.8 71.25 65.05 65.05 71.25 58.8 71.25 50 71.25 45.8892578125 69.9 42.35 69.4169921875 41.0623046875 68.75 39.85 67.3220703125 37.2220703125 65.05 34.95 61.6505859375 31.5505859375 57.5 30 54.013671875 28.7 50 28.7
M 50 36.9
L 50 49.4 50 36.9
M 50 61.95
Q 45.05 61.95 41.55 58.45 38.05 54.95 38.05 50 38.05 45.6029296875 40.8 42.35 38.05 45.6029296875 38.05 50 38.05 54.95 41.55 58.45 45.05 61.95 50 61.95 54.95 61.95 58.45 58.45 61.95 54.95 61.95 50 61.95 45.6029296875 59.2 42.35 61.95 45.6029296875 61.95 50 61.95 54.95 58.45 58.45 54.95 61.95 50 61.95 Z"/>
</g>

<g id="Layer26_0_FILL">
<path fill="#404040" stroke="none" d="
M 73.95 25.95
Q 64.1 16.1 50 16.1 35.9 16.1 25.9 25.95 16.05 35.9 16.05 50 16.05 64.05 25.9 73.95
L 25.9 74
Q 35.9 83.9 50 83.9 64.05 83.9 73.9 74
L 73.95 73.95
Q 83.9 64.05 83.9 50 83.9 35.9 73.9 25.95
L 73.95 25.95
M 50 20.6
Q 62.15 20.6 70.75 29.2 79.4 37.8 79.4 50 79.4 62.15 70.75 70.8 62.15 79.4 50 79.4 37.8 79.4 29.15 70.8 20.6 62.15 20.6 50 20.6 37.8 29.15 29.2
L 29.15 29.15
Q 37.8 20.6 50 20.6 Z"/>

<path fill="#D7D7D7" stroke="none" d="
M 70.75 29.2
Q 62.15 20.6 50 20.6 37.8 20.6 29.15 29.15
L 29.15 29.2
Q 20.6 37.8 20.6 50 20.6 62.15 29.15 70.8 37.8 79.4 50 79.4 62.15 79.4 70.75 70.8 79.4 62.15 79.4 50 79.4 37.8 70.75 29.2
M 50 25
Q 60.3 25 67.65 32.3
L 67.7 32.3
Q 75 39.6 75 50 75 60.35 67.7 67.7 60.35 75 50 75 39.6 75 32.3 67.7
L 32.3 67.65
Q 25 60.3 25 50 25 39.6 32.3 32.3 39.6 25 50 25 Z"/>

<path fill="#FFFFFF" stroke="none" d="
M 67.65 32.3
Q 60.3 25 50 25 39.6 25 32.3 32.3 25 39.6 25 50 25 60.3 32.3 67.65
L 32.3 67.7
Q 39.6 75 50 75 60.35 75 67.7 67.7 75 60.35 75 50 75 39.6 67.7 32.3
L 67.65 32.3
M 50 28.7
Q 58.8 28.7 65.05 34.95 71.25 41.15 71.25 50 71.25 58.8 65.05 65.05 58.8 71.25 50 71.25 41.15 71.25 34.95 65.05 28.7 58.8 28.7 50 28.7 41.15 34.9 34.95
L 34.95 34.9
Q 41.15 28.7 50 28.7 Z"/>

<path fill="#F5F5F5" stroke="none" d="
M 65.05 34.95
Q 58.8 28.7 50 28.7 41.15 28.7 34.95 34.9
L 34.9 34.95
Q 28.7 41.15 28.7 50 28.7 58.8 34.95 65.05 41.15 71.25 50 71.25 58.8 71.25 65.05 65.05 71.25 58.8 71.25 50 71.25 41.15 65.05 34.95
M 40.15 62.9
L 40.15 50.1 33.9 50.1 50 34.65 66.1 50.1 59.85 50.1 59.85 62.9 40.15 62.9
M 54.4 48.4
L 45.55 48.4 45.55 57.2 54.4 57.2 54.4 48.4 Z"/>

<path fill="#4196F3" stroke="none" d="
M 40.15 50.1
L 40.15 62.9 59.85 62.9 59.85 50.1 66.1 50.1 50 34.65 33.9 50.1 40.15 50.1
M 45.55 48.4
L 54.4 48.4 54.4 57.2 45.55 57.2 45.55 48.4 Z"/>
</g>

<g id="Layer25_0_FILL">
<path fill="#404040" stroke="none" d="
M 73.9 25.95
L 73.95 25.95
Q 64.1 16.1 50 16.1 35.9 16.1 25.9 25.95 16.05 35.9 16.05 50 16.05 64.05 25.9 73.95
L 25.9 74
Q 35.9 83.9 50 83.9 64.05 83.9 73.9 74
L 73.95 73.95
Q 83.9 64.05 83.9 50 83.9 35.9 73.9 25.95
M 50 20.6
Q 62.15 20.6 70.75 29.2 79.4 37.8 79.4 50 79.4 62.15 70.75 70.8 62.15 79.4 50 79.4 37.8 79.4 29.15 70.8 20.6 62.15 20.6 50 20.6 37.8 29.15 29.2
L 29.15 29.15
Q 37.8 20.6 50 20.6 Z"/>

<path fill="#D7D7D7" stroke="none" d="
M 70.75 29.2
Q 62.15 20.6 50 20.6 37.8 20.6 29.15 29.15
L 29.15 29.2
Q 20.6 37.8 20.6 50 20.6 62.15 29.15 70.8 37.8 79.4 50 79.4 62.15 79.4 70.75 70.8 79.4 62.15 79.4 50 79.4 37.8 70.75 29.2
M 67.65 32.3
L 67.7 32.3
Q 75 39.6 75 50 75 60.35 67.7 67.7 60.35 75 50 75 39.6 75 32.3 67.7
L 32.3 67.65
Q 25 60.3 25 50 25 39.6 32.3 32.3 39.6 25 50 25 60.3 25 67.65 32.3 Z"/>

<path fill="#FFFFFF" stroke="none" d="
M 67.7 32.3
L 67.65 32.3
Q 60.3 25 50 25 39.6 25 32.3 32.3 25 39.6 25 50 25 60.3 32.3 67.65
L 32.3 67.7
Q 39.6 75 50 75 60.35 75 67.7 67.7 75 60.35 75 50 75 39.6 67.7 32.3
M 50 28.7
Q 58.8 28.7 65.05 34.95 71.25 41.15 71.25 50 71.25 58.8 65.05 65.05 58.8 71.25 50 71.25 41.15 71.25 34.95 65.05 28.7 58.8 28.7 50 28.7 41.15 34.9 34.95
L 34.95 34.9
Q 41.15 28.7 50 28.7 Z"/>

<path fill="#F5F5F5" stroke="none" d="
M 65.05 34.95
Q 58.8 28.7 50 28.7 41.15 28.7 34.95 34.9
L 34.9 34.95
Q 28.7 41.15 28.7 50 28.7 58.8 34.95 65.05 41.15 71.25 50 71.25 58.8 71.25 65.05 65.05 71.25 58.8 71.25 50 71.25 41.15 65.05 34.95
M 63.05 52.95
L 37 52.95 37 46.95 63.05 46.95 63.05 52.95 Z"/>

<path fill="#9A9A9A" stroke="none" d="
M 37 52.95
L 63.05 52.95 63.05 46.95 37 46.95 37 52.95 Z"/>
</g>

<g id="Layer24_0_FILL">
<path fill="#404040" stroke="none" d="
M 73.9 25.95
L 73.95 25.95
Q 64.1 16.1 50 16.1 35.9 16.1 25.9 25.95 16.05 35.9 16.05 50 16.05 64.05 25.9 73.95
L 25.9 74
Q 35.9 83.9 50 83.9 64.05 83.9 73.9 74
L 73.95 73.95
Q 83.9 64.05 83.9 50 83.9 35.9 73.9 25.95
M 50 20.6
Q 62.15 20.6 70.75 29.2 79.4 37.8 79.4 50 79.4 62.15 70.75 70.8 62.15 79.4 50 79.4 37.8 79.4 29.15 70.8 20.6 62.15 20.6 50 20.6 37.8 29.15 29.2
L 29.15 29.15
Q 37.8 20.6 50 20.6 Z"/>

<path fill="#D7D7D7" stroke="none" d="
M 70.75 29.2
Q 62.15 20.6 50 20.6 37.8 20.6 29.15 29.15
L 29.15 29.2
Q 20.6 37.8 20.6 50 20.6 62.15 29.15 70.8 37.8 79.4 50 79.4 62.15 79.4 70.75 70.8 79.4 62.15 79.4 50 79.4 37.8 70.75 29.2
M 67.65 32.3
L 67.7 32.3
Q 75 39.6 75 50 75 60.35 67.7 67.7 60.35 75 50 75 39.6 75 32.3 67.7
L 32.3 67.65
Q 25 60.3 25 50 25 39.6 32.3 32.3 39.6 25 50 25 60.3 25 67.65 32.3 Z"/>

<path fill="#FFFFFF" stroke="none" d="
M 67.7 32.3
L 67.65 32.3
Q 60.3 25 50 25 39.6 25 32.3 32.3 25 39.6 25 50 25 60.3 32.3 67.65
L 32.3 67.7
Q 39.6 75 50 75 60.35 75 67.7 67.7 75 60.35 75 50 75 39.6 67.7 32.3
M 50 28.7
Q 58.8 28.7 65.05 34.95 71.25 41.15 71.25 50 71.25 58.8 65.05 65.05 58.8 71.25 50 71.25 41.15 71.25 34.95 65.05 28.7 58.8 28.7 50 28.7 41.15 34.9 34.95
L 34.95 34.9
Q 41.15 28.7 50 28.7 Z"/>

<path fill="#F5F5F5" stroke="none" d="
M 65.05 34.95
Q 58.8 28.7 50 28.7 41.15 28.7 34.95 34.9
L 34.9 34.95
Q 28.7 41.15 28.7 50 28.7 58.8 34.95 65.05 41.15 71.25 50 71.25 58.8 71.25 65.05 65.05 71.25 58.8 71.25 50 71.25 41.15 65.05 34.95
M 47 46.95
L 47 36.95 53 36.95 53 46.95 63.05 46.95 63.05 52.95 53 52.95 53 63 47 63 47 52.95 37 52.95 37 46.95 47 46.95 Z"/>

<path fill="#9A9A9A" stroke="none" d="
M 47 36.95
L 47 46.95 37 46.95 37 52.95 47 52.95 47 63 53 63 53 52.95 63.05 52.95 63.05 46.95 53 46.95 53 36.95 47 36.95 Z"/>
</g>

<path id="Layer50_0_1_STROKES" stroke="#FFFFFF" stroke-width="4" stroke-linejoin="round" stroke-linecap="round" fill="none" d="
M 68.1 35.6
Q 72.35 35.6 72.35 39.85
L 72.35 60.15
Q 72.35 64.4 68.1 64.4
L 31.95 64.4
Q 27.7 64.4 27.7 60.15
L 27.7 39.85
Q 27.7 35.6 31.95 35.6
L 68.1 35.6 Z"/>

<path id="Layer50_0_2_STROKES" stroke="#404040" stroke-width="4" stroke-linejoin="round" stroke-linecap="round" fill="none" d="
M 79.85 39.85
Q 79.85 28.1 68.1 28.1
L 31.95 28.1
Q 20.2 28.1 20.2 39.85
L 20.2 60.15
Q 20.2 71.9 31.95 71.9
L 68.1 71.9
Q 79.85 71.9 79.85 60.15
L 79.85 39.85 Z"/>

<path id="Layer49_0_1_STROKES" stroke="#FFFFFF" stroke-width="4" stroke-linejoin="round" stroke-linecap="round" fill="none" d="
M 84 62.65
L 84 44.85
Q 79.4720703125 43.9529296875 75.2 43.175 74.47109375 43.0310546875 73.75 42.9 71.6 42.5 69.55 42.1 63.471484375 40.9927734375 58 40.1 39.7513671875 37.10390625 28.25 36.45 20.9 36 17.15 37.65 16.05 38.2 16 39.45
L 16 58.8
Q 16.55 63.55 22.2 63.7
L 84 62.65 Z"/>

<path id="Layer49_0_2_STROKES" stroke="#404040" stroke-width="4" stroke-linejoin="round" stroke-linecap="round" fill="none" d="
M 88.25 38.05
Q 91.3 39 91.5 42.8
L 91.5 65.65
Q 91.3 69.45 88.25 70.05
L 22.2 71.2
Q 9.1 70.95 8.5 59.15
L 8.5 39.45
Q 8.8 27.75 28.7 28.95 40.11015625 29.6009765625 58 32.5 63.471875 33.39921875 69.55 34.5 71.6 34.85 73.75 35.25 74.47109375 35.3806640625 75.2 35.525 81.4443359375 36.6619140625 88.25 38.05 Z"/>

<path id="Layer48_0_1_STROKES" stroke="#FFFFFF" stroke-width="4" stroke-linejoin="round" stroke-linecap="round" fill="none" d="
M 16 44.85
Q 21.3123046875 43.7990234375 26.25 42.875 28.3853515625 42.476171875 30.45 42.1 56.7873046875 37.323046875 71.75 36.45 79.1 36 82.85 37.65 83.95 38.2 84 39.45
L 84 58.8
Q 83.45 63.55 77.8 63.7
L 16 62.65 16 44.85 Z"/>

<path id="Layer48_0_2_STROKES" stroke="#404040" stroke-width="4" stroke-linejoin="round" stroke-linecap="round" fill="none" d="
M 91.5 59.15
L 91.5 39.45
Q 91.2 27.75 71.3 28.95 56.406640625 29.810546875 30.45 34.475 28.38515625 34.8541015625 26.25 35.25 19.3646484375 36.5232421875 11.75 38.05 8.7 39 8.5 42.8
L 8.5 65.65
Q 8.7 69.45 11.75 70.05
L 77.8 71.2
Q 90.9 70.95 91.5 59.15 Z"/>

<path id="Layer47_0_1_STROKES" stroke="#404040" stroke-width="5" stroke-linejoin="round" stroke-linecap="round" fill="none" d="
M 88.75 77.8
L 86.55 24.85
Q 81.45 14.1 71.5 12.35
L 18.45 16.25
Q 15.15 18.2 14.95 21.85 17.15 50.95 11.2 78.1 12.7 87.95 21.15 87.7
L 71.5 87.7
Q 81.8 86.45 88.75 77.8 Z"/>

<path id="Layer47_0_2_STROKES" stroke="#FFFFFF" stroke-width="4" stroke-linejoin="round" stroke-linecap="round" fill="none" d="
M 65.65 20.8
Q 69.45 21.5 69.95 24.55 71.85 46.75 70.45 68.95 68.75 73.65 63.95 75.05 43.35 76.6 23.85 75.5 19.35 74.55 18.8 70.45 23.25 51.8 22 23.7
L 65.65 20.8 Z"/>

<path id="Layer46_0_1_STROKES" stroke="#404040" stroke-width="5" stroke-linejoin="round" stroke-linecap="round" fill="none" d="
M 81.55 16.25
Q 84.85 18.2 85.05 21.85 82.85 50.95 88.8 78.1 87.3 87.95 78.85 87.7
L 28.5 87.7
Q 18.2 86.45 11.25 77.8
L 13.45 24.85
Q 18.55 14.1 28.5 12.35
L 81.55 16.25 Z"/>

<path id="Layer46_0_2_STROKES" stroke="#FFFFFF" stroke-width="4" stroke-linejoin="round" stroke-linecap="round" fill="none" d="
M 34.35 20.8
Q 30.55 21.5 30.05 24.55 28.15 46.75 29.55 68.95 31.25 73.65 36.05 75.05 56.65 76.6 76.15 75.5 80.65 74.55 81.2 70.45 76.75 51.8 78 23.7
L 34.35 20.8 Z"/>

<path id="Layer39_0_1_STROKES" stroke="#FFFFFF" stroke-width="4" stroke-linejoin="round" stroke-linecap="round" fill="none" d="
M 22.85 31.7
Q 36.35 32.7 49.95 32.85 50 32.85 50.1 32.85 63.6 32.7 77.15 31.7
L 73.95 66.9
Q 63.7 68.6 50.05 68.55
L 50 68.55
Q 36.3 68.6 26.1 66.9
L 22.85 31.7 Z"/>

<path id="Layer39_0_2_STROKES" stroke="#404040" stroke-width="5" stroke-linejoin="round" stroke-linecap="round" fill="none" d="
M 50 25.85
Q 64.95 25.7 79.9 24.4 83.95 25.25 84.5 28.25
L 80.7 69.9
Q 80.05 72.2 76.9 73.45 65.6 75.6 50 75.55 34.45 75.6 23.1 73.45 19.95 72.2 19.3 69.9
L 15.5 28.25
Q 16.05 25.25 20.05 24.4 35 25.7 50 25.85 Z"/>

<path id="Layer38_0_1_STROKES" stroke="#404040" stroke-width="5" stroke-linejoin="round" stroke-linecap="round" fill="none" d="
M 49.95 25.7
Q 63.3 25.7 72.75 32.8 82.25 39.95 82.25 50 82.25 60.1 72.75 67.2 63.3 74.35 49.95 74.35 36.6 74.35 27.1 67.2 17.65 60.1 17.65 50 17.65 39.95 27.1 32.8 36.6 25.7 49.95 25.7 Z"/>

<path id="Layer38_0_2_STROKES" stroke="#FFFFFF" stroke-width="4" stroke-linejoin="round" stroke-linecap="round" fill="none" d="
M 31.45 38.5
Q 39.15 32.85 49.95 32.85 60.8 32.85 68.5 38.5 74.85 43.35 75.1 50 74.85 56.7 68.5 61.45
L 68.5 61.5
Q 60.8 67.2 49.95 67.2 39.15 67.2 31.45 61.45
L 31.4 61.45
Q 25.05 56.7 24.8 50 25.05 43.35 31.4 38.5
L 31.45 38.5 Z"/>

<path id="Layer37_0_1_STROKES" stroke="#404040" stroke-width="5" stroke-linejoin="round" stroke-linecap="round" fill="none" d="
M 95.15 49.95
L 81.95 81.85 50.05 95.1 18.15 81.9 4.9 50 18.15 18.1 50 4.9 81.9 18.05 95.15 49.95 Z"/>

<path id="Layer36_0_1_STROKES" stroke="#FFFFFF" stroke-width="4" stroke-linejoin="round" stroke-linecap="round" fill="none" d="
M 57.85 17.75
Q 57.95 26.65 61.15 36.05 64.35 45.4 69.1 54.2 72.3 60.1 79.25 68.35 81.3 70.8 80.05 72.7 68.25 77.6 53.65 79.35 48 79.1 44.75 74.4 39.65 68 36.35 61.55 27.3 44.2 27.35 24.35 41.75 18.8 57.85 17.75 Z"/>

<path id="Layer36_0_2_STROKES" stroke="#404040" stroke-width="5" stroke-linejoin="round" stroke-linecap="round" fill="none" d="
M 87.2 68.85
Q 89.6365234375 74.7375 85.6 80.1 65.0587890625 87.423828125 42.4 89.3 37.05 89.65 31.65 84.55
L 17.45 69.2
Q 15.1638671875 66.055859375 14.05 62.325 11.6888671875 42.2970703125 14.125 30.775 16.553515625 19.25078125 19.85 18.25 40.75 11.95 58.85 10.7 63.3 10.55 64.6 15.55 64.5 27.75 68.75 39 73 50.25 80.15 60.2
L 87.2 68.85 Z"/>

<path id="Layer35_0_1_STROKES" stroke="#404040" stroke-width="5" stroke-linejoin="round" stroke-linecap="round" fill="none" d="
M 34 34.85
L 34.85 34.85 34.85 12.5
Q 35.85 7.75 40.2 7.15
L 59.8 7.15
Q 64.05 7.85 65.15 12.5
L 65.15 34.85 87.5 34.85
Q 92.15 35.95 92.85 40.2
L 92.85 59.8
Q 92.25 64.15 87.5 65.15
L 65.15 65.15 65.15 87.5
Q 64.05 92.15 59.8 92.85
L 40.2 92.85
Q 35.85 92.25 34.85 87.5
L 34.85 65.8 34.85 65.15 12.5 65.15
Q 7.75 64.15 7.15 59.8
L 7.15 40.2
Q 7.85 35.95 12.5 34.85
L 34 34.85 Z"/>

<path id="Layer35_0_2_STROKES" stroke="#B5B5B5" stroke-width="4" stroke-linejoin="round" stroke-linecap="round" fill="none" d="
M 40.6 39.65
Q 42.35 37.65 42.35 34.85
L 42.35 14.65 57.65 14.65 57.65 34.85
Q 57.65 37.95 59.85 40.15 62.05 42.35 65.15 42.35
L 85.35 42.35 85.35 57.65 65.15 57.65
Q 62.05 57.65 59.85 59.85 57.65 62.05 57.65 65.15
L 57.65 85.35 42.35 85.35 42.35 65.15
Q 42.35 62.55 40.8 60.6"/>

<path id="Layer35_0_3_STROKES" stroke="#747474" stroke-width="4" stroke-linejoin="round" stroke-linecap="round" fill="none" d="
M 50 33.05
L 50 19.9
M 66.95 50
L 80.1 50
M 50 80.1
L 50 66.95"/>

<path id="Layer35_0_4_STROKES" stroke="#FFFFFF" stroke-width="4" stroke-linejoin="round" stroke-linecap="butt" fill="none" d="
M 40.8 60.6
Q 40.5 60.2 40.15 59.85 37.95 57.65 34.85 57.65
M 34.85 42.35
Q 37.95 42.35 40.15 40.15 40.4 39.9 40.6 39.65"/>

<path id="Layer35_0_5_STROKES" stroke="#FFFFFF" stroke-width="4" stroke-linejoin="round" stroke-linecap="round" fill="none" d="
M 34.85 57.65
L 14.65 57.65 14.65 42.35 34.85 42.35"/>

<path id="Layer35_0_6_STROKES" stroke="#D7D7D7" stroke-width="4" stroke-linejoin="round" stroke-linecap="round" fill="none" d="
M 19.9 50
L 33.05 50"/>

<path id="Layer34_0_1_STROKES" stroke="#404040" stroke-width="5" stroke-linejoin="round" stroke-linecap="round" fill="none" d="
M 34.85 66
L 34.85 65.15 12.5 65.15
Q 7.75 64.15 7.15 59.8
L 7.15 40.2
Q 7.85 35.95 12.5 34.85
L 34.85 34.85 34.85 12.5
Q 35.95 7.85 40.2 7.15
L 59.8 7.15
Q 64.15 7.75 65.15 12.5
L 65.15 34.85 87.5 34.85
Q 92.15 35.95 92.85 40.2
L 92.85 59.8
Q 92.25 64.15 87.5 65.15
L 65.8 65.15 65.15 65.15 65.15 87.5
Q 64.15 92.25 59.8 92.85
L 40.2 92.85
Q 35.95 92.15 34.85 87.5
L 34.85 66 Z"/>

<path id="Layer34_0_2_STROKES" stroke="#FFFFFF" stroke-width="4" stroke-linejoin="round" stroke-linecap="round" fill="none" d="
M 42.35 65.15
L 42.35 85.35 57.65 85.35 57.65 65.15"/>

<path id="Layer34_0_3_STROKES" stroke="#B5B5B5" stroke-width="4" stroke-linejoin="round" stroke-linecap="round" fill="none" d="
M 39.65 59.4
Q 37.65 57.65 34.85 57.65
L 14.65 57.65 14.65 42.35 34.85 42.35
Q 37.95 42.35 40.15 40.15 42.35 37.95 42.35 34.85
L 42.35 14.65 57.65 14.65 57.65 34.85
Q 57.65 37.95 59.85 40.15 62.05 42.35 65.15 42.35
L 85.35 42.35 85.35 57.65 65.15 57.65
Q 62.55 57.65 60.6 59.2"/>

<path id="Layer34_0_4_STROKES" stroke="#FFFFFF" stroke-width="4" stroke-linejoin="round" stroke-linecap="butt" fill="none" d="
M 39.65 59.4
Q 39.9 59.6 40.15 59.85 42.35 62.05 42.35 65.15
M 57.65 65.15
Q 57.65 62.05 59.85 59.85 60.2 59.5 60.6 59.2"/>

<path id="Layer34_0_5_STROKES" stroke="#747474" stroke-width="4" stroke-linejoin="round" stroke-linecap="round" fill="none" d="
M 50 33.05
L 50 19.9
M 33.05 50
L 19.9 50
M 80.1 50
L 66.95 50"/>

<path id="Layer34_0_6_STROKES" stroke="#D7D7D7" stroke-width="4" stroke-linejoin="round" stroke-linecap="round" fill="none" d="
M 50 80.1
L 50 66.95"/>

<path id="Layer33_0_1_STROKES" stroke="#404040" stroke-width="5" stroke-linejoin="round" stroke-linecap="round" fill="none" d="
M 65.15 34.2
L 65.15 34.85 87.5 34.85
Q 92.25 35.85 92.85 40.2
L 92.85 59.8
Q 92.15 64.05 87.5 65.15
L 66 65.15 65.15 65.15 65.15 87.5
Q 64.15 92.25 59.8 92.85
L 40.2 92.85
Q 35.95 92.15 34.85 87.5
L 34.85 65.15 12.5 65.15
Q 7.85 64.05 7.15 59.8
L 7.15 40.2
Q 7.75 35.85 12.5 34.85
L 34.85 34.85 34.85 12.5
Q 35.95 7.85 40.2 7.15
L 59.8 7.15
Q 64.15 7.75 65.15 12.5
L 65.15 34.2 Z"/>

<path id="Layer33_0_2_STROKES" stroke="#B5B5B5" stroke-width="4" stroke-linejoin="round" stroke-linecap="round" fill="none" d="
M 59.4 60.35
Q 57.65 62.35 57.65 65.15
L 57.65 85.35 42.35 85.35 42.35 65.15
Q 42.35 62.05 40.15 59.85 37.95 57.65 34.85 57.65
L 14.65 57.65 14.65 42.35 34.85 42.35
Q 37.95 42.35 40.15 40.15 42.35 37.95 42.35 34.85
L 42.35 14.65 57.65 14.65 57.65 34.85
Q 57.65 37.45 59.2 39.4"/>

<path id="Layer33_0_3_STROKES" stroke="#FFFFFF" stroke-width="4" stroke-linejoin="round" stroke-linecap="round" fill="none" d="
M 65.15 42.35
L 85.35 42.35 85.35 57.65 65.15 57.65"/>

<path id="Layer33_0_4_STROKES" stroke="#FFFFFF" stroke-width="4" stroke-linejoin="round" stroke-linecap="butt" fill="none" d="
M 59.2 39.4
Q 59.5 39.8 59.85 40.15 62.05 42.35 65.15 42.35
M 65.15 57.65
Q 62.05 57.65 59.85 59.85 59.6 60.1 59.4 60.35"/>

<path id="Layer33_0_5_STROKES" stroke="#D7D7D7" stroke-width="4" stroke-linejoin="round" stroke-linecap="round" fill="none" d="
M 80.1 50
L 66.95 50"/>

<path id="Layer33_0_6_STROKES" stroke="#747474" stroke-width="4" stroke-linejoin="round" stroke-linecap="round" fill="none" d="
M 50 19.9
L 50 33.05
M 33.05 50
L 19.9 50
M 50 66.95
L 50 80.1"/>

<path id="Layer32_0_1_STROKES" stroke="#404040" stroke-width="5" stroke-linejoin="round" stroke-linecap="round" fill="none" d="
M 65.15 34
L 65.15 34.85 87.5 34.85
Q 92.25 35.85 92.85 40.2
L 92.85 59.8
Q 92.15 64.05 87.5 65.15
L 65.15 65.15 65.15 87.5
Q 64.05 92.15 59.8 92.85
L 40.2 92.85
Q 35.85 92.25 34.85 87.5
L 34.85 65.15 12.5 65.15
Q 7.85 64.05 7.15 59.8
L 7.15 40.2
Q 7.75 35.85 12.5 34.85
L 34.2 34.85 34.85 34.85 34.85 12.5
Q 35.85 7.75 40.2 7.15
L 59.8 7.15
Q 64.05 7.85 65.15 12.5
L 65.15 34 Z"/>

<path id="Layer32_0_2_STROKES" stroke="#FFFFFF" stroke-width="4" stroke-linejoin="round" stroke-linecap="round" fill="none" d="
M 42.35 34.85
L 42.35 14.65 57.65 14.65 57.65 34.85"/>

<path id="Layer32_0_3_STROKES" stroke="#D7D7D7" stroke-width="4" stroke-linejoin="round" stroke-linecap="round" fill="none" d="
M 50 19.9
L 50 33.05"/>

<path id="Layer32_0_4_STROKES" stroke="#B5B5B5" stroke-width="4" stroke-linejoin="round" stroke-linecap="round" fill="none" d="
M 60.325 40.575
Q 62.365234375 42.3484375 65.15 42.35
L 85.35 42.35 85.35 57.65 65.15 57.65
Q 62.044921875 57.6515625 59.85 59.85 57.6515625 62.044921875 57.65 65.15
L 57.65 85.35 42.35 85.35 42.35 65.15
Q 42.3482421875 62.044921875 40.15 59.85 37.9548828125 57.6515625 34.85 57.65
L 14.65 57.65 14.65 42.35 34.85 42.35
Q 37.447265625 42.3484375 39.4 40.8"/>

<path id="Layer32_0_5_STROKES" stroke="#747474" stroke-width="4" stroke-linejoin="round" stroke-linecap="round" fill="none" d="
M 19.9 50
L 33.05 50
M 66.95 50
L 80.1 50
M 50 66.95
L 50 80.1"/>

<path id="Layer32_0_6_STROKES" stroke="#FFFFFF" stroke-width="4" stroke-linejoin="round" stroke-linecap="butt" fill="none" d="
M 57.65 34.85
Q 57.6515625 37.9548828125 59.85 40.15 60.0763671875 40.3767578125 60.325 40.575
M 39.4 40.8
Q 39.7912109375 40.509375 40.15 40.15 42.3482421875 37.9548828125 42.35 34.85"/>

<path id="Layer31_0_1_STROKES" stroke="#404040" stroke-width="5" stroke-linejoin="round" stroke-linecap="round" fill="none" d="
M 87.5 34.85
Q 92.25 35.85 92.85 40.2
L 92.85 59.8
Q 92.15 64.05 87.5 65.15
L 65.15 65.15 65.15 87.5
Q 64.05 92.15 59.8 92.85
L 40.2 92.85
Q 35.85 92.25 34.85 87.5
L 34.85 65.15 12.5 65.15
Q 7.85 64.05 7.15 59.8
L 7.15 40.2
Q 7.75 35.85 12.5 34.85
L 34.85 34.85 34.85 12.5
Q 35.85 7.75 40.2 7.15
L 59.8 7.15
Q 64.05 7.85 65.15 12.5
L 65.15 34.85 87.5 34.85 Z"/>

<path id="Layer31_0_2_STROKES" stroke="#FFFFFF" stroke-width="4" stroke-linejoin="round" stroke-linecap="round" fill="none" d="
M 85.35 42.35
L 85.35 57.65 65.15 57.65
Q 62.044921875 57.6515625 59.85 59.85 57.6515625 62.044921875 57.65 65.15
L 57.65 85.35 42.35 85.35 42.35 65.15
Q 42.3482421875 62.044921875 40.15 59.85 37.9548828125 57.6515625 34.85 57.65
L 14.65 57.65 14.65 42.35 34.85 42.35
Q 37.9548828125 42.3482421875 40.15 40.15 42.3482421875 37.9548828125 42.35 34.85
L 42.35 14.65 57.65 14.65 57.65 34.85
Q 57.6515625 37.9548828125 59.85 40.15 62.044921875 42.3482421875 65.15 42.35
L 85.35 42.35 Z"/>

<path id="Layer31_0_3_STROKES" stroke="#D7D7D7" stroke-width="4" stroke-linejoin="round" stroke-linecap="round" fill="none" d="
M 50 19.9
L 50 33.05
M 19.9 50
L 33.05 50
M 66.95 50
L 80.1 50
M 50 66.95
L 50 80.1"/>

<path id="Layer27_0_1_STROKES" stroke="#A91818" stroke-width="5" stroke-linejoin="round" stroke-linecap="round" fill="none" d="
M 50 36.9
L 50 49.4
M 59.2 42.35
Q 61.95 45.6029296875 61.95 50 61.95 54.95 58.45 58.45 54.95 61.95 50 61.95 45.05 61.95 41.55 58.45 38.05 54.95 38.05 50 38.05 45.6029296875 40.8 42.35"/>
</defs>

<g transform="matrix( 1, 0, 0, 1, 0,0) ">
<use xlink:href="#Layer52_0_FILL"/>
</g>

<g transform="matrix( 1, 0, 0, 1, 0,0) ">
<use xlink:href="#Layer51_0_FILL"/>
</g>

<g transform="matrix( 1, 0, 0, 1, 0,0) ">
<use xlink:href="#Layer50_0_FILL"/>

<use xlink:href="#Layer50_0_1_STROKES"/>

<use xlink:href="#Layer50_0_2_STROKES"/>
</g>

<g transform="matrix( 1, 0, 0, 1, 0,0) ">
<use xlink:href="#Layer49_0_FILL"/>

<use xlink:href="#Layer49_0_1_STROKES"/>

<use xlink:href="#Layer49_0_2_STROKES"/>
</g>

<g transform="matrix( 1, 0, 0, 1, 0,0) ">
<use xlink:href="#Layer48_0_FILL"/>

<use xlink:href="#Layer48_0_1_STROKES"/>

<use xlink:href="#Layer48_0_2_STROKES"/>
</g>

<g transform="matrix( 1, 0, 0, 1, 0,0) ">
<use xlink:href="#Layer47_0_FILL"/>

<use xlink:href="#Layer47_0_1_STROKES"/>

<use xlink:href="#Layer47_0_2_STROKES"/>
</g>

<g transform="matrix( 1, 0, 0, 1, 0,0) ">
<use xlink:href="#Layer46_0_FILL"/>

<use xlink:href="#Layer46_0_1_STROKES"/>

<use xlink:href="#Layer46_0_2_STROKES"/>
</g>

<g transform="matrix( 1, 0, 0, 1, 0,0) ">
<use xlink:href="#Layer45_0_FILL"/>
</g>

<g transform="matrix( 1, 0, 0, 1, 0,0) ">
<use xlink:href="#Layer44_0_FILL"/>
</g>

<g transform="matrix( 1, 0, 0, 1, 0,0) ">
<use xlink:href="#Layer43_0_FILL"/>
</g>

<g transform="matrix( 1, 0, 0, 1, 0,0) ">
<use xlink:href="#Layer42_0_FILL"/>
</g>

<g transform="matrix( 1, 0, 0, 1, 0,0) ">
<use xlink:href="#Layer41_0_FILL"/>
</g>

<g transform="matrix( 1, 0, 0, 1, 0,0) ">
<use xlink:href="#Layer40_0_FILL"/>
</g>

<g transform="matrix( 1, 0, 0, 1, 0,0) ">
<use xlink:href="#Layer39_0_FILL"/>

<use xlink:href="#Layer39_0_1_STROKES"/>

<use xlink:href="#Layer39_0_2_STROKES"/>
</g>

<g transform="matrix( 1, 0, 0, 1, 0,0) ">
<use xlink:href="#Layer38_0_FILL"/>

<use xlink:href="#Layer38_0_1_STROKES"/>

<use xlink:href="#Layer38_0_2_STROKES"/>
</g>

<g transform="matrix( 1, 0, 0, 1, 0,0) ">
<use xlink:href="#Layer37_0_FILL"/>

<use xlink:href="#Layer37_0_1_STROKES"/>
</g>

<g transform="matrix( 1, 0, 0, 1, 0,0) ">
<use xlink:href="#Layer36_0_FILL"/>

<use xlink:href="#Layer36_0_1_STROKES"/>

<use xlink:href="#Layer36_0_2_STROKES"/>
</g>

<g transform="matrix( 1, 0, 0, 1, 0,0) ">
<use xlink:href="#Layer35_0_FILL"/>

<use xlink:href="#Layer35_0_1_STROKES"/>

<use xlink:href="#Layer35_0_2_STROKES"/>

<use xlink:href="#Layer35_0_3_STROKES"/>

<use xlink:href="#Layer35_0_4_STROKES"/>

<use xlink:href="#Layer35_0_5_STROKES"/>

<use xlink:href="#Layer35_0_6_STROKES"/>
</g>

<g transform="matrix( 1, 0, 0, 1, 0,0) ">
<use xlink:href="#Layer34_0_FILL"/>

<use xlink:href="#Layer34_0_1_STROKES"/>

<use xlink:href="#Layer34_0_2_STROKES"/>

<use xlink:href="#Layer34_0_3_STROKES"/>

<use xlink:href="#Layer34_0_4_STROKES"/>

<use xlink:href="#Layer34_0_5_STROKES"/>

<use xlink:href="#Layer34_0_6_STROKES"/>
</g>

<g transform="matrix( 1, 0, 0, 1, 0,0) ">
<use xlink:href="#Layer33_0_FILL"/>

<use xlink:href="#Layer33_0_1_STROKES"/>

<use xlink:href="#Layer33_0_2_STROKES"/>

<use xlink:href="#Layer33_0_3_STROKES"/>

<use xlink:href="#Layer33_0_4_STROKES"/>

<use xlink:href="#Layer33_0_5_STROKES"/>

<use xlink:href="#Layer33_0_6_STROKES"/>
</g>

<g transform="matrix( 1, 0, 0, 1, 0,0) ">
<use xlink:href="#Layer32_0_FILL"/>

<use xlink:href="#Layer32_0_1_STROKES"/>

<use xlink:href="#Layer32_0_2_STROKES"/>

<use xlink:href="#Layer32_0_3_STROKES"/>

<use xlink:href="#Layer32_0_4_STROKES"/>

<use xlink:href="#Layer32_0_5_STROKES"/>

<use xlink:href="#Layer32_0_6_STROKES"/>
</g>

<g transform="matrix( 1, 0, 0, 1, 0,0) ">
<use xlink:href="#Layer31_0_FILL"/>

<use xlink:href="#Layer31_0_1_STROKES"/>

<use xlink:href="#Layer31_0_2_STROKES"/>

<use xlink:href="#Layer31_0_3_STROKES"/>
</g>

<g transform="matrix( 1, 0, 0, 1, 0,0) ">
<use xlink:href="#Layer30_0_FILL"/>
</g>

<g transform="matrix( 1, 0, 0, 1, 0,0) ">
<use xlink:href="#Layer29_0_FILL"/>
</g>

<g transform="matrix( 1, 0, 0, 1, 0,0) ">
<use xlink:href="#Layer28_0_FILL"/>
</g>

<g transform="matrix( 1, 0, 0, 1, 0,0) ">
<use xlink:href="#Layer27_0_FILL"/>

<use xlink:href="#Layer27_0_1_STROKES"/>
</g>

<g transform="matrix( 1, 0, 0, 1, 0,0) ">
<use xlink:href="#Layer26_0_FILL"/>
</g>

<g transform="matrix( 1, 0, 0, 1, 0,0) ">
<use xlink:href="#Layer25_0_FILL"/>
</g>

<g transform="matrix( 1, 0, 0, 1, 0,0) ">
<use xlink:href="#Layer24_0_FILL"/>
</g>
</svg>
