<?xml version="1.0" encoding="UTF-8" standalone="no"?>
<svg
   version="1.1"
   preserveAspectRatio="none"
   x="0px"
   y="0px"
   width="700"
   height="500"
   viewBox="0 0 700 500.00001"
   id="svg169"
   sodipodi:docname="Xbox One.svg"
   inkscape:version="1.3 (0e150ed, 2023-07-21)"
   xmlns:inkscape="http://www.inkscape.org/namespaces/inkscape"
   xmlns:sodipodi="http://sodipodi.sourceforge.net/DTD/sodipodi-0.dtd"
   xmlns:xlink="http://www.w3.org/1999/xlink"
   xmlns="http://www.w3.org/2000/svg"
   xmlns:svg="http://www.w3.org/2000/svg">
  <sodipodi:namedview
     id="namedview169"
     pagecolor="#dedede"
     bordercolor="#000000"
     borderopacity="0.25"
     inkscape:showpageshadow="2"
     inkscape:pageopacity="0.0"
     inkscape:pagecheckerboard="0"
     inkscape:deskcolor="#d1d1d1"
     inkscape:zoom="0.97499122"
     inkscape:cx="320.51571"
     inkscape:cy="241.54064"
     inkscape:window-width="1536"
     inkscape:window-height="846"
     inkscape:window-x="1920"
     inkscape:window-y="403"
     inkscape:window-maximized="1"
     inkscape:current-layer="svg169" />
  <defs
     id="defs105">
    <linearGradient
       id="Gradient_1"
       gradientUnits="userSpaceOnUse"
       x1="51"
       y1="72.5"
       x2="51"
       y2="62"
       spreadMethod="pad">
      <stop
         offset="0%"
         stop-color="#D7D7D7"
         id="stop1" />
      <stop
         offset="100%"
         stop-color="#313131"
         id="stop2" />
    </linearGradient>
    <linearGradient
       id="Gradient_2"
       gradientUnits="userSpaceOnUse"
       x1="51"
       y1="57.512501"
       x2="51"
       y2="70.987503"
       spreadMethod="pad">
      <stop
         offset="0%"
         stop-color="#4F4F4F"
         id="stop3" />
      <stop
         offset="100%"
         stop-color="#F5F5F5"
         id="stop4" />
    </linearGradient>
    <linearGradient
       id="Gradient_3"
       gradientUnits="userSpaceOnUse"
       x1="50.5"
       y1="67.737503"
       x2="50.5"
       y2="59.762501"
       spreadMethod="pad">
      <stop
         offset="0%"
         stop-color="#FFFFFF"
         id="stop5" />
      <stop
         offset="100%"
         stop-color="#626262"
         id="stop6" />
    </linearGradient>
    <linearGradient
       id="Gradient_4"
       gradientUnits="userSpaceOnUse"
       x1="51"
       y1="79.487503"
       x2="51"
       y2="67.512497"
       spreadMethod="pad">
      <stop
         offset="0%"
         stop-color="#404040"
         id="stop7" />
      <stop
         offset="100%"
         stop-color="#1B1B1B"
         id="stop8" />
    </linearGradient>
    <linearGradient
       id="Gradient_5"
       gradientUnits="userSpaceOnUse"
       x1="27.5"
       y1="51"
       x2="38"
       y2="51"
       spreadMethod="pad">
      <stop
         offset="0%"
         stop-color="#D7D7D7"
         id="stop9" />
      <stop
         offset="100%"
         stop-color="#313131"
         id="stop10" />
    </linearGradient>
    <linearGradient
       id="Gradient_6"
       gradientUnits="userSpaceOnUse"
       x1="42.487499"
       y1="51"
       x2="29.012501"
       y2="51"
       spreadMethod="pad">
      <stop
         offset="0%"
         stop-color="#4F4F4F"
         id="stop11" />
      <stop
         offset="100%"
         stop-color="#F5F5F5"
         id="stop12" />
    </linearGradient>
    <linearGradient
       id="Gradient_7"
       gradientUnits="userSpaceOnUse"
       x1="32.262501"
       y1="50.5"
       x2="40.237499"
       y2="50.5"
       spreadMethod="pad">
      <stop
         offset="0%"
         stop-color="#FFFFFF"
         id="stop13" />
      <stop
         offset="100%"
         stop-color="#626262"
         id="stop14" />
    </linearGradient>
    <linearGradient
       id="Gradient_8"
       gradientUnits="userSpaceOnUse"
       x1="20.512501"
       y1="51"
       x2="32.487499"
       y2="51"
       spreadMethod="pad">
      <stop
         offset="0%"
         stop-color="#404040"
         id="stop15" />
      <stop
         offset="100%"
         stop-color="#1B1B1B"
         id="stop16" />
    </linearGradient>
    <linearGradient
       id="Gradient_9"
       gradientUnits="userSpaceOnUse"
       x1="49"
       y1="27.5"
       x2="49"
       y2="38"
       spreadMethod="pad">
      <stop
         offset="0%"
         stop-color="#D7D7D7"
         id="stop17" />
      <stop
         offset="100%"
         stop-color="#313131"
         id="stop18" />
    </linearGradient>
    <linearGradient
       id="Gradient_10"
       gradientUnits="userSpaceOnUse"
       x1="49"
       y1="42.487499"
       x2="49"
       y2="29.012501"
       spreadMethod="pad">
      <stop
         offset="0%"
         stop-color="#4F4F4F"
         id="stop19" />
      <stop
         offset="100%"
         stop-color="#F5F5F5"
         id="stop20" />
    </linearGradient>
    <linearGradient
       id="Gradient_11"
       gradientUnits="userSpaceOnUse"
       x1="49.5"
       y1="32.262501"
       x2="49.5"
       y2="40.237499"
       spreadMethod="pad">
      <stop
         offset="0%"
         stop-color="#FFFFFF"
         id="stop21" />
      <stop
         offset="100%"
         stop-color="#626262"
         id="stop22" />
    </linearGradient>
    <linearGradient
       id="Gradient_12"
       gradientUnits="userSpaceOnUse"
       x1="49"
       y1="20.512501"
       x2="49"
       y2="32.487499"
       spreadMethod="pad">
      <stop
         offset="0%"
         stop-color="#404040"
         id="stop23" />
      <stop
         offset="100%"
         stop-color="#1B1B1B"
         id="stop24" />
    </linearGradient>
    <linearGradient
       id="Gradient_13"
       gradientUnits="userSpaceOnUse"
       x1="72.5"
       y1="49"
       x2="62"
       y2="49"
       spreadMethod="pad">
      <stop
         offset="0%"
         stop-color="#D7D7D7"
         id="stop25" />
      <stop
         offset="100%"
         stop-color="#313131"
         id="stop26" />
    </linearGradient>
    <linearGradient
       id="Gradient_14"
       gradientUnits="userSpaceOnUse"
       x1="57.512501"
       y1="49"
       x2="70.987503"
       y2="49"
       spreadMethod="pad">
      <stop
         offset="0%"
         stop-color="#4F4F4F"
         id="stop27" />
      <stop
         offset="100%"
         stop-color="#F5F5F5"
         id="stop28" />
    </linearGradient>
    <linearGradient
       id="Gradient_15"
       gradientUnits="userSpaceOnUse"
       x1="67.737503"
       y1="49.5"
       x2="59.762501"
       y2="49.5"
       spreadMethod="pad">
      <stop
         offset="0%"
         stop-color="#FFFFFF"
         id="stop29" />
      <stop
         offset="100%"
         stop-color="#626262"
         id="stop30" />
    </linearGradient>
    <linearGradient
       id="Gradient_16"
       gradientUnits="userSpaceOnUse"
       x1="79.487503"
       y1="49"
       x2="67.512497"
       y2="49"
       spreadMethod="pad">
      <stop
         offset="0%"
         stop-color="#404040"
         id="stop31" />
      <stop
         offset="100%"
         stop-color="#1B1B1B"
         id="stop32" />
    </linearGradient>
    <radialGradient
       id="Gradient_17"
       gradientUnits="userSpaceOnUse"
       cx="0"
       cy="0"
       r="32.799999"
       fx="0"
       fy="0"
       gradientTransform="translate(50,50.05)"
       spreadMethod="pad">
      <stop
         offset="83.13725490196079%"
         stop-color="#6C6C6C"
         id="stop33" />
      <stop
         offset="97.6470588235294%"
         stop-color="#151515"
         id="stop34" />
    </radialGradient>
    <g
       id="Layer44_0_FILL">
      <path
         fill="#313131"
         stroke="none"
         d="M 90.4,72.35 V 55.95 Q 89.9,32.3 64.3,27.7 38.6,23.15 26.25,21.6 13.8,20 13.1,31.2 v 36.2 q 0.3,10.7 12.45,11.2 h 58.6 Q 89.5,78 90.4,72.35 M 82.95,54 82.85,71.15 H 45.9 q -5.45,0.05 -5.6,-4.8 V 40.3 q 0.4,-7.05 8.2,-6.65 7.15,-0.2 20.2,3.95 13.05,4.05 14.25,16.4 z"
         id="path34" />
      <path
         fill="#4f4f4f"
         stroke="none"
         d="M 82.85,71.15 82.95,54 Q 81.75,41.65 68.7,37.6 55.65,33.45 48.5,33.65 40.7,33.25 40.3,40.3 v 26.05 q 0.15,4.85 5.6,4.8 H 82.85 M 71.95,49.8 q 1.1,0.15 1.9,0.6 0.9,0.45 1.45,1.25 0.45,0.8 0.45,2.1 0,1.45 -0.75,2.35 -0.75,0.9 -2,1.25 v 0.05 q 0.8,0.2 1.45,0.45 0.65,0.4 1.1,0.9 0.5,0.5 0.75,1.25 0.3,0.65 0.3,1.45 0,1.3 -0.6,2.15 -0.55,0.9 -1.45,1.4 -0.85,0.55 -2,0.75 -1.05,0.2 -2.1,0.2 h -6.7 v -16.3 h 6.05 q 1.05,0 2.15,0.15 m -12.7,0.9 q 0.85,0.55 1.35,1.5 0.45,0.95 0.45,2.4 0,1.7 -0.85,2.85 -0.85,1.3 -2.6,1.55 l 4.1,6.85 H 57.4 L 54.05,59.4 H 52.3 v 6.45 H 48.7 V 49.7 h 6.25 q 1.3,0 2.35,0.2 1.15,0.2 1.95,0.8 m -2.1,2.85 Q 56.9,53.25 56.5,53 56.1,52.8 55.65,52.75 55.1,52.7 54.65,52.7 H 52.3 v 3.7 h 2.1 q 0.45,0 1,-0.05 0.55,-0.05 1,-0.25 0.45,-0.15 0.7,-0.55 0.25,-0.3 0.25,-1 0,-0.6 -0.2,-1 m 14.8,6 Q 71.5,59.4 71,59.25 70.5,59.2 70.05,59.2 h -2.7 v 3.7 h 3.2 q 0.45,0 0.85,-0.05 0.45,-0.1 0.8,-0.3 0.3,-0.25 0.5,-0.6 Q 73,61.55 73,61 73,60.45 72.65,60.1 72.4,59.7 71.95,59.55 m 0.05,-6 Q 71.75,53.25 71.4,53 71.1,52.85 70.65,52.8 70.2,52.7 69.8,52.7 h -2.45 v 3.45 h 2.6 q 0.4,0 0.8,-0.1 0.4,-0.05 0.7,-0.25 0.35,-0.25 0.55,-0.55 0.2,-0.4 0.2,-0.9 0,-0.45 -0.2,-0.8 z"
         id="path35" />
      <path
         fill="#999999"
         stroke="none"
         d="M 60.6,52.2 Q 60.1,51.25 59.25,50.7 58.45,50.1 57.3,49.9 56.25,49.7 54.95,49.7 H 48.7 v 16.15 h 3.6 V 59.4 h 1.75 l 3.35,6.45 h 4.3 L 57.6,59 q 1.75,-0.25 2.6,-1.55 0.85,-1.15 0.85,-2.85 0,-1.45 -0.45,-2.4 M 56.5,53 q 0.4,0.25 0.65,0.55 0.2,0.4 0.2,1 0,0.7 -0.25,1 -0.25,0.4 -0.7,0.55 -0.45,0.2 -1,0.25 -0.55,0.05 -1,0.05 h -2.1 v -3.7 h 2.35 q 0.45,0 1,0.05 0.45,0.05 0.85,0.25 m 17.35,-2.6 q -0.8,-0.45 -1.9,-0.6 -1.1,-0.15 -2.15,-0.15 h -6.05 v 16.3 h 6.7 q 1.05,0 2.1,-0.2 1.15,-0.2 2,-0.75 0.9,-0.5 1.45,-1.4 0.6,-0.85 0.6,-2.15 0,-0.8 -0.3,-1.45 -0.25,-0.75 -0.75,-1.25 -0.45,-0.5 -1.1,-0.9 Q 73.8,57.6 73,57.4 v -0.05 q 1.25,-0.35 2,-1.25 0.75,-0.9 0.75,-2.35 0,-1.3 -0.45,-2.1 -0.55,-0.8 -1.45,-1.25 M 71.4,53 q 0.35,0.25 0.6,0.55 0.2,0.35 0.2,0.8 0,0.5 -0.2,0.9 -0.2,0.3 -0.55,0.55 -0.3,0.2 -0.7,0.25 -0.4,0.1 -0.8,0.1 h -2.6 V 52.7 h 2.45 q 0.4,0 0.85,0.1 0.45,0.05 0.75,0.2 M 71,59.25 q 0.5,0.15 0.95,0.3 0.45,0.15 0.7,0.55 0.35,0.35 0.35,0.9 0,0.55 -0.3,0.95 -0.2,0.35 -0.5,0.6 -0.35,0.2 -0.8,0.3 -0.4,0.05 -0.85,0.05 h -3.2 v -3.7 h 2.7 q 0.45,0 0.95,0.05 z"
         id="path36" />
    </g>
    <g
       id="Layer43_0_FILL">
      <path
         fill="#313131"
         stroke="none"
         d="M 75.25,24.7 Q 64.85,14.3 50,14.3 35.2,14.3 24.75,24.7 14.3,35.15 14.3,50 14.3,64.8 24.75,75.25 35.2,85.7 50,85.7 64.85,85.7 75.25,75.25 85.7,64.8 85.7,50 85.7,35.15 75.25,24.7 M 50,22.8 q 11.3,0 19.25,7.95 Q 77.2,38.7 77.2,50 77.2,61.3 69.25,69.25 61.3,77.2 50,77.2 38.75,77.2 30.75,69.25 22.8,61.3 22.8,50 22.8,38.7 30.75,30.75 38.75,22.8 50,22.8 Z"
         id="path37" />
      <path
         fill="#4f4f4f"
         stroke="none"
         d="M 69.25,30.75 Q 61.3,22.8 50,22.8 38.75,22.8 30.75,30.75 22.8,38.7 22.8,50 q 0,11.3 7.95,19.25 8,7.95 19.25,7.95 11.3,0 19.25,-7.95 Q 77.2,61.3 77.2,50 77.2,38.7 69.25,30.75 m -6.1,10.7 h -26.2 26.2 m 0,8.8 h -26.2 26.2 m 0,8.8 h -26.2 z"
         id="path38" />
    </g>
    <g
       id="Layer42_0_FILL">
      <path
         fill="#313131"
         stroke="none"
         d="M 75.25,24.7 Q 64.85,14.3 50,14.3 35.2,14.3 24.75,24.7 14.3,35.15 14.3,50 14.3,64.8 24.75,75.25 35.2,85.7 50,85.7 64.85,85.7 75.25,75.25 85.7,64.8 85.7,50 85.7,35.15 75.25,24.7 M 50,22.8 q 11.3,0 19.25,7.95 Q 77.2,38.7 77.2,50 77.2,61.3 69.25,69.25 61.3,77.2 50,77.2 38.75,77.2 30.75,69.25 22.8,61.3 22.8,50 22.8,38.7 30.75,30.75 38.75,22.8 50,22.8 Z"
         id="path39" />
      <path
         fill="#4f4f4f"
         stroke="none"
         d="M 69.25,30.75 Q 61.3,22.8 50,22.8 38.75,22.8 30.75,30.75 22.8,38.7 22.8,50 q 0,11.3 7.95,19.25 8,7.95 19.25,7.95 11.3,0 19.25,-7.95 Q 77.2,61.3 77.2,50 77.2,38.7 69.25,30.75 M 57.55,47 H 65 V 61.4 H 42.95 V 54.15 H 35.5 V 39.75 H 57.55 V 47 m 0,0 h -14.6 v 7.15 7.25 H 65 V 47 h -7.45 m -14.6,0 h 14.6 V 39.75 H 35.5 v 14.4 h 7.45 z"
         id="path40" />
    </g>
    <g
       id="Layer41_0_FILL">
      <path
         fill="url(#Gradient_1)"
         stroke="none"
         d="M 92.85,40.2 Q 92.25,35.85 87.5,34.85 H 65.15 V 12.5 Q 64.15,7.75 59.8,7.15 H 40.2 q -4.25,0.7 -5.35,5.35 V 34.85 H 12.5 q -4.75,1 -5.35,5.35 v 19.6 q 0.7,4.25 5.35,5.35 H 34.85 V 87.5 q 1.1,4.65 5.35,5.35 h 19.6 q 4.35,-0.6 5.35,-5.35 V 65.15 H 87.5 q 4.65,-1.1 5.35,-5.35 V 40.2 m -7.5,2.15 v 15.3 h -20.2 q -3.1,0 -5.3,2.2 -2.2,2.2 -2.2,5.3 v 20.2 h -15.3 v -20.2 q 0,-3.1 -2.2,-5.3 -2.2,-2.2 -5.3,-2.2 h -20.2 v -15.3 h 20.2 q 3.1,0 5.3,-2.2 2.2,-2.2 2.2,-5.3 v -20.2 h 15.3 v 20.2 q 0,3.1 2.2,5.3 2.2,2.2 5.3,2.2 z"
         id="path41" />
      <path
         fill="url(#Gradient_2)"
         stroke="none"
         d="m 85.35,57.65 v -15.3 h -20.2 q -3.1,0 -5.3,-2.2 -2.2,-2.2 -2.2,-5.3 v -20.2 h -15.3 v 20.2 q 0,3.1 -2.2,5.3 -2.2,2.2 -5.3,2.2 h -20.2 v 15.3 h 20.2 q 3.1,0 5.3,2.2 2.2,2.2 2.2,5.3 v 20.2 h 15.3 v -20.2 q 0,-3.1 2.2,-5.3 2.2,-2.2 5.3,-2.2 z"
         id="path42" />
    </g>
    <g
       id="Layer40_0_FILL">
      <path
         fill="url(#Gradient_5)"
         stroke="none"
         d="M 92.85,40.2 Q 92.15,35.95 87.5,34.85 H 65.15 V 12.5 Q 64.15,7.75 59.8,7.15 H 40.2 q -4.25,0.7 -5.35,5.35 V 34.85 H 12.5 q -4.65,1.1 -5.35,5.35 v 19.6 q 0.6,4.35 5.35,5.35 H 34.85 V 87.5 q 1.1,4.65 5.35,5.35 h 19.6 q 4.35,-0.6 5.35,-5.35 V 65.15 H 87.5 q 4.75,-1 5.35,-5.35 V 40.2 m -7.5,2.15 v 15.3 h -20.2 q -3.1,0 -5.3,2.2 -2.2,2.2 -2.2,5.3 v 20.2 h -15.3 v -20.2 q 0,-3.1 -2.2,-5.3 -2.2,-2.2 -5.3,-2.2 h -20.2 v -15.3 h 20.2 q 3.1,0 5.3,-2.2 2.2,-2.2 2.2,-5.3 v -20.2 h 15.3 v 20.2 q 0,3.1 2.2,5.3 2.2,2.2 5.3,2.2 z"
         id="path43" />
      <path
         fill="url(#Gradient_6)"
         stroke="none"
         d="m 85.35,57.65 v -15.3 h -20.2 q -3.1,0 -5.3,-2.2 -2.2,-2.2 -2.2,-5.3 v -20.2 h -15.3 v 20.2 q 0,3.1 -2.2,5.3 -2.2,2.2 -5.3,2.2 h -20.2 v 15.3 h 20.2 q 3.1,0 5.3,2.2 2.2,2.2 2.2,5.3 v 20.2 h 15.3 v -20.2 q 0,-3.1 2.2,-5.3 2.2,-2.2 5.3,-2.2 z"
         id="path44" />
    </g>
    <g
       id="Layer39_0_FILL">
      <path
         fill="url(#Gradient_9)"
         stroke="none"
         d="M 92.85,40.2 Q 92.15,35.95 87.5,34.85 H 65.15 V 12.5 Q 64.05,7.85 59.8,7.15 H 40.2 q -4.35,0.6 -5.35,5.35 V 34.85 H 12.5 q -4.65,1.1 -5.35,5.35 v 19.6 q 0.6,4.35 5.35,5.35 H 34.85 V 87.5 q 1,4.75 5.35,5.35 h 19.6 q 4.25,-0.7 5.35,-5.35 V 65.15 H 87.5 q 4.75,-1 5.35,-5.35 V 40.2 m -7.5,2.15 v 15.3 h -20.2 q -3.1,0 -5.3,2.2 -2.2,2.2 -2.2,5.3 v 20.2 h -15.3 v -20.2 q 0,-3.1 -2.2,-5.3 -2.2,-2.2 -5.3,-2.2 h -20.2 v -15.3 h 20.2 q 3.1,0 5.3,-2.2 2.2,-2.2 2.2,-5.3 v -20.2 h 15.3 v 20.2 q 0,3.1 2.2,5.3 2.2,2.2 5.3,2.2 z"
         id="path45" />
      <path
         fill="url(#Gradient_10)"
         stroke="none"
         d="m 85.35,57.65 v -15.3 h -20.2 q -3.1,0 -5.3,-2.2 -2.2,-2.2 -2.2,-5.3 v -20.2 h -15.3 v 20.2 q 0,3.1 -2.2,5.3 -2.2,2.2 -5.3,2.2 h -20.2 v 15.3 h 20.2 q 3.1,0 5.3,2.2 2.2,2.2 2.2,5.3 v 20.2 h 15.3 v -20.2 q 0,-3.1 2.2,-5.3 2.2,-2.2 5.3,-2.2 z"
         id="path46" />
    </g>
    <g
       id="Layer38_0_FILL">
      <path
         fill="url(#Gradient_13)"
         stroke="none"
         d="M 92.85,40.2 Q 92.25,35.85 87.5,34.85 H 65.15 V 12.5 Q 64.05,7.85 59.8,7.15 H 40.2 q -4.35,0.6 -5.35,5.35 V 34.85 H 12.5 q -4.75,1 -5.35,5.35 v 19.6 q 0.7,4.25 5.35,5.35 H 34.85 V 87.5 q 1,4.75 5.35,5.35 h 19.6 q 4.25,-0.7 5.35,-5.35 V 65.15 H 87.5 q 4.65,-1.1 5.35,-5.35 V 40.2 m -7.5,2.15 v 15.3 h -20.2 q -3.105078,0.0016 -5.3,2.2 -2.198438,2.194922 -2.2,5.3 v 20.2 h -15.3 v -20.2 q -0.0018,-3.105078 -2.2,-5.3 -2.195117,-2.198438 -5.3,-2.2 h -20.2 v -15.3 h 20.2 q 3.104883,-0.0018 5.3,-2.2 2.198242,-2.195117 2.2,-5.3 v -20.2 h 15.3 v 20.2 q 0.0016,3.104883 2.2,5.3 2.194922,2.198242 5.3,2.2 z"
         id="path47" />
      <path
         fill="url(#Gradient_14)"
         stroke="none"
         d="m 85.35,57.65 v -15.3 h -20.2 q -3.105078,-0.0018 -5.3,-2.2 -2.198438,-2.195117 -2.2,-5.3 v -20.2 h -15.3 v 20.2 q -0.0018,3.104883 -2.2,5.3 -2.195117,2.198242 -5.3,2.2 h -20.2 v 15.3 h 20.2 q 3.104883,0.0016 5.3,2.2 2.198242,2.194922 2.2,5.3 v 20.2 h 15.3 v -20.2 q 0.0016,-3.105078 2.2,-5.3 2.194922,-2.198438 5.3,-2.2 z"
         id="path48" />
    </g>
    <g
       id="Layer37_0_FILL">
      <path
         fill="#313131"
         stroke="none"
         d="M 92.85,40.2 Q 92.25,35.85 87.5,34.85 H 65.15 V 12.5 Q 64.05,7.85 59.8,7.15 H 40.2 q -4.35,0.6 -5.35,5.35 V 34.85 H 12.5 q -4.75,1 -5.35,5.35 v 19.6 q 0.7,4.25 5.35,5.35 H 34.85 V 87.5 q 1,4.75 5.35,5.35 h 19.6 q 4.25,-0.7 5.35,-5.35 V 65.15 H 87.5 q 4.65,-1.1 5.35,-5.35 V 40.2 m -7.5,2.15 v 15.3 h -20.2 q -3.105078,0.0016 -5.3,2.2 -2.198438,2.194922 -2.2,5.3 v 20.2 h -15.3 v -20.2 q -0.0018,-3.105078 -2.2,-5.3 -2.195117,-2.198438 -5.3,-2.2 h -20.2 v -15.3 h 20.2 q 3.104883,-0.0018 5.3,-2.2 2.198242,-2.195117 2.2,-5.3 v -20.2 h 15.3 v 20.2 q 0.0016,3.104883 2.2,5.3 2.194922,2.198242 5.3,2.2 z"
         id="path49" />
      <path
         fill="#4f4f4f"
         stroke="none"
         d="m 85.35,57.65 v -15.3 h -20.2 q -3.105078,-0.0018 -5.3,-2.2 -2.198438,-2.195117 -2.2,-5.3 v -20.2 h -15.3 v 20.2 q -0.0018,3.104883 -2.2,5.3 -2.195117,2.198242 -5.3,2.2 h -20.2 v 15.3 h 20.2 q 3.104883,0.0016 5.3,2.2 2.198242,2.194922 2.2,5.3 v 20.2 h 15.3 v -20.2 q 0.0016,-3.105078 2.2,-5.3 2.194922,-2.198438 5.3,-2.2 z"
         id="path50" />
    </g>
    <g
       id="Layer36_0_FILL">
      <path
         fill="#313131"
         stroke="none"
         d="M 90.4,67.4 V 31.2 Q 89.7,20 77.25,21.6 64.9,23.15 39.2,27.7 13.6,32.3 13.1,55.95 v 16.4 Q 14,78 19.35,78.6 h 58.6 Q 90.1,78.1 90.4,67.4 M 55,33.65 q 7.8,-0.4 8.2,6.65 v 26.05 q -0.15,4.85 -5.6,4.8 H 20.65 L 20.55,54 Q 21.75,41.65 34.8,37.6 47.85,33.45 55,33.65 Z"
         id="path51" />
      <path
         fill="#4f4f4f"
         stroke="none"
         d="M 63.2,40.3 Q 62.8,33.25 55,33.65 47.85,33.45 34.8,37.6 21.75,41.65 20.55,54 l 0.1,17.15 H 57.6 q 5.45,0.05 5.6,-4.8 V 40.3 m -29.85,9.4 v 13 H 40 v 3.25 H 29.8 V 49.7 h 3.55 m 19,0.7 q 0.9,0.45 1.45,1.25 0.45,0.8 0.45,2.1 0,1.45 -0.75,2.35 -0.75,0.9 -2,1.25 v 0.05 q 0.8,0.2 1.45,0.45 0.65,0.4 1.1,0.9 0.5,0.5 0.75,1.25 0.3,0.65 0.3,1.45 0,1.3 -0.6,2.15 -0.55,0.9 -1.45,1.4 -0.85,0.55 -2,0.75 -1.05,0.2 -2.1,0.2 h -6.7 v -16.3 h 6.05 q 1.05,0 2.15,0.15 1.1,0.15 1.9,0.6 m -4.05,2.3 h -2.45 v 3.45 h 2.6 q 0.4,0 0.8,-0.1 0.4,-0.05 0.7,-0.25 0.35,-0.25 0.55,-0.55 0.2,-0.4 0.2,-0.9 0,-0.45 -0.2,-0.8 Q 50.25,53.25 49.9,53 49.6,52.85 49.15,52.8 48.7,52.7 48.3,52.7 m 3.2,8.3 q 0,-0.55 -0.35,-0.9 Q 50.9,59.7 50.45,59.55 50,59.4 49.5,59.25 49,59.2 48.55,59.2 h -2.7 v 3.7 h 3.2 q 0.45,0 0.85,-0.05 0.45,-0.1 0.8,-0.3 0.3,-0.25 0.5,-0.6 0.3,-0.4 0.3,-0.95 z"
         id="path52" />
      <path
         fill="#999999"
         stroke="none"
         d="m 53.8,51.65 q -0.55,-0.8 -1.45,-1.25 -0.8,-0.45 -1.9,-0.6 -1.1,-0.15 -2.15,-0.15 h -6.05 v 16.3 h 6.7 q 1.05,0 2.1,-0.2 1.15,-0.2 2,-0.75 0.9,-0.5 1.45,-1.4 0.6,-0.85 0.6,-2.15 0,-0.8 -0.3,-1.45 -0.25,-0.75 -0.75,-1.25 -0.45,-0.5 -1.1,-0.9 Q 52.3,57.6 51.5,57.4 v -0.05 q 1.25,-0.35 2,-1.25 0.75,-0.9 0.75,-2.35 0,-1.3 -0.45,-2.1 m -2.65,8.45 q 0.35,0.35 0.35,0.9 0,0.55 -0.3,0.95 -0.2,0.35 -0.5,0.6 -0.35,0.2 -0.8,0.3 -0.4,0.05 -0.85,0.05 h -3.2 v -3.7 h 2.7 q 0.45,0 0.95,0.05 0.5,0.15 0.95,0.3 0.45,0.15 0.7,0.55 m -5.3,-7.4 h 2.45 q 0.4,0 0.85,0.1 0.45,0.05 0.75,0.2 0.35,0.25 0.6,0.55 0.2,0.35 0.2,0.8 0,0.5 -0.2,0.9 -0.2,0.3 -0.55,0.55 -0.3,0.2 -0.7,0.25 -0.4,0.1 -0.8,0.1 h -2.6 V 52.7 m -12.5,10 v -13 H 29.8 V 65.95 H 40 V 62.7 Z"
         id="path53" />
    </g>
    <g
       id="Layer35_0_FILL">
      <path
         fill="#313131"
         stroke="none"
         d="M 84.15,78.6 Q 89.5,78 90.4,72.35 V 55.95 Q 89.9,32.3 64.3,27.7 38.6,23.15 26.25,21.6 13.8,20 13.1,31.2 v 36.2 q 0.3,10.7 12.45,11.2 h 58.6 M 82.95,54 82.85,71.15 H 45.9 q -5.45,0.05 -5.6,-4.8 V 40.3 q 0.4,-7.05 8.2,-6.65 7.15,-0.2 20.2,3.95 13.05,4.05 14.25,16.4 z"
         id="path54" />
      <path
         fill="#4f4f4f"
         stroke="none"
         d="M 82.85,71.15 82.95,54 Q 81.75,41.65 68.7,37.6 55.65,33.45 48.5,33.65 40.7,33.25 40.3,40.3 v 26.05 q 0.15,4.85 5.6,4.8 H 82.85 M 71.95,49.8 q 1.1,0.15 1.9,0.6 0.9,0.45 1.45,1.25 0.45,0.8 0.45,2.1 0,1.45 -0.75,2.35 -0.75,0.9 -2,1.25 v 0.05 q 0.8,0.2 1.45,0.45 0.65,0.4 1.1,0.9 0.5,0.5 0.75,1.25 0.3,0.65 0.3,1.45 0,1.3 -0.6,2.15 -0.55,0.9 -1.45,1.4 -0.85,0.55 -2,0.75 -1.05,0.2 -2.1,0.2 h -6.7 v -16.3 h 6.05 q 1.05,0 2.15,0.15 m -12.7,0.9 q 0.85,0.55 1.35,1.5 0.45,0.95 0.45,2.4 0,1.7 -0.85,2.85 -0.85,1.3 -2.6,1.55 l 4.1,6.85 H 57.4 L 54.05,59.4 H 52.3 v 6.45 H 48.7 V 49.7 h 6.25 q 1.3,0 2.35,0.2 1.15,0.2 1.95,0.8 m -2.1,2.85 Q 56.9,53.25 56.5,53 56.1,52.8 55.65,52.75 55.1,52.7 54.65,52.7 H 52.3 v 3.7 h 2.1 q 0.45,0 1,-0.05 0.55,-0.05 1,-0.25 0.45,-0.15 0.7,-0.55 0.25,-0.3 0.25,-1 0,-0.6 -0.2,-1 m 14.8,6 Q 71.5,59.4 71,59.25 70.5,59.2 70.05,59.2 h -2.7 v 3.7 h 3.2 q 0.45,0 0.85,-0.05 0.45,-0.1 0.8,-0.3 0.3,-0.25 0.5,-0.6 Q 73,61.55 73,61 73,60.45 72.65,60.1 72.4,59.7 71.95,59.55 M 72,55.25 q 0.2,-0.4 0.2,-0.9 0,-0.45 -0.2,-0.8 Q 71.75,53.25 71.4,53 71.1,52.85 70.65,52.8 70.2,52.7 69.8,52.7 h -2.45 v 3.45 h 2.6 q 0.4,0 0.8,-0.1 0.4,-0.05 0.7,-0.25 0.35,-0.25 0.55,-0.55 z"
         id="path55" />
      <path
         fill="#999999"
         stroke="none"
         d="M 60.6,52.2 Q 60.1,51.25 59.25,50.7 58.45,50.1 57.3,49.9 56.25,49.7 54.95,49.7 H 48.7 v 16.15 h 3.6 V 59.4 h 1.75 l 3.35,6.45 h 4.3 L 57.6,59 q 1.75,-0.25 2.6,-1.55 0.85,-1.15 0.85,-2.85 0,-1.45 -0.45,-2.4 M 56.5,53 q 0.4,0.25 0.65,0.55 0.2,0.4 0.2,1 0,0.7 -0.25,1 -0.25,0.4 -0.7,0.55 -0.45,0.2 -1,0.25 -0.55,0.05 -1,0.05 h -2.1 v -3.7 h 2.35 q 0.45,0 1,0.05 0.45,0.05 0.85,0.25 m 17.35,-2.6 q -0.8,-0.45 -1.9,-0.6 -1.1,-0.15 -2.15,-0.15 h -6.05 v 16.3 h 6.7 q 1.05,0 2.1,-0.2 1.15,-0.2 2,-0.75 0.9,-0.5 1.45,-1.4 0.6,-0.85 0.6,-2.15 0,-0.8 -0.3,-1.45 -0.25,-0.75 -0.75,-1.25 -0.45,-0.5 -1.1,-0.9 Q 73.8,57.6 73,57.4 v -0.05 q 1.25,-0.35 2,-1.25 0.75,-0.9 0.75,-2.35 0,-1.3 -0.45,-2.1 -0.55,-0.8 -1.45,-1.25 m -1.65,3.95 q 0,0.5 -0.2,0.9 -0.2,0.3 -0.55,0.55 -0.3,0.2 -0.7,0.25 -0.4,0.1 -0.8,0.1 h -2.6 V 52.7 h 2.45 q 0.4,0 0.85,0.1 0.45,0.05 0.75,0.2 0.35,0.25 0.6,0.55 0.2,0.35 0.2,0.8 m -1.2,4.9 q 0.5,0.15 0.95,0.3 0.45,0.15 0.7,0.55 0.35,0.35 0.35,0.9 0,0.55 -0.3,0.95 -0.2,0.35 -0.5,0.6 -0.35,0.2 -0.8,0.3 -0.4,0.05 -0.85,0.05 h -3.2 v -3.7 h 2.7 q 0.45,0 0.95,0.05 z"
         id="path56" />
    </g>
    <g
       id="Layer34_0_FILL">
      <path
         fill="#313131"
         stroke="none"
         d="m 84.25,37.15 v -6.4 Q 83.35,14.35 66.3,12.3 H 23.05 q -7.861523,2.350977 -6.95,14 3.55,21.25 0,44.3 -1.2,6.85 3.9,13.85 5.1,4.7 13.15,5.95 10.402148,1.635547 18.6,-1.75 8.1,-3.65 11.55,-12.05 0.45,-1.05 0.95,-2.1 5.073047,-9.650781 11.25,-13.4 6.218945,-3.70293 7.2,-8.05 0.01699,-0.075 0,-0.15 1.05,-4 1.35,-8.2 0.3,-3.65 0.2,-7.55 m -23.65,2.7 q -0.4,3.35 -1.05,6.7 -0.65,3.35 -1.5,6.65 -1.15,4.55 -2.9,9 -1.75,4.35 -4.25,8.35 -1.75,2.8 -3.65,5.5 -1.5,2.15 -3.15,4.15 -1.65,1.95 -4.15,2.65 -2.2,0.75 -4.5,0.9 -4.5,0.3 -8.4,-2.05 -4.6,-2.75 -4.5,-8.05 0.1,-3.4 0.6,-6.75 0.5,-3.6 0.8,-7.2 0.3,-3.8 0.45,-7.6 0.15,-4 0.1,-8 0,-2.55 -0.25,-5.05 -0.45,-4.9 -1.05,-9.8 -0.35,-2.8 -0.65,-5.65 -0.2,-1.6 0.75,-3.05 0.75,-1.05 3.2,-1.85 h 29.9 q 3.945312,0.921875 4.65,2.7 0.703516,1.783594 0.45,4.6 -0.201172,2.805469 -0.35,7 -0.1,3.4 -0.55,6.85 z"
         id="path57" />
      <path
         fill="#4f4f4f"
         stroke="none"
         d="M 59.55,46.55 Q 60.2,43.2 60.6,39.85 61.05,36.4 61.15,33 61.298828,28.805469 61.5,26 61.753516,23.183594 61.05,21.4 60.345312,19.621875 56.4,18.7 H 26.5 q -2.45,0.8 -3.2,1.85 -0.95,1.45 -0.75,3.05 0.3,2.85 0.65,5.65 0.6,4.9 1.05,9.8 0.25,2.5 0.25,5.05 0.05,4 -0.1,8 -0.15,3.8 -0.45,7.6 -0.3,3.6 -0.8,7.2 -0.5,3.35 -0.6,6.75 -0.1,5.3 4.5,8.05 3.9,2.35 8.4,2.05 2.3,-0.15 4.5,-0.9 2.5,-0.7 4.15,-2.65 1.65,-2 3.15,-4.15 1.9,-2.7 3.65,-5.5 2.5,-4 4.25,-8.35 1.75,-4.45 2.9,-9 0.85,-3.3 1.5,-6.65 M 53.85,25.5 v 2.9 H 49.6 V 40.35 H 46.35 V 28.4 H 42.1 V 25.5 H 53.85 M 41.6,37.35 v 3 H 32.25 V 25.5 h 3.25 v 11.85 z"
         id="path58" />
      <path
         fill="#999999"
         stroke="none"
         d="m 41.6,40.35 v -3 H 35.5 V 25.5 H 32.25 V 40.35 H 41.6 M 53.85,28.4 V 25.5 H 42.1 v 2.9 h 4.25 V 40.35 H 49.6 V 28.4 Z"
         id="path59" />
    </g>
    <g
       id="Layer33_0_FILL">
      <path
         fill="#313131"
         stroke="none"
         d="M 84,70.6 Q 80.45,47.55 84,26.3 84.9,14.65 77.05,12.3 H 33.8 Q 16.75,14.35 15.85,30.75 v 6.4 q -0.1,3.9 0.2,7.55 0.3,4.2 1.3,8.2 0.05,0.1 0.05,0.15 1,4.35 7.15,8.1 6.25,3.7 11.3,13.35 0.5,1.05 0.95,2.1 3.45,8.4 11.55,12.1 8.2,3.35 18.6,1.7 Q 75,89.15 80.1,84.45 85.2,77.45 84,70.6 M 76.8,20.55 q 0.95,1.45 0.75,3.05 -0.3,2.85 -0.65,5.65 -0.6,4.9 -1.05,9.8 -0.25,2.5 -0.25,5.05 -0.05,4 0.1,8 0.15,3.8 0.45,7.6 0.3,3.6 0.8,7.2 0.5,3.35 0.6,6.75 0.1,5.3 -4.5,8.05 -3.9,2.35 -8.4,2.05 -2.3,-0.15 -4.5,-0.9 -2.5,-0.7 -4.15,-2.65 -1.65,-2 -3.15,-4.15 -1.9,-2.7 -3.65,-5.5 -2.5,-4 -4.25,-8.35 -1.75,-4.45 -2.9,-9 Q 41.2,49.9 40.55,46.55 39.9,43.2 39.5,39.85 39.05,36.4 38.95,33 q -0.15,-4.2 -0.4,-7 -0.2,-2.8 0.5,-4.6 0.7,-1.8 4.65,-2.7 h 29.9 q 2.45,0.8 3.2,1.85 z"
         id="path60" />
      <path
         fill="#4f4f4f"
         stroke="none"
         d="M 77.55,23.6 Q 77.75,22 76.8,20.55 76.05,19.5 73.6,18.7 H 43.7 q -3.95,0.9 -4.65,2.7 -0.7,1.8 -0.5,4.6 0.25,2.8 0.4,7 0.1,3.4 0.55,6.85 0.4,3.35 1.05,6.7 0.65,3.35 1.5,6.65 1.15,4.55 2.9,9 1.75,4.35 4.25,8.35 1.75,2.8 3.65,5.5 1.5,2.15 3.15,4.15 1.65,1.95 4.15,2.65 2.2,0.75 4.5,0.9 4.5,0.3 8.4,-2.05 4.6,-2.75 4.5,-8.05 -0.1,-3.4 -0.6,-6.75 -0.5,-3.6 -0.8,-7.2 -0.3,-3.8 -0.45,-7.6 -0.15,-4 -0.1,-8 0,-2.55 0.25,-5.05 0.45,-4.9 1.05,-9.8 0.35,-2.8 0.65,-5.65 m -19.4,4.2 q 0.45,0.9 0.45,2.2 0,1.55 -0.8,2.65 -0.8,1.15 -2.4,1.4 l 3.8,6.3 h -3.95 l -3.1,-5.95 h -1.6 v 5.95 h -3.3 V 25.5 H 53 q 1.15,0 2.15,0.2 1.05,0.2 1.8,0.75 0.75,0.5 1.2,1.35 m 0.95,0.6 v -2.9 h 11.75 v 2.9 H 66.6 V 40.35 H 63.35 V 28.4 H 59.1 m -5.5,-0.1 q -0.5,-0.05 -0.9,-0.05 h -2.15 v 3.4 h 1.9 q 0.45,0 0.95,-0.05 0.5,-0.05 0.9,-0.2 0.4,-0.15 0.65,-0.5 0.25,-0.3 0.25,-0.95 0,-0.55 -0.2,-0.9 -0.25,-0.3 -0.6,-0.5 -0.35,-0.2 -0.8,-0.25 z"
         id="path61" />
      <path
         fill="#999999"
         stroke="none"
         d="m 59.1,25.5 v 2.9 h 4.25 V 40.35 H 66.6 V 28.4 h 4.25 V 25.5 H 59.1 M 58.6,30 q 0,-1.3 -0.45,-2.2 -0.45,-0.85 -1.2,-1.35 -0.75,-0.55 -1.8,-0.75 -1,-0.2 -2.15,-0.2 h -5.75 v 14.85 h 3.3 V 34.4 h 1.6 l 3.1,5.95 h 3.95 l -3.8,-6.3 q 1.6,-0.25 2.4,-1.4 0.8,-1.1 0.8,-2.65 m -5.9,-1.75 q 0.4,0 0.9,0.05 0.45,0.05 0.8,0.25 0.35,0.2 0.6,0.5 0.2,0.35 0.2,0.9 0,0.65 -0.25,0.95 -0.25,0.35 -0.65,0.5 -0.4,0.15 -0.9,0.2 -0.5,0.05 -0.95,0.05 h -1.9 v -3.4 z"
         id="path62" />
    </g>
    <g
       id="Layer32_0_FILL">
      <path
         fill="#ffffff"
         stroke="none"
         d="M 50.1,17.15 60.6,6.65 h -21 z"
         id="path63" />
      <path
         fill="#272727"
         stroke="none"
         d="M 36.15,81.05 Q 30.55,79.1 30.7,76.3 v -7.5 q -1.1,0.4 -2.15,0.85 -8.9,3.9 -8.9,9.45 0,5.55 8.9,9.4 8.9,3.9 21.45,3.9 12.55,0 21.45,-3.9 8.9,-3.85 8.9,-9.4 0,-5.55 -8.9,-9.45 Q 71.4,69.6 71.3,69.6 70.35,69.2 69.35,68.85 v 7.45 q 0,2.8 -5.65,4.75 -5.7,2 -13.75,2 -8.05,0 -13.8,-2 z"
         id="path64" />
      <path
         fill="#555555"
         stroke="none"
         d="M 90.35,37.55 Q 88.9,32.75 85.75,30.65 83.2,28.75 76.9,27.3 76,27.1 75.1,26.9 64.45,24.7 50,24.7 q -15.7,0 -26.8,2.6 -8.5,1.95 -10.4,4.6 -2.05,2.1 -3.1,5.65 -2.05,8.1 6.75,12.25 4.95,2.25 9.05,3.25 5.05,1.95 5.2,7.5 v 8.25 7.5 q -0.15,2.8 5.45,4.75 5.75,2 13.8,2 8.05,0 13.75,-2 5.65,-1.95 5.65,-4.75 v -7.45 -8.3 q 0.15,-5.55 5.2,-7.5 4.1,-1 9.05,-3.25 8.8,-4.15 6.75,-12.25 M 81.7,35.3 v 0.2 q 0,2.8 -9.25,4.75 -9.35,2 -22.55,2 -13.15,0 -22.55,-2 -9.2,-1.95 -8.95,-4.75 -0.05,-0.4 0.1,-0.75 0.9,-2.3 8.85,-4 9.4,-2 22.55,-2 13.2,0 22.55,2 8,1.7 9.1,4 0.05,0.15 0.1,0.3 0.05,0.1 0.05,0.25 M 56.75,51.8 q 1.2,0.75 1.85,2.05 0.7,1.3 0.7,3.3 0,2.35 -1.25,4 -1.25,1.65 -3.55,2.05 l 5.65,9.45 h -5.9 l -4.65,-8.9 h -2.4 v 8.9 h -4.9 v -22.3 h 8.6 q 1.7,0 3.2,0.35 1.55,0.35 2.65,1.1 m -3.8,3.2 q -0.55,-0.3 -1.2,-0.4 -0.7,-0.05 -1.35,-0.05 h -3.2 v 5 h 2.85 q 0.7,0 1.4,-0.05 0.75,0 1.35,-0.25 0.6,-0.2 1,-0.7 0.35,-0.5 0.35,-1.45 0,-0.85 -0.3,-1.35 -0.35,-0.5 -0.9,-0.75 z"
         id="path65" />
      <path
         fill="#8c8c8c"
         stroke="none"
         d="m 58.6,53.85 q -0.65,-1.3 -1.85,-2.05 -1.1,-0.75 -2.65,-1.1 -1.5,-0.35 -3.2,-0.35 h -8.6 v 22.3 h 4.9 v -8.9 h 2.4 l 4.65,8.9 h 5.9 L 54.5,63.2 q 2.3,-0.4 3.55,-2.05 1.25,-1.65 1.25,-4 0,-2 -0.7,-3.3 m -6.85,0.75 q 0.65,0.1 1.2,0.4 0.55,0.25 0.9,0.75 0.3,0.5 0.3,1.35 0,0.95 -0.35,1.45 -0.4,0.5 -1,0.7 -0.6,0.25 -1.35,0.25 -0.7,0.05 -1.4,0.05 H 47.2 v -5 h 3.2 q 0.65,0 1.35,0.05 z"
         id="path66" />
      <path
         fill="#3f3f3f"
         stroke="none"
         d="m 81.7,35.5 v -0.2 q 0,-0.15 -0.05,-0.25 -0.05,-0.15 -0.1,-0.3 -1.1,-2.3 -9.1,-4 -9.35,-2 -22.55,-2 -13.15,0 -22.55,2 -7.95,1.7 -8.85,4 -0.15,0.35 -0.1,0.75 -0.25,2.8 8.95,4.75 9.4,2 22.55,2 13.2,0 22.55,-2 9.25,-1.95 9.25,-4.75 z"
         id="path67" />
    </g>
    <g
       id="Layer31_0_FILL">
      <path
         fill="#ffffff"
         stroke="none"
         d="M 50.1,17.15 60.6,6.65 h -21 z"
         id="path68" />
      <path
         fill="#272727"
         stroke="none"
         d="m 30.7,76.3 v -7.5 q -1.1,0.4 -2.15,0.85 -8.9,3.9 -8.9,9.45 0,5.55 8.9,9.4 8.9,3.9 21.45,3.9 12.55,0 21.45,-3.9 8.9,-3.85 8.9,-9.4 0,-5.55 -8.9,-9.45 Q 71.4,69.6 71.3,69.6 70.35,69.2 69.35,68.85 v 7.45 q 0,2.8 -5.65,4.75 -5.7,2 -13.75,2 -8.05,0 -13.8,-2 -5.6,-1.95 -5.45,-4.75 z"
         id="path69" />
      <path
         fill="#555555"
         stroke="none"
         d="M 90.35,37.55 Q 88.9,32.75 85.75,30.65 83.2,28.75 76.9,27.3 76,27.1 75.1,26.9 64.45,24.7 50,24.7 q -15.7,0 -26.8,2.6 -8.5,1.95 -10.4,4.6 -2.05,2.1 -3.1,5.65 -2.05,8.1 6.75,12.25 4.95,2.25 9.05,3.25 5.05,1.95 5.2,7.5 v 8.25 7.5 q -0.15,2.8 5.45,4.75 5.75,2 13.8,2 8.05,0 13.75,-2 5.65,-1.95 5.65,-4.75 v -7.45 -8.3 q 0.15,-5.55 5.2,-7.5 4.1,-1 9.05,-3.25 8.8,-4.15 6.75,-12.25 M 81.7,35.3 v 0.2 q 0,2.8 -9.25,4.75 -9.35,2 -22.55,2 -13.15,0 -22.55,-2 -9.2,-1.95 -8.95,-4.75 -0.05,-0.4 0.1,-0.75 0.9,-2.3 8.85,-4 9.4,-2 22.55,-2 13.2,0 22.55,2 8,1.7 9.1,4 0.05,0.15 0.1,0.3 0.05,0.1 0.05,0.25 M 44.35,50.35 h 4.9 V 68.1 h 9.1 v 4.55 h -14 z"
         id="path70" />
      <path
         fill="#8c8c8c"
         stroke="none"
         d="m 49.25,50.35 h -4.9 v 22.3 h 14 V 68.1 h -9.1 z"
         id="path71" />
      <path
         fill="#3f3f3f"
         stroke="none"
         d="m 81.7,35.5 v -0.2 q 0,-0.15 -0.05,-0.25 -0.05,-0.15 -0.1,-0.3 -1.1,-2.3 -9.1,-4 -9.35,-2 -22.55,-2 -13.15,0 -22.55,2 -7.95,1.7 -8.85,4 -0.15,0.35 -0.1,0.75 -0.25,2.8 8.95,4.75 9.4,2 22.55,2 13.2,0 22.55,-2 9.25,-1.95 9.25,-4.75 z"
         id="path72" />
    </g>
    <g
       id="Layer30_0_FILL">
      <path
         fill="#272727"
         stroke="none"
         d="M 79.85,20.15 Q 67.5,7.8 50,7.8 32.5,7.8 20.15,20.15 7.8,32.5 7.8,50 7.8,67.5 20.15,79.85 32.5,92.2 50,92.2 67.5,92.2 79.85,79.85 92.2,67.5 92.2,50 92.2,32.5 79.85,20.15 M 50,15.95 q 14.2,0 24.1,10 10,9.95 10,24.05 0,14.2 -10,24.1 -9.9,10 -24.1,10 -14.1,0 -24.05,-10 -10,-9.9 -10,-24.1 0,-14.1 10,-24.05 9.95,-10 24.05,-10 z"
         id="path73" />
      <path
         fill="#3c3c3c"
         stroke="none"
         d="m 74.1,25.95 q -9.9,-10 -24.1,-10 -14.1,0 -24.05,10 -10,9.95 -10,24.05 0,14.2 10,24.1 9.95,10 24.05,10 14.2,0 24.1,-10 10,-9.9 10,-24.1 0,-14.1 -10,-24.05 M 82.2,50 q 0,1.268359 -0.1,2.5 h -4.3 q -0.263281,3.210156 -1.2,6.1 l 4,1.7 q -0.759766,2.386914 -1.95,4.6 L 74.7,63.25 q -1.338477,2.437695 -3.25,4.7 L 74.5,71 q -0.813086,0.913086 -1.7,1.8 -0.912891,0.912891 -1.9,1.7 l -3,-3 q -2.420703,2.010352 -5.1,3.4 l 1.6,4.05 q -2.229297,1.133789 -4.65,1.85 l -1.6,-4.05 q -2.724023,0.833789 -5.65,1.05 v 4.35 q -1.232422,0.1 -2.5,0.1 -1.267773,0 -2.5,-0.1 V 77.8 q -3.195703,-0.264648 -6.1,-1.2 l -1.75,4.05 Q 37.310156,79.887109 35.1,78.7 l 1.7,-4.05 q -2.431641,-1.301172 -4.65,-3.2 l -3.1,3.1 Q 28.111719,73.716602 27.2,72.8 26.314453,71.914453 25.5,71 l 3.1,-3.1 q -2.064844,-2.408398 -3.45,-5.15 l -4.1,1.65 Q 19.952344,62.167969 19.2,59.75 l 4.1,-1.65 q -0.776367,-2.675781 -1,-5.6 H 17.85 Q 17.8,51.267969 17.8,50 q 0,-1.267578 0.05,-2.5 h 4.45 q 0.271289,-3.143164 1.15,-6.05 l -4.1,-1.7 q 0.787695,-2.378516 1.95,-4.6 l 4.1,1.7 q 1.317383,-2.405273 3.2,-4.65 l -3.15,-3.15 q 0.85,-0.9 1.75,-1.8 0.897656,-0.902344 1.8,-1.75 l 3.15,3.15 q 2.418555,-2.038086 5.1,-3.45 l -1.7,-4.15 q 2.266797,-1.101563 4.65,-1.85 l 1.7,4.1 q 2.664844,-0.774609 5.6,-1 v -4.45 q 1.232031,-0.05 2.5,-0.05 1.267578,0 2.5,0.05 v 4.4 q 3.133203,0.275391 6,1.15 l 1.75,-4.05 q 2.383789,0.808008 4.6,1.95 l -1.75,4.05 q 2.525,1.357422 4.75,3.25 l 3.1,-3.1 q 0.950195,0.850195 1.85,1.75 0.9,0.9 1.7,1.8 l -3.05,3.1 q 2.014062,2.39082 3.45,5.1 l 4,-1.65 q 1.151953,2.24375 1.9,4.65 l -4.05,1.65 q 0.826562,2.67832 1.05,5.6 h 4.3 q 0.1,1.232617 0.1,2.5 z"
         id="path74" />
      <path
         fill="url(#Gradient_17)"
         stroke="none"
         d="m 82.1,52.5 q 0.1,-1.231641 0.1,-2.5 0,-1.267383 -0.1,-2.5 H 77.8 Q 77.576562,44.57832 76.75,41.9 L 80.8,40.25 Q 80.051953,37.84375 78.9,35.6 l -4,1.65 q -1.435938,-2.70918 -3.45,-5.1 l 3.05,-3.1 q -0.8,-0.9 -1.7,-1.8 -0.899805,-0.899805 -1.85,-1.75 l -3.1,3.1 Q 65.625,26.707422 63.1,25.35 l 1.75,-4.05 q -2.216211,-1.141992 -4.6,-1.95 L 58.5,23.4 q -2.866797,-0.874609 -6,-1.15 v -4.4 Q 51.267578,17.8 50,17.8 q -1.267969,0 -2.5,0.05 v 4.45 q -2.935156,0.225391 -5.6,1 l -1.7,-4.1 q -2.383203,0.748437 -4.65,1.85 l 1.7,4.15 q -2.681445,1.411914 -5.1,3.45 L 29,25.5 q -0.902344,0.847656 -1.8,1.75 -0.9,0.9 -1.75,1.8 l 3.15,3.15 q -1.882617,2.244727 -3.2,4.65 l -4.1,-1.7 q -1.162305,2.221484 -1.95,4.6 l 4.1,1.7 q -0.878711,2.906836 -1.15,6.05 h -4.45 q -0.05,1.232422 -0.05,2.5 0,1.267969 0.05,2.5 h 4.45 q 0.223633,2.924219 1,5.6 l -4.1,1.65 q 0.752344,2.417969 1.85,4.65 l 4.1,-1.65 q 1.385156,2.741602 3.45,5.15 L 25.5,71 q 0.814453,0.914453 1.7,1.8 0.911719,0.916602 1.85,1.75 l 3.1,-3.1 q 2.218359,1.898828 4.65,3.2 l -1.7,4.05 q 2.210156,1.187109 4.55,1.95 L 41.4,76.6 q 2.904297,0.935352 6.1,1.2 v 4.35 q 1.232227,0.1 2.5,0.1 1.267578,0 2.5,-0.1 V 77.8 q 2.925977,-0.216211 5.65,-1.05 l 1.6,4.05 q 2.420703,-0.716211 4.65,-1.85 L 62.8,74.9 q 2.679297,-1.389648 5.1,-3.4 l 3,3 q 0.987109,-0.787109 1.9,-1.7 0.886914,-0.886914 1.7,-1.8 l -3.05,-3.05 q 1.911523,-2.262305 3.25,-4.7 l 3.95,1.65 q 1.190234,-2.213086 1.95,-4.6 l -4,-1.7 q 0.936719,-2.889844 1.2,-6.1 h 4.3 M 51.7,26.25 q 3.213281,0.182617 6.1,1.15 l -0.05,-0.05 q 1.608984,0.594336 3.1,1.35 v -0.05 q 2.525195,1.317773 4.75,3.3 h 0.05 q 0.637305,0.579102 1.25,1.2 0.625391,0.614648 1.2,1.25 0.04805,0.02676 0.05,0.05 2.04043,2.345313 3.4,5.05 v -0.05 q 0.742187,1.557422 1.3,3.25 v 0 q 0.819531,2.612891 1,5.5 0.04863,0.9 0.05,1.8 -0.0014,0.922461 -0.05,1.8 -0.226758,3.149609 -1.15,5.95 -0.558594,1.698242 -1.35,3.3 L 71.4,61 q -1.295313,2.388672 -3.2,4.6 7.81e-4,0.02559 -0.05,0.05 -0.577148,0.637891 -1.25,1.25 -0.65918,0.720117 -1.3,1.3 -0.02695,0.04785 -0.05,0.05 -2.31875,1.971289 -4.9,3.3 -0.02519,0.01191 -0.05,0 -1.567383,0.752539 -3.25,1.3 h 0.05 q -2.660547,0.819922 -5.55,1 -0.901367,0.04863 -1.85,0.05 -0.875195,-0.0014 -1.75,-0.05 -3.186914,-0.229492 -6.05,-1.2 -1.619531,-0.557617 -3.1,-1.3 v 0 q -2.448047,-1.257422 -4.65,-3.2 H 34.4 Q 33.776562,67.537695 33.15,66.9 32.577148,66.335352 32,65.7 31.9977,65.67676 31.95,65.65 29.825977,63.270117 28.5,60.5 q -0.723438,-1.477344 -1.2,-3.05 0.01172,0.0029 0,-0.05 -0.867383,-2.675391 -1.05,-5.65 -0.04844,-0.851563 -0.05,-1.75 0.0016,-0.872266 0.05,-1.7 0.229492,-3.186914 1.2,-6.05 V 42.2 q 0.502148,-1.507617 1.25,-2.95 0.03516,-0.02539 0.05,-0.05 1.274023,-2.561914 3.3,-4.85 0.04805,-0.02695 0.05,-0.05 0.527344,-0.585156 1.05,-1.15 0.550195,-0.519336 1.05,-1 0.0582,1.95e-4 0.1,-0.05 2.429102,-2.175586 5.2,-3.55 h 0.05 q 1.456641,-0.738867 3.05,-1.25 v 0 q 2.688867,-0.870508 5.65,-1.05 0.864648,-0.04844 1.75,-0.05 0.885352,0.0016 1.7,0.05 z"
         id="path75" />
      <path
         fill="#555555"
         stroke="none"
         d="M 57.8,27.4 Q 54.913281,26.432617 51.7,26.25 50.885352,26.20156 50,26.2 q -0.885352,0.0016 -1.75,0.05 -2.961133,0.179492 -5.65,1.05 v 0 q -1.593359,0.511133 -3.05,1.25 H 39.5 q -2.770898,1.374414 -5.2,3.55 -0.0418,0.05019 -0.1,0.05 -0.499805,0.480664 -1.05,1 -0.522656,0.564844 -1.05,1.15 -0.002,0.02305 -0.05,0.05 -2.025977,2.288086 -3.3,4.85 -0.01484,0.02461 -0.05,0.05 -0.747852,1.442383 -1.25,2.95 v 0.05 q -0.970508,2.863086 -1.2,6.05 -0.04844,0.827734 -0.05,1.7 0.0016,0.898437 0.05,1.75 0.182617,2.974609 1.05,5.65 0.01172,0.05293 0,0.05 0.476562,1.572656 1.2,3.05 1.325977,2.770117 3.45,5.15 0.04766,0.02676 0.05,0.05 0.577148,0.635352 1.15,1.2 0.626562,0.637695 1.25,1.25 h 0.05 q 2.201953,1.942578 4.65,3.2 v 0 q 1.480469,0.742383 3.1,1.3 2.863086,0.970508 6.05,1.2 0.874805,0.04863 1.75,0.05 0.948633,-0.0014 1.85,-0.05 2.889453,-0.180078 5.55,-1 h -0.05 q 1.682617,-0.547461 3.25,-1.3 0.02481,0.01191 0.05,0 2.58125,-1.328711 4.9,-3.3 0.02305,-0.0021 0.05,-0.05 0.64082,-0.579883 1.3,-1.3 0.672852,-0.612109 1.25,-1.25 0.05078,-0.02441 0.05,-0.05 1.904687,-2.211328 3.2,-4.6 l -0.05,0.05 q 0.791406,-1.601758 1.35,-3.3 0.923242,-2.800391 1.15,-5.95 0.04863,-0.877539 0.05,-1.8 -0.0014,-0.9 -0.05,-1.8 -0.180469,-2.887109 -1,-5.5 v 0 q -0.557813,-1.692578 -1.3,-3.25 V 39.5 Q 70.19043,36.795313 68.15,34.45 68.148,34.42676 68.1,34.4 67.525391,33.764648 66.9,33.15 66.287305,32.529102 65.65,31.95 H 65.6 q -2.224805,-1.982227 -4.75,-3.3 v 0.05 q -1.491016,-0.755664 -3.1,-1.35 l 0.05,0.05 m -7.8,4 q 7.8,0 13.25,5.5 5.45,5.4 5.45,13.1 0,7.8 -5.45,13.25 Q 57.8,68.7 50,68.7 42.3,68.7 36.9,63.25 31.4,57.8 31.4,50 q 0,-7.7 5.5,-13.1 5.4,-5.5 13.1,-5.5 z"
         id="path76" />
      <path
         fill="#3f3f3f"
         stroke="none"
         d="M 63.25,36.9 Q 57.8,31.4 50,31.4 q -7.7,0 -13.1,5.5 -5.5,5.4 -5.5,13.1 0,7.8 5.5,13.25 5.4,5.45 13.1,5.45 7.8,0 13.25,-5.45 Q 68.7,57.8 68.7,50 q 0,-7.7 -5.45,-13.1 m -5.75,2.4 q 1.3,0.85 2.05,2.3 0.75,1.45 0.75,3.65 0,2.6 -1.35,4.45 -1.4,1.85 -4,2.3 l 6.3,10.5 H 54.7 l -5.2,-9.9 h -2.65 v 9.9 H 41.4 V 37.7 h 9.55 q 1.9,0 3.6,0.4 1.7,0.35 2.95,1.2 m -10.65,8.65 h 3.2 q 0.75,0 1.55,-0.05 0.8,-0.05 1.5,-0.3 0.65,-0.25 1.1,-0.8 0.4,-0.55 0.4,-1.6 0,-0.95 -0.35,-1.5 -0.4,-0.55 -1,-0.85 -0.6,-0.3 -1.35,-0.4 -0.75,-0.1 -1.5,-0.1 h -3.55 z"
         id="path77" />
      <path
         fill="#8c8c8c"
         stroke="none"
         d="M 59.55,41.6 Q 58.8,40.15 57.5,39.3 56.25,38.45 54.55,38.1 52.85,37.7 50.95,37.7 H 41.4 v 24.8 h 5.45 v -9.9 h 2.65 l 5.2,9.9 h 6.55 L 54.95,52 q 2.6,-0.45 4,-2.3 1.35,-1.85 1.35,-4.45 0,-2.2 -0.75,-3.65 m -9.5,6.35 h -3.2 v -5.6 h 3.55 q 0.75,0 1.5,0.1 0.75,0.1 1.35,0.4 0.6,0.3 1,0.85 0.35,0.55 0.35,1.5 0,1.05 -0.4,1.6 -0.45,0.55 -1.1,0.8 -0.7,0.25 -1.5,0.3 -0.8,0.05 -1.55,0.05 z"
         id="path78" />
    </g>
    <g
       id="Layer29_0_FILL">
      <path
         fill="#272727"
         stroke="none"
         d="M 79.85,20.15 Q 67.5,7.8 50,7.8 32.5,7.8 20.15,20.15 7.8,32.5 7.8,50 7.8,67.5 20.15,79.85 32.5,92.2 50,92.2 67.5,92.2 79.85,79.85 92.2,67.5 92.2,50 92.2,32.5 79.85,20.15 M 50,15.95 q 14.2,0 24.1,10 10,9.95 10,24.05 0,14.2 -10,24.1 -9.9,10 -24.1,10 -14.1,0 -24.05,-10 -10,-9.9 -10,-24.1 0,-14.1 10,-24.05 9.95,-10 24.05,-10 z"
         id="path79" />
      <path
         fill="#3c3c3c"
         stroke="none"
         d="m 74.1,25.95 q -9.9,-10 -24.1,-10 -14.1,0 -24.05,10 -10,9.95 -10,24.05 0,14.2 10,24.1 9.95,10 24.05,10 14.2,0 24.1,-10 10,-9.9 10,-24.1 0,-14.1 -10,-24.05 M 82.2,50 q 0,1.268359 -0.1,2.5 h -4.3 q -0.263281,3.210156 -1.2,6.1 l 4,1.7 q -0.759766,2.386914 -1.95,4.6 L 74.7,63.25 q -1.338477,2.437695 -3.25,4.7 L 74.5,71 q -0.813086,0.913086 -1.7,1.8 -0.912891,0.912891 -1.9,1.7 l -3,-3 q -2.420703,2.010352 -5.1,3.4 l 1.6,4.05 q -2.229297,1.133789 -4.65,1.85 l -1.6,-4.05 q -2.724023,0.833789 -5.65,1.05 v 4.35 q -1.232422,0.1 -2.5,0.1 -1.267773,0 -2.5,-0.1 V 77.8 q -3.195703,-0.264648 -6.1,-1.2 l -1.75,4.05 Q 37.310156,79.887109 35.1,78.7 l 1.7,-4.05 q -2.431641,-1.301172 -4.65,-3.2 l -3.1,3.1 Q 28.111719,73.716602 27.2,72.8 26.314453,71.914453 25.5,71 l 3.1,-3.1 q -2.064844,-2.408398 -3.45,-5.15 l -4.1,1.65 Q 19.952344,62.167969 19.2,59.75 l 4.1,-1.65 q -0.776367,-2.675781 -1,-5.6 H 17.85 Q 17.8,51.267969 17.8,50 q 0,-1.267578 0.05,-2.5 h 4.45 q 0.271289,-3.143164 1.15,-6.05 l -4.1,-1.7 q 0.787695,-2.378516 1.95,-4.6 l 4.1,1.7 q 1.317383,-2.405273 3.2,-4.65 l -3.15,-3.15 q 0.85,-0.9 1.75,-1.8 0.897656,-0.902344 1.8,-1.75 l 3.15,3.15 q 2.418555,-2.038086 5.1,-3.45 l -1.7,-4.15 q 2.266797,-1.101563 4.65,-1.85 l 1.7,4.1 q 2.664844,-0.774609 5.6,-1 v -4.45 q 1.232031,-0.05 2.5,-0.05 1.267578,0 2.5,0.05 v 4.4 q 3.133203,0.275391 6,1.15 l 1.75,-4.05 q 2.383789,0.808008 4.6,1.95 l -1.75,4.05 q 2.525,1.357422 4.75,3.25 l 3.1,-3.1 q 0.950195,0.850195 1.85,1.75 0.9,0.9 1.7,1.8 l -3.05,3.1 q 2.014062,2.39082 3.45,5.1 l 4,-1.65 q 1.151953,2.24375 1.9,4.65 l -4.05,1.65 q 0.826562,2.67832 1.05,5.6 h 4.3 q 0.1,1.232617 0.1,2.5 z"
         id="path80" />
      <path
         fill="url(#Gradient_17)"
         stroke="none"
         d="m 82.1,52.5 q 0.1,-1.231641 0.1,-2.5 0,-1.267383 -0.1,-2.5 H 77.8 Q 77.576562,44.57832 76.75,41.9 L 80.8,40.25 Q 80.051953,37.84375 78.9,35.6 l -4,1.65 q -1.435938,-2.70918 -3.45,-5.1 l 3.05,-3.1 q -0.8,-0.9 -1.7,-1.8 -0.899805,-0.899805 -1.85,-1.75 l -3.1,3.1 Q 65.625,26.707422 63.1,25.35 l 1.75,-4.05 q -2.216211,-1.141992 -4.6,-1.95 L 58.5,23.4 q -2.866797,-0.874609 -6,-1.15 v -4.4 Q 51.267578,17.8 50,17.8 q -1.267969,0 -2.5,0.05 v 4.45 q -2.935156,0.225391 -5.6,1 l -1.7,-4.1 q -2.383203,0.748437 -4.65,1.85 l 1.7,4.15 q -2.681445,1.411914 -5.1,3.45 L 29,25.5 q -0.902344,0.847656 -1.8,1.75 -0.9,0.9 -1.75,1.8 l 3.15,3.15 q -1.882617,2.244727 -3.2,4.65 l -4.1,-1.7 q -1.162305,2.221484 -1.95,4.6 l 4.1,1.7 q -0.878711,2.906836 -1.15,6.05 h -4.45 q -0.05,1.232422 -0.05,2.5 0,1.267969 0.05,2.5 h 4.45 q 0.223633,2.924219 1,5.6 l -4.1,1.65 q 0.752344,2.417969 1.85,4.65 l 4.1,-1.65 q 1.385156,2.741602 3.45,5.15 L 25.5,71 q 0.814453,0.914453 1.7,1.8 0.911719,0.916602 1.85,1.75 l 3.1,-3.1 q 2.218359,1.898828 4.65,3.2 l -1.7,4.05 q 2.210156,1.187109 4.55,1.95 L 41.4,76.6 q 2.904297,0.935352 6.1,1.2 v 4.35 q 1.232227,0.1 2.5,0.1 1.267578,0 2.5,-0.1 V 77.8 q 2.925977,-0.216211 5.65,-1.05 l 1.6,4.05 q 2.420703,-0.716211 4.65,-1.85 L 62.8,74.9 q 2.679297,-1.389648 5.1,-3.4 l 3,3 q 0.987109,-0.787109 1.9,-1.7 0.886914,-0.886914 1.7,-1.8 l -3.05,-3.05 q 1.911523,-2.262305 3.25,-4.7 l 3.95,1.65 q 1.190234,-2.213086 1.95,-4.6 l -4,-1.7 q 0.936719,-2.889844 1.2,-6.1 h 4.3 M 51.7,26.25 q 3.213281,0.182617 6.1,1.15 l -0.05,-0.05 q 1.608984,0.594336 3.1,1.35 v -0.05 q 2.525195,1.317773 4.75,3.3 h 0.05 q 0.637305,0.579102 1.25,1.2 0.625391,0.614648 1.2,1.25 0.04805,0.02676 0.05,0.05 2.04043,2.345313 3.4,5.05 v -0.05 q 0.742187,1.557422 1.3,3.25 v 0 q 0.819531,2.612891 1,5.5 0.04863,0.9 0.05,1.8 -0.0014,0.922461 -0.05,1.8 -0.226758,3.149609 -1.15,5.95 -0.558594,1.698242 -1.35,3.3 L 71.4,61 q -1.295313,2.388672 -3.2,4.6 7.81e-4,0.02559 -0.05,0.05 -0.577148,0.637891 -1.25,1.25 -0.65918,0.720117 -1.3,1.3 -0.02695,0.04785 -0.05,0.05 -2.31875,1.971289 -4.9,3.3 -0.02519,0.01191 -0.05,0 -1.567383,0.752539 -3.25,1.3 h 0.05 q -2.660547,0.819922 -5.55,1 -0.901367,0.04863 -1.85,0.05 -0.875195,-0.0014 -1.75,-0.05 -3.186914,-0.229492 -6.05,-1.2 -1.619531,-0.557617 -3.1,-1.3 v 0 q -2.448047,-1.257422 -4.65,-3.2 H 34.4 Q 33.776562,67.537695 33.15,66.9 32.577148,66.335352 32,65.7 31.9977,65.67676 31.95,65.65 29.825977,63.270117 28.5,60.5 q -0.723438,-1.477344 -1.2,-3.05 0.01172,0.0029 0,-0.05 -0.867383,-2.675391 -1.05,-5.65 -0.04844,-0.851563 -0.05,-1.75 0.0016,-0.872266 0.05,-1.7 0.229492,-3.186914 1.2,-6.05 V 42.2 q 0.502148,-1.507617 1.25,-2.95 0.03516,-0.02539 0.05,-0.05 1.274023,-2.561914 3.3,-4.85 0.04805,-0.02695 0.05,-0.05 0.527344,-0.585156 1.05,-1.15 0.550195,-0.519336 1.05,-1 0.0582,1.95e-4 0.1,-0.05 2.429102,-2.175586 5.2,-3.55 h 0.05 q 1.456641,-0.738867 3.05,-1.25 v 0 q 2.688867,-0.870508 5.65,-1.05 0.864648,-0.04844 1.75,-0.05 0.885352,0.0016 1.7,0.05 z"
         id="path81" />
      <path
         fill="#555555"
         stroke="none"
         d="M 57.8,27.4 Q 54.913281,26.432617 51.7,26.25 50.885352,26.20156 50,26.2 q -0.885352,0.0016 -1.75,0.05 -2.961133,0.179492 -5.65,1.05 v 0 q -1.593359,0.511133 -3.05,1.25 H 39.5 q -2.770898,1.374414 -5.2,3.55 -0.0418,0.05019 -0.1,0.05 -0.499805,0.480664 -1.05,1 -0.522656,0.564844 -1.05,1.15 -0.002,0.02305 -0.05,0.05 -2.025977,2.288086 -3.3,4.85 -0.01484,0.02461 -0.05,0.05 -0.747852,1.442383 -1.25,2.95 v 0.05 q -0.970508,2.863086 -1.2,6.05 -0.04844,0.827734 -0.05,1.7 0.0016,0.898437 0.05,1.75 0.182617,2.974609 1.05,5.65 0.01172,0.05293 0,0.05 0.476562,1.572656 1.2,3.05 1.325977,2.770117 3.45,5.15 0.04766,0.02676 0.05,0.05 0.577148,0.635352 1.15,1.2 0.626562,0.637695 1.25,1.25 h 0.05 q 2.201953,1.942578 4.65,3.2 v 0 q 1.480469,0.742383 3.1,1.3 2.863086,0.970508 6.05,1.2 0.874805,0.04863 1.75,0.05 0.948633,-0.0014 1.85,-0.05 2.889453,-0.180078 5.55,-1 h -0.05 q 1.682617,-0.547461 3.25,-1.3 0.02481,0.01191 0.05,0 2.58125,-1.328711 4.9,-3.3 0.02305,-0.0021 0.05,-0.05 0.64082,-0.579883 1.3,-1.3 0.672852,-0.612109 1.25,-1.25 0.05078,-0.02441 0.05,-0.05 1.904687,-2.211328 3.2,-4.6 l -0.05,0.05 q 0.791406,-1.601758 1.35,-3.3 0.923242,-2.800391 1.15,-5.95 0.04863,-0.877539 0.05,-1.8 -0.0014,-0.9 -0.05,-1.8 -0.180469,-2.887109 -1,-5.5 v 0 q -0.557813,-1.692578 -1.3,-3.25 V 39.5 Q 70.19043,36.795313 68.15,34.45 68.148,34.42676 68.1,34.4 67.525391,33.764648 66.9,33.15 66.287305,32.529102 65.65,31.95 H 65.6 q -2.224805,-1.982227 -4.75,-3.3 v 0.05 q -1.491016,-0.755664 -3.1,-1.35 l 0.05,0.05 m -7.8,4 q 7.8,0 13.25,5.5 5.45,5.4 5.45,13.1 0,7.8 -5.45,13.25 Q 57.8,68.7 50,68.7 42.3,68.7 36.9,63.25 31.4,57.8 31.4,50 q 0,-7.7 5.5,-13.1 5.4,-5.5 13.1,-5.5 z"
         id="path82" />
      <path
         fill="#3f3f3f"
         stroke="none"
         d="M 63.25,36.9 Q 57.8,31.4 50,31.4 q -7.7,0 -13.1,5.5 -5.5,5.4 -5.5,13.1 0,7.8 5.5,13.25 5.4,5.45 13.1,5.45 7.8,0 13.25,-5.45 Q 68.7,57.8 68.7,50 q 0,-7.7 -5.45,-13.1 m -19.7,0.8 H 49 V 57.45 H 59.1 V 62.5 H 43.55 Z"
         id="path83" />
      <path
         fill="#8c8c8c"
         stroke="none"
         d="M 49,37.7 H 43.55 V 62.5 H 59.1 V 57.45 H 49 Z"
         id="path84" />
    </g>
    <g
       id="Layer28_0_FILL">
      <path
         fill="#1b1b1b"
         stroke="none"
         d="M 78.55,21.4 H 78.6 Q 66.8,9.6 50,9.6 33.25,9.6 21.35,21.4 9.55,33.25 9.55,50 q 0,16.75 11.8,28.6 v 0.05 q 11.9,11.8 28.65,11.8 16.75,0 28.55,-11.8 L 78.6,78.6 Q 90.45,66.75 90.45,50 90.45,33.2 78.55,21.4 M 50,13.6 q 15.1,0 25.75,10.65 10.7,10.65 10.7,25.75 0,15.1 -10.7,25.8 Q 65.1,86.45 50,86.45 34.9,86.45 24.2,75.8 H 24.15 Q 13.55,65.1 13.55,50 q 0,-15.1 10.6,-25.75 L 24.2,24.2 Q 34.9,13.6 50,13.6 Z"
         id="path85" />
      <path
         fill="#313131"
         stroke="none"
         d="M 75.75,24.25 Q 65.1,13.6 50,13.6 34.9,13.6 24.2,24.2 l -0.05,0.05 Q 13.55,34.9 13.55,50 q 0,15.1 10.6,25.8 h 0.05 q 10.7,10.65 25.8,10.65 15.1,0 25.75,-10.65 10.7,-10.7 10.7,-25.8 0,-15.1 -10.7,-25.75 m -3.85,3.8 h 0.05 Q 81,37.1 81,50 81,62.85 71.95,71.95 62.85,81 50,81 37.1,81 28.05,71.95 V 71.9 Q 19,62.8 19,50 19,37.15 28.05,28.05 37.15,19 50,19 q 12.8,0 21.9,9.05 z"
         id="path86" />
      <path
         fill="#626262"
         stroke="none"
         d="M 71.95,28.05 H 71.9 Q 62.8,19 50,19 37.15,19 28.05,28.05 19,37.15 19,50 q 0,12.8 9.05,21.9 v 0.05 Q 37.1,81 50,81 62.85,81 71.95,71.95 81,62.85 81,50 81,37.1 71.95,28.05 M 50,23 Q 61.2,23 69.1,30.9 77,38.8 77,50 77,61.15 69.1,69.1 61.15,77 50,77 38.8,77 30.9,69.1 23,61.2 23,50 23,38.8 30.85,30.9 L 30.9,30.85 Q 38.8,23 50,23 Z"
         id="path87" />
      <path
         fill="#4f4f4f"
         stroke="none"
         d="M 69.1,30.9 Q 61.2,23 50,23 38.8,23 30.9,30.85 L 30.85,30.9 Q 23,38.8 23,50 23,61.2 30.9,69.1 38.8,77 50,77 61.15,77 69.1,69.1 77,61.15 77,50 77,38.8 69.1,30.9 m -18.55,13.5 6.5,-11.15 h 8.5 L 55.25,48.3 66.8,65.1 H 57.95 L 50.2,52.25 42.65,65.1 H 34.3 L 45.45,48.45 34.95,33.25 h 8.8 z"
         id="path88" />
      <path
         fill="#4196f3"
         stroke="none"
         d="m 57.05,33.25 -6.5,11.15 -6.8,-11.15 h -8.8 L 45.45,48.45 34.3,65.1 h 8.35 L 50.2,52.25 57.95,65.1 H 66.8 L 55.25,48.3 65.55,33.25 Z"
         id="path89" />
    </g>
    <g
       id="Layer27_0_FILL">
      <path
         fill="#1b1b1b"
         stroke="none"
         d="M 78.55,21.4 H 78.6 Q 66.8,9.6 50,9.6 33.25,9.6 21.35,21.4 9.55,33.25 9.55,50 q 0,16.75 11.8,28.6 v 0.05 q 11.9,11.8 28.65,11.8 16.75,0 28.55,-11.8 L 78.6,78.6 Q 90.45,66.75 90.45,50 90.45,33.2 78.55,21.4 M 50,13.6 q 15.1,0 25.75,10.65 10.7,10.65 10.7,25.75 0,15.1 -10.7,25.8 Q 65.1,86.45 50,86.45 34.9,86.45 24.2,75.8 H 24.15 Q 13.55,65.1 13.55,50 q 0,-15.1 10.6,-25.75 L 24.2,24.2 Q 34.9,13.6 50,13.6 Z"
         id="path90" />
      <path
         fill="#313131"
         stroke="none"
         d="M 75.75,24.25 Q 65.1,13.6 50,13.6 34.9,13.6 24.2,24.2 l -0.05,0.05 Q 13.55,34.9 13.55,50 q 0,15.1 10.6,25.8 h 0.05 q 10.7,10.65 25.8,10.65 15.1,0 25.75,-10.65 10.7,-10.7 10.7,-25.8 0,-15.1 -10.7,-25.75 m -3.85,3.8 h 0.05 Q 81,37.1 81,50 81,62.85 71.95,71.95 62.85,81 50,81 37.1,81 28.05,71.95 V 71.9 Q 19,62.8 19,50 19,37.15 28.05,28.05 37.15,19 50,19 q 12.8,0 21.9,9.05 z"
         id="path91" />
      <path
         fill="#626262"
         stroke="none"
         d="M 71.95,28.05 H 71.9 Q 62.8,19 50,19 37.15,19 28.05,28.05 19,37.15 19,50 q 0,12.8 9.05,21.9 v 0.05 Q 37.1,81 50,81 62.85,81 71.95,71.95 81,62.85 81,50 81,37.1 71.95,28.05 M 50,23 Q 61.2,23 69.1,30.9 77,38.8 77,50 77,61.15 69.1,69.1 61.15,77 50,77 38.8,77 30.9,69.1 23,61.2 23,50 23,38.8 30.85,30.9 L 30.9,30.85 Q 38.8,23 50,23 Z"
         id="path92" />
      <path
         fill="#4f4f4f"
         stroke="none"
         d="M 69.1,30.9 Q 61.2,23 50,23 38.8,23 30.9,30.85 L 30.85,30.9 Q 23,38.8 23,50 23,61.2 30.9,69.1 38.8,77 50,77 61.15,77 69.1,69.1 77,61.15 77,50 77,38.8 69.1,30.9 M 50.05,46.8 57.2,34.9 h 8.3 L 53.55,53.15 v 13.6 H 46.5 V 53.15 L 34.55,34.9 h 8.75 z"
         id="path93" />
      <path
         fill="#eeb135"
         stroke="none"
         d="M 57.2,34.9 50.05,46.8 43.3,34.9 H 34.55 L 46.5,53.15 v 13.6 h 7.05 V 53.15 L 65.5,34.9 Z"
         id="path94" />
    </g>
    <g
       id="Layer26_0_FILL">
      <path
         fill="#1b1b1b"
         stroke="none"
         d="M 78.55,21.4 H 78.6 Q 66.8,9.6 50,9.6 33.25,9.6 21.35,21.4 9.55,33.25 9.55,50 q 0,16.75 11.8,28.6 v 0.05 q 11.9,11.8 28.65,11.8 16.75,0 28.55,-11.8 L 78.6,78.6 Q 90.45,66.75 90.45,50 90.45,33.2 78.55,21.4 M 50,13.6 q 15.1,0 25.75,10.65 10.7,10.65 10.7,25.75 0,15.1 -10.7,25.8 Q 65.1,86.45 50,86.45 34.9,86.45 24.2,75.8 H 24.15 Q 13.55,65.1 13.55,50 q 0,-15.1 10.6,-25.75 L 24.2,24.2 Q 34.9,13.6 50,13.6 Z"
         id="path95" />
      <path
         fill="#313131"
         stroke="none"
         d="M 75.75,24.25 Q 65.1,13.6 50,13.6 34.9,13.6 24.2,24.2 l -0.05,0.05 Q 13.55,34.9 13.55,50 q 0,15.1 10.6,25.8 h 0.05 q 10.7,10.65 25.8,10.65 15.1,0 25.75,-10.65 10.7,-10.7 10.7,-25.8 0,-15.1 -10.7,-25.75 m -3.85,3.8 h 0.05 Q 81,37.1 81,50 81,62.85 71.95,71.95 62.85,81 50,81 37.1,81 28.05,71.95 V 71.9 Q 19,62.8 19,50 19,37.15 28.05,28.05 37.15,19 50,19 q 12.8,0 21.9,9.05 z"
         id="path96" />
      <path
         fill="#626262"
         stroke="none"
         d="M 71.95,28.05 H 71.9 Q 62.8,19 50,19 37.15,19 28.05,28.05 19,37.15 19,50 q 0,12.8 9.05,21.9 v 0.05 Q 37.1,81 50,81 62.85,81 71.95,71.95 81,62.85 81,50 81,37.1 71.95,28.05 M 50,23 Q 61.2,23 69.1,30.9 77,38.8 77,50 77,61.15 69.1,69.1 61.15,77 50,77 38.8,77 30.9,69.1 23,61.2 23,50 23,38.8 30.85,30.9 L 30.9,30.85 Q 38.8,23 50,23 Z"
         id="path97" />
      <path
         fill="#4f4f4f"
         stroke="none"
         d="M 69.1,30.9 Q 61.2,23 50,23 38.8,23 30.9,30.85 L 30.85,30.9 Q 23,38.8 23,50 23,61.2 30.9,69.1 38.8,77 50,77 61.15,77 69.1,69.1 77,61.15 77,50 77,38.8 69.1,30.9 m -17.75,2.35 q 2.1,0 4.15,0.3 2.15,0.3 3.8,1.15 1.65,0.9 2.7,2.45 1,1.6 1,4.2 0,2.7 -1.5,4.5 -1.5,1.75 -3.95,2.5 v 0.1 q 1.55,0.25 2.85,0.85 1.25,0.7 2.15,1.7 0.95,1 1.45,2.35 0.5,1.35 0.5,2.9 0,2.5 -1.1,4.2 -1.05,1.7 -2.8,2.7 -1.7,1.05 -3.85,1.5 -2.1,0.45 -4.2,0.45 H 39.5 V 33.25 h 11.85 m 4.6,25.1 q 0.65,-0.45 1.1,-1.15 0.45,-0.75 0.45,-1.75 0,-1.15 -0.6,-1.85 -0.55,-0.7 -1.4,-1.05 -0.85,-0.35 -1.85,-0.5 -1,-0.15 -1.85,-0.15 h -5.3 v 7.25 h 6.3 q 0.8,0 1.65,-0.15 0.85,-0.2 1.5,-0.65 M 46.5,39.15 V 46 h 5.1 q 0.8,0 1.6,-0.2 0.8,-0.15 1.4,-0.6 0.65,-0.4 1.05,-1.05 0.35,-0.7 0.35,-1.65 0,-1 -0.4,-1.65 -0.45,-0.65 -1.15,-1 -0.65,-0.35 -1.5,-0.5 -0.85,-0.2 -1.65,-0.2 z"
         id="path98" />
      <path
         fill="#e02727"
         stroke="none"
         d="m 55.5,33.55 q -2.05,-0.3 -4.15,-0.3 H 39.5 V 65.1 h 13.05 q 2.1,0 4.2,-0.45 2.15,-0.45 3.85,-1.5 1.75,-1 2.8,-2.7 1.1,-1.7 1.1,-4.2 0,-1.55 -0.5,-2.9 Q 63.5,52 62.55,51 61.65,50 60.4,49.3 59.1,48.7 57.55,48.45 v -0.1 Q 60,47.6 61.5,45.85 63,44.05 63,41.35 63,38.75 62,37.15 60.95,35.6 59.3,34.7 57.65,33.85 55.5,33.55 M 46.5,46 v -6.85 h 4.8 q 0.8,0 1.65,0.2 0.85,0.15 1.5,0.5 0.7,0.35 1.15,1 0.4,0.65 0.4,1.65 0,0.95 -0.35,1.65 Q 55.25,44.8 54.6,45.2 54,45.65 53.2,45.8 52.4,46 51.6,46 H 46.5 M 57.05,57.2 Q 56.6,57.9 55.95,58.35 55.3,58.8 54.45,59 53.6,59.15 52.8,59.15 H 46.5 V 51.9 h 5.3 q 0.85,0 1.85,0.15 1,0.15 1.85,0.5 0.85,0.35 1.4,1.05 0.6,0.7 0.6,1.85 0,1 -0.45,1.75 z"
         id="path99" />
    </g>
    <g
       id="Layer25_0_FILL">
      <path
         fill="#1b1b1b"
         stroke="none"
         d="M 78.6,21.4 Q 66.8,9.6 50,9.6 33.25,9.6 21.35,21.4 9.55,33.25 9.55,50 q 0,16.75 11.8,28.6 v 0.05 q 11.9,11.8 28.65,11.8 16.75,0 28.55,-11.8 L 78.6,78.6 Q 90.45,66.75 90.45,50 90.45,33.2 78.55,21.4 H 78.6 M 50,13.6 q 15.1,0 25.75,10.65 10.7,10.65 10.7,25.75 0,15.1 -10.7,25.8 Q 65.1,86.45 50,86.45 34.9,86.45 24.2,75.8 H 24.15 Q 13.55,65.1 13.55,50 q 0,-15.1 10.6,-25.75 L 24.2,24.2 Q 34.9,13.6 50,13.6 Z"
         id="path100" />
      <path
         fill="#313131"
         stroke="none"
         d="M 75.75,24.25 Q 65.1,13.6 50,13.6 34.9,13.6 24.2,24.2 l -0.05,0.05 Q 13.55,34.9 13.55,50 q 0,15.1 10.6,25.8 h 0.05 q 10.7,10.65 25.8,10.65 15.1,0 25.75,-10.65 10.7,-10.7 10.7,-25.8 0,-15.1 -10.7,-25.75 m -3.85,3.8 h 0.05 Q 81,37.1 81,50 81,62.85 71.95,71.95 62.85,81 50,81 37.1,81 28.05,71.95 V 71.9 Q 19,62.8 19,50 19,37.15 28.05,28.05 37.15,19 50,19 q 12.8,0 21.9,9.05 z"
         id="path101" />
      <path
         fill="#626262"
         stroke="none"
         d="M 71.95,28.05 H 71.9 Q 62.8,19 50,19 37.15,19 28.05,28.05 19,37.15 19,50 q 0,12.8 9.05,21.9 v 0.05 Q 37.1,81 50,81 62.85,81 71.95,71.95 81,62.85 81,50 81,37.1 71.95,28.05 M 50,23 Q 61.2,23 69.1,30.9 77,38.8 77,50 77,61.15 69.1,69.1 61.15,77 50,77 38.8,77 30.9,69.1 23,61.2 23,50 23,38.8 30.85,30.9 L 30.9,30.85 Q 38.8,23 50,23 Z"
         id="path102" />
      <path
         fill="#4f4f4f"
         stroke="none"
         d="M 69.1,30.9 Q 61.2,23 50,23 38.8,23 30.9,30.85 L 30.85,30.9 Q 23,38.8 23,50 23,61.2 30.9,69.1 38.8,77 50,77 61.15,77 69.1,69.1 77,61.15 77,50 77,38.8 69.1,30.9 m -22.05,0.7 h 5.8 L 66.7,63.45 H 58.75 L 56,56.7 H 43.65 L 41,63.45 H 33.25 L 47.05,31.6 m -1.2,19.15 h 7.8 l -3.9,-9.9 z"
         id="path103" />
      <path
         fill="#87d638"
         stroke="none"
         d="m 52.85,31.6 h -5.8 L 33.25,63.45 H 41 L 43.65,56.7 H 56 l 2.75,6.75 H 66.7 L 52.85,31.6 m 0.8,19.15 h -7.8 l 3.9,-9.9 z"
         id="path104" />
    </g>
    <g
       id="Layer24_0_FILL">
      <path
         fill="#ffffff"
         stroke="none"
         d="m -152.05,-172.1 v 0.1 l -1.45,-12.55 v 14.3 q 0.35,10 3.85,17.95 l 2.25,0.65 1.1,-0.45 -0.6,-1.4 q -3.4,-7.7 -5.15,-18.6 m 404.7,0.1 v -0.1 q -1.75,10.9 -5.15,18.6 l -0.6,1.4 1.1,0.45 2.25,-0.65 q 3.5,-7.95 3.85,-17.95 v -14.3 L 252.65,-172 M -127.7,-13.5 h 0.85 q 0.15,0 0.35,0 h 0.25 q 0.35,0 0.7,0.05 9.65,0.4 16.65,6.8 5.25,4.8 7.3,9.85 0.75,2.1 1,4.2 0,0.15 0.05,0.3 0.25,3 0.1,5.8 -0.2,1.95 -0.6,3.85 -0.55,1.8 -1.3,3.55 1.2,-1.75 2.1,-3.55 0.75,-1.85 1.2,-3.85 0.3,-1.8 0.4,-3.7 0.05,-1.05 0,-2.1 -0.15,-2.3 -0.7,-4.5 -1.8,-6.75 -7.5,-12.05 -7.95,-7.3 -19.05,-7.6 l -0.75,-0.05 q -0.1,0 -0.2,0 -0.05,0 -0.15,0 -0.65,0 -1.3,0.05 -1.2,0 -2.35,0.15 -9.4,1.05 -16.35,7.45 -5.7,5.3 -7.5,12.05 -0.55,2.2 -0.7,4.5 -0.05,1.05 0,2.1 0.1,1.9 0.4,3.7 0.45,2 1.2,3.85 0.9,1.8 2.1,3.55 -0.75,-1.75 -1.3,-3.55 -0.4,-1.9 -0.6,-3.85 -0.15,-2.8 0.1,-5.8 0.05,-0.15 0.05,-0.3 0.25,-2.1 1,-4.2 2.05,-5.05 7.3,-9.85 6.1,-5.6 14.3,-6.6 1.15,-0.2 2.35,-0.2 0.3,-0.05 0.6,-0.05 m -82.55,-76.25 q 4.45,2.3 14.85,1.35 10.35,-0.95 39.35,-8.4 8.4,-2.15 15.2,-3.7 11.65,-2.75 23.65,-4.5 11.65,-1.85 23.6,-1.55 5.2,0.35 9.1,1.6 11.7,3.9 26.15,20.75 h 0.05 q 14.2,16.5 25.35,27.15 H -33 q 9.65,9.2 14.3,11.55 3.75,3.05 20.45,4.3 -15.25,-4.15 -18.65,-6.7 -0.15,-0.15 -0.3,-0.2 -4.35,-2.15 -13.7,-11.1 -11.1,-10.6 -25.15,-26.95 -15.15,-17.7 -27.5,-21.65 -4.25,-1.45 -10.05,-1.75 -10.65,-0.35 -21.4,1.1 -11.1,1.5 -22.05,4.1 -1.9,0.4 -3.8,0.8 -6.15,1.45 -13.55,3.4 -31.15,8.1 -40.65,9.7 -10.1,1.65 -15.2,0.7 M 2.9,84.1 Q 2.7,84 2.6,83.85 q -1,-0.7 -2.25,-0.8 l -21.55,-1.2 q -0.05,0 -0.1,0 -0.15,-0.05 -0.3,-0.1 -0.05,0 -0.1,0 -1.85,-0.35 -3.1,-1.85 -0.05,-0.05 -0.05,-0.1 -1.5,-1.65 -1.75,-3.8 V 75.95 Q -26.65,75.7 -26.65,75.4 V 60.95 q 0,-1.4 -0.75,-2.55 l -0.05,-0.05 q -0.85,-1.1 -2.05,-1.55 l -0.05,-0.05 h -0.05 q -0.2,-0.05 -0.4,-0.1 -4.2,-1.45 -8.7,-1.55 -5.65,-0.2 -11.15,1.75 -1.3,0.45 -2.05,1.55 -0.8,1.15 -0.8,2.55 V 75.5 q 0,0.25 0,0.4 -0.05,0.05 -0.05,0.1 -0.25,2.15 -1.75,3.85 h -0.05 q -0.05,0 -0.05,0.05 h 0.05 q -1.25,1.5 -3.05,1.85 V 81.7 q -0.05,0 -0.1,0.05 -0.2,0.05 -0.4,0.1 -0.05,0 -0.1,0 -0.05,0 -0.1,0 l -21.4,1.2 q -1.3,0.1 -2.3,0.8 -0.1,0.15 -0.3,0.25 -0.9,0.8 -1.05,2.05 -0.45,3.35 -0.15,9.7 0.05,-0.05 0.1,-0.1 0.55,-5.4 1.6,-8.95 0,-0.05 0.05,-0.1 0.15,-0.8 0.75,-1.25 0.55,-0.45 1.4,-0.55 l 21.5,-1.05 q 0.1,0 0.25,0 0,-0.05 0.05,-0.05 0.05,0 0.1,0 0.2,-0.05 0.4,-0.1 h 0.05 q 2.55,-0.5 4.25,-2.55 1.9,-2.15 2.25,-4.9 V 76.2 q 0.05,-0.3 0.05,-0.7 V 60.95 q 0,-0.75 0.4,-1.4 h 0.05 q 0.15,-0.25 0.4,-0.45 4.65,-2.05 10.1,-2 4.95,0.05 9.75,1.65 0.5,0.25 0.85,0.65 l 0.05,0.05 q 0.05,0.05 0.1,0.15 0.35,0.6 0.35,1.35 V 75.4 q 0,0.5 0.1,0.85 0,0.1 0,0.2 0.35,2.55 2.1,4.6 0.05,0 0.1,0.1 1.65,2 4.1,2.5 h 0.05 q 0.05,0 0.1,0.05 h 0.1 q 0.3,0.1 0.65,0.15 L 0.25,84.9 H 0.3 q 0.75,0.15 1.35,0.55 0.6,0.45 0.75,1.3 v 0.05 q 1.1,3.55 1.7,9 Q 4.45,89.5 3.95,86.15 3.8,84.9 2.9,84.1 M 0.6,58.35 q 5.65,5.15 9.35,11.15 7.1,11.6 6.85,26.3 -0.45,22.25 -13.3,35.5 -6.1,6.25 -10.1,9.5 4.9,-3 9.3,-7.05 H 2.65 Q 20.25,117.65 20.25,94.9 20.25,80.95 13.6,69.5 9.45,62.35 2.65,56.15 2.55,56.05 2.5,56 -13.4,41.6 -35.2,40.3 v -0.05 l -1.55,-0.05 q -1.4,-0.05 -2.8,-0.05 -0.1,0 -0.2,0 -1.35,0 -2.8,0.05 l -1.5,0.05 V 40.3 Q -65.9,41.6 -81.7,56 q -0.1,0.05 -0.2,0.15 -1.3,1.2 -2.55,2.45 -13.35,13.55 -14.9,31.55 -0.2,2.35 -0.2,4.75 0,2.4 0.2,4.8 1.7,19.65 17.45,34.05 h -0.05 q 4.4,4.05 9.25,7.05 -4,-3.25 -10.1,-9.5 -12.8,-13.25 -13.3,-35.5 -0.35,-18.95 11.65,-32.75 2.1,-2.45 4.55,-4.7 1.35,-1.2 2.75,-2.35 14.55,-11.75 33.95,-12.7 l 0.75,-0.05 q 1.4,-0.05 2.7,-0.05 0.1,0 0.2,0 1.4,0 2.7,0.05 l 0.75,0.05 q 19.45,0.95 33.95,12.7 1.4,1.15 2.75,2.35 m 167.15,44.95 q 0.75,2.1 1,4.2 0,0.15 0.05,0.3 0.25,3 0.1,5.8 -0.2,1.95 -0.6,3.85 -0.55,1.8 -1.3,3.55 1.2,-1.75 2.1,-3.55 0.75,-1.85 1.2,-3.85 0.3,-1.8 0.4,-3.7 0.05,-1.05 0,-2.1 -0.15,-2.3 -0.7,-4.5 -1.8,-6.75 -7.5,-12.05 -7.95,-7.3 -19.05,-7.6 L 142.7,83.6 q -0.1,0 -0.2,0 -0.05,0 -0.15,0 -0.65,0 -1.3,0.05 -1.2,0 -2.35,0.15 -9.4,1.05 -16.35,7.45 -5.7,5.3 -7.5,12.05 -0.55,2.2 -0.7,4.5 -0.05,1.05 0,2.1 0.1,1.9 0.4,3.7 0.45,2 1.2,3.85 0.9,1.8 2.1,3.55 -0.75,-1.75 -1.3,-3.55 -0.4,-1.9 -0.6,-3.85 -0.15,-2.8 0.1,-5.8 0.05,-0.15 0.05,-0.3 0.25,-2.1 1,-4.2 2.05,-5.05 7.3,-9.85 6.1,-5.6 14.3,-6.6 1.15,-0.2 2.35,-0.2 0.3,-0.05 0.6,-0.05 h 0.85 q 0.15,0 0.35,0 h 0.25 q 0.35,0 0.7,0.05 9.65,0.4 16.65,6.8 5.25,4.8 7.3,9.85 m 64,-81.1 q -0.1,-0.15 -0.3,-0.3 -0.15,-0.15 -0.4,-0.15 h -3.85 q -0.15,0 -0.25,0.05 -0.15,0.05 -0.25,0.15 -0.15,0.05 -0.2,0.2 -0.1,0.1 -0.15,0.15 l -8.15,21.2 q -0.1,0.3 0.05,0.45 0.2,0.15 0.5,0.15 h 4.45 q 0.55,0 0.75,-0.55 0.3,-0.75 0.6,-1.55 0.3,-0.75 0.55,-1.5 h 8 q 0.3,0.75 0.6,1.5 0.25,0.8 0.55,1.55 0.1,0.3 0.3,0.4 0.2,0.15 0.55,0.15 h 4.3 q 0.45,0 0.6,-0.2 0.15,-0.2 0.05,-0.5 l -8.3,-21.2 m -2.65,6.55 2.3,6.9 h -4.6 q 0.3,-0.75 0.55,-1.65 0.3,-0.9 0.6,-1.8 0.3,-0.9 0.6,-1.75 0.3,-0.9 0.55,-1.7 m 42.85,-51.7 q -0.3,-0.05 -0.45,0.15 -0.2,0.15 -0.2,0.5 v 21 q 0,0.35 0.2,0.5 0.2,0.15 0.45,0.2 l 10.9,0.25 q 1.35,0.05 2.55,-0.5 1.15,-0.45 2.05,-1.35 0.9,-0.9 1.45,-2.15 0.55,-1.2 0.55,-2.55 0,-1.55 -0.65,-2.95 -0.65,-1.4 -1.75,-2.45 0.65,-0.7 1,-1.7 0.4,-0.9 0.4,-2.05 0,-1.35 -0.55,-2.55 -0.5,-1.25 -1.35,-2.05 -0.9,-0.95 -2.1,-1.5 -1.15,-0.5 -2.5,-0.55 l -10,-0.25 m 5.2,8.9 v -4.35 l 3.2,0.1 q 0.5,0 0.95,0.2 0.4,0.15 0.7,0.45 0.3,0.35 0.5,0.7 0.15,0.4 0.15,0.85 0,0.5 -0.2,0.9 -0.15,0.4 -0.45,0.7 -0.3,0.25 -0.75,0.45 -0.4,0.1 -0.9,0.1 l -3.2,-0.1 m 6.3,6.7 q 0,0.5 -0.2,1 -0.15,0.45 -0.45,0.75 -0.35,0.35 -0.75,0.55 -0.45,0.2 -0.95,0.25 l -3.95,-0.15 V -10 l 3.95,0.15 q 0.5,-0.05 0.95,0.2 0.4,0.25 0.75,0.6 0.3,0.4 0.45,0.85 0.2,0.4 0.2,0.85 m -104.5,-11.3 q -0.3,-0.6 -0.85,-0.6 l -5.25,-0.1 q -0.15,0.05 -0.25,0.05 -0.15,0 -0.2,0.1 0,0.15 0.05,0.25 0.05,0.1 0.15,0.2 1.75,2.65 3.45,5.25 1.65,2.6 3.4,5.25 L 172.7,1.7 q -0.2,0.2 -0.3,0.45 -0.15,0.25 -0.25,0.45 -0.05,0.05 -0.05,0.15 0,0.1 0.1,0.2 0.1,0.05 0.2,0.05 l 5.4,0.15 q 0.3,0 0.5,-0.15 0.2,-0.15 0.3,-0.4 l 4.05,-6 4.1,6.2 q 0.15,0.25 0.35,0.4 0.2,0.15 0.45,0.2 l 5.4,0.1 q 0.25,0 0.25,-0.2 0.05,-0.15 -0.05,-0.3 -0.1,-0.2 -0.2,-0.4 l -7.1,-10.7 6.95,-10.2 q 0.15,-0.2 0.15,-0.35 0,-0.1 -0.1,-0.15 -0.1,-0.05 -0.25,-0.05 -0.15,-0.05 -0.3,-0.05 -0.2,0 -0.3,0 l -4.7,-0.15 q -0.6,0 -0.9,0.6 l -3.75,5.45 -3.7,-5.65 m 42.6,-44.9 q -0.1,0 -0.2,0.05 -0.05,0.05 -0.05,0.15 0,0.2 0.2,0.4 l 7.15,12.6 v 8.45 q 0,0.3 0.15,0.5 0.15,0.2 0.45,0.2 h 4.5 q 0.7,0 0.7,-0.7 v -8.45 l 7.15,-12.6 q 0.2,-0.2 0.2,-0.4 0,-0.1 -0.05,-0.15 -0.05,-0.05 -0.2,-0.05 h -5.8 q -0.05,0 -0.15,0.05 -0.05,0 -0.1,0 -0.05,0.05 -0.15,0.15 -0.05,0.05 -0.15,0.25 l -3.6,7.8 -3.7,-7.8 q -0.1,-0.2 -0.15,-0.25 -0.05,-0.1 -0.15,-0.15 -0.05,0 -0.1,0 -0.05,-0.05 -0.15,-0.05 h -5.8 m -87.95,6.5 h -0.05 Q 144.7,-67.7 158.9,-84.2 h 0.05 q 14.45,-16.85 26.15,-20.75 3.9,-1.25 9.1,-1.6 11.95,-0.3 23.6,1.55 12,1.75 23.65,4.5 6.8,1.55 15.2,3.7 29,7.45 39.35,8.4 10.4,0.95 14.85,-1.35 -5.1,0.95 -15.2,-0.7 -9.5,-1.6 -40.65,-9.7 -7.4,-1.95 -13.55,-3.4 -1.9,-0.4 -3.8,-0.8 -10.95,-2.6 -22.05,-4.1 -10.75,-1.45 -21.4,-1.1 -5.8,0.3 -10.05,1.75 -12.35,3.95 -27.5,21.65 -14.05,16.35 -25.15,26.95 -9.35,8.95 -13.7,11.1 -0.15,0.05 -0.3,0.2 -3.4,2.55 -18.65,6.7 16.7,-1.25 20.45,-4.3 4.65,-2.35 14.3,-11.55 z"
         id="path105" />
    </g>
    <path
       id="Layer44_0_1_STROKES"
       stroke="#1b1b1b"
       stroke-width="5"
       stroke-linejoin="round"
       stroke-linecap="round"
       fill="none"
       d="M 84.15,78.6 Q 89.5,78 90.4,72.35 V 55.95 Q 89.9,32.3 64.3,27.7 38.6,23.15 26.25,21.6 13.8,20 13.1,31.2 v 36.2 q 0.3,10.7 12.45,11.2 z" />
    <path
       id="Layer44_0_2_STROKES"
       stroke="#626262"
       stroke-width="4"
       stroke-linejoin="round"
       stroke-linecap="round"
       fill="none"
       d="m 82.95,54 -0.1,17.15 H 45.9 q -5.45,0.05 -5.6,-4.8 V 40.3 q 0.4,-7.05 8.2,-6.65 7.15,-0.2 20.2,3.95 13.05,4.05 14.25,16.4 z" />
    <path
       id="Layer43_0_1_STROKES"
       stroke="#1b1b1b"
       stroke-width="5"
       stroke-linejoin="round"
       stroke-linecap="round"
       fill="none"
       d="m 50,14.3 q 14.85,0 25.25,10.4 Q 85.7,35.15 85.7,50 85.7,64.8 75.25,75.25 64.85,85.7 50,85.7 35.2,85.7 24.75,75.25 14.3,64.8 14.3,50 14.3,35.15 24.75,24.7 35.2,14.3 50,14.3 Z" />
    <path
       id="Layer43_0_2_STROKES"
       stroke="#999999"
       stroke-width="5"
       stroke-linejoin="round"
       stroke-linecap="round"
       fill="none"
       d="m 63.15,41.45 h -26.2 m 26.2,8.8 h -26.2 m 26.2,8.8 h -26.2" />
    <path
       id="Layer43_0_3_STROKES"
       stroke="#626262"
       stroke-width="4"
       stroke-linejoin="round"
       stroke-linecap="round"
       fill="none"
       d="m 50,22.8 q 11.3,0 19.25,7.95 Q 77.2,38.7 77.2,50 77.2,61.3 69.25,69.25 61.3,77.2 50,77.2 38.75,77.2 30.75,69.25 22.8,61.3 22.8,50 22.8,38.7 30.75,30.75 38.75,22.8 50,22.8 Z" />
    <path
       id="Layer42_0_1_STROKES"
       stroke="#1b1b1b"
       stroke-width="5"
       stroke-linejoin="round"
       stroke-linecap="round"
       fill="none"
       d="m 50,14.3 q 14.85,0 25.25,10.4 Q 85.7,35.15 85.7,50 85.7,64.8 75.25,75.25 64.85,85.7 50,85.7 35.2,85.7 24.75,75.25 14.3,64.8 14.3,50 14.3,35.15 24.75,24.7 35.2,14.3 50,14.3 Z" />
    <path
       id="Layer42_0_2_STROKES"
       stroke="#999999"
       stroke-width="4"
       stroke-linejoin="round"
       stroke-linecap="round"
       fill="none"
       d="M 57.55,47 V 39.75 H 35.5 v 14.4 h 7.45 V 47 H 57.55 65 V 61.4 H 42.95 v -7.25" />
    <path
       id="Layer42_0_3_STROKES"
       stroke="#626262"
       stroke-width="4"
       stroke-linejoin="round"
       stroke-linecap="round"
       fill="none"
       d="m 50,22.8 q 11.3,0 19.25,7.95 Q 77.2,38.7 77.2,50 77.2,61.3 69.25,69.25 61.3,77.2 50,77.2 38.75,77.2 30.75,69.25 22.8,61.3 22.8,50 22.8,38.7 30.75,30.75 38.75,22.8 50,22.8 Z" />
    <path
       id="Layer41_0_1_STROKES"
       stroke="#1b1b1b"
       stroke-width="5"
       stroke-linejoin="round"
       stroke-linecap="round"
       fill="none"
       d="M 34.85,65.15 H 12.5 Q 7.85,64.05 7.15,59.8 V 40.2 q 0.6,-4.35 5.35,-5.35 H 34.85 V 12.5 q 1.1,-4.65 5.35,-5.35 h 19.6 q 4.35,0.6 5.35,5.35 V 34.85 H 87.5 q 4.75,1 5.35,5.35 v 19.6 q -0.7,4.25 -5.35,5.35 H 65.15" />
    <path
       id="Layer41_0_2_STROKES"
       stroke="url(#Gradient_3)"
       stroke-width="4"
       stroke-linejoin="round"
       stroke-linecap="round"
       fill="none"
       d="m 85.35,42.35 v 15.3 h -20.2 q -3.1,0 -5.3,2.2 -2.2,2.2 -2.2,5.3 v 20.2 h -15.3 v -20.2 q 0,-3.1 -2.2,-5.3 -2.2,-2.2 -5.3,-2.2 h -20.2 v -15.3 h 20.2 q 3.1,0 5.3,-2.2 2.2,-2.2 2.2,-5.3 v -20.2 h 15.3 v 20.2 q 0,3.1 2.2,5.3 2.2,2.2 5.3,2.2 z" />
    <path
       id="Layer41_0_3_STROKES"
       stroke="url(#Gradient_4)"
       stroke-width="5"
       stroke-linejoin="round"
       stroke-linecap="round"
       fill="none"
       d="M 65.15,65.15 V 87.5 q -1,4.75 -5.35,5.35 H 40.2 Q 35.95,92.15 34.85,87.5 V 65.15" />
    <path
       id="Layer40_0_1_STROKES"
       stroke="#1b1b1b"
       stroke-width="5"
       stroke-linejoin="round"
       stroke-linecap="round"
       fill="none"
       d="M 34.85,34.85 V 12.5 q 1.1,-4.65 5.35,-5.35 h 19.6 q 4.35,0.6 5.35,5.35 V 34.85 H 87.5 q 4.65,1.1 5.35,5.35 v 19.6 q -0.6,4.35 -5.35,5.35 H 65.15 V 87.5 q -1,4.75 -5.35,5.35 H 40.2 Q 35.95,92.15 34.85,87.5 V 65.15" />
    <path
       id="Layer40_0_2_STROKES"
       stroke="url(#Gradient_7)"
       stroke-width="4"
       stroke-linejoin="round"
       stroke-linecap="round"
       fill="none"
       d="m 85.35,42.35 v 15.3 h -20.2 q -3.1,0 -5.3,2.2 -2.2,2.2 -2.2,5.3 v 20.2 h -15.3 v -20.2 q 0,-3.1 -2.2,-5.3 -2.2,-2.2 -5.3,-2.2 h -20.2 v -15.3 h 20.2 q 3.1,0 5.3,-2.2 2.2,-2.2 2.2,-5.3 v -20.2 h 15.3 v 20.2 q 0,3.1 2.2,5.3 2.2,2.2 5.3,2.2 z" />
    <path
       id="Layer40_0_3_STROKES"
       stroke="url(#Gradient_8)"
       stroke-width="5"
       stroke-linejoin="round"
       stroke-linecap="round"
       fill="none"
       d="M 34.85,65.15 H 12.5 Q 7.75,64.15 7.15,59.8 V 40.2 q 0.7,-4.25 5.35,-5.35 h 22.35" />
    <path
       id="Layer39_0_1_STROKES"
       stroke="#1b1b1b"
       stroke-width="5"
       stroke-linejoin="round"
       stroke-linecap="round"
       fill="none"
       d="M 65.15,34.85 H 87.5 q 4.65,1.1 5.35,5.35 v 19.6 q -0.6,4.35 -5.35,5.35 H 65.15 V 87.5 q -1.1,4.65 -5.35,5.35 H 40.2 Q 35.85,92.25 34.85,87.5 V 65.15 H 12.5 Q 7.75,64.15 7.15,59.8 V 40.2 q 0.7,-4.25 5.35,-5.35 h 22.35" />
    <path
       id="Layer39_0_2_STROKES"
       stroke="url(#Gradient_11)"
       stroke-width="4"
       stroke-linejoin="round"
       stroke-linecap="round"
       fill="none"
       d="m 85.35,42.35 v 15.3 h -20.2 q -3.1,0 -5.3,2.2 -2.2,2.2 -2.2,5.3 v 20.2 h -15.3 v -20.2 q 0,-3.1 -2.2,-5.3 -2.2,-2.2 -5.3,-2.2 h -20.2 v -15.3 h 20.2 q 3.1,0 5.3,-2.2 2.2,-2.2 2.2,-5.3 v -20.2 h 15.3 v 20.2 q 0,3.1 2.2,5.3 2.2,2.2 5.3,2.2 z" />
    <path
       id="Layer39_0_3_STROKES"
       stroke="url(#Gradient_12)"
       stroke-width="5"
       stroke-linejoin="round"
       stroke-linecap="round"
       fill="none"
       d="M 34.85,34.85 V 12.5 q 1,-4.75 5.35,-5.35 h 19.6 q 4.25,0.7 5.35,5.35 v 22.35" />
    <path
       id="Layer38_0_1_STROKES"
       stroke="#1b1b1b"
       stroke-width="5"
       stroke-linejoin="round"
       stroke-linecap="round"
       fill="none"
       d="M 65.15,65.15 V 87.5 q -1.1,4.65 -5.35,5.35 H 40.2 Q 35.85,92.25 34.85,87.5 V 65.15 H 12.5 Q 7.85,64.05 7.15,59.8 V 40.2 q 0.6,-4.35 5.35,-5.35 H 34.85 V 12.5 q 1,-4.75 5.35,-5.35 h 19.6 q 4.25,0.7 5.35,5.35 v 22.35" />
    <path
       id="Layer38_0_2_STROKES"
       stroke="url(#Gradient_15)"
       stroke-width="4"
       stroke-linejoin="round"
       stroke-linecap="round"
       fill="none"
       d="m 85.35,42.35 v 15.3 h -20.2 q -3.105078,0.0016 -5.3,2.2 -2.198438,2.194922 -2.2,5.3 v 20.2 h -15.3 v -20.2 q -0.0018,-3.105078 -2.2,-5.3 -2.195117,-2.198438 -5.3,-2.2 h -20.2 v -15.3 h 20.2 q 3.104883,-0.0018 5.3,-2.2 2.198242,-2.195117 2.2,-5.3 v -20.2 h 15.3 v 20.2 q 0.0016,3.104883 2.2,5.3 2.194922,2.198242 5.3,2.2 z" />
    <path
       id="Layer38_0_3_STROKES"
       stroke="url(#Gradient_16)"
       stroke-width="5"
       stroke-linejoin="round"
       stroke-linecap="round"
       fill="none"
       d="M 65.15,34.85 H 87.5 q 4.75,1 5.35,5.35 v 19.6 q -0.7,4.25 -5.35,5.35 H 65.15" />
    <path
       id="Layer37_0_1_STROKES"
       stroke="#626262"
       stroke-width="4"
       stroke-linejoin="round"
       stroke-linecap="round"
       fill="none"
       d="m 85.35,42.35 v 15.3 h -20.2 q -3.105078,0.0016 -5.3,2.2 -2.198438,2.194922 -2.2,5.3 v 20.2 h -15.3 v -20.2 q -0.0018,-3.105078 -2.2,-5.3 -2.195117,-2.198438 -5.3,-2.2 h -20.2 v -15.3 h 20.2 q 3.104883,-0.0018 5.3,-2.2 2.198242,-2.195117 2.2,-5.3 v -20.2 h 15.3 v 20.2 q 0.0016,3.104883 2.2,5.3 2.194922,2.198242 5.3,2.2 z" />
    <path
       id="Layer37_0_2_STROKES"
       stroke="#1b1b1b"
       stroke-width="5"
       stroke-linejoin="round"
       stroke-linecap="round"
       fill="none"
       d="m 87.5,34.85 q 4.75,1 5.35,5.35 v 19.6 q -0.7,4.25 -5.35,5.35 H 65.15 V 87.5 q -1.1,4.65 -5.35,5.35 H 40.2 Q 35.85,92.25 34.85,87.5 V 65.15 H 12.5 Q 7.85,64.05 7.15,59.8 V 40.2 q 0.6,-4.35 5.35,-5.35 H 34.85 V 12.5 q 1,-4.75 5.35,-5.35 h 19.6 q 4.25,0.7 5.35,5.35 v 22.35 z" />
    <path
       id="Layer36_0_1_STROKES"
       stroke="#626262"
       stroke-width="4"
       stroke-linejoin="round"
       stroke-linecap="round"
       fill="none"
       d="m 55,33.65 q 7.8,-0.4 8.2,6.65 v 26.05 q -0.15,4.85 -5.6,4.8 H 20.65 L 20.55,54 Q 21.75,41.65 34.8,37.6 47.85,33.45 55,33.65 Z" />
    <path
       id="Layer36_0_2_STROKES"
       stroke="#1b1b1b"
       stroke-width="5"
       stroke-linejoin="round"
       stroke-linecap="round"
       fill="none"
       d="M 90.4,67.4 V 31.2 Q 89.7,20 77.25,21.6 64.9,23.15 39.2,27.7 13.6,32.3 13.1,55.95 v 16.4 Q 14,78 19.35,78.6 h 58.6 Q 90.1,78.1 90.4,67.4 Z" />
    <path
       id="Layer35_0_1_STROKES"
       stroke="#626262"
       stroke-width="4"
       stroke-linejoin="round"
       stroke-linecap="round"
       fill="none"
       d="m 82.95,54 -0.1,17.15 H 45.9 q -5.45,0.05 -5.6,-4.8 V 40.3 q 0.4,-7.05 8.2,-6.65 7.15,-0.2 20.2,3.95 13.05,4.05 14.25,16.4 z" />
    <path
       id="Layer35_0_2_STROKES"
       stroke="#1b1b1b"
       stroke-width="5"
       stroke-linejoin="round"
       stroke-linecap="round"
       fill="none"
       d="M 90.4,72.35 V 55.95 Q 89.9,32.3 64.3,27.7 38.6,23.15 26.25,21.6 13.8,20 13.1,31.2 v 36.2 q 0.3,10.7 12.45,11.2 h 58.6 Q 89.5,78 90.4,72.35 Z" />
    <path
       id="Layer34_0_1_STROKES"
       stroke="#626262"
       stroke-width="4"
       stroke-linejoin="round"
       stroke-linecap="round"
       fill="none"
       d="m 56.4,18.7 q 3.945312,0.921875 4.65,2.7 0.703516,1.783594 0.475,4.6 -0.226172,2.805469 -0.375,7 -0.1,3.4 -0.55,6.85 -0.4,3.35 -1.05,6.7 -0.65,3.35 -1.5,6.65 -1.15,4.55 -2.9,9 -1.75,4.35 -4.25,8.35 -1.75,2.8 -3.65,5.5 -1.5,2.15 -3.15,4.15 -1.65,1.95 -4.15,2.65 -2.2,0.75 -4.5,0.9 -4.5,0.3 -8.4,-2.05 -4.6,-2.75 -4.5,-8.05 0.1,-3.4 0.6,-6.75 0.5,-3.6 0.8,-7.2 0.3,-3.8 0.45,-7.6 0.15,-4 0.1,-8 0,-2.55 -0.25,-5.05 -0.45,-4.9 -1.05,-9.8 -0.35,-2.8 -0.65,-5.65 -0.2,-1.6 0.75,-3.05 0.75,-1.05 3.2,-1.85 z" />
    <path
       id="Layer34_0_2_STROKES"
       stroke="#1b1b1b"
       stroke-width="5"
       stroke-linejoin="round"
       stroke-linecap="round"
       fill="none"
       d="M 51.75,88.675 Q 59.85,85 63.3,76.6 q 0.45,-1.05 0.95,-2.1 5.073047,-9.650781 11.275,-13.375 6.193945,-3.72793 7.175,-8.075 0.01699,-0.075 0.025,-0.15 1.025,-4 1.325,-8.2 0.3,-3.65 0.2,-7.55 v -6.4 Q 83.35,14.35 66.3,12.3 H 23.05 q -7.861523,2.350977 -6.95,14 3.55,21.25 0,44.3 -1.2,6.85 3.9,13.85 5.1,4.7 13.15,5.95 10.402148,1.635547 18.6,-1.725 z" />
    <path
       id="Layer33_0_1_STROKES"
       stroke="#626262"
       stroke-width="4"
       stroke-linejoin="round"
       stroke-linecap="round"
       fill="none"
       d="m 43.7,18.7 q -3.95,0.9 -4.65,2.7 -0.7,1.8 -0.5,4.6 0.25,2.8 0.4,7 0.1,3.4 0.55,6.85 0.4,3.35 1.05,6.7 0.65,3.35 1.5,6.65 1.15,4.55 2.9,9 1.75,4.35 4.25,8.35 1.75,2.8 3.65,5.5 1.5,2.15 3.15,4.15 1.65,1.95 4.15,2.65 2.2,0.75 4.5,0.9 4.5,0.3 8.4,-2.05 4.6,-2.75 4.5,-8.05 -0.1,-3.4 -0.6,-6.75 -0.5,-3.6 -0.8,-7.2 -0.3,-3.8 -0.45,-7.6 -0.15,-4 -0.1,-8 0,-2.55 0.25,-5.05 0.45,-4.9 1.05,-9.8 0.35,-2.8 0.65,-5.65 Q 77.75,22 76.8,20.55 76.05,19.5 73.6,18.7 Z" />
    <path
       id="Layer33_0_2_STROKES"
       stroke="#1b1b1b"
       stroke-width="5"
       stroke-linejoin="round"
       stroke-linecap="round"
       fill="none"
       d="m 84,26.3 q -3.55,21.25 0,44.3 1.2,6.85 -3.9,13.85 Q 75,89.15 66.95,90.4 56.55,92.05 48.35,88.7 40.25,85 36.8,76.6 36.35,75.55 35.85,74.5 30.8,64.85 24.55,61.15 18.4,57.4 17.4,53.05 17.4,53 17.35,52.9 q -1,-4 -1.3,-8.2 -0.3,-3.65 -0.2,-7.55 v -6.4 Q 16.75,14.35 33.8,12.3 h 43.25 q 7.85,2.35 6.95,14 z" />
    <path
       id="Layer32_0_1_STROKES"
       stroke="#151515"
       stroke-width="4"
       stroke-linejoin="round"
       stroke-linecap="round"
       fill="none"
       d="M 30.7,68.8 V 60.55 Q 30.55,55 25.5,53.05 21.4,52.05 16.45,49.8 7.65,45.65 9.7,37.55 10.75,34 12.8,31.9 14.7,29.25 23.2,27.3 34.3,24.7 50,24.7 q 14.45,0 25.1,2.2 0.9,0.2 1.8,0.4 6.3,1.45 8.85,3.35 3.15,2.1 4.6,6.9 2.05,8.1 -6.75,12.25 -4.95,2.25 -9.05,3.25 -5.05,1.95 -5.2,7.5 v 8.3 q 1,0.35 1.95,0.75 0.1,0 0.15,0.05 8.9,3.9 8.9,9.45 0,5.55 -8.9,9.4 -8.9,3.9 -21.45,3.9 -12.55,0 -21.45,-3.9 -8.9,-3.85 -8.9,-9.4 0,-5.55 8.9,-9.45 1.05,-0.45 2.15,-0.85 v 7.5 q -0.15,2.8 5.45,4.75 5.75,2 13.8,2 8.05,0 13.75,-2 5.65,-1.95 5.65,-4.75 v -7.45" />
    <path
       id="Layer32_0_2_STROKES"
       stroke="#6c6c6c"
       stroke-width="0.1"
       stroke-linejoin="round"
       stroke-linecap="round"
       fill="none"
       d="m 81.7,35.3 q 0,-0.15 -0.05,-0.25 -0.05,-0.15 -0.1,-0.3 m -63.05,0 q -0.15,0.35 -0.1,0.75" />
    <path
       id="Layer32_0_3_STROKES"
       stroke="#6c6c6c"
       stroke-width="3"
       stroke-linejoin="round"
       stroke-linecap="round"
       fill="none"
       d="m 18.4,35.5 q -0.25,2.8 8.95,4.75 9.4,2 22.55,2 13.2,0 22.55,-2 9.25,-1.95 9.25,-4.75" />
    <path
       id="Layer31_0_1_STROKES"
       stroke="#151515"
       stroke-width="4"
       stroke-linejoin="round"
       stroke-linecap="round"
       fill="none"
       d="M 30.7,68.8 V 60.55 Q 30.55,55 25.5,53.05 21.4,52.05 16.45,49.8 7.65,45.65 9.7,37.55 10.75,34 12.8,31.9 14.7,29.25 23.2,27.3 34.3,24.7 50,24.7 q 14.45,0 25.1,2.2 0.9,0.2 1.8,0.4 6.3,1.45 8.85,3.35 3.15,2.1 4.6,6.9 2.05,8.1 -6.75,12.25 -4.95,2.25 -9.05,3.25 -5.05,1.95 -5.2,7.5 v 8.3 q 1,0.35 1.95,0.75 0.1,0 0.15,0.05 8.9,3.9 8.9,9.45 0,5.55 -8.9,9.4 -8.9,3.9 -21.45,3.9 -12.55,0 -21.45,-3.9 -8.9,-3.85 -8.9,-9.4 0,-5.55 8.9,-9.45 1.05,-0.45 2.15,-0.85 v 7.5 q -0.15,2.8 5.45,4.75 5.75,2 13.8,2 8.05,0 13.75,-2 5.65,-1.95 5.65,-4.75 v -7.45" />
    <path
       id="Layer31_0_2_STROKES"
       stroke="#6c6c6c"
       stroke-width="0.1"
       stroke-linejoin="round"
       stroke-linecap="round"
       fill="none"
       d="m 81.7,35.3 q 0,-0.15 -0.05,-0.25 -0.05,-0.15 -0.1,-0.3 m -63.05,0 q -0.15,0.35 -0.1,0.75" />
    <path
       id="Layer31_0_3_STROKES"
       stroke="#6c6c6c"
       stroke-width="3"
       stroke-linejoin="round"
       stroke-linecap="round"
       fill="none"
       d="m 18.4,35.5 q -0.25,2.8 8.95,4.75 9.4,2 22.55,2 13.2,0 22.55,-2 9.25,-1.95 9.25,-4.75" />
    <path
       id="Layer30_0_1_STROKES"
       stroke="#151515"
       stroke-width="4"
       stroke-linejoin="round"
       stroke-linecap="round"
       fill="none"
       d="M 50,7.8 Q 67.5,7.8 79.85,20.15 92.2,32.5 92.2,50 92.2,67.5 79.85,79.85 67.5,92.2 50,92.2 32.5,92.2 20.15,79.85 7.8,67.5 7.8,50 7.8,32.5 20.15,20.15 32.5,7.8 50,7.8 Z m 0,8.15 q 14.2,0 24.1,10 10,9.95 10,24.05 0,14.2 -10,24.1 -9.9,10 -24.1,10 -14.1,0 -24.05,-10 -10,-9.9 -10,-24.1 0,-14.1 10,-24.05 9.95,-10 24.05,-10 z" />
    <path
       id="Layer29_0_1_STROKES"
       stroke="#151515"
       stroke-width="4"
       stroke-linejoin="round"
       stroke-linecap="round"
       fill="none"
       d="m 50,15.95 q 14.2,0 24.1,10 10,9.95 10,24.05 0,14.2 -10,24.1 -9.9,10 -24.1,10 -14.1,0 -24.05,-10 -10,-9.9 -10,-24.1 0,-14.1 10,-24.05 9.95,-10 24.05,-10 z M 50,7.8 Q 67.5,7.8 79.85,20.15 92.2,32.5 92.2,50 92.2,67.5 79.85,79.85 67.5,92.2 50,92.2 32.5,92.2 20.15,79.85 7.8,67.5 7.8,50 7.8,32.5 20.15,20.15 32.5,7.8 50,7.8 Z" />
    <path
       id="Layer24_0_1_STROKES"
       stroke="#ffffff"
       stroke-width="3"
       stroke-linejoin="round"
       stroke-linecap="round"
       fill="none"
       d="m 151.85,-145.5 q 1.35,-0.15 3.7,-1.3 2.35,-1.15 10.9,-6.25 1.05,-0.65 2.1,-1.2 4.75,-2.5 10,-3.65 5.4,-1.15 10.7,-0.8 3.15,0.1 6.25,0.3 2.2,0.1 4.4,0.25 4.5,0.4 9.05,0.7 4.4,-8.85 7.35,-19.65 3.2,-11.9 4.7,-15.3 1.5,-3.45 6.85,-3.95 5.4,-0.55 20.3,2.5 7.65,1.8 9.3,2.95 1.65,1.15 7,10.25 5.4,9.1 12,24.15 6.6,15 9.5,22 2.4,2 4.35,4.4 l 3.5,6.4 q 9.8,9.45 15.35,16.4 1.35,1.85 2.6,3.75 3.75,5.6 5.95,12 6.9,17.2 12.8,32.25 52,134.45 54.75,192.15 0.05,1.1 0.1,2.15 0.15,4.3 0.15,8.65 -0.05,4.55 -0.3,9.1 -0.25,4.5 -0.75,9 -0.5,4.1 -1.2,8.2 -0.7,4 -1.7,7.95 -1.2,4.75 -2.8,9.4 -0.85,2.4 -1.8,4.75 -0.9,2.1 -1.9,4.15 -1.9,4 -4.35,7.75 -2.4,3.65 -5.2,7.05 -2.5,3.05 -5.25,5.9 -2.7,2.75 -5.6,5.4 -3.7,3.3 -7.6,6.35 -3.9,2.95 -8,5.7 -3.05,1.95 -6.35,3.4 -4.45,1.85 -9.05,2.6 -2.35,0.2 -4.7,0.4 -4.6,0.1 -9,-1 -2.15,-0.65 -4.3,-1.4 -2.3,-0.9 -4.55,-1.95 -4.4,-1.85 -8.6,-4.2 -3.65,-1.95 -7.15,-4.5 -5,-3.2 -10.9,-7.35 -29.7,-20.85 -41.85,-28.3 -1.65,-1 -2.95,-1.75 -18.4,-10.7 -36.95,-14.8 -18.35,-4 -52.15,-4.9 -14.1,-0.4 -69,-0.45 -3.4,0 -6.95,0 -0.25,0 -0.5,0 -0.25,0 -0.45,0 -0.25,0 -0.5,0 -0.25,0 -0.5,0 -0.25,0 -0.5,0 -0.25,0 -0.5,0 -0.25,0 -0.5,0 -0.25,0 -0.5,0 -0.25,0 -0.5,0 -0.25,0 -0.5,0 -0.25,0 -0.5,0 -0.3,0 -0.55,0 -0.25,0 -0.5,0 -0.3,0 -0.55,0 -0.8,0 -1.6,0 -0.8,0 -1.6,0 h -6.8 q -71.15,0 -87.5,0.45 -33.8,0.9 -52.15,4.9 -18.55,4.1 -36.95,14.8 -1.3,0.75 -2.9,1.75 -12.2,7.45 -41.9,28.3 -5.9,4.15 -10.9,7.35 -3.5,2.55 -7.15,4.5 -4.2,2.35 -8.6,4.2 -2.25,1.05 -4.55,1.95 -2.15,0.75 -4.3,1.4 -4.4,1.1 -9,1 -2.35,-0.2 -4.7,-0.4 -4.6,-0.75 -9.05,-2.6 -3.3,-1.45 -6.35,-3.4 -4.1,-2.75 -8,-5.7 -3.9,-3.05 -7.6,-6.35 -2.9,-2.65 -5.6,-5.4 -2.75,-2.85 -5.25,-5.9 -2.8,-3.4 -5.2,-7.05 -2.45,-3.75 -4.35,-7.75 -1,-2.05 -1.85,-4.15 -1,-2.35 -1.85,-4.75 -1.6,-4.65 -2.8,-9.4 -1,-3.95 -1.7,-7.95 -0.7,-4.1 -1.2,-8.2 -0.5,-4.5 -0.75,-9 -0.25,-4.55 -0.3,-9.1 0,-4.35 0.15,-8.65 0.05,-1.05 0.1,-2.15 2.75,-57.7 54.75,-192.15 5.9,-15.05 12.8,-32.25 2.2,-6.4 5.95,-12 1.25,-1.9 2.6,-3.75 5.55,-6.95 15.35,-16.4 l 3.5,-6.4 q 1.95,-2.4 4.35,-4.4 2.9,-7 9.5,-22 6.6,-15.05 12,-24.15 5.35,-9.1 7,-10.25 1.65,-1.15 9.3,-2.95 14.9,-3.05 20.3,-2.5 5.35,0.5 6.85,3.95 1.5,3.4 4.7,15.3 2.95,10.8 7.35,19.65 4.55,-0.3 9.05,-0.7 2.2,-0.15 4.4,-0.25 3.1,-0.2 6.25,-0.3 5.3,-0.35 10.7,0.8 5.25,1.15 10,3.65 1.05,0.55 2.1,1.2 8.55,5.1 10.9,6.25 2.35,1.15 3.7,1.3 3.25,0.3 8.7,0.3 h 185.7 q 5.45,0 8.7,-0.3 -2.65,5.75 -4.1,9.6 -1.4,3.8 -1.55,4 2.45,-0.35 3.95,-0.95 5,-1.95 18.75,-7.3 13.75,-5.35 20.6,-5.1 2.85,0.1 6,0.25 4.5,0.25 9.75,0.65 8.9,0.65 29.1,4.85 20.2,4.15 29.3,6.15 0.9,0.2 1.8,0.45 4.75,1 9.5,2.15 2.1,0.4 4.2,0.85 4.6,1.1 9.45,1.15 1.65,0.05 1.7,-1.35 m 4.5,25.65 q -2.2,-0.7 -5.05,-1.5 -11.35,-3.35 -36.2,-8.7 -24.8,-5.4 -33.5,-7.15 -16.15,-3.25 -29.25,-3.05 -15.25,0.25 -31.5,5.05 -2.25,0.65 -4.6,0.95 l -9.35,0.45 -8.25,0.35 q -2.45,0.05 -5.05,0.1 L -35.45,-118 q -0.55,-0.05 -1.05,-0.05 l -8.25,-0.35 -9.35,-0.45 q -2.35,-0.3 -4.6,-0.95 -16.25,-4.8 -31.5,-5.05 -13.1,-0.2 -29.25,3.05 -8.7,1.75 -33.5,7.15 -24.85,5.35 -36.2,8.7 -2.85,0.8 -5.05,1.5 m -5.15,-3.7 q 0.2,-0.55 0.4,-1.1 l 0.15,-0.55 q 0.2,-0.7 0.4,-1.3 0.2,-0.55 1.25,-3.15 1.05,-2.65 3.95,-9.45 m 338.55,5.3 0.85,-13.5 q -4.45,0.7 -12.05,0.7 h -167.7 q -7.6,0 -12.05,-0.7 l 0.85,13.5 m 121.4,42.85 q 0,10.75 -7.65,18.25 -7.55,7.65 -18.25,7.65 -10.7,0 -18.35,-7.65 -2.1,-2.1 -3.6,-4.45 -3.9,-6.05 -3.9,-13.8 0,-10.7 7.5,-18.3 7.65,-7.55 18.35,-7.55 10.7,0 18.25,7.55 7.65,7.6 7.65,18.3 z m -62.4,68.1 q 0,-5.9 -4.15,-10.05 -4.2,-4.2 -10.1,-4.2 -5.9,0 -10.05,4.2 -4.2,4.15 -4.2,10.05 0,5.9 4.2,10.1 Q -5.9,6.8 0,6.8 q 5.9,0 10.1,-4.15 4.15,-4.2 4.15,-10.1 z M 115.1,-7.5 q 0,-5.9 -4.15,-10.05 -4.2,-4.2 -10.1,-4.2 -5.9,0 -10.05,4.2 -4.2,4.15 -4.2,10.05 0,5.9 4.2,10.1 4.15,4.15 10.05,4.15 5.9,0 10.1,-4.15 4.15,-4.2 4.15,-10.1 z M 248,-151.65 q 8.3,1.8 15.15,4.55 7.25,2.85 10.65,4.4 3.8,2.05 7.35,4.6 1.65,1.2 3.3,2.4 0.6,0.45 1.2,0.95 0.15,0.15 0.3,0.25 m 7.85,10.8 q 2.9,6.8 3.95,9.45 1.05,2.6 1.25,3.15 0.2,0.6 0.4,1.3 l 0.15,0.55 q 0.2,0.55 0.4,1.1 m -0.05,0.05 q -0.15,-0.55 -0.35,-1.15 m -90.6,-48.2 q 0.85,0.05 1.75,0.1 5.65,0.45 11.35,1.05 8.65,1.15 17,2.85 3.1,0.6 8.95,1.8 M 204.75,-8.2 q 0,-0.35 0,-0.7 -0.25,-8.65 -6.45,-14.85 -3.55,-3.55 -7.85,-5.1 -3.45,-1.3 -7.4,-1.35 -0.15,0 -0.35,0 -9.15,0 -15.6,6.45 -6.45,6.45 -6.45,15.55 0,9.1 6.45,15.55 6.45,6.45 15.6,6.45 0.2,0 0.35,0 8.9,-0.1 15.25,-6.45 6.45,-6.45 6.45,-15.55 z m 95.5,-3.65 q 0,-9.15 -6.45,-15.6 -6.5,-6.45 -15.65,-6.45 -5.3,0 -9.7,2.2 -3.2,1.55 -5.9,4.25 -6.5,6.45 -6.5,15.6 0,1.5 0.2,2.95 0.85,7.25 6.3,12.65 6.45,6.45 15.6,6.45 9.15,0 15.65,-6.45 6.45,-6.45 6.45,-15.6 z m -49,45.7 q 0,-9.15 -6.45,-15.6 -6.45,-6.45 -15.6,-6.45 -9.15,0 -15.6,6.45 -2.5,2.5 -4.05,5.45 -1,1.9 -1.6,4 -0.8,2.9 -0.8,6.15 0,9.15 6.45,15.6 6.45,6.45 15.6,6.45 9.15,0 15.6,-6.45 6.45,-6.45 6.45,-15.6 z m -145.3,81.9 q -5.3,-9.15 -5.3,-20.5 0,-17.25 12.2,-29.45 12.15,-12.2 29.4,-12.2 4.8,0 9.2,0.95 11.45,2.45 20.25,11.25 1.85,1.85 3.4,3.8 8.8,11 8.8,25.65 0,5.7 -1.55,11.3 -1.35,4.85 -3.7,9.05 -2.35,9.65 -9.9,17.15 -10.95,11 -26.5,11 -15.5,0 -26.5,-11 -7.45,-7.45 -9.8,-17 -1.15,-4.5 -1.15,-9.5 0,-15.5 10.95,-26.5 11,-10.95 26.5,-10.95 15.55,0 26.5,10.95 11,11 11,26.5 0,4.9 -1.1,9.35 M -37.15,49.5 q 6.65,0.25 13.1,2.15 0.75,0.2 1.25,0.85 0.45,0.65 0.45,1.45 v 20.5 q 0,0.9 0.65,1.65 0.6,0.65 1.55,0.7 L 5.3,78.25 q 1.5,0.1 2.1,1.45 2.8,7.35 2.8,15.1 0,7.85 -2.85,15.2 -0.55,1.35 -2.1,1.45 l -25.4,1.45 q -0.95,0.1 -1.55,0.75 -0.65,0.65 -0.65,1.6 v 20.45 q 0,0.8 -0.45,1.45 -0.5,0.6 -1.25,0.8 -6.5,2 -13.55,2.25 -0.55,0 -1,0 h -2.1 q -0.55,0 -1.05,0 -7.05,-0.25 -13.55,-2.25 -0.8,-0.2 -1.25,-0.8 -0.5,-0.65 -0.5,-1.45 v -20.45 q 0,-0.95 -0.6,-1.6 -0.65,-0.65 -1.6,-0.75 l -25.4,-1.45 q -1.55,-0.1 -2.05,-1.45 -2.9,-7.35 -2.9,-15.2 0,-7.75 2.85,-15.1 0.55,-1.35 2.05,-1.45 l 25.45,-1.45 q 0.95,-0.05 1.6,-0.7 0.6,-0.75 0.6,-1.65 v -20.5 q 0,-0.8 0.5,-1.45 0.45,-0.65 1.25,-0.85 6.45,-1.9 13.05,-2.15 0.6,-0.05 1.3,-0.05 l 1.3,-0.05 q 0.1,0 0.2,0 l 1.9,0.05 q 0.25,0 0.4,0.05 z M -189.7,-130.1 q 0.05,1.4 1.7,1.35 4.85,-0.05 9.45,-1.15 2.1,-0.45 4.2,-0.85 4.75,-1.15 9.5,-2.15 0.9,-0.25 1.8,-0.45 9.1,-2 29.3,-6.15 20.2,-4.2 29.1,-4.85 5.25,-0.4 9.75,-0.65 3.15,-0.15 6,-0.25 6.85,-0.25 20.6,5.1 13.75,5.35 18.75,7.3 1.5,0.6 3.95,0.95 -0.15,-0.2 -1.55,-4 -1.45,-3.85 -4.1,-9.6 m -57.1,-11.95 q -0.85,0.05 -1.75,0.1 -5.65,0.45 -11.35,1.05 -8.65,1.15 -17,2.85 -3.1,0.6 -8.95,1.8 -8.3,1.8 -15.15,4.55 -7.25,2.85 -10.65,4.4 -3.8,2.05 -7.35,4.6 -1.65,1.2 -3.3,2.4 -0.6,0.45 -1.2,0.95 -0.15,0.15 -0.3,0.25 m -13.95,26.4 q 0.15,-0.55 0.35,-1.15 M -90.75,15.5 q 1.1,-4.45 1.1,-9.35 0,-15.5 -11,-26.5 -10.95,-10.95 -26.5,-10.95 -15.5,0 -26.5,10.95 -10.95,11 -10.95,26.5 0,5 1.15,9.5 2.35,9.55 9.8,17 11,11 26.5,11 15.55,0 26.5,-11 7.55,-7.5 9.9,-17.15 2.35,-4.2 3.7,-9.05 1.55,-5.6 1.55,-11.3 0,-17.25 -12.2,-29.45 -12.2,-12.2 -29.45,-12.2 -17.25,0 -29.4,12.2 -12.2,12.2 -12.2,29.45 0,11.35 5.3,20.5" />
    <path
       id="Layer24_0_2_STROKES"
       stroke="#ffffff"
       stroke-width="2"
       stroke-linejoin="round"
       stroke-linecap="round"
       fill="none"
       d="m 68.7,-93.1 q -2,0.3 -3.75,1.2 -1.05,0.6 -2.5,1.7 -1.5,1.15 -2.05,1.8 -1.5,1.7 -0.35,3.05 4,4.8 6.9,9.75 4.4,7.6 5,13.8 m -4.3,4.8 q 1.1,-3.1 -5.55,-11.65 -4.1,-5.25 -10.65,-10.1 -0.5,-0.35 -1.1,-0.35 -0.6,0 -1.05,0.35 -6.35,4.55 -10.7,10.15 -6.6,8.5 -5.5,11.6 m 28.3,-41.25 q -1.5,0.4 -3.45,1.05 -3.9,1.35 -6.45,2.95 -1.15,0.75 -2.3,0 -2.55,-1.6 -6.45,-2.95 l -3.4,-1.05 m -7.3,5.15 1.2,0.25 q 1.45,0.4 2.55,1 1,0.55 2.5,1.65 1.5,1.15 2.05,1.8 1.5,1.7 0.35,3.05 -3.95,4.7 -6.9,9.75 -4.4,7.6 -5,13.85 M 6.85,-1.05 h -8.3 v -6.5 h 8.3 z" />
    <path
       id="Layer24_0_3_STROKES"
       stroke="#ffffff"
       stroke-width="2"
       stroke-linejoin="round"
       stroke-linecap="butt"
       fill="none"
       d="m -4.55,-6.2 h -2.8 v -6.5 H 1 v 2.3 m 93.35,3.45 H 107.9 M 94.35,-2.5 h 13.55 m -13.55,-8.9 h 13.55" />
    <path
       id="Layer24_0_4_STROKES"
       stroke="#ffffff"
       stroke-width="3"
       stroke-linejoin="round"
       stroke-linecap="butt"
       fill="none"
       d="m -194.2,-104.45 q -6,1.2 -5.1,-3.65 l -0.05,-0.05 m 499.3,0 -0.05,0.05 q 0.9,4.85 -5.1,3.65" />
    <path
       id="Layer24_0_5_STROKES"
       stroke="#ffffff"
       stroke-width="3"
       stroke-linejoin="bevel"
       stroke-linecap="square"
       fill="none"
       d="m 217.3,-37.15 q 1.25,1.05 2.6,1.9 0.3,0.2 0.6,0.4 6.4,3.8 14.2,2.85 8.35,-1.3 13.45,-7.4 0.9,-1.1 1.7,-2.35 5.6,-8.6 2.6,-18.5 -3,-9.85 -12.5,-13.75 -9.45,-3.9 -18.5,0.8 -9.15,4.85 -11.2,15 -1.65,8.15 2.15,14.95 1,1.75 2.35,3.45 0.15,0.2 0.35,0.4 0.6,0.7 1.2,1.35" />
    <path
       id="Layer24_0_6_STROKES"
       stroke="#ffffff"
       stroke-width="1"
       stroke-linejoin="bevel"
       stroke-linecap="square"
       fill="none"
       d="m 216.3,-38.05 q 0.1,0.1 0.2,0.2 0.35,0.35 0.8,0.7" />
  </defs>
  <g
     id="g169"
     style="display:inline"
     inkscape:label="Diagram"
     transform="translate(298.7078,226.50481)">
    <use
       xlink:href="#Layer24_0_FILL"
       id="use163" />
    <use
       xlink:href="#Layer24_0_1_STROKES"
       id="use164"
       style="display:inline" />
    <use
       xlink:href="#Layer24_0_2_STROKES"
       id="use165"
       style="display:inline" />
    <use
       xlink:href="#Layer24_0_3_STROKES"
       id="use166"
       style="display:inline" />
    <use
       xlink:href="#Layer24_0_4_STROKES"
       id="use167"
       style="display:inline" />
    <use
       xlink:href="#Layer24_0_5_STROKES"
       id="use168"
       style="display:inline" />
    <use
       xlink:href="#Layer24_0_6_STROKES"
       id="use169"
       style="display:inline" />
  </g>
  <g
     id="g111"
     style="display:inline"
     inkscape:label="Menu"
     transform="matrix(0.40691121,0,0,0.40691121,379.30389,198.62676)">
    <use
       xlink:href="#Layer43_0_FILL"
       id="use108" />
    <use
       xlink:href="#Layer43_0_1_STROKES"
       id="use109" />
    <use
       xlink:href="#Layer43_0_2_STROKES"
       id="use110" />
    <use
       xlink:href="#Layer43_0_3_STROKES"
       id="use111" />
  </g>
  <g
     id="g115"
     style="display:inline"
     inkscape:label="Windows"
     transform="matrix(0.41246601,0,0,0.41246601,278.09356,198.57383)">
    <use
       xlink:href="#Layer42_0_FILL"
       id="use112" />
    <use
       xlink:href="#Layer42_0_1_STROKES"
       id="use113" />
    <use
       xlink:href="#Layer42_0_2_STROKES"
       id="use114" />
    <use
       xlink:href="#Layer42_0_3_STROKES"
       id="use115" />
  </g>
  <g
     id="g134"
     style="display:inline"
     inkscape:label="Dpad"
     transform="matrix(1.0363837,0,0,1.0363837,207.52448,269.46427)">
    <use
       xlink:href="#Layer37_0_FILL"
       id="use132" />
    <use
       xlink:href="#Layer37_0_1_STROKES"
       id="use133" />
    <use
       xlink:href="#Layer37_0_2_STROKES"
       id="use134" />
  </g>
  <g
     id="g119"
     style="display:inline"
     inkscape:label="Dpad_Down"
     transform="matrix(1.0363837,0,0,1.0363837,207.52462,269.46462)">
    <use
       xlink:href="#Layer41_0_FILL"
       id="use116" />
    <use
       xlink:href="#Layer41_0_1_STROKES"
       id="use117" />
    <use
       xlink:href="#Layer41_0_2_STROKES"
       id="use118" />
    <use
       xlink:href="#Layer41_0_3_STROKES"
       id="use119" />
  </g>
  <g
     id="g123"
     style="display:inline"
     inkscape:label="Dpad_Left"
     transform="matrix(1.0363837,0,0,1.0363837,207.52462,269.46462)">
    <use
       xlink:href="#Layer40_0_FILL"
       id="use120" />
    <use
       xlink:href="#Layer40_0_1_STROKES"
       id="use121" />
    <use
       xlink:href="#Layer40_0_2_STROKES"
       id="use122" />
    <use
       xlink:href="#Layer40_0_3_STROKES"
       id="use123" />
  </g>
  <g
     id="g127"
     style="display:inline"
     inkscape:label="Dpad_Up"
     transform="matrix(1.0363837,0,0,1.0363837,207.52462,269.46462)">
    <use
       xlink:href="#Layer39_0_FILL"
       id="use124" />
    <use
       xlink:href="#Layer39_0_1_STROKES"
       id="use125" />
    <use
       xlink:href="#Layer39_0_2_STROKES"
       id="use126" />
    <use
       xlink:href="#Layer39_0_3_STROKES"
       id="use127" />
  </g>
  <g
     id="g131"
     style="display:inline"
     inkscape:label="Dpad_Right"
     transform="matrix(1.0363837,0,0,1.0363837,207.52462,269.46462)">
    <use
       xlink:href="#Layer38_0_FILL"
       id="use128" />
    <use
       xlink:href="#Layer38_0_1_STROKES"
       id="use129" />
    <use
       xlink:href="#Layer38_0_2_STROKES"
       id="use130" />
    <use
       xlink:href="#Layer38_0_3_STROKES"
       id="use131" />
  </g>
  <g
     id="g143"
     style="display:inline"
     inkscape:label="LT"
     transform="translate(100.82342,15.935526)">
    <use
       xlink:href="#Layer34_0_FILL"
       id="use141" />
    <use
       xlink:href="#Layer34_0_1_STROKES"
       id="use142" />
    <use
       xlink:href="#Layer34_0_2_STROKES"
       id="use143" />
  </g>
  <g
     id="g146"
     style="display:inline"
     inkscape:label="RT"
     transform="translate(499.12916,12.764306)">
    <use
       xlink:href="#Layer33_0_FILL"
       id="use144" />
    <use
       xlink:href="#Layer33_0_1_STROKES"
       id="use145" />
    <use
       xlink:href="#Layer33_0_2_STROKES"
       id="use146" />
  </g>
  <g
     id="g137"
     style="display:inline"
     inkscape:label="LB"
     transform="translate(154.73423,27.351935)">
    <use
       xlink:href="#Layer36_0_FILL"
       id="use135" />
    <use
       xlink:href="#Layer36_0_1_STROKES"
       id="use136" />
    <use
       xlink:href="#Layer36_0_2_STROKES"
       id="use137" />
  </g>
  <g
     id="g140"
     style="display:inline"
     inkscape:label="RB"
     transform="translate(439.51015,24.180705)">
    <use
       xlink:href="#Layer35_0_FILL"
       id="use138" />
    <use
       xlink:href="#Layer35_0_1_STROKES"
       id="use139" />
    <use
       xlink:href="#Layer35_0_2_STROKES"
       id="use140" />
  </g>
  <g
     id="g156"
     style="display:inline"
     inkscape:label="Right_Stick"
     transform="matrix(0.97130114,0,0,0.97130114,392.74248,272.33689)">
    <use
       xlink:href="#Layer30_0_FILL"
       id="use155" />
    <use
       xlink:href="#Layer30_0_1_STROKES"
       id="use156" />
  </g>
  <g
     id="g158"
     style="display:inline"
     inkscape:label="Left_Stick"
     transform="matrix(0.97187404,0,0,0.97187404,123.11804,172.92746)">
    <use
       xlink:href="#Layer29_0_FILL"
       id="use157" />
    <use
       xlink:href="#Layer29_0_1_STROKES"
       id="use158" />
  </g>
  <g
     id="g150"
     style="display:inline"
     inkscape:label="Right_Stick_Click"
     transform="translate(391.94179,248.1491)">
    <use
       xlink:href="#Layer32_0_FILL"
       id="use147" />
    <use
       xlink:href="#Layer32_0_1_STROKES"
       id="use148" />
    <use
       xlink:href="#Layer32_0_2_STROKES"
       id="use149" />
    <use
       xlink:href="#Layer32_0_3_STROKES"
       id="use150" />
  </g>
  <g
     id="g154"
     style="display:inline"
     inkscape:label="Left_Stick_Click"
     transform="translate(121.36209,144.47005)">
    <use
       xlink:href="#Layer31_0_FILL"
       id="use151" />
    <use
       xlink:href="#Layer31_0_1_STROKES"
       id="use152" />
    <use
       xlink:href="#Layer31_0_2_STROKES"
       id="use153" />
    <use
       xlink:href="#Layer31_0_3_STROKES"
       id="use154" />
  </g>
  <g
     id="g159"
     style="display:inline"
     inkscape:label="X"
     transform="matrix(0.57971354,0,0,0.57971354,452.38983,189.19615)">
    <use
       xlink:href="#Layer28_0_FILL"
       id="use159" />
  </g>
  <g
     id="g160"
     style="display:inline"
     inkscape:label="Y"
     transform="matrix(0.57846635,0,0,0.57846635,501.28734,143.65819)">
    <use
       xlink:href="#Layer27_0_FILL"
       id="use160" />
  </g>
  <g
     id="g161"
     style="display:inline"
     inkscape:label="B"
     transform="matrix(0.5813504,0,0,0.5813504,547.87051,185.47548)">
    <use
       xlink:href="#Layer26_0_FILL"
       id="use161" />
  </g>
  <g
     id="g162"
     style="display:inline"
     inkscape:label="A"
     transform="matrix(0.57892514,0,0,0.57892514,498.89382,231.34943)">
    <use
       xlink:href="#Layer25_0_FILL"
       id="use162" />
  </g>
</svg>
